<svg width="960" height="540" viewBox="0 0 960 540" xmlns="http://www.w3.org/2000/svg"><mask id="satori_om-id"><rect x="0" y="0" width="960" height="540" fill="#fff"/></mask><rect x="0" y="0" width="960" height="540" fill="#F0EBDE"/><defs><clipPath id="satori_bc-id-0"><rect x="52" y="52" width="856" height="436"/></clipPath></defs><mask id="satori_om-id-0"><rect x="54" y="54" width="852" height="432" fill="#fff"/><path width="856" height="436" fill="none" stroke="#000" stroke-width="4" d="M52,52 A0,0 0 0 1 52,52 h856 a0,0 0 0 1 0,0 v436 a0,0 0 0 1 0,0 h-856 a0,0 0 0 1 0,0 v-436 A0,0 0 0 1 52,52"/></mask><g opacity="0.9"><path width="856" height="436" clip-path="url(#satori_bc-id-0)" fill="none" stroke="#1F2BE0" stroke-width="4" d="M52,52 A0,0 0 0 1 52,52 h856 a0,0 0 0 1 0,0 v436 a0,0 0 0 1 0,0 h-856 a0,0 0 0 1 0,0 v-436 A0,0 0 0 1 52,52"/></g><mask id="satori_om-id-1"><rect x="72" y="74" width="102" height="20" fill="#fff"/></mask><text x="72" y="90" width="51.6650390625" height="20.09765625" font-weight="900" font-style="normal" font-size="15" font-family="svglidedefault" fill="#1F2BE0">TREND</text><text x="123.6650390625" y="90" width="4.16748046875" height="20.09765625" font-weight="900" font-style="normal" font-size="15" font-family="svglidedefault" fill="#1F2BE0"> </text><text x="127.83251953125" y="90" width="45.84228515625" height="20.09765625" font-weight="900" font-style="normal" font-size="15" font-family="svglidedefault" fill="#1F2BE0">INDEX</text><mask id="satori_om-id-2"><rect x="70" y="112" width="570" height="55" fill="#fff"/></mask><text x="70" y="162" width="54.7998046875" height="54.519999999999996" font-weight="500" font-style="normal" font-size="58" font-family="svglidedefault" fill="#1F2BE0">AI</text><text x="124.7998046875" y="162" width="16.1142578125" height="54.519999999999996" font-weight="500" font-style="normal" font-size="58" font-family="svglidedefault" fill="#1F2BE0"> </text><text x="140.9140625" y="162" width="58" height="54.519999999999996" font-weight="500" font-style="normal" font-size="58" font-family="svglidedefault" fill="#1F2BE0">应</text><text x="198.9140625" y="162" width="58" height="54.519999999999996" font-weight="500" font-style="normal" font-size="58" font-family="svglidedefault" fill="#1F2BE0">用</text><text x="256.9140625" y="162" width="58" height="54.519999999999996" font-weight="500" font-style="normal" font-size="58" font-family="svglidedefault" fill="#1F2BE0">趋</text><text x="314.9140625" y="162" width="58" height="54.519999999999996" font-weight="500" font-style="normal" font-size="58" font-family="svglidedefault" fill="#1F2BE0">势</text><text x="372.9140625" y="162" width="58" height="54.519999999999996" font-weight="500" font-style="normal" font-size="58" font-family="svglidedefault" fill="#1F2BE0">索</text><text x="430.9140625" y="162" width="58" height="54.519999999999996" font-weight="500" font-style="normal" font-size="58" font-family="svglidedefault" fill="#1F2BE0">引</text><mask id="satori_om-id-3"><rect x="72" y="250" width="500" height="25" fill="#fff"/></mask><text x="72" y="270" width="19" height="24.7" font-weight="normal" font-style="normal" font-size="19" font-family="svglidedefault" fill="#4F5AB8">用</text><text x="91" y="270" width="19" height="24.7" font-weight="normal" font-style="normal" font-size="19" font-family="svglidedefault" fill="#4F5AB8">杂</text><text x="110" y="270" width="19" height="24.7" font-weight="normal" font-style="normal" font-size="19" font-family="svglidedefault" fill="#4F5AB8">志</text><text x="129" y="270" width="19" height="24.7" font-weight="normal" font-style="normal" font-size="19" font-family="svglidedefault" fill="#4F5AB8">式</text><text x="148" y="270" width="5.27880859375" height="24.7" font-weight="normal" font-style="normal" font-size="19" font-family="svglidedefault" fill="#4F5AB8"> </text><text x="153.27880859375" y="270" width="31.68212890625" height="24.7" font-weight="normal" font-style="normal" font-size="19" font-family="svglidedefault" fill="#4F5AB8">grid</text><text x="184.9609375" y="270" width="19" height="24.7" font-weight="normal" font-style="normal" font-size="19" font-family="svglidedefault" fill="#4F5AB8">、</text><text x="203.9609375" y="270" width="19" height="24.7" font-weight="normal" font-style="normal" font-size="19" font-family="svglidedefault" fill="#4F5AB8">索</text><text x="222.9609375" y="270" width="19" height="24.7" font-weight="normal" font-style="normal" font-size="19" font-family="svglidedefault" fill="#4F5AB8">引</text><text x="241.9609375" y="270" width="19" height="24.7" font-weight="normal" font-style="normal" font-size="19" font-family="svglidedefault" fill="#4F5AB8">行</text><text x="260.9609375" y="270" width="19" height="24.7" font-weight="normal" font-style="normal" font-size="19" font-family="svglidedefault" fill="#4F5AB8">和</text><text x="279.9609375" y="270" width="19" height="24.7" font-weight="normal" font-style="normal" font-size="19" font-family="svglidedefault" fill="#4F5AB8">像</text><text x="298.9609375" y="270" width="19" height="24.7" font-weight="normal" font-style="normal" font-size="19" font-family="svglidedefault" fill="#4F5AB8">素</text><text x="317.9609375" y="270" width="19" height="24.7" font-weight="normal" font-style="normal" font-size="19" font-family="svglidedefault" fill="#4F5AB8">块</text><text x="336.9609375" y="270" width="19" height="24.7" font-weight="normal" font-style="normal" font-size="19" font-family="svglidedefault" fill="#4F5AB8">表</text><text x="355.9609375" y="270" width="19" height="24.7" font-weight="normal" font-style="normal" font-size="19" font-family="svglidedefault" fill="#4F5AB8">达</text><text x="374.9609375" y="270" width="19" height="24.7" font-weight="normal" font-style="normal" font-size="19" font-family="svglidedefault" fill="#4F5AB8">趋</text><text x="393.9609375" y="270" width="19" height="24.7" font-weight="normal" font-style="normal" font-size="19" font-family="svglidedefault" fill="#4F5AB8">势</text><text x="412.9609375" y="270" width="19" height="24.7" font-weight="normal" font-style="normal" font-size="19" font-family="svglidedefault" fill="#4F5AB8">报</text><text x="431.9609375" y="270" width="19" height="24.7" font-weight="normal" font-style="normal" font-size="19" font-family="svglidedefault" fill="#4F5AB8">告</text><text x="450.9609375" y="270" width="19" height="24.7" font-weight="normal" font-style="normal" font-size="19" font-family="svglidedefault" fill="#4F5AB8">与</text><text x="469.9609375" y="270" width="19" height="24.7" font-weight="normal" font-style="normal" font-size="19" font-family="svglidedefault" fill="#4F5AB8">市</text><text x="488.9609375" y="270" width="19" height="24.7" font-weight="normal" font-style="normal" font-size="19" font-family="svglidedefault" fill="#4F5AB8">场</text><text x="507.9609375" y="270" width="19" height="24.7" font-weight="normal" font-style="normal" font-size="19" font-family="svglidedefault" fill="#4F5AB8">观</text><text x="526.9609375" y="270" width="19" height="24.7" font-weight="normal" font-style="normal" font-size="19" font-family="svglidedefault" fill="#4F5AB8">察</text><text x="545.9609375" y="270" width="19" height="24.7" font-weight="normal" font-style="normal" font-size="19" font-family="svglidedefault" fill="#4F5AB8">。</text><mask id="satori_om-id-4"><rect x="716" y="92" width="170" height="170" fill="#fff"/></mask><mask id="satori_om-id-4-0"><rect x="716" y="92" width="34" height="34" fill="#fff"/></mask><rect x="716" y="92" width="34" height="34" fill="#1F2BE0"/><mask id="satori_om-id-4-1"><rect x="754" y="92" width="34" height="34" fill="#fff"/></mask><g opacity="0.42"><rect x="754" y="92" width="34" height="34" fill="#E6E0CE"/></g><mask id="satori_om-id-4-2"><rect x="792" y="92" width="34" height="34" fill="#fff"/></mask><g opacity="0.42"><rect x="792" y="92" width="34" height="34" fill="#E6E0CE"/></g><mask id="satori_om-id-4-3"><rect x="830" y="92" width="34" height="34" fill="#fff"/></mask><rect x="830" y="92" width="34" height="34" fill="#1F2BE0"/><mask id="satori_om-id-4-4"><rect x="716" y="130" width="34" height="34" fill="#fff"/></mask><g opacity="0.42"><rect x="716" y="130" width="34" height="34" fill="#E6E0CE"/></g><mask id="satori_om-id-4-5"><rect x="754" y="130" width="34" height="34" fill="#fff"/></mask><g opacity="0.42"><rect x="754" y="130" width="34" height="34" fill="#E6E0CE"/></g><mask id="satori_om-id-4-6"><rect x="792" y="130" width="34" height="34" fill="#fff"/></mask><rect x="792" y="130" width="34" height="34" fill="#1F2BE0"/><mask id="satori_om-id-4-7"><rect x="830" y="130" width="34" height="34" fill="#fff"/></mask><g opacity="0.42"><rect x="830" y="130" width="34" height="34" fill="#E6E0CE"/></g><mask id="satori_om-id-4-8"><rect x="716" y="168" width="34" height="34" fill="#fff"/></mask><g opacity="0.42"><rect x="716" y="168" width="34" height="34" fill="#E6E0CE"/></g><mask id="satori_om-id-4-9"><rect x="754" y="168" width="34" height="34" fill="#fff"/></mask><rect x="754" y="168" width="34" height="34" fill="#1F2BE0"/><mask id="satori_om-id-4-10"><rect x="792" y="168" width="34" height="34" fill="#fff"/></mask><g opacity="0.42"><rect x="792" y="168" width="34" height="34" fill="#E6E0CE"/></g><mask id="satori_om-id-4-11"><rect x="830" y="168" width="34" height="34" fill="#fff"/></mask><g opacity="0.42"><rect x="830" y="168" width="34" height="34" fill="#E6E0CE"/></g><mask id="satori_om-id-4-12"><rect x="716" y="206" width="34" height="34" fill="#fff"/></mask><rect x="716" y="206" width="34" height="34" fill="#1F2BE0"/><mask id="satori_om-id-4-13"><rect x="754" y="206" width="34" height="34" fill="#fff"/></mask><g opacity="0.42"><rect x="754" y="206" width="34" height="34" fill="#E6E0CE"/></g><mask id="satori_om-id-4-14"><rect x="792" y="206" width="34" height="34" fill="#fff"/></mask><g opacity="0.42"><rect x="792" y="206" width="34" height="34" fill="#E6E0CE"/></g><mask id="satori_om-id-4-15"><rect x="830" y="206" width="34" height="34" fill="#fff"/></mask><rect x="830" y="206" width="34" height="34" fill="#1F2BE0"/><mask id="satori_om-id-5"><rect x="72" y="298" width="810" height="168" fill="#fff"/></mask><defs><clipPath id="satori_bc-id-5-0"><rect x="72" y="298" width="810" height="42"/></clipPath></defs><mask id="satori_om-id-5-0"><rect x="72" y="299" width="810" height="41" fill="#fff"/><path width="810" height="42" fill="none" stroke="#000" stroke-width="2" d="M72,298 A0,0 0 0 1 72,298 h810 A0,0 0 0 1 882,298"/></mask><path width="810" height="42" clip-path="url(#satori_bc-id-5-0)" fill="none" stroke="#1F2BE0" stroke-width="2" d="M72,298 A0,0 0 0 1 72,298 h810 A0,0 0 0 1 882,298"/><mask id="satori_om-id-5-0-0"><rect x="72" y="309" width="54" height="21" fill="#fff"/></mask><text x="72" y="326" width="17.796875" height="21.4375" font-weight="850" font-style="normal" font-size="16" font-family="svglidedefault" fill="#1F2BE0">01</text><mask id="satori_om-id-5-0-1"><rect x="126" y="307" width="662" height="25" fill="#fff"/></mask><text x="126" y="327" width="19" height="25.45703125" font-weight="650" font-style="normal" font-size="19" font-family="svglidedefault" fill="#171B2F">模</text><text x="145" y="327" width="19" height="25.45703125" font-weight="650" font-style="normal" font-size="19" font-family="svglidedefault" fill="#171B2F">型</text><text x="164" y="327" width="19" height="25.45703125" font-weight="650" font-style="normal" font-size="19" font-family="svglidedefault" fill="#171B2F">成</text><text x="183" y="327" width="19" height="25.45703125" font-weight="650" font-style="normal" font-size="19" font-family="svglidedefault" fill="#171B2F">本</text><text x="202" y="327" width="19" height="25.45703125" font-weight="650" font-style="normal" font-size="19" font-family="svglidedefault" fill="#171B2F">压</text><text x="221" y="327" width="19" height="25.45703125" font-weight="650" font-style="normal" font-size="19" font-family="svglidedefault" fill="#171B2F">力</text><mask id="satori_om-id-5-0-2"><rect x="788" y="311" width="94" height="17" fill="#fff"/></mask><text x="788" y="325" width="47.658203125" height="17.41796875" font-weight="900" font-style="normal" font-size="13" font-family="svglidedefault" fill="#1F2BE0">WATCH</text><defs><clipPath id="satori_bc-id-5-1"><rect x="72" y="340" width="810" height="42"/></clipPath></defs><mask id="satori_om-id-5-1"><rect x="72" y="341" width="810" height="41" fill="#fff"/><path width="810" height="42" fill="none" stroke="#000" stroke-width="2" d="M72,340 A0,0 0 0 1 72,340 h810 A0,0 0 0 1 882,340"/></mask><path width="810" height="42" clip-path="url(#satori_bc-id-5-1)" fill="none" stroke="#1F2BE0" stroke-width="2" d="M72,340 A0,0 0 0 1 72,340 h810 A0,0 0 0 1 882,340"/><mask id="satori_om-id-5-1-0"><rect x="72" y="351" width="54" height="21" fill="#fff"/></mask><text x="72" y="368" width="17.796875" height="21.4375" font-weight="850" font-style="normal" font-size="16" font-family="svglidedefault" fill="#1F2BE0">02</text><mask id="satori_om-id-5-1-1"><rect x="126" y="349" width="662" height="25" fill="#fff"/></mask><text x="126" y="369" width="49.65234375" height="25.45703125" font-weight="650" font-style="normal" font-size="19" font-family="svglidedefault" fill="#171B2F">Agent</text><text x="175.65234375" y="369" width="5.27880859375" height="25.45703125" font-weight="650" font-style="normal" font-size="19" font-family="svglidedefault" fill="#171B2F"> </text><text x="180.93115234375" y="369" width="19" height="25.45703125" font-weight="650" font-style="normal" font-size="19" font-family="svglidedefault" fill="#171B2F">工</text><text x="199.93115234375" y="369" width="19" height="25.45703125" font-weight="650" font-style="normal" font-size="19" font-family="svglidedefault" fill="#171B2F">作</text><text x="218.93115234375" y="369" width="19" height="25.45703125" font-weight="650" font-style="normal" font-size="19" font-family="svglidedefault" fill="#171B2F">流</text><text x="237.93115234375" y="369" width="19" height="25.45703125" font-weight="650" font-style="normal" font-size="19" font-family="svglidedefault" fill="#171B2F">成</text><text x="256.93115234375" y="369" width="19" height="25.45703125" font-weight="650" font-style="normal" font-size="19" font-family="svglidedefault" fill="#171B2F">形</text><mask id="satori_om-id-5-1-2"><rect x="788" y="353" width="94" height="17" fill="#fff"/></mask><text x="788" y="367" width="44.78271484375" height="17.41796875" font-weight="900" font-style="normal" font-size="13" font-family="svglidedefault" fill="#1F2BE0">RISING</text><defs><clipPath id="satori_bc-id-5-2"><rect x="72" y="382" width="810" height="42"/></clipPath></defs><mask id="satori_om-id-5-2"><rect x="72" y="383" width="810" height="41" fill="#fff"/><path width="810" height="42" fill="none" stroke="#000" stroke-width="2" d="M72,382 A0,0 0 0 1 72,382 h810 A0,0 0 0 1 882,382"/></mask><path width="810" height="42" clip-path="url(#satori_bc-id-5-2)" fill="none" stroke="#1F2BE0" stroke-width="2" d="M72,382 A0,0 0 0 1 72,382 h810 A0,0 0 0 1 882,382"/><mask id="satori_om-id-5-2-0"><rect x="72" y="393" width="54" height="21" fill="#fff"/></mask><text x="72" y="410" width="17.796875" height="21.4375" font-weight="850" font-style="normal" font-size="16" font-family="svglidedefault" fill="#1F2BE0">03</text><mask id="satori_om-id-5-2-1"><rect x="126" y="391" width="662" height="25" fill="#fff"/></mask><text x="126" y="411" width="19" height="25.45703125" font-weight="650" font-style="normal" font-size="19" font-family="svglidedefault" fill="#171B2F">设</text><text x="145" y="411" width="19" height="25.45703125" font-weight="650" font-style="normal" font-size="19" font-family="svglidedefault" fill="#171B2F">计</text><text x="164" y="411" width="19" height="25.45703125" font-weight="650" font-style="normal" font-size="19" font-family="svglidedefault" fill="#171B2F">运</text><text x="183" y="411" width="19" height="25.45703125" font-weight="650" font-style="normal" font-size="19" font-family="svglidedefault" fill="#171B2F">营</text><text x="202" y="411" width="19" height="25.45703125" font-weight="650" font-style="normal" font-size="19" font-family="svglidedefault" fill="#171B2F">成</text><text x="221" y="411" width="19" height="25.45703125" font-weight="650" font-style="normal" font-size="19" font-family="svglidedefault" fill="#171B2F">熟</text><mask id="satori_om-id-5-2-2"><rect x="788" y="395" width="94" height="17" fill="#fff"/></mask><text x="788" y="409" width="47.658203125" height="17.41796875" font-weight="900" font-style="normal" font-size="13" font-family="svglidedefault" fill="#1F2BE0">WATCH</text><defs><clipPath id="satori_bc-id-5-3"><rect x="72" y="424" width="810" height="42"/></clipPath></defs><mask id="satori_om-id-5-3"><rect x="72" y="425" width="810" height="41" fill="#fff"/><path width="810" height="42" fill="none" stroke="#000" stroke-width="2" d="M72,424 A0,0 0 0 1 72,424 h810 A0,0 0 0 1 882,424"/></mask><path width="810" height="42" clip-path="url(#satori_bc-id-5-3)" fill="none" stroke="#1F2BE0" stroke-width="2" d="M72,424 A0,0 0 0 1 72,424 h810 A0,0 0 0 1 882,424"/><mask id="satori_om-id-5-3-0"><rect x="72" y="435" width="54" height="21" fill="#fff"/></mask><text x="72" y="452" width="17.796875" height="21.4375" font-weight="850" font-style="normal" font-size="16" font-family="svglidedefault" fill="#1F2BE0">04</text><mask id="satori_om-id-5-3-1"><rect x="126" y="433" width="662" height="25" fill="#fff"/></mask><text x="126" y="453" width="19" height="25.45703125" font-weight="650" font-style="normal" font-size="19" font-family="svglidedefault" fill="#171B2F">治</text><text x="145" y="453" width="19" height="25.45703125" font-weight="650" font-style="normal" font-size="19" font-family="svglidedefault" fill="#171B2F">理</text><text x="164" y="453" width="19" height="25.45703125" font-weight="650" font-style="normal" font-size="19" font-family="svglidedefault" fill="#171B2F">缺</text><text x="183" y="453" width="19" height="25.45703125" font-weight="650" font-style="normal" font-size="19" font-family="svglidedefault" fill="#171B2F">口</text><text x="202" y="453" width="19" height="25.45703125" font-weight="650" font-style="normal" font-size="19" font-family="svglidedefault" fill="#171B2F">扩</text><text x="221" y="453" width="19" height="25.45703125" font-weight="650" font-style="normal" font-size="19" font-family="svglidedefault" fill="#171B2F">大</text><mask id="satori_om-id-5-3-2"><rect x="788" y="437" width="94" height="17" fill="#fff"/></mask><text x="788" y="451" width="44.78271484375" height="17.41796875" font-weight="900" font-style="normal" font-size="13" font-family="svglidedefault" fill="#1F2BE0">RISING</text></svg>