<svg width="960" height="540" viewBox="0 0 960 540" xmlns="http://www.w3.org/2000/svg"><mask id="satori_om-id"><rect x="0" y="0" width="960" height="540" fill="#fff"/></mask><rect x="0" y="0" width="960" height="540" fill="#EFE9DC"/><defs><clipPath id="satori_bc-id-0"><rect x="70" y="62" width="820" height="414"/></clipPath></defs><mask id="satori_om-id-0"><rect x="71" y="63" width="818" height="412" fill="#fff"/><path width="820" height="414" fill="none" stroke="#000" stroke-width="2" d="M70,62 A0,0 0 0 1 70,62 h820 a0,0 0 0 1 0,0 v414 a0,0 0 0 1 0,0 h-820 a0,0 0 0 1 0,0 v-414 A0,0 0 0 1 70,62"/></mask><path width="820" height="414" clip-path="url(#satori_bc-id-0)" fill="none" stroke="#756B60" stroke-width="2" d="M70,62 A0,0 0 0 1 70,62 h820 a0,0 0 0 1 0,0 v414 a0,0 0 0 1 0,0 h-820 a0,0 0 0 1 0,0 v-414 A0,0 0 0 1 70,62"/><defs><clipPath id="satori_bc-id-1"><rect x="92" y="86" width="258" height="258"/></clipPath></defs><mask id="satori_om-id-1"><rect x="94" y="88" width="254" height="254" fill="#fff"/><path width="258" height="258" fill="none" stroke="#000" stroke-width="4" d="M92,86 A0,0 0 0 1 92,86 h258 a0,0 0 0 1 0,0 v258 a0,0 0 0 1 0,0 h-258 a0,0 0 0 1 0,0 v-258 A0,0 0 0 1 92,86"/></mask><path width="258" height="258" clip-path="url(#satori_bc-id-1)" fill="none" stroke="#5F5549" stroke-width="4" d="M92,86 A0,0 0 0 1 92,86 h258 a0,0 0 0 1 0,0 v258 a0,0 0 0 1 0,0 h-258 a0,0 0 0 1 0,0 v-258 A0,0 0 0 1 92,86"/><defs><clipPath id="satori_bc-id-2"><path x="142" y="136" width="158" height="158" d="M221,136 h0 a79,79 0 0 1 79,79 v0 a79,79 0 0 1 -79,79 h0 a79,79 0 0 1 -79,-79 v0 a79,79 0 0 1 79,-79"/></clipPath></defs><mask id="satori_om-id-2"><rect x="144" y="138" width="154" height="154" fill="#fff"/><path width="158" height="158" fill="none" stroke="#000" stroke-width="4" d="M165.139,159.139 A79,79 0 0 1 221,136 h0 a79,79 0 0 1 79,79 v0 a79,79 0 0 1 -79,79 h0 a79,79 0 0 1 -79,-79 v0 A79,79 0 0 1 165.139,159.139"/></mask><path width="158" height="158" clip-path="url(#satori_bc-id-2)" fill="none" stroke="#A28A6A" stroke-width="4" d="M165.139,159.139 A79,79 0 0 1 221,136 h0 a79,79 0 0 1 79,79 v0 a79,79 0 0 1 -79,79 h0 a79,79 0 0 1 -79,-79 v0 A79,79 0 0 1 165.139,159.139"/><mask id="satori_om-id-3"><rect x="392" y="90" width="163" height="20" fill="#fff"/></mask><text x="392" y="106" width="117.50244140625" height="20.09765625" font-weight="850" font-style="normal" font-size="15" font-family="svglidedefault" fill="#756B60">ARCHITECTURE</text><text x="509.50244140625" y="106" width="4.16748046875" height="20.09765625" font-weight="850" font-style="normal" font-size="15" font-family="svglidedefault" fill="#756B60"> </text><text x="513.669921875" y="106" width="40.84716796875" height="20.09765625" font-weight="850" font-style="normal" font-size="15" font-family="svglidedefault" fill="#756B60">SPEC</text><mask id="satori_om-id-4"><rect x="390" y="124" width="430" height="47" fill="#fff"/></mask><text x="390" y="166" width="46" height="47.38" font-weight="650" font-style="normal" font-size="46" font-family="svglidedefault" fill="#27221D">系</text><text x="436" y="166" width="46" height="47.38" font-weight="650" font-style="normal" font-size="46" font-family="svglidedefault" fill="#27221D">统</text><text x="482" y="166" width="46" height="47.38" font-weight="650" font-style="normal" font-size="46" font-family="svglidedefault" fill="#27221D">架</text><text x="528" y="166" width="46" height="47.38" font-weight="650" font-style="normal" font-size="46" font-family="svglidedefault" fill="#27221D">构</text><text x="574" y="166" width="46" height="47.38" font-weight="650" font-style="normal" font-size="46" font-family="svglidedefault" fill="#27221D">规</text><text x="620" y="166" width="46" height="47.38" font-weight="650" font-style="normal" font-size="46" font-family="svglidedefault" fill="#27221D">格</text><mask id="satori_om-id-5"><rect x="392" y="238" width="396" height="52" fill="#fff"/></mask><text x="392" y="259" width="20" height="26.400000000000002" font-weight="normal" font-style="normal" font-size="20" font-family="svglidedefault" fill="#756B60">低</text><text x="412" y="259" width="20" height="26.400000000000002" font-weight="normal" font-style="normal" font-size="20" font-family="svglidedefault" fill="#756B60">密</text><text x="432" y="259" width="20" height="26.400000000000002" font-weight="normal" font-style="normal" font-size="20" font-family="svglidedefault" fill="#756B60">度</text><text x="452" y="259" width="20" height="26.400000000000002" font-weight="normal" font-style="normal" font-size="20" font-family="svglidedefault" fill="#756B60">几</text><text x="472" y="259" width="20" height="26.400000000000002" font-weight="normal" font-style="normal" font-size="20" font-family="svglidedefault" fill="#756B60">何</text><text x="492" y="259" width="20" height="26.400000000000002" font-weight="normal" font-style="normal" font-size="20" font-family="svglidedefault" fill="#756B60">和</text><text x="512" y="259" width="5.556640625" height="26.400000000000002" font-weight="normal" font-style="normal" font-size="20" font-family="svglidedefault" fill="#756B60"> </text><text x="517.556640625" y="259" width="64.482421875" height="26.400000000000002" font-weight="normal" font-style="normal" font-size="20" font-family="svglidedefault" fill="#756B60">hairline</text><text x="582.0390625" y="259" width="5.556640625" height="26.400000000000002" font-weight="normal" font-style="normal" font-size="20" font-family="svglidedefault" fill="#756B60"> </text><text x="587.595703125" y="259" width="42.2265625" height="26.400000000000002" font-weight="normal" font-style="normal" font-size="20" font-family="svglidedefault" fill="#756B60">rows</text><text x="629.822265625" y="259" width="5.556640625" height="26.400000000000002" font-weight="normal" font-style="normal" font-size="20" font-family="svglidedefault" fill="#756B60"> </text><text x="635.37890625" y="259" width="20" height="26.400000000000002" font-weight="normal" font-style="normal" font-size="20" font-family="svglidedefault" fill="#756B60">适</text><text x="655.37890625" y="259" width="20" height="26.400000000000002" font-weight="normal" font-style="normal" font-size="20" font-family="svglidedefault" fill="#756B60">合</text><text x="675.37890625" y="259" width="20" height="26.400000000000002" font-weight="normal" font-style="normal" font-size="20" font-family="svglidedefault" fill="#756B60">正</text><text x="695.37890625" y="259" width="20" height="26.400000000000002" font-weight="normal" font-style="normal" font-size="20" font-family="svglidedefault" fill="#756B60">式</text><text x="715.37890625" y="259" width="20" height="26.400000000000002" font-weight="normal" font-style="normal" font-size="20" font-family="svglidedefault" fill="#756B60">架</text><text x="735.37890625" y="259" width="20" height="26.400000000000002" font-weight="normal" font-style="normal" font-size="20" font-family="svglidedefault" fill="#756B60">构</text><text x="755.37890625" y="259" width="20" height="26.400000000000002" font-weight="normal" font-style="normal" font-size="20" font-family="svglidedefault" fill="#756B60">说</text><text x="392" y="285" width="20" height="26.400000000000002" font-weight="normal" font-style="normal" font-size="20" font-family="svglidedefault" fill="#756B60">明</text><text x="412" y="285" width="20" height="26.400000000000002" font-weight="normal" font-style="normal" font-size="20" font-family="svglidedefault" fill="#756B60">、</text><text x="432" y="285" width="20" height="26.400000000000002" font-weight="normal" font-style="normal" font-size="20" font-family="svglidedefault" fill="#756B60">空</text><text x="452" y="285" width="20" height="26.400000000000002" font-weight="normal" font-style="normal" font-size="20" font-family="svglidedefault" fill="#756B60">间</text><text x="472" y="285" width="20" height="26.400000000000002" font-weight="normal" font-style="normal" font-size="20" font-family="svglidedefault" fill="#756B60">规</text><text x="492" y="285" width="20" height="26.400000000000002" font-weight="normal" font-style="normal" font-size="20" font-family="svglidedefault" fill="#756B60">划</text><text x="512" y="285" width="20" height="26.400000000000002" font-weight="normal" font-style="normal" font-size="20" font-family="svglidedefault" fill="#756B60">和</text><text x="532" y="285" width="20" height="26.400000000000002" font-weight="normal" font-style="normal" font-size="20" font-family="svglidedefault" fill="#756B60">研</text><text x="552" y="285" width="20" height="26.400000000000002" font-weight="normal" font-style="normal" font-size="20" font-family="svglidedefault" fill="#756B60">究</text><text x="572" y="285" width="20" height="26.400000000000002" font-weight="normal" font-style="normal" font-size="20" font-family="svglidedefault" fill="#756B60">目</text><text x="592" y="285" width="20" height="26.400000000000002" font-weight="normal" font-style="normal" font-size="20" font-family="svglidedefault" fill="#756B60">录</text><text x="612" y="285" width="20" height="26.400000000000002" font-weight="normal" font-style="normal" font-size="20" font-family="svglidedefault" fill="#756B60">。</text><mask id="satori_om-id-6"><rect x="92" y="386" width="746" height="70" fill="#fff"/></mask><defs><clipPath id="satori_bc-id-6-0"><rect x="92" y="386" width="176" height="70"/></clipPath></defs><mask id="satori_om-id-6-0"><rect x="92" y="387" width="176" height="69" fill="#fff"/><path width="176" height="70" fill="none" stroke="#000" stroke-width="2" d="M92,386 A0,0 0 0 1 92,386 h176 A0,0 0 0 1 268,386"/></mask><path width="176" height="70" clip-path="url(#satori_bc-id-6-0)" fill="none" stroke="#5F5549" stroke-width="2" d="M92,386 A0,0 0 0 1 92,386 h176 A0,0 0 0 1 268,386"/><mask id="satori_om-id-6-0-0"><rect x="92" y="399" width="18" height="49" fill="#fff"/></mask><text x="92" y="416" width="17.796875" height="21.4375" font-weight="850" font-style="normal" font-size="16" font-family="svglidedefault" fill="#5F5549">01</text><mask id="satori_om-id-6-0-1"><rect x="110" y="399" width="72" height="57" fill="#fff"/></mask><text x="110" y="416" width="18" height="19.8" font-weight="700" font-style="normal" font-size="18" font-family="svglidedefault" fill="#27221D">输</text><text x="128" y="416" width="18" height="19.8" font-weight="700" font-style="normal" font-size="18" font-family="svglidedefault" fill="#27221D">入</text><text x="146" y="416" width="18" height="19.8" font-weight="700" font-style="normal" font-size="18" font-family="svglidedefault" fill="#27221D">边</text><text x="164" y="416" width="18" height="19.8" font-weight="700" font-style="normal" font-size="18" font-family="svglidedefault" fill="#27221D">界</text><defs><clipPath id="satori_bc-id-6-1"><rect x="282" y="386" width="176" height="70"/></clipPath></defs><mask id="satori_om-id-6-1"><rect x="282" y="387" width="176" height="69" fill="#fff"/><path width="176" height="70" fill="none" stroke="#000" stroke-width="2" d="M282,386 A0,0 0 0 1 282,386 h176 A0,0 0 0 1 458,386"/></mask><path width="176" height="70" clip-path="url(#satori_bc-id-6-1)" fill="none" stroke="#5F5549" stroke-width="2" d="M282,386 A0,0 0 0 1 282,386 h176 A0,0 0 0 1 458,386"/><mask id="satori_om-id-6-1-0"><rect x="282" y="399" width="18" height="49" fill="#fff"/></mask><text x="282" y="416" width="17.796875" height="21.4375" font-weight="850" font-style="normal" font-size="16" font-family="svglidedefault" fill="#5F5549">02</text><mask id="satori_om-id-6-1-1"><rect x="300" y="399" width="72" height="57" fill="#fff"/></mask><text x="300" y="416" width="18" height="19.8" font-weight="700" font-style="normal" font-size="18" font-family="svglidedefault" fill="#27221D">处</text><text x="318" y="416" width="18" height="19.8" font-weight="700" font-style="normal" font-size="18" font-family="svglidedefault" fill="#27221D">理</text><text x="336" y="416" width="18" height="19.8" font-weight="700" font-style="normal" font-size="18" font-family="svglidedefault" fill="#27221D">结</text><text x="354" y="416" width="18" height="19.8" font-weight="700" font-style="normal" font-size="18" font-family="svglidedefault" fill="#27221D">构</text><defs><clipPath id="satori_bc-id-6-2"><rect x="472" y="386" width="176" height="70"/></clipPath></defs><mask id="satori_om-id-6-2"><rect x="472" y="387" width="176" height="69" fill="#fff"/><path width="176" height="70" fill="none" stroke="#000" stroke-width="2" d="M472,386 A0,0 0 0 1 472,386 h176 A0,0 0 0 1 648,386"/></mask><path width="176" height="70" clip-path="url(#satori_bc-id-6-2)" fill="none" stroke="#5F5549" stroke-width="2" d="M472,386 A0,0 0 0 1 472,386 h176 A0,0 0 0 1 648,386"/><mask id="satori_om-id-6-2-0"><rect x="472" y="399" width="18" height="49" fill="#fff"/></mask><text x="472" y="416" width="17.796875" height="21.4375" font-weight="850" font-style="normal" font-size="16" font-family="svglidedefault" fill="#5F5549">03</text><mask id="satori_om-id-6-2-1"><rect x="490" y="399" width="72" height="57" fill="#fff"/></mask><text x="490" y="416" width="18" height="19.8" font-weight="700" font-style="normal" font-size="18" font-family="svglidedefault" fill="#27221D">接</text><text x="508" y="416" width="18" height="19.8" font-weight="700" font-style="normal" font-size="18" font-family="svglidedefault" fill="#27221D">口</text><text x="526" y="416" width="18" height="19.8" font-weight="700" font-style="normal" font-size="18" font-family="svglidedefault" fill="#27221D">契</text><text x="544" y="416" width="18" height="19.8" font-weight="700" font-style="normal" font-size="18" font-family="svglidedefault" fill="#27221D">约</text><defs><clipPath id="satori_bc-id-6-3"><rect x="662" y="386" width="176" height="70"/></clipPath></defs><mask id="satori_om-id-6-3"><rect x="662" y="387" width="176" height="69" fill="#fff"/><path width="176" height="70" fill="none" stroke="#000" stroke-width="2" d="M662,386 A0,0 0 0 1 662,386 h176 A0,0 0 0 1 838,386"/></mask><path width="176" height="70" clip-path="url(#satori_bc-id-6-3)" fill="none" stroke="#5F5549" stroke-width="2" d="M662,386 A0,0 0 0 1 662,386 h176 A0,0 0 0 1 838,386"/><mask id="satori_om-id-6-3-0"><rect x="662" y="399" width="18" height="49" fill="#fff"/></mask><text x="662" y="416" width="17.796875" height="21.4375" font-weight="850" font-style="normal" font-size="16" font-family="svglidedefault" fill="#5F5549">04</text><mask id="satori_om-id-6-3-1"><rect x="680" y="399" width="72" height="57" fill="#fff"/></mask><text x="680" y="416" width="18" height="19.8" font-weight="700" font-style="normal" font-size="18" font-family="svglidedefault" fill="#27221D">交</text><text x="698" y="416" width="18" height="19.8" font-weight="700" font-style="normal" font-size="18" font-family="svglidedefault" fill="#27221D">付</text><text x="716" y="416" width="18" height="19.8" font-weight="700" font-style="normal" font-size="18" font-family="svglidedefault" fill="#27221D">节</text><text x="734" y="416" width="18" height="19.8" font-weight="700" font-style="normal" font-size="18" font-family="svglidedefault" fill="#27221D">奏</text></svg>