<svg width="960" height="540" viewBox="0 0 960 540" xmlns="http://www.w3.org/2000/svg"><mask id="satori_om-id"><rect x="0" y="0" width="960" height="540" fill="#fff"/></mask><rect x="0" y="0" width="960" height="540" fill="#EFE7D4"/><mask id="satori_om-id-0"><rect x="70" y="72" width="134" height="21" fill="#fff"/></mask><text x="70" y="89" width="84.4609375" height="21.4375" font-weight="900" font-style="normal" font-size="16" font-family="svglidedefault" fill="#2E4A2A">EDITORIAL</text><text x="154.4609375" y="89" width="4.4453125" height="21.4375" font-weight="900" font-style="normal" font-size="16" font-family="svglidedefault" fill="#2E4A2A"> </text><text x="158.90625" y="89" width="44.4453125" height="21.4375" font-weight="900" font-style="normal" font-size="16" font-family="svglidedefault" fill="#2E4A2A">NOTE</text><mask id="satori_om-id-1"><rect x="68" y="104" width="360" height="106" fill="#fff"/></mask><text x="68" y="204" width="131.251953125" height="106.2" font-weight="500" font-style="normal" font-size="118" font-family="svglidedefault" fill="#2E4A2A">73</text><text x="199.251953125" y="204" width="104.9208984375" height="106.2" font-weight="500" font-style="normal" font-size="118" font-family="svglidedefault" fill="#2E4A2A">%</text><mask id="satori_om-id-2"><rect x="442" y="104" width="380" height="45" fill="#fff"/></mask><text x="442" y="144" width="44" height="44.88" font-weight="600" font-style="normal" font-size="44" font-family="svglidedefault" fill="#1A1A17">证</text><text x="486" y="144" width="44" height="44.88" font-weight="600" font-style="normal" font-size="44" font-family="svglidedefault" fill="#1A1A17">据</text><text x="530" y="144" width="44" height="44.88" font-weight="600" font-style="normal" font-size="44" font-family="svglidedefault" fill="#1A1A17">改</text><text x="574" y="144" width="44" height="44.88" font-weight="600" font-style="normal" font-size="44" font-family="svglidedefault" fill="#1A1A17">变</text><text x="618" y="144" width="44" height="44.88" font-weight="600" font-style="normal" font-size="44" font-family="svglidedefault" fill="#1A1A17">了</text><text x="662" y="144" width="44" height="44.88" font-weight="600" font-style="normal" font-size="44" font-family="svglidedefault" fill="#1A1A17">决</text><text x="706" y="144" width="44" height="44.88" font-weight="600" font-style="normal" font-size="44" font-family="svglidedefault" fill="#1A1A17">策</text><mask id="satori_om-id-3"><rect x="444" y="238" width="360" height="52" fill="#fff"/></mask><text x="444" y="259" width="20" height="26.400000000000002" font-weight="normal" font-style="normal" font-size="20" font-family="svglidedefault" fill="#50634B">适</text><text x="464" y="259" width="20" height="26.400000000000002" font-weight="normal" font-style="normal" font-size="20" font-family="svglidedefault" fill="#50634B">合</text><text x="484" y="259" width="20" height="26.400000000000002" font-weight="normal" font-style="normal" font-size="20" font-family="svglidedefault" fill="#50634B">年</text><text x="504" y="259" width="20" height="26.400000000000002" font-weight="normal" font-style="normal" font-size="20" font-family="svglidedefault" fill="#50634B">度</text><text x="524" y="259" width="20" height="26.400000000000002" font-weight="normal" font-style="normal" font-size="20" font-family="svglidedefault" fill="#50634B">报</text><text x="544" y="259" width="20" height="26.400000000000002" font-weight="normal" font-style="normal" font-size="20" font-family="svglidedefault" fill="#50634B">告</text><text x="564" y="259" width="20" height="26.400000000000002" font-weight="normal" font-style="normal" font-size="20" font-family="svglidedefault" fill="#50634B">、</text><text x="584" y="259" width="20" height="26.400000000000002" font-weight="normal" font-style="normal" font-size="20" font-family="svglidedefault" fill="#50634B">用</text><text x="604" y="259" width="20" height="26.400000000000002" font-weight="normal" font-style="normal" font-size="20" font-family="svglidedefault" fill="#50634B">户</text><text x="624" y="259" width="20" height="26.400000000000002" font-weight="normal" font-style="normal" font-size="20" font-family="svglidedefault" fill="#50634B">研</text><text x="644" y="259" width="20" height="26.400000000000002" font-weight="normal" font-style="normal" font-size="20" font-family="svglidedefault" fill="#50634B">究</text><text x="664" y="259" width="20" height="26.400000000000002" font-weight="normal" font-style="normal" font-size="20" font-family="svglidedefault" fill="#50634B">、</text><text x="684" y="259" width="20" height="26.400000000000002" font-weight="normal" font-style="normal" font-size="20" font-family="svglidedefault" fill="#50634B">组</text><text x="704" y="259" width="20" height="26.400000000000002" font-weight="normal" font-style="normal" font-size="20" font-family="svglidedefault" fill="#50634B">织</text><text x="724" y="259" width="20" height="26.400000000000002" font-weight="normal" font-style="normal" font-size="20" font-family="svglidedefault" fill="#50634B">叙</text><text x="744" y="259" width="20" height="26.400000000000002" font-weight="normal" font-style="normal" font-size="20" font-family="svglidedefault" fill="#50634B">事</text><text x="764" y="259" width="20" height="26.400000000000002" font-weight="normal" font-style="normal" font-size="20" font-family="svglidedefault" fill="#50634B">中</text><text x="784" y="259" width="20" height="26.400000000000002" font-weight="normal" font-style="normal" font-size="20" font-family="svglidedefault" fill="#50634B">的</text><text x="444" y="285" width="20" height="26.400000000000002" font-weight="normal" font-style="normal" font-size="20" font-family="svglidedefault" fill="#50634B">大</text><text x="464" y="285" width="20" height="26.400000000000002" font-weight="normal" font-style="normal" font-size="20" font-family="svglidedefault" fill="#50634B">数</text><text x="484" y="285" width="20" height="26.400000000000002" font-weight="normal" font-style="normal" font-size="20" font-family="svglidedefault" fill="#50634B">字</text><text x="504" y="285" width="20" height="26.400000000000002" font-weight="normal" font-style="normal" font-size="20" font-family="svglidedefault" fill="#50634B">与</text><text x="524" y="285" width="20" height="26.400000000000002" font-weight="normal" font-style="normal" font-size="20" font-family="svglidedefault" fill="#50634B">编</text><text x="544" y="285" width="20" height="26.400000000000002" font-weight="normal" font-style="normal" font-size="20" font-family="svglidedefault" fill="#50634B">辑</text><text x="564" y="285" width="20" height="26.400000000000002" font-weight="normal" font-style="normal" font-size="20" font-family="svglidedefault" fill="#50634B">式</text><text x="584" y="285" width="20" height="26.400000000000002" font-weight="normal" font-style="normal" font-size="20" font-family="svglidedefault" fill="#50634B">卡</text><text x="604" y="285" width="20" height="26.400000000000002" font-weight="normal" font-style="normal" font-size="20" font-family="svglidedefault" fill="#50634B">片</text><text x="624" y="285" width="20" height="26.400000000000002" font-weight="normal" font-style="normal" font-size="20" font-family="svglidedefault" fill="#50634B">。</text><mask id="satori_om-id-4"><rect x="70" y="358" width="792" height="112" fill="#fff"/></mask><defs><clipPath id="satori_bc-id-4-0"><rect x="70" y="358" width="252" height="112"/></clipPath></defs><mask id="satori_om-id-4-0"><rect x="70" y="361" width="252" height="109" fill="#fff"/><path width="252" height="112" fill="none" stroke="#000" stroke-width="6" d="M70,358 A0,0 0 0 1 70,358 h252 A0,0 0 0 1 322,358"/></mask><rect x="70" y="358" width="252" height="112" fill="#E6DCC4"/><path width="252" height="112" clip-path="url(#satori_bc-id-4-0)" fill="none" stroke="#E89CB1" stroke-width="6" d="M70,358 A0,0 0 0 1 70,358 h252 A0,0 0 0 1 322,358"/><mask id="satori_om-id-4-0-0"><rect x="86" y="377" width="88" height="77" fill="#fff"/></mask><text x="86" y="398" width="22" height="24.64" font-weight="650" font-style="normal" font-size="22" font-family="svglidedefault" fill="#1A1A17">质</text><text x="108" y="398" width="22" height="24.64" font-weight="650" font-style="normal" font-size="22" font-family="svglidedefault" fill="#1A1A17">量</text><text x="130" y="398" width="22" height="24.64" font-weight="650" font-style="normal" font-size="22" font-family="svglidedefault" fill="#1A1A17">稳</text><text x="152" y="398" width="22" height="24.64" font-weight="650" font-style="normal" font-size="22" font-family="svglidedefault" fill="#1A1A17">定</text><defs><clipPath id="satori_bc-id-4-1"><rect x="340" y="358" width="252" height="112"/></clipPath></defs><mask id="satori_om-id-4-1"><rect x="340" y="361" width="252" height="109" fill="#fff"/><path width="252" height="112" fill="none" stroke="#000" stroke-width="6" d="M340,358 A0,0 0 0 1 340,358 h252 A0,0 0 0 1 592,358"/></mask><rect x="340" y="358" width="252" height="112" fill="#E6DCC4"/><path width="252" height="112" clip-path="url(#satori_bc-id-4-1)" fill="none" stroke="#2E4A2A" stroke-width="6" d="M340,358 A0,0 0 0 1 340,358 h252 A0,0 0 0 1 592,358"/><mask id="satori_om-id-4-1-0"><rect x="356" y="377" width="110" height="77" fill="#fff"/></mask><text x="356" y="398" width="22" height="24.64" font-weight="650" font-style="normal" font-size="22" font-family="svglidedefault" fill="#1A1A17">叙</text><text x="378" y="398" width="22" height="24.64" font-weight="650" font-style="normal" font-size="22" font-family="svglidedefault" fill="#1A1A17">事</text><text x="400" y="398" width="22" height="24.64" font-weight="650" font-style="normal" font-size="22" font-family="svglidedefault" fill="#1A1A17">更</text><text x="422" y="398" width="22" height="24.64" font-weight="650" font-style="normal" font-size="22" font-family="svglidedefault" fill="#1A1A17">聚</text><text x="444" y="398" width="22" height="24.64" font-weight="650" font-style="normal" font-size="22" font-family="svglidedefault" fill="#1A1A17">焦</text><defs><clipPath id="satori_bc-id-4-2"><rect x="610" y="358" width="252" height="112"/></clipPath></defs><mask id="satori_om-id-4-2"><rect x="610" y="361" width="252" height="109" fill="#fff"/><path width="252" height="112" fill="none" stroke="#000" stroke-width="6" d="M610,358 A0,0 0 0 1 610,358 h252 A0,0 0 0 1 862,358"/></mask><rect x="610" y="358" width="252" height="112" fill="#E6DCC4"/><path width="252" height="112" clip-path="url(#satori_bc-id-4-2)" fill="none" stroke="#2E4A2A" stroke-width="6" d="M610,358 A0,0 0 0 1 610,358 h252 A0,0 0 0 1 862,358"/><mask id="satori_om-id-4-2-0"><rect x="626" y="377" width="132" height="77" fill="#fff"/></mask><text x="626" y="398" width="22" height="24.64" font-weight="650" font-style="normal" font-size="22" font-family="svglidedefault" fill="#1A1A17">证</text><text x="648" y="398" width="22" height="24.64" font-weight="650" font-style="normal" font-size="22" font-family="svglidedefault" fill="#1A1A17">据</text><text x="670" y="398" width="22" height="24.64" font-weight="650" font-style="normal" font-size="22" font-family="svglidedefault" fill="#1A1A17">仍</text><text x="692" y="398" width="22" height="24.64" font-weight="650" font-style="normal" font-size="22" font-family="svglidedefault" fill="#1A1A17">需</text><text x="714" y="398" width="22" height="24.64" font-weight="650" font-style="normal" font-size="22" font-family="svglidedefault" fill="#1A1A17">补</text><text x="736" y="398" width="22" height="24.64" font-weight="650" font-style="normal" font-size="22" font-family="svglidedefault" fill="#1A1A17">齐</text></svg>