<svg width="960" height="540" viewBox="0 0 960 540" xmlns="http://www.w3.org/2000/svg"><mask id="satori_om-id"><rect x="0" y="0" width="960" height="540" fill="#fff"/></mask><rect x="0" y="0" width="960" height="540" fill="#FFFFFF"/><defs><clipPath id="satori_bc-id-0"><rect x="48" y="48" width="864" height="444"/></clipPath></defs><mask id="satori_om-id-0"><rect x="51" y="51" width="858" height="438" fill="#fff"/><path width="864" height="444" fill="none" stroke="#000" stroke-width="6" d="M48,48 A0,0 0 0 1 48,48 h864 a0,0 0 0 1 0,0 v444 a0,0 0 0 1 0,0 h-864 a0,0 0 0 1 0,0 v-444 A0,0 0 0 1 48,48"/></mask><path width="864" height="444" clip-path="url(#satori_bc-id-0)" fill="none" stroke="#1C1410" stroke-width="6" d="M48,48 A0,0 0 0 1 48,48 h864 a0,0 0 0 1 0,0 v444 a0,0 0 0 1 0,0 h-864 a0,0 0 0 1 0,0 v-444 A0,0 0 0 1 48,48"/><mask id="satori_om-id-1"><rect x="72" y="72" width="120" height="21" fill="#fff"/></mask><text x="72" y="89" width="65.7890625" height="21.4375" font-weight="900" font-style="normal" font-size="16" font-family="svglidedefault" fill="#1C1410">POSTER</text><text x="137.7890625" y="89" width="4.4453125" height="21.4375" font-weight="900" font-style="normal" font-size="16" font-family="svglidedefault" fill="#1C1410"> </text><text x="142.234375" y="89" width="48.8984375" height="21.4375" font-weight="900" font-style="normal" font-size="16" font-family="svglidedefault" fill="#1C1410">CLAIM</text><mask id="satori_om-id-2"><rect x="70" y="104" width="610" height="59" fill="#fff"/></mask><text x="70" y="160" width="66" height="59.4" font-weight="900" font-style="normal" font-size="66" font-family="svglidedefault" fill="#1C1410">现</text><text x="136" y="160" width="66" height="59.4" font-weight="900" font-style="normal" font-size="66" font-family="svglidedefault" fill="#1C1410">在</text><text x="202" y="160" width="66" height="59.4" font-weight="900" font-style="normal" font-size="66" font-family="svglidedefault" fill="#1C1410">就</text><text x="268" y="160" width="66" height="59.4" font-weight="900" font-style="normal" font-size="66" font-family="svglidedefault" fill="#1C1410">做</text><text x="334" y="160" width="66" height="59.4" font-weight="900" font-style="normal" font-size="66" font-family="svglidedefault" fill="#1C1410">判</text><text x="400" y="160" width="66" height="59.4" font-weight="900" font-style="normal" font-size="66" font-family="svglidedefault" fill="#1C1410">断</text><mask id="satori_om-id-3"><rect x="694" y="96" width="184" height="101" fill="#fff"/></mask><text x="694" y="194" width="144.3310546875" height="101.48" font-weight="900" font-style="normal" font-size="118" font-family="svglidedefault" fill="#D8000F">3X</text><mask id="satori_om-id-4"><rect x="74" y="272" width="470" height="52" fill="#fff"/></mask><text x="74" y="293" width="20" height="25.6" font-weight="normal" font-style="normal" font-size="20" font-family="svglidedefault" fill="#5A4036">用</text><text x="94" y="293" width="20" height="25.6" font-weight="normal" font-style="normal" font-size="20" font-family="svglidedefault" fill="#5A4036">海</text><text x="114" y="293" width="20" height="25.6" font-weight="normal" font-style="normal" font-size="20" font-family="svglidedefault" fill="#5A4036">报</text><text x="134" y="293" width="20" height="25.6" font-weight="normal" font-style="normal" font-size="20" font-family="svglidedefault" fill="#5A4036">式</text><text x="154" y="293" width="20" height="25.6" font-weight="normal" font-style="normal" font-size="20" font-family="svglidedefault" fill="#5A4036">大</text><text x="174" y="293" width="20" height="25.6" font-weight="normal" font-style="normal" font-size="20" font-family="svglidedefault" fill="#5A4036">标</text><text x="194" y="293" width="20" height="25.6" font-weight="normal" font-style="normal" font-size="20" font-family="svglidedefault" fill="#5A4036">题</text><text x="214" y="293" width="20" height="25.6" font-weight="normal" font-style="normal" font-size="20" font-family="svglidedefault" fill="#5A4036">和</text><text x="234" y="293" width="20" height="25.6" font-weight="normal" font-style="normal" font-size="20" font-family="svglidedefault" fill="#5A4036">强</text><text x="254" y="293" width="5.556640625" height="25.6" font-weight="normal" font-style="normal" font-size="20" font-family="svglidedefault" fill="#5A4036"> </text><text x="259.556640625" y="293" width="32.236328125" height="25.6" font-weight="normal" font-style="normal" font-size="20" font-family="svglidedefault" fill="#5A4036">stat</text><text x="291.79296875" y="293" width="5.556640625" height="25.6" font-weight="normal" font-style="normal" font-size="20" font-family="svglidedefault" fill="#5A4036"> </text><text x="297.349609375" y="293" width="20" height="25.6" font-weight="normal" font-style="normal" font-size="20" font-family="svglidedefault" fill="#5A4036">承</text><text x="317.349609375" y="293" width="20" height="25.6" font-weight="normal" font-style="normal" font-size="20" font-family="svglidedefault" fill="#5A4036">载</text><text x="337.349609375" y="293" width="5.556640625" height="25.6" font-weight="normal" font-style="normal" font-size="20" font-family="svglidedefault" fill="#5A4036"> </text><text x="342.90625" y="293" width="86.71875" height="25.6" font-weight="normal" font-style="normal" font-size="20" font-family="svglidedefault" fill="#5A4036">campaign</text><text x="429.625" y="293" width="20" height="25.6" font-weight="normal" font-style="normal" font-size="20" font-family="svglidedefault" fill="#5A4036">、</text><text x="449.625" y="293" width="20" height="25.6" font-weight="normal" font-style="normal" font-size="20" font-family="svglidedefault" fill="#5A4036">销</text><text x="469.625" y="293" width="20" height="25.6" font-weight="normal" font-style="normal" font-size="20" font-family="svglidedefault" fill="#5A4036">售</text><text x="489.625" y="293" width="20" height="25.6" font-weight="normal" font-style="normal" font-size="20" font-family="svglidedefault" fill="#5A4036">页</text><text x="509.625" y="293" width="20" height="25.6" font-weight="normal" font-style="normal" font-size="20" font-family="svglidedefault" fill="#5A4036">或</text><text x="74" y="319" width="20" height="25.6" font-weight="normal" font-style="normal" font-size="20" font-family="svglidedefault" fill="#5A4036">关</text><text x="94" y="319" width="20" height="25.6" font-weight="normal" font-style="normal" font-size="20" font-family="svglidedefault" fill="#5A4036">键</text><text x="114" y="319" width="20" height="25.6" font-weight="normal" font-style="normal" font-size="20" font-family="svglidedefault" fill="#5A4036">结</text><text x="134" y="319" width="20" height="25.6" font-weight="normal" font-style="normal" font-size="20" font-family="svglidedefault" fill="#5A4036">论</text><text x="154" y="319" width="20" height="25.6" font-weight="normal" font-style="normal" font-size="20" font-family="svglidedefault" fill="#5A4036">页</text><text x="174" y="319" width="20" height="25.6" font-weight="normal" font-style="normal" font-size="20" font-family="svglidedefault" fill="#5A4036">。</text><mask id="satori_om-id-5"><rect x="74" y="378" width="782" height="86" fill="#fff"/></mask><defs><clipPath id="satori_bc-id-5-0"><rect x="74" y="378" width="250" height="86"/></clipPath></defs><mask id="satori_om-id-5-0"><rect x="74" y="381" width="250" height="83" fill="#fff"/><path width="250" height="86" fill="none" stroke="#000" stroke-width="6" d="M74,378 A0,0 0 0 1 74,378 h250 A0,0 0 0 1 324,378"/></mask><path width="250" height="86" clip-path="url(#satori_bc-id-5-0)" fill="none" stroke="#D8000F" stroke-width="6" d="M74,378 A0,0 0 0 1 74,378 h250 A0,0 0 0 1 324,378"/><mask id="satori_om-id-5-0-0"><rect x="74" y="393" width="32" height="65" fill="#fff"/></mask><text x="74" y="423" width="31.14453125" height="37.515625" font-weight="900" font-style="normal" font-size="28" font-family="svglidedefault" fill="#D8000F">01</text><mask id="satori_om-id-5-0-1"><rect x="106" y="393" width="80" height="71" fill="#fff"/></mask><text x="106" y="412" width="20" height="21.6" font-weight="850" font-style="normal" font-size="20" font-family="svglidedefault" fill="#1C1410">结</text><text x="126" y="412" width="20" height="21.6" font-weight="850" font-style="normal" font-size="20" font-family="svglidedefault" fill="#1C1410">论</text><text x="146" y="412" width="20" height="21.6" font-weight="850" font-style="normal" font-size="20" font-family="svglidedefault" fill="#1C1410">明</text><text x="166" y="412" width="20" height="21.6" font-weight="850" font-style="normal" font-size="20" font-family="svglidedefault" fill="#1C1410">确</text><defs><clipPath id="satori_bc-id-5-1"><rect x="340" y="378" width="250" height="86"/></clipPath></defs><mask id="satori_om-id-5-1"><rect x="340" y="381" width="250" height="83" fill="#fff"/><path width="250" height="86" fill="none" stroke="#000" stroke-width="6" d="M340,378 A0,0 0 0 1 340,378 h250 A0,0 0 0 1 590,378"/></mask><path width="250" height="86" clip-path="url(#satori_bc-id-5-1)" fill="none" stroke="#D8000F" stroke-width="6" d="M340,378 A0,0 0 0 1 340,378 h250 A0,0 0 0 1 590,378"/><mask id="satori_om-id-5-1-0"><rect x="340" y="393" width="32" height="65" fill="#fff"/></mask><text x="340" y="423" width="31.14453125" height="37.515625" font-weight="900" font-style="normal" font-size="28" font-family="svglidedefault" fill="#D8000F">02</text><mask id="satori_om-id-5-1-1"><rect x="372" y="393" width="80" height="71" fill="#fff"/></mask><text x="372" y="412" width="20" height="21.6" font-weight="850" font-style="normal" font-size="20" font-family="svglidedefault" fill="#1C1410">证</text><text x="392" y="412" width="20" height="21.6" font-weight="850" font-style="normal" font-size="20" font-family="svglidedefault" fill="#1C1410">据</text><text x="412" y="412" width="20" height="21.6" font-weight="850" font-style="normal" font-size="20" font-family="svglidedefault" fill="#1C1410">充</text><text x="432" y="412" width="20" height="21.6" font-weight="850" font-style="normal" font-size="20" font-family="svglidedefault" fill="#1C1410">分</text><defs><clipPath id="satori_bc-id-5-2"><rect x="606" y="378" width="250" height="86"/></clipPath></defs><mask id="satori_om-id-5-2"><rect x="606" y="381" width="250" height="83" fill="#fff"/><path width="250" height="86" fill="none" stroke="#000" stroke-width="6" d="M606,378 A0,0 0 0 1 606,378 h250 A0,0 0 0 1 856,378"/></mask><path width="250" height="86" clip-path="url(#satori_bc-id-5-2)" fill="none" stroke="#D8000F" stroke-width="6" d="M606,378 A0,0 0 0 1 606,378 h250 A0,0 0 0 1 856,378"/><mask id="satori_om-id-5-2-0"><rect x="606" y="393" width="32" height="65" fill="#fff"/></mask><text x="606" y="423" width="31.14453125" height="37.515625" font-weight="900" font-style="normal" font-size="28" font-family="svglidedefault" fill="#D8000F">03</text><mask id="satori_om-id-5-2-1"><rect x="638" y="393" width="80" height="71" fill="#fff"/></mask><text x="638" y="412" width="20" height="21.6" font-weight="850" font-style="normal" font-size="20" font-family="svglidedefault" fill="#1C1410">行</text><text x="658" y="412" width="20" height="21.6" font-weight="850" font-style="normal" font-size="20" font-family="svglidedefault" fill="#1C1410">动</text><text x="678" y="412" width="20" height="21.6" font-weight="850" font-style="normal" font-size="20" font-family="svglidedefault" fill="#1C1410">立</text><text x="698" y="412" width="20" height="21.6" font-weight="850" font-style="normal" font-size="20" font-family="svglidedefault" fill="#1C1410">即</text></svg>