<svg width="960" height="540" viewBox="0 0 960 540" xmlns="http://www.w3.org/2000/svg"><clipPath id="satori_cp-id"><rect x="0" y="0" width="960" height="540"/></clipPath><mask id="satori_om-id"><rect x="0" y="0" width="960" height="540" fill="#fff"/></mask><rect x="0" y="0" width="960" height="540" fill="#EDE66B"/><mask id="satori_om-id-0"><rect x="66" y="48" width="146" height="13" fill="#fff" mask="url(#satori_om-id)"/></mask><text x="66" y="59" width="8.283125" height="12.600000000000001" font-weight="700" font-style="normal" font-size="12" font-family="svglidelabel" letter-spacing="0.08" clip-path="url(#satori_cp-id)" fill="#1E4FDB">A</text><text x="74.283125" y="59" width="4.29875" height="12.600000000000001" font-weight="700" font-style="normal" font-size="12" font-family="svglidelabel" letter-spacing="0.08" clip-path="url(#satori_cp-id)" fill="#1E4FDB"> </text><text x="78.581875" y="59" width="35.8609375" height="12.600000000000001" font-weight="700" font-style="normal" font-size="12" font-family="svglidelabel" letter-spacing="0.08" clip-path="url(#satori_cp-id)" fill="#1E4FDB">FIELD</text><text x="114.4428125" y="59" width="4.29875" height="12.600000000000001" font-weight="700" font-style="normal" font-size="12" font-family="svglidelabel" letter-spacing="0.08" clip-path="url(#satori_cp-id)" fill="#1E4FDB"> </text><text x="118.74156250000001" y="59" width="38.228125" height="12.600000000000001" font-weight="700" font-style="normal" font-size="12" font-family="svglidelabel" letter-spacing="0.08" clip-path="url(#satori_cp-id)" fill="#1E4FDB">ISSUE</text><text x="156.96968750000002" y="59" width="4.29875" height="12.600000000000001" font-weight="700" font-style="normal" font-size="12" font-family="svglidelabel" letter-spacing="0.08" clip-path="url(#satori_cp-id)" fill="#1E4FDB"> </text><text x="161.2684375" y="59" width="4.445234375" height="12.600000000000001" font-weight="700" font-style="normal" font-size="12" font-family="svglidelabel" letter-spacing="0.08" clip-path="url(#satori_cp-id)" fill="#1E4FDB">·</text><text x="165.713671875" y="59" width="4.29875" height="12.600000000000001" font-weight="700" font-style="normal" font-size="12" font-family="svglidelabel" letter-spacing="0.08" clip-path="url(#satori_cp-id)" fill="#1E4FDB"> </text><text x="170.012421875" y="59" width="24.568125000000002" height="12.600000000000001" font-weight="700" font-style="normal" font-size="12" font-family="svglidelabel" letter-spacing="0.08" clip-path="url(#satori_cp-id)" fill="#1E4FDB">VOL</text><text x="194.580546875" y="59" width="4.445234375" height="12.600000000000001" font-weight="700" font-style="normal" font-size="12" font-family="svglidelabel" letter-spacing="0.08" clip-path="url(#satori_cp-id)" fill="#1E4FDB">.</text><text x="199.02578125000002" y="59" width="4.29875" height="12.600000000000001" font-weight="700" font-style="normal" font-size="12" font-family="svglidelabel" letter-spacing="0.08" clip-path="url(#satori_cp-id)" fill="#1E4FDB"> </text><text x="203.32453125" y="59" width="7.70890625" height="12.600000000000001" font-weight="700" font-style="normal" font-size="12" font-family="svglidelabel" letter-spacing="0.08" clip-path="url(#satori_cp-id)" fill="#1E4FDB">1</text><mask id="satori_om-id-1"><rect x="96" y="181" width="330" height="98" fill="#fff" mask="url(#satori_om-id)"/></mask><text x="96" y="227" width="141.0380859375" height="48.6" font-weight="800" font-style="normal" font-size="54" font-family="svglidedisplay" clip-path="url(#satori_cp-id)" fill="#1E4FDB">KEPT</text><text x="237.0380859375" y="227" width="27" height="48.6" font-weight="800" font-style="normal" font-size="54" font-family="svglidedisplay" clip-path="url(#satori_cp-id)" fill="#1E4FDB">
</text><text x="96" y="276" width="204.0029296875" height="48.6" font-weight="800" font-style="normal" font-size="54" font-family="svglidedisplay" clip-path="url(#satori_cp-id)" fill="#1E4FDB">THINGS</text><mask id="satori_om-id-2"><rect x="700" y="318" width="166" height="52" fill="#fff" mask="url(#satori_om-id)"/></mask><g clip-path="url(#satori_cp-id)" mask="url(#satori_om-id)"></g><text x="700" y="339" width="30" height="26.400000000000002" font-weight="700" font-style="normal" font-size="20" font-family="svglidebody" transform="matrix(0.99,-0.10,0.10,0.99,-31.67,83.73)" clip-path="url(#satori_cp-id)" fill="#1C2E33">For</text><text x="730" y="339" width="5.556640625" height="26.400000000000002" font-weight="700" font-style="normal" font-size="20" font-family="svglidebody" transform="matrix(0.99,-0.10,0.10,0.99,-31.67,83.73)" clip-path="url(#satori_cp-id)" fill="#1C2E33"> </text><text x="735.556640625" y="339" width="27.802734375" height="26.400000000000002" font-weight="700" font-style="normal" font-size="20" font-family="svglidebody" transform="matrix(0.99,-0.10,0.10,0.99,-31.67,83.73)" clip-path="url(#satori_cp-id)" fill="#1C2E33">the</text><text x="763.359375" y="339" width="5.556640625" height="26.400000000000002" font-weight="700" font-style="normal" font-size="20" font-family="svglidebody" transform="matrix(0.99,-0.10,0.10,0.99,-31.67,83.73)" clip-path="url(#satori_cp-id)" fill="#1C2E33"> </text><text x="768.916015625" y="339" width="44.462890625" height="26.400000000000002" font-weight="700" font-style="normal" font-size="20" font-family="svglidebody" transform="matrix(0.99,-0.10,0.10,0.99,-31.67,83.73)" clip-path="url(#satori_cp-id)" fill="#1C2E33">team</text><text x="813.37890625" y="339" width="5.556640625" height="26.400000000000002" font-weight="700" font-style="normal" font-size="20" font-family="svglidebody" transform="matrix(0.99,-0.10,0.10,0.99,-31.67,83.73)" clip-path="url(#satori_cp-id)" fill="#1C2E33">.</text><text x="818.935546875" y="339" width="5.556640625" height="26.400000000000002" font-weight="700" font-style="normal" font-size="20" font-family="svglidebody" transform="matrix(0.99,-0.10,0.10,0.99,-31.67,83.73)" clip-path="url(#satori_cp-id)" fill="#1C2E33"> </text><text x="824.4921875" y="339" width="35.5859375" height="26.400000000000002" font-weight="700" font-style="normal" font-size="20" font-family="svglidebody" transform="matrix(0.99,-0.10,0.10,0.99,-31.67,83.73)" clip-path="url(#satori_cp-id)" fill="#1C2E33">You</text><text x="860.078125" y="339" width="5.556640625" height="26.400000000000002" font-weight="700" font-style="normal" font-size="20" font-family="svglidebody" transform="matrix(0.99,-0.10,0.10,0.99,-31.67,83.73)" clip-path="url(#satori_cp-id)" fill="#1C2E33"> </text><text x="700" y="365" width="60.05859375" height="26.400000000000002" font-weight="700" font-style="normal" font-size="20" font-family="svglidebody" transform="matrix(0.99,-0.10,0.10,0.99,-31.67,83.73)" clip-path="url(#satori_cp-id)" fill="#1C2E33">people</text><text x="760.05859375" y="365" width="5.556640625" height="26.400000000000002" font-weight="700" font-style="normal" font-size="20" font-family="svglidebody" transform="matrix(0.99,-0.10,0.10,0.99,-31.67,83.73)" clip-path="url(#satori_cp-id)" fill="#1C2E33"> </text><text x="765.615234375" y="365" width="32.24609375" height="26.400000000000002" font-weight="700" font-style="normal" font-size="20" font-family="svglidebody" transform="matrix(0.99,-0.10,0.10,0.99,-31.67,83.73)" clip-path="url(#satori_cp-id)" fill="#1C2E33">can</text><text x="797.861328125" y="365" width="5.556640625" height="26.400000000000002" font-weight="700" font-style="normal" font-size="20" font-family="svglidebody" transform="matrix(0.99,-0.10,0.10,0.99,-31.67,83.73)" clip-path="url(#satori_cp-id)" fill="#1C2E33"> </text><text x="803.41796875" y="365" width="26.6796875" height="26.400000000000002" font-weight="700" font-style="normal" font-size="20" font-family="svglidebody" transform="matrix(0.99,-0.10,0.10,0.99,-31.67,83.73)" clip-path="url(#satori_cp-id)" fill="#1C2E33">act</text><text x="830.09765625" y="365" width="5.556640625" height="26.400000000000002" font-weight="700" font-style="normal" font-size="20" font-family="svglidebody" transform="matrix(0.99,-0.10,0.10,0.99,-31.67,83.73)" clip-path="url(#satori_cp-id)" fill="#1C2E33">.</text><mask id="satori_om-id-3"><rect x="98" y="444" width="421" height="40" fill="#fff" mask="url(#satori_om-id)"/></mask><text x="98" y="479" width="193.0400390625" height="39.9" font-weight="600" font-style="normal" font-size="42" font-family="svglidemetric" clip-path="url(#satori_cp-id)" fill="#60684D">JOURNALS</text><text x="291.0400390625" y="479" width="12.6533203125" height="39.9" font-weight="600" font-style="normal" font-size="42" font-family="svglidemetric" clip-path="url(#satori_cp-id)" fill="#60684D"> </text><text x="303.693359375" y="479" width="67.306640625" height="39.9" font-weight="600" font-style="normal" font-size="42" font-family="svglidemetric" clip-path="url(#satori_cp-id)" fill="#60684D">ALL</text><text x="371" y="479" width="12.6533203125" height="39.9" font-weight="600" font-style="normal" font-size="42" font-family="svglidemetric" clip-path="url(#satori_cp-id)" fill="#60684D"> </text><text x="383.6533203125" y="479" width="134.9619140625" height="39.9" font-weight="600" font-style="normal" font-size="42" font-family="svglidemetric" clip-path="url(#satori_cp-id)" fill="#60684D">SPRING</text><mask id="satori_om-id-4"><rect x="772" y="68" width="120" height="26" fill="#fff" mask="url(#satori_om-id)"/></mask><g clip-path="url(#satori_cp-id)" mask="url(#satori_om-id)"></g><defs><clipPath id="satori_bc-id-4-0" clip-path="url(#satori_cp-id)"><path x="772" y="73" width="16" height="16" d="M780,73 h0 a8,8 0 0 1 8,8 v0 a8,8 0 0 1 -8,8 h0 a8,8 0 0 1 -8,-8 v0 a8,8 0 0 1 8,-8"/></clipPath></defs><mask id="satori_om-id-4-0"><rect x="774" y="75" width="12" height="12" fill="#fff" mask="url(#satori_om-id)"/><path width="16" height="16" transform="matrix(0.98,-0.17,0.17,0.98,-1.43,145.71)" fill="none" stroke="#000" stroke-width="4" d="M774.343,75.343 A8,8 0 0 1 780,73 h0 a8,8 0 0 1 8,8 v0 a8,8 0 0 1 -8,8 h0 a8,8 0 0 1 -8,-8 v0 A8,8 0 0 1 774.343,75.343"/></mask><g clip-path="url(#satori_cp-id)" mask="url(#satori_om-id)"><path width="16" height="16" transform="matrix(0.98,-0.17,0.17,0.98,-1.43,145.71)" clip-path="url(#satori_bc-id-4-0)" fill="none" stroke="#1E4FDB" stroke-width="4" d="M774.343,75.343 A8,8 0 0 1 780,73 h0 a8,8 0 0 1 8,8 v0 a8,8 0 0 1 -8,8 h0 a8,8 0 0 1 -8,-8 v0 A8,8 0 0 1 774.343,75.343"/></g><mask id="satori_om-id-4-1"><rect x="788" y="80" width="86" height="2" fill="#fff" mask="url(#satori_om-id)"/></mask><g clip-path="url(#satori_cp-id)" mask="url(#satori_om-id)"><rect x="788" y="80" width="86" height="2" fill="#1E4FDB" transform="matrix(0.98,-0.17,0.17,0.98,-1.43,145.71)"/></g><mask id="satori_om-id-4-2"><rect x="874" y="77" width="8" height="8" fill="#fff" mask="url(#satori_om-id)"/></mask><g clip-path="url(#satori_cp-id)" mask="url(#satori_om-id)"><path x="874" y="77" width="8" height="8" fill="#1E4FDB" d="M878,77 h0 a4,4 0 0 1 4,4 v0 a4,4 0 0 1 -4,4 h0 a4,4 0 0 1 -4,-4 v0 a4,4 0 0 1 4,-4" transform="matrix(0.98,-0.17,0.17,0.98,-1.43,145.71)"/></g><mask id="satori_om-id-5"><rect x="760" y="338" width="120" height="26" fill="#fff" mask="url(#satori_om-id)"/></mask><g clip-path="url(#satori_cp-id)" mask="url(#satori_om-id)"></g><defs><clipPath id="satori_bc-id-5-0" clip-path="url(#satori_cp-id)"><path x="760" y="343" width="16" height="16" d="M768,343 h0 a8,8 0 0 1 8,8 v0 a8,8 0 0 1 -8,8 h0 a8,8 0 0 1 -8,-8 v0 a8,8 0 0 1 8,-8"/></clipPath></defs><mask id="satori_om-id-5-0"><rect x="762" y="345" width="12" height="12" fill="#fff" mask="url(#satori_om-id)"/><path width="16" height="16" transform="matrix(0.99,0.14,-0.14,0.99,56.83,-110.71)" fill="none" stroke="#000" stroke-width="4" d="M762.343,345.343 A8,8 0 0 1 768,343 h0 a8,8 0 0 1 8,8 v0 a8,8 0 0 1 -8,8 h0 a8,8 0 0 1 -8,-8 v0 A8,8 0 0 1 762.343,345.343"/></mask><g clip-path="url(#satori_cp-id)" mask="url(#satori_om-id)"><path width="16" height="16" transform="matrix(0.99,0.14,-0.14,0.99,56.83,-110.71)" clip-path="url(#satori_bc-id-5-0)" fill="none" stroke="#1E4FDB" stroke-width="4" d="M762.343,345.343 A8,8 0 0 1 768,343 h0 a8,8 0 0 1 8,8 v0 a8,8 0 0 1 -8,8 h0 a8,8 0 0 1 -8,-8 v0 A8,8 0 0 1 762.343,345.343"/></g><mask id="satori_om-id-5-1"><rect x="776" y="350" width="86" height="2" fill="#fff" mask="url(#satori_om-id)"/></mask><g clip-path="url(#satori_cp-id)" mask="url(#satori_om-id)"><rect x="776" y="350" width="86" height="2" fill="#1E4FDB" transform="matrix(0.99,0.14,-0.14,0.99,56.83,-110.71)"/></g><mask id="satori_om-id-5-2"><rect x="862" y="347" width="8" height="8" fill="#fff" mask="url(#satori_om-id)"/></mask><g clip-path="url(#satori_cp-id)" mask="url(#satori_om-id)"><path x="862" y="347" width="8" height="8" fill="#1E4FDB" d="M866,347 h0 a4,4 0 0 1 4,4 v0 a4,4 0 0 1 -4,4 h0 a4,4 0 0 1 -4,-4 v0 a4,4 0 0 1 4,-4" transform="matrix(0.99,0.14,-0.14,0.99,56.83,-110.71)"/></g><mask id="satori_om-id-6"><rect x="859" y="488" width="45" height="13" fill="#fff" mask="url(#satori_om-id)"/></mask><text x="859" y="499" width="15.4178125" height="12.600000000000001" font-weight="700" font-style="normal" font-size="12" font-family="svglidelabel" letter-spacing="0.08" clip-path="url(#satori_cp-id)" fill="#1E4FDB">01</text><text x="874.4178125" y="499" width="4.29875" height="12.600000000000001" font-weight="700" font-style="normal" font-size="12" font-family="svglidelabel" letter-spacing="0.08" clip-path="url(#satori_cp-id)" fill="#1E4FDB"> </text><text x="878.7165625" y="499" width="5.52921875" height="12.600000000000001" font-weight="700" font-style="normal" font-size="12" font-family="svglidelabel" letter-spacing="0.08" clip-path="url(#satori_cp-id)" fill="#1E4FDB">/</text><text x="884.24578125" y="499" width="4.29875" height="12.600000000000001" font-weight="700" font-style="normal" font-size="12" font-family="svglidelabel" letter-spacing="0.08" clip-path="url(#satori_cp-id)" fill="#1E4FDB"> </text><text x="888.54453125" y="499" width="15.4178125" height="12.600000000000001" font-weight="700" font-style="normal" font-size="12" font-family="svglidelabel" letter-spacing="0.08" clip-path="url(#satori_cp-id)" fill="#1E4FDB">10</text></svg>