<svg width="960" height="540" viewBox="0 0 960 540" xmlns="http://www.w3.org/2000/svg"><clipPath id="satori_cp-id"><rect x="0" y="0" width="960" height="540"/></clipPath><mask id="satori_om-id"><rect x="0" y="0" width="960" height="540" fill="#fff"/></mask><rect x="0" y="0" width="960" height="540" fill="#EDE8E0"/><mask id="satori_om-id-0"><rect x="38" y="214" width="106" height="13" fill="#fff" mask="url(#satori_om-id)"/></mask><text x="38" y="225" width="64.454453125" height="12.600000000000001" font-weight="700" font-style="normal" font-size="12" font-family="svglidelabel" letter-spacing="0.08" clip-path="url(#satori_cp-id)" fill="#8A8178">STRATEGY</text><text x="102.454453125" y="225" width="4.29875" height="12.600000000000001" font-weight="700" font-style="normal" font-size="12" font-family="svglidelabel" letter-spacing="0.08" clip-path="url(#satori_cp-id)" fill="#8A8178"> </text><text x="106.753203125" y="225" width="36.50546875" height="12.600000000000001" font-weight="700" font-style="normal" font-size="12" font-family="svglidelabel" letter-spacing="0.08" clip-path="url(#satori_cp-id)" fill="#8A8178">BRIEF</text><mask id="satori_om-id-1"><rect x="38" y="246" width="410" height="104" fill="#fff" mask="url(#satori_om-id)"/></mask><text x="38" y="293" width="318.041015625" height="51.839999999999996" font-weight="400" font-style="normal" font-size="54" font-family="svglidedisplay" clip-path="url(#satori_cp-id)" fill="#1A1A1A">OPERATING</text><text x="356.041015625" y="293" width="15.0029296875" height="51.839999999999996" font-weight="400" font-style="normal" font-size="54" font-family="svglidedisplay" clip-path="url(#satori_cp-id)" fill="#1A1A1A"> </text><text x="38" y="345" width="192.0322265625" height="51.839999999999996" font-weight="400" font-style="normal" font-size="54" font-family="svglidedisplay" clip-path="url(#satori_cp-id)" fill="#1A1A1A">MODEL</text><mask id="satori_om-id-2"><rect x="38" y="300" width="380" height="52" fill="#fff" mask="url(#satori_om-id)"/></mask><text x="38" y="321" width="13.33984375" height="26.400000000000002" font-weight="600" font-style="normal" font-size="20" font-family="svglidebody" clip-path="url(#satori_cp-id)" fill="#5A5A5A">A</text><text x="51.33984375" y="321" width="5.556640625" height="26.400000000000002" font-weight="600" font-style="normal" font-size="20" font-family="svglidebody" clip-path="url(#satori_cp-id)" fill="#5A5A5A"> </text><text x="56.896484375" y="321" width="88.896484375" height="26.400000000000002" font-weight="600" font-style="normal" font-size="20" font-family="svglidebody" clip-path="url(#satori_cp-id)" fill="#5A5A5A">minimalist</text><text x="145.79296875" y="321" width="5.556640625" height="26.400000000000002" font-weight="600" font-style="normal" font-size="20" font-family="svglidebody" clip-path="url(#satori_cp-id)" fill="#5A5A5A"> </text><text x="151.349609375" y="321" width="83.3984375" height="26.400000000000002" font-weight="600" font-style="normal" font-size="20" font-family="svglidebody" clip-path="url(#satori_cp-id)" fill="#5A5A5A">operating</text><text x="234.748046875" y="321" width="5.556640625" height="26.400000000000002" font-weight="600" font-style="normal" font-size="20" font-family="svglidebody" clip-path="url(#satori_cp-id)" fill="#5A5A5A"> </text><text x="240.3046875" y="321" width="40.009765625" height="26.400000000000002" font-weight="600" font-style="normal" font-size="20" font-family="svglidebody" clip-path="url(#satori_cp-id)" fill="#5A5A5A">view</text><text x="280.314453125" y="321" width="5.556640625" height="26.400000000000002" font-weight="600" font-style="normal" font-size="20" font-family="svglidebody" clip-path="url(#satori_cp-id)" fill="#5A5A5A"> </text><text x="285.87109375" y="321" width="23.33984375" height="26.400000000000002" font-weight="600" font-style="normal" font-size="20" font-family="svglidebody" clip-path="url(#satori_cp-id)" fill="#5A5A5A">for</text><text x="309.2109375" y="321" width="5.556640625" height="26.400000000000002" font-weight="600" font-style="normal" font-size="20" font-family="svglidebody" clip-path="url(#satori_cp-id)" fill="#5A5A5A"> </text><text x="314.767578125" y="321" width="83.37890625" height="26.400000000000002" font-weight="600" font-style="normal" font-size="20" font-family="svglidebody" clip-path="url(#satori_cp-id)" fill="#5A5A5A">decisions</text><text x="398.146484375" y="321" width="5.556640625" height="26.400000000000002" font-weight="600" font-style="normal" font-size="20" font-family="svglidebody" clip-path="url(#satori_cp-id)" fill="#5A5A5A">,</text><text x="403.703125" y="321" width="5.556640625" height="26.400000000000002" font-weight="600" font-style="normal" font-size="20" font-family="svglidebody" clip-path="url(#satori_cp-id)" fill="#5A5A5A"> </text><text x="38" y="347" width="96.708984375" height="26.400000000000002" font-weight="600" font-style="normal" font-size="20" font-family="svglidebody" clip-path="url(#satori_cp-id)" fill="#5A5A5A">constraints</text><text x="134.708984375" y="347" width="5.556640625" height="26.400000000000002" font-weight="600" font-style="normal" font-size="20" font-family="svglidebody" clip-path="url(#satori_cp-id)" fill="#5A5A5A">,</text><text x="140.265625" y="347" width="5.556640625" height="26.400000000000002" font-weight="600" font-style="normal" font-size="20" font-family="svglidebody" clip-path="url(#satori_cp-id)" fill="#5A5A5A"> </text><text x="145.822265625" y="347" width="33.369140625" height="26.400000000000002" font-weight="600" font-style="normal" font-size="20" font-family="svglidebody" clip-path="url(#satori_cp-id)" fill="#5A5A5A">and</text><text x="179.19140625" y="347" width="5.556640625" height="26.400000000000002" font-weight="600" font-style="normal" font-size="20" font-family="svglidebody" clip-path="url(#satori_cp-id)" fill="#5A5A5A"> </text><text x="184.748046875" y="347" width="37.802734375" height="26.400000000000002" font-weight="600" font-style="normal" font-size="20" font-family="svglidebody" clip-path="url(#satori_cp-id)" fill="#5A5A5A">next</text><text x="222.55078125" y="347" width="6.66015625" height="26.400000000000002" font-weight="600" font-style="normal" font-size="20" font-family="svglidebody" clip-path="url(#satori_cp-id)" fill="#5A5A5A">-</text><text x="229.2109375" y="347" width="37.802734375" height="26.400000000000002" font-weight="600" font-style="normal" font-size="20" font-family="svglidebody" clip-path="url(#satori_cp-id)" fill="#5A5A5A">step</text><text x="267.013671875" y="347" width="5.556640625" height="26.400000000000002" font-weight="600" font-style="normal" font-size="20" font-family="svglidebody" clip-path="url(#satori_cp-id)" fill="#5A5A5A"> </text><text x="272.5703125" y="347" width="102.3046875" height="26.400000000000002" font-weight="600" font-style="normal" font-size="20" font-family="svglidebody" clip-path="url(#satori_cp-id)" fill="#5A5A5A">sequencing</text><text x="374.875" y="347" width="5.556640625" height="26.400000000000002" font-weight="600" font-style="normal" font-size="20" font-family="svglidebody" clip-path="url(#satori_cp-id)" fill="#5A5A5A">.</text><defs><clipPath id="satori_bc-id-3" clip-path="url(#satori_cp-id)"><path x="624" y="198" width="288" height="288" d="M768,198 h0 a144,144 0 0 1 144,144 v0 a144,144 0 0 1 -144,144 h0 a144,144 0 0 1 -144,-144 v0 a144,144 0 0 1 144,-144"/></clipPath></defs><mask id="satori_om-id-3"><rect x="625" y="199" width="286" height="286" fill="#fff" mask="url(#satori_om-id)"/><path width="288" height="288" fill="none" stroke="#000" stroke-width="2" d="M666.177,240.17700000000002 A144,144 0 0 1 768,198 h0 a144,144 0 0 1 144,144 v0 a144,144 0 0 1 -144,144 h0 a144,144 0 0 1 -144,-144 v0 A144,144 0 0 1 666.177,240.17700000000002"/></mask><g opacity="0.72"><path width="288" height="288" clip-path="url(#satori_bc-id-3)" fill="none" stroke="#B8B0A4" stroke-width="2" d="M666.177,240.17700000000002 A144,144 0 0 1 768,198 h0 a144,144 0 0 1 144,144 v0 a144,144 0 0 1 -144,144 h0 a144,144 0 0 1 -144,-144 v0 A144,144 0 0 1 666.177,240.17700000000002"/></g><defs><clipPath id="satori_bc-id-4" clip-path="url(#satori_cp-id)"><path x="652" y="226" width="232" height="232" d="M768,226 h0 a116,116 0 0 1 116,116 v0 a116,116 0 0 1 -116,116 h0 a116,116 0 0 1 -116,-116 v0 a116,116 0 0 1 116,-116"/></clipPath></defs><mask id="satori_om-id-4"><rect x="653" y="227" width="230" height="230" fill="#fff" mask="url(#satori_om-id)"/><path width="232" height="232" fill="none" stroke="#000" stroke-width="2" d="M685.976,259.976 A116,116 0 0 1 768,226 h0 a116,116 0 0 1 116,116 v0 a116,116 0 0 1 -116,116 h0 a116,116 0 0 1 -116,-116 v0 A116,116 0 0 1 685.976,259.976"/></mask><g opacity="0.56"><path width="232" height="232" clip-path="url(#satori_bc-id-4)" fill="none" stroke="#B8B0A4" stroke-width="2" d="M685.976,259.976 A116,116 0 0 1 768,226 h0 a116,116 0 0 1 116,116 v0 a116,116 0 0 1 -116,116 h0 a116,116 0 0 1 -116,-116 v0 A116,116 0 0 1 685.976,259.976"/></g><mask id="satori_om-id-5"><rect x="936" y="222" width="4" height="94" fill="#fff" mask="url(#satori_om-id)"/></mask><mask id="satori_om-id-5-0"><rect x="936" y="222" width="4" height="4" fill="#fff" mask="url(#satori_om-id)"/></mask><path x="936" y="222" width="4" height="4" fill="#1A1A1A" d="M938,222 h0 a2,2 0 0 1 2,2 v0 a2,2 0 0 1 -2,2 h0 a2,2 0 0 1 -2,-2 v0 a2,2 0 0 1 2,-2" clip-path="url(#satori_cp-id)" mask="url(#satori_om-id)"/><mask id="satori_om-id-5-1"><rect x="936" y="232" width="4" height="4" fill="#fff" mask="url(#satori_om-id)"/></mask><path x="936" y="232" width="4" height="4" fill="#B8B0A4" d="M938,232 h0 a2,2 0 0 1 2,2 v0 a2,2 0 0 1 -2,2 h0 a2,2 0 0 1 -2,-2 v0 a2,2 0 0 1 2,-2" clip-path="url(#satori_cp-id)" mask="url(#satori_om-id)"/><mask id="satori_om-id-5-2"><rect x="936" y="242" width="4" height="4" fill="#fff" mask="url(#satori_om-id)"/></mask><path x="936" y="242" width="4" height="4" fill="#B8B0A4" d="M938,242 h0 a2,2 0 0 1 2,2 v0 a2,2 0 0 1 -2,2 h0 a2,2 0 0 1 -2,-2 v0 a2,2 0 0 1 2,-2" clip-path="url(#satori_cp-id)" mask="url(#satori_om-id)"/><mask id="satori_om-id-5-3"><rect x="936" y="252" width="4" height="4" fill="#fff" mask="url(#satori_om-id)"/></mask><path x="936" y="252" width="4" height="4" fill="#B8B0A4" d="M938,252 h0 a2,2 0 0 1 2,2 v0 a2,2 0 0 1 -2,2 h0 a2,2 0 0 1 -2,-2 v0 a2,2 0 0 1 2,-2" clip-path="url(#satori_cp-id)" mask="url(#satori_om-id)"/><mask id="satori_om-id-5-4"><rect x="936" y="262" width="4" height="4" fill="#fff" mask="url(#satori_om-id)"/></mask><path x="936" y="262" width="4" height="4" fill="#B8B0A4" d="M938,262 h0 a2,2 0 0 1 2,2 v0 a2,2 0 0 1 -2,2 h0 a2,2 0 0 1 -2,-2 v0 a2,2 0 0 1 2,-2" clip-path="url(#satori_cp-id)" mask="url(#satori_om-id)"/><mask id="satori_om-id-5-5"><rect x="936" y="272" width="4" height="4" fill="#fff" mask="url(#satori_om-id)"/></mask><path x="936" y="272" width="4" height="4" fill="#B8B0A4" d="M938,272 h0 a2,2 0 0 1 2,2 v0 a2,2 0 0 1 -2,2 h0 a2,2 0 0 1 -2,-2 v0 a2,2 0 0 1 2,-2" clip-path="url(#satori_cp-id)" mask="url(#satori_om-id)"/><mask id="satori_om-id-5-6"><rect x="936" y="282" width="4" height="4" fill="#fff" mask="url(#satori_om-id)"/></mask><path x="936" y="282" width="4" height="4" fill="#B8B0A4" d="M938,282 h0 a2,2 0 0 1 2,2 v0 a2,2 0 0 1 -2,2 h0 a2,2 0 0 1 -2,-2 v0 a2,2 0 0 1 2,-2" clip-path="url(#satori_cp-id)" mask="url(#satori_om-id)"/><mask id="satori_om-id-5-7"><rect x="936" y="292" width="4" height="4" fill="#fff" mask="url(#satori_om-id)"/></mask><path x="936" y="292" width="4" height="4" fill="#B8B0A4" d="M938,292 h0 a2,2 0 0 1 2,2 v0 a2,2 0 0 1 -2,2 h0 a2,2 0 0 1 -2,-2 v0 a2,2 0 0 1 2,-2" clip-path="url(#satori_cp-id)" mask="url(#satori_om-id)"/><mask id="satori_om-id-5-8"><rect x="936" y="302" width="4" height="4" fill="#fff" mask="url(#satori_om-id)"/></mask><path x="936" y="302" width="4" height="4" fill="#B8B0A4" d="M938,302 h0 a2,2 0 0 1 2,2 v0 a2,2 0 0 1 -2,2 h0 a2,2 0 0 1 -2,-2 v0 a2,2 0 0 1 2,-2" clip-path="url(#satori_cp-id)" mask="url(#satori_om-id)"/><mask id="satori_om-id-5-9"><rect x="936" y="312" width="4" height="4" fill="#fff" mask="url(#satori_om-id)"/></mask><path x="936" y="312" width="4" height="4" fill="#B8B0A4" d="M938,312 h0 a2,2 0 0 1 2,2 v0 a2,2 0 0 1 -2,2 h0 a2,2 0 0 1 -2,-2 v0 a2,2 0 0 1 2,-2" clip-path="url(#satori_cp-id)" mask="url(#satori_om-id)"/><defs><clipPath id="satori_bc-id-6" clip-path="url(#satori_cp-id)"><rect x="29" y="498" width="20" height="20"/></clipPath></defs><mask id="satori_om-id-6"><rect x="30" y="499" width="18" height="18" fill="#fff" mask="url(#satori_om-id)"/><path width="20" height="20" fill="none" stroke="#000" stroke-width="2" d="M29,498 A0,0 0 0 1 29,498 h20 a0,0 0 0 1 0,0 v20 a0,0 0 0 1 0,0 h-20 a0,0 0 0 1 0,0 v-20 A0,0 0 0 1 29,498"/></mask><path width="20" height="20" clip-path="url(#satori_bc-id-6)" fill="none" stroke="#B8B0A4" stroke-width="2" d="M29,498 A0,0 0 0 1 29,498 h20 a0,0 0 0 1 0,0 v20 a0,0 0 0 1 0,0 h-20 a0,0 0 0 1 0,0 v-20 A0,0 0 0 1 29,498"/><mask id="satori_om-id-6-0"><rect x="30" y="488" width="18" height="40" fill="#fff" mask="url(#satori_om-id)"/></mask><text x="30" y="523" width="22.025390625" height="39.9" font-weight="700" font-style="normal" font-size="42" font-family="svglidemetric" clip-path="url(#satori_cp-id)" fill="#1A1A1A">&lt;</text><defs><clipPath id="satori_bc-id-7" clip-path="url(#satori_cp-id)"><rect x="57" y="498" width="20" height="20"/></clipPath></defs><mask id="satori_om-id-7"><rect x="58" y="499" width="18" height="18" fill="#fff" mask="url(#satori_om-id)"/><path width="20" height="20" fill="none" stroke="#000" stroke-width="2" d="M57,498 A0,0 0 0 1 57,498 h20 a0,0 0 0 1 0,0 v20 a0,0 0 0 1 0,0 h-20 a0,0 0 0 1 0,0 v-20 A0,0 0 0 1 57,498"/></mask><path width="20" height="20" clip-path="url(#satori_bc-id-7)" fill="none" stroke="#B8B0A4" stroke-width="2" d="M57,498 A0,0 0 0 1 57,498 h20 a0,0 0 0 1 0,0 v20 a0,0 0 0 1 0,0 h-20 a0,0 0 0 1 0,0 v-20 A0,0 0 0 1 57,498"/><mask id="satori_om-id-7-0"><rect x="58" y="488" width="18" height="40" fill="#fff" mask="url(#satori_om-id)"/></mask><text x="58" y="523" width="22.025390625" height="39.9" font-weight="700" font-style="normal" font-size="42" font-family="svglidemetric" clip-path="url(#satori_cp-id)" fill="#1A1A1A">&gt;</text><mask id="satori_om-id-8"><rect x="794" y="478" width="136" height="40" fill="#fff" mask="url(#satori_om-id)"/></mask><text x="794" y="513" width="44.05078125" height="39.9" font-weight="500" font-style="normal" font-size="42" font-family="svglidemetric" clip-path="url(#satori_cp-id)" fill="#8A8178">01</text><text x="838.05078125" y="513" width="12.6533203125" height="39.9" font-weight="500" font-style="normal" font-size="42" font-family="svglidemetric" clip-path="url(#satori_cp-id)" fill="#8A8178"> </text><text x="850.7041015625" y="513" width="22.025390625" height="39.9" font-weight="500" font-style="normal" font-size="42" font-family="svglidemetric" clip-path="url(#satori_cp-id)" fill="#8A8178">/</text><text x="872.7294921875" y="513" width="12.6533203125" height="39.9" font-weight="500" font-style="normal" font-size="42" font-family="svglidemetric" clip-path="url(#satori_cp-id)" fill="#8A8178"> </text><text x="885.3828125" y="513" width="44.05078125" height="39.9" font-weight="500" font-style="normal" font-size="42" font-family="svglidemetric" clip-path="url(#satori_cp-id)" fill="#8A8178">10</text></svg>