<svg width="960" height="540" viewBox="0 0 960 540" xmlns="http://www.w3.org/2000/svg"><clipPath id="satori_cp-id"><rect x="0" y="0" width="960" height="540"/></clipPath><mask id="satori_om-id"><rect x="0" y="0" width="960" height="540" fill="#fff"/></mask><rect x="0" y="0" width="960" height="540" fill="#E9E5DB"/><mask id="satori_om-id-0"><rect x="0" y="135" width="960" height="405" fill="#fff" mask="url(#satori_om-id)"/></mask><g opacity="0.9"><rect x="0" y="135" width="960" height="405" fill="#ECEE78" clip-path="url(#satori_cp-id)" mask="url(#satori_om-id)"/></g><mask id="satori_om-id-1"><rect x="720" y="0" width="240" height="132" fill="#fff" mask="url(#satori_om-id)"/></mask><g opacity="0.62"><rect x="720" y="0" width="240" height="132" fill="#EFE79A" clip-path="url(#satori_cp-id)" mask="url(#satori_om-id)"/></g><mask id="satori_om-id-2"><rect x="720" y="204" width="240" height="136" fill="#fff" mask="url(#satori_om-id)"/></mask><g opacity="0.92"><rect x="720" y="204" width="240" height="136" fill="#E9E5DB" clip-path="url(#satori_cp-id)" mask="url(#satori_om-id)"/></g><mask id="satori_om-id-3"><rect x="480" y="338" width="480" height="135" fill="#fff" mask="url(#satori_om-id)"/></mask><g opacity="0.72"><rect x="480" y="338" width="480" height="135" fill="#E9E5DB" clip-path="url(#satori_cp-id)" mask="url(#satori_om-id)"/></g><mask id="satori_om-id-4"><rect x="644" y="20" width="280" height="106" fill="#fff" mask="url(#satori_om-id)"/></mask><text x="762.40625" y="67" width="138.03125" height="53.199999999999996" font-weight="400" font-style="normal" font-size="56" font-family="svglidemetric" clip-path="url(#satori_cp-id)" fill="#1B2566">02.05</text><text x="900.4375" y="67" width="20.5625" height="53.199999999999996" font-weight="400" font-style="normal" font-size="56" font-family="svglidemetric" clip-path="url(#satori_cp-id)" fill="#1B2566">-</text><text x="921" y="67" width="28" height="53.199999999999996" font-weight="400" font-style="normal" font-size="56" font-family="svglidemetric" clip-path="url(#satori_cp-id)" fill="#1B2566">
</text><text x="644.9375" y="120" width="276.0625" height="53.199999999999996" font-weight="400" font-style="normal" font-size="56" font-family="svglidemetric" clip-path="url(#satori_cp-id)" fill="#1B2566">11.10.2026</text><mask id="satori_om-id-5"><rect x="36" y="166" width="560" height="84" fill="#fff" mask="url(#satori_om-id)"/></mask><text x="36" y="243" width="376.4921875" height="84.47999999999999" font-weight="400" font-style="normal" font-size="88" font-family="svglidedisplay" clip-path="url(#satori_cp-id)" fill="#1B2566">AURORA</text><mask id="satori_om-id-6"><rect x="36" y="250" width="580" height="84" fill="#fff" mask="url(#satori_om-id)"/></mask><text x="36" y="327" width="586.6953125" height="84.47999999999999" font-weight="400" font-style="normal" font-size="88" font-family="svglidedisplay" clip-path="url(#satori_cp-id)" fill="#1B2566">PROGRAMME</text><mask id="satori_om-id-7"><rect x="38" y="451" width="202" height="13" fill="#fff" mask="url(#satori_om-id)"/></mask><text x="38" y="462" width="50.302265625" height="12.600000000000001" font-weight="800" font-style="normal" font-size="12" font-family="svglidelabel" letter-spacing="0.08" clip-path="url(#satori_cp-id)" fill="#1B2566">ANNUAL</text><text x="88.30226562499999" y="462" width="4.29875" height="12.600000000000001" font-weight="800" font-style="normal" font-size="12" font-family="svglidelabel" letter-spacing="0.08" clip-path="url(#satori_cp-id)" fill="#1B2566"> </text><text x="92.601015625" y="462" width="48.98390625" height="12.600000000000001" font-weight="800" font-style="normal" font-size="12" font-family="svglidelabel" letter-spacing="0.08" clip-path="url(#satori_cp-id)" fill="#1B2566">SURVEY</text><text x="141.584921875" y="462" width="4.29875" height="12.600000000000001" font-weight="800" font-style="normal" font-size="12" font-family="svglidelabel" letter-spacing="0.08" clip-path="url(#satori_cp-id)" fill="#1B2566"> </text><text x="145.883671875" y="462" width="4.445234375" height="12.600000000000001" font-weight="800" font-style="normal" font-size="12" font-family="svglidelabel" letter-spacing="0.08" clip-path="url(#satori_cp-id)" fill="#1B2566">·</text><text x="150.32890625" y="462" width="4.29875" height="12.600000000000001" font-weight="800" font-style="normal" font-size="12" font-family="svglidelabel" letter-spacing="0.08" clip-path="url(#satori_cp-id)" fill="#1B2566"> </text><text x="154.62765625" y="462" width="38.228125" height="12.600000000000001" font-weight="800" font-style="normal" font-size="12" font-family="svglidelabel" letter-spacing="0.08" clip-path="url(#satori_cp-id)" fill="#1B2566">ISSUE</text><text x="192.85578125" y="462" width="4.29875" height="12.600000000000001" font-weight="800" font-style="normal" font-size="12" font-family="svglidelabel" letter-spacing="0.08" clip-path="url(#satori_cp-id)" fill="#1B2566"> </text><text x="197.15453125" y="462" width="18.581875" height="12.600000000000001" font-weight="800" font-style="normal" font-size="12" font-family="svglidelabel" letter-spacing="0.08" clip-path="url(#satori_cp-id)" fill="#1B2566">NO</text><text x="215.73640625" y="462" width="4.445234375" height="12.600000000000001" font-weight="800" font-style="normal" font-size="12" font-family="svglidelabel" letter-spacing="0.08" clip-path="url(#satori_cp-id)" fill="#1B2566">.</text><text x="220.181640625" y="462" width="4.29875" height="12.600000000000001" font-weight="800" font-style="normal" font-size="12" font-family="svglidelabel" letter-spacing="0.08" clip-path="url(#satori_cp-id)" fill="#1B2566"> </text><text x="224.48039062499998" y="462" width="15.4178125" height="12.600000000000001" font-weight="800" font-style="normal" font-size="12" font-family="svglidelabel" letter-spacing="0.08" clip-path="url(#satori_cp-id)" fill="#1B2566">04</text><defs><clipPath id="satori_bc-id-8" clip-path="url(#satori_cp-id)"><rect x="38" y="441" width="164" height="81"/></clipPath></defs><mask id="satori_om-id-8"><rect x="38" y="442" width="164" height="80" fill="#fff" mask="url(#satori_om-id)"/><path width="164" height="81" fill="none" stroke="#000" stroke-width="2" d="M38,441 A0,0 0 0 1 38,441 h164 A0,0 0 0 1 202,441"/></mask><path width="164" height="81" clip-path="url(#satori_bc-id-8)" fill="none" stroke="#1B2566" stroke-width="2" d="M38,441 A0,0 0 0 1 38,441 h164 A0,0 0 0 1 202,441"/><mask id="satori_om-id-8-0"><rect x="38" y="450" width="164" height="13" fill="#fff" mask="url(#satori_om-id)"/></mask><text x="38" y="461" width="51.37453125" height="12.600000000000001" font-weight="800" font-style="normal" font-size="12" font-family="svglidelabel" letter-spacing="0.08" clip-path="url(#satori_cp-id)" fill="#1B2566">HOSTED</text><text x="89.37453124999999" y="461" width="4.29875" height="12.600000000000001" font-weight="800" font-style="normal" font-size="12" font-family="svglidelabel" letter-spacing="0.08" clip-path="url(#satori_cp-id)" fill="#1B2566"> </text><text x="93.67328125" y="461" width="15.769375" height="12.600000000000001" font-weight="800" font-style="normal" font-size="12" font-family="svglidelabel" letter-spacing="0.08" clip-path="url(#satori_cp-id)" fill="#1B2566">BY</text><mask id="satori_om-id-8-1"><rect x="38" y="470" width="164" height="52" fill="#fff" mask="url(#satori_om-id)"/></mask><text x="38" y="491" width="60.029296875" height="26.400000000000002" font-weight="400" font-style="normal" font-size="20" font-family="svglidebody" clip-path="url(#satori_cp-id)" fill="#1B2566">Aurora</text><text x="98.029296875" y="491" width="5.556640625" height="26.400000000000002" font-weight="400" font-style="normal" font-size="20" font-family="svglidebody" clip-path="url(#satori_cp-id)" fill="#1B2566"> </text><text x="103.5859375" y="491" width="70.0390625" height="26.400000000000002" font-weight="400" font-style="normal" font-size="20" font-family="svglidebody" clip-path="url(#satori_cp-id)" fill="#1B2566">Institute</text><text x="173.625" y="491" width="5.556640625" height="26.400000000000002" font-weight="400" font-style="normal" font-size="20" font-family="svglidebody" clip-path="url(#satori_cp-id)" fill="#1B2566"> </text><text x="38" y="517" width="23.33984375" height="26.400000000000002" font-weight="400" font-style="normal" font-size="20" font-family="svglidebody" clip-path="url(#satori_cp-id)" fill="#1B2566">for</text><text x="61.33984375" y="517" width="5.556640625" height="26.400000000000002" font-weight="400" font-style="normal" font-size="20" font-family="svglidebody" clip-path="url(#satori_cp-id)" fill="#1B2566"> </text><text x="66.896484375" y="517" width="54.47265625" height="26.400000000000002" font-weight="400" font-style="normal" font-size="20" font-family="svglidebody" clip-path="url(#satori_cp-id)" fill="#1B2566">Public</text><text x="121.369140625" y="517" width="5.556640625" height="26.400000000000002" font-weight="400" font-style="normal" font-size="20" font-family="svglidebody" clip-path="url(#satori_cp-id)" fill="#1B2566"> </text><text x="126.92578125" y="517" width="46.66015625" height="26.400000000000002" font-weight="400" font-style="normal" font-size="20" font-family="svglidebody" clip-path="url(#satori_cp-id)" fill="#1B2566">Form</text><defs><clipPath id="satori_bc-id-9" clip-path="url(#satori_cp-id)"><rect x="224" y="415" width="150" height="107"/></clipPath></defs><mask id="satori_om-id-9"><rect x="224" y="416" width="150" height="106" fill="#fff" mask="url(#satori_om-id)"/><path width="150" height="107" fill="none" stroke="#000" stroke-width="2" d="M224,415 A0,0 0 0 1 224,415 h150 A0,0 0 0 1 374,415"/></mask><path width="150" height="107" clip-path="url(#satori_bc-id-9)" fill="none" stroke="#1B2566" stroke-width="2" d="M224,415 A0,0 0 0 1 224,415 h150 A0,0 0 0 1 374,415"/><mask id="satori_om-id-9-0"><rect x="224" y="424" width="150" height="13" fill="#fff" mask="url(#satori_om-id)"/></mask><text x="224" y="435" width="53.311953124999995" height="12.600000000000001" font-weight="800" font-style="normal" font-size="12" font-family="svglidelabel" letter-spacing="0.08" clip-path="url(#satori_cp-id)" fill="#1B2566">EDITION</text><mask id="satori_om-id-9-1"><rect x="224" y="444" width="150" height="78" fill="#fff" mask="url(#satori_om-id)"/></mask><text x="224" y="465" width="57.802734375" height="26.400000000000002" font-weight="400" font-style="normal" font-size="20" font-family="svglidebody" clip-path="url(#satori_cp-id)" fill="#1B2566">Fourth</text><text x="281.802734375" y="465" width="5.556640625" height="26.400000000000002" font-weight="400" font-style="normal" font-size="20" font-family="svglidebody" clip-path="url(#satori_cp-id)" fill="#1B2566"> </text><text x="287.359375" y="465" width="60.05859375" height="26.400000000000002" font-weight="400" font-style="normal" font-size="20" font-family="svglidebody" clip-path="url(#satori_cp-id)" fill="#1B2566">annual</text><text x="347.41796875" y="465" width="5.556640625" height="26.400000000000002" font-weight="400" font-style="normal" font-size="20" font-family="svglidebody" clip-path="url(#satori_cp-id)" fill="#1B2566"> </text><text x="224" y="491" width="44.4921875" height="26.400000000000002" font-weight="400" font-style="normal" font-size="20" font-family="svglidebody" clip-path="url(#satori_cp-id)" fill="#1B2566">open</text><text x="268.4921875" y="491" width="5.556640625" height="26.400000000000002" font-weight="400" font-style="normal" font-size="20" font-family="svglidebody" clip-path="url(#satori_cp-id)" fill="#1B2566"> </text><text x="224" y="517" width="102.255859375" height="26.400000000000002" font-weight="400" font-style="normal" font-size="20" font-family="svglidebody" clip-path="url(#satori_cp-id)" fill="#1B2566">programme</text><defs><clipPath id="satori_bc-id-10" clip-path="url(#satori_cp-id)"><rect x="395" y="415" width="208" height="107"/></clipPath></defs><mask id="satori_om-id-10"><rect x="395" y="416" width="208" height="106" fill="#fff" mask="url(#satori_om-id)"/><path width="208" height="107" fill="none" stroke="#000" stroke-width="2" d="M395,415 A0,0 0 0 1 395,415 h208 A0,0 0 0 1 603,415"/></mask><path width="208" height="107" clip-path="url(#satori_bc-id-10)" fill="none" stroke="#1B2566" stroke-width="2" d="M395,415 A0,0 0 0 1 395,415 h208 A0,0 0 0 1 603,415"/><mask id="satori_om-id-10-0"><rect x="395" y="424" width="208" height="13" fill="#fff" mask="url(#satori_om-id)"/></mask><text x="395" y="435" width="57.272890624999995" height="12.600000000000001" font-weight="800" font-style="normal" font-size="12" font-family="svglidelabel" letter-spacing="0.08" clip-path="url(#satori_cp-id)" fill="#1B2566">READING</text><mask id="satori_om-id-10-1"><rect x="395" y="444" width="208" height="78" fill="#fff" mask="url(#satori_om-id)"/></mask><text x="395" y="465" width="13.33984375" height="26.400000000000002" font-weight="400" font-style="normal" font-size="20" font-family="svglidebody" clip-path="url(#satori_cp-id)" fill="#1B2566">A</text><text x="408.33984375" y="465" width="5.556640625" height="26.400000000000002" font-weight="400" font-style="normal" font-size="20" font-family="svglidebody" clip-path="url(#satori_cp-id)" fill="#1B2566"> </text><text x="413.896484375" y="465" width="36.689453125" height="26.400000000000002" font-weight="400" font-style="normal" font-size="20" font-family="svglidebody" clip-path="url(#satori_cp-id)" fill="#1B2566">field</text><text x="450.5859375" y="465" width="5.556640625" height="26.400000000000002" font-weight="400" font-style="normal" font-size="20" font-family="svglidebody" clip-path="url(#satori_cp-id)" fill="#1B2566"> </text><text x="456.142578125" y="465" width="47.802734375" height="26.400000000000002" font-weight="400" font-style="normal" font-size="20" font-family="svglidebody" clip-path="url(#satori_cp-id)" fill="#1B2566">study</text><text x="503.9453125" y="465" width="5.556640625" height="26.400000000000002" font-weight="400" font-style="normal" font-size="20" font-family="svglidebody" clip-path="url(#satori_cp-id)" fill="#1B2566"> </text><text x="509.501953125" y="465" width="16.6796875" height="26.400000000000002" font-weight="400" font-style="normal" font-size="20" font-family="svglidebody" clip-path="url(#satori_cp-id)" fill="#1B2566">of</text><text x="526.181640625" y="465" width="5.556640625" height="26.400000000000002" font-weight="400" font-style="normal" font-size="20" font-family="svglidebody" clip-path="url(#satori_cp-id)" fill="#1B2566"> </text><text x="531.73828125" y="465" width="36.689453125" height="26.400000000000002" font-weight="400" font-style="normal" font-size="20" font-family="svglidebody" clip-path="url(#satori_cp-id)" fill="#1B2566">light</text><text x="568.427734375" y="465" width="5.556640625" height="26.400000000000002" font-weight="400" font-style="normal" font-size="20" font-family="svglidebody" clip-path="url(#satori_cp-id)" fill="#1B2566">,</text><text x="573.984375" y="465" width="5.556640625" height="26.400000000000002" font-weight="400" font-style="normal" font-size="20" font-family="svglidebody" clip-path="url(#satori_cp-id)" fill="#1B2566"> </text><text x="395" y="491" width="56.6796875" height="26.400000000000002" font-weight="400" font-style="normal" font-size="20" font-family="svglidebody" clip-path="url(#satori_cp-id)" fill="#1B2566">matter</text><text x="451.6796875" y="491" width="5.556640625" height="26.400000000000002" font-weight="400" font-style="normal" font-size="20" font-family="svglidebody" clip-path="url(#satori_cp-id)" fill="#1B2566"> </text><text x="457.236328125" y="491" width="33.369140625" height="26.400000000000002" font-weight="400" font-style="normal" font-size="20" font-family="svglidebody" clip-path="url(#satori_cp-id)" fill="#1B2566">and</text><text x="490.60546875" y="491" width="5.556640625" height="26.400000000000002" font-weight="400" font-style="normal" font-size="20" font-family="svglidebody" clip-path="url(#satori_cp-id)" fill="#1B2566"> </text><text x="395" y="517" width="105.615234375" height="26.400000000000002" font-weight="400" font-style="normal" font-size="20" font-family="svglidebody" clip-path="url(#satori_cp-id)" fill="#1B2566">atmosphere</text><text x="500.615234375" y="517" width="5.556640625" height="26.400000000000002" font-weight="400" font-style="normal" font-size="20" font-family="svglidebody" clip-path="url(#satori_cp-id)" fill="#1B2566">.</text><defs><clipPath id="satori_bc-id-11" clip-path="url(#satori_cp-id)"><rect x="625" y="415" width="296" height="107"/></clipPath></defs><mask id="satori_om-id-11"><rect x="625" y="416" width="296" height="106" fill="#fff" mask="url(#satori_om-id)"/><path width="296" height="107" fill="none" stroke="#000" stroke-width="2" d="M625,415 A0,0 0 0 1 625,415 h296 A0,0 0 0 1 921,415"/></mask><path width="296" height="107" clip-path="url(#satori_bc-id-11)" fill="none" stroke="#1B2566" stroke-width="2" d="M625,415 A0,0 0 0 1 625,415 h296 A0,0 0 0 1 921,415"/><mask id="satori_om-id-11-0"><rect x="625" y="424" width="296" height="13" fill="#fff" mask="url(#satori_om-id)"/></mask><text x="625" y="435" width="42.007421875" height="12.600000000000001" font-weight="800" font-style="normal" font-size="12" font-family="svglidelabel" letter-spacing="0.08" clip-path="url(#satori_cp-id)" fill="#1B2566">NOTES</text><mask id="satori_om-id-11-1"><rect x="625" y="444" width="296" height="78" fill="#fff" mask="url(#satori_om-id)"/></mask><text x="625" y="465" width="27.783203125" height="26.400000000000002" font-weight="400" font-style="normal" font-size="20" font-family="svglidebody" clip-path="url(#satori_cp-id)" fill="#1B2566">Six</text><text x="652.783203125" y="465" width="5.556640625" height="26.400000000000002" font-weight="400" font-style="normal" font-size="20" font-family="svglidebody" clip-path="url(#satori_cp-id)" fill="#1B2566"> </text><text x="658.33984375" y="465" width="65.5859375" height="26.400000000000002" font-weight="400" font-style="normal" font-size="20" font-family="svglidebody" clip-path="url(#satori_cp-id)" fill="#1B2566">months</text><text x="723.92578125" y="465" width="5.556640625" height="26.400000000000002" font-weight="400" font-style="normal" font-size="20" font-family="svglidebody" clip-path="url(#satori_cp-id)" fill="#1B2566"> </text><text x="729.482421875" y="465" width="16.6796875" height="26.400000000000002" font-weight="400" font-style="normal" font-size="20" font-family="svglidebody" clip-path="url(#satori_cp-id)" fill="#1B2566">of</text><text x="746.162109375" y="465" width="5.556640625" height="26.400000000000002" font-weight="400" font-style="normal" font-size="20" font-family="svglidebody" clip-path="url(#satori_cp-id)" fill="#1B2566"> </text><text x="751.71875" y="465" width="94.501953125" height="26.400000000000002" font-weight="400" font-style="normal" font-size="20" font-family="svglidebody" clip-path="url(#satori_cp-id)" fill="#1B2566">exhibitions</text><text x="846.220703125" y="465" width="5.556640625" height="26.400000000000002" font-weight="400" font-style="normal" font-size="20" font-family="svglidebody" clip-path="url(#satori_cp-id)" fill="#1B2566">,</text><text x="851.77734375" y="465" width="5.556640625" height="26.400000000000002" font-weight="400" font-style="normal" font-size="20" font-family="svglidebody" clip-path="url(#satori_cp-id)" fill="#1B2566"> </text><text x="625" y="491" width="101.162109375" height="26.400000000000002" font-weight="400" font-style="normal" font-size="20" font-family="svglidebody" clip-path="url(#satori_cp-id)" fill="#1B2566">residencies</text><text x="726.162109375" y="491" width="5.556640625" height="26.400000000000002" font-weight="400" font-style="normal" font-size="20" font-family="svglidebody" clip-path="url(#satori_cp-id)" fill="#1B2566"> </text><text x="731.71875" y="491" width="33.369140625" height="26.400000000000002" font-weight="400" font-style="normal" font-size="20" font-family="svglidebody" clip-path="url(#satori_cp-id)" fill="#1B2566">and</text><text x="765.087890625" y="491" width="5.556640625" height="26.400000000000002" font-weight="400" font-style="normal" font-size="20" font-family="svglidebody" clip-path="url(#satori_cp-id)" fill="#1B2566"> </text><text x="770.64453125" y="491" width="52.255859375" height="26.400000000000002" font-weight="400" font-style="normal" font-size="20" font-family="svglidebody" clip-path="url(#satori_cp-id)" fill="#1B2566">public</text><text x="822.900390625" y="491" width="5.556640625" height="26.400000000000002" font-weight="400" font-style="normal" font-size="20" font-family="svglidebody" clip-path="url(#satori_cp-id)" fill="#1B2566"> </text><text x="828.45703125" y="491" width="70.029296875" height="26.400000000000002" font-weight="400" font-style="normal" font-size="20" font-family="svglidebody" clip-path="url(#satori_cp-id)" fill="#1B2566">lectures</text><text x="898.486328125" y="491" width="5.556640625" height="26.400000000000002" font-weight="400" font-style="normal" font-size="20" font-family="svglidebody" clip-path="url(#satori_cp-id)" fill="#1B2566"> </text><text x="625" y="517" width="58.90625" height="26.400000000000002" font-weight="400" font-style="normal" font-size="20" font-family="svglidebody" clip-path="url(#satori_cp-id)" fill="#1B2566">across</text><text x="683.90625" y="517" width="5.556640625" height="26.400000000000002" font-weight="400" font-style="normal" font-size="20" font-family="svglidebody" clip-path="url(#satori_cp-id)" fill="#1B2566"> </text><text x="689.462890625" y="517" width="45.5859375" height="26.400000000000002" font-weight="400" font-style="normal" font-size="20" font-family="svglidebody" clip-path="url(#satori_cp-id)" fill="#1B2566">three</text><text x="735.048828125" y="517" width="5.556640625" height="26.400000000000002" font-weight="400" font-style="normal" font-size="20" font-family="svglidebody" clip-path="url(#satori_cp-id)" fill="#1B2566"> </text><text x="740.60546875" y="517" width="77.822265625" height="26.400000000000002" font-weight="400" font-style="normal" font-size="20" font-family="svglidebody" clip-path="url(#satori_cp-id)" fill="#1B2566">pavilions</text><text x="818.427734375" y="517" width="5.556640625" height="26.400000000000002" font-weight="400" font-style="normal" font-size="20" font-family="svglidebody" clip-path="url(#satori_cp-id)" fill="#1B2566">.</text><mask id="satori_om-id-12"><rect x="878" y="423" width="58" height="106" fill="#fff" mask="url(#satori_om-id)"/></mask><text x="895.02734375" y="470" width="58.734375" height="53.199999999999996" font-weight="500" font-style="normal" font-size="56" font-family="svglidemetric" clip-path="url(#satori_cp-id)" fill="#1B2566">01</text><text x="953.76171875" y="470" width="16.87109375" height="53.199999999999996" font-weight="500" font-style="normal" font-size="56" font-family="svglidemetric" clip-path="url(#satori_cp-id)" fill="#1B2566"> </text><text x="970.6328125" y="470" width="29.3671875" height="53.199999999999996" font-weight="500" font-style="normal" font-size="56" font-family="svglidemetric" clip-path="url(#satori_cp-id)" fill="#1B2566">/</text><text x="1000" y="470" width="16.87109375" height="53.199999999999996" font-weight="500" font-style="normal" font-size="56" font-family="svglidemetric" clip-path="url(#satori_cp-id)" fill="#1B2566"> </text><text x="941.265625" y="523" width="58.734375" height="53.199999999999996" font-weight="500" font-style="normal" font-size="56" font-family="svglidemetric" clip-path="url(#satori_cp-id)" fill="#1B2566">08</text></svg>