<svg width="960" height="540" viewBox="0 0 960 540" xmlns="http://www.w3.org/2000/svg"><clipPath id="satori_cp-id"><rect x="0" y="0" width="960" height="540"/></clipPath><mask id="satori_om-id"><rect x="0" y="0" width="960" height="540" fill="#fff"/></mask><rect x="0" y="0" width="960" height="540" fill="#FFDC8B"/><mask id="satori_om-id-0"><rect x="34" y="35" width="2" height="2" fill="#fff" mask="url(#satori_om-id)"/></mask><g opacity="0.55"><path x="34" y="35" width="2" height="2" fill="#000000" d="M35,35 h0 a1,1 0 0 1 1,1 v0 a1,1 0 0 1 -1,1 h0 a1,1 0 0 1 -1,-1 v0 a1,1 0 0 1 1,-1" clip-path="url(#satori_cp-id)" mask="url(#satori_om-id)"/></g><mask id="satori_om-id-1"><rect x="44" y="35" width="2" height="2" fill="#fff" mask="url(#satori_om-id)"/></mask><g opacity="0.55"><path x="44" y="35" width="2" height="2" fill="#000000" d="M45,35 h0 a1,1 0 0 1 1,1 v0 a1,1 0 0 1 -1,1 h0 a1,1 0 0 1 -1,-1 v0 a1,1 0 0 1 1,-1" clip-path="url(#satori_cp-id)" mask="url(#satori_om-id)"/></g><mask id="satori_om-id-2"><rect x="54" y="35" width="2" height="2" fill="#fff" mask="url(#satori_om-id)"/></mask><g opacity="0.55"><path x="54" y="35" width="2" height="2" fill="#000000" d="M55,35 h0 a1,1 0 0 1 1,1 v0 a1,1 0 0 1 -1,1 h0 a1,1 0 0 1 -1,-1 v0 a1,1 0 0 1 1,-1" clip-path="url(#satori_cp-id)" mask="url(#satori_om-id)"/></g><mask id="satori_om-id-3"><rect x="64" y="35" width="2" height="2" fill="#fff" mask="url(#satori_om-id)"/></mask><g opacity="0.55"><path x="64" y="35" width="2" height="2" fill="#000000" d="M65,35 h0 a1,1 0 0 1 1,1 v0 a1,1 0 0 1 -1,1 h0 a1,1 0 0 1 -1,-1 v0 a1,1 0 0 1 1,-1" clip-path="url(#satori_cp-id)" mask="url(#satori_om-id)"/></g><mask id="satori_om-id-4"><rect x="74" y="35" width="2" height="2" fill="#fff" mask="url(#satori_om-id)"/></mask><g opacity="0.55"><path x="74" y="35" width="2" height="2" fill="#000000" d="M75,35 h0 a1,1 0 0 1 1,1 v0 a1,1 0 0 1 -1,1 h0 a1,1 0 0 1 -1,-1 v0 a1,1 0 0 1 1,-1" clip-path="url(#satori_cp-id)" mask="url(#satori_om-id)"/></g><mask id="satori_om-id-5"><rect x="84" y="35" width="2" height="2" fill="#fff" mask="url(#satori_om-id)"/></mask><g opacity="0.55"><path x="84" y="35" width="2" height="2" fill="#000000" d="M85,35 h0 a1,1 0 0 1 1,1 v0 a1,1 0 0 1 -1,1 h0 a1,1 0 0 1 -1,-1 v0 a1,1 0 0 1 1,-1" clip-path="url(#satori_cp-id)" mask="url(#satori_om-id)"/></g><mask id="satori_om-id-6"><rect x="34" y="45" width="2" height="2" fill="#fff" mask="url(#satori_om-id)"/></mask><g opacity="0.55"><path x="34" y="45" width="2" height="2" fill="#000000" d="M35,45 h0 a1,1 0 0 1 1,1 v0 a1,1 0 0 1 -1,1 h0 a1,1 0 0 1 -1,-1 v0 a1,1 0 0 1 1,-1" clip-path="url(#satori_cp-id)" mask="url(#satori_om-id)"/></g><mask id="satori_om-id-7"><rect x="44" y="45" width="2" height="2" fill="#fff" mask="url(#satori_om-id)"/></mask><g opacity="0.55"><path x="44" y="45" width="2" height="2" fill="#000000" d="M45,45 h0 a1,1 0 0 1 1,1 v0 a1,1 0 0 1 -1,1 h0 a1,1 0 0 1 -1,-1 v0 a1,1 0 0 1 1,-1" clip-path="url(#satori_cp-id)" mask="url(#satori_om-id)"/></g><mask id="satori_om-id-8"><rect x="54" y="45" width="2" height="2" fill="#fff" mask="url(#satori_om-id)"/></mask><g opacity="0.55"><path x="54" y="45" width="2" height="2" fill="#000000" d="M55,45 h0 a1,1 0 0 1 1,1 v0 a1,1 0 0 1 -1,1 h0 a1,1 0 0 1 -1,-1 v0 a1,1 0 0 1 1,-1" clip-path="url(#satori_cp-id)" mask="url(#satori_om-id)"/></g><mask id="satori_om-id-9"><rect x="64" y="45" width="2" height="2" fill="#fff" mask="url(#satori_om-id)"/></mask><g opacity="0.55"><path x="64" y="45" width="2" height="2" fill="#000000" d="M65,45 h0 a1,1 0 0 1 1,1 v0 a1,1 0 0 1 -1,1 h0 a1,1 0 0 1 -1,-1 v0 a1,1 0 0 1 1,-1" clip-path="url(#satori_cp-id)" mask="url(#satori_om-id)"/></g><mask id="satori_om-id-10"><rect x="74" y="45" width="2" height="2" fill="#fff" mask="url(#satori_om-id)"/></mask><g opacity="0.55"><path x="74" y="45" width="2" height="2" fill="#000000" d="M75,45 h0 a1,1 0 0 1 1,1 v0 a1,1 0 0 1 -1,1 h0 a1,1 0 0 1 -1,-1 v0 a1,1 0 0 1 1,-1" clip-path="url(#satori_cp-id)" mask="url(#satori_om-id)"/></g><mask id="satori_om-id-11"><rect x="84" y="45" width="2" height="2" fill="#fff" mask="url(#satori_om-id)"/></mask><g opacity="0.55"><path x="84" y="45" width="2" height="2" fill="#000000" d="M85,45 h0 a1,1 0 0 1 1,1 v0 a1,1 0 0 1 -1,1 h0 a1,1 0 0 1 -1,-1 v0 a1,1 0 0 1 1,-1" clip-path="url(#satori_cp-id)" mask="url(#satori_om-id)"/></g><mask id="satori_om-id-12"><rect x="34" y="55" width="2" height="2" fill="#fff" mask="url(#satori_om-id)"/></mask><g opacity="0.55"><path x="34" y="55" width="2" height="2" fill="#000000" d="M35,55 h0 a1,1 0 0 1 1,1 v0 a1,1 0 0 1 -1,1 h0 a1,1 0 0 1 -1,-1 v0 a1,1 0 0 1 1,-1" clip-path="url(#satori_cp-id)" mask="url(#satori_om-id)"/></g><mask id="satori_om-id-13"><rect x="44" y="55" width="2" height="2" fill="#fff" mask="url(#satori_om-id)"/></mask><g opacity="0.55"><path x="44" y="55" width="2" height="2" fill="#000000" d="M45,55 h0 a1,1 0 0 1 1,1 v0 a1,1 0 0 1 -1,1 h0 a1,1 0 0 1 -1,-1 v0 a1,1 0 0 1 1,-1" clip-path="url(#satori_cp-id)" mask="url(#satori_om-id)"/></g><mask id="satori_om-id-14"><rect x="54" y="55" width="2" height="2" fill="#fff" mask="url(#satori_om-id)"/></mask><g opacity="0.55"><path x="54" y="55" width="2" height="2" fill="#000000" d="M55,55 h0 a1,1 0 0 1 1,1 v0 a1,1 0 0 1 -1,1 h0 a1,1 0 0 1 -1,-1 v0 a1,1 0 0 1 1,-1" clip-path="url(#satori_cp-id)" mask="url(#satori_om-id)"/></g><mask id="satori_om-id-15"><rect x="64" y="55" width="2" height="2" fill="#fff" mask="url(#satori_om-id)"/></mask><g opacity="0.55"><path x="64" y="55" width="2" height="2" fill="#000000" d="M65,55 h0 a1,1 0 0 1 1,1 v0 a1,1 0 0 1 -1,1 h0 a1,1 0 0 1 -1,-1 v0 a1,1 0 0 1 1,-1" clip-path="url(#satori_cp-id)" mask="url(#satori_om-id)"/></g><mask id="satori_om-id-16"><rect x="74" y="55" width="2" height="2" fill="#fff" mask="url(#satori_om-id)"/></mask><g opacity="0.55"><path x="74" y="55" width="2" height="2" fill="#000000" d="M75,55 h0 a1,1 0 0 1 1,1 v0 a1,1 0 0 1 -1,1 h0 a1,1 0 0 1 -1,-1 v0 a1,1 0 0 1 1,-1" clip-path="url(#satori_cp-id)" mask="url(#satori_om-id)"/></g><mask id="satori_om-id-17"><rect x="84" y="55" width="2" height="2" fill="#fff" mask="url(#satori_om-id)"/></mask><g opacity="0.55"><path x="84" y="55" width="2" height="2" fill="#000000" d="M85,55 h0 a1,1 0 0 1 1,1 v0 a1,1 0 0 1 -1,1 h0 a1,1 0 0 1 -1,-1 v0 a1,1 0 0 1 1,-1" clip-path="url(#satori_cp-id)" mask="url(#satori_om-id)"/></g><mask id="satori_om-id-18"><rect x="34" y="65" width="2" height="2" fill="#fff" mask="url(#satori_om-id)"/></mask><g opacity="0.55"><path x="34" y="65" width="2" height="2" fill="#000000" d="M35,65 h0 a1,1 0 0 1 1,1 v0 a1,1 0 0 1 -1,1 h0 a1,1 0 0 1 -1,-1 v0 a1,1 0 0 1 1,-1" clip-path="url(#satori_cp-id)" mask="url(#satori_om-id)"/></g><mask id="satori_om-id-19"><rect x="44" y="65" width="2" height="2" fill="#fff" mask="url(#satori_om-id)"/></mask><g opacity="0.55"><path x="44" y="65" width="2" height="2" fill="#000000" d="M45,65 h0 a1,1 0 0 1 1,1 v0 a1,1 0 0 1 -1,1 h0 a1,1 0 0 1 -1,-1 v0 a1,1 0 0 1 1,-1" clip-path="url(#satori_cp-id)" mask="url(#satori_om-id)"/></g><mask id="satori_om-id-20"><rect x="54" y="65" width="2" height="2" fill="#fff" mask="url(#satori_om-id)"/></mask><g opacity="0.55"><path x="54" y="65" width="2" height="2" fill="#000000" d="M55,65 h0 a1,1 0 0 1 1,1 v0 a1,1 0 0 1 -1,1 h0 a1,1 0 0 1 -1,-1 v0 a1,1 0 0 1 1,-1" clip-path="url(#satori_cp-id)" mask="url(#satori_om-id)"/></g><mask id="satori_om-id-21"><rect x="64" y="65" width="2" height="2" fill="#fff" mask="url(#satori_om-id)"/></mask><g opacity="0.55"><path x="64" y="65" width="2" height="2" fill="#000000" d="M65,65 h0 a1,1 0 0 1 1,1 v0 a1,1 0 0 1 -1,1 h0 a1,1 0 0 1 -1,-1 v0 a1,1 0 0 1 1,-1" clip-path="url(#satori_cp-id)" mask="url(#satori_om-id)"/></g><mask id="satori_om-id-22"><rect x="74" y="65" width="2" height="2" fill="#fff" mask="url(#satori_om-id)"/></mask><g opacity="0.55"><path x="74" y="65" width="2" height="2" fill="#000000" d="M75,65 h0 a1,1 0 0 1 1,1 v0 a1,1 0 0 1 -1,1 h0 a1,1 0 0 1 -1,-1 v0 a1,1 0 0 1 1,-1" clip-path="url(#satori_cp-id)" mask="url(#satori_om-id)"/></g><mask id="satori_om-id-23"><rect x="84" y="65" width="2" height="2" fill="#fff" mask="url(#satori_om-id)"/></mask><g opacity="0.55"><path x="84" y="65" width="2" height="2" fill="#000000" d="M85,65 h0 a1,1 0 0 1 1,1 v0 a1,1 0 0 1 -1,1 h0 a1,1 0 0 1 -1,-1 v0 a1,1 0 0 1 1,-1" clip-path="url(#satori_cp-id)" mask="url(#satori_om-id)"/></g><mask id="satori_om-id-24"><rect x="264" y="147" width="452" height="274" fill="#fff" mask="url(#satori_om-id)"/></mask><rect x="264" y="147" width="452" height="274" fill="#000000" clip-path="url(#satori_cp-id)" mask="url(#satori_om-id)"/><defs><clipPath id="satori_bc-id-25" clip-path="url(#satori_cp-id)"><rect x="256" y="139" width="452" height="274"/></clipPath></defs><mask id="satori_om-id-25"><rect x="259" y="142" width="446" height="268" fill="#fff" mask="url(#satori_om-id)"/><path width="452" height="274" fill="none" stroke="#000" stroke-width="6" d="M256,139 A0,0 0 0 1 256,139 h452 a0,0 0 0 1 0,0 v274 a0,0 0 0 1 0,0 h-452 a0,0 0 0 1 0,0 v-274 A0,0 0 0 1 256,139"/></mask><rect x="256" y="139" width="452" height="274" fill="#FFFDF5" clip-path="url(#satori_cp-id)" mask="url(#satori_om-id)"/><path width="452" height="274" clip-path="url(#satori_bc-id-25)" fill="none" stroke="#000000" stroke-width="6" d="M256,139 A0,0 0 0 1 256,139 h452 a0,0 0 0 1 0,0 v274 a0,0 0 0 1 0,0 h-452 a0,0 0 0 1 0,0 v-274 A0,0 0 0 1 256,139"/><defs><clipPath id="satori_bc-id-25-0" clip-path="url(#satori_cp-id)"><rect x="291" y="172" width="110" height="15"/></clipPath></defs><mask id="satori_om-id-25-0"><rect x="293" y="174" width="106" height="11" fill="#fff" mask="url(#satori_om-id)"/><path width="110" height="15" fill="none" stroke="#000" stroke-width="4" d="M291,172 A0,0 0 0 1 291,172 h110 a0,0 0 0 1 0,0 v15 a0,0 0 0 1 0,0 h-110 a0,0 0 0 1 0,0 v-15 A0,0 0 0 1 291,172"/></mask><path width="110" height="15" clip-path="url(#satori_bc-id-25-0)" fill="none" stroke="#000000" stroke-width="4" d="M291,172 A0,0 0 0 1 291,172 h110 a0,0 0 0 1 0,0 v15 a0,0 0 0 1 0,0 h-110 a0,0 0 0 1 0,0 v-15 A0,0 0 0 1 291,172"/><text x="300" y="188" width="79.6269921875" height="10.5" font-weight="900" font-style="normal" font-size="10" font-family="svglidelabel" letter-spacing="0.08" clip-path="url(#satori_cp-id)" fill="#000000">PRESENTATION</text><text x="379.6269921875" y="188" width="3.595625" height="10.5" font-weight="900" font-style="normal" font-size="10" font-family="svglidelabel" letter-spacing="0.08" clip-path="url(#satori_cp-id)" fill="#000000"> </text><text x="300" y="199" width="52.47105468749999" height="10.5" font-weight="900" font-style="normal" font-size="10" font-family="svglidelabel" letter-spacing="0.08" clip-path="url(#satori_cp-id)" fill="#000000">TEMPLATE</text><mask id="satori_om-id-25-1"><rect x="291" y="203" width="330" height="108" fill="#fff" mask="url(#satori_om-id)"/></mask><text x="291" y="249" width="117.017578125" height="48.6" font-weight="900" font-style="normal" font-size="54" font-family="svglidedisplay" clip-path="url(#satori_cp-id)" fill="#000000">NEO</text><text x="408.017578125" y="249" width="17.982421875" height="48.6" font-weight="900" font-style="normal" font-size="54" font-family="svglidedisplay" clip-path="url(#satori_cp-id)" fill="#000000">-</text><text x="291" y="298" width="309.0498046875" height="48.6" font-weight="900" font-style="normal" font-size="54" font-family="svglidedisplay" clip-path="url(#satori_cp-id)" fill="#000000">BRUTALISM</text><text x="600.0498046875" y="298" width="15.0029296875" height="48.6" font-weight="900" font-style="normal" font-size="54" font-family="svglidedisplay" clip-path="url(#satori_cp-id)" fill="#000000"> </text><text x="291" y="347" width="171.0703125" height="48.6" font-weight="900" font-style="normal" font-size="54" font-family="svglidedisplay" clip-path="url(#satori_cp-id)" fill="#000000">STYLE</text><mask id="satori_om-id-25-2"><rect x="291" y="327" width="318" height="53" fill="#fff" mask="url(#satori_om-id)"/></mask><text x="291" y="346" width="12.005859375" height="23.76" font-weight="700" font-style="normal" font-size="18" font-family="svglidebody" clip-path="url(#satori_cp-id)" fill="#000000">A</text><text x="303.005859375" y="346" width="5.0009765625" height="23.76" font-weight="700" font-style="normal" font-size="18" font-family="svglidebody" clip-path="url(#satori_cp-id)" fill="#000000"> </text><text x="308.0068359375" y="346" width="34.03125" height="23.76" font-weight="700" font-style="normal" font-size="18" font-family="svglidebody" clip-path="url(#satori_cp-id)" fill="#000000">bold</text><text x="342.0380859375" y="346" width="5.0009765625" height="23.76" font-weight="700" font-style="normal" font-size="18" font-family="svglidebody" clip-path="url(#satori_cp-id)" fill="#000000">,</text><text x="347.0390625" y="346" width="5.0009765625" height="23.76" font-weight="700" font-style="normal" font-size="18" font-family="svglidebody" clip-path="url(#satori_cp-id)" fill="#000000"> </text><text x="352.0400390625" y="346" width="34.03125" height="23.76" font-weight="700" font-style="normal" font-size="18" font-family="svglidebody" clip-path="url(#satori_cp-id)" fill="#000000">high</text><text x="386.0712890625" y="346" width="5.994140625" height="23.76" font-weight="700" font-style="normal" font-size="18" font-family="svglidebody" clip-path="url(#satori_cp-id)" fill="#000000">-</text><text x="392.0654296875" y="346" width="64.0283203125" height="23.76" font-weight="700" font-style="normal" font-size="18" font-family="svglidebody" clip-path="url(#satori_cp-id)" fill="#000000">contrast</text><text x="456.09375" y="346" width="5.0009765625" height="23.76" font-weight="700" font-style="normal" font-size="18" font-family="svglidebody" clip-path="url(#satori_cp-id)" fill="#000000"> </text><text x="461.0947265625" y="346" width="69.0380859375" height="23.76" font-weight="700" font-style="normal" font-size="18" font-family="svglidebody" clip-path="url(#satori_cp-id)" fill="#000000">template</text><text x="530.1328125" y="346" width="5.0009765625" height="23.76" font-weight="700" font-style="normal" font-size="18" font-family="svglidebody" clip-path="url(#satori_cp-id)" fill="#000000"> </text><text x="535.1337890625" y="346" width="73.0634765625" height="23.76" font-weight="700" font-style="normal" font-size="18" font-family="svglidebody" clip-path="url(#satori_cp-id)" fill="#000000">designed</text><text x="608.197265625" y="346" width="5.0009765625" height="23.76" font-weight="700" font-style="normal" font-size="18" font-family="svglidebody" clip-path="url(#satori_cp-id)" fill="#000000"> </text><text x="291" y="370" width="21.005859375" height="23.76" font-weight="700" font-style="normal" font-size="18" font-family="svglidebody" clip-path="url(#satori_cp-id)" fill="#000000">for</text><text x="312.005859375" y="370" width="5.0009765625" height="23.76" font-weight="700" font-style="normal" font-size="18" font-family="svglidebody" clip-path="url(#satori_cp-id)" fill="#000000"> </text><text x="317.0068359375" y="370" width="78.0029296875" height="23.76" font-weight="700" font-style="normal" font-size="18" font-family="svglidebody" clip-path="url(#satori_cp-id)" fill="#000000">maximum</text><text x="395.009765625" y="370" width="5.0009765625" height="23.76" font-weight="700" font-style="normal" font-size="18" font-family="svglidebody" clip-path="url(#satori_cp-id)" fill="#000000"> </text><text x="400.0107421875" y="370" width="46.01953125" height="23.76" font-weight="700" font-style="normal" font-size="18" font-family="svglidebody" clip-path="url(#satori_cp-id)" fill="#000000">visual</text><text x="446.0302734375" y="370" width="5.0009765625" height="23.76" font-weight="700" font-style="normal" font-size="18" font-family="svglidebody" clip-path="url(#satori_cp-id)" fill="#000000"> </text><text x="451.03125" y="370" width="53.015625" height="23.76" font-weight="700" font-style="normal" font-size="18" font-family="svglidebody" clip-path="url(#satori_cp-id)" fill="#000000">impact</text><text x="504.046875" y="370" width="5.0009765625" height="23.76" font-weight="700" font-style="normal" font-size="18" font-family="svglidebody" clip-path="url(#satori_cp-id)" fill="#000000"> </text><text x="509.0478515625" y="370" width="30.0322265625" height="23.76" font-weight="700" font-style="normal" font-size="18" font-family="svglidebody" clip-path="url(#satori_cp-id)" fill="#000000">and</text><text x="539.080078125" y="370" width="5.0009765625" height="23.76" font-weight="700" font-style="normal" font-size="18" font-family="svglidebody" clip-path="url(#satori_cp-id)" fill="#000000"> </text><text x="291" y="394" width="132.0556640625" height="23.76" font-weight="700" font-style="normal" font-size="18" font-family="svglidebody" clip-path="url(#satori_cp-id)" fill="#000000">uncompromising</text><text x="423.0556640625" y="394" width="5.0009765625" height="23.76" font-weight="700" font-style="normal" font-size="18" font-family="svglidebody" clip-path="url(#satori_cp-id)" fill="#000000"> </text><text x="428.056640625" y="394" width="47.00390625" height="23.76" font-weight="700" font-style="normal" font-size="18" font-family="svglidebody" clip-path="url(#satori_cp-id)" fill="#000000">clarity</text><text x="475.060546875" y="394" width="5.0009765625" height="23.76" font-weight="700" font-style="normal" font-size="18" font-family="svglidebody" clip-path="url(#satori_cp-id)" fill="#000000">.</text><mask id="satori_om-id-26"><rect x="614" y="118" width="58" height="52" fill="#fff" mask="url(#satori_om-id)"/></mask><g clip-path="url(#satori_cp-id)" mask="url(#satori_om-id)"><rect x="614" y="118" width="58" height="52" fill="#000000" transform="matrix(0.98,0.21,-0.21,0.98,43.99,-130.54)"/></g><defs><clipPath id="satori_bc-id-27" clip-path="url(#satori_cp-id)"><rect x="610" y="112" width="58" height="52"/></clipPath></defs><mask id="satori_om-id-27"><rect x="612" y="114" width="54" height="48" fill="#fff" mask="url(#satori_om-id)"/><path width="58" height="52" transform="matrix(0.98,0.21,-0.21,0.98,42.66,-129.84)" fill="none" stroke="#000" stroke-width="4" d="M610,112 A0,0 0 0 1 610,112 h58 a0,0 0 0 1 0,0 v52 a0,0 0 0 1 0,0 h-58 a0,0 0 0 1 0,0 v-52 A0,0 0 0 1 610,112"/></mask><g clip-path="url(#satori_cp-id)" mask="url(#satori_om-id)"><rect x="610" y="112" width="58" height="52" fill="#FE90E8" transform="matrix(0.98,0.21,-0.21,0.98,42.66,-129.84)"/><path width="58" height="52" transform="matrix(0.98,0.21,-0.21,0.98,42.66,-129.84)" clip-path="url(#satori_bc-id-27)" fill="none" stroke="#000000" stroke-width="4" d="M610,112 A0,0 0 0 1 610,112 h58 a0,0 0 0 1 0,0 v52 a0,0 0 0 1 0,0 h-58 a0,0 0 0 1 0,0 v-52 A0,0 0 0 1 610,112"/></g><defs><clipPath id="satori_bc-id-28" clip-path="url(#satori_cp-id)"><path x="616" y="348" width="32" height="32" d="M632,348 h0 a16,16 0 0 1 16,16 v0 a16,16 0 0 1 -16,16 h0 a16,16 0 0 1 -16,-16 v0 a16,16 0 0 1 16,-16"/></clipPath></defs><mask id="satori_om-id-28"><rect x="618" y="350" width="28" height="28" fill="#fff" mask="url(#satori_om-id)"/><path width="32" height="32" fill="none" stroke="#000" stroke-width="4" d="M620.686,352.686 A16,16 0 0 1 632,348 h0 a16,16 0 0 1 16,16 v0 a16,16 0 0 1 -16,16 h0 a16,16 0 0 1 -16,-16 v0 A16,16 0 0 1 620.686,352.686"/></mask><path x="616" y="348" width="32" height="32" fill="#99E885" d="M632,348 h0 a16,16 0 0 1 16,16 v0 a16,16 0 0 1 -16,16 h0 a16,16 0 0 1 -16,-16 v0 a16,16 0 0 1 16,-16" clip-path="url(#satori_cp-id)" mask="url(#satori_om-id)"/><path width="32" height="32" clip-path="url(#satori_bc-id-28)" fill="none" stroke="#000000" stroke-width="4" d="M620.686,352.686 A16,16 0 0 1 632,348 h0 a16,16 0 0 1 16,16 v0 a16,16 0 0 1 -16,16 h0 a16,16 0 0 1 -16,-16 v0 A16,16 0 0 1 620.686,352.686"/><mask id="satori_om-id-29"><rect x="298" y="401" width="72" height="20" fill="#fff" mask="url(#satori_om-id)"/></mask><g clip-path="url(#satori_cp-id)" mask="url(#satori_om-id)"><rect x="298" y="401" width="72" height="20" fill="#000000" transform="matrix(1.00,-0.03,0.03,1.00,-14.14,11.91)"/></g><defs><clipPath id="satori_bc-id-30" clip-path="url(#satori_cp-id)"><rect x="296" y="397" width="72" height="20"/></clipPath></defs><mask id="satori_om-id-30"><rect x="298" y="399" width="68" height="16" fill="#fff" mask="url(#satori_om-id)"/><path width="72" height="20" transform="matrix(1.00,-0.03,0.03,1.00,-14.00,11.83)" fill="none" stroke="#000" stroke-width="4" d="M296,397 A0,0 0 0 1 296,397 h72 a0,0 0 0 1 0,0 v20 a0,0 0 0 1 0,0 h-72 a0,0 0 0 1 0,0 v-20 A0,0 0 0 1 296,397"/></mask><g clip-path="url(#satori_cp-id)" mask="url(#satori_om-id)"><rect x="296" y="397" width="72" height="20" fill="#F7CB46" transform="matrix(1.00,-0.03,0.03,1.00,-14.00,11.83)"/><path width="72" height="20" transform="matrix(1.00,-0.03,0.03,1.00,-14.00,11.83)" clip-path="url(#satori_bc-id-30)" fill="none" stroke="#000000" stroke-width="4" d="M296,397 A0,0 0 0 1 296,397 h72 a0,0 0 0 1 0,0 v20 a0,0 0 0 1 0,0 h-72 a0,0 0 0 1 0,0 v-20 A0,0 0 0 1 296,397"/></g><mask id="satori_om-id-30-0"><rect x="298" y="396" width="68" height="22" fill="#fff" mask="url(#satori_om-id)"/></mask><g clip-path="url(#satori_cp-id)" mask="url(#satori_om-id)"></g><text x="298" y="405" width="20.479257812500002" height="10.5" font-weight="900" font-style="normal" font-size="10" font-family="svglidelabel" letter-spacing="0.08" transform="matrix(1.00,-0.03,0.03,1.00,-14.00,11.83)" clip-path="url(#satori_cp-id)" fill="#000000">GET</text><text x="318.4792578125" y="405" width="3.595625" height="10.5" font-weight="900" font-style="normal" font-size="10" font-family="svglidelabel" letter-spacing="0.08" transform="matrix(1.00,-0.03,0.03,1.00,-14.00,11.83)" clip-path="url(#satori_cp-id)" fill="#000000"> </text><text x="298" y="416" width="47.537539062499995" height="10.5" font-weight="900" font-style="normal" font-size="10" font-family="svglidelabel" letter-spacing="0.08" transform="matrix(1.00,-0.03,0.03,1.00,-14.00,11.83)" clip-path="url(#satori_cp-id)" fill="#000000">STARTED</text><defs><clipPath id="satori_bc-id-31" clip-path="url(#satori_cp-id)"><rect x="12" y="506" width="48" height="24"/></clipPath></defs><mask id="satori_om-id-31"><rect x="14" y="508" width="44" height="20" fill="#fff" mask="url(#satori_om-id)"/><path width="48" height="24" fill="none" stroke="#000" stroke-width="4" d="M12,506 A0,0 0 0 1 12,506 h48 a0,0 0 0 1 0,0 v24 a0,0 0 0 1 0,0 h-48 a0,0 0 0 1 0,0 v-24 A0,0 0 0 1 12,506"/></mask><rect x="12" y="506" width="48" height="24" fill="#FFFFFF" clip-path="url(#satori_cp-id)" mask="url(#satori_om-id)"/><path width="48" height="24" clip-path="url(#satori_bc-id-31)" fill="none" stroke="#000000" stroke-width="4" d="M12,506 A0,0 0 0 1 12,506 h48 a0,0 0 0 1 0,0 v24 a0,0 0 0 1 0,0 h-48 a0,0 0 0 1 0,0 v-24 A0,0 0 0 1 12,506"/><mask id="satori_om-id-31-0"><rect x="14" y="478" width="44" height="80" fill="#fff" mask="url(#satori_om-id)"/></mask><text x="20.63525390625" y="513" width="44.05078125" height="39.9" font-weight="900" font-style="normal" font-size="42" font-family="svglidemetric" clip-path="url(#satori_cp-id)" fill="#000000">01</text><text x="64.68603515625" y="513" width="12.6533203125" height="39.9" font-weight="900" font-style="normal" font-size="42" font-family="svglidemetric" clip-path="url(#satori_cp-id)" fill="#000000"> </text><text x="77.33935546875" y="513" width="22.025390625" height="39.9" font-weight="900" font-style="normal" font-size="42" font-family="svglidemetric" clip-path="url(#satori_cp-id)" fill="#000000">/</text><text x="99.36474609375" y="513" width="12.6533203125" height="39.9" font-weight="900" font-style="normal" font-size="42" font-family="svglidemetric" clip-path="url(#satori_cp-id)" fill="#000000"> </text><text x="37.974609375" y="553" width="44.05078125" height="39.9" font-weight="900" font-style="normal" font-size="42" font-family="svglidemetric" clip-path="url(#satori_cp-id)" fill="#000000">10</text><mask id="satori_om-id-32"><rect x="892" y="506" width="56" height="24" fill="#fff" mask="url(#satori_om-id)"/></mask><defs><clipPath id="satori_bc-id-32-0" clip-path="url(#satori_cp-id)"><rect x="892" y="506" width="24" height="24"/></clipPath></defs><mask id="satori_om-id-32-0"><rect x="894" y="508" width="20" height="20" fill="#fff" mask="url(#satori_om-id)"/><path width="24" height="24" fill="none" stroke="#000" stroke-width="4" d="M892,506 A0,0 0 0 1 892,506 h24 a0,0 0 0 1 0,0 v24 a0,0 0 0 1 0,0 h-24 a0,0 0 0 1 0,0 v-24 A0,0 0 0 1 892,506"/></mask><rect x="892" y="506" width="24" height="24" fill="#FFFFFF" clip-path="url(#satori_cp-id)" mask="url(#satori_om-id)"/><path width="24" height="24" clip-path="url(#satori_bc-id-32-0)" fill="none" stroke="#000000" stroke-width="4" d="M892,506 A0,0 0 0 1 892,506 h24 a0,0 0 0 1 0,0 v24 a0,0 0 0 1 0,0 h-24 a0,0 0 0 1 0,0 v-24 A0,0 0 0 1 892,506"/><mask id="satori_om-id-32-0-0"><rect x="894" y="498" width="20" height="40" fill="#fff" mask="url(#satori_om-id)"/></mask><text x="894" y="533" width="22.025390625" height="39.9" font-weight="900" font-style="normal" font-size="42" font-family="svglidemetric" clip-path="url(#satori_cp-id)" fill="#000000">&lt;</text><defs><clipPath id="satori_bc-id-32-1" clip-path="url(#satori_cp-id)"><rect x="924" y="506" width="24" height="24"/></clipPath></defs><mask id="satori_om-id-32-1"><rect x="926" y="508" width="20" height="20" fill="#fff" mask="url(#satori_om-id)"/><path width="24" height="24" fill="none" stroke="#000" stroke-width="4" d="M924,506 A0,0 0 0 1 924,506 h24 a0,0 0 0 1 0,0 v24 a0,0 0 0 1 0,0 h-24 a0,0 0 0 1 0,0 v-24 A0,0 0 0 1 924,506"/></mask><rect x="924" y="506" width="24" height="24" fill="#FFFFFF" clip-path="url(#satori_cp-id)" mask="url(#satori_om-id)"/><path width="24" height="24" clip-path="url(#satori_bc-id-32-1)" fill="none" stroke="#000000" stroke-width="4" d="M924,506 A0,0 0 0 1 924,506 h24 a0,0 0 0 1 0,0 v24 a0,0 0 0 1 0,0 h-24 a0,0 0 0 1 0,0 v-24 A0,0 0 0 1 924,506"/><mask id="satori_om-id-32-1-0"><rect x="926" y="498" width="20" height="40" fill="#fff" mask="url(#satori_om-id)"/></mask><text x="926" y="533" width="22.025390625" height="39.9" font-weight="900" font-style="normal" font-size="42" font-family="svglidemetric" clip-path="url(#satori_cp-id)" fill="#000000">&gt;</text><defs><clipPath id="satori_bc-id-33" clip-path="url(#satori_cp-id)"><rect x="462" y="136" width="10" height="10"/></clipPath></defs><mask id="satori_om-id-33"><rect x="464" y="138" width="6" height="6" fill="#fff" mask="url(#satori_om-id)"/><path width="10" height="10" fill="none" stroke="#000" stroke-width="4" d="M462,136 A0,0 0 0 1 462,136 h10 a0,0 0 0 1 0,0 v10 a0,0 0 0 1 0,0 h-10 a0,0 0 0 1 0,0 v-10 A0,0 0 0 1 462,136"/></mask><rect x="462" y="136" width="10" height="10" fill="#C0F7FE" clip-path="url(#satori_cp-id)" mask="url(#satori_om-id)"/><path width="10" height="10" clip-path="url(#satori_bc-id-33)" fill="none" stroke="#000000" stroke-width="4" d="M462,136 A0,0 0 0 1 462,136 h10 a0,0 0 0 1 0,0 v10 a0,0 0 0 1 0,0 h-10 a0,0 0 0 1 0,0 v-10 A0,0 0 0 1 462,136"/></svg>