<svg width="960" height="540" viewBox="0 0 960 540" xmlns="http://www.w3.org/2000/svg"><clipPath id="satori_cp-id"><rect x="0" y="0" width="960" height="540"/></clipPath><mask id="satori_om-id"><rect x="0" y="0" width="960" height="540" fill="#fff"/></mask><rect x="0" y="0" width="960" height="540" fill="#FFFFFF"/><mask id="satori_om-id-0"><rect x="0" y="0" width="480" height="540" fill="#fff" mask="url(#satori_om-id)"/></mask><rect x="0" y="0" width="480" height="540" fill="#F2D4CF" clip-path="url(#satori_cp-id)" mask="url(#satori_om-id)"/><defs><clipPath id="satori_bc-id-1" clip-path="url(#satori_cp-id)"><rect x="32" y="34" width="24" height="24"/></clipPath></defs><mask id="satori_om-id-1"><rect x="34" y="36" width="20" height="20" fill="#fff" mask="url(#satori_om-id)"/><path width="24" height="24" fill="none" stroke="#000" stroke-width="4" d="M32,34 A0,0 0 0 1 32,34 h24 a0,0 0 0 1 0,0 v24 a0,0 0 0 1 0,0 h-24 a0,0 0 0 1 0,0 v-24 A0,0 0 0 1 32,34"/></mask><path width="24" height="24" clip-path="url(#satori_bc-id-1)" fill="none" stroke="#0A0A0A" stroke-width="4" d="M32,34 A0,0 0 0 1 32,34 h24 a0,0 0 0 1 0,0 v24 a0,0 0 0 1 0,0 h-24 a0,0 0 0 1 0,0 v-24 A0,0 0 0 1 32,34"/><mask id="satori_om-id-1-0"><rect x="37" y="41" width="15" height="11" fill="#fff" mask="url(#satori_om-id)"/></mask><text x="37" y="50" width="14.86703125" height="10.5" font-weight="900" font-style="normal" font-size="10" font-family="svglidelabel" letter-spacing="0.08" clip-path="url(#satori_cp-id)" fill="#0A0A0A">RG</text><mask id="satori_om-id-2"><rect x="62" y="42" width="140" height="11" fill="#fff" mask="url(#satori_om-id)"/></mask><text x="62" y="51" width="23.916757812500002" height="10.5" font-weight="900" font-style="normal" font-size="10" font-family="svglidelabel" letter-spacing="0.08" clip-path="url(#satori_cp-id)" fill="#0A0A0A">RAW</text><text x="85.91675781250001" y="51" width="3.595625" height="10.5" font-weight="900" font-style="normal" font-size="10" font-family="svglidelabel" letter-spacing="0.08" clip-path="url(#satori_cp-id)" fill="#0A0A0A"> </text><text x="89.5123828125" y="51" width="26.94109375" height="10.5" font-weight="900" font-style="normal" font-size="10" font-family="svglidelabel" letter-spacing="0.08" clip-path="url(#satori_cp-id)" fill="#0A0A0A">GRID</text><mask id="satori_om-id-3"><rect x="32" y="232" width="390" height="90" fill="#fff" mask="url(#satori_om-id)"/></mask><text x="32" y="274" width="154.6875" height="45.12" font-weight="900" font-style="normal" font-size="48" font-family="svglidedisplay" clip-path="url(#satori_cp-id)" fill="#0A0A0A">CITIES</text><text x="186.6875" y="274" width="13.3359375" height="45.12" font-weight="900" font-style="normal" font-size="48" font-family="svglidedisplay" clip-path="url(#satori_cp-id)" fill="#0A0A0A">.</text><text x="200.0234375" y="274" width="24" height="45.12" font-weight="900" font-style="normal" font-size="48" font-family="svglidedisplay" clip-path="url(#satori_cp-id)" fill="#0A0A0A">
</text><text x="32" y="319" width="256.03125" height="45.12" font-weight="900" font-style="normal" font-size="48" font-family="svglidedisplay" clip-path="url(#satori_cp-id)" fill="#0A0A0A">STARTUPS</text><text x="288.03125" y="319" width="13.3359375" height="45.12" font-weight="900" font-style="normal" font-size="48" font-family="svglidedisplay" clip-path="url(#satori_cp-id)" fill="#0A0A0A">.</text><mask id="satori_om-id-4"><rect x="32" y="491" width="160" height="17" fill="#fff" mask="url(#satori_om-id)"/></mask><rect x="32" y="491" width="160" height="17" fill="#0A0A0A" clip-path="url(#satori_cp-id)" mask="url(#satori_om-id)"/><text x="40" y="502" width="5.070234375" height="7" font-weight="900" font-style="normal" font-size="7" font-family="svglidelabel" letter-spacing="0.08" clip-path="url(#satori_cp-id)" fill="#FFFFFF">→</text><text x="45.070234375" y="502" width="2.5409375" height="7" font-weight="900" font-style="normal" font-size="7" font-family="svglidelabel" letter-spacing="0.08" clip-path="url(#satori_cp-id)" fill="#FFFFFF"> </text><text x="47.611171875000004" y="502" width="38.24107421874999" height="7" font-weight="900" font-style="normal" font-size="7" font-family="svglidelabel" letter-spacing="0.08" clip-path="url(#satori_cp-id)" fill="#FFFFFF">DISCOVER</text><text x="85.85224609375" y="502" width="2.5409375" height="7" font-weight="900" font-style="normal" font-size="7" font-family="svglidelabel" letter-spacing="0.08" clip-path="url(#satori_cp-id)" fill="#FFFFFF"> </text><text x="88.39318359375" y="502" width="12.818125" height="7" font-weight="900" font-style="normal" font-size="7" font-family="svglidelabel" letter-spacing="0.08" clip-path="url(#satori_cp-id)" fill="#FFFFFF">ALL</text><text x="101.21130859375" y="502" width="2.5409375" height="7" font-weight="900" font-style="normal" font-size="7" font-family="svglidelabel" letter-spacing="0.08" clip-path="url(#satori_cp-id)" fill="#FFFFFF"> </text><text x="103.75224609374999" y="502" width="37.83433593749999" height="7" font-weight="900" font-style="normal" font-size="7" font-family="svglidelabel" letter-spacing="0.08" clip-path="url(#satori_cp-id)" fill="#FFFFFF">STARTUPS</text><defs><clipPath id="satori_bc-id-5" clip-path="url(#satori_cp-id)"><rect x="480" y="0" width="480" height="78"/></clipPath></defs><mask id="satori_om-id-5"><rect x="480" y="0" width="480" height="76" fill="#fff" mask="url(#satori_om-id)"/><path width="480" height="78" fill="none" stroke="#000" stroke-width="4" d="M960,78 A0,0 0 0 1 960,78 h-480 A0,0 0 0 1 480,78"/></mask><rect x="480" y="0" width="480" height="78" fill="#FFFFFF" clip-path="url(#satori_cp-id)" mask="url(#satori_om-id)"/><path width="480" height="78" clip-path="url(#satori_bc-id-5)" fill="none" stroke="#0A0A0A" stroke-width="4" d="M960,78 A0,0 0 0 1 960,78 h-480 A0,0 0 0 1 480,78"/><mask id="satori_om-id-5-0"><rect x="524" y="24" width="28" height="29" fill="#fff" mask="url(#satori_om-id)"/></mask><text x="524" y="48" width="15.68359375" height="29.4765625" font-weight="900" font-style="normal" font-size="22" font-family="svglidemetric" clip-path="url(#satori_cp-id)" fill="#0A0A0A">→</text><mask id="satori_om-id-5-1"><rect x="552" y="31" width="124" height="15" fill="#fff" mask="url(#satori_om-id)"/></mask><text x="552" y="44" width="30.84228515625" height="15" font-weight="900" font-style="normal" font-size="15" font-family="svglidebody" clip-path="url(#satori_cp-id)" fill="#0A0A0A">SAN</text><text x="582.84228515625" y="44" width="4.16748046875" height="15" font-weight="900" font-style="normal" font-size="15" font-family="svglidebody" clip-path="url(#satori_cp-id)" fill="#0A0A0A"> </text><text x="587.009765625" y="44" width="88.33740234375" height="15" font-weight="900" font-style="normal" font-size="15" font-family="svglidebody" clip-path="url(#satori_cp-id)" fill="#0A0A0A">FRANCISCO</text><defs><clipPath id="satori_bc-id-6" clip-path="url(#satori_cp-id)"><rect x="480" y="77" width="480" height="78"/></clipPath></defs><mask id="satori_om-id-6"><rect x="480" y="77" width="480" height="76" fill="#fff" mask="url(#satori_om-id)"/><path width="480" height="78" fill="none" stroke="#000" stroke-width="4" d="M960,155 A0,0 0 0 1 960,155 h-480 A0,0 0 0 1 480,155"/></mask><rect x="480" y="77" width="480" height="78" fill="#FFFFFF" clip-path="url(#satori_cp-id)" mask="url(#satori_om-id)"/><path width="480" height="78" clip-path="url(#satori_bc-id-6)" fill="none" stroke="#0A0A0A" stroke-width="4" d="M960,155 A0,0 0 0 1 960,155 h-480 A0,0 0 0 1 480,155"/><mask id="satori_om-id-6-0"><rect x="524" y="101" width="28" height="29" fill="#fff" mask="url(#satori_om-id)"/></mask><text x="524" y="125" width="15.68359375" height="29.4765625" font-weight="900" font-style="normal" font-size="22" font-family="svglidemetric" clip-path="url(#satori_cp-id)" fill="#0A0A0A">→</text><mask id="satori_om-id-6-1"><rect x="552" y="108" width="82" height="15" fill="#fff" mask="url(#satori_om-id)"/></mask><text x="552" y="121" width="34.9951171875" height="15" font-weight="900" font-style="normal" font-size="15" font-family="svglidebody" clip-path="url(#satori_cp-id)" fill="#0A0A0A">NEW</text><text x="586.9951171875" y="121" width="4.16748046875" height="15" font-weight="900" font-style="normal" font-size="15" font-family="svglidebody" clip-path="url(#satori_cp-id)" fill="#0A0A0A"> </text><text x="591.16259765625" y="121" width="42.509765625" height="15" font-weight="900" font-style="normal" font-size="15" font-family="svglidebody" clip-path="url(#satori_cp-id)" fill="#0A0A0A">YORK</text><defs><clipPath id="satori_bc-id-7" clip-path="url(#satori_cp-id)"><rect x="480" y="154" width="480" height="78"/></clipPath></defs><mask id="satori_om-id-7"><rect x="480" y="154" width="480" height="76" fill="#fff" mask="url(#satori_om-id)"/><path width="480" height="78" fill="none" stroke="#000" stroke-width="4" d="M960,232 A0,0 0 0 1 960,232 h-480 A0,0 0 0 1 480,232"/></mask><rect x="480" y="154" width="480" height="78" fill="#E5EDD6" clip-path="url(#satori_cp-id)" mask="url(#satori_om-id)"/><path width="480" height="78" clip-path="url(#satori_bc-id-7)" fill="none" stroke="#0A0A0A" stroke-width="4" d="M960,232 A0,0 0 0 1 960,232 h-480 A0,0 0 0 1 480,232"/><mask id="satori_om-id-7-0"><rect x="524" y="178" width="28" height="29" fill="#fff" mask="url(#satori_om-id)"/></mask><text x="524" y="202" width="15.68359375" height="29.4765625" font-weight="900" font-style="normal" font-size="22" font-family="svglidemetric" clip-path="url(#satori_cp-id)" fill="#0A0A0A">→</text><mask id="satori_om-id-7-1"><rect x="552" y="185" width="89" height="15" fill="#fff" mask="url(#satori_om-id)"/></mask><text x="552" y="198" width="88.33740234375" height="15" font-weight="900" font-style="normal" font-size="15" font-family="svglidebody" clip-path="url(#satori_cp-id)" fill="#0A0A0A">CUPERTINO</text><defs><clipPath id="satori_bc-id-8" clip-path="url(#satori_cp-id)"><rect x="480" y="231" width="480" height="78"/></clipPath></defs><mask id="satori_om-id-8"><rect x="480" y="231" width="480" height="76" fill="#fff" mask="url(#satori_om-id)"/><path width="480" height="78" fill="none" stroke="#000" stroke-width="4" d="M960,309 A0,0 0 0 1 960,309 h-480 A0,0 0 0 1 480,309"/></mask><rect x="480" y="231" width="480" height="78" fill="#FFFFFF" clip-path="url(#satori_cp-id)" mask="url(#satori_om-id)"/><path width="480" height="78" clip-path="url(#satori_bc-id-8)" fill="none" stroke="#0A0A0A" stroke-width="4" d="M960,309 A0,0 0 0 1 960,309 h-480 A0,0 0 0 1 480,309"/><mask id="satori_om-id-8-0"><rect x="524" y="255" width="28" height="29" fill="#fff" mask="url(#satori_om-id)"/></mask><text x="524" y="279" width="15.68359375" height="29.4765625" font-weight="900" font-style="normal" font-size="22" font-family="svglidemetric" clip-path="url(#satori_cp-id)" fill="#0A0A0A">→</text><mask id="satori_om-id-8-1"><rect x="552" y="262" width="99" height="15" fill="#fff" mask="url(#satori_om-id)"/></mask><text x="552" y="275" width="53.34228515625" height="15" font-weight="900" font-style="normal" font-size="15" font-family="svglidebody" clip-path="url(#satori_cp-id)" fill="#0A0A0A">MENLO</text><text x="605.34228515625" y="275" width="4.16748046875" height="15" font-weight="900" font-style="normal" font-size="15" font-family="svglidebody" clip-path="url(#satori_cp-id)" fill="#0A0A0A"> </text><text x="609.509765625" y="275" width="40.84716796875" height="15" font-weight="900" font-style="normal" font-size="15" font-family="svglidebody" clip-path="url(#satori_cp-id)" fill="#0A0A0A">PARK</text><defs><clipPath id="satori_bc-id-9" clip-path="url(#satori_cp-id)"><rect x="480" y="308" width="480" height="78"/></clipPath></defs><mask id="satori_om-id-9"><rect x="480" y="308" width="480" height="76" fill="#fff" mask="url(#satori_om-id)"/><path width="480" height="78" fill="none" stroke="#000" stroke-width="4" d="M960,386 A0,0 0 0 1 960,386 h-480 A0,0 0 0 1 480,386"/></mask><rect x="480" y="308" width="480" height="78" fill="#FFFFFF" clip-path="url(#satori_cp-id)" mask="url(#satori_om-id)"/><path width="480" height="78" clip-path="url(#satori_bc-id-9)" fill="none" stroke="#0A0A0A" stroke-width="4" d="M960,386 A0,0 0 0 1 960,386 h-480 A0,0 0 0 1 480,386"/><mask id="satori_om-id-9-0"><rect x="524" y="332" width="28" height="29" fill="#fff" mask="url(#satori_om-id)"/></mask><text x="524" y="356" width="15.68359375" height="29.4765625" font-weight="900" font-style="normal" font-size="22" font-family="svglidemetric" clip-path="url(#satori_cp-id)" fill="#0A0A0A">→</text><mask id="satori_om-id-9-1"><rect x="552" y="339" width="105" height="15" fill="#fff" mask="url(#satori_om-id)"/></mask><text x="552" y="352" width="50.009765625" height="15" font-weight="900" font-style="normal" font-size="15" font-family="svglidebody" clip-path="url(#satori_cp-id)" fill="#0A0A0A">SANTA</text><text x="602.009765625" y="352" width="4.16748046875" height="15" font-weight="900" font-style="normal" font-size="15" font-family="svglidebody" clip-path="url(#satori_cp-id)" fill="#0A0A0A"> </text><text x="606.17724609375" y="352" width="50.01708984375" height="15" font-weight="900" font-style="normal" font-size="15" font-family="svglidebody" clip-path="url(#satori_cp-id)" fill="#0A0A0A">CLARA</text><defs><clipPath id="satori_bc-id-10" clip-path="url(#satori_cp-id)"><rect x="480" y="385" width="480" height="78"/></clipPath></defs><mask id="satori_om-id-10"><rect x="480" y="385" width="480" height="76" fill="#fff" mask="url(#satori_om-id)"/><path width="480" height="78" fill="none" stroke="#000" stroke-width="4" d="M960,463 A0,0 0 0 1 960,463 h-480 A0,0 0 0 1 480,463"/></mask><rect x="480" y="385" width="480" height="78" fill="#FFFFFF" clip-path="url(#satori_cp-id)" mask="url(#satori_om-id)"/><path width="480" height="78" clip-path="url(#satori_bc-id-10)" fill="none" stroke="#0A0A0A" stroke-width="4" d="M960,463 A0,0 0 0 1 960,463 h-480 A0,0 0 0 1 480,463"/><mask id="satori_om-id-10-0"><rect x="524" y="409" width="28" height="29" fill="#fff" mask="url(#satori_om-id)"/></mask><text x="524" y="433" width="15.68359375" height="29.4765625" font-weight="900" font-style="normal" font-size="22" font-family="svglidemetric" clip-path="url(#satori_cp-id)" fill="#0A0A0A">→</text><mask id="satori_om-id-10-1"><rect x="552" y="416" width="123" height="15" fill="#fff" mask="url(#satori_om-id)"/></mask><text x="552" y="429" width="79.9951171875" height="15" font-weight="900" font-style="normal" font-size="15" font-family="svglidebody" clip-path="url(#satori_cp-id)" fill="#0A0A0A">MOUNTAIN</text><text x="631.9951171875" y="429" width="4.16748046875" height="15" font-weight="900" font-style="normal" font-size="15" font-family="svglidebody" clip-path="url(#satori_cp-id)" fill="#0A0A0A"> </text><text x="636.16259765625" y="429" width="38.3349609375" height="15" font-weight="900" font-style="normal" font-size="15" font-family="svglidebody" clip-path="url(#satori_cp-id)" fill="#0A0A0A">VIEW</text><defs><clipPath id="satori_bc-id-11" clip-path="url(#satori_cp-id)"><rect x="480" y="462" width="480" height="78"/></clipPath></defs><mask id="satori_om-id-11"><rect x="480" y="462" width="480" height="76" fill="#fff" mask="url(#satori_om-id)"/><path width="480" height="78" fill="none" stroke="#000" stroke-width="4" d="M960,540 A0,0 0 0 1 960,540 h-480 A0,0 0 0 1 480,540"/></mask><rect x="480" y="462" width="480" height="78" fill="#FFFFFF" clip-path="url(#satori_cp-id)" mask="url(#satori_om-id)"/><path width="480" height="78" clip-path="url(#satori_bc-id-11)" fill="none" stroke="#0A0A0A" stroke-width="4" d="M960,540 A0,0 0 0 1 960,540 h-480 A0,0 0 0 1 480,540"/><mask id="satori_om-id-11-0"><rect x="524" y="486" width="28" height="29" fill="#fff" mask="url(#satori_om-id)"/></mask><text x="524" y="510" width="15.68359375" height="29.4765625" font-weight="900" font-style="normal" font-size="22" font-family="svglidemetric" clip-path="url(#satori_cp-id)" fill="#0A0A0A">→</text><mask id="satori_om-id-11-1"><rect x="552" y="493" width="91" height="15" fill="#fff" mask="url(#satori_om-id)"/></mask><text x="552" y="506" width="90.8642578125" height="15" font-weight="900" font-style="normal" font-size="15" font-family="svglidebody" clip-path="url(#satori_cp-id)" fill="#0A0A0A">SUNNYVALE</text></svg>