<svg width="960" height="540" viewBox="0 0 960 540" xmlns="http://www.w3.org/2000/svg"><clipPath id="satori_cp-id"><rect x="0" y="0" width="960" height="540"/></clipPath><mask id="satori_om-id"><rect x="0" y="0" width="960" height="540" fill="#fff"/></mask><rect x="0" y="0" width="960" height="540" fill="#F4F4EE"/><mask id="satori_om-id-0"><rect x="0" y="0" width="330" height="540" fill="#fff" mask="url(#satori_om-id)"/></mask><rect x="0" y="0" width="330" height="540" fill="#EEEEEA" clip-path="url(#satori_cp-id)" mask="url(#satori_om-id)"/><mask id="satori_om-id-1"><rect x="700" y="0" width="260" height="540" fill="#fff" mask="url(#satori_om-id)"/></mask><rect x="700" y="0" width="260" height="540" fill="#EEF2DE" clip-path="url(#satori_cp-id)" mask="url(#satori_om-id)"/><mask id="satori_om-id-2"><rect x="190" y="350" width="420" height="190" fill="#fff" mask="url(#satori_om-id)"/></mask><rect x="190" y="350" width="420" height="190" fill="#EFEFDF" clip-path="url(#satori_cp-id)" mask="url(#satori_om-id)"/><defs><clipPath id="satori_bc-id-3" clip-path="url(#satori_cp-id)"><path x="78" y="67" width="98" height="34" d="M95,67 h64 a17,17 0 0 1 17,17 v0 a17,17 0 0 1 -17,17 h-64 a17,17 0 0 1 -17,-17 v0 a17,17 0 0 1 17,-17"/></clipPath></defs><mask id="satori_om-id-3"><rect x="80" y="69" width="94" height="30" fill="#fff" mask="url(#satori_om-id)"/><path width="98" height="34" transform="matrix(0.98,-0.21,0.21,0.98,-14.69,28.24)" fill="none" stroke="#000" stroke-width="4" d="M82.979,71.979 A17,17 0 0 1 95,67 h64 a17,17 0 0 1 17,17 v0 a17,17 0 0 1 -17,17 h-64 a17,17 0 0 1 -17,-17 v0 A17,17 0 0 1 82.979,71.979"/></mask><g clip-path="url(#satori_cp-id)" mask="url(#satori_om-id)"><path x="78" y="67" width="98" height="34" fill="#E85D4E" d="M95,67 h64 a17,17 0 0 1 17,17 v0 a17,17 0 0 1 -17,17 h-64 a17,17 0 0 1 -17,-17 v0 a17,17 0 0 1 17,-17" transform="matrix(0.98,-0.21,0.21,0.98,-14.69,28.24)"/><path width="98" height="34" transform="matrix(0.98,-0.21,0.21,0.98,-14.69,28.24)" clip-path="url(#satori_bc-id-3)" fill="none" stroke="#1A1A1A" stroke-width="4" d="M82.979,71.979 A17,17 0 0 1 95,67 h64 a17,17 0 0 1 17,17 v0 a17,17 0 0 1 -17,17 h-64 a17,17 0 0 1 -17,-17 v0 A17,17 0 0 1 82.979,71.979"/></g><mask id="satori_om-id-3-0"><rect x="98" y="78" width="58" height="13" fill="#fff" mask="url(#satori_om-id)"/></mask><g clip-path="url(#satori_cp-id)" mask="url(#satori_om-id)"></g><text x="98" y="89" width="57.958437499999995" height="12.600000000000001" font-weight="900" font-style="normal" font-size="12" font-family="svglidelabel" letter-spacing="0.08" transform="matrix(0.98,-0.21,0.21,0.98,-14.69,28.24)" clip-path="url(#satori_cp-id)" fill="#1A1A1A">CONCEPT</text><defs><clipPath id="satori_bc-id-4" clip-path="url(#satori_cp-id)"><path x="432" y="82" width="84" height="44" d="M454,82 h40 a22,22 0 0 1 22,22 v0 a22,22 0 0 1 -22,22 h-40 a22,22 0 0 1 -22,-22 v0 a22,22 0 0 1 22,-22"/></clipPath></defs><mask id="satori_om-id-4"><rect x="434" y="84" width="80" height="40" fill="#fff" mask="url(#satori_om-id)"/><path width="84" height="44" transform="matrix(1.00,0.00,0.00,1.00,0.00,0.00)" fill="none" stroke="#000" stroke-width="4" d="M438.444,88.444 A22,22 0 0 1 454,82 h40 a22,22 0 0 1 22,22 v0 a22,22 0 0 1 -22,22 h-40 a22,22 0 0 1 -22,-22 v0 A22,22 0 0 1 438.444,88.444"/></mask><g clip-path="url(#satori_cp-id)" mask="url(#satori_om-id)"><path x="432" y="82" width="84" height="44" fill="#F0B894" d="M454,82 h40 a22,22 0 0 1 22,22 v0 a22,22 0 0 1 -22,22 h-40 a22,22 0 0 1 -22,-22 v0 a22,22 0 0 1 22,-22" transform="matrix(1.00,0.00,0.00,1.00,0.00,0.00)"/><path width="84" height="44" transform="matrix(1.00,0.00,0.00,1.00,0.00,0.00)" clip-path="url(#satori_bc-id-4)" fill="none" stroke="#1A1A1A" stroke-width="4" d="M438.444,88.444 A22,22 0 0 1 454,82 h40 a22,22 0 0 1 22,22 v0 a22,22 0 0 1 -22,22 h-40 a22,22 0 0 1 -22,-22 v0 A22,22 0 0 1 438.444,88.444"/></g><mask id="satori_om-id-4-0"><rect x="434" y="91" width="80" height="26" fill="#fff" mask="url(#satori_om-id)"/></mask><g clip-path="url(#satori_cp-id)" mask="url(#satori_om-id)"></g><text x="462.0938671875" y="102" width="23.812265625000002" height="12.600000000000001" font-weight="900" font-style="normal" font-size="12" font-family="svglidelabel" letter-spacing="0.08" transform="matrix(1.00,0.00,0.00,1.00,0.00,0.00)" clip-path="url(#satori_cp-id)" fill="#1A1A1A">12K</text><text x="485.9061328125" y="102" width="4.29875" height="12.600000000000001" font-weight="900" font-style="normal" font-size="12" font-family="svglidelabel" letter-spacing="0.08" transform="matrix(1.00,0.00,0.00,1.00,0.00,0.00)" clip-path="url(#satori_cp-id)" fill="#1A1A1A"> </text><text x="443.7591015625" y="115" width="60.48179687499999" height="12.600000000000001" font-weight="900" font-style="normal" font-size="12" font-family="svglidelabel" letter-spacing="0.08" transform="matrix(1.00,0.00,0.00,1.00,0.00,0.00)" clip-path="url(#satori_cp-id)" fill="#1A1A1A">WAITLIST</text><defs><clipPath id="satori_bc-id-5" clip-path="url(#satori_cp-id)"><path x="769" y="100" width="105" height="34" d="M786,100 h71 a17,17 0 0 1 17,17 v0 a17,17 0 0 1 -17,17 h-71 a17,17 0 0 1 -17,-17 v0 a17,17 0 0 1 17,-17"/></clipPath></defs><mask id="satori_om-id-5"><rect x="771" y="102" width="101" height="30" fill="#fff" mask="url(#satori_om-id)"/><path width="105" height="34" transform="matrix(0.99,0.14,-0.14,0.99,24.28,-113.19)" fill="none" stroke="#000" stroke-width="4" d="M773.979,104.979 A17,17 0 0 1 786,100 h71 a17,17 0 0 1 17,17 v0 a17,17 0 0 1 -17,17 h-71 a17,17 0 0 1 -17,-17 v0 A17,17 0 0 1 773.979,104.979"/></mask><g clip-path="url(#satori_cp-id)" mask="url(#satori_om-id)"><path x="769" y="100" width="105" height="34" fill="#CDB9E9" d="M786,100 h71 a17,17 0 0 1 17,17 v0 a17,17 0 0 1 -17,17 h-71 a17,17 0 0 1 -17,-17 v0 a17,17 0 0 1 17,-17" transform="matrix(0.99,0.14,-0.14,0.99,24.28,-113.19)"/><path width="105" height="34" transform="matrix(0.99,0.14,-0.14,0.99,24.28,-113.19)" clip-path="url(#satori_bc-id-5)" fill="none" stroke="#1A1A1A" stroke-width="4" d="M773.979,104.979 A17,17 0 0 1 786,100 h71 a17,17 0 0 1 17,17 v0 a17,17 0 0 1 -17,17 h-71 a17,17 0 0 1 -17,-17 v0 A17,17 0 0 1 773.979,104.979"/></g><mask id="satori_om-id-5-0"><rect x="789" y="111" width="65" height="13" fill="#fff" mask="url(#satori_om-id)"/></mask><g clip-path="url(#satori_cp-id)" mask="url(#satori_om-id)"></g><text x="789" y="122" width="64.454453125" height="12.600000000000001" font-weight="900" font-style="normal" font-size="12" font-family="svglidelabel" letter-spacing="0.08" transform="matrix(0.99,0.14,-0.14,0.99,24.28,-113.19)" clip-path="url(#satori_cp-id)" fill="#1A1A1A">STRATEGY</text><defs><clipPath id="satori_bc-id-6" clip-path="url(#satori_cp-id)"><path x="144" y="378" width="86" height="34" d="M161,378 h52 a17,17 0 0 1 17,17 v0 a17,17 0 0 1 -17,17 h-52 a17,17 0 0 1 -17,-17 v0 a17,17 0 0 1 17,-17"/></clipPath></defs><mask id="satori_om-id-6"><rect x="146" y="380" width="82" height="30" fill="#fff" mask="url(#satori_om-id)"/><path width="86" height="34" transform="matrix(0.99,0.12,-0.12,0.99,49.53,-19.85)" fill="none" stroke="#000" stroke-width="4" d="M148.97899999999998,382.979 A17,17 0 0 1 161,378 h52 a17,17 0 0 1 17,17 v0 a17,17 0 0 1 -17,17 h-52 a17,17 0 0 1 -17,-17 v0 A17,17 0 0 1 148.97899999999998,382.979"/></mask><g clip-path="url(#satori_cp-id)" mask="url(#satori_om-id)"><path x="144" y="378" width="86" height="34" fill="#8DB7F2" d="M161,378 h52 a17,17 0 0 1 17,17 v0 a17,17 0 0 1 -17,17 h-52 a17,17 0 0 1 -17,-17 v0 a17,17 0 0 1 17,-17" transform="matrix(0.99,0.12,-0.12,0.99,49.53,-19.85)"/><path width="86" height="34" transform="matrix(0.99,0.12,-0.12,0.99,49.53,-19.85)" clip-path="url(#satori_bc-id-6)" fill="none" stroke="#1A1A1A" stroke-width="4" d="M148.97899999999998,382.979 A17,17 0 0 1 161,378 h52 a17,17 0 0 1 17,17 v0 a17,17 0 0 1 -17,17 h-52 a17,17 0 0 1 -17,-17 v0 A17,17 0 0 1 148.97899999999998,382.979"/></g><mask id="satori_om-id-6-0"><rect x="164" y="389" width="46" height="13" fill="#fff" mask="url(#satori_om-id)"/></mask><g clip-path="url(#satori_cp-id)" mask="url(#satori_om-id)"></g><text x="164" y="400" width="45.4096875" height="12.600000000000001" font-weight="900" font-style="normal" font-size="12" font-family="svglidelabel" letter-spacing="0.08" transform="matrix(0.99,0.12,-0.12,0.99,49.53,-19.85)" clip-path="url(#satori_cp-id)" fill="#1A1A1A">VISION</text><defs><clipPath id="satori_bc-id-7" clip-path="url(#satori_cp-id)"><path x="48" y="406" width="84" height="44" d="M70,406 h40 a22,22 0 0 1 22,22 v0 a22,22 0 0 1 -22,22 h-40 a22,22 0 0 1 -22,-22 v0 a22,22 0 0 1 22,-22"/></clipPath></defs><mask id="satori_om-id-7"><rect x="50" y="408" width="80" height="40" fill="#fff" mask="url(#satori_om-id)"/><path width="84" height="44" fill="none" stroke="#000" stroke-width="4" d="M54.444,412.444 A22,22 0 0 1 70,406 h40 a22,22 0 0 1 22,22 v0 a22,22 0 0 1 -22,22 h-40 a22,22 0 0 1 -22,-22 v0 A22,22 0 0 1 54.444,412.444"/></mask><path x="48" y="406" width="84" height="44" fill="#9E67E8" d="M70,406 h40 a22,22 0 0 1 22,22 v0 a22,22 0 0 1 -22,22 h-40 a22,22 0 0 1 -22,-22 v0 a22,22 0 0 1 22,-22" clip-path="url(#satori_cp-id)" mask="url(#satori_om-id)"/><path width="84" height="44" clip-path="url(#satori_bc-id-7)" fill="none" stroke="#1A1A1A" stroke-width="4" d="M54.444,412.444 A22,22 0 0 1 70,406 h40 a22,22 0 0 1 22,22 v0 a22,22 0 0 1 -22,22 h-40 a22,22 0 0 1 -22,-22 v0 A22,22 0 0 1 54.444,412.444"/><mask id="satori_om-id-7-0"><rect x="74" y="422" width="33" height="13" fill="#fff" mask="url(#satori_om-id)"/></mask><text x="74" y="433" width="32.4996875" height="12.600000000000001" font-weight="900" font-style="normal" font-size="12" font-family="svglidelabel" letter-spacing="0.08" clip-path="url(#satori_cp-id)" fill="#1A1A1A">NEXT</text><defs><clipPath id="satori_bc-id-8" clip-path="url(#satori_cp-id)"><path x="697" y="426" width="89" height="34" d="M714,426 h55 a17,17 0 0 1 17,17 v0 a17,17 0 0 1 -17,17 h-55 a17,17 0 0 1 -17,-17 v0 a17,17 0 0 1 17,-17"/></clipPath></defs><mask id="satori_om-id-8"><rect x="699" y="428" width="85" height="30" fill="#fff" mask="url(#satori_om-id)"/><path width="89" height="34" transform="matrix(0.99,-0.16,0.16,0.99,-60.17,121.45)" fill="none" stroke="#000" stroke-width="4" d="M701.979,430.979 A17,17 0 0 1 714,426 h55 a17,17 0 0 1 17,17 v0 a17,17 0 0 1 -17,17 h-55 a17,17 0 0 1 -17,-17 v0 A17,17 0 0 1 701.979,430.979"/></mask><g clip-path="url(#satori_cp-id)" mask="url(#satori_om-id)"><path x="697" y="426" width="89" height="34" fill="#C4D94E" d="M714,426 h55 a17,17 0 0 1 17,17 v0 a17,17 0 0 1 -17,17 h-55 a17,17 0 0 1 -17,-17 v0 a17,17 0 0 1 17,-17" transform="matrix(0.99,-0.16,0.16,0.99,-60.17,121.45)"/><path width="89" height="34" transform="matrix(0.99,-0.16,0.16,0.99,-60.17,121.45)" clip-path="url(#satori_bc-id-8)" fill="none" stroke="#1A1A1A" stroke-width="4" d="M701.979,430.979 A17,17 0 0 1 714,426 h55 a17,17 0 0 1 17,17 v0 a17,17 0 0 1 -17,17 h-55 a17,17 0 0 1 -17,-17 v0 A17,17 0 0 1 701.979,430.979"/></g><mask id="satori_om-id-8-0"><rect x="717" y="437" width="49" height="13" fill="#fff" mask="url(#satori_om-id)"/></mask><g clip-path="url(#satori_cp-id)" mask="url(#satori_om-id)"></g><text x="717" y="448" width="48.2690625" height="12.600000000000001" font-weight="900" font-style="normal" font-size="12" font-family="svglidelabel" letter-spacing="0.08" transform="matrix(0.99,-0.16,0.16,0.99,-60.17,121.45)" clip-path="url(#satori_cp-id)" fill="#1A1A1A">FUTURE</text><defs><clipPath id="satori_bc-id-9" clip-path="url(#satori_cp-id)"><path x="793" y="354" width="89" height="34" d="M810,354 h55 a17,17 0 0 1 17,17 v0 a17,17 0 0 1 -17,17 h-55 a17,17 0 0 1 -17,-17 v0 a17,17 0 0 1 17,-17"/></clipPath></defs><mask id="satori_om-id-9"><rect x="795" y="356" width="85" height="30" fill="#fff" mask="url(#satori_om-id)"/><path width="89" height="34" transform="matrix(0.97,0.24,-0.24,0.97,114.63,-191.59)" fill="none" stroke="#000" stroke-width="4" d="M797.979,358.979 A17,17 0 0 1 810,354 h55 a17,17 0 0 1 17,17 v0 a17,17 0 0 1 -17,17 h-55 a17,17 0 0 1 -17,-17 v0 A17,17 0 0 1 797.979,358.979"/></mask><g clip-path="url(#satori_cp-id)" mask="url(#satori_om-id)"><path x="793" y="354" width="89" height="34" fill="transparent" d="M810,354 h55 a17,17 0 0 1 17,17 v0 a17,17 0 0 1 -17,17 h-55 a17,17 0 0 1 -17,-17 v0 a17,17 0 0 1 17,-17" transform="matrix(0.97,0.24,-0.24,0.97,114.63,-191.59)"/><path width="89" height="34" transform="matrix(0.97,0.24,-0.24,0.97,114.63,-191.59)" clip-path="url(#satori_bc-id-9)" fill="none" stroke="#77736D" stroke-width="4" d="M797.979,358.979 A17,17 0 0 1 810,354 h55 a17,17 0 0 1 17,17 v0 a17,17 0 0 1 -17,17 h-55 a17,17 0 0 1 -17,-17 v0 A17,17 0 0 1 797.979,358.979"/></g><mask id="satori_om-id-9-0"><rect x="813" y="365" width="49" height="13" fill="#fff" mask="url(#satori_om-id)"/></mask><g clip-path="url(#satori_cp-id)" mask="url(#satori_om-id)"></g><text x="813" y="376" width="48.849140625" height="12.600000000000001" font-weight="900" font-style="normal" font-size="12" font-family="svglidelabel" letter-spacing="0.08" transform="matrix(0.97,0.24,-0.24,0.97,114.63,-191.59)" clip-path="url(#satori_cp-id)" fill="#1A1A1A">DESIGN</text><mask id="satori_om-id-10"><rect x="920" y="220" width="6" height="6" fill="#fff" mask="url(#satori_om-id)"/></mask><path x="920" y="220" width="6" height="6" fill="#1A1A1A" d="M923,220 h0 a3,3 0 0 1 3,3 v0 a3,3 0 0 1 -3,3 h0 a3,3 0 0 1 -3,-3 v0 a3,3 0 0 1 3,-3" clip-path="url(#satori_cp-id)" mask="url(#satori_om-id)"/><defs><clipPath id="satori_bc-id-11" clip-path="url(#satori_cp-id)"><path x="920" y="231" width="6" height="6" d="M923,231 h0 a3,3 0 0 1 3,3 v0 a3,3 0 0 1 -3,3 h0 a3,3 0 0 1 -3,-3 v0 a3,3 0 0 1 3,-3"/></clipPath></defs><mask id="satori_om-id-11"><rect x="921.5" y="232.5" width="3" height="3" fill="#fff" mask="url(#satori_om-id)"/><path width="6" height="6" fill="none" stroke="#000" stroke-width="3" d="M920.879,231.879 A3,3 0 0 1 923,231 h0 a3,3 0 0 1 3,3 v0 a3,3 0 0 1 -3,3 h0 a3,3 0 0 1 -3,-3 v0 A3,3 0 0 1 920.879,231.879"/></mask><path x="920" y="231" width="6" height="6" fill="transparent" d="M923,231 h0 a3,3 0 0 1 3,3 v0 a3,3 0 0 1 -3,3 h0 a3,3 0 0 1 -3,-3 v0 a3,3 0 0 1 3,-3" clip-path="url(#satori_cp-id)" mask="url(#satori_om-id)"/><path width="6" height="6" clip-path="url(#satori_bc-id-11)" fill="none" stroke="#1A1A1A" stroke-width="3" d="M920.879,231.879 A3,3 0 0 1 923,231 h0 a3,3 0 0 1 3,3 v0 a3,3 0 0 1 -3,3 h0 a3,3 0 0 1 -3,-3 v0 A3,3 0 0 1 920.879,231.879"/><defs><clipPath id="satori_bc-id-12" clip-path="url(#satori_cp-id)"><path x="920" y="242" width="6" height="6" d="M923,242 h0 a3,3 0 0 1 3,3 v0 a3,3 0 0 1 -3,3 h0 a3,3 0 0 1 -3,-3 v0 a3,3 0 0 1 3,-3"/></clipPath></defs><mask id="satori_om-id-12"><rect x="921.5" y="243.5" width="3" height="3" fill="#fff" mask="url(#satori_om-id)"/><path width="6" height="6" fill="none" stroke="#000" stroke-width="3" d="M920.879,242.879 A3,3 0 0 1 923,242 h0 a3,3 0 0 1 3,3 v0 a3,3 0 0 1 -3,3 h0 a3,3 0 0 1 -3,-3 v0 A3,3 0 0 1 920.879,242.879"/></mask><path x="920" y="242" width="6" height="6" fill="transparent" d="M923,242 h0 a3,3 0 0 1 3,3 v0 a3,3 0 0 1 -3,3 h0 a3,3 0 0 1 -3,-3 v0 a3,3 0 0 1 3,-3" clip-path="url(#satori_cp-id)" mask="url(#satori_om-id)"/><path width="6" height="6" clip-path="url(#satori_bc-id-12)" fill="none" stroke="#1A1A1A" stroke-width="3" d="M920.879,242.879 A3,3 0 0 1 923,242 h0 a3,3 0 0 1 3,3 v0 a3,3 0 0 1 -3,3 h0 a3,3 0 0 1 -3,-3 v0 A3,3 0 0 1 920.879,242.879"/><defs><clipPath id="satori_bc-id-13" clip-path="url(#satori_cp-id)"><path x="920" y="253" width="6" height="6" d="M923,253 h0 a3,3 0 0 1 3,3 v0 a3,3 0 0 1 -3,3 h0 a3,3 0 0 1 -3,-3 v0 a3,3 0 0 1 3,-3"/></clipPath></defs><mask id="satori_om-id-13"><rect x="921.5" y="254.5" width="3" height="3" fill="#fff" mask="url(#satori_om-id)"/><path width="6" height="6" fill="none" stroke="#000" stroke-width="3" d="M920.879,253.879 A3,3 0 0 1 923,253 h0 a3,3 0 0 1 3,3 v0 a3,3 0 0 1 -3,3 h0 a3,3 0 0 1 -3,-3 v0 A3,3 0 0 1 920.879,253.879"/></mask><path x="920" y="253" width="6" height="6" fill="transparent" d="M923,253 h0 a3,3 0 0 1 3,3 v0 a3,3 0 0 1 -3,3 h0 a3,3 0 0 1 -3,-3 v0 a3,3 0 0 1 3,-3" clip-path="url(#satori_cp-id)" mask="url(#satori_om-id)"/><path width="6" height="6" clip-path="url(#satori_bc-id-13)" fill="none" stroke="#1A1A1A" stroke-width="3" d="M920.879,253.879 A3,3 0 0 1 923,253 h0 a3,3 0 0 1 3,3 v0 a3,3 0 0 1 -3,3 h0 a3,3 0 0 1 -3,-3 v0 A3,3 0 0 1 920.879,253.879"/><defs><clipPath id="satori_bc-id-14" clip-path="url(#satori_cp-id)"><path x="920" y="264" width="6" height="6" d="M923,264 h0 a3,3 0 0 1 3,3 v0 a3,3 0 0 1 -3,3 h0 a3,3 0 0 1 -3,-3 v0 a3,3 0 0 1 3,-3"/></clipPath></defs><mask id="satori_om-id-14"><rect x="921.5" y="265.5" width="3" height="3" fill="#fff" mask="url(#satori_om-id)"/><path width="6" height="6" fill="none" stroke="#000" stroke-width="3" d="M920.879,264.879 A3,3 0 0 1 923,264 h0 a3,3 0 0 1 3,3 v0 a3,3 0 0 1 -3,3 h0 a3,3 0 0 1 -3,-3 v0 A3,3 0 0 1 920.879,264.879"/></mask><path x="920" y="264" width="6" height="6" fill="transparent" d="M923,264 h0 a3,3 0 0 1 3,3 v0 a3,3 0 0 1 -3,3 h0 a3,3 0 0 1 -3,-3 v0 a3,3 0 0 1 3,-3" clip-path="url(#satori_cp-id)" mask="url(#satori_om-id)"/><path width="6" height="6" clip-path="url(#satori_bc-id-14)" fill="none" stroke="#1A1A1A" stroke-width="3" d="M920.879,264.879 A3,3 0 0 1 923,264 h0 a3,3 0 0 1 3,3 v0 a3,3 0 0 1 -3,3 h0 a3,3 0 0 1 -3,-3 v0 A3,3 0 0 1 920.879,264.879"/><defs><clipPath id="satori_bc-id-15" clip-path="url(#satori_cp-id)"><path x="920" y="275" width="6" height="6" d="M923,275 h0 a3,3 0 0 1 3,3 v0 a3,3 0 0 1 -3,3 h0 a3,3 0 0 1 -3,-3 v0 a3,3 0 0 1 3,-3"/></clipPath></defs><mask id="satori_om-id-15"><rect x="921.5" y="276.5" width="3" height="3" fill="#fff" mask="url(#satori_om-id)"/><path width="6" height="6" fill="none" stroke="#000" stroke-width="3" d="M920.879,275.879 A3,3 0 0 1 923,275 h0 a3,3 0 0 1 3,3 v0 a3,3 0 0 1 -3,3 h0 a3,3 0 0 1 -3,-3 v0 A3,3 0 0 1 920.879,275.879"/></mask><path x="920" y="275" width="6" height="6" fill="transparent" d="M923,275 h0 a3,3 0 0 1 3,3 v0 a3,3 0 0 1 -3,3 h0 a3,3 0 0 1 -3,-3 v0 a3,3 0 0 1 3,-3" clip-path="url(#satori_cp-id)" mask="url(#satori_om-id)"/><path width="6" height="6" clip-path="url(#satori_bc-id-15)" fill="none" stroke="#1A1A1A" stroke-width="3" d="M920.879,275.879 A3,3 0 0 1 923,275 h0 a3,3 0 0 1 3,3 v0 a3,3 0 0 1 -3,3 h0 a3,3 0 0 1 -3,-3 v0 A3,3 0 0 1 920.879,275.879"/><defs><clipPath id="satori_bc-id-16" clip-path="url(#satori_cp-id)"><path x="920" y="286" width="6" height="6" d="M923,286 h0 a3,3 0 0 1 3,3 v0 a3,3 0 0 1 -3,3 h0 a3,3 0 0 1 -3,-3 v0 a3,3 0 0 1 3,-3"/></clipPath></defs><mask id="satori_om-id-16"><rect x="921.5" y="287.5" width="3" height="3" fill="#fff" mask="url(#satori_om-id)"/><path width="6" height="6" fill="none" stroke="#000" stroke-width="3" d="M920.879,286.879 A3,3 0 0 1 923,286 h0 a3,3 0 0 1 3,3 v0 a3,3 0 0 1 -3,3 h0 a3,3 0 0 1 -3,-3 v0 A3,3 0 0 1 920.879,286.879"/></mask><path x="920" y="286" width="6" height="6" fill="transparent" d="M923,286 h0 a3,3 0 0 1 3,3 v0 a3,3 0 0 1 -3,3 h0 a3,3 0 0 1 -3,-3 v0 a3,3 0 0 1 3,-3" clip-path="url(#satori_cp-id)" mask="url(#satori_om-id)"/><path width="6" height="6" clip-path="url(#satori_bc-id-16)" fill="none" stroke="#1A1A1A" stroke-width="3" d="M920.879,286.879 A3,3 0 0 1 923,286 h0 a3,3 0 0 1 3,3 v0 a3,3 0 0 1 -3,3 h0 a3,3 0 0 1 -3,-3 v0 A3,3 0 0 1 920.879,286.879"/><defs><clipPath id="satori_bc-id-17" clip-path="url(#satori_cp-id)"><path x="920" y="297" width="6" height="6" d="M923,297 h0 a3,3 0 0 1 3,3 v0 a3,3 0 0 1 -3,3 h0 a3,3 0 0 1 -3,-3 v0 a3,3 0 0 1 3,-3"/></clipPath></defs><mask id="satori_om-id-17"><rect x="921.5" y="298.5" width="3" height="3" fill="#fff" mask="url(#satori_om-id)"/><path width="6" height="6" fill="none" stroke="#000" stroke-width="3" d="M920.879,297.879 A3,3 0 0 1 923,297 h0 a3,3 0 0 1 3,3 v0 a3,3 0 0 1 -3,3 h0 a3,3 0 0 1 -3,-3 v0 A3,3 0 0 1 920.879,297.879"/></mask><path x="920" y="297" width="6" height="6" fill="transparent" d="M923,297 h0 a3,3 0 0 1 3,3 v0 a3,3 0 0 1 -3,3 h0 a3,3 0 0 1 -3,-3 v0 a3,3 0 0 1 3,-3" clip-path="url(#satori_cp-id)" mask="url(#satori_om-id)"/><path width="6" height="6" clip-path="url(#satori_bc-id-17)" fill="none" stroke="#1A1A1A" stroke-width="3" d="M920.879,297.879 A3,3 0 0 1 923,297 h0 a3,3 0 0 1 3,3 v0 a3,3 0 0 1 -3,3 h0 a3,3 0 0 1 -3,-3 v0 A3,3 0 0 1 920.879,297.879"/><defs><clipPath id="satori_bc-id-18" clip-path="url(#satori_cp-id)"><path x="920" y="308" width="6" height="6" d="M923,308 h0 a3,3 0 0 1 3,3 v0 a3,3 0 0 1 -3,3 h0 a3,3 0 0 1 -3,-3 v0 a3,3 0 0 1 3,-3"/></clipPath></defs><mask id="satori_om-id-18"><rect x="921.5" y="309.5" width="3" height="3" fill="#fff" mask="url(#satori_om-id)"/><path width="6" height="6" fill="none" stroke="#000" stroke-width="3" d="M920.879,308.879 A3,3 0 0 1 923,308 h0 a3,3 0 0 1 3,3 v0 a3,3 0 0 1 -3,3 h0 a3,3 0 0 1 -3,-3 v0 A3,3 0 0 1 920.879,308.879"/></mask><path x="920" y="308" width="6" height="6" fill="transparent" d="M923,308 h0 a3,3 0 0 1 3,3 v0 a3,3 0 0 1 -3,3 h0 a3,3 0 0 1 -3,-3 v0 a3,3 0 0 1 3,-3" clip-path="url(#satori_cp-id)" mask="url(#satori_om-id)"/><path width="6" height="6" clip-path="url(#satori_bc-id-18)" fill="none" stroke="#1A1A1A" stroke-width="3" d="M920.879,308.879 A3,3 0 0 1 923,308 h0 a3,3 0 0 1 3,3 v0 a3,3 0 0 1 -3,3 h0 a3,3 0 0 1 -3,-3 v0 A3,3 0 0 1 920.879,308.879"/><defs><clipPath id="satori_bc-id-19" clip-path="url(#satori_cp-id)"><path x="920" y="319" width="6" height="6" d="M923,319 h0 a3,3 0 0 1 3,3 v0 a3,3 0 0 1 -3,3 h0 a3,3 0 0 1 -3,-3 v0 a3,3 0 0 1 3,-3"/></clipPath></defs><mask id="satori_om-id-19"><rect x="921.5" y="320.5" width="3" height="3" fill="#fff" mask="url(#satori_om-id)"/><path width="6" height="6" fill="none" stroke="#000" stroke-width="3" d="M920.879,319.879 A3,3 0 0 1 923,319 h0 a3,3 0 0 1 3,3 v0 a3,3 0 0 1 -3,3 h0 a3,3 0 0 1 -3,-3 v0 A3,3 0 0 1 920.879,319.879"/></mask><path x="920" y="319" width="6" height="6" fill="transparent" d="M923,319 h0 a3,3 0 0 1 3,3 v0 a3,3 0 0 1 -3,3 h0 a3,3 0 0 1 -3,-3 v0 a3,3 0 0 1 3,-3" clip-path="url(#satori_cp-id)" mask="url(#satori_om-id)"/><path width="6" height="6" clip-path="url(#satori_bc-id-19)" fill="none" stroke="#1A1A1A" stroke-width="3" d="M920.879,319.879 A3,3 0 0 1 923,319 h0 a3,3 0 0 1 3,3 v0 a3,3 0 0 1 -3,3 h0 a3,3 0 0 1 -3,-3 v0 A3,3 0 0 1 920.879,319.879"/><defs><clipPath id="satori_bc-id-20" clip-path="url(#satori_cp-id)"><path x="402" y="210" width="156" height="34" d="M419,210 h122 a17,17 0 0 1 17,17 v0 a17,17 0 0 1 -17,17 h-122 a17,17 0 0 1 -17,-17 v0 a17,17 0 0 1 17,-17"/></clipPath></defs><mask id="satori_om-id-20"><rect x="404" y="212" width="152" height="30" fill="#fff" mask="url(#satori_om-id)"/><path width="156" height="34" transform="matrix(1.00,0.00,0.00,1.00,0.00,0.00)" fill="none" stroke="#000" stroke-width="4" d="M406.979,214.97899999999998 A17,17 0 0 1 419,210 h122 a17,17 0 0 1 17,17 v0 a17,17 0 0 1 -17,17 h-122 a17,17 0 0 1 -17,-17 v0 A17,17 0 0 1 406.979,214.97899999999998"/></mask><g clip-path="url(#satori_cp-id)" mask="url(#satori_om-id)"><path x="402" y="210" width="156" height="34" fill="#F2D160" d="M419,210 h122 a17,17 0 0 1 17,17 v0 a17,17 0 0 1 -17,17 h-122 a17,17 0 0 1 -17,-17 v0 a17,17 0 0 1 17,-17" transform="matrix(1.00,0.00,0.00,1.00,0.00,0.00)"/><path width="156" height="34" transform="matrix(1.00,0.00,0.00,1.00,0.00,0.00)" clip-path="url(#satori_bc-id-20)" fill="none" stroke="#1A1A1A" stroke-width="4" d="M406.979,214.97899999999998 A17,17 0 0 1 419,210 h122 a17,17 0 0 1 17,17 v0 a17,17 0 0 1 -17,17 h-122 a17,17 0 0 1 -17,-17 v0 A17,17 0 0 1 406.979,214.97899999999998"/></g><mask id="satori_om-id-20-0"><rect x="428" y="221" width="104" height="13" fill="#fff" mask="url(#satori_om-id)"/></mask><g clip-path="url(#satori_cp-id)" mask="url(#satori_om-id)"></g><text x="428" y="232" width="64.182890625" height="12.600000000000001" font-weight="900" font-style="normal" font-size="12" font-family="svglidelabel" letter-spacing="0.08" transform="matrix(1.00,0.00,0.00,1.00,0.00,0.00)" clip-path="url(#satori_cp-id)" fill="#1A1A1A">LIFESTYLE</text><text x="492.182890625" y="232" width="4.29875" height="12.600000000000001" font-weight="900" font-style="normal" font-size="12" font-family="svglidelabel" letter-spacing="0.08" transform="matrix(1.00,0.00,0.00,1.00,0.00,0.00)" clip-path="url(#satori_cp-id)" fill="#1A1A1A"> </text><text x="496.481640625" y="232" width="34.591484375" height="12.600000000000001" font-weight="900" font-style="normal" font-size="12" font-family="svglidelabel" letter-spacing="0.08" transform="matrix(1.00,0.00,0.00,1.00,0.00,0.00)" clip-path="url(#satori_cp-id)" fill="#1A1A1A">DROP</text><mask id="satori_om-id-21"><rect x="230" y="264" width="500" height="49" fill="#fff" mask="url(#satori_om-id)"/></mask><text x="230" y="310" width="222.0380859375" height="48.6" font-weight="900" font-style="normal" font-size="54" font-family="svglidedisplay" clip-path="url(#satori_cp-id)" fill="#1A1A1A">LAUNCH</text><text x="452.0380859375" y="310" width="15.0029296875" height="48.6" font-weight="900" font-style="normal" font-size="54" font-family="svglidedisplay" clip-path="url(#satori_cp-id)" fill="#1A1A1A"> </text><text x="467.041015625" y="310" width="84.005859375" height="48.6" font-weight="900" font-style="normal" font-size="54" font-family="svglidedisplay" clip-path="url(#satori_cp-id)" fill="#1A1A1A">KIT</text><mask id="satori_om-id-22"><rect x="280" y="330" width="400" height="26" fill="#fff" mask="url(#satori_om-id)"/></mask><text x="280" y="351" width="13.33984375" height="26.400000000000002" font-weight="700" font-style="normal" font-size="20" font-family="svglidebody" clip-path="url(#satori_cp-id)" fill="#77736D">A</text><text x="293.33984375" y="351" width="5.556640625" height="26.400000000000002" font-weight="700" font-style="normal" font-size="20" font-family="svglidebody" clip-path="url(#satori_cp-id)" fill="#77736D"> </text><text x="298.896484375" y="351" width="132.216796875" height="26.400000000000002" font-weight="700" font-style="normal" font-size="20" font-family="svglidebody" clip-path="url(#satori_cp-id)" fill="#77736D">FRAMEWORK</text><text x="431.11328125" y="351" width="5.556640625" height="26.400000000000002" font-weight="700" font-style="normal" font-size="20" font-family="svglidebody" clip-path="url(#satori_cp-id)" fill="#77736D"> </text><text x="436.669921875" y="351" width="42.216796875" height="26.400000000000002" font-weight="700" font-style="normal" font-size="20" font-family="svglidebody" clip-path="url(#satori_cp-id)" fill="#77736D">FOR</text><text x="478.88671875" y="351" width="5.556640625" height="26.400000000000002" font-weight="700" font-style="normal" font-size="20" font-family="svglidebody" clip-path="url(#satori_cp-id)" fill="#77736D"> </text><text x="484.443359375" y="351" width="54.462890625" height="26.400000000000002" font-weight="700" font-style="normal" font-size="20" font-family="svglidebody" clip-path="url(#satori_cp-id)" fill="#77736D">BOLD</text><text x="538.90625" y="351" width="5.556640625" height="26.400000000000002" font-weight="700" font-style="normal" font-size="20" font-family="svglidebody" clip-path="url(#satori_cp-id)" fill="#77736D"> </text><text x="544.462890625" y="351" width="60.01953125" height="26.400000000000002" font-weight="700" font-style="normal" font-size="20" font-family="svglidebody" clip-path="url(#satori_cp-id)" fill="#77736D">IDEAS</text><mask id="satori_om-id-23"><rect x="16" y="511" width="201" height="13" fill="#fff" mask="url(#satori_om-id)"/></mask><text x="16" y="522" width="24.814218750000002" height="12.600000000000001" font-weight="700" font-style="normal" font-size="12" font-family="svglidelabel" letter-spacing="0.08" clip-path="url(#satori_cp-id)" fill="#B6B1AA">USE</text><text x="40.81421875" y="522" width="4.29875" height="12.600000000000001" font-weight="700" font-style="normal" font-size="12" font-family="svglidelabel" letter-spacing="0.08" clip-path="url(#satori_cp-id)" fill="#B6B1AA"> </text><text x="45.11296875" y="522" width="46.601171875" height="12.600000000000001" font-weight="700" font-style="normal" font-size="12" font-family="svglidelabel" letter-spacing="0.08" clip-path="url(#satori_cp-id)" fill="#B6B1AA">ARROW</text><text x="91.714140625" y="522" width="4.29875" height="12.600000000000001" font-weight="700" font-style="normal" font-size="12" font-family="svglidelabel" letter-spacing="0.08" clip-path="url(#satori_cp-id)" fill="#B6B1AA"> </text><text x="96.01289062499998" y="522" width="31.80828125" height="12.600000000000001" font-weight="700" font-style="normal" font-size="12" font-family="svglidelabel" letter-spacing="0.08" clip-path="url(#satori_cp-id)" fill="#B6B1AA">KEYS</text><text x="127.82117187499998" y="522" width="4.29875" height="12.600000000000001" font-weight="700" font-style="normal" font-size="12" font-family="svglidelabel" letter-spacing="0.08" clip-path="url(#satori_cp-id)" fill="#B6B1AA"> </text><text x="132.119921875" y="522" width="16.99984375" height="12.600000000000001" font-weight="700" font-style="normal" font-size="12" font-family="svglidelabel" letter-spacing="0.08" clip-path="url(#satori_cp-id)" fill="#B6B1AA">TO</text><text x="149.11976562499999" y="522" width="4.29875" height="12.600000000000001" font-weight="700" font-style="normal" font-size="12" font-family="svglidelabel" letter-spacing="0.08" clip-path="url(#satori_cp-id)" fill="#B6B1AA"> </text><text x="153.418515625" y="522" width="63.56382812499999" height="12.600000000000001" font-weight="700" font-style="normal" font-size="12" font-family="svglidelabel" letter-spacing="0.08" clip-path="url(#satori_cp-id)" fill="#B6B1AA">NAVIGATE</text><mask id="satori_om-id-24"><rect x="808" y="484" width="136" height="40" fill="#fff" mask="url(#satori_om-id)"/></mask><text x="808" y="519" width="44.05078125" height="39.9" font-weight="700" font-style="normal" font-size="42" font-family="svglidemetric" clip-path="url(#satori_cp-id)" fill="#77736D">01</text><text x="852.05078125" y="519" width="12.6533203125" height="39.9" font-weight="700" font-style="normal" font-size="42" font-family="svglidemetric" clip-path="url(#satori_cp-id)" fill="#77736D"> </text><text x="864.7041015625" y="519" width="22.025390625" height="39.9" font-weight="700" font-style="normal" font-size="42" font-family="svglidemetric" clip-path="url(#satori_cp-id)" fill="#77736D">/</text><text x="886.7294921875" y="519" width="12.6533203125" height="39.9" font-weight="700" font-style="normal" font-size="42" font-family="svglidemetric" clip-path="url(#satori_cp-id)" fill="#77736D"> </text><text x="899.3828125" y="519" width="44.05078125" height="39.9" font-weight="700" font-style="normal" font-size="42" font-family="svglidemetric" clip-path="url(#satori_cp-id)" fill="#77736D">10</text></svg>