<svg width="960" height="540" viewBox="0 0 960 540" xmlns="http://www.w3.org/2000/svg"><clipPath id="satori_cp-id"><rect x="0" y="0" width="960" height="540"/></clipPath><mask id="satori_om-id"><rect x="0" y="0" width="960" height="540" fill="#fff"/></mask><rect x="0" y="0" width="960" height="540" fill="#F5F0E8"/><mask id="satori_om-id-0"><rect x="0" y="0" width="960" height="172" fill="#fff" mask="url(#satori_om-id)"/></mask><rect x="0" y="0" width="960" height="172" fill="#E85D5D" clip-path="url(#satori_cp-id)" mask="url(#satori_om-id)"/><mask id="satori_om-id-0-0"><rect x="-120" y="10" width="28" height="210" fill="#fff" mask="url(#satori_om-id)"/></mask><g opacity="0.62"><g clip-path="url(#satori_cp-id)" mask="url(#satori_om-id)"><rect x="-120" y="10" width="28" height="210" fill="#C45252" transform="matrix(0.90,0.44,-0.44,0.90,39.68,58.11)"/></g></g><mask id="satori_om-id-0-1"><rect x="-50" y="10" width="28" height="210" fill="#fff" mask="url(#satori_om-id)"/></mask><g opacity="0.62"><g clip-path="url(#satori_cp-id)" mask="url(#satori_om-id)"><rect x="-50" y="10" width="28" height="210" fill="#C45252" transform="matrix(0.90,-0.44,0.44,0.90,-54.06,-4.14)"/></g></g><mask id="satori_om-id-0-2"><rect x="-94" y="58" width="14" height="142" fill="#fff" mask="url(#satori_om-id)"/></mask><g opacity="0.42"><g clip-path="url(#satori_cp-id)" mask="url(#satori_om-id)"><rect x="-94" y="58" width="14" height="142" fill="#C45252" transform="matrix(0.90,0.44,-0.44,0.90,47.74,51.19)"/></g></g><mask id="satori_om-id-0-3"><rect x="-41" y="58" width="14" height="142" fill="#fff" mask="url(#satori_om-id)"/></mask><g opacity="0.42"><g clip-path="url(#satori_cp-id)" mask="url(#satori_om-id)"><rect x="-41" y="58" width="14" height="142" fill="#C45252" transform="matrix(0.90,-0.44,0.44,0.90,-59.99,-1.85)"/></g></g><mask id="satori_om-id-0-4"><rect x="40" y="10" width="28" height="210" fill="#fff" mask="url(#satori_om-id)"/></mask><g opacity="0.62"><g clip-path="url(#satori_cp-id)" mask="url(#satori_om-id)"><rect x="40" y="10" width="28" height="210" fill="#C45252" transform="matrix(0.90,0.44,-0.44,0.90,55.88,-12.03)"/></g></g><mask id="satori_om-id-0-5"><rect x="110" y="10" width="28" height="210" fill="#fff" mask="url(#satori_om-id)"/></mask><g opacity="0.62"><g clip-path="url(#satori_cp-id)" mask="url(#satori_om-id)"><rect x="110" y="10" width="28" height="210" fill="#C45252" transform="matrix(0.90,-0.44,0.44,0.90,-37.86,66.00)"/></g></g><mask id="satori_om-id-0-6"><rect x="66" y="58" width="14" height="142" fill="#fff" mask="url(#satori_om-id)"/></mask><g opacity="0.42"><g clip-path="url(#satori_cp-id)" mask="url(#satori_om-id)"><rect x="66" y="58" width="14" height="142" fill="#C45252" transform="matrix(0.90,0.44,-0.44,0.90,63.94,-18.95)"/></g></g><mask id="satori_om-id-0-7"><rect x="119" y="58" width="14" height="142" fill="#fff" mask="url(#satori_om-id)"/></mask><g opacity="0.42"><g clip-path="url(#satori_cp-id)" mask="url(#satori_om-id)"><rect x="119" y="58" width="14" height="142" fill="#C45252" transform="matrix(0.90,-0.44,0.44,0.90,-43.80,68.29)"/></g></g><mask id="satori_om-id-0-8"><rect x="200" y="10" width="28" height="210" fill="#fff" mask="url(#satori_om-id)"/></mask><g opacity="0.62"><g clip-path="url(#satori_cp-id)" mask="url(#satori_om-id)"><rect x="200" y="10" width="28" height="210" fill="#C45252" transform="matrix(0.90,0.44,-0.44,0.90,72.07,-82.17)"/></g></g><mask id="satori_om-id-0-9"><rect x="270" y="10" width="28" height="210" fill="#fff" mask="url(#satori_om-id)"/></mask><g opacity="0.62"><g clip-path="url(#satori_cp-id)" mask="url(#satori_om-id)"><rect x="270" y="10" width="28" height="210" fill="#C45252" transform="matrix(0.90,-0.44,0.44,0.90,-21.67,136.14)"/></g></g><mask id="satori_om-id-0-10"><rect x="226" y="58" width="14" height="142" fill="#fff" mask="url(#satori_om-id)"/></mask><g opacity="0.42"><g clip-path="url(#satori_cp-id)" mask="url(#satori_om-id)"><rect x="226" y="58" width="14" height="142" fill="#C45252" transform="matrix(0.90,0.44,-0.44,0.90,80.13,-89.08)"/></g></g><mask id="satori_om-id-0-11"><rect x="279" y="58" width="14" height="142" fill="#fff" mask="url(#satori_om-id)"/></mask><g opacity="0.42"><g clip-path="url(#satori_cp-id)" mask="url(#satori_om-id)"><rect x="279" y="58" width="14" height="142" fill="#C45252" transform="matrix(0.90,-0.44,0.44,0.90,-27.60,138.43)"/></g></g><mask id="satori_om-id-0-12"><rect x="360" y="10" width="28" height="210" fill="#fff" mask="url(#satori_om-id)"/></mask><g opacity="0.62"><g clip-path="url(#satori_cp-id)" mask="url(#satori_om-id)"><rect x="360" y="10" width="28" height="210" fill="#C45252" transform="matrix(0.90,0.44,-0.44,0.90,88.26,-152.31)"/></g></g><mask id="satori_om-id-0-13"><rect x="430" y="10" width="28" height="210" fill="#fff" mask="url(#satori_om-id)"/></mask><g opacity="0.62"><g clip-path="url(#satori_cp-id)" mask="url(#satori_om-id)"><rect x="430" y="10" width="28" height="210" fill="#C45252" transform="matrix(0.90,-0.44,0.44,0.90,-5.48,206.28)"/></g></g><mask id="satori_om-id-0-14"><rect x="386" y="58" width="14" height="142" fill="#fff" mask="url(#satori_om-id)"/></mask><g opacity="0.42"><g clip-path="url(#satori_cp-id)" mask="url(#satori_om-id)"><rect x="386" y="58" width="14" height="142" fill="#C45252" transform="matrix(0.90,0.44,-0.44,0.90,96.32,-159.22)"/></g></g><mask id="satori_om-id-0-15"><rect x="439" y="58" width="14" height="142" fill="#fff" mask="url(#satori_om-id)"/></mask><g opacity="0.42"><g clip-path="url(#satori_cp-id)" mask="url(#satori_om-id)"><rect x="439" y="58" width="14" height="142" fill="#C45252" transform="matrix(0.90,-0.44,0.44,0.90,-11.41,208.57)"/></g></g><mask id="satori_om-id-0-16"><rect x="520" y="10" width="28" height="210" fill="#fff" mask="url(#satori_om-id)"/></mask><g opacity="0.62"><g clip-path="url(#satori_cp-id)" mask="url(#satori_om-id)"><rect x="520" y="10" width="28" height="210" fill="#C45252" transform="matrix(0.90,0.44,-0.44,0.90,104.46,-222.45)"/></g></g><mask id="satori_om-id-0-17"><rect x="590" y="10" width="28" height="210" fill="#fff" mask="url(#satori_om-id)"/></mask><g opacity="0.62"><g clip-path="url(#satori_cp-id)" mask="url(#satori_om-id)"><rect x="590" y="10" width="28" height="210" fill="#C45252" transform="matrix(0.90,-0.44,0.44,0.90,10.72,276.41)"/></g></g><mask id="satori_om-id-0-18"><rect x="546" y="58" width="14" height="142" fill="#fff" mask="url(#satori_om-id)"/></mask><g opacity="0.42"><g clip-path="url(#satori_cp-id)" mask="url(#satori_om-id)"><rect x="546" y="58" width="14" height="142" fill="#C45252" transform="matrix(0.90,0.44,-0.44,0.90,112.52,-229.36)"/></g></g><mask id="satori_om-id-0-19"><rect x="599" y="58" width="14" height="142" fill="#fff" mask="url(#satori_om-id)"/></mask><g opacity="0.42"><g clip-path="url(#satori_cp-id)" mask="url(#satori_om-id)"><rect x="599" y="58" width="14" height="142" fill="#C45252" transform="matrix(0.90,-0.44,0.44,0.90,4.78,278.71)"/></g></g><mask id="satori_om-id-0-20"><rect x="680" y="10" width="28" height="210" fill="#fff" mask="url(#satori_om-id)"/></mask><g opacity="0.62"><g clip-path="url(#satori_cp-id)" mask="url(#satori_om-id)"><rect x="680" y="10" width="28" height="210" fill="#C45252" transform="matrix(0.90,0.44,-0.44,0.90,120.65,-292.59)"/></g></g><mask id="satori_om-id-0-21"><rect x="750" y="10" width="28" height="210" fill="#fff" mask="url(#satori_om-id)"/></mask><g opacity="0.62"><g clip-path="url(#satori_cp-id)" mask="url(#satori_om-id)"><rect x="750" y="10" width="28" height="210" fill="#C45252" transform="matrix(0.90,-0.44,0.44,0.90,26.91,346.55)"/></g></g><mask id="satori_om-id-0-22"><rect x="706" y="58" width="14" height="142" fill="#fff" mask="url(#satori_om-id)"/></mask><g opacity="0.42"><g clip-path="url(#satori_cp-id)" mask="url(#satori_om-id)"><rect x="706" y="58" width="14" height="142" fill="#C45252" transform="matrix(0.90,0.44,-0.44,0.90,128.71,-299.50)"/></g></g><mask id="satori_om-id-0-23"><rect x="759" y="58" width="14" height="142" fill="#fff" mask="url(#satori_om-id)"/></mask><g opacity="0.42"><g clip-path="url(#satori_cp-id)" mask="url(#satori_om-id)"><rect x="759" y="58" width="14" height="142" fill="#C45252" transform="matrix(0.90,-0.44,0.44,0.90,20.97,348.85)"/></g></g><mask id="satori_om-id-0-24"><rect x="840" y="10" width="28" height="210" fill="#fff" mask="url(#satori_om-id)"/></mask><g opacity="0.62"><g clip-path="url(#satori_cp-id)" mask="url(#satori_om-id)"><rect x="840" y="10" width="28" height="210" fill="#C45252" transform="matrix(0.90,0.44,-0.44,0.90,136.84,-362.73)"/></g></g><mask id="satori_om-id-0-25"><rect x="910" y="10" width="28" height="210" fill="#fff" mask="url(#satori_om-id)"/></mask><g opacity="0.62"><g clip-path="url(#satori_cp-id)" mask="url(#satori_om-id)"><rect x="910" y="10" width="28" height="210" fill="#C45252" transform="matrix(0.90,-0.44,0.44,0.90,43.10,416.69)"/></g></g><mask id="satori_om-id-0-26"><rect x="866" y="58" width="14" height="142" fill="#fff" mask="url(#satori_om-id)"/></mask><g opacity="0.42"><g clip-path="url(#satori_cp-id)" mask="url(#satori_om-id)"><rect x="866" y="58" width="14" height="142" fill="#C45252" transform="matrix(0.90,0.44,-0.44,0.90,144.90,-369.64)"/></g></g><mask id="satori_om-id-0-27"><rect x="919" y="58" width="14" height="142" fill="#fff" mask="url(#satori_om-id)"/></mask><g opacity="0.42"><g clip-path="url(#satori_cp-id)" mask="url(#satori_om-id)"><rect x="919" y="58" width="14" height="142" fill="#C45252" transform="matrix(0.90,-0.44,0.44,0.90,37.17,418.99)"/></g></g><mask id="satori_om-id-0-28"><rect x="1000" y="10" width="28" height="210" fill="#fff" mask="url(#satori_om-id)"/></mask><g opacity="0.62"><g clip-path="url(#satori_cp-id)" mask="url(#satori_om-id)"><rect x="1000" y="10" width="28" height="210" fill="#C45252" transform="matrix(0.90,0.44,-0.44,0.90,153.04,-432.87)"/></g></g><mask id="satori_om-id-0-29"><rect x="1070" y="10" width="28" height="210" fill="#fff" mask="url(#satori_om-id)"/></mask><g opacity="0.62"><g clip-path="url(#satori_cp-id)" mask="url(#satori_om-id)"><rect x="1070" y="10" width="28" height="210" fill="#C45252" transform="matrix(0.90,-0.44,0.44,0.90,59.29,486.83)"/></g></g><mask id="satori_om-id-0-30"><rect x="1026" y="58" width="14" height="142" fill="#fff" mask="url(#satori_om-id)"/></mask><g opacity="0.42"><g clip-path="url(#satori_cp-id)" mask="url(#satori_om-id)"><rect x="1026" y="58" width="14" height="142" fill="#C45252" transform="matrix(0.90,0.44,-0.44,0.90,161.10,-439.78)"/></g></g><mask id="satori_om-id-0-31"><rect x="1079" y="58" width="14" height="142" fill="#fff" mask="url(#satori_om-id)"/></mask><g opacity="0.42"><g clip-path="url(#satori_cp-id)" mask="url(#satori_om-id)"><rect x="1079" y="58" width="14" height="142" fill="#C45252" transform="matrix(0.90,-0.44,0.44,0.90,53.36,489.13)"/></g></g><mask id="satori_om-id-1"><rect x="50" y="23" width="62" height="7" fill="#fff" mask="url(#satori_om-id)"/></mask><text x="50" y="29" width="61.17822265625" height="7.3500000000000005" font-weight="900" font-style="normal" font-size="7" font-family="svglidelabel" letter-spacing="4" clip-path="url(#satori_cp-id)" fill="#1A1A1A">VENTURE</text><mask id="satori_om-id-2"><rect x="50" y="197" width="500" height="39" fill="#fff" mask="url(#satori_om-id)"/></mask><text x="50" y="234" width="262.8291015625" height="38.7" font-weight="900" font-style="normal" font-size="43" font-family="svglidedisplay" clip-path="url(#satori_cp-id)" fill="#1A1A1A">QUARTERLY</text><mask id="satori_om-id-3"><rect x="50" y="250" width="520" height="39" fill="#fff" mask="url(#satori_om-id)"/></mask><text x="50" y="287" width="231.7548828125" height="38.7" font-weight="900" font-style="normal" font-size="43" font-family="svglidedisplay" clip-path="url(#satori_cp-id)" fill="#1A1A1A">STRATEGY</text><mask id="satori_om-id-4"><rect x="50" y="305" width="620" height="39" fill="#fff" mask="url(#satori_om-id)"/></mask><text x="50" y="342" width="191.16943359375" height="38.7" font-weight="900" font-style="normal" font-size="43" font-family="svglidedisplay" clip-path="url(#satori_cp-id)" fill="#1A1A1A">SESSION</text><text x="241.16943359375" y="342" width="11.94677734375" height="38.7" font-weight="900" font-style="normal" font-size="43" font-family="svglidedisplay" clip-path="url(#satori_cp-id)" fill="#1A1A1A"> </text><text x="253.1162109375" y="342" width="95.658203125" height="38.7" font-weight="900" font-style="normal" font-size="43" font-family="svglidedisplay" clip-path="url(#satori_cp-id)" fill="#1A1A1A">2026</text><mask id="satori_om-id-5"><rect x="50" y="372" width="860" height="1" fill="#fff" mask="url(#satori_om-id)"/></mask><rect x="50" y="372" width="860" height="1" fill="#E8E0D4" clip-path="url(#satori_cp-id)" mask="url(#satori_om-id)"/><mask id="satori_om-id-6"><rect x="925" y="218" width="5" height="5" fill="#fff" mask="url(#satori_om-id)"/></mask><path x="925" y="218" width="5" height="5" fill="#E85D5D" d="M927.5,218 h0 a2.5,2.5 0 0 1 2.5,2.5 v0 a2.5,2.5 0 0 1 -2.5,2.5 h0 a2.5,2.5 0 0 1 -2.5,-2.5 v0 a2.5,2.5 0 0 1 2.5,-2.5" clip-path="url(#satori_cp-id)" mask="url(#satori_om-id)"/><mask id="satori_om-id-7"><rect x="925" y="229" width="5" height="5" fill="#fff" mask="url(#satori_om-id)"/></mask><g opacity="0.78"><path x="925" y="229" width="5" height="5" fill="#FFFFFF" d="M927.5,229 h0 a2.5,2.5 0 0 1 2.5,2.5 v0 a2.5,2.5 0 0 1 -2.5,2.5 h0 a2.5,2.5 0 0 1 -2.5,-2.5 v0 a2.5,2.5 0 0 1 2.5,-2.5" clip-path="url(#satori_cp-id)" mask="url(#satori_om-id)"/></g><mask id="satori_om-id-8"><rect x="925" y="240" width="5" height="5" fill="#fff" mask="url(#satori_om-id)"/></mask><g opacity="0.78"><path x="925" y="240" width="5" height="5" fill="#FFFFFF" d="M927.5,240 h0 a2.5,2.5 0 0 1 2.5,2.5 v0 a2.5,2.5 0 0 1 -2.5,2.5 h0 a2.5,2.5 0 0 1 -2.5,-2.5 v0 a2.5,2.5 0 0 1 2.5,-2.5" clip-path="url(#satori_cp-id)" mask="url(#satori_om-id)"/></g><mask id="satori_om-id-9"><rect x="925" y="251" width="5" height="5" fill="#fff" mask="url(#satori_om-id)"/></mask><g opacity="0.78"><path x="925" y="251" width="5" height="5" fill="#FFFFFF" d="M927.5,251 h0 a2.5,2.5 0 0 1 2.5,2.5 v0 a2.5,2.5 0 0 1 -2.5,2.5 h0 a2.5,2.5 0 0 1 -2.5,-2.5 v0 a2.5,2.5 0 0 1 2.5,-2.5" clip-path="url(#satori_cp-id)" mask="url(#satori_om-id)"/></g><mask id="satori_om-id-10"><rect x="925" y="262" width="5" height="5" fill="#fff" mask="url(#satori_om-id)"/></mask><g opacity="0.78"><path x="925" y="262" width="5" height="5" fill="#FFFFFF" d="M927.5,262 h0 a2.5,2.5 0 0 1 2.5,2.5 v0 a2.5,2.5 0 0 1 -2.5,2.5 h0 a2.5,2.5 0 0 1 -2.5,-2.5 v0 a2.5,2.5 0 0 1 2.5,-2.5" clip-path="url(#satori_cp-id)" mask="url(#satori_om-id)"/></g><mask id="satori_om-id-11"><rect x="925" y="273" width="5" height="5" fill="#fff" mask="url(#satori_om-id)"/></mask><g opacity="0.78"><path x="925" y="273" width="5" height="5" fill="#FFFFFF" d="M927.5,273 h0 a2.5,2.5 0 0 1 2.5,2.5 v0 a2.5,2.5 0 0 1 -2.5,2.5 h0 a2.5,2.5 0 0 1 -2.5,-2.5 v0 a2.5,2.5 0 0 1 2.5,-2.5" clip-path="url(#satori_cp-id)" mask="url(#satori_om-id)"/></g><mask id="satori_om-id-12"><rect x="925" y="284" width="5" height="5" fill="#fff" mask="url(#satori_om-id)"/></mask><g opacity="0.78"><path x="925" y="284" width="5" height="5" fill="#FFFFFF" d="M927.5,284 h0 a2.5,2.5 0 0 1 2.5,2.5 v0 a2.5,2.5 0 0 1 -2.5,2.5 h0 a2.5,2.5 0 0 1 -2.5,-2.5 v0 a2.5,2.5 0 0 1 2.5,-2.5" clip-path="url(#satori_cp-id)" mask="url(#satori_om-id)"/></g><mask id="satori_om-id-13"><rect x="925" y="295" width="5" height="5" fill="#fff" mask="url(#satori_om-id)"/></mask><g opacity="0.78"><path x="925" y="295" width="5" height="5" fill="#FFFFFF" d="M927.5,295 h0 a2.5,2.5 0 0 1 2.5,2.5 v0 a2.5,2.5 0 0 1 -2.5,2.5 h0 a2.5,2.5 0 0 1 -2.5,-2.5 v0 a2.5,2.5 0 0 1 2.5,-2.5" clip-path="url(#satori_cp-id)" mask="url(#satori_om-id)"/></g><mask id="satori_om-id-14"><rect x="925" y="306" width="5" height="5" fill="#fff" mask="url(#satori_om-id)"/></mask><g opacity="0.78"><path x="925" y="306" width="5" height="5" fill="#FFFFFF" d="M927.5,306 h0 a2.5,2.5 0 0 1 2.5,2.5 v0 a2.5,2.5 0 0 1 -2.5,2.5 h0 a2.5,2.5 0 0 1 -2.5,-2.5 v0 a2.5,2.5 0 0 1 2.5,-2.5" clip-path="url(#satori_cp-id)" mask="url(#satori_om-id)"/></g><mask id="satori_om-id-15"><rect x="925" y="317" width="5" height="5" fill="#fff" mask="url(#satori_om-id)"/></mask><g opacity="0.78"><path x="925" y="317" width="5" height="5" fill="#FFFFFF" d="M927.5,317 h0 a2.5,2.5 0 0 1 2.5,2.5 v0 a2.5,2.5 0 0 1 -2.5,2.5 h0 a2.5,2.5 0 0 1 -2.5,-2.5 v0 a2.5,2.5 0 0 1 2.5,-2.5" clip-path="url(#satori_cp-id)" mask="url(#satori_om-id)"/></g><mask id="satori_om-id-16"><rect x="50" y="490" width="62" height="7" fill="#fff" mask="url(#satori_om-id)"/></mask><text x="50" y="496" width="61.0849609375" height="7.3500000000000005" font-weight="800" font-style="normal" font-size="7" font-family="svglidelabel" letter-spacing="3" clip-path="url(#satori_cp-id)" fill="#6B6B6B">LOCATION</text><mask id="satori_om-id-17"><rect x="50" y="497" width="107" height="19" fill="#fff" mask="url(#satori_om-id)"/></mask><text x="50" y="514" width="35.89404296875" height="19" font-weight="900" font-style="normal" font-size="19" font-family="svglidebody" clip-path="url(#satori_cp-id)" fill="#1A1A1A">7TH</text><text x="85.89404296875" y="514" width="5.27880859375" height="19" font-weight="900" font-style="normal" font-size="19" font-family="svglidebody" clip-path="url(#satori_cp-id)" fill="#1A1A1A"> </text><text x="91.1728515625" y="514" width="65.45166015625" height="19" font-weight="900" font-style="normal" font-size="19" font-family="svglidebody" clip-path="url(#satori_cp-id)" fill="#1A1A1A">FLOOR</text><mask id="satori_om-id-18"><rect x="700" y="489" width="210" height="7" fill="#fff" mask="url(#satori_om-id)"/></mask><text x="700" y="495" width="20.9912109375" height="7.3500000000000005" font-weight="800" font-style="normal" font-size="7" font-family="svglidelabel" letter-spacing="2" clip-path="url(#satori_cp-id)" fill="#6B6B6B">MAY</text><text x="720.9912109375" y="495" width="4.4609375" height="7.3500000000000005" font-weight="800" font-style="normal" font-size="7" font-family="svglidelabel" letter-spacing="2" clip-path="url(#satori_cp-id)" fill="#6B6B6B"> </text><text x="725.4521484375" y="495" width="12.900390625" height="7.3500000000000005" font-weight="800" font-style="normal" font-size="7" font-family="svglidelabel" letter-spacing="2" clip-path="url(#satori_cp-id)" fill="#6B6B6B">15</text><text x="738.3525390625" y="495" width="4.4609375" height="7.3500000000000005" font-weight="800" font-style="normal" font-size="7" font-family="svglidelabel" letter-spacing="2" clip-path="url(#satori_cp-id)" fill="#6B6B6B"> </text><text x="742.8134765625" y="495" width="5.1787109375" height="7.3500000000000005" font-weight="800" font-style="normal" font-size="7" font-family="svglidelabel" letter-spacing="2" clip-path="url(#satori_cp-id)" fill="#6B6B6B">/</text><text x="747.9921875" y="495" width="4.4609375" height="7.3500000000000005" font-weight="800" font-style="normal" font-size="7" font-family="svglidelabel" letter-spacing="2" clip-path="url(#satori_cp-id)" fill="#6B6B6B"> </text><text x="752.453125" y="495" width="12.900390625" height="7.3500000000000005" font-weight="800" font-style="normal" font-size="7" font-family="svglidelabel" letter-spacing="2" clip-path="url(#satori_cp-id)" fill="#6B6B6B">09</text><text x="765.353515625" y="495" width="5.1787109375" height="7.3500000000000005" font-weight="800" font-style="normal" font-size="7" font-family="svglidelabel" letter-spacing="2" clip-path="url(#satori_cp-id)" fill="#6B6B6B">:</text><text x="770.5322265625" y="495" width="12.900390625" height="7.3500000000000005" font-weight="800" font-style="normal" font-size="7" font-family="svglidelabel" letter-spacing="2" clip-path="url(#satori_cp-id)" fill="#6B6B6B">00</text><text x="783.4326171875" y="495" width="4.4609375" height="7.3500000000000005" font-weight="800" font-style="normal" font-size="7" font-family="svglidelabel" letter-spacing="2" clip-path="url(#satori_cp-id)" fill="#6B6B6B"> </text><text x="787.8935546875" y="495" width="33.064453125" height="7.3500000000000005" font-weight="800" font-style="normal" font-size="7" font-family="svglidelabel" letter-spacing="2" clip-path="url(#satori_cp-id)" fill="#6B6B6B">START</text><mask id="satori_om-id-19"><rect x="840" y="496" width="70" height="20" fill="#fff" mask="url(#satori_om-id)"/></mask><text x="840" y="513" width="41.953125" height="20" font-weight="900" font-style="normal" font-size="20" font-family="svglidemetric" clip-path="url(#satori_cp-id)" fill="#1A1A1A">2026</text><mask id="satori_om-id-20"><rect x="917" y="522" width="23" height="7" fill="#fff" mask="url(#satori_om-id)"/></mask><text x="917" y="528" width="7.341796875" height="6.6499999999999995" font-weight="900" font-style="normal" font-size="7" font-family="svglidemetric" clip-path="url(#satori_cp-id)" fill="#FFFFFF">01</text><text x="924.341796875" y="528" width="2.10888671875" height="6.6499999999999995" font-weight="900" font-style="normal" font-size="7" font-family="svglidemetric" clip-path="url(#satori_cp-id)" fill="#FFFFFF"> </text><text x="926.45068359375" y="528" width="3.6708984375" height="6.6499999999999995" font-weight="900" font-style="normal" font-size="7" font-family="svglidemetric" clip-path="url(#satori_cp-id)" fill="#FFFFFF">/</text><text x="930.12158203125" y="528" width="2.10888671875" height="6.6499999999999995" font-weight="900" font-style="normal" font-size="7" font-family="svglidemetric" clip-path="url(#satori_cp-id)" fill="#FFFFFF"> </text><text x="932.23046875" y="528" width="7.341796875" height="6.6499999999999995" font-weight="900" font-style="normal" font-size="7" font-family="svglidemetric" clip-path="url(#satori_cp-id)" fill="#FFFFFF">10</text></svg>