<svg width="960" height="540" viewBox="0 0 960 540" xmlns="http://www.w3.org/2000/svg"><clipPath id="satori_cp-id"><rect x="0" y="0" width="960" height="540"/></clipPath><mask id="satori_om-id"><rect x="0" y="0" width="960" height="540" fill="#fff"/></mask><rect x="0" y="0" width="960" height="540" fill="#EFE9D9"/><mask id="satori_om-id-0"><rect x="48" y="86" width="30" height="2" fill="#fff" mask="url(#satori_om-id)"/></mask><rect x="48" y="86" width="30" height="2" fill="#101010" clip-path="url(#satori_cp-id)" mask="url(#satori_om-id)"/><mask id="satori_om-id-1"><rect x="88" y="82" width="446" height="40" fill="#fff" mask="url(#satori_om-id)"/></mask><text x="88" y="117" width="74.23828125" height="39.9" font-weight="800" font-style="normal" font-size="42" font-family="svglidemetric" clip-path="url(#satori_cp-id)" fill="#101010">VOL</text><text x="162.23828125" y="117" width="15.421875" height="39.9" font-weight="800" font-style="normal" font-size="42" font-family="svglidemetric" clip-path="url(#satori_cp-id)" fill="#101010">.</text><text x="177.66015625" y="117" width="12.6533203125" height="39.9" font-weight="800" font-style="normal" font-size="42" font-family="svglidemetric" clip-path="url(#satori_cp-id)" fill="#101010"> </text><text x="190.3134765625" y="117" width="44.05078125" height="39.9" font-weight="800" font-style="normal" font-size="42" font-family="svglidemetric" clip-path="url(#satori_cp-id)" fill="#101010">01</text><text x="234.3642578125" y="117" width="12.6533203125" height="39.9" font-weight="800" font-style="normal" font-size="42" font-family="svglidemetric" clip-path="url(#satori_cp-id)" fill="#101010"> </text><text x="247.017578125" y="117" width="22.025390625" height="39.9" font-weight="800" font-style="normal" font-size="42" font-family="svglidemetric" clip-path="url(#satori_cp-id)" fill="#101010">/</text><text x="269.04296875" y="117" width="12.6533203125" height="39.9" font-weight="800" font-style="normal" font-size="42" font-family="svglidemetric" clip-path="url(#satori_cp-id)" fill="#101010"> </text><text x="281.6962890625" y="117" width="151.1220703125" height="39.9" font-weight="800" font-style="normal" font-size="42" font-family="svglidemetric" clip-path="url(#satori_cp-id)" fill="#101010">EDITION</text><text x="432.818359375" y="117" width="12.6533203125" height="39.9" font-weight="800" font-style="normal" font-size="42" font-family="svglidemetric" clip-path="url(#satori_cp-id)" fill="#101010"> </text><text x="445.4716796875" y="117" width="88.1015625" height="39.9" font-weight="800" font-style="normal" font-size="42" font-family="svglidemetric" clip-path="url(#satori_cp-id)" fill="#101010">2026</text><mask id="satori_om-id-2"><rect x="48" y="200" width="470" height="49" fill="#fff" mask="url(#satori_om-id)"/></mask><text x="48" y="246" width="288.03515625" height="48.6" font-weight="900" font-style="normal" font-size="54" font-family="svglidedisplay" clip-path="url(#satori_cp-id)" fill="#101010">CAMPAIGN</text><text x="336.03515625" y="246" width="15.0029296875" height="48.6" font-weight="900" font-style="normal" font-size="54" font-family="svglidedisplay" clip-path="url(#satori_cp-id)" fill="#101010"> </text><text x="351.0380859375" y="246" width="162" height="48.6" font-weight="900" font-style="normal" font-size="54" font-family="svglidedisplay" clip-path="url(#satori_cp-id)" fill="#101010">MODE</text><mask id="satori_om-id-3"><rect x="48" y="274" width="370" height="49" fill="#fff" mask="url(#satori_om-id)"/></mask><text x="48" y="320" width="162" height="48.6" font-weight="900" font-style="normal" font-size="54" font-family="svglidedisplay" clip-path="url(#satori_cp-id)" fill="#E85A1F">MODE</text><mask id="satori_om-id-4"><rect x="48" y="438" width="430" height="48" fill="#fff" mask="url(#satori_om-id)"/></mask><text x="48" y="457" width="41.02734375" height="23.76" font-weight="500" font-style="normal" font-size="18" font-family="svglidebody" clip-path="url(#satori_cp-id)" fill="#2C2922">Eight</text><text x="89.02734375" y="457" width="5.0009765625" height="23.76" font-weight="500" font-style="normal" font-size="18" font-family="svglidebody" clip-path="url(#satori_cp-id)" fill="#2C2922"> </text><text x="94.0283203125" y="457" width="49.04296875" height="23.76" font-weight="500" font-style="normal" font-size="18" font-family="svglidebody" clip-path="url(#satori_cp-id)" fill="#2C2922">pages</text><text x="143.0712890625" y="457" width="5.0009765625" height="23.76" font-weight="500" font-style="normal" font-size="18" font-family="svglidebody" clip-path="url(#satori_cp-id)" fill="#2C2922">,</text><text x="148.072265625" y="457" width="5.0009765625" height="23.76" font-weight="500" font-style="normal" font-size="18" font-family="svglidebody" clip-path="url(#satori_cp-id)" fill="#2C2922"> </text><text x="153.0732421875" y="457" width="39.0322265625" height="23.76" font-weight="500" font-style="normal" font-size="18" font-family="svglidebody" clip-path="url(#satori_cp-id)" fill="#2C2922">eight</text><text x="192.10546875" y="457" width="5.0009765625" height="23.76" font-weight="500" font-style="normal" font-size="18" font-family="svglidebody" clip-path="url(#satori_cp-id)" fill="#2C2922"> </text><text x="197.1064453125" y="457" width="57.0322265625" height="23.76" font-weight="500" font-style="normal" font-size="18" font-family="svglidebody" clip-path="url(#satori_cp-id)" fill="#2C2922">layouts</text><text x="254.138671875" y="457" width="5.0009765625" height="23.76" font-weight="500" font-style="normal" font-size="18" font-family="svglidebody" clip-path="url(#satori_cp-id)" fill="#2C2922">,</text><text x="259.1396484375" y="457" width="5.0009765625" height="23.76" font-weight="500" font-style="normal" font-size="18" font-family="svglidebody" clip-path="url(#satori_cp-id)" fill="#2C2922"> </text><text x="264.140625" y="457" width="30.0322265625" height="23.76" font-weight="500" font-style="normal" font-size="18" font-family="svglidebody" clip-path="url(#satori_cp-id)" fill="#2C2922">one</text><text x="294.1728515625" y="457" width="5.0009765625" height="23.76" font-weight="500" font-style="normal" font-size="18" font-family="svglidebody" clip-path="url(#satori_cp-id)" fill="#2C2922"> </text><text x="299.173828125" y="457" width="78.046875" height="23.76" font-weight="500" font-style="normal" font-size="18" font-family="svglidebody" clip-path="url(#satori_cp-id)" fill="#2C2922">campaign</text><text x="377.220703125" y="457" width="5.0009765625" height="23.76" font-weight="500" font-style="normal" font-size="18" font-family="svglidebody" clip-path="url(#satori_cp-id)" fill="#2C2922"> </text><text x="382.2216796875" y="457" width="75.05859375" height="23.76" font-weight="500" font-style="normal" font-size="18" font-family="svglidebody" clip-path="url(#satori_cp-id)" fill="#2C2922">operating</text><text x="457.2802734375" y="457" width="5.0009765625" height="23.76" font-weight="500" font-style="normal" font-size="18" font-family="svglidebody" clip-path="url(#satori_cp-id)" fill="#2C2922"> </text><text x="48" y="481" width="55.0107421875" height="23.76" font-weight="500" font-style="normal" font-size="18" font-family="svglidebody" clip-path="url(#satori_cp-id)" fill="#2C2922">rhythm</text><text x="103.0107421875" y="481" width="5.0009765625" height="23.76" font-weight="500" font-style="normal" font-size="18" font-family="svglidebody" clip-path="url(#satori_cp-id)" fill="#2C2922">.</text><mask id="satori_om-id-5"><rect x="32" y="509" width="118" height="11" fill="#fff" mask="url(#satori_om-id)"/></mask><text x="32" y="518" width="42.0083203125" height="10.5" font-weight="800" font-style="normal" font-size="10" font-family="svglidelabel" letter-spacing="0.08" clip-path="url(#satori_cp-id)" fill="#101010">AGENCY</text><text x="74.00832031249999" y="518" width="3.595625" height="10.5" font-weight="800" font-style="normal" font-size="10" font-family="svglidelabel" letter-spacing="0.08" clip-path="url(#satori_cp-id)" fill="#101010"> </text><text x="77.6039453125" y="518" width="72.256953125" height="10.5" font-weight="800" font-style="normal" font-size="10" font-family="svglidelabel" letter-spacing="0.08" clip-path="url(#satori_cp-id)" fill="#101010">CREDENTIALS</text><defs><clipPath id="satori_bc-id-6" clip-path="url(#satori_cp-id)"><rect x="528" y="70" width="384" height="400"/></clipPath></defs><mask id="satori_om-id-6"><rect x="530" y="72" width="380" height="396" fill="#fff" mask="url(#satori_om-id)"/><path width="384" height="400" fill="none" stroke="#000" stroke-width="4" d="M528,70 A0,0 0 0 1 528,70 h384 a0,0 0 0 1 0,0 v400 a0,0 0 0 1 0,0 h-384 a0,0 0 0 1 0,0 v-400 A0,0 0 0 1 528,70"/></mask><rect x="528" y="70" width="384" height="400" fill="#1F8A4C" clip-path="url(#satori_cp-id)" mask="url(#satori_om-id)"/><path width="384" height="400" clip-path="url(#satori_bc-id-6)" fill="none" stroke="#101010" stroke-width="4" d="M528,70 A0,0 0 0 1 528,70 h384 a0,0 0 0 1 0,0 v400 a0,0 0 0 1 0,0 h-384 a0,0 0 0 1 0,0 v-400 A0,0 0 0 1 528,70"/><defs><clipPath id="satori_bc-id-7" clip-path="url(#satori_cp-id)"><rect x="680" y="184" width="198" height="198"/></clipPath></defs><mask id="satori_om-id-7"><rect x="682" y="186" width="194" height="194" fill="#fff" mask="url(#satori_om-id)"/><path width="198" height="198" fill="none" stroke="#000" stroke-width="4" d="M680,184 A0,0 0 0 1 680,184 h198 a0,0 0 0 1 0,0 v198 a0,0 0 0 1 0,0 h-198 a0,0 0 0 1 0,0 v-198 A0,0 0 0 1 680,184"/></mask><rect x="680" y="184" width="198" height="198" fill="#E85A1F" clip-path="url(#satori_cp-id)" mask="url(#satori_om-id)"/><path width="198" height="198" clip-path="url(#satori_bc-id-7)" fill="none" stroke="#101010" stroke-width="4" d="M680,184 A0,0 0 0 1 680,184 h198 a0,0 0 0 1 0,0 v198 a0,0 0 0 1 0,0 h-198 a0,0 0 0 1 0,0 v-198 A0,0 0 0 1 680,184"/><defs><clipPath id="satori_bc-id-8" clip-path="url(#satori_cp-id)"><rect x="670" y="174" width="194" height="194"/></clipPath></defs><mask id="satori_om-id-8"><rect x="672" y="176" width="190" height="190" fill="#fff" mask="url(#satori_om-id)"/><path width="194" height="194" fill="none" stroke="#000" stroke-width="4" d="M670,174 A0,0 0 0 1 670,174 h194 a0,0 0 0 1 0,0 v194 a0,0 0 0 1 0,0 h-194 a0,0 0 0 1 0,0 v-194 A0,0 0 0 1 670,174"/></mask><rect x="670" y="174" width="194" height="194" fill="#E966A6" clip-path="url(#satori_cp-id)" mask="url(#satori_om-id)"/><path width="194" height="194" clip-path="url(#satori_bc-id-8)" fill="none" stroke="#101010" stroke-width="4" d="M670,174 A0,0 0 0 1 670,174 h194 a0,0 0 0 1 0,0 v194 a0,0 0 0 1 0,0 h-194 a0,0 0 0 1 0,0 v-194 A0,0 0 0 1 670,174"/><defs><clipPath id="satori_bc-id-9" clip-path="url(#satori_cp-id)"><rect x="704" y="216" width="124" height="86"/></clipPath></defs><mask id="satori_om-id-9"><rect x="706" y="218" width="120" height="82" fill="#fff" mask="url(#satori_om-id)"/><path width="124" height="86" transform="matrix(0.99,-0.12,0.12,0.99,-25.85,95.28)" fill="none" stroke="#000" stroke-width="4" d="M704,216 A0,0 0 0 1 704,216 h124 a0,0 0 0 1 0,0 v86 a0,0 0 0 1 0,0 h-124 a0,0 0 0 1 0,0 v-86 A0,0 0 0 1 704,216"/></mask><g clip-path="url(#satori_cp-id)" mask="url(#satori_om-id)"><rect x="704" y="216" width="124" height="86" fill="#F2C7D8" transform="matrix(0.99,-0.12,0.12,0.99,-25.85,95.28)"/><path width="124" height="86" transform="matrix(0.99,-0.12,0.12,0.99,-25.85,95.28)" clip-path="url(#satori_bc-id-9)" fill="none" stroke="#101010" stroke-width="4" d="M704,216 A0,0 0 0 1 704,216 h124 a0,0 0 0 1 0,0 v86 a0,0 0 0 1 0,0 h-124 a0,0 0 0 1 0,0 v-86 A0,0 0 0 1 704,216"/></g><mask id="satori_om-id-10"><rect x="706" y="294" width="120" height="17" fill="#fff" mask="url(#satori_om-id)"/></mask><g clip-path="url(#satori_cp-id)" mask="url(#satori_om-id)"><rect x="706" y="294" width="120" height="17" fill="#D24784" transform="matrix(0.99,-0.12,0.12,0.99,-31.16,95.61)"/></g><mask id="satori_om-id-11"><rect x="799" y="482" width="129" height="40" fill="#fff" mask="url(#satori_om-id)"/></mask><text x="799" y="517" width="44.05078125" height="39.9" font-weight="900" font-style="normal" font-size="42" font-family="svglidemetric" clip-path="url(#satori_cp-id)" fill="#101010">01</text><text x="843.05078125" y="517" width="12.6533203125" height="39.9" font-weight="900" font-style="normal" font-size="42" font-family="svglidemetric" clip-path="url(#satori_cp-id)" fill="#101010"> </text><text x="855.7041015625" y="517" width="15.421875" height="39.9" font-weight="900" font-style="normal" font-size="42" font-family="svglidemetric" clip-path="url(#satori_cp-id)" fill="#101010">*</text><text x="871.1259765625" y="517" width="12.6533203125" height="39.9" font-weight="900" font-style="normal" font-size="42" font-family="svglidemetric" clip-path="url(#satori_cp-id)" fill="#101010"> </text><text x="883.779296875" y="517" width="44.05078125" height="39.9" font-weight="900" font-style="normal" font-size="42" font-family="svglidemetric" clip-path="url(#satori_cp-id)" fill="#101010">08</text></svg>