<svg width="960" height="540" viewBox="0 0 960 540" xmlns="http://www.w3.org/2000/svg"><clipPath id="satori_cp-id"><rect x="0" y="0" width="960" height="540"/></clipPath><mask id="satori_om-id"><rect x="0" y="0" width="960" height="540" fill="#fff"/></mask><rect x="0" y="0" width="960" height="540" fill="#F5F0E6"/><mask id="satori_om-id-0"><rect x="-24" y="-10" width="92" height="92" fill="#fff" mask="url(#satori_om-id)"/></mask><defs><clipPath id="satori_bc-id-0-0" clip-path="url(#satori_cp-id)"><path x="25" y="5" width="36" height="62" d="M43,5 h0 a18,18 0 0 1 18,18 v26 a18,18 0 0 1 -18,18 h0 a18,18 0 0 1 -18,-18 v-26 a18,18 0 0 1 18,-18"/></clipPath></defs><mask id="satori_om-id-0-0"><rect x="27" y="7" width="32" height="58" fill="#fff" mask="url(#satori_om-id)"/><path width="36" height="62" transform="matrix(1.00,0.00,0.00,1.00,0.00,0.00)" fill="none" stroke="#000" stroke-width="4" d="M30.272,10.272 A18,18 0 0 1 43,5 h0 a18,18 0 0 1 18,18 v26 a18,18 0 0 1 -18,18 h0 a18,18 0 0 1 -18,-18 v-26 A18,18 0 0 1 30.272,10.272"/></mask><g clip-path="url(#satori_cp-id)" mask="url(#satori_om-id)"><path x="25" y="5" width="36" height="62" fill="#FFFFFF" d="M43,5 h0 a18,18 0 0 1 18,18 v26 a18,18 0 0 1 -18,18 h0 a18,18 0 0 1 -18,-18 v-26 a18,18 0 0 1 18,-18" transform="matrix(1.00,0.00,0.00,1.00,0.00,0.00)"/><path width="36" height="62" transform="matrix(1.00,0.00,0.00,1.00,0.00,0.00)" clip-path="url(#satori_bc-id-0-0)" fill="none" stroke="#2D2D2D" stroke-width="4" d="M30.272,10.272 A18,18 0 0 1 43,5 h0 a18,18 0 0 1 18,18 v26 a18,18 0 0 1 -18,18 h0 a18,18 0 0 1 -18,-18 v-26 A18,18 0 0 1 30.272,10.272"/></g><defs><clipPath id="satori_bc-id-0-1" clip-path="url(#satori_cp-id)"><path x="19" y="20" width="36" height="62" d="M37,20 h0 a18,18 0 0 1 18,18 v26 a18,18 0 0 1 -18,18 h0 a18,18 0 0 1 -18,-18 v-26 a18,18 0 0 1 18,-18"/></clipPath></defs><mask id="satori_om-id-0-1"><rect x="21" y="22" width="32" height="58" fill="#fff" mask="url(#satori_om-id)"/><path width="36" height="62" transform="matrix(0.71,0.71,-0.71,0.71,46.90,-11.23)" fill="none" stroke="#000" stroke-width="4" d="M24.272,25.272 A18,18 0 0 1 37,20 h0 a18,18 0 0 1 18,18 v26 a18,18 0 0 1 -18,18 h0 a18,18 0 0 1 -18,-18 v-26 A18,18 0 0 1 24.272,25.272"/></mask><g opacity="0.96"><g clip-path="url(#satori_cp-id)" mask="url(#satori_om-id)"><path x="19" y="20" width="36" height="62" fill="#FFFFFF" d="M37,20 h0 a18,18 0 0 1 18,18 v26 a18,18 0 0 1 -18,18 h0 a18,18 0 0 1 -18,-18 v-26 a18,18 0 0 1 18,-18" transform="matrix(0.71,0.71,-0.71,0.71,46.90,-11.23)"/><path width="36" height="62" transform="matrix(0.71,0.71,-0.71,0.71,46.90,-11.23)" clip-path="url(#satori_bc-id-0-1)" fill="none" stroke="#2D2D2D" stroke-width="4" d="M24.272,25.272 A18,18 0 0 1 37,20 h0 a18,18 0 0 1 18,18 v26 a18,18 0 0 1 -18,18 h0 a18,18 0 0 1 -18,-18 v-26 A18,18 0 0 1 24.272,25.272"/></g></g><defs><clipPath id="satori_bc-id-0-2" clip-path="url(#satori_cp-id)"><path x="4" y="26" width="36" height="62" d="M22,26 h0 a18,18 0 0 1 18,18 v26 a18,18 0 0 1 -18,18 h0 a18,18 0 0 1 -18,-18 v-26 a18,18 0 0 1 18,-18"/></clipPath></defs><mask id="satori_om-id-0-2"><rect x="6" y="28" width="32" height="58" fill="#fff" mask="url(#satori_om-id)"/><path width="36" height="62" transform="matrix(0.00,1.00,-1.00,0.00,79.00,35.00)" fill="none" stroke="#000" stroke-width="4" d="M9.272,31.272 A18,18 0 0 1 22,26 h0 a18,18 0 0 1 18,18 v26 a18,18 0 0 1 -18,18 h0 a18,18 0 0 1 -18,-18 v-26 A18,18 0 0 1 9.272,31.272"/></mask><g clip-path="url(#satori_cp-id)" mask="url(#satori_om-id)"><path x="4" y="26" width="36" height="62" fill="#FFFFFF" d="M22,26 h0 a18,18 0 0 1 18,18 v26 a18,18 0 0 1 -18,18 h0 a18,18 0 0 1 -18,-18 v-26 a18,18 0 0 1 18,-18" transform="matrix(0.00,1.00,-1.00,0.00,79.00,35.00)"/><path width="36" height="62" transform="matrix(0.00,1.00,-1.00,0.00,79.00,35.00)" clip-path="url(#satori_bc-id-0-2)" fill="none" stroke="#2D2D2D" stroke-width="4" d="M9.272,31.272 A18,18 0 0 1 22,26 h0 a18,18 0 0 1 18,18 v26 a18,18 0 0 1 -18,18 h0 a18,18 0 0 1 -18,-18 v-26 A18,18 0 0 1 9.272,31.272"/></g><defs><clipPath id="satori_bc-id-0-3" clip-path="url(#satori_cp-id)"><path x="-11" y="20" width="36" height="62" d="M7,20 h0 a18,18 0 0 1 18,18 v26 a18,18 0 0 1 -18,18 h0 a18,18 0 0 1 -18,-18 v-26 a18,18 0 0 1 18,-18"/></clipPath></defs><mask id="satori_om-id-0-3"><rect x="-9" y="22" width="32" height="58" fill="#fff" mask="url(#satori_om-id)"/><path width="36" height="62" transform="matrix(-0.71,0.71,-0.71,-0.71,48.01,82.11)" fill="none" stroke="#000" stroke-width="4" d="M-5.728,25.272 A18,18 0 0 1 7,20 h0 a18,18 0 0 1 18,18 v26 a18,18 0 0 1 -18,18 h0 a18,18 0 0 1 -18,-18 v-26 A18,18 0 0 1 -5.728,25.272"/></mask><g opacity="0.96"><g clip-path="url(#satori_cp-id)" mask="url(#satori_om-id)"><path x="-11" y="20" width="36" height="62" fill="#FFFFFF" d="M7,20 h0 a18,18 0 0 1 18,18 v26 a18,18 0 0 1 -18,18 h0 a18,18 0 0 1 -18,-18 v-26 a18,18 0 0 1 18,-18" transform="matrix(-0.71,0.71,-0.71,-0.71,48.01,82.11)"/><path width="36" height="62" transform="matrix(-0.71,0.71,-0.71,-0.71,48.01,82.11)" clip-path="url(#satori_bc-id-0-3)" fill="none" stroke="#2D2D2D" stroke-width="4" d="M-5.728,25.272 A18,18 0 0 1 7,20 h0 a18,18 0 0 1 18,18 v26 a18,18 0 0 1 -18,18 h0 a18,18 0 0 1 -18,-18 v-26 A18,18 0 0 1 -5.728,25.272"/></g></g><defs><clipPath id="satori_bc-id-0-4" clip-path="url(#satori_cp-id)"><path x="-17" y="5" width="36" height="62" d="M1,5 h0 a18,18 0 0 1 18,18 v26 a18,18 0 0 1 -18,18 h0 a18,18 0 0 1 -18,-18 v-26 a18,18 0 0 1 18,-18"/></clipPath></defs><mask id="satori_om-id-0-4"><rect x="-15" y="7" width="32" height="58" fill="#fff" mask="url(#satori_om-id)"/><path width="36" height="62" transform="matrix(-1.00,0.00,-0.00,-1.00,2.00,72.00)" fill="none" stroke="#000" stroke-width="4" d="M-11.728,10.272 A18,18 0 0 1 1,5 h0 a18,18 0 0 1 18,18 v26 a18,18 0 0 1 -18,18 h0 a18,18 0 0 1 -18,-18 v-26 A18,18 0 0 1 -11.728,10.272"/></mask><g clip-path="url(#satori_cp-id)" mask="url(#satori_om-id)"><path x="-17" y="5" width="36" height="62" fill="#FFFFFF" d="M1,5 h0 a18,18 0 0 1 18,18 v26 a18,18 0 0 1 -18,18 h0 a18,18 0 0 1 -18,-18 v-26 a18,18 0 0 1 18,-18" transform="matrix(-1.00,0.00,-0.00,-1.00,2.00,72.00)"/><path width="36" height="62" transform="matrix(-1.00,0.00,-0.00,-1.00,2.00,72.00)" clip-path="url(#satori_bc-id-0-4)" fill="none" stroke="#2D2D2D" stroke-width="4" d="M-11.728,10.272 A18,18 0 0 1 1,5 h0 a18,18 0 0 1 18,18 v26 a18,18 0 0 1 -18,18 h0 a18,18 0 0 1 -18,-18 v-26 A18,18 0 0 1 -11.728,10.272"/></g><defs><clipPath id="satori_bc-id-0-5" clip-path="url(#satori_cp-id)"><path x="-11" y="-10" width="36" height="62" d="M7,-10 h0 a18,18 0 0 1 18,18 v26 a18,18 0 0 1 -18,18 h0 a18,18 0 0 1 -18,-18 v-26 a18,18 0 0 1 18,-18"/></clipPath></defs><mask id="satori_om-id-0-5"><rect x="-9" y="-8" width="32" height="58" fill="#fff" mask="url(#satori_om-id)"/><path width="36" height="62" transform="matrix(-0.71,-0.71,0.71,-0.71,-2.90,40.80)" fill="none" stroke="#000" stroke-width="4" d="M-5.728,-4.728 A18,18 0 0 1 7,-10 h0 a18,18 0 0 1 18,18 v26 a18,18 0 0 1 -18,18 h0 a18,18 0 0 1 -18,-18 v-26 A18,18 0 0 1 -5.728,-4.728"/></mask><g opacity="0.96"><g clip-path="url(#satori_cp-id)" mask="url(#satori_om-id)"><path x="-11" y="-10" width="36" height="62" fill="#FFFFFF" d="M7,-10 h0 a18,18 0 0 1 18,18 v26 a18,18 0 0 1 -18,18 h0 a18,18 0 0 1 -18,-18 v-26 a18,18 0 0 1 18,-18" transform="matrix(-0.71,-0.71,0.71,-0.71,-2.90,40.80)"/><path width="36" height="62" transform="matrix(-0.71,-0.71,0.71,-0.71,-2.90,40.80)" clip-path="url(#satori_bc-id-0-5)" fill="none" stroke="#2D2D2D" stroke-width="4" d="M-5.728,-4.728 A18,18 0 0 1 7,-10 h0 a18,18 0 0 1 18,18 v26 a18,18 0 0 1 -18,18 h0 a18,18 0 0 1 -18,-18 v-26 A18,18 0 0 1 -5.728,-4.728"/></g></g><defs><clipPath id="satori_bc-id-0-6" clip-path="url(#satori_cp-id)"><path x="4" y="-17" width="36" height="63" d="M22,-17 h0 a18,18 0 0 1 18,18 v27 a18,18 0 0 1 -18,18 h0 a18,18 0 0 1 -18,-18 v-27 a18,18 0 0 1 18,-18"/></clipPath></defs><mask id="satori_om-id-0-6"><rect x="6" y="-15" width="32" height="59" fill="#fff" mask="url(#satori_om-id)"/><path width="36" height="63" transform="matrix(-0.00,-1.00,1.00,-0.00,7.50,36.50)" fill="none" stroke="#000" stroke-width="4" d="M9.272,-11.728 A18,18 0 0 1 22,-17 h0 a18,18 0 0 1 18,18 v27 a18,18 0 0 1 -18,18 h0 a18,18 0 0 1 -18,-18 v-27 A18,18 0 0 1 9.272,-11.728"/></mask><g clip-path="url(#satori_cp-id)" mask="url(#satori_om-id)"><path x="4" y="-17" width="36" height="63" fill="#FFFFFF" d="M22,-17 h0 a18,18 0 0 1 18,18 v27 a18,18 0 0 1 -18,18 h0 a18,18 0 0 1 -18,-18 v-27 a18,18 0 0 1 18,-18" transform="matrix(-0.00,-1.00,1.00,-0.00,7.50,36.50)"/><path width="36" height="63" transform="matrix(-0.00,-1.00,1.00,-0.00,7.50,36.50)" clip-path="url(#satori_bc-id-0-6)" fill="none" stroke="#2D2D2D" stroke-width="4" d="M9.272,-11.728 A18,18 0 0 1 22,-17 h0 a18,18 0 0 1 18,18 v27 a18,18 0 0 1 -18,18 h0 a18,18 0 0 1 -18,-18 v-27 A18,18 0 0 1 9.272,-11.728"/></g><defs><clipPath id="satori_bc-id-0-7" clip-path="url(#satori_cp-id)"><path x="19" y="-10" width="36" height="62" d="M37,-10 h0 a18,18 0 0 1 18,18 v26 a18,18 0 0 1 -18,18 h0 a18,18 0 0 1 -18,-18 v-26 a18,18 0 0 1 18,-18"/></clipPath></defs><mask id="satori_om-id-0-7"><rect x="21" y="-8" width="32" height="58" fill="#fff" mask="url(#satori_om-id)"/><path width="36" height="62" transform="matrix(0.71,-0.71,0.71,0.71,-4.01,32.31)" fill="none" stroke="#000" stroke-width="4" d="M24.272,-4.728 A18,18 0 0 1 37,-10 h0 a18,18 0 0 1 18,18 v26 a18,18 0 0 1 -18,18 h0 a18,18 0 0 1 -18,-18 v-26 A18,18 0 0 1 24.272,-4.728"/></mask><g opacity="0.96"><g clip-path="url(#satori_cp-id)" mask="url(#satori_om-id)"><path x="19" y="-10" width="36" height="62" fill="#FFFFFF" d="M37,-10 h0 a18,18 0 0 1 18,18 v26 a18,18 0 0 1 -18,18 h0 a18,18 0 0 1 -18,-18 v-26 a18,18 0 0 1 18,-18" transform="matrix(0.71,-0.71,0.71,0.71,-4.01,32.31)"/><path width="36" height="62" transform="matrix(0.71,-0.71,0.71,0.71,-4.01,32.31)" clip-path="url(#satori_bc-id-0-7)" fill="none" stroke="#2D2D2D" stroke-width="4" d="M24.272,-4.728 A18,18 0 0 1 37,-10 h0 a18,18 0 0 1 18,18 v26 a18,18 0 0 1 -18,18 h0 a18,18 0 0 1 -18,-18 v-26 A18,18 0 0 1 24.272,-4.728"/></g></g><defs><clipPath id="satori_bc-id-0-8" clip-path="url(#satori_cp-id)"><path x="10" y="24" width="28" height="28" d="M23.939999999999998,24 h0.120000000000001 a13.94,13.94 0 0 1 13.94,13.94 v0.120000000000001 a13.94,13.94 0 0 1 -13.94,13.94 h-0.120000000000001 a13.94,13.94 0 0 1 -13.94,-13.94 v-0.120000000000001 a13.94,13.94 0 0 1 13.94,-13.94"/></clipPath></defs><mask id="satori_om-id-0-8"><rect x="12" y="26" width="24" height="24" fill="#fff" mask="url(#satori_om-id)"/><path width="28" height="28" fill="none" stroke="#000" stroke-width="4" d="M14.082999999999998,28.083 A13.94,13.94 0 0 1 23.939999999999998,24 h0.120000000000001 a13.94,13.94 0 0 1 13.94,13.94 v0.120000000000001 a13.94,13.94 0 0 1 -13.94,13.94 h-0.120000000000001 a13.94,13.94 0 0 1 -13.94,-13.94 v-0.120000000000001 A13.94,13.94 0 0 1 14.082999999999998,28.083"/></mask><path x="10" y="24" width="28" height="28" fill="#FDE68A" d="M23.939999999999998,24 h0.120000000000001 a13.94,13.94 0 0 1 13.94,13.94 v0.120000000000001 a13.94,13.94 0 0 1 -13.94,13.94 h-0.120000000000001 a13.94,13.94 0 0 1 -13.94,-13.94 v-0.120000000000001 a13.94,13.94 0 0 1 13.94,-13.94" clip-path="url(#satori_cp-id)" mask="url(#satori_om-id)"/><path width="28" height="28" clip-path="url(#satori_bc-id-0-8)" fill="none" stroke="#2D2D2D" stroke-width="4" d="M14.082999999999998,28.083 A13.94,13.94 0 0 1 23.939999999999998,24 h0.120000000000001 a13.94,13.94 0 0 1 13.94,13.94 v0.120000000000001 a13.94,13.94 0 0 1 -13.94,13.94 h-0.120000000000001 a13.94,13.94 0 0 1 -13.94,-13.94 v-0.120000000000001 A13.94,13.94 0 0 1 14.082999999999998,28.083"/><mask id="satori_om-id-1"><rect x="878" y="14" width="63" height="63" fill="#fff" mask="url(#satori_om-id)"/></mask><defs><clipPath id="satori_bc-id-1-0" clip-path="url(#satori_cp-id)"><path x="912" y="24" width="24" height="43" d="M924,24 h0 a12,12 0 0 1 12,12 v19 a12,12 0 0 1 -12,12 h0 a12,12 0 0 1 -12,-12 v-19 a12,12 0 0 1 12,-12"/></clipPath></defs><mask id="satori_om-id-1-0"><rect x="914" y="26" width="20" height="39" fill="#fff" mask="url(#satori_om-id)"/><path width="24" height="43" transform="matrix(1.00,0.00,0.00,1.00,0.00,0.00)" fill="none" stroke="#000" stroke-width="4" d="M915.515,27.515 A12,12 0 0 1 924,24 h0 a12,12 0 0 1 12,12 v19 a12,12 0 0 1 -12,12 h0 a12,12 0 0 1 -12,-12 v-19 A12,12 0 0 1 915.515,27.515"/></mask><g clip-path="url(#satori_cp-id)" mask="url(#satori_om-id)"><path x="912" y="24" width="24" height="43" fill="#FFFFFF" d="M924,24 h0 a12,12 0 0 1 12,12 v19 a12,12 0 0 1 -12,12 h0 a12,12 0 0 1 -12,-12 v-19 a12,12 0 0 1 12,-12" transform="matrix(1.00,0.00,0.00,1.00,0.00,0.00)"/><path width="24" height="43" transform="matrix(1.00,0.00,0.00,1.00,0.00,0.00)" clip-path="url(#satori_bc-id-1-0)" fill="none" stroke="#2D2D2D" stroke-width="4" d="M915.515,27.515 A12,12 0 0 1 924,24 h0 a12,12 0 0 1 12,12 v19 a12,12 0 0 1 -12,12 h0 a12,12 0 0 1 -12,-12 v-19 A12,12 0 0 1 915.515,27.515"/></g><defs><clipPath id="satori_bc-id-1-1" clip-path="url(#satori_cp-id)"><path x="907" y="34" width="25" height="43" d="M919.5,34 h0 a12.5,12.5 0 0 1 12.5,12.5 v18 a12.5,12.5 0 0 1 -12.5,12.5 h0 a12.5,12.5 0 0 1 -12.5,-12.5 v-18 a12.5,12.5 0 0 1 12.5,-12.5"/></clipPath></defs><mask id="satori_om-id-1-1"><rect x="909" y="36" width="21" height="39" fill="#fff" mask="url(#satori_om-id)"/><path width="25" height="43" transform="matrix(0.71,0.71,-0.71,0.71,308.56,-633.93)" fill="none" stroke="#000" stroke-width="4" d="M910.661,37.661 A12.5,12.5 0 0 1 919.5,34 h0 a12.5,12.5 0 0 1 12.5,12.5 v18 a12.5,12.5 0 0 1 -12.5,12.5 h0 a12.5,12.5 0 0 1 -12.5,-12.5 v-18 A12.5,12.5 0 0 1 910.661,37.661"/></mask><g opacity="0.96"><g clip-path="url(#satori_cp-id)" mask="url(#satori_om-id)"><path x="907" y="34" width="25" height="43" fill="#FFFFFF" d="M919.5,34 h0 a12.5,12.5 0 0 1 12.5,12.5 v18 a12.5,12.5 0 0 1 -12.5,12.5 h0 a12.5,12.5 0 0 1 -12.5,-12.5 v-18 a12.5,12.5 0 0 1 12.5,-12.5" transform="matrix(0.71,0.71,-0.71,0.71,308.56,-633.93)"/><path width="25" height="43" transform="matrix(0.71,0.71,-0.71,0.71,308.56,-633.93)" clip-path="url(#satori_bc-id-1-1)" fill="none" stroke="#2D2D2D" stroke-width="4" d="M910.661,37.661 A12.5,12.5 0 0 1 919.5,34 h0 a12.5,12.5 0 0 1 12.5,12.5 v18 a12.5,12.5 0 0 1 -12.5,12.5 h0 a12.5,12.5 0 0 1 -12.5,-12.5 v-18 A12.5,12.5 0 0 1 910.661,37.661"/></g></g><defs><clipPath id="satori_bc-id-1-2" clip-path="url(#satori_cp-id)"><path x="897" y="39" width="25" height="42" d="M909.5,39 h0 a12.5,12.5 0 0 1 12.5,12.5 v17 a12.5,12.5 0 0 1 -12.5,12.5 h0 a12.5,12.5 0 0 1 -12.5,-12.5 v-17 a12.5,12.5 0 0 1 12.5,-12.5"/></clipPath></defs><mask id="satori_om-id-1-2"><rect x="899" y="41" width="21" height="38" fill="#fff" mask="url(#satori_om-id)"/><path width="25" height="42" transform="matrix(0.00,1.00,-1.00,0.00,969.50,-849.50)" fill="none" stroke="#000" stroke-width="4" d="M900.661,42.661 A12.5,12.5 0 0 1 909.5,39 h0 a12.5,12.5 0 0 1 12.5,12.5 v17 a12.5,12.5 0 0 1 -12.5,12.5 h0 a12.5,12.5 0 0 1 -12.5,-12.5 v-17 A12.5,12.5 0 0 1 900.661,42.661"/></mask><g clip-path="url(#satori_cp-id)" mask="url(#satori_om-id)"><path x="897" y="39" width="25" height="42" fill="#FFFFFF" d="M909.5,39 h0 a12.5,12.5 0 0 1 12.5,12.5 v17 a12.5,12.5 0 0 1 -12.5,12.5 h0 a12.5,12.5 0 0 1 -12.5,-12.5 v-17 a12.5,12.5 0 0 1 12.5,-12.5" transform="matrix(0.00,1.00,-1.00,0.00,969.50,-849.50)"/><path width="25" height="42" transform="matrix(0.00,1.00,-1.00,0.00,969.50,-849.50)" clip-path="url(#satori_bc-id-1-2)" fill="none" stroke="#2D2D2D" stroke-width="4" d="M900.661,42.661 A12.5,12.5 0 0 1 909.5,39 h0 a12.5,12.5 0 0 1 12.5,12.5 v17 a12.5,12.5 0 0 1 -12.5,12.5 h0 a12.5,12.5 0 0 1 -12.5,-12.5 v-17 A12.5,12.5 0 0 1 900.661,42.661"/></g><defs><clipPath id="satori_bc-id-1-3" clip-path="url(#satori_cp-id)"><path x="887" y="34" width="24" height="43" d="M899,34 h0 a12,12 0 0 1 12,12 v19 a12,12 0 0 1 -12,12 h0 a12,12 0 0 1 -12,-12 v-19 a12,12 0 0 1 12,-12"/></clipPath></defs><mask id="satori_om-id-1-3"><rect x="889" y="36" width="20" height="39" fill="#fff" mask="url(#satori_om-id)"/><path width="24" height="43" transform="matrix(-0.71,0.71,-0.71,-0.71,1573.93,-540.94)" fill="none" stroke="#000" stroke-width="4" d="M890.515,37.515 A12,12 0 0 1 899,34 h0 a12,12 0 0 1 12,12 v19 a12,12 0 0 1 -12,12 h0 a12,12 0 0 1 -12,-12 v-19 A12,12 0 0 1 890.515,37.515"/></mask><g opacity="0.96"><g clip-path="url(#satori_cp-id)" mask="url(#satori_om-id)"><path x="887" y="34" width="24" height="43" fill="#FFFFFF" d="M899,34 h0 a12,12 0 0 1 12,12 v19 a12,12 0 0 1 -12,12 h0 a12,12 0 0 1 -12,-12 v-19 a12,12 0 0 1 12,-12" transform="matrix(-0.71,0.71,-0.71,-0.71,1573.93,-540.94)"/><path width="24" height="43" transform="matrix(-0.71,0.71,-0.71,-0.71,1573.93,-540.94)" clip-path="url(#satori_bc-id-1-3)" fill="none" stroke="#2D2D2D" stroke-width="4" d="M890.515,37.515 A12,12 0 0 1 899,34 h0 a12,12 0 0 1 12,12 v19 a12,12 0 0 1 -12,12 h0 a12,12 0 0 1 -12,-12 v-19 A12,12 0 0 1 890.515,37.515"/></g></g><defs><clipPath id="satori_bc-id-1-4" clip-path="url(#satori_cp-id)"><path x="882" y="24" width="25" height="43" d="M894.5,24 h0 a12.5,12.5 0 0 1 12.5,12.5 v18 a12.5,12.5 0 0 1 -12.5,12.5 h0 a12.5,12.5 0 0 1 -12.5,-12.5 v-18 a12.5,12.5 0 0 1 12.5,-12.5"/></clipPath></defs><mask id="satori_om-id-1-4"><rect x="884" y="26" width="21" height="39" fill="#fff" mask="url(#satori_om-id)"/><path width="25" height="43" transform="matrix(-1.00,0.00,-0.00,-1.00,1789.00,91.00)" fill="none" stroke="#000" stroke-width="4" d="M885.661,27.661 A12.5,12.5 0 0 1 894.5,24 h0 a12.5,12.5 0 0 1 12.5,12.5 v18 a12.5,12.5 0 0 1 -12.5,12.5 h0 a12.5,12.5 0 0 1 -12.5,-12.5 v-18 A12.5,12.5 0 0 1 885.661,27.661"/></mask><g clip-path="url(#satori_cp-id)" mask="url(#satori_om-id)"><path x="882" y="24" width="25" height="43" fill="#FFFFFF" d="M894.5,24 h0 a12.5,12.5 0 0 1 12.5,12.5 v18 a12.5,12.5 0 0 1 -12.5,12.5 h0 a12.5,12.5 0 0 1 -12.5,-12.5 v-18 a12.5,12.5 0 0 1 12.5,-12.5" transform="matrix(-1.00,0.00,-0.00,-1.00,1789.00,91.00)"/><path width="25" height="43" transform="matrix(-1.00,0.00,-0.00,-1.00,1789.00,91.00)" clip-path="url(#satori_bc-id-1-4)" fill="none" stroke="#2D2D2D" stroke-width="4" d="M885.661,27.661 A12.5,12.5 0 0 1 894.5,24 h0 a12.5,12.5 0 0 1 12.5,12.5 v18 a12.5,12.5 0 0 1 -12.5,12.5 h0 a12.5,12.5 0 0 1 -12.5,-12.5 v-18 A12.5,12.5 0 0 1 885.661,27.661"/></g><defs><clipPath id="satori_bc-id-1-5" clip-path="url(#satori_cp-id)"><path x="887" y="14" width="24" height="42" d="M899,14 h0 a12,12 0 0 1 12,12 v18 a12,12 0 0 1 -12,12 h0 a12,12 0 0 1 -12,-12 v-18 a12,12 0 0 1 12,-12"/></clipPath></defs><mask id="satori_om-id-1-5"><rect x="889" y="16" width="20" height="38" fill="#fff" mask="url(#satori_om-id)"/><path width="24" height="42" transform="matrix(-0.71,-0.71,0.71,-0.71,1509.94,695.44)" fill="none" stroke="#000" stroke-width="4" d="M890.515,17.515 A12,12 0 0 1 899,14 h0 a12,12 0 0 1 12,12 v18 a12,12 0 0 1 -12,12 h0 a12,12 0 0 1 -12,-12 v-18 A12,12 0 0 1 890.515,17.515"/></mask><g opacity="0.96"><g clip-path="url(#satori_cp-id)" mask="url(#satori_om-id)"><path x="887" y="14" width="24" height="42" fill="#FFFFFF" d="M899,14 h0 a12,12 0 0 1 12,12 v18 a12,12 0 0 1 -12,12 h0 a12,12 0 0 1 -12,-12 v-18 a12,12 0 0 1 12,-12" transform="matrix(-0.71,-0.71,0.71,-0.71,1509.94,695.44)"/><path width="24" height="42" transform="matrix(-0.71,-0.71,0.71,-0.71,1509.94,695.44)" clip-path="url(#satori_bc-id-1-5)" fill="none" stroke="#2D2D2D" stroke-width="4" d="M890.515,17.515 A12,12 0 0 1 899,14 h0 a12,12 0 0 1 12,12 v18 a12,12 0 0 1 -12,12 h0 a12,12 0 0 1 -12,-12 v-18 A12,12 0 0 1 890.515,17.515"/></g></g><defs><clipPath id="satori_bc-id-1-6" clip-path="url(#satori_cp-id)"><path x="897" y="10" width="25" height="42" d="M909.5,10 h0 a12.5,12.5 0 0 1 12.5,12.5 v17 a12.5,12.5 0 0 1 -12.5,12.5 h0 a12.5,12.5 0 0 1 -12.5,-12.5 v-17 a12.5,12.5 0 0 1 12.5,-12.5"/></clipPath></defs><mask id="satori_om-id-1-6"><rect x="899" y="12" width="21" height="38" fill="#fff" mask="url(#satori_om-id)"/><path width="25" height="42" transform="matrix(-0.00,-1.00,1.00,-0.00,878.50,940.50)" fill="none" stroke="#000" stroke-width="4" d="M900.661,13.661 A12.5,12.5 0 0 1 909.5,10 h0 a12.5,12.5 0 0 1 12.5,12.5 v17 a12.5,12.5 0 0 1 -12.5,12.5 h0 a12.5,12.5 0 0 1 -12.5,-12.5 v-17 A12.5,12.5 0 0 1 900.661,13.661"/></mask><g clip-path="url(#satori_cp-id)" mask="url(#satori_om-id)"><path x="897" y="10" width="25" height="42" fill="#FFFFFF" d="M909.5,10 h0 a12.5,12.5 0 0 1 12.5,12.5 v17 a12.5,12.5 0 0 1 -12.5,12.5 h0 a12.5,12.5 0 0 1 -12.5,-12.5 v-17 a12.5,12.5 0 0 1 12.5,-12.5" transform="matrix(-0.00,-1.00,1.00,-0.00,878.50,940.50)"/><path width="25" height="42" transform="matrix(-0.00,-1.00,1.00,-0.00,878.50,940.50)" clip-path="url(#satori_bc-id-1-6)" fill="none" stroke="#2D2D2D" stroke-width="4" d="M900.661,13.661 A12.5,12.5 0 0 1 909.5,10 h0 a12.5,12.5 0 0 1 12.5,12.5 v17 a12.5,12.5 0 0 1 -12.5,12.5 h0 a12.5,12.5 0 0 1 -12.5,-12.5 v-17 A12.5,12.5 0 0 1 900.661,13.661"/></g><defs><clipPath id="satori_bc-id-1-7" clip-path="url(#satori_cp-id)"><path x="907" y="14" width="25" height="42" d="M919.5,14 h0 a12.5,12.5 0 0 1 12.5,12.5 v17 a12.5,12.5 0 0 1 -12.5,12.5 h0 a12.5,12.5 0 0 1 -12.5,-12.5 v-17 a12.5,12.5 0 0 1 12.5,-12.5"/></clipPath></defs><mask id="satori_om-id-1-7"><rect x="909" y="16" width="21" height="38" fill="#fff" mask="url(#satori_om-id)"/><path width="25" height="42" transform="matrix(0.71,-0.71,0.71,0.71,244.57,660.44)" fill="none" stroke="#000" stroke-width="4" d="M910.661,17.661 A12.5,12.5 0 0 1 919.5,14 h0 a12.5,12.5 0 0 1 12.5,12.5 v17 a12.5,12.5 0 0 1 -12.5,12.5 h0 a12.5,12.5 0 0 1 -12.5,-12.5 v-17 A12.5,12.5 0 0 1 910.661,17.661"/></mask><g opacity="0.96"><g clip-path="url(#satori_cp-id)" mask="url(#satori_om-id)"><path x="907" y="14" width="25" height="42" fill="#FFFFFF" d="M919.5,14 h0 a12.5,12.5 0 0 1 12.5,12.5 v17 a12.5,12.5 0 0 1 -12.5,12.5 h0 a12.5,12.5 0 0 1 -12.5,-12.5 v-17 a12.5,12.5 0 0 1 12.5,-12.5" transform="matrix(0.71,-0.71,0.71,0.71,244.57,660.44)"/><path width="25" height="42" transform="matrix(0.71,-0.71,0.71,0.71,244.57,660.44)" clip-path="url(#satori_bc-id-1-7)" fill="none" stroke="#2D2D2D" stroke-width="4" d="M910.661,17.661 A12.5,12.5 0 0 1 919.5,14 h0 a12.5,12.5 0 0 1 12.5,12.5 v17 a12.5,12.5 0 0 1 -12.5,12.5 h0 a12.5,12.5 0 0 1 -12.5,-12.5 v-17 A12.5,12.5 0 0 1 910.661,17.661"/></g></g><defs><clipPath id="satori_bc-id-1-8" clip-path="url(#satori_cp-id)"><path x="902" y="38" width="19" height="19" d="M911.5,38 h0 a9.5,9.5 0 0 1 9.5,9.5 v0 a9.5,9.5 0 0 1 -9.5,9.5 h0 a9.5,9.5 0 0 1 -9.5,-9.5 v0 a9.5,9.5 0 0 1 9.5,-9.5"/></clipPath></defs><mask id="satori_om-id-1-8"><rect x="904" y="40" width="15" height="15" fill="#fff" mask="url(#satori_om-id)"/><path width="19" height="19" fill="none" stroke="#000" stroke-width="4" d="M904.782,40.782 A9.5,9.5 0 0 1 911.5,38 h0 a9.5,9.5 0 0 1 9.5,9.5 v0 a9.5,9.5 0 0 1 -9.5,9.5 h0 a9.5,9.5 0 0 1 -9.5,-9.5 v0 A9.5,9.5 0 0 1 904.782,40.782"/></mask><path x="902" y="38" width="19" height="19" fill="#FDE68A" d="M911.5,38 h0 a9.5,9.5 0 0 1 9.5,9.5 v0 a9.5,9.5 0 0 1 -9.5,9.5 h0 a9.5,9.5 0 0 1 -9.5,-9.5 v0 a9.5,9.5 0 0 1 9.5,-9.5" clip-path="url(#satori_cp-id)" mask="url(#satori_om-id)"/><path width="19" height="19" clip-path="url(#satori_bc-id-1-8)" fill="none" stroke="#2D2D2D" stroke-width="4" d="M904.782,40.782 A9.5,9.5 0 0 1 911.5,38 h0 a9.5,9.5 0 0 1 9.5,9.5 v0 a9.5,9.5 0 0 1 -9.5,9.5 h0 a9.5,9.5 0 0 1 -9.5,-9.5 v0 A9.5,9.5 0 0 1 904.782,40.782"/><mask id="satori_om-id-2"><rect x="22" y="462" width="78" height="78" fill="#fff" mask="url(#satori_om-id)"/></mask><defs><clipPath id="satori_bc-id-2-0" clip-path="url(#satori_cp-id)"><path x="64" y="475" width="31" height="53" d="M79.5,475 h0 a15.5,15.5 0 0 1 15.5,15.5 v22 a15.5,15.5 0 0 1 -15.5,15.5 h0 a15.5,15.5 0 0 1 -15.5,-15.5 v-22 a15.5,15.5 0 0 1 15.5,-15.5"/></clipPath></defs><mask id="satori_om-id-2-0"><rect x="66" y="477" width="27" height="49" fill="#fff" mask="url(#satori_om-id)"/><path width="31" height="53" transform="matrix(1.00,0.00,0.00,1.00,0.00,0.00)" fill="none" stroke="#000" stroke-width="4" d="M68.53999999999999,479.54 A15.5,15.5 0 0 1 79.5,475 h0 a15.5,15.5 0 0 1 15.5,15.5 v22 a15.5,15.5 0 0 1 -15.5,15.5 h0 a15.5,15.5 0 0 1 -15.5,-15.5 v-22 A15.5,15.5 0 0 1 68.53999999999999,479.54"/></mask><g clip-path="url(#satori_cp-id)" mask="url(#satori_om-id)"><path x="64" y="475" width="31" height="53" fill="#FFFFFF" d="M79.5,475 h0 a15.5,15.5 0 0 1 15.5,15.5 v22 a15.5,15.5 0 0 1 -15.5,15.5 h0 a15.5,15.5 0 0 1 -15.5,-15.5 v-22 a15.5,15.5 0 0 1 15.5,-15.5" transform="matrix(1.00,0.00,0.00,1.00,0.00,0.00)"/><path width="31" height="53" transform="matrix(1.00,0.00,0.00,1.00,0.00,0.00)" clip-path="url(#satori_bc-id-2-0)" fill="none" stroke="#2D2D2D" stroke-width="4" d="M68.53999999999999,479.54 A15.5,15.5 0 0 1 79.5,475 h0 a15.5,15.5 0 0 1 15.5,15.5 v22 a15.5,15.5 0 0 1 -15.5,15.5 h0 a15.5,15.5 0 0 1 -15.5,-15.5 v-22 A15.5,15.5 0 0 1 68.53999999999999,479.54"/></g><defs><clipPath id="satori_bc-id-2-1" clip-path="url(#satori_cp-id)"><path x="59" y="487" width="30" height="54" d="M74,487 h0 a15,15 0 0 1 15,15 v24 a15,15 0 0 1 -15,15 h0 a15,15 0 0 1 -15,-15 v-24 a15,15 0 0 1 15,-15"/></clipPath></defs><mask id="satori_om-id-2-1"><rect x="61" y="489" width="26" height="50" fill="#fff" mask="url(#satori_om-id)"/><path width="30" height="54" transform="matrix(0.71,0.71,-0.71,0.71,385.13,98.22)" fill="none" stroke="#000" stroke-width="4" d="M63.393,491.39300000000003 A15,15 0 0 1 74,487 h0 a15,15 0 0 1 15,15 v24 a15,15 0 0 1 -15,15 h0 a15,15 0 0 1 -15,-15 v-24 A15,15 0 0 1 63.393,491.39300000000003"/></mask><g opacity="0.96"><g clip-path="url(#satori_cp-id)" mask="url(#satori_om-id)"><path x="59" y="487" width="30" height="54" fill="#FFFFFF" d="M74,487 h0 a15,15 0 0 1 15,15 v24 a15,15 0 0 1 -15,15 h0 a15,15 0 0 1 -15,-15 v-24 a15,15 0 0 1 15,-15" transform="matrix(0.71,0.71,-0.71,0.71,385.13,98.22)"/><path width="30" height="54" transform="matrix(0.71,0.71,-0.71,0.71,385.13,98.22)" clip-path="url(#satori_bc-id-2-1)" fill="none" stroke="#2D2D2D" stroke-width="4" d="M63.393,491.39300000000003 A15,15 0 0 1 74,487 h0 a15,15 0 0 1 15,15 v24 a15,15 0 0 1 -15,15 h0 a15,15 0 0 1 -15,-15 v-24 A15,15 0 0 1 63.393,491.39300000000003"/></g></g><defs><clipPath id="satori_bc-id-2-2" clip-path="url(#satori_cp-id)"><path x="46" y="493" width="31" height="53" d="M61.5,493 h0 a15.5,15.5 0 0 1 15.5,15.5 v22 a15.5,15.5 0 0 1 -15.5,15.5 h0 a15.5,15.5 0 0 1 -15.5,-15.5 v-22 a15.5,15.5 0 0 1 15.5,-15.5"/></clipPath></defs><mask id="satori_om-id-2-2"><rect x="48" y="495" width="27" height="49" fill="#fff" mask="url(#satori_om-id)"/><path width="31" height="53" transform="matrix(0.00,1.00,-1.00,0.00,581.00,458.00)" fill="none" stroke="#000" stroke-width="4" d="M50.54,497.54 A15.5,15.5 0 0 1 61.5,493 h0 a15.5,15.5 0 0 1 15.5,15.5 v22 a15.5,15.5 0 0 1 -15.5,15.5 h0 a15.5,15.5 0 0 1 -15.5,-15.5 v-22 A15.5,15.5 0 0 1 50.54,497.54"/></mask><g clip-path="url(#satori_cp-id)" mask="url(#satori_om-id)"><path x="46" y="493" width="31" height="53" fill="#FFFFFF" d="M61.5,493 h0 a15.5,15.5 0 0 1 15.5,15.5 v22 a15.5,15.5 0 0 1 -15.5,15.5 h0 a15.5,15.5 0 0 1 -15.5,-15.5 v-22 a15.5,15.5 0 0 1 15.5,-15.5" transform="matrix(0.00,1.00,-1.00,0.00,581.00,458.00)"/><path width="31" height="53" transform="matrix(0.00,1.00,-1.00,0.00,581.00,458.00)" clip-path="url(#satori_bc-id-2-2)" fill="none" stroke="#2D2D2D" stroke-width="4" d="M50.54,497.54 A15.5,15.5 0 0 1 61.5,493 h0 a15.5,15.5 0 0 1 15.5,15.5 v22 a15.5,15.5 0 0 1 -15.5,15.5 h0 a15.5,15.5 0 0 1 -15.5,-15.5 v-22 A15.5,15.5 0 0 1 50.54,497.54"/></g><defs><clipPath id="satori_bc-id-2-3" clip-path="url(#satori_cp-id)"><path x="33" y="487" width="31" height="54" d="M48.5,487 h0 a15.5,15.5 0 0 1 15.5,15.5 v23 a15.5,15.5 0 0 1 -15.5,15.5 h0 a15.5,15.5 0 0 1 -15.5,-15.5 v-23 a15.5,15.5 0 0 1 15.5,-15.5"/></clipPath></defs><mask id="satori_om-id-2-3"><rect x="35" y="489" width="27" height="50" fill="#fff" mask="url(#satori_om-id)"/><path width="31" height="54" transform="matrix(-0.71,0.71,-0.71,-0.71,446.25,843.16)" fill="none" stroke="#000" stroke-width="4" d="M37.54,491.54 A15.5,15.5 0 0 1 48.5,487 h0 a15.5,15.5 0 0 1 15.5,15.5 v23 a15.5,15.5 0 0 1 -15.5,15.5 h0 a15.5,15.5 0 0 1 -15.5,-15.5 v-23 A15.5,15.5 0 0 1 37.54,491.54"/></mask><g opacity="0.96"><g clip-path="url(#satori_cp-id)" mask="url(#satori_om-id)"><path x="33" y="487" width="31" height="54" fill="#FFFFFF" d="M48.5,487 h0 a15.5,15.5 0 0 1 15.5,15.5 v23 a15.5,15.5 0 0 1 -15.5,15.5 h0 a15.5,15.5 0 0 1 -15.5,-15.5 v-23 a15.5,15.5 0 0 1 15.5,-15.5" transform="matrix(-0.71,0.71,-0.71,-0.71,446.25,843.16)"/><path width="31" height="54" transform="matrix(-0.71,0.71,-0.71,-0.71,446.25,843.16)" clip-path="url(#satori_bc-id-2-3)" fill="none" stroke="#2D2D2D" stroke-width="4" d="M37.54,491.54 A15.5,15.5 0 0 1 48.5,487 h0 a15.5,15.5 0 0 1 15.5,15.5 v23 a15.5,15.5 0 0 1 -15.5,15.5 h0 a15.5,15.5 0 0 1 -15.5,-15.5 v-23 A15.5,15.5 0 0 1 37.54,491.54"/></g></g><defs><clipPath id="satori_bc-id-2-4" clip-path="url(#satori_cp-id)"><path x="28" y="475" width="30" height="53" d="M43,475 h0 a15,15 0 0 1 15,15 v23 a15,15 0 0 1 -15,15 h0 a15,15 0 0 1 -15,-15 v-23 a15,15 0 0 1 15,-15"/></clipPath></defs><mask id="satori_om-id-2-4"><rect x="30" y="477" width="26" height="49" fill="#fff" mask="url(#satori_om-id)"/><path width="30" height="53" transform="matrix(-1.00,0.00,-0.00,-1.00,86.00,1003.00)" fill="none" stroke="#000" stroke-width="4" d="M32.393,479.39300000000003 A15,15 0 0 1 43,475 h0 a15,15 0 0 1 15,15 v23 a15,15 0 0 1 -15,15 h0 a15,15 0 0 1 -15,-15 v-23 A15,15 0 0 1 32.393,479.39300000000003"/></mask><g clip-path="url(#satori_cp-id)" mask="url(#satori_om-id)"><path x="28" y="475" width="30" height="53" fill="#FFFFFF" d="M43,475 h0 a15,15 0 0 1 15,15 v23 a15,15 0 0 1 -15,15 h0 a15,15 0 0 1 -15,-15 v-23 a15,15 0 0 1 15,-15" transform="matrix(-1.00,0.00,-0.00,-1.00,86.00,1003.00)"/><path width="30" height="53" transform="matrix(-1.00,0.00,-0.00,-1.00,86.00,1003.00)" clip-path="url(#satori_bc-id-2-4)" fill="none" stroke="#2D2D2D" stroke-width="4" d="M32.393,479.39300000000003 A15,15 0 0 1 43,475 h0 a15,15 0 0 1 15,15 v23 a15,15 0 0 1 -15,15 h0 a15,15 0 0 1 -15,-15 v-23 A15,15 0 0 1 32.393,479.39300000000003"/></g><defs><clipPath id="satori_bc-id-2-5" clip-path="url(#satori_cp-id)"><path x="33" y="462" width="31" height="53" d="M48.5,462 h0 a15.5,15.5 0 0 1 15.5,15.5 v22 a15.5,15.5 0 0 1 -15.5,15.5 h0 a15.5,15.5 0 0 1 -15.5,-15.5 v-22 a15.5,15.5 0 0 1 15.5,-15.5"/></clipPath></defs><mask id="satori_om-id-2-5"><rect x="35" y="464" width="27" height="49" fill="#fff" mask="url(#satori_om-id)"/><path width="31" height="53" transform="matrix(-0.71,-0.71,0.71,-0.71,-262.63,868.22)" fill="none" stroke="#000" stroke-width="4" d="M37.54,466.54 A15.5,15.5 0 0 1 48.5,462 h0 a15.5,15.5 0 0 1 15.5,15.5 v22 a15.5,15.5 0 0 1 -15.5,15.5 h0 a15.5,15.5 0 0 1 -15.5,-15.5 v-22 A15.5,15.5 0 0 1 37.54,466.54"/></mask><g opacity="0.96"><g clip-path="url(#satori_cp-id)" mask="url(#satori_om-id)"><path x="33" y="462" width="31" height="53" fill="#FFFFFF" d="M48.5,462 h0 a15.5,15.5 0 0 1 15.5,15.5 v22 a15.5,15.5 0 0 1 -15.5,15.5 h0 a15.5,15.5 0 0 1 -15.5,-15.5 v-22 a15.5,15.5 0 0 1 15.5,-15.5" transform="matrix(-0.71,-0.71,0.71,-0.71,-262.63,868.22)"/><path width="31" height="53" transform="matrix(-0.71,-0.71,0.71,-0.71,-262.63,868.22)" clip-path="url(#satori_bc-id-2-5)" fill="none" stroke="#2D2D2D" stroke-width="4" d="M37.54,466.54 A15.5,15.5 0 0 1 48.5,462 h0 a15.5,15.5 0 0 1 15.5,15.5 v22 a15.5,15.5 0 0 1 -15.5,15.5 h0 a15.5,15.5 0 0 1 -15.5,-15.5 v-22 A15.5,15.5 0 0 1 37.54,466.54"/></g></g><defs><clipPath id="satori_bc-id-2-6" clip-path="url(#satori_cp-id)"><path x="46" y="456" width="31" height="54" d="M61.5,456 h0 a15.5,15.5 0 0 1 15.5,15.5 v23 a15.5,15.5 0 0 1 -15.5,15.5 h0 a15.5,15.5 0 0 1 -15.5,-15.5 v-23 a15.5,15.5 0 0 1 15.5,-15.5"/></clipPath></defs><mask id="satori_om-id-2-6"><rect x="48" y="458" width="27" height="50" fill="#fff" mask="url(#satori_om-id)"/><path width="31" height="54" transform="matrix(-0.00,-1.00,1.00,-0.00,-421.50,544.50)" fill="none" stroke="#000" stroke-width="4" d="M50.54,460.54 A15.5,15.5 0 0 1 61.5,456 h0 a15.5,15.5 0 0 1 15.5,15.5 v23 a15.5,15.5 0 0 1 -15.5,15.5 h0 a15.5,15.5 0 0 1 -15.5,-15.5 v-23 A15.5,15.5 0 0 1 50.54,460.54"/></mask><g clip-path="url(#satori_cp-id)" mask="url(#satori_om-id)"><path x="46" y="456" width="31" height="54" fill="#FFFFFF" d="M61.5,456 h0 a15.5,15.5 0 0 1 15.5,15.5 v23 a15.5,15.5 0 0 1 -15.5,15.5 h0 a15.5,15.5 0 0 1 -15.5,-15.5 v-23 a15.5,15.5 0 0 1 15.5,-15.5" transform="matrix(-0.00,-1.00,1.00,-0.00,-421.50,544.50)"/><path width="31" height="54" transform="matrix(-0.00,-1.00,1.00,-0.00,-421.50,544.50)" clip-path="url(#satori_bc-id-2-6)" fill="none" stroke="#2D2D2D" stroke-width="4" d="M50.54,460.54 A15.5,15.5 0 0 1 61.5,456 h0 a15.5,15.5 0 0 1 15.5,15.5 v23 a15.5,15.5 0 0 1 -15.5,15.5 h0 a15.5,15.5 0 0 1 -15.5,-15.5 v-23 A15.5,15.5 0 0 1 50.54,460.54"/></g><defs><clipPath id="satori_bc-id-2-7" clip-path="url(#satori_cp-id)"><path x="59" y="462" width="30" height="53" d="M74,462 h0 a15,15 0 0 1 15,15 v23 a15,15 0 0 1 -15,15 h0 a15,15 0 0 1 -15,-15 v-23 a15,15 0 0 1 15,-15"/></clipPath></defs><mask id="satori_om-id-2-7"><rect x="61" y="464" width="26" height="49" fill="#fff" mask="url(#satori_om-id)"/><path width="30" height="53" transform="matrix(0.71,-0.71,0.71,0.71,-323.75,195.40)" fill="none" stroke="#000" stroke-width="4" d="M63.393,466.39300000000003 A15,15 0 0 1 74,462 h0 a15,15 0 0 1 15,15 v23 a15,15 0 0 1 -15,15 h0 a15,15 0 0 1 -15,-15 v-23 A15,15 0 0 1 63.393,466.39300000000003"/></mask><g opacity="0.96"><g clip-path="url(#satori_cp-id)" mask="url(#satori_om-id)"><path x="59" y="462" width="30" height="53" fill="#FFFFFF" d="M74,462 h0 a15,15 0 0 1 15,15 v23 a15,15 0 0 1 -15,15 h0 a15,15 0 0 1 -15,-15 v-23 a15,15 0 0 1 15,-15" transform="matrix(0.71,-0.71,0.71,0.71,-323.75,195.40)"/><path width="30" height="53" transform="matrix(0.71,-0.71,0.71,0.71,-323.75,195.40)" clip-path="url(#satori_bc-id-2-7)" fill="none" stroke="#2D2D2D" stroke-width="4" d="M63.393,466.39300000000003 A15,15 0 0 1 74,462 h0 a15,15 0 0 1 15,15 v23 a15,15 0 0 1 -15,15 h0 a15,15 0 0 1 -15,-15 v-23 A15,15 0 0 1 63.393,466.39300000000003"/></g></g><defs><clipPath id="satori_bc-id-2-8" clip-path="url(#satori_cp-id)"><path x="51" y="491" width="24" height="24" d="M62.9,491 h0.20000000000000284 a11.899999999999999,11.899999999999999 0 0 1 11.899999999999999,11.899999999999999 v0.20000000000000284 a11.899999999999999,11.899999999999999 0 0 1 -11.899999999999999,11.899999999999999 h-0.20000000000000284 a11.899999999999999,11.899999999999999 0 0 1 -11.899999999999999,-11.899999999999999 v-0.20000000000000284 a11.899999999999999,11.899999999999999 0 0 1 11.899999999999999,-11.899999999999999"/></clipPath></defs><mask id="satori_om-id-2-8"><rect x="53" y="493" width="20" height="20" fill="#fff" mask="url(#satori_om-id)"/><path width="24" height="24" fill="none" stroke="#000" stroke-width="4" d="M54.485,494.48499999999996 A11.899999999999999,11.899999999999999 0 0 1 62.9,491 h0.20000000000000284 a11.899999999999999,11.899999999999999 0 0 1 11.899999999999999,11.899999999999999 v0.20000000000000284 a11.899999999999999,11.899999999999999 0 0 1 -11.899999999999999,11.899999999999999 h-0.20000000000000284 a11.899999999999999,11.899999999999999 0 0 1 -11.899999999999999,-11.899999999999999 v-0.20000000000000284 A11.899999999999999,11.899999999999999 0 0 1 54.485,494.48499999999996"/></mask><path x="51" y="491" width="24" height="24" fill="#FDE68A" d="M62.9,491 h0.20000000000000284 a11.899999999999999,11.899999999999999 0 0 1 11.899999999999999,11.899999999999999 v0.20000000000000284 a11.899999999999999,11.899999999999999 0 0 1 -11.899999999999999,11.899999999999999 h-0.20000000000000284 a11.899999999999999,11.899999999999999 0 0 1 -11.899999999999999,-11.899999999999999 v-0.20000000000000284 a11.899999999999999,11.899999999999999 0 0 1 11.899999999999999,-11.899999999999999" clip-path="url(#satori_cp-id)" mask="url(#satori_om-id)"/><path width="24" height="24" clip-path="url(#satori_bc-id-2-8)" fill="none" stroke="#2D2D2D" stroke-width="4" d="M54.485,494.48499999999996 A11.899999999999999,11.899999999999999 0 0 1 62.9,491 h0.20000000000000284 a11.899999999999999,11.899999999999999 0 0 1 11.899999999999999,11.899999999999999 v0.20000000000000284 a11.899999999999999,11.899999999999999 0 0 1 -11.899999999999999,11.899999999999999 h-0.20000000000000284 a11.899999999999999,11.899999999999999 0 0 1 -11.899999999999999,-11.899999999999999 v-0.20000000000000284 A11.899999999999999,11.899999999999999 0 0 1 54.485,494.48499999999996"/><mask id="satori_om-id-3"><rect x="874" y="432" width="92" height="92" fill="#fff" mask="url(#satori_om-id)"/></mask><defs><clipPath id="satori_bc-id-3-0" clip-path="url(#satori_cp-id)"><path x="923" y="447" width="36" height="62" d="M941,447 h0 a18,18 0 0 1 18,18 v26 a18,18 0 0 1 -18,18 h0 a18,18 0 0 1 -18,-18 v-26 a18,18 0 0 1 18,-18"/></clipPath></defs><mask id="satori_om-id-3-0"><rect x="925" y="449" width="32" height="58" fill="#fff" mask="url(#satori_om-id)"/><path width="36" height="62" transform="matrix(1.00,0.00,0.00,1.00,0.00,0.00)" fill="none" stroke="#000" stroke-width="4" d="M928.272,452.272 A18,18 0 0 1 941,447 h0 a18,18 0 0 1 18,18 v26 a18,18 0 0 1 -18,18 h0 a18,18 0 0 1 -18,-18 v-26 A18,18 0 0 1 928.272,452.272"/></mask><g clip-path="url(#satori_cp-id)" mask="url(#satori_om-id)"><path x="923" y="447" width="36" height="62" fill="#FFFFFF" d="M941,447 h0 a18,18 0 0 1 18,18 v26 a18,18 0 0 1 -18,18 h0 a18,18 0 0 1 -18,-18 v-26 a18,18 0 0 1 18,-18" transform="matrix(1.00,0.00,0.00,1.00,0.00,0.00)"/><path width="36" height="62" transform="matrix(1.00,0.00,0.00,1.00,0.00,0.00)" clip-path="url(#satori_bc-id-3-0)" fill="none" stroke="#2D2D2D" stroke-width="4" d="M928.272,452.272 A18,18 0 0 1 941,447 h0 a18,18 0 0 1 18,18 v26 a18,18 0 0 1 -18,18 h0 a18,18 0 0 1 -18,-18 v-26 A18,18 0 0 1 928.272,452.272"/></g><defs><clipPath id="satori_bc-id-3-1" clip-path="url(#satori_cp-id)"><path x="917" y="462" width="36" height="62" d="M935,462 h0 a18,18 0 0 1 18,18 v26 a18,18 0 0 1 -18,18 h0 a18,18 0 0 1 -18,-18 v-26 a18,18 0 0 1 18,-18"/></clipPath></defs><mask id="satori_om-id-3-1"><rect x="919" y="464" width="32" height="58" fill="#fff" mask="url(#satori_om-id)"/><path width="36" height="62" transform="matrix(0.71,0.71,-0.71,0.71,622.46,-516.75)" fill="none" stroke="#000" stroke-width="4" d="M922.272,467.272 A18,18 0 0 1 935,462 h0 a18,18 0 0 1 18,18 v26 a18,18 0 0 1 -18,18 h0 a18,18 0 0 1 -18,-18 v-26 A18,18 0 0 1 922.272,467.272"/></mask><g opacity="0.96"><g clip-path="url(#satori_cp-id)" mask="url(#satori_om-id)"><path x="917" y="462" width="36" height="62" fill="#FFFFFF" d="M935,462 h0 a18,18 0 0 1 18,18 v26 a18,18 0 0 1 -18,18 h0 a18,18 0 0 1 -18,-18 v-26 a18,18 0 0 1 18,-18" transform="matrix(0.71,0.71,-0.71,0.71,622.46,-516.75)"/><path width="36" height="62" transform="matrix(0.71,0.71,-0.71,0.71,622.46,-516.75)" clip-path="url(#satori_bc-id-3-1)" fill="none" stroke="#2D2D2D" stroke-width="4" d="M922.272,467.272 A18,18 0 0 1 935,462 h0 a18,18 0 0 1 18,18 v26 a18,18 0 0 1 -18,18 h0 a18,18 0 0 1 -18,-18 v-26 A18,18 0 0 1 922.272,467.272"/></g></g><defs><clipPath id="satori_bc-id-3-2" clip-path="url(#satori_cp-id)"><path x="902" y="468" width="36" height="62" d="M920,468 h0 a18,18 0 0 1 18,18 v26 a18,18 0 0 1 -18,18 h0 a18,18 0 0 1 -18,-18 v-26 a18,18 0 0 1 18,-18"/></clipPath></defs><mask id="satori_om-id-3-2"><rect x="904" y="470" width="32" height="58" fill="#fff" mask="url(#satori_om-id)"/><path width="36" height="62" transform="matrix(0.00,1.00,-1.00,0.00,1419.00,-421.00)" fill="none" stroke="#000" stroke-width="4" d="M907.272,473.272 A18,18 0 0 1 920,468 h0 a18,18 0 0 1 18,18 v26 a18,18 0 0 1 -18,18 h0 a18,18 0 0 1 -18,-18 v-26 A18,18 0 0 1 907.272,473.272"/></mask><g clip-path="url(#satori_cp-id)" mask="url(#satori_om-id)"><path x="902" y="468" width="36" height="62" fill="#FFFFFF" d="M920,468 h0 a18,18 0 0 1 18,18 v26 a18,18 0 0 1 -18,18 h0 a18,18 0 0 1 -18,-18 v-26 a18,18 0 0 1 18,-18" transform="matrix(0.00,1.00,-1.00,0.00,1419.00,-421.00)"/><path width="36" height="62" transform="matrix(0.00,1.00,-1.00,0.00,1419.00,-421.00)" clip-path="url(#satori_bc-id-3-2)" fill="none" stroke="#2D2D2D" stroke-width="4" d="M907.272,473.272 A18,18 0 0 1 920,468 h0 a18,18 0 0 1 18,18 v26 a18,18 0 0 1 -18,18 h0 a18,18 0 0 1 -18,-18 v-26 A18,18 0 0 1 907.272,473.272"/></g><defs><clipPath id="satori_bc-id-3-3" clip-path="url(#satori_cp-id)"><path x="887" y="462" width="36" height="62" d="M905,462 h0 a18,18 0 0 1 18,18 v26 a18,18 0 0 1 -18,18 h0 a18,18 0 0 1 -18,-18 v-26 a18,18 0 0 1 18,-18"/></clipPath></defs><mask id="satori_om-id-3-3"><rect x="889" y="464" width="32" height="58" fill="#fff" mask="url(#satori_om-id)"/><path width="36" height="62" transform="matrix(-0.71,0.71,-0.71,-0.71,1893.54,201.67)" fill="none" stroke="#000" stroke-width="4" d="M892.272,467.272 A18,18 0 0 1 905,462 h0 a18,18 0 0 1 18,18 v26 a18,18 0 0 1 -18,18 h0 a18,18 0 0 1 -18,-18 v-26 A18,18 0 0 1 892.272,467.272"/></mask><g opacity="0.96"><g clip-path="url(#satori_cp-id)" mask="url(#satori_om-id)"><path x="887" y="462" width="36" height="62" fill="#FFFFFF" d="M905,462 h0 a18,18 0 0 1 18,18 v26 a18,18 0 0 1 -18,18 h0 a18,18 0 0 1 -18,-18 v-26 a18,18 0 0 1 18,-18" transform="matrix(-0.71,0.71,-0.71,-0.71,1893.54,201.67)"/><path width="36" height="62" transform="matrix(-0.71,0.71,-0.71,-0.71,1893.54,201.67)" clip-path="url(#satori_bc-id-3-3)" fill="none" stroke="#2D2D2D" stroke-width="4" d="M892.272,467.272 A18,18 0 0 1 905,462 h0 a18,18 0 0 1 18,18 v26 a18,18 0 0 1 -18,18 h0 a18,18 0 0 1 -18,-18 v-26 A18,18 0 0 1 892.272,467.272"/></g></g><defs><clipPath id="satori_bc-id-3-4" clip-path="url(#satori_cp-id)"><path x="881" y="447" width="36" height="62" d="M899,447 h0 a18,18 0 0 1 18,18 v26 a18,18 0 0 1 -18,18 h0 a18,18 0 0 1 -18,-18 v-26 a18,18 0 0 1 18,-18"/></clipPath></defs><mask id="satori_om-id-3-4"><rect x="883" y="449" width="32" height="58" fill="#fff" mask="url(#satori_om-id)"/><path width="36" height="62" transform="matrix(-1.00,0.00,-0.00,-1.00,1798.00,956.00)" fill="none" stroke="#000" stroke-width="4" d="M886.272,452.272 A18,18 0 0 1 899,447 h0 a18,18 0 0 1 18,18 v26 a18,18 0 0 1 -18,18 h0 a18,18 0 0 1 -18,-18 v-26 A18,18 0 0 1 886.272,452.272"/></mask><g clip-path="url(#satori_cp-id)" mask="url(#satori_om-id)"><path x="881" y="447" width="36" height="62" fill="#FFFFFF" d="M899,447 h0 a18,18 0 0 1 18,18 v26 a18,18 0 0 1 -18,18 h0 a18,18 0 0 1 -18,-18 v-26 a18,18 0 0 1 18,-18" transform="matrix(-1.00,0.00,-0.00,-1.00,1798.00,956.00)"/><path width="36" height="62" transform="matrix(-1.00,0.00,-0.00,-1.00,1798.00,956.00)" clip-path="url(#satori_bc-id-3-4)" fill="none" stroke="#2D2D2D" stroke-width="4" d="M886.272,452.272 A18,18 0 0 1 899,447 h0 a18,18 0 0 1 18,18 v26 a18,18 0 0 1 -18,18 h0 a18,18 0 0 1 -18,-18 v-26 A18,18 0 0 1 886.272,452.272"/></g><defs><clipPath id="satori_bc-id-3-5" clip-path="url(#satori_cp-id)"><path x="887" y="432" width="36" height="62" d="M905,432 h0 a18,18 0 0 1 18,18 v26 a18,18 0 0 1 -18,18 h0 a18,18 0 0 1 -18,-18 v-26 a18,18 0 0 1 18,-18"/></clipPath></defs><mask id="satori_om-id-3-5"><rect x="889" y="434" width="32" height="58" fill="#fff" mask="url(#satori_om-id)"/><path width="36" height="62" transform="matrix(-0.71,-0.71,0.71,-0.71,1217.54,1430.32)" fill="none" stroke="#000" stroke-width="4" d="M892.272,437.272 A18,18 0 0 1 905,432 h0 a18,18 0 0 1 18,18 v26 a18,18 0 0 1 -18,18 h0 a18,18 0 0 1 -18,-18 v-26 A18,18 0 0 1 892.272,437.272"/></mask><g opacity="0.96"><g clip-path="url(#satori_cp-id)" mask="url(#satori_om-id)"><path x="887" y="432" width="36" height="62" fill="#FFFFFF" d="M905,432 h0 a18,18 0 0 1 18,18 v26 a18,18 0 0 1 -18,18 h0 a18,18 0 0 1 -18,-18 v-26 a18,18 0 0 1 18,-18" transform="matrix(-0.71,-0.71,0.71,-0.71,1217.54,1430.32)"/><path width="36" height="62" transform="matrix(-0.71,-0.71,0.71,-0.71,1217.54,1430.32)" clip-path="url(#satori_bc-id-3-5)" fill="none" stroke="#2D2D2D" stroke-width="4" d="M892.272,437.272 A18,18 0 0 1 905,432 h0 a18,18 0 0 1 18,18 v26 a18,18 0 0 1 -18,18 h0 a18,18 0 0 1 -18,-18 v-26 A18,18 0 0 1 892.272,437.272"/></g></g><defs><clipPath id="satori_bc-id-3-6" clip-path="url(#satori_cp-id)"><path x="902" y="425" width="36" height="63" d="M920,425 h0 a18,18 0 0 1 18,18 v27 a18,18 0 0 1 -18,18 h0 a18,18 0 0 1 -18,-18 v-27 a18,18 0 0 1 18,-18"/></clipPath></defs><mask id="satori_om-id-3-6"><rect x="904" y="427" width="32" height="59" fill="#fff" mask="url(#satori_om-id)"/><path width="36" height="63" transform="matrix(-0.00,-1.00,1.00,-0.00,463.50,1376.50)" fill="none" stroke="#000" stroke-width="4" d="M907.272,430.272 A18,18 0 0 1 920,425 h0 a18,18 0 0 1 18,18 v27 a18,18 0 0 1 -18,18 h0 a18,18 0 0 1 -18,-18 v-27 A18,18 0 0 1 907.272,430.272"/></mask><g clip-path="url(#satori_cp-id)" mask="url(#satori_om-id)"><path x="902" y="425" width="36" height="63" fill="#FFFFFF" d="M920,425 h0 a18,18 0 0 1 18,18 v27 a18,18 0 0 1 -18,18 h0 a18,18 0 0 1 -18,-18 v-27 a18,18 0 0 1 18,-18" transform="matrix(-0.00,-1.00,1.00,-0.00,463.50,1376.50)"/><path width="36" height="63" transform="matrix(-0.00,-1.00,1.00,-0.00,463.50,1376.50)" clip-path="url(#satori_bc-id-3-6)" fill="none" stroke="#2D2D2D" stroke-width="4" d="M907.272,430.272 A18,18 0 0 1 920,425 h0 a18,18 0 0 1 18,18 v27 a18,18 0 0 1 -18,18 h0 a18,18 0 0 1 -18,-18 v-27 A18,18 0 0 1 907.272,430.272"/></g><defs><clipPath id="satori_bc-id-3-7" clip-path="url(#satori_cp-id)"><path x="917" y="432" width="36" height="62" d="M935,432 h0 a18,18 0 0 1 18,18 v26 a18,18 0 0 1 -18,18 h0 a18,18 0 0 1 -18,-18 v-26 a18,18 0 0 1 18,-18"/></clipPath></defs><mask id="satori_om-id-3-7"><rect x="919" y="434" width="32" height="58" fill="#fff" mask="url(#satori_om-id)"/><path width="36" height="62" transform="matrix(0.71,-0.71,0.71,0.71,-53.54,796.75)" fill="none" stroke="#000" stroke-width="4" d="M922.272,437.272 A18,18 0 0 1 935,432 h0 a18,18 0 0 1 18,18 v26 a18,18 0 0 1 -18,18 h0 a18,18 0 0 1 -18,-18 v-26 A18,18 0 0 1 922.272,437.272"/></mask><g opacity="0.96"><g clip-path="url(#satori_cp-id)" mask="url(#satori_om-id)"><path x="917" y="432" width="36" height="62" fill="#FFFFFF" d="M935,432 h0 a18,18 0 0 1 18,18 v26 a18,18 0 0 1 -18,18 h0 a18,18 0 0 1 -18,-18 v-26 a18,18 0 0 1 18,-18" transform="matrix(0.71,-0.71,0.71,0.71,-53.54,796.75)"/><path width="36" height="62" transform="matrix(0.71,-0.71,0.71,0.71,-53.54,796.75)" clip-path="url(#satori_bc-id-3-7)" fill="none" stroke="#2D2D2D" stroke-width="4" d="M922.272,437.272 A18,18 0 0 1 935,432 h0 a18,18 0 0 1 18,18 v26 a18,18 0 0 1 -18,18 h0 a18,18 0 0 1 -18,-18 v-26 A18,18 0 0 1 922.272,437.272"/></g></g><defs><clipPath id="satori_bc-id-3-8" clip-path="url(#satori_cp-id)"><path x="908" y="466" width="28" height="28" d="M921.94,466 h0.120000000000001 a13.94,13.94 0 0 1 13.94,13.94 v0.120000000000001 a13.94,13.94 0 0 1 -13.94,13.94 h-0.120000000000001 a13.94,13.94 0 0 1 -13.94,-13.94 v-0.120000000000001 a13.94,13.94 0 0 1 13.94,-13.94"/></clipPath></defs><mask id="satori_om-id-3-8"><rect x="910" y="468" width="24" height="24" fill="#fff" mask="url(#satori_om-id)"/><path width="28" height="28" fill="none" stroke="#000" stroke-width="4" d="M912.0830000000001,470.08299999999997 A13.94,13.94 0 0 1 921.94,466 h0.120000000000001 a13.94,13.94 0 0 1 13.94,13.94 v0.120000000000001 a13.94,13.94 0 0 1 -13.94,13.94 h-0.120000000000001 a13.94,13.94 0 0 1 -13.94,-13.94 v-0.120000000000001 A13.94,13.94 0 0 1 912.0830000000001,470.08299999999997"/></mask><path x="908" y="466" width="28" height="28" fill="#FDE68A" d="M921.94,466 h0.120000000000001 a13.94,13.94 0 0 1 13.94,13.94 v0.120000000000001 a13.94,13.94 0 0 1 -13.94,13.94 h-0.120000000000001 a13.94,13.94 0 0 1 -13.94,-13.94 v-0.120000000000001 a13.94,13.94 0 0 1 13.94,-13.94" clip-path="url(#satori_cp-id)" mask="url(#satori_om-id)"/><path width="28" height="28" clip-path="url(#satori_bc-id-3-8)" fill="none" stroke="#2D2D2D" stroke-width="4" d="M912.0830000000001,470.08299999999997 A13.94,13.94 0 0 1 921.94,466 h0.120000000000001 a13.94,13.94 0 0 1 13.94,13.94 v0.120000000000001 a13.94,13.94 0 0 1 -13.94,13.94 h-0.120000000000001 a13.94,13.94 0 0 1 -13.94,-13.94 v-0.120000000000001 A13.94,13.94 0 0 1 912.0830000000001,470.08299999999997"/><defs><clipPath id="satori_bc-id-4" clip-path="url(#satori_cp-id)"><path x="68" y="72" width="36" height="36" d="M77,72 h18 a9,9 0 0 1 9,9 v18 a9,9 0 0 1 -9,9 h-18 a9,9 0 0 1 -9,-9 v-18 a9,9 0 0 1 9,-9"/></clipPath></defs><mask id="satori_om-id-4"><rect x="70" y="74" width="32" height="32" fill="#fff" mask="url(#satori_om-id)"/><path width="36" height="36" transform="matrix(0.82,0.57,-0.57,0.82,67.17,-33.05)" fill="none" stroke="#000" stroke-width="4" d="M70.636,74.636 A9,9 0 0 1 77,72 h18 a9,9 0 0 1 9,9 v18 a9,9 0 0 1 -9,9 h-18 a9,9 0 0 1 -9,-9 v-18 A9,9 0 0 1 70.636,74.636"/></mask><g clip-path="url(#satori_cp-id)" mask="url(#satori_om-id)"><path x="68" y="72" width="36" height="36" fill="#F7C8D4" d="M77,72 h18 a9,9 0 0 1 9,9 v18 a9,9 0 0 1 -9,9 h-18 a9,9 0 0 1 -9,-9 v-18 a9,9 0 0 1 9,-9" transform="matrix(0.82,0.57,-0.57,0.82,67.17,-33.05)"/><path width="36" height="36" transform="matrix(0.82,0.57,-0.57,0.82,67.17,-33.05)" clip-path="url(#satori_bc-id-4)" fill="none" stroke="#2D2D2D" stroke-width="4" d="M70.636,74.636 A9,9 0 0 1 77,72 h18 a9,9 0 0 1 9,9 v18 a9,9 0 0 1 -9,9 h-18 a9,9 0 0 1 -9,-9 v-18 A9,9 0 0 1 70.636,74.636"/></g><defs><clipPath id="satori_bc-id-5" clip-path="url(#satori_cp-id)"><path x="846" y="100" width="36" height="36" d="M855,100 h18 a9,9 0 0 1 9,9 v18 a9,9 0 0 1 -9,9 h-18 a9,9 0 0 1 -9,-9 v-18 a9,9 0 0 1 9,-9"/></clipPath></defs><mask id="satori_om-id-5"><rect x="848" y="102" width="32" height="32" fill="#fff" mask="url(#satori_om-id)"/><path width="36" height="36" transform="matrix(0.82,0.57,-0.57,0.82,223.93,-474.23)" fill="none" stroke="#000" stroke-width="4" d="M848.636,102.636 A9,9 0 0 1 855,100 h18 a9,9 0 0 1 9,9 v18 a9,9 0 0 1 -9,9 h-18 a9,9 0 0 1 -9,-9 v-18 A9,9 0 0 1 848.636,102.636"/></mask><g clip-path="url(#satori_cp-id)" mask="url(#satori_om-id)"><path x="846" y="100" width="36" height="36" fill="#7ECDC0" d="M855,100 h18 a9,9 0 0 1 9,9 v18 a9,9 0 0 1 -9,9 h-18 a9,9 0 0 1 -9,-9 v-18 a9,9 0 0 1 9,-9" transform="matrix(0.82,0.57,-0.57,0.82,223.93,-474.23)"/><path width="36" height="36" transform="matrix(0.82,0.57,-0.57,0.82,223.93,-474.23)" clip-path="url(#satori_bc-id-5)" fill="none" stroke="#2D2D2D" stroke-width="4" d="M848.636,102.636 A9,9 0 0 1 855,100 h18 a9,9 0 0 1 9,9 v18 a9,9 0 0 1 -9,9 h-18 a9,9 0 0 1 -9,-9 v-18 A9,9 0 0 1 848.636,102.636"/></g><defs><clipPath id="satori_bc-id-6" clip-path="url(#satori_cp-id)"><path x="104" y="408" width="36" height="36" d="M113,408 h18 a9,9 0 0 1 9,9 v18 a9,9 0 0 1 -9,9 h-18 a9,9 0 0 1 -9,-9 v-18 a9,9 0 0 1 9,-9"/></clipPath></defs><mask id="satori_om-id-6"><rect x="106" y="410" width="32" height="32" fill="#fff" mask="url(#satori_om-id)"/><path width="36" height="36" transform="matrix(0.82,0.57,-0.57,0.82,266.41,7.06)" fill="none" stroke="#000" stroke-width="4" d="M106.636,410.636 A9,9 0 0 1 113,408 h18 a9,9 0 0 1 9,9 v18 a9,9 0 0 1 -9,9 h-18 a9,9 0 0 1 -9,-9 v-18 A9,9 0 0 1 106.636,410.636"/></mask><g clip-path="url(#satori_cp-id)" mask="url(#satori_om-id)"><path x="104" y="408" width="36" height="36" fill="#FDE68A" d="M113,408 h18 a9,9 0 0 1 9,9 v18 a9,9 0 0 1 -9,9 h-18 a9,9 0 0 1 -9,-9 v-18 a9,9 0 0 1 9,-9" transform="matrix(0.82,0.57,-0.57,0.82,266.41,7.06)"/><path width="36" height="36" transform="matrix(0.82,0.57,-0.57,0.82,266.41,7.06)" clip-path="url(#satori_bc-id-6)" fill="none" stroke="#2D2D2D" stroke-width="4" d="M106.636,410.636 A9,9 0 0 1 113,408 h18 a9,9 0 0 1 9,9 v18 a9,9 0 0 1 -9,9 h-18 a9,9 0 0 1 -9,-9 v-18 A9,9 0 0 1 106.636,410.636"/></g><defs><clipPath id="satori_bc-id-7" clip-path="url(#satori_cp-id)"><path x="942" y="218" width="6" height="6" d="M945,218 h0 a3,3 0 0 1 3,3 v0 a3,3 0 0 1 -3,3 h0 a3,3 0 0 1 -3,-3 v0 a3,3 0 0 1 3,-3"/></clipPath></defs><mask id="satori_om-id-7"><rect x="943.5" y="219.5" width="3" height="3" fill="#fff" mask="url(#satori_om-id)"/><path width="6" height="6" fill="none" stroke="#000" stroke-width="3" d="M942.879,218.879 A3,3 0 0 1 945,218 h0 a3,3 0 0 1 3,3 v0 a3,3 0 0 1 -3,3 h0 a3,3 0 0 1 -3,-3 v0 A3,3 0 0 1 942.879,218.879"/></mask><path x="942" y="218" width="6" height="6" fill="#FDE68A" d="M945,218 h0 a3,3 0 0 1 3,3 v0 a3,3 0 0 1 -3,3 h0 a3,3 0 0 1 -3,-3 v0 a3,3 0 0 1 3,-3" clip-path="url(#satori_cp-id)" mask="url(#satori_om-id)"/><path width="6" height="6" clip-path="url(#satori_bc-id-7)" fill="none" stroke="#2D2D2D" stroke-width="3" d="M942.879,218.879 A3,3 0 0 1 945,218 h0 a3,3 0 0 1 3,3 v0 a3,3 0 0 1 -3,3 h0 a3,3 0 0 1 -3,-3 v0 A3,3 0 0 1 942.879,218.879"/><defs><clipPath id="satori_bc-id-8" clip-path="url(#satori_cp-id)"><path x="942" y="229" width="6" height="6" d="M945,229 h0 a3,3 0 0 1 3,3 v0 a3,3 0 0 1 -3,3 h0 a3,3 0 0 1 -3,-3 v0 a3,3 0 0 1 3,-3"/></clipPath></defs><mask id="satori_om-id-8"><rect x="943.5" y="230.5" width="3" height="3" fill="#fff" mask="url(#satori_om-id)"/><path width="6" height="6" fill="none" stroke="#000" stroke-width="3" d="M942.879,229.879 A3,3 0 0 1 945,229 h0 a3,3 0 0 1 3,3 v0 a3,3 0 0 1 -3,3 h0 a3,3 0 0 1 -3,-3 v0 A3,3 0 0 1 942.879,229.879"/></mask><path x="942" y="229" width="6" height="6" fill="transparent" d="M945,229 h0 a3,3 0 0 1 3,3 v0 a3,3 0 0 1 -3,3 h0 a3,3 0 0 1 -3,-3 v0 a3,3 0 0 1 3,-3" clip-path="url(#satori_cp-id)" mask="url(#satori_om-id)"/><path width="6" height="6" clip-path="url(#satori_bc-id-8)" fill="none" stroke="#2D2D2D" stroke-width="3" d="M942.879,229.879 A3,3 0 0 1 945,229 h0 a3,3 0 0 1 3,3 v0 a3,3 0 0 1 -3,3 h0 a3,3 0 0 1 -3,-3 v0 A3,3 0 0 1 942.879,229.879"/><defs><clipPath id="satori_bc-id-9" clip-path="url(#satori_cp-id)"><path x="942" y="240" width="6" height="6" d="M945,240 h0 a3,3 0 0 1 3,3 v0 a3,3 0 0 1 -3,3 h0 a3,3 0 0 1 -3,-3 v0 a3,3 0 0 1 3,-3"/></clipPath></defs><mask id="satori_om-id-9"><rect x="943.5" y="241.5" width="3" height="3" fill="#fff" mask="url(#satori_om-id)"/><path width="6" height="6" fill="none" stroke="#000" stroke-width="3" d="M942.879,240.879 A3,3 0 0 1 945,240 h0 a3,3 0 0 1 3,3 v0 a3,3 0 0 1 -3,3 h0 a3,3 0 0 1 -3,-3 v0 A3,3 0 0 1 942.879,240.879"/></mask><path x="942" y="240" width="6" height="6" fill="transparent" d="M945,240 h0 a3,3 0 0 1 3,3 v0 a3,3 0 0 1 -3,3 h0 a3,3 0 0 1 -3,-3 v0 a3,3 0 0 1 3,-3" clip-path="url(#satori_cp-id)" mask="url(#satori_om-id)"/><path width="6" height="6" clip-path="url(#satori_bc-id-9)" fill="none" stroke="#2D2D2D" stroke-width="3" d="M942.879,240.879 A3,3 0 0 1 945,240 h0 a3,3 0 0 1 3,3 v0 a3,3 0 0 1 -3,3 h0 a3,3 0 0 1 -3,-3 v0 A3,3 0 0 1 942.879,240.879"/><defs><clipPath id="satori_bc-id-10" clip-path="url(#satori_cp-id)"><path x="942" y="251" width="6" height="6" d="M945,251 h0 a3,3 0 0 1 3,3 v0 a3,3 0 0 1 -3,3 h0 a3,3 0 0 1 -3,-3 v0 a3,3 0 0 1 3,-3"/></clipPath></defs><mask id="satori_om-id-10"><rect x="943.5" y="252.5" width="3" height="3" fill="#fff" mask="url(#satori_om-id)"/><path width="6" height="6" fill="none" stroke="#000" stroke-width="3" d="M942.879,251.879 A3,3 0 0 1 945,251 h0 a3,3 0 0 1 3,3 v0 a3,3 0 0 1 -3,3 h0 a3,3 0 0 1 -3,-3 v0 A3,3 0 0 1 942.879,251.879"/></mask><path x="942" y="251" width="6" height="6" fill="transparent" d="M945,251 h0 a3,3 0 0 1 3,3 v0 a3,3 0 0 1 -3,3 h0 a3,3 0 0 1 -3,-3 v0 a3,3 0 0 1 3,-3" clip-path="url(#satori_cp-id)" mask="url(#satori_om-id)"/><path width="6" height="6" clip-path="url(#satori_bc-id-10)" fill="none" stroke="#2D2D2D" stroke-width="3" d="M942.879,251.879 A3,3 0 0 1 945,251 h0 a3,3 0 0 1 3,3 v0 a3,3 0 0 1 -3,3 h0 a3,3 0 0 1 -3,-3 v0 A3,3 0 0 1 942.879,251.879"/><defs><clipPath id="satori_bc-id-11" clip-path="url(#satori_cp-id)"><path x="942" y="262" width="6" height="6" d="M945,262 h0 a3,3 0 0 1 3,3 v0 a3,3 0 0 1 -3,3 h0 a3,3 0 0 1 -3,-3 v0 a3,3 0 0 1 3,-3"/></clipPath></defs><mask id="satori_om-id-11"><rect x="943.5" y="263.5" width="3" height="3" fill="#fff" mask="url(#satori_om-id)"/><path width="6" height="6" fill="none" stroke="#000" stroke-width="3" d="M942.879,262.879 A3,3 0 0 1 945,262 h0 a3,3 0 0 1 3,3 v0 a3,3 0 0 1 -3,3 h0 a3,3 0 0 1 -3,-3 v0 A3,3 0 0 1 942.879,262.879"/></mask><path x="942" y="262" width="6" height="6" fill="transparent" d="M945,262 h0 a3,3 0 0 1 3,3 v0 a3,3 0 0 1 -3,3 h0 a3,3 0 0 1 -3,-3 v0 a3,3 0 0 1 3,-3" clip-path="url(#satori_cp-id)" mask="url(#satori_om-id)"/><path width="6" height="6" clip-path="url(#satori_bc-id-11)" fill="none" stroke="#2D2D2D" stroke-width="3" d="M942.879,262.879 A3,3 0 0 1 945,262 h0 a3,3 0 0 1 3,3 v0 a3,3 0 0 1 -3,3 h0 a3,3 0 0 1 -3,-3 v0 A3,3 0 0 1 942.879,262.879"/><defs><clipPath id="satori_bc-id-12" clip-path="url(#satori_cp-id)"><path x="942" y="273" width="6" height="6" d="M945,273 h0 a3,3 0 0 1 3,3 v0 a3,3 0 0 1 -3,3 h0 a3,3 0 0 1 -3,-3 v0 a3,3 0 0 1 3,-3"/></clipPath></defs><mask id="satori_om-id-12"><rect x="943.5" y="274.5" width="3" height="3" fill="#fff" mask="url(#satori_om-id)"/><path width="6" height="6" fill="none" stroke="#000" stroke-width="3" d="M942.879,273.879 A3,3 0 0 1 945,273 h0 a3,3 0 0 1 3,3 v0 a3,3 0 0 1 -3,3 h0 a3,3 0 0 1 -3,-3 v0 A3,3 0 0 1 942.879,273.879"/></mask><path x="942" y="273" width="6" height="6" fill="transparent" d="M945,273 h0 a3,3 0 0 1 3,3 v0 a3,3 0 0 1 -3,3 h0 a3,3 0 0 1 -3,-3 v0 a3,3 0 0 1 3,-3" clip-path="url(#satori_cp-id)" mask="url(#satori_om-id)"/><path width="6" height="6" clip-path="url(#satori_bc-id-12)" fill="none" stroke="#2D2D2D" stroke-width="3" d="M942.879,273.879 A3,3 0 0 1 945,273 h0 a3,3 0 0 1 3,3 v0 a3,3 0 0 1 -3,3 h0 a3,3 0 0 1 -3,-3 v0 A3,3 0 0 1 942.879,273.879"/><defs><clipPath id="satori_bc-id-13" clip-path="url(#satori_cp-id)"><path x="942" y="284" width="6" height="6" d="M945,284 h0 a3,3 0 0 1 3,3 v0 a3,3 0 0 1 -3,3 h0 a3,3 0 0 1 -3,-3 v0 a3,3 0 0 1 3,-3"/></clipPath></defs><mask id="satori_om-id-13"><rect x="943.5" y="285.5" width="3" height="3" fill="#fff" mask="url(#satori_om-id)"/><path width="6" height="6" fill="none" stroke="#000" stroke-width="3" d="M942.879,284.879 A3,3 0 0 1 945,284 h0 a3,3 0 0 1 3,3 v0 a3,3 0 0 1 -3,3 h0 a3,3 0 0 1 -3,-3 v0 A3,3 0 0 1 942.879,284.879"/></mask><path x="942" y="284" width="6" height="6" fill="transparent" d="M945,284 h0 a3,3 0 0 1 3,3 v0 a3,3 0 0 1 -3,3 h0 a3,3 0 0 1 -3,-3 v0 a3,3 0 0 1 3,-3" clip-path="url(#satori_cp-id)" mask="url(#satori_om-id)"/><path width="6" height="6" clip-path="url(#satori_bc-id-13)" fill="none" stroke="#2D2D2D" stroke-width="3" d="M942.879,284.879 A3,3 0 0 1 945,284 h0 a3,3 0 0 1 3,3 v0 a3,3 0 0 1 -3,3 h0 a3,3 0 0 1 -3,-3 v0 A3,3 0 0 1 942.879,284.879"/><defs><clipPath id="satori_bc-id-14" clip-path="url(#satori_cp-id)"><path x="942" y="295" width="6" height="6" d="M945,295 h0 a3,3 0 0 1 3,3 v0 a3,3 0 0 1 -3,3 h0 a3,3 0 0 1 -3,-3 v0 a3,3 0 0 1 3,-3"/></clipPath></defs><mask id="satori_om-id-14"><rect x="943.5" y="296.5" width="3" height="3" fill="#fff" mask="url(#satori_om-id)"/><path width="6" height="6" fill="none" stroke="#000" stroke-width="3" d="M942.879,295.879 A3,3 0 0 1 945,295 h0 a3,3 0 0 1 3,3 v0 a3,3 0 0 1 -3,3 h0 a3,3 0 0 1 -3,-3 v0 A3,3 0 0 1 942.879,295.879"/></mask><path x="942" y="295" width="6" height="6" fill="transparent" d="M945,295 h0 a3,3 0 0 1 3,3 v0 a3,3 0 0 1 -3,3 h0 a3,3 0 0 1 -3,-3 v0 a3,3 0 0 1 3,-3" clip-path="url(#satori_cp-id)" mask="url(#satori_om-id)"/><path width="6" height="6" clip-path="url(#satori_bc-id-14)" fill="none" stroke="#2D2D2D" stroke-width="3" d="M942.879,295.879 A3,3 0 0 1 945,295 h0 a3,3 0 0 1 3,3 v0 a3,3 0 0 1 -3,3 h0 a3,3 0 0 1 -3,-3 v0 A3,3 0 0 1 942.879,295.879"/><defs><clipPath id="satori_bc-id-15" clip-path="url(#satori_cp-id)"><path x="942" y="306" width="6" height="6" d="M945,306 h0 a3,3 0 0 1 3,3 v0 a3,3 0 0 1 -3,3 h0 a3,3 0 0 1 -3,-3 v0 a3,3 0 0 1 3,-3"/></clipPath></defs><mask id="satori_om-id-15"><rect x="943.5" y="307.5" width="3" height="3" fill="#fff" mask="url(#satori_om-id)"/><path width="6" height="6" fill="none" stroke="#000" stroke-width="3" d="M942.879,306.879 A3,3 0 0 1 945,306 h0 a3,3 0 0 1 3,3 v0 a3,3 0 0 1 -3,3 h0 a3,3 0 0 1 -3,-3 v0 A3,3 0 0 1 942.879,306.879"/></mask><path x="942" y="306" width="6" height="6" fill="transparent" d="M945,306 h0 a3,3 0 0 1 3,3 v0 a3,3 0 0 1 -3,3 h0 a3,3 0 0 1 -3,-3 v0 a3,3 0 0 1 3,-3" clip-path="url(#satori_cp-id)" mask="url(#satori_om-id)"/><path width="6" height="6" clip-path="url(#satori_bc-id-15)" fill="none" stroke="#2D2D2D" stroke-width="3" d="M942.879,306.879 A3,3 0 0 1 945,306 h0 a3,3 0 0 1 3,3 v0 a3,3 0 0 1 -3,3 h0 a3,3 0 0 1 -3,-3 v0 A3,3 0 0 1 942.879,306.879"/><defs><clipPath id="satori_bc-id-16" clip-path="url(#satori_cp-id)"><path x="942" y="317" width="6" height="6" d="M945,317 h0 a3,3 0 0 1 3,3 v0 a3,3 0 0 1 -3,3 h0 a3,3 0 0 1 -3,-3 v0 a3,3 0 0 1 3,-3"/></clipPath></defs><mask id="satori_om-id-16"><rect x="943.5" y="318.5" width="3" height="3" fill="#fff" mask="url(#satori_om-id)"/><path width="6" height="6" fill="none" stroke="#000" stroke-width="3" d="M942.879,317.879 A3,3 0 0 1 945,317 h0 a3,3 0 0 1 3,3 v0 a3,3 0 0 1 -3,3 h0 a3,3 0 0 1 -3,-3 v0 A3,3 0 0 1 942.879,317.879"/></mask><path x="942" y="317" width="6" height="6" fill="transparent" d="M945,317 h0 a3,3 0 0 1 3,3 v0 a3,3 0 0 1 -3,3 h0 a3,3 0 0 1 -3,-3 v0 a3,3 0 0 1 3,-3" clip-path="url(#satori_cp-id)" mask="url(#satori_om-id)"/><path width="6" height="6" clip-path="url(#satori_bc-id-16)" fill="none" stroke="#2D2D2D" stroke-width="3" d="M942.879,317.879 A3,3 0 0 1 945,317 h0 a3,3 0 0 1 3,3 v0 a3,3 0 0 1 -3,3 h0 a3,3 0 0 1 -3,-3 v0 A3,3 0 0 1 942.879,317.879"/><mask id="satori_om-id-17"><rect x="340" y="198" width="280" height="11" fill="#fff" mask="url(#satori_om-id)"/></mask><text x="340" y="208" width="56.83238281249999" height="11" font-weight="900" font-style="normal" font-size="11" font-family="svglidelabel" letter-spacing="0.08" clip-path="url(#satori_cp-id)" fill="#2D2D2D">TRAINING</text><text x="396.8323828125" y="208" width="3.9471875" height="11" font-weight="900" font-style="normal" font-size="11" font-family="svglidelabel" letter-spacing="0.08" clip-path="url(#satori_cp-id)" fill="#2D2D2D"> </text><text x="400.77957031249997" y="208" width="60.16246093749999" height="11" font-weight="900" font-style="normal" font-size="11" font-family="svglidelabel" letter-spacing="0.08" clip-path="url(#satori_cp-id)" fill="#2D2D2D">PLAYBOOK</text><mask id="satori_om-id-18"><rect x="200" y="230" width="520" height="76" fill="#fff" mask="url(#satori_om-id)"/></mask><text x="200" y="298" width="228.07421875" height="76" font-weight="900" font-style="normal" font-size="76" font-family="svglidedisplay" clip-path="url(#satori_cp-id)" fill="#2D2D2D">DAISY</text><text x="428.07421875" y="298" width="21.115234375" height="76" font-weight="900" font-style="normal" font-size="76" font-family="svglidedisplay" clip-path="url(#satori_cp-id)" fill="#2D2D2D"> </text><text x="449.189453125" y="298" width="206.958984375" height="76" font-weight="900" font-style="normal" font-size="76" font-family="svglidedisplay" clip-path="url(#satori_cp-id)" fill="#2D2D2D">DAYS</text><mask id="satori_om-id-19"><rect x="220" y="314" width="520" height="25" fill="#fff" mask="url(#satori_om-id)"/></mask><text x="220" y="334" width="13.33984375" height="25" font-weight="900" font-style="normal" font-size="20" font-family="svglidebody" clip-path="url(#satori_cp-id)" fill="#2D2D2D">A</text><text x="233.33984375" y="334" width="5.556640625" height="25" font-weight="900" font-style="normal" font-size="20" font-family="svglidebody" clip-path="url(#satori_cp-id)" fill="#2D2D2D"> </text><text x="238.896484375" y="334" width="71.15234375" height="25" font-weight="900" font-style="normal" font-size="20" font-family="svglidebody" clip-path="url(#satori_cp-id)" fill="#2D2D2D">cheerful</text><text x="310.048828125" y="334" width="5.556640625" height="25" font-weight="900" font-style="normal" font-size="20" font-family="svglidebody" clip-path="url(#satori_cp-id)" fill="#2D2D2D"> </text><text x="315.60546875" y="334" width="110.078125" height="25" font-weight="900" font-style="normal" font-size="20" font-family="svglidebody" clip-path="url(#satori_cp-id)" fill="#2D2D2D">presentation</text><text x="425.68359375" y="334" width="5.556640625" height="25" font-weight="900" font-style="normal" font-size="20" font-family="svglidebody" clip-path="url(#satori_cp-id)" fill="#2D2D2D"> </text><text x="431.240234375" y="334" width="76.708984375" height="25" font-weight="900" font-style="normal" font-size="20" font-family="svglidebody" clip-path="url(#satori_cp-id)" fill="#2D2D2D">template</text><text x="507.94921875" y="334" width="5.556640625" height="25" font-weight="900" font-style="normal" font-size="20" font-family="svglidebody" clip-path="url(#satori_cp-id)" fill="#2D2D2D"> </text><text x="513.505859375" y="334" width="23.33984375" height="25" font-weight="900" font-style="normal" font-size="20" font-family="svglidebody" clip-path="url(#satori_cp-id)" fill="#2D2D2D">for</text><text x="536.845703125" y="334" width="5.556640625" height="25" font-weight="900" font-style="normal" font-size="20" font-family="svglidebody" clip-path="url(#satori_cp-id)" fill="#2D2D2D"> </text><text x="542.40234375" y="334" width="50.029296875" height="25" font-weight="900" font-style="normal" font-size="20" font-family="svglidebody" clip-path="url(#satori_cp-id)" fill="#2D2D2D">bright</text><text x="592.431640625" y="334" width="5.556640625" height="25" font-weight="900" font-style="normal" font-size="20" font-family="svglidebody" clip-path="url(#satori_cp-id)" fill="#2D2D2D"> </text><text x="597.98828125" y="334" width="82.24609375" height="25" font-weight="900" font-style="normal" font-size="20" font-family="svglidebody" clip-path="url(#satori_cp-id)" fill="#2D2D2D">moments</text><mask id="satori_om-id-20"><rect x="420" y="354" width="120" height="2" fill="#fff" mask="url(#satori_om-id)"/></mask><path x="420" y="354" width="120" height="2" fill="#2D2D2D" d="M421,354 h118 a1,1 0 0 1 1,1 v0 a1,1 0 0 1 -1,1 h-118 a1,1 0 0 1 -1,-1 v0 a1,1 0 0 1 1,-1" clip-path="url(#satori_cp-id)" mask="url(#satori_om-id)"/><mask id="satori_om-id-21"><rect x="390" y="504" width="180" height="28" fill="#fff" mask="url(#satori_om-id)"/></mask><path x="390" y="504" width="180" height="28" fill="#2D2D2D" d="M400,504 h160 a10,10 0 0 1 10,10 v8 a10,10 0 0 1 -10,10 h-160 a10,10 0 0 1 -10,-10 v-8 a10,10 0 0 1 10,-10" clip-path="url(#satori_cp-id)" mask="url(#satori_om-id)"/><defs><clipPath id="satori_bc-id-22" clip-path="url(#satori_cp-id)"><path x="410" y="504" width="140" height="18" d="M419,504 h122 a9,9 0 0 1 9,9 v0 a9,9 0 0 1 -9,9 h-122 a9,9 0 0 1 -9,-9 v0 a9,9 0 0 1 9,-9"/></clipPath></defs><mask id="satori_om-id-22"><rect x="412" y="506" width="136" height="14" fill="#fff" mask="url(#satori_om-id)"/><path width="140" height="18" fill="none" stroke="#000" stroke-width="4" d="M412.636,506.636 A9,9 0 0 1 419,504 h122 a9,9 0 0 1 9,9 v0 a9,9 0 0 1 -9,9 h-122 a9,9 0 0 1 -9,-9 v0 A9,9 0 0 1 412.636,506.636"/></mask><path x="410" y="504" width="140" height="18" fill="#FFFFFF" d="M419,504 h122 a9,9 0 0 1 9,9 v0 a9,9 0 0 1 -9,9 h-122 a9,9 0 0 1 -9,-9 v0 a9,9 0 0 1 9,-9" clip-path="url(#satori_cp-id)" mask="url(#satori_om-id)"/><path width="140" height="18" clip-path="url(#satori_bc-id-22)" fill="none" stroke="#2D2D2D" stroke-width="4" d="M412.636,506.636 A9,9 0 0 1 419,504 h122 a9,9 0 0 1 9,9 v0 a9,9 0 0 1 -9,9 h-122 a9,9 0 0 1 -9,-9 v0 A9,9 0 0 1 412.636,506.636"/><mask id="satori_om-id-22-0"><rect x="469" y="509" width="22" height="8" fill="#fff" mask="url(#satori_om-id)"/></mask><text x="469" y="516" width="4.1953125" height="8" font-weight="900" font-style="normal" font-size="8" font-family="svglidemetric" clip-path="url(#satori_cp-id)" fill="#2D2D2D">1</text><text x="473.1953125" y="516" width="2.41015625" height="8" font-weight="900" font-style="normal" font-size="8" font-family="svglidemetric" clip-path="url(#satori_cp-id)" fill="#2D2D2D"> </text><text x="475.60546875" y="516" width="4.1953125" height="8" font-weight="900" font-style="normal" font-size="8" font-family="svglidemetric" clip-path="url(#satori_cp-id)" fill="#2D2D2D">/</text><text x="479.80078125" y="516" width="2.41015625" height="8" font-weight="900" font-style="normal" font-size="8" font-family="svglidemetric" clip-path="url(#satori_cp-id)" fill="#2D2D2D"> </text><text x="482.2109375" y="516" width="8.390625" height="8" font-weight="900" font-style="normal" font-size="8" font-family="svglidemetric" clip-path="url(#satori_cp-id)" fill="#2D2D2D">10</text></svg>