<svg width="960" height="540" viewBox="0 0 960 540" xmlns="http://www.w3.org/2000/svg"><clipPath id="satori_cp-id"><rect x="0" y="0" width="960" height="540"/></clipPath><mask id="satori_om-id"><rect x="0" y="0" width="960" height="540" fill="#fff"/></mask><rect x="0" y="0" width="960" height="540" fill="#F5F4EF"/><mask id="satori_om-id-0"><rect x="0" y="0" width="255" height="540" fill="#fff" mask="url(#satori_om-id)"/></mask><rect x="0" y="0" width="255" height="540" fill="#0A0A0A" clip-path="url(#satori_cp-id)" mask="url(#satori_om-id)"/><defs><clipPath id="satori_bc-id-1" clip-path="url(#satori_cp-id)"><rect x="36" y="42" width="168" height="376"/></clipPath></defs><mask id="satori_om-id-1"><rect x="37" y="43" width="166" height="374" fill="#fff" mask="url(#satori_om-id)"/><path width="168" height="376" fill="none" stroke="#000" stroke-width="2" d="M36,42 A0,0 0 0 1 36,42 h168 a0,0 0 0 1 0,0 v376 a0,0 0 0 1 0,0 h-168 a0,0 0 0 1 0,0 v-376 A0,0 0 0 1 36,42"/></mask><path width="168" height="376" clip-path="url(#satori_bc-id-1)" fill="none" stroke="#1F1F1F" stroke-width="2" d="M36,42 A0,0 0 0 1 36,42 h168 a0,0 0 0 1 0,0 v376 a0,0 0 0 1 0,0 h-168 a0,0 0 0 1 0,0 v-376 A0,0 0 0 1 36,42"/><mask id="satori_om-id-2"><rect x="72" y="104" width="96" height="1" fill="#fff" mask="url(#satori_om-id)"/></mask><rect x="72" y="104" width="96" height="1" fill="#2A2A2A" clip-path="url(#satori_cp-id)" mask="url(#satori_om-id)"/><mask id="satori_om-id-3"><rect x="72" y="252" width="96" height="1" fill="#fff" mask="url(#satori_om-id)"/></mask><rect x="72" y="252" width="96" height="1" fill="#2A2A2A" clip-path="url(#satori_cp-id)" mask="url(#satori_om-id)"/><mask id="satori_om-id-4"><rect x="72" y="400" width="96" height="1" fill="#fff" mask="url(#satori_om-id)"/></mask><rect x="72" y="400" width="96" height="1" fill="#2A2A2A" clip-path="url(#satori_cp-id)" mask="url(#satori_om-id)"/><mask id="satori_om-id-5"><rect x="652" y="0" width="308" height="230" fill="#fff" mask="url(#satori_om-id)"/></mask><rect x="652" y="0" width="308" height="230" fill="#0A0A0A" clip-path="url(#satori_cp-id)" mask="url(#satori_om-id)"/><defs><clipPath id="satori_bc-id-6" clip-path="url(#satori_cp-id)"><rect x="746" y="54" width="140" height="120"/></clipPath></defs><mask id="satori_om-id-6"><rect x="747" y="55" width="138" height="118" fill="#fff" mask="url(#satori_om-id)"/><path width="140" height="120" fill="none" stroke="#000" stroke-width="2" d="M746,54 A0,0 0 0 1 746,54 h140 a0,0 0 0 1 0,0 v120 a0,0 0 0 1 0,0 h-140 a0,0 0 0 1 0,0 v-120 A0,0 0 0 1 746,54"/></mask><path width="140" height="120" clip-path="url(#satori_bc-id-6)" fill="none" stroke="#202020" stroke-width="2" d="M746,54 A0,0 0 0 1 746,54 h140 a0,0 0 0 1 0,0 v120 a0,0 0 0 1 0,0 h-140 a0,0 0 0 1 0,0 v-120 A0,0 0 0 1 746,54"/><mask id="satori_om-id-7"><rect x="784" y="102" width="64" height="1" fill="#fff" mask="url(#satori_om-id)"/></mask><rect x="784" y="102" width="64" height="1" fill="#2B2B2B" clip-path="url(#satori_cp-id)" mask="url(#satori_om-id)"/><mask id="satori_om-id-8"><rect x="784" y="132" width="64" height="1" fill="#fff" mask="url(#satori_om-id)"/></mask><rect x="784" y="132" width="64" height="1" fill="#2B2B2B" clip-path="url(#satori_cp-id)" mask="url(#satori_om-id)"/><mask id="satori_om-id-9"><rect x="256" y="0" width="390" height="540" fill="#fff" mask="url(#satori_om-id)"/></mask><rect x="256" y="0" width="390" height="540" fill="#E6FF3D" clip-path="url(#satori_cp-id)" mask="url(#satori_om-id)"/><mask id="satori_om-id-10"><rect x="278" y="24" width="38" height="38" fill="#fff" mask="url(#satori_om-id)"/></mask><mask id="satori_om-id-10-0"><rect x="278" y="24" width="8" height="8" fill="#fff" mask="url(#satori_om-id)"/></mask><rect x="278" y="24" width="8" height="8" fill="#0A0A0A" clip-path="url(#satori_cp-id)" mask="url(#satori_om-id)"/><mask id="satori_om-id-10-1"><rect x="287" y="24" width="8" height="8" fill="#fff" mask="url(#satori_om-id)"/></mask><rect x="287" y="24" width="8" height="8" fill="#E6FF3D" clip-path="url(#satori_cp-id)" mask="url(#satori_om-id)"/><mask id="satori_om-id-10-2"><rect x="296" y="24" width="8" height="8" fill="#fff" mask="url(#satori_om-id)"/></mask><rect x="296" y="24" width="8" height="8" fill="#0A0A0A" clip-path="url(#satori_cp-id)" mask="url(#satori_om-id)"/><mask id="satori_om-id-10-3"><rect x="305" y="24" width="8" height="8" fill="#fff" mask="url(#satori_om-id)"/></mask><rect x="305" y="24" width="8" height="8" fill="#E6FF3D" clip-path="url(#satori_cp-id)" mask="url(#satori_om-id)"/><mask id="satori_om-id-10-4"><rect x="278" y="33" width="8" height="8" fill="#fff" mask="url(#satori_om-id)"/></mask><rect x="278" y="33" width="8" height="8" fill="#0A0A0A" clip-path="url(#satori_cp-id)" mask="url(#satori_om-id)"/><mask id="satori_om-id-10-5"><rect x="287" y="33" width="8" height="8" fill="#fff" mask="url(#satori_om-id)"/></mask><rect x="287" y="33" width="8" height="8" fill="#E6FF3D" clip-path="url(#satori_cp-id)" mask="url(#satori_om-id)"/><mask id="satori_om-id-10-6"><rect x="296" y="33" width="8" height="8" fill="#fff" mask="url(#satori_om-id)"/></mask><rect x="296" y="33" width="8" height="8" fill="#0A0A0A" clip-path="url(#satori_cp-id)" mask="url(#satori_om-id)"/><mask id="satori_om-id-10-7"><rect x="305" y="33" width="8" height="8" fill="#fff" mask="url(#satori_om-id)"/></mask><rect x="305" y="33" width="8" height="8" fill="#E6FF3D" clip-path="url(#satori_cp-id)" mask="url(#satori_om-id)"/><mask id="satori_om-id-10-8"><rect x="278" y="42" width="8" height="8" fill="#fff" mask="url(#satori_om-id)"/></mask><rect x="278" y="42" width="8" height="8" fill="#0A0A0A" clip-path="url(#satori_cp-id)" mask="url(#satori_om-id)"/><mask id="satori_om-id-10-9"><rect x="287" y="42" width="8" height="8" fill="#fff" mask="url(#satori_om-id)"/></mask><rect x="287" y="42" width="8" height="8" fill="#E6FF3D" clip-path="url(#satori_cp-id)" mask="url(#satori_om-id)"/><mask id="satori_om-id-10-10"><rect x="296" y="42" width="8" height="8" fill="#fff" mask="url(#satori_om-id)"/></mask><rect x="296" y="42" width="8" height="8" fill="#0A0A0A" clip-path="url(#satori_cp-id)" mask="url(#satori_om-id)"/><mask id="satori_om-id-10-11"><rect x="305" y="42" width="8" height="8" fill="#fff" mask="url(#satori_om-id)"/></mask><rect x="305" y="42" width="8" height="8" fill="#E6FF3D" clip-path="url(#satori_cp-id)" mask="url(#satori_om-id)"/><mask id="satori_om-id-10-12"><rect x="278" y="51" width="8" height="8" fill="#fff" mask="url(#satori_om-id)"/></mask><rect x="278" y="51" width="8" height="8" fill="#0A0A0A" clip-path="url(#satori_cp-id)" mask="url(#satori_om-id)"/><mask id="satori_om-id-10-13"><rect x="287" y="51" width="8" height="8" fill="#fff" mask="url(#satori_om-id)"/></mask><rect x="287" y="51" width="8" height="8" fill="#E6FF3D" clip-path="url(#satori_cp-id)" mask="url(#satori_om-id)"/><mask id="satori_om-id-10-14"><rect x="296" y="51" width="8" height="8" fill="#fff" mask="url(#satori_om-id)"/></mask><rect x="296" y="51" width="8" height="8" fill="#0A0A0A" clip-path="url(#satori_cp-id)" mask="url(#satori_om-id)"/><mask id="satori_om-id-10-15"><rect x="305" y="51" width="8" height="8" fill="#fff" mask="url(#satori_om-id)"/></mask><rect x="305" y="51" width="8" height="8" fill="#E6FF3D" clip-path="url(#satori_cp-id)" mask="url(#satori_om-id)"/><mask id="satori_om-id-11"><rect x="562" y="434" width="42" height="42" fill="#fff" mask="url(#satori_om-id)"/></mask><mask id="satori_om-id-11-0"><rect x="562" y="434" width="10" height="10" fill="#fff" mask="url(#satori_om-id)"/></mask><rect x="562" y="434" width="10" height="10" fill="#0A0A0A" clip-path="url(#satori_cp-id)" mask="url(#satori_om-id)"/><mask id="satori_om-id-11-1"><rect x="574" y="434" width="10" height="10" fill="#fff" mask="url(#satori_om-id)"/></mask><rect x="574" y="434" width="10" height="10" fill="#E6FF3D" clip-path="url(#satori_cp-id)" mask="url(#satori_om-id)"/><mask id="satori_om-id-11-2"><rect x="586" y="434" width="10" height="10" fill="#fff" mask="url(#satori_om-id)"/></mask><rect x="586" y="434" width="10" height="10" fill="#0A0A0A" clip-path="url(#satori_cp-id)" mask="url(#satori_om-id)"/><mask id="satori_om-id-11-3"><rect x="562" y="446" width="10" height="10" fill="#fff" mask="url(#satori_om-id)"/></mask><rect x="562" y="446" width="10" height="10" fill="#E6FF3D" clip-path="url(#satori_cp-id)" mask="url(#satori_om-id)"/><mask id="satori_om-id-11-4"><rect x="574" y="446" width="10" height="10" fill="#fff" mask="url(#satori_om-id)"/></mask><rect x="574" y="446" width="10" height="10" fill="#0A0A0A" clip-path="url(#satori_cp-id)" mask="url(#satori_om-id)"/><mask id="satori_om-id-11-5"><rect x="586" y="446" width="10" height="10" fill="#fff" mask="url(#satori_om-id)"/></mask><rect x="586" y="446" width="10" height="10" fill="#E6FF3D" clip-path="url(#satori_cp-id)" mask="url(#satori_om-id)"/><mask id="satori_om-id-11-6"><rect x="562" y="458" width="10" height="10" fill="#fff" mask="url(#satori_om-id)"/></mask><rect x="562" y="458" width="10" height="10" fill="#0A0A0A" clip-path="url(#satori_cp-id)" mask="url(#satori_om-id)"/><mask id="satori_om-id-11-7"><rect x="574" y="458" width="10" height="10" fill="#fff" mask="url(#satori_om-id)"/></mask><rect x="574" y="458" width="10" height="10" fill="#E6FF3D" clip-path="url(#satori_cp-id)" mask="url(#satori_om-id)"/><mask id="satori_om-id-11-8"><rect x="586" y="458" width="10" height="10" fill="#fff" mask="url(#satori_om-id)"/></mask><rect x="586" y="458" width="10" height="10" fill="#0A0A0A" clip-path="url(#satori_cp-id)" mask="url(#satori_om-id)"/><mask id="satori_om-id-12"><rect x="285" y="305" width="292" height="44" fill="#fff" mask="url(#satori_om-id)"/></mask><text x="285" y="325" width="48" height="21.6" font-weight="900" font-style="normal" font-size="24" font-family="svglidedisplay" clip-path="url(#satori_cp-id)" fill="#0A0A0A">THE</text><text x="333" y="325" width="6.66796875" height="21.6" font-weight="900" font-style="normal" font-size="24" font-family="svglidedisplay" clip-path="url(#satori_cp-id)" fill="#0A0A0A"> </text><text x="339.66796875" y="325" width="97.32421875" height="21.6" font-weight="900" font-style="normal" font-size="24" font-family="svglidedisplay" clip-path="url(#satori_cp-id)" fill="#0A0A0A">FUTURE</text><text x="436.9921875" y="325" width="6.66796875" height="21.6" font-weight="900" font-style="normal" font-size="24" font-family="svglidedisplay" clip-path="url(#satori_cp-id)" fill="#0A0A0A"> </text><text x="443.66015625" y="325" width="33.328125" height="21.6" font-weight="900" font-style="normal" font-size="24" font-family="svglidedisplay" clip-path="url(#satori_cp-id)" fill="#0A0A0A">OF</text><text x="476.98828125" y="325" width="6.66796875" height="21.6" font-weight="900" font-style="normal" font-size="24" font-family="svglidedisplay" clip-path="url(#satori_cp-id)" fill="#0A0A0A"> </text><text x="483.65625" y="325" width="64.0078125" height="21.6" font-weight="900" font-style="normal" font-size="24" font-family="svglidedisplay" clip-path="url(#satori_cp-id)" fill="#0A0A0A">DATA</text><text x="547.6640625" y="325" width="7.9921875" height="21.6" font-weight="900" font-style="normal" font-size="24" font-family="svglidedisplay" clip-path="url(#satori_cp-id)" fill="#0A0A0A">-</text><text x="285" y="347" width="90.6796875" height="21.6" font-weight="900" font-style="normal" font-size="24" font-family="svglidedisplay" clip-path="url(#satori_cp-id)" fill="#0A0A0A">DRIVEN</text><text x="375.6796875" y="347" width="6.66796875" height="21.6" font-weight="900" font-style="normal" font-size="24" font-family="svglidedisplay" clip-path="url(#satori_cp-id)" fill="#0A0A0A"> </text><text x="382.34765625" y="347" width="105.33984375" height="21.6" font-weight="900" font-style="normal" font-size="24" font-family="svglidedisplay" clip-path="url(#satori_cp-id)" fill="#0A0A0A">FINANCE</text><mask id="satori_om-id-13"><rect x="20" y="484" width="26" height="8" fill="#fff" mask="url(#satori_om-id)"/></mask><text x="20" y="491" width="8.390625" height="7.6" font-weight="600" font-style="normal" font-size="8" font-family="svglidemetric" clip-path="url(#satori_cp-id)" fill="#F5F4EF">08</text><text x="28.390625" y="491" width="2.41015625" height="7.6" font-weight="600" font-style="normal" font-size="8" font-family="svglidemetric" clip-path="url(#satori_cp-id)" fill="#F5F4EF"> </text><text x="30.80078125" y="491" width="4.1953125" height="7.6" font-weight="600" font-style="normal" font-size="8" font-family="svglidemetric" clip-path="url(#satori_cp-id)" fill="#F5F4EF">/</text><text x="34.99609375" y="491" width="2.41015625" height="7.6" font-weight="600" font-style="normal" font-size="8" font-family="svglidemetric" clip-path="url(#satori_cp-id)" fill="#F5F4EF"> </text><text x="37.40625" y="491" width="8.390625" height="7.6" font-weight="600" font-style="normal" font-size="8" font-family="svglidemetric" clip-path="url(#satori_cp-id)" fill="#F5F4EF">13</text><mask id="satori_om-id-14"><rect x="851" y="489" width="77" height="9" fill="#fff" mask="url(#satori_om-id)"/></mask><text x="851" y="497" width="12.9656640625" height="9.450000000000001" font-weight="700" font-style="normal" font-size="9" font-family="svglidelabel" letter-spacing="0.08" clip-path="url(#satori_cp-id)" fill="#0A0A0A">Q2</text><text x="863.9656640625" y="497" width="3.2440625" height="9.450000000000001" font-weight="700" font-style="normal" font-size="9" font-family="svglidelabel" letter-spacing="0.08" clip-path="url(#satori_cp-id)" fill="#0A0A0A"> </text><text x="867.2097265625" y="497" width="23.20671875" height="9.450000000000001" font-weight="700" font-style="normal" font-size="9" font-family="svglidelabel" letter-spacing="0.08" clip-path="url(#satori_cp-id)" fill="#0A0A0A">2026</text><text x="890.4164453125" y="497" width="3.2440625" height="9.450000000000001" font-weight="700" font-style="normal" font-size="9" font-family="svglidelabel" letter-spacing="0.08" clip-path="url(#satori_cp-id)" fill="#0A0A0A"> </text><text x="893.6605078125" y="497" width="33.6675" height="9.450000000000001" font-weight="700" font-style="normal" font-size="9" font-family="svglidelabel" letter-spacing="0.08" clip-path="url(#satori_cp-id)" fill="#0A0A0A">DIGITS</text><mask id="satori_om-id-15"><rect x="862" y="506" width="58" height="9" fill="#fff" mask="url(#satori_om-id)"/></mask><text x="862" y="513" width="7.779296875" height="9.24" font-weight="400" font-style="normal" font-size="7" font-family="svglidebody" clip-path="url(#satori_cp-id)" fill="#464646">All</text><text x="869.779296875" y="513" width="1.94482421875" height="9.24" font-weight="400" font-style="normal" font-size="7" font-family="svglidebody" clip-path="url(#satori_cp-id)" fill="#464646"> </text><text x="871.72412109375" y="513" width="17.1171875" height="9.24" font-weight="400" font-style="normal" font-size="7" font-family="svglidebody" clip-path="url(#satori_cp-id)" fill="#464646">rights</text><text x="888.84130859375" y="513" width="1.94482421875" height="9.24" font-weight="400" font-style="normal" font-size="7" font-family="svglidebody" clip-path="url(#satori_cp-id)" fill="#464646"> </text><text x="890.7861328125" y="513" width="27.234375" height="9.24" font-weight="400" font-style="normal" font-size="7" font-family="svglidebody" clip-path="url(#satori_cp-id)" fill="#464646">reserved</text><text x="918.0205078125" y="513" width="1.94482421875" height="9.24" font-weight="400" font-style="normal" font-size="7" font-family="svglidebody" clip-path="url(#satori_cp-id)" fill="#464646">.</text></svg>