<svg width="960" height="540" viewBox="0 0 960 540" xmlns="http://www.w3.org/2000/svg"><clipPath id="satori_cp-id"><rect x="0" y="0" width="960" height="540"/></clipPath><mask id="satori_om-id"><rect x="0" y="0" width="960" height="540" fill="#fff"/></mask><rect x="0" y="0" width="960" height="540" fill="#1C2644"/><mask id="satori_om-id-0"><rect x="80" y="0" width="1" height="540" fill="#fff" mask="url(#satori_om-id)"/></mask><g opacity="0.72"><rect x="80" y="0" width="1" height="540" fill="#4E5A6E" clip-path="url(#satori_cp-id)" mask="url(#satori_om-id)"/></g><mask id="satori_om-id-1"><rect x="160" y="0" width="1" height="540" fill="#fff" mask="url(#satori_om-id)"/></mask><g opacity="0.72"><rect x="160" y="0" width="1" height="540" fill="#4E5A6E" clip-path="url(#satori_cp-id)" mask="url(#satori_om-id)"/></g><mask id="satori_om-id-2"><rect x="240" y="0" width="1" height="540" fill="#fff" mask="url(#satori_om-id)"/></mask><g opacity="0.72"><rect x="240" y="0" width="1" height="540" fill="#4E5A6E" clip-path="url(#satori_cp-id)" mask="url(#satori_om-id)"/></g><mask id="satori_om-id-3"><rect x="320" y="0" width="1" height="540" fill="#fff" mask="url(#satori_om-id)"/></mask><g opacity="0.72"><rect x="320" y="0" width="1" height="540" fill="#4E5A6E" clip-path="url(#satori_cp-id)" mask="url(#satori_om-id)"/></g><mask id="satori_om-id-4"><rect x="400" y="0" width="1" height="540" fill="#fff" mask="url(#satori_om-id)"/></mask><g opacity="0.72"><rect x="400" y="0" width="1" height="540" fill="#4E5A6E" clip-path="url(#satori_cp-id)" mask="url(#satori_om-id)"/></g><mask id="satori_om-id-5"><rect x="480" y="0" width="1" height="540" fill="#fff" mask="url(#satori_om-id)"/></mask><g opacity="0.72"><rect x="480" y="0" width="1" height="540" fill="#4E5A6E" clip-path="url(#satori_cp-id)" mask="url(#satori_om-id)"/></g><mask id="satori_om-id-6"><rect x="560" y="0" width="1" height="540" fill="#fff" mask="url(#satori_om-id)"/></mask><g opacity="0.72"><rect x="560" y="0" width="1" height="540" fill="#4E5A6E" clip-path="url(#satori_cp-id)" mask="url(#satori_om-id)"/></g><mask id="satori_om-id-7"><rect x="640" y="0" width="1" height="540" fill="#fff" mask="url(#satori_om-id)"/></mask><g opacity="0.72"><rect x="640" y="0" width="1" height="540" fill="#4E5A6E" clip-path="url(#satori_cp-id)" mask="url(#satori_om-id)"/></g><mask id="satori_om-id-8"><rect x="720" y="0" width="1" height="540" fill="#fff" mask="url(#satori_om-id)"/></mask><g opacity="0.72"><rect x="720" y="0" width="1" height="540" fill="#4E5A6E" clip-path="url(#satori_cp-id)" mask="url(#satori_om-id)"/></g><mask id="satori_om-id-9"><rect x="800" y="0" width="1" height="540" fill="#fff" mask="url(#satori_om-id)"/></mask><g opacity="0.72"><rect x="800" y="0" width="1" height="540" fill="#4E5A6E" clip-path="url(#satori_cp-id)" mask="url(#satori_om-id)"/></g><mask id="satori_om-id-10"><rect x="880" y="0" width="1" height="540" fill="#fff" mask="url(#satori_om-id)"/></mask><g opacity="0.72"><rect x="880" y="0" width="1" height="540" fill="#4E5A6E" clip-path="url(#satori_cp-id)" mask="url(#satori_om-id)"/></g><mask id="satori_om-id-11"><rect x="0" y="80" width="960" height="1" fill="#fff" mask="url(#satori_om-id)"/></mask><g opacity="0.72"><rect x="0" y="80" width="960" height="1" fill="#4E5A6E" clip-path="url(#satori_cp-id)" mask="url(#satori_om-id)"/></g><mask id="satori_om-id-12"><rect x="0" y="160" width="960" height="1" fill="#fff" mask="url(#satori_om-id)"/></mask><g opacity="0.72"><rect x="0" y="160" width="960" height="1" fill="#4E5A6E" clip-path="url(#satori_cp-id)" mask="url(#satori_om-id)"/></g><mask id="satori_om-id-13"><rect x="0" y="240" width="960" height="1" fill="#fff" mask="url(#satori_om-id)"/></mask><g opacity="0.72"><rect x="0" y="240" width="960" height="1" fill="#4E5A6E" clip-path="url(#satori_cp-id)" mask="url(#satori_om-id)"/></g><mask id="satori_om-id-14"><rect x="0" y="320" width="960" height="1" fill="#fff" mask="url(#satori_om-id)"/></mask><g opacity="0.72"><rect x="0" y="320" width="960" height="1" fill="#4E5A6E" clip-path="url(#satori_cp-id)" mask="url(#satori_om-id)"/></g><mask id="satori_om-id-15"><rect x="0" y="400" width="960" height="1" fill="#fff" mask="url(#satori_om-id)"/></mask><g opacity="0.72"><rect x="0" y="400" width="960" height="1" fill="#4E5A6E" clip-path="url(#satori_cp-id)" mask="url(#satori_om-id)"/></g><mask id="satori_om-id-16"><rect x="0" y="480" width="960" height="1" fill="#fff" mask="url(#satori_om-id)"/></mask><g opacity="0.72"><rect x="0" y="480" width="960" height="1" fill="#4E5A6E" clip-path="url(#satori_cp-id)" mask="url(#satori_om-id)"/></g><mask id="satori_om-id-17"><rect x="64" y="64" width="832" height="1" fill="#fff" mask="url(#satori_om-id)"/></mask><g opacity="0.74"><rect x="64" y="64" width="832" height="1" fill="#2E3D5C" clip-path="url(#satori_cp-id)" mask="url(#satori_om-id)"/></g><mask id="satori_om-id-18"><rect x="64" y="489" width="832" height="1" fill="#fff" mask="url(#satori_om-id)"/></mask><g opacity="0.7"><rect x="64" y="489" width="832" height="1" fill="#2E3D5C" clip-path="url(#satori_cp-id)" mask="url(#satori_om-id)"/></g><mask id="satori_om-id-19"><rect x="64" y="48" width="189" height="11" fill="#fff" mask="url(#satori_om-id)"/></mask><text x="64" y="57" width="47.132265624999995" height="10.5" font-weight="700" font-style="normal" font-size="10" font-family="svglidelabel" letter-spacing="0.08" clip-path="url(#satori_cp-id)" fill="#8A96A8">JOURNAL</text><text x="111.132265625" y="57" width="3.595625" height="10.5" font-weight="700" font-style="normal" font-size="10" font-family="svglidelabel" letter-spacing="0.08" clip-path="url(#satori_cp-id)" fill="#8A96A8"> </text><text x="114.72789062499999" y="57" width="4.621015625" height="10.5" font-weight="700" font-style="normal" font-size="10" font-family="svglidelabel" letter-spacing="0.08" clip-path="url(#satori_cp-id)" fill="#8A96A8">/</text><text x="119.34890625" y="57" width="3.595625" height="10.5" font-weight="700" font-style="normal" font-size="10" font-family="svglidelabel" letter-spacing="0.08" clip-path="url(#satori_cp-id)" fill="#8A96A8"> </text><text x="122.94453124999998" y="57" width="58.31089843749999" height="10.5" font-weight="700" font-style="normal" font-size="10" font-family="svglidelabel" letter-spacing="0.08" clip-path="url(#satori_cp-id)" fill="#8A96A8">LONGFORM</text><text x="181.25542968749997" y="57" width="3.595625" height="10.5" font-weight="700" font-style="normal" font-size="10" font-family="svglidelabel" letter-spacing="0.08" clip-path="url(#satori_cp-id)" fill="#8A96A8"> </text><text x="184.85105468749998" y="57" width="4.621015625" height="10.5" font-weight="700" font-style="normal" font-size="10" font-family="svglidelabel" letter-spacing="0.08" clip-path="url(#satori_cp-id)" fill="#8A96A8">/</text><text x="189.47207031249997" y="57" width="3.595625" height="10.5" font-weight="700" font-style="normal" font-size="10" font-family="svglidelabel" letter-spacing="0.08" clip-path="url(#satori_cp-id)" fill="#8A96A8"> </text><text x="193.06769531249998" y="57" width="28.11296875" height="10.5" font-weight="700" font-style="normal" font-size="10" font-family="svglidelabel" letter-spacing="0.08" clip-path="url(#satori_cp-id)" fill="#8A96A8">DESK</text><text x="221.18066406249997" y="57" width="3.595625" height="10.5" font-weight="700" font-style="normal" font-size="10" font-family="svglidelabel" letter-spacing="0.08" clip-path="url(#satori_cp-id)" fill="#8A96A8"> </text><text x="224.77628906249998" y="57" width="28.1569140625" height="10.5" font-weight="700" font-style="normal" font-size="10" font-family="svglidelabel" letter-spacing="0.08" clip-path="url(#satori_cp-id)" fill="#8A96A8">NOTE</text><mask id="satori_om-id-20"><rect x="736" y="48" width="160" height="11" fill="#fff" mask="url(#satori_om-id)"/></mask><text x="736" y="57" width="46.683046874999995" height="10.5" font-weight="700" font-style="normal" font-size="10" font-family="svglidelabel" letter-spacing="0.08" clip-path="url(#satori_cp-id)" fill="#8A96A8">JANUARY</text><text x="782.683046875" y="57" width="3.595625" height="10.5" font-weight="700" font-style="normal" font-size="10" font-family="svglidelabel" letter-spacing="0.08" clip-path="url(#satori_cp-id)" fill="#8A96A8"> </text><text x="786.278671875" y="57" width="4.621015625" height="10.5" font-weight="700" font-style="normal" font-size="10" font-family="svglidelabel" letter-spacing="0.08" clip-path="url(#satori_cp-id)" fill="#8A96A8">/</text><text x="790.8996875" y="57" width="3.595625" height="10.5" font-weight="700" font-style="normal" font-size="10" font-family="svglidelabel" letter-spacing="0.08" clip-path="url(#satori_cp-id)" fill="#8A96A8"> </text><text x="794.4953125" y="57" width="51.39195312499999" height="10.5" font-weight="700" font-style="normal" font-size="10" font-family="svglidelabel" letter-spacing="0.08" clip-path="url(#satori_cp-id)" fill="#8A96A8">ANALYSIS</text><text x="845.8872656249999" y="57" width="3.595625" height="10.5" font-weight="700" font-style="normal" font-size="10" font-family="svglidelabel" letter-spacing="0.08" clip-path="url(#satori_cp-id)" fill="#8A96A8"> </text><text x="849.482890625" y="57" width="4.621015625" height="10.5" font-weight="700" font-style="normal" font-size="10" font-family="svglidelabel" letter-spacing="0.08" clip-path="url(#satori_cp-id)" fill="#8A96A8">/</text><text x="854.10390625" y="57" width="3.595625" height="10.5" font-weight="700" font-style="normal" font-size="10" font-family="svglidelabel" letter-spacing="0.08" clip-path="url(#satori_cp-id)" fill="#8A96A8"> </text><text x="857.69953125" y="57" width="25.7496875" height="10.5" font-weight="700" font-style="normal" font-size="10" font-family="svglidelabel" letter-spacing="0.08" clip-path="url(#satori_cp-id)" fill="#8A96A8">2026</text><mask id="satori_om-id-21"><rect x="64" y="127" width="34" height="1" fill="#fff" mask="url(#satori_om-id)"/></mask><rect x="64" y="127" width="34" height="1" fill="#C8A870" clip-path="url(#satori_cp-id)" mask="url(#satori_om-id)"/><mask id="satori_om-id-22"><rect x="64" y="147" width="445" height="104" fill="#fff" mask="url(#satori_om-id)"/></mask><text x="64" y="194" width="15.0029296875" height="51.839999999999996" font-weight="800" font-style="normal" font-size="54" font-family="svglidedisplay" clip-path="url(#satori_cp-id)" fill="#E2DCD0">[</text><text x="79.0029296875" y="194" width="420.0556640625" height="51.839999999999996" font-weight="800" font-style="normal" font-size="54" font-family="svglidedisplay" clip-path="url(#satori_cp-id)" fill="#E2DCD0">PRESENTATION</text><text x="499.05859375" y="194" width="15.0029296875" height="51.839999999999996" font-weight="800" font-style="normal" font-size="54" font-family="svglidedisplay" clip-path="url(#satori_cp-id)" fill="#E2DCD0">]</text><text x="514.0615234375" y="194" width="27" height="51.839999999999996" font-weight="800" font-style="normal" font-size="54" font-family="svglidedisplay" clip-path="url(#satori_cp-id)" fill="#E2DCD0">
</text><text x="64" y="246" width="147.0234375" height="51.839999999999996" font-weight="800" font-style="normal" font-size="54" font-family="svglidedisplay" clip-path="url(#satori_cp-id)" fill="#E2DCD0">TITLE</text><mask id="satori_om-id-23"><rect x="66" y="284" width="360" height="48" fill="#fff" mask="url(#satori_om-id)"/></mask><text x="66" y="303" width="12.005859375" height="23.76" font-weight="400" font-style="normal" font-size="18" font-family="svglidebody" clip-path="url(#satori_cp-id)" fill="#8A96A8">A</text><text x="78.005859375" y="303" width="5.0009765625" height="23.76" font-weight="400" font-style="normal" font-size="18" font-family="svglidebody" clip-path="url(#satori_cp-id)" fill="#8A96A8"> </text><text x="83.0068359375" y="303" width="40.0166015625" height="23.76" font-weight="400" font-style="normal" font-size="18" font-family="svglidebody" clip-path="url(#satori_cp-id)" fill="#8A96A8">short</text><text x="123.0234375" y="303" width="5.0009765625" height="23.76" font-weight="400" font-style="normal" font-size="18" font-family="svglidebody" clip-path="url(#satori_cp-id)" fill="#8A96A8"> </text><text x="128.0244140625" y="303" width="87.046875" height="23.76" font-weight="400" font-style="normal" font-size="18" font-family="svglidebody" clip-path="url(#satori_cp-id)" fill="#8A96A8">description</text><text x="215.0712890625" y="303" width="5.0009765625" height="23.76" font-weight="400" font-style="normal" font-size="18" font-family="svglidebody" clip-path="url(#satori_cp-id)" fill="#8A96A8"> </text><text x="220.072265625" y="303" width="15.01171875" height="23.76" font-weight="400" font-style="normal" font-size="18" font-family="svglidebody" clip-path="url(#satori_cp-id)" fill="#8A96A8">of</text><text x="235.083984375" y="303" width="5.0009765625" height="23.76" font-weight="400" font-style="normal" font-size="18" font-family="svglidebody" clip-path="url(#satori_cp-id)" fill="#8A96A8"> </text><text x="240.0849609375" y="303" width="25.0224609375" height="23.76" font-weight="400" font-style="normal" font-size="18" font-family="svglidebody" clip-path="url(#satori_cp-id)" fill="#8A96A8">the</text><text x="265.107421875" y="303" width="5.0009765625" height="23.76" font-weight="400" font-style="normal" font-size="18" font-family="svglidebody" clip-path="url(#satori_cp-id)" fill="#8A96A8"> </text><text x="270.1083984375" y="303" width="38.021484375" height="23.76" font-weight="400" font-style="normal" font-size="18" font-family="svglidebody" clip-path="url(#satori_cp-id)" fill="#8A96A8">deck</text><text x="308.1298828125" y="303" width="5.0009765625" height="23.76" font-weight="400" font-style="normal" font-size="18" font-family="svglidebody" clip-path="url(#satori_cp-id)" fill="#8A96A8">,</text><text x="313.130859375" y="303" width="5.0009765625" height="23.76" font-weight="400" font-style="normal" font-size="18" font-family="svglidebody" clip-path="url(#satori_cp-id)" fill="#8A96A8"> </text><text x="318.1318359375" y="303" width="18" height="23.76" font-weight="400" font-style="normal" font-size="18" font-family="svglidebody" clip-path="url(#satori_cp-id)" fill="#8A96A8">its</text><text x="336.1318359375" y="303" width="5.0009765625" height="23.76" font-weight="400" font-style="normal" font-size="18" font-family="svglidebody" clip-path="url(#satori_cp-id)" fill="#8A96A8"> </text><text x="341.1328125" y="303" width="65.0478515625" height="23.76" font-weight="400" font-style="normal" font-size="18" font-family="svglidebody" clip-path="url(#satori_cp-id)" fill="#8A96A8">purpose</text><text x="406.1806640625" y="303" width="5.0009765625" height="23.76" font-weight="400" font-style="normal" font-size="18" font-family="svglidebody" clip-path="url(#satori_cp-id)" fill="#8A96A8">,</text><text x="411.181640625" y="303" width="5.0009765625" height="23.76" font-weight="400" font-style="normal" font-size="18" font-family="svglidebody" clip-path="url(#satori_cp-id)" fill="#8A96A8"> </text><text x="66" y="327" width="30.0322265625" height="23.76" font-weight="400" font-style="normal" font-size="18" font-family="svglidebody" clip-path="url(#satori_cp-id)" fill="#8A96A8">and</text><text x="96.0322265625" y="327" width="5.0009765625" height="23.76" font-weight="400" font-style="normal" font-size="18" font-family="svglidebody" clip-path="url(#satori_cp-id)" fill="#8A96A8"> </text><text x="101.033203125" y="327" width="25.0224609375" height="23.76" font-weight="400" font-style="normal" font-size="18" font-family="svglidebody" clip-path="url(#satori_cp-id)" fill="#8A96A8">the</text><text x="126.0556640625" y="327" width="5.0009765625" height="23.76" font-weight="400" font-style="normal" font-size="18" font-family="svglidebody" clip-path="url(#satori_cp-id)" fill="#8A96A8"> </text><text x="131.056640625" y="327" width="66.041015625" height="23.76" font-weight="400" font-style="normal" font-size="18" font-family="svglidebody" clip-path="url(#satori_cp-id)" fill="#8A96A8">decision</text><text x="197.09765625" y="327" width="5.0009765625" height="23.76" font-weight="400" font-style="normal" font-size="18" font-family="svglidebody" clip-path="url(#satori_cp-id)" fill="#8A96A8"> </text><text x="202.0986328125" y="327" width="9" height="23.76" font-weight="400" font-style="normal" font-size="18" font-family="svglidebody" clip-path="url(#satori_cp-id)" fill="#8A96A8">it</text><text x="211.0986328125" y="327" width="5.0009765625" height="23.76" font-weight="400" font-style="normal" font-size="18" font-family="svglidebody" clip-path="url(#satori_cp-id)" fill="#8A96A8"> </text><text x="216.099609375" y="327" width="69.0380859375" height="23.76" font-weight="400" font-style="normal" font-size="18" font-family="svglidebody" clip-path="url(#satori_cp-id)" fill="#8A96A8">supports</text><text x="285.1376953125" y="327" width="5.0009765625" height="23.76" font-weight="400" font-style="normal" font-size="18" font-family="svglidebody" clip-path="url(#satori_cp-id)" fill="#8A96A8">.</text><mask id="satori_om-id-24"><rect x="64" y="344" width="112" height="1" fill="#fff" mask="url(#satori_om-id)"/></mask><g opacity="0.88"><rect x="64" y="344" width="112" height="1" fill="#C8A870" clip-path="url(#satori_cp-id)" mask="url(#satori_om-id)"/></g><mask id="satori_om-id-25"><rect x="642" y="156" width="250" height="217" fill="#fff" mask="url(#satori_om-id)"/></mask><defs><clipPath id="satori_bc-id-25-0" clip-path="url(#satori_cp-id)"><rect x="642" y="156" width="250" height="75"/></clipPath></defs><mask id="satori_om-id-25-0"><rect x="642" y="157" width="250" height="74" fill="#fff" mask="url(#satori_om-id)"/><path width="250" height="75" fill="none" stroke="#000" stroke-width="2" d="M642,156 A0,0 0 0 1 642,156 h250 A0,0 0 0 1 892,156"/></mask><path width="250" height="75" clip-path="url(#satori_bc-id-25-0)" fill="none" stroke="#C8A870" stroke-width="2" d="M642,156 A0,0 0 0 1 642,156 h250 A0,0 0 0 1 892,156"/><mask id="satori_om-id-25-0-0"><rect x="642" y="170" width="42" height="48" fill="#fff" mask="url(#satori_om-id)"/></mask><text x="642" y="205" width="44.05078125" height="39.9" font-weight="800" font-style="normal" font-size="42" font-family="svglidemetric" clip-path="url(#satori_cp-id)" fill="#C8A870">01</text><mask id="satori_om-id-25-0-1"><rect x="684" y="170" width="208" height="48" fill="#fff" mask="url(#satori_om-id)"/></mask><text x="684" y="189" width="60.0205078125" height="23.76" font-weight="400" font-style="normal" font-size="18" font-family="svglidebody" clip-path="url(#satori_cp-id)" fill="#8A96A8">Current</text><text x="744.0205078125" y="189" width="5.0009765625" height="23.76" font-weight="400" font-style="normal" font-size="18" font-family="svglidebody" clip-path="url(#satori_cp-id)" fill="#8A96A8"> </text><text x="749.021484375" y="189" width="75.05859375" height="23.76" font-weight="400" font-style="normal" font-size="18" font-family="svglidebody" clip-path="url(#satori_cp-id)" fill="#8A96A8">approach</text><text x="824.080078125" y="189" width="5.0009765625" height="23.76" font-weight="400" font-style="normal" font-size="18" font-family="svglidebody" clip-path="url(#satori_cp-id)" fill="#8A96A8"> </text><text x="829.0810546875" y="189" width="30.0322265625" height="23.76" font-weight="400" font-style="normal" font-size="18" font-family="svglidebody" clip-path="url(#satori_cp-id)" fill="#8A96A8">and</text><text x="859.11328125" y="189" width="5.0009765625" height="23.76" font-weight="400" font-style="normal" font-size="18" font-family="svglidebody" clip-path="url(#satori_cp-id)" fill="#8A96A8"> </text><text x="684" y="213" width="53.015625" height="23.76" font-weight="400" font-style="normal" font-size="18" font-family="svglidebody" clip-path="url(#satori_cp-id)" fill="#8A96A8">friction</text><defs><clipPath id="satori_bc-id-25-1" clip-path="url(#satori_cp-id)"><rect x="642" y="231" width="250" height="75"/></clipPath></defs><mask id="satori_om-id-25-1"><rect x="642" y="232" width="250" height="74" fill="#fff" mask="url(#satori_om-id)"/><path width="250" height="75" fill="none" stroke="#000" stroke-width="2" d="M642,231 A0,0 0 0 1 642,231 h250 A0,0 0 0 1 892,231"/></mask><path width="250" height="75" clip-path="url(#satori_bc-id-25-1)" fill="none" stroke="#2E3D5C" stroke-width="2" d="M642,231 A0,0 0 0 1 642,231 h250 A0,0 0 0 1 892,231"/><mask id="satori_om-id-25-1-0"><rect x="642" y="245" width="42" height="48" fill="#fff" mask="url(#satori_om-id)"/></mask><text x="642" y="280" width="44.05078125" height="39.9" font-weight="800" font-style="normal" font-size="42" font-family="svglidemetric" clip-path="url(#satori_cp-id)" fill="#C8A870">02</text><mask id="satori_om-id-25-1-1"><rect x="684" y="245" width="208" height="48" fill="#fff" mask="url(#satori_om-id)"/></mask><text x="684" y="264" width="77.0361328125" height="23.76" font-weight="400" font-style="normal" font-size="18" font-family="svglidebody" clip-path="url(#satori_cp-id)" fill="#8A96A8">Limitation</text><text x="761.0361328125" y="264" width="5.0009765625" height="23.76" font-weight="400" font-style="normal" font-size="18" font-family="svglidebody" clip-path="url(#satori_cp-id)" fill="#8A96A8"> </text><text x="766.037109375" y="264" width="16.0048828125" height="23.76" font-weight="400" font-style="normal" font-size="18" font-family="svglidebody" clip-path="url(#satori_cp-id)" fill="#8A96A8">or</text><text x="782.0419921875" y="264" width="5.0009765625" height="23.76" font-weight="400" font-style="normal" font-size="18" font-family="svglidebody" clip-path="url(#satori_cp-id)" fill="#8A96A8"> </text><text x="787.04296875" y="264" width="54.0263671875" height="23.76" font-weight="400" font-style="normal" font-size="18" font-family="svglidebody" clip-path="url(#satori_cp-id)" fill="#8A96A8">source</text><text x="841.0693359375" y="264" width="5.0009765625" height="23.76" font-weight="400" font-style="normal" font-size="18" font-family="svglidebody" clip-path="url(#satori_cp-id)" fill="#8A96A8"> </text><text x="846.0703125" y="264" width="15.01171875" height="23.76" font-weight="400" font-style="normal" font-size="18" font-family="svglidebody" clip-path="url(#satori_cp-id)" fill="#8A96A8">of</text><text x="861.08203125" y="264" width="5.0009765625" height="23.76" font-weight="400" font-style="normal" font-size="18" font-family="svglidebody" clip-path="url(#satori_cp-id)" fill="#8A96A8"> </text><text x="684" y="288" width="53.015625" height="23.76" font-weight="400" font-style="normal" font-size="18" font-family="svglidebody" clip-path="url(#satori_cp-id)" fill="#8A96A8">friction</text><defs><clipPath id="satori_bc-id-25-2" clip-path="url(#satori_cp-id)"><rect x="642" y="306" width="250" height="67"/></clipPath></defs><mask id="satori_om-id-25-2"><rect x="642" y="307" width="250" height="66" fill="#fff" mask="url(#satori_om-id)"/><path width="250" height="67" fill="none" stroke="#000" stroke-width="2" d="M642,306 A0,0 0 0 1 642,306 h250 A0,0 0 0 1 892,306"/></mask><path width="250" height="67" clip-path="url(#satori_bc-id-25-2)" fill="none" stroke="#2E3D5C" stroke-width="2" d="M642,306 A0,0 0 0 1 642,306 h250 A0,0 0 0 1 892,306"/><mask id="satori_om-id-25-2-0"><rect x="642" y="320" width="42" height="40" fill="#fff" mask="url(#satori_om-id)"/></mask><text x="642" y="355" width="44.05078125" height="39.9" font-weight="800" font-style="normal" font-size="42" font-family="svglidemetric" clip-path="url(#satori_cp-id)" fill="#C8A870">03</text><mask id="satori_om-id-25-2-1"><rect x="684" y="320" width="208" height="40" fill="#fff" mask="url(#satori_om-id)"/></mask><text x="684" y="339" width="75.0498046875" height="23.76" font-weight="400" font-style="normal" font-size="18" font-family="svglidebody" clip-path="url(#satori_cp-id)" fill="#8A96A8">Expected</text><text x="759.0498046875" y="339" width="5.0009765625" height="23.76" font-weight="400" font-style="normal" font-size="18" font-family="svglidebody" clip-path="url(#satori_cp-id)" fill="#8A96A8"> </text><text x="764.05078125" y="339" width="104.0361328125" height="23.76" font-weight="400" font-style="normal" font-size="18" font-family="svglidebody" clip-path="url(#satori_cp-id)" fill="#8A96A8">improvement</text><mask id="satori_om-id-26"><rect x="64" y="496" width="190" height="11" fill="#fff" mask="url(#satori_om-id)"/></mask><text x="64" y="505" width="43.909609374999995" height="10.5" font-weight="700" font-style="normal" font-size="10" font-family="svglidelabel" letter-spacing="0.08" clip-path="url(#satori_cp-id)" fill="#4E5A6E">PRIVATE</text><text x="107.909609375" y="505" width="3.595625" height="10.5" font-weight="700" font-style="normal" font-size="10" font-family="svglidelabel" letter-spacing="0.08" clip-path="url(#satori_cp-id)" fill="#4E5A6E"> </text><text x="111.50523437499999" y="505" width="4.621015625" height="10.5" font-weight="700" font-style="normal" font-size="10" font-family="svglidelabel" letter-spacing="0.08" clip-path="url(#satori_cp-id)" fill="#4E5A6E">/</text><text x="116.12625" y="505" width="3.595625" height="10.5" font-weight="700" font-style="normal" font-size="10" font-family="svglidelabel" letter-spacing="0.08" clip-path="url(#satori_cp-id)" fill="#4E5A6E"> </text><text x="119.72187499999998" y="505" width="55.36167968749999" height="10.5" font-weight="700" font-style="normal" font-size="10" font-family="svglidelabel" letter-spacing="0.08" clip-path="url(#satori_cp-id)" fill="#4E5A6E">RESEARCH</text><mask id="satori_om-id-27"><rect x="736" y="496" width="160" height="11" fill="#fff" mask="url(#satori_om-id)"/></mask><text x="736" y="505" width="77.532265625" height="10.5" font-weight="700" font-style="normal" font-size="10" font-family="svglidelabel" letter-spacing="0.08" clip-path="url(#satori_cp-id)" fill="#4E5A6E">CONFIDENTIAL</text><text x="813.532265625" y="505" width="3.595625" height="10.5" font-weight="700" font-style="normal" font-size="10" font-family="svglidelabel" letter-spacing="0.08" clip-path="url(#satori_cp-id)" fill="#4E5A6E"> </text><text x="817.127890625" y="505" width="4.621015625" height="10.5" font-weight="700" font-style="normal" font-size="10" font-family="svglidelabel" letter-spacing="0.08" clip-path="url(#satori_cp-id)" fill="#4E5A6E">/</text><text x="821.74890625" y="505" width="3.595625" height="10.5" font-weight="700" font-style="normal" font-size="10" font-family="svglidelabel" letter-spacing="0.08" clip-path="url(#satori_cp-id)" fill="#4E5A6E"> </text><text x="825.34453125" y="505" width="51.65074218749999" height="10.5" font-weight="700" font-style="normal" font-size="10" font-family="svglidelabel" letter-spacing="0.08" clip-path="url(#satori_cp-id)" fill="#4E5A6E">INTERNAL</text></svg>