<svg width="960" height="540" viewBox="0 0 960 540" xmlns="http://www.w3.org/2000/svg"><clipPath id="satori_cp-id"><rect x="0" y="0" width="960" height="540"/></clipPath><mask id="satori_om-id"><rect x="0" y="0" width="960" height="540" fill="#fff"/></mask><rect x="0" y="0" width="960" height="540" fill="#322AE8"/><defs><clipPath id="satori_bc-id-0" clip-path="url(#satori_cp-id)"><rect x="42" y="42" width="876" height="456"/></clipPath></defs><mask id="satori_om-id-0"><rect x="45" y="45" width="870" height="450" fill="#fff" mask="url(#satori_om-id)"/><path width="876" height="456" fill="none" stroke="#000" stroke-width="6" d="M42,42 A0,0 0 0 1 42,42 h876 a0,0 0 0 1 0,0 v456 a0,0 0 0 1 0,0 h-876 a0,0 0 0 1 0,0 v-456 A0,0 0 0 1 42,42"/></mask><path width="876" height="456" clip-path="url(#satori_bc-id-0)" fill="none" stroke="#F6EACD" stroke-width="6" d="M42,42 A0,0 0 0 1 42,42 h876 a0,0 0 0 1 0,0 v456 a0,0 0 0 1 0,0 h-876 a0,0 0 0 1 0,0 v-456 A0,0 0 0 1 42,42"/><mask id="satori_om-id-1"><rect x="392" y="66" width="167" height="11" fill="#fff" mask="url(#satori_om-id)"/></mask><text x="392" y="75" width="58.93777343749999" height="10.5" font-weight="700" font-style="normal" font-size="10" font-family="svglidelabel" letter-spacing="0.08" clip-path="url(#satori_cp-id)" fill="#F6EACD">STRATEGIC</text><text x="450.93777343749997" y="75" width="3.595625" height="10.5" font-weight="700" font-style="normal" font-size="10" font-family="svglidelabel" letter-spacing="0.08" clip-path="url(#satori_cp-id)" fill="#F6EACD"> </text><text x="454.5333984375" y="75" width="41.0122265625" height="10.5" font-weight="700" font-style="normal" font-size="10" font-family="svglidelabel" letter-spacing="0.08" clip-path="url(#satori_cp-id)" fill="#F6EACD">REVIEW</text><text x="495.545625" y="75" width="3.595625" height="10.5" font-weight="700" font-style="normal" font-size="10" font-family="svglidelabel" letter-spacing="0.08" clip-path="url(#satori_cp-id)" fill="#F6EACD"> </text><text x="499.14125" y="75" width="3.7176953125" height="10.5" font-weight="700" font-style="normal" font-size="10" font-family="svglidelabel" letter-spacing="0.08" clip-path="url(#satori_cp-id)" fill="#F6EACD">·</text><text x="502.8589453125" y="75" width="3.595625" height="10.5" font-weight="700" font-style="normal" font-size="10" font-family="svglidelabel" letter-spacing="0.08" clip-path="url(#satori_cp-id)" fill="#F6EACD"> </text><text x="506.4545703125" y="75" width="51.65074218749999" height="10.5" font-weight="700" font-style="normal" font-size="10" font-family="svglidelabel" letter-spacing="0.08" clip-path="url(#satori_cp-id)" fill="#F6EACD">INTERNAL</text><mask id="satori_om-id-2"><rect x="161" y="172" width="660" height="158" fill="#fff" mask="url(#satori_om-id)"/></mask><text x="161" y="247" width="537.8828125" height="79.2" font-weight="900" font-style="normal" font-size="88" font-family="svglidedisplay" clip-path="url(#satori_cp-id)" fill="#F6EACD">QUARTERLY</text><text x="698.8828125" y="247" width="44" height="79.2" font-weight="900" font-style="normal" font-size="88" font-family="svglidedisplay" clip-path="url(#satori_cp-id)" fill="#F6EACD">
</text><text x="161" y="326" width="347.14453125" height="79.2" font-weight="900" font-style="normal" font-size="88" font-family="svglidedisplay" clip-path="url(#satori_cp-id)" fill="#F6EACD">REVIEW</text><mask id="satori_om-id-3"><rect x="153" y="164" width="660" height="158" fill="#fff" mask="url(#satori_om-id)"/></mask><text x="153" y="239" width="537.8828125" height="79.2" font-weight="900" font-style="normal" font-size="88" font-family="svglidedisplay" clip-path="url(#satori_cp-id)" fill="#FF7A3D">QUARTERLY</text><text x="690.8828125" y="239" width="44" height="79.2" font-weight="900" font-style="normal" font-size="88" font-family="svglidedisplay" clip-path="url(#satori_cp-id)" fill="#FF7A3D">
</text><text x="153" y="318" width="347.14453125" height="79.2" font-weight="900" font-style="normal" font-size="88" font-family="svglidedisplay" clip-path="url(#satori_cp-id)" fill="#FF7A3D">REVIEW</text><mask id="satori_om-id-4"><rect x="265" y="326" width="258" height="24" fill="#fff" mask="url(#satori_om-id)"/></mask><text x="265" y="345" width="12.005859375" height="23.76" font-weight="900" font-style="normal" font-size="18" font-family="svglidebody" clip-path="url(#satori_cp-id)" fill="#F6EACD">A</text><text x="277.005859375" y="345" width="5.0009765625" height="23.76" font-weight="900" font-style="normal" font-size="18" font-family="svglidebody" clip-path="url(#satori_cp-id)" fill="#F6EACD"> </text><text x="282.0068359375" y="345" width="140.0185546875" height="23.76" font-weight="900" font-style="normal" font-size="18" font-family="svglidebody" clip-path="url(#satori_cp-id)" fill="#F6EACD">PRESENTATION</text><text x="422.025390625" y="345" width="5.0009765625" height="23.76" font-weight="900" font-style="normal" font-size="18" font-family="svglidebody" clip-path="url(#satori_cp-id)" fill="#F6EACD"> </text><text x="427.0263671875" y="345" width="95.0185546875" height="23.76" font-weight="900" font-style="normal" font-size="18" font-family="svglidebody" clip-path="url(#satori_cp-id)" fill="#F6EACD">TEMPLATE</text><mask id="satori_om-id-5"><rect x="331" y="371" width="263" height="11" fill="#fff" mask="url(#satori_om-id)"/></mask><text x="331" y="380" width="53.79429687499999" height="10.5" font-weight="700" font-style="normal" font-size="10" font-family="svglidelabel" letter-spacing="0.08" clip-path="url(#satori_cp-id)" fill="#F6EACD">PREPARED</text><text x="384.794296875" y="380" width="3.595625" height="10.5" font-weight="700" font-style="normal" font-size="10" font-family="svglidelabel" letter-spacing="0.08" clip-path="url(#satori_cp-id)" fill="#F6EACD"> </text><text x="388.38992187499997" y="380" width="13.1678125" height="10.5" font-weight="700" font-style="normal" font-size="10" font-family="svglidelabel" letter-spacing="0.08" clip-path="url(#satori_cp-id)" fill="#F6EACD">BY</text><text x="401.557734375" y="380" width="3.595625" height="10.5" font-weight="700" font-style="normal" font-size="10" font-family="svglidelabel" letter-spacing="0.08" clip-path="url(#satori_cp-id)" fill="#F6EACD"> </text><text x="405.15335937500004" y="380" width="20.240000000000002" height="10.5" font-weight="700" font-style="normal" font-size="10" font-family="svglidelabel" letter-spacing="0.08" clip-path="url(#satori_cp-id)" fill="#F6EACD">THE</text><text x="425.39335937500005" y="380" width="3.595625" height="10.5" font-weight="700" font-style="normal" font-size="10" font-family="svglidelabel" letter-spacing="0.08" clip-path="url(#satori_cp-id)" fill="#F6EACD"> </text><text x="428.988984375" y="380" width="28.0690234375" height="10.5" font-weight="700" font-style="normal" font-size="10" font-family="svglidelabel" letter-spacing="0.08" clip-path="url(#satori_cp-id)" fill="#F6EACD">TEAM</text><text x="457.0580078125" y="380" width="3.595625" height="10.5" font-weight="700" font-style="normal" font-size="10" font-family="svglidelabel" letter-spacing="0.08" clip-path="url(#satori_cp-id)" fill="#F6EACD"> </text><text x="460.6536328125" y="380" width="3.7176953125" height="10.5" font-weight="700" font-style="normal" font-size="10" font-family="svglidelabel" letter-spacing="0.08" clip-path="url(#satori_cp-id)" fill="#F6EACD">·</text><text x="464.371328125" y="380" width="3.595625" height="10.5" font-weight="700" font-style="normal" font-size="10" font-family="svglidelabel" letter-spacing="0.08" clip-path="url(#satori_cp-id)" fill="#F6EACD"> </text><text x="467.96695312500003" y="380" width="21.656015625000002" height="10.5" font-weight="700" font-style="normal" font-size="10" font-family="svglidelabel" letter-spacing="0.08" clip-path="url(#satori_cp-id)" fill="#F6EACD">MAY</text><text x="489.62296875000004" y="380" width="3.595625" height="10.5" font-weight="700" font-style="normal" font-size="10" font-family="svglidelabel" letter-spacing="0.08" clip-path="url(#satori_cp-id)" fill="#F6EACD"> </text><text x="493.21859374999997" y="380" width="25.7496875" height="10.5" font-weight="700" font-style="normal" font-size="10" font-family="svglidelabel" letter-spacing="0.08" clip-path="url(#satori_cp-id)" fill="#F6EACD">2026</text><text x="518.96828125" y="380" width="3.595625" height="10.5" font-weight="700" font-style="normal" font-size="10" font-family="svglidelabel" letter-spacing="0.08" clip-path="url(#satori_cp-id)" fill="#F6EACD"> </text><text x="522.56390625" y="380" width="3.7176953125" height="10.5" font-weight="700" font-style="normal" font-size="10" font-family="svglidelabel" letter-spacing="0.08" clip-path="url(#satori_cp-id)" fill="#F6EACD">·</text><text x="526.2816015625" y="380" width="3.595625" height="10.5" font-weight="700" font-style="normal" font-size="10" font-family="svglidelabel" letter-spacing="0.08" clip-path="url(#satori_cp-id)" fill="#F6EACD"> </text><text x="529.8772265625" y="380" width="47.068789062499995" height="10.5" font-weight="700" font-style="normal" font-size="10" font-family="svglidelabel" letter-spacing="0.08" clip-path="url(#satori_cp-id)" fill="#F6EACD">VERSION</text><text x="576.946015625" y="380" width="3.595625" height="10.5" font-weight="700" font-style="normal" font-size="10" font-family="svglidelabel" letter-spacing="0.08" clip-path="url(#satori_cp-id)" fill="#F6EACD"> </text><text x="580.541640625" y="380" width="12.87484375" height="10.5" font-weight="700" font-style="normal" font-size="10" font-family="svglidelabel" letter-spacing="0.08" clip-path="url(#satori_cp-id)" fill="#F6EACD">01</text><mask id="satori_om-id-6"><rect x="697" y="66" width="196" height="53" fill="#fff" mask="url(#satori_om-id)"/></mask><text x="697" y="113" width="98.984375" height="53.199999999999996" font-weight="700" font-style="normal" font-size="56" font-family="svglidemetric" clip-path="url(#satori_cp-id)" fill="#F6EACD">VOL</text><text x="795.984375" y="113" width="20.5625" height="53.199999999999996" font-weight="700" font-style="normal" font-size="56" font-family="svglidemetric" clip-path="url(#satori_cp-id)" fill="#F6EACD">.</text><text x="816.546875" y="113" width="16.87109375" height="53.199999999999996" font-weight="700" font-style="normal" font-size="56" font-family="svglidemetric" clip-path="url(#satori_cp-id)" fill="#F6EACD"> </text><text x="833.41796875" y="113" width="58.734375" height="53.199999999999996" font-weight="700" font-style="normal" font-size="56" font-family="svglidemetric" clip-path="url(#satori_cp-id)" fill="#F6EACD">01</text></svg>