<svg width="960" height="540" viewBox="0 0 960 540" xmlns="http://www.w3.org/2000/svg"><clipPath id="satori_cp-id"><rect x="0" y="0" width="960" height="540"/></clipPath><mask id="satori_om-id"><rect x="0" y="0" width="960" height="540" fill="#fff"/></mask><rect x="0" y="0" width="960" height="540" fill="#F2C69D"/><mask id="satori_om-id-0"><rect x="92" y="200" width="330" height="40" fill="#fff" mask="url(#satori_om-id)"/></mask><text x="92" y="235" width="44.05078125" height="39.9" font-weight="900" font-style="normal" font-size="42" font-family="svglidemetric" clip-path="url(#satori_cp-id)" fill="#171717">02</text><text x="136.05078125" y="235" width="15.421875" height="39.9" font-weight="900" font-style="normal" font-size="42" font-family="svglidemetric" clip-path="url(#satori_cp-id)" fill="#171717">-</text><text x="151.47265625" y="235" width="44.05078125" height="39.9" font-weight="900" font-style="normal" font-size="42" font-family="svglidemetric" clip-path="url(#satori_cp-id)" fill="#171717">05</text><text x="195.5234375" y="235" width="15.421875" height="39.9" font-weight="900" font-style="normal" font-size="42" font-family="svglidemetric" clip-path="url(#satori_cp-id)" fill="#171717">-</text><text x="210.9453125" y="235" width="44.05078125" height="39.9" font-weight="900" font-style="normal" font-size="42" font-family="svglidemetric" clip-path="url(#satori_cp-id)" fill="#171717">26</text><mask id="satori_om-id-1"><rect x="92" y="267" width="380" height="196" fill="#fff" mask="url(#satori_om-id)"/></mask><text x="92" y="313" width="270.052734375" height="48.6" font-weight="900" font-style="normal" font-size="54" font-family="svglidedisplay" clip-path="url(#satori_cp-id)" fill="#171717">CREATIVE</text><text x="362.052734375" y="313" width="15.0029296875" height="48.6" font-weight="900" font-style="normal" font-size="54" font-family="svglidedisplay" clip-path="url(#satori_cp-id)" fill="#171717"> </text><text x="92" y="362" width="297" height="48.6" font-weight="900" font-style="normal" font-size="54" font-family="svglidedisplay" clip-path="url(#satori_cp-id)" fill="#171717">DIRECTION</text><text x="389" y="362" width="15.0029296875" height="48.6" font-weight="900" font-style="normal" font-size="54" font-family="svglidedisplay" clip-path="url(#satori_cp-id)" fill="#171717"> </text><text x="404.0029296875" y="362" width="36.017578125" height="48.6" font-weight="900" font-style="normal" font-size="54" font-family="svglidedisplay" clip-path="url(#satori_cp-id)" fill="#171717">&amp;</text><text x="440.0205078125" y="362" width="15.0029296875" height="48.6" font-weight="900" font-style="normal" font-size="54" font-family="svglidedisplay" clip-path="url(#satori_cp-id)" fill="#171717"> </text><text x="92" y="411" width="192.0849609375" height="48.6" font-weight="900" font-style="normal" font-size="54" font-family="svglidedisplay" clip-path="url(#satori_cp-id)" fill="#171717">VISUAL</text><text x="284.0849609375" y="411" width="15.0029296875" height="48.6" font-weight="900" font-style="normal" font-size="54" font-family="svglidedisplay" clip-path="url(#satori_cp-id)" fill="#171717"> </text><text x="92" y="460" width="222.0380859375" height="48.6" font-weight="900" font-style="normal" font-size="54" font-family="svglidedisplay" clip-path="url(#satori_cp-id)" fill="#171717">SYSTEM</text><mask id="satori_om-id-2"><rect x="96" y="336" width="285" height="52" fill="#fff" mask="url(#satori_om-id)"/></mask><text x="96" y="357" width="13.33984375" height="26.400000000000002" font-weight="500" font-style="normal" font-size="20" font-family="svglidebody" clip-path="url(#satori_cp-id)" fill="#171717">A</text><text x="109.33984375" y="357" width="5.556640625" height="26.400000000000002" font-weight="500" font-style="normal" font-size="20" font-family="svglidebody" clip-path="url(#satori_cp-id)" fill="#171717"> </text><text x="114.896484375" y="357" width="83.3984375" height="26.400000000000002" font-weight="500" font-style="normal" font-size="20" font-family="svglidebody" clip-path="url(#satori_cp-id)" fill="#171717">generous</text><text x="198.294921875" y="357" width="5.556640625" height="26.400000000000002" font-weight="500" font-style="normal" font-size="20" font-family="svglidebody" clip-path="url(#satori_cp-id)" fill="#171717"> </text><text x="203.8515625" y="357" width="110.078125" height="26.400000000000002" font-weight="500" font-style="normal" font-size="20" font-family="svglidebody" clip-path="url(#satori_cp-id)" fill="#171717">presentation</text><text x="313.9296875" y="357" width="5.556640625" height="26.400000000000002" font-weight="500" font-style="normal" font-size="20" font-family="svglidebody" clip-path="url(#satori_cp-id)" fill="#171717"> </text><text x="319.486328125" y="357" width="23.33984375" height="26.400000000000002" font-weight="500" font-style="normal" font-size="20" font-family="svglidebody" clip-path="url(#satori_cp-id)" fill="#171717">for</text><text x="342.826171875" y="357" width="5.556640625" height="26.400000000000002" font-weight="500" font-style="normal" font-size="20" font-family="svglidebody" clip-path="url(#satori_cp-id)" fill="#171717"> </text><text x="96" y="383" width="43.349609375" height="26.400000000000002" font-weight="500" font-style="normal" font-size="20" font-family="svglidebody" clip-path="url(#satori_cp-id)" fill="#171717">early</text><text x="139.349609375" y="383" width="6.66015625" height="26.400000000000002" font-weight="500" font-style="normal" font-size="20" font-family="svglidebody" clip-path="url(#satori_cp-id)" fill="#171717">-</text><text x="146.009765625" y="383" width="48.92578125" height="26.400000000000002" font-weight="500" font-style="normal" font-size="20" font-family="svglidebody" clip-path="url(#satori_cp-id)" fill="#171717">stage</text><text x="194.935546875" y="383" width="5.556640625" height="26.400000000000002" font-weight="500" font-style="normal" font-size="20" font-family="svglidebody" clip-path="url(#satori_cp-id)" fill="#171717"> </text><text x="200.4921875" y="383" width="80.05859375" height="26.400000000000002" font-weight="500" font-style="normal" font-size="20" font-family="svglidebody" clip-path="url(#satori_cp-id)" fill="#171717">launches</text><text x="280.55078125" y="383" width="5.556640625" height="26.400000000000002" font-weight="500" font-style="normal" font-size="20" font-family="svglidebody" clip-path="url(#satori_cp-id)" fill="#171717">.</text><defs><clipPath id="satori_bc-id-3" clip-path="url(#satori_cp-id)"><path x="738" y="136" width="74" height="104" d="M775,136 h0 a37,37 0 0 1 37,37 v30 a37,37 0 0 1 -37,37 h0 a37,37 0 0 1 -37,-37 v-30 a37,37 0 0 1 37,-37"/></clipPath></defs><mask id="satori_om-id-3"><rect x="740" y="138" width="70" height="100" fill="#fff" mask="url(#satori_om-id)"/><path width="74" height="104" transform="matrix(0.98,0.17,-0.17,0.98,44.42,-131.72)" fill="none" stroke="#000" stroke-width="4" d="M748.837,146.837 A37,37 0 0 1 775,136 h0 a37,37 0 0 1 37,37 v30 a37,37 0 0 1 -37,37 h0 a37,37 0 0 1 -37,-37 v-30 A37,37 0 0 1 748.837,146.837"/></mask><g clip-path="url(#satori_cp-id)" mask="url(#satori_om-id)"><path width="74" height="104" transform="matrix(0.98,0.17,-0.17,0.98,44.42,-131.72)" clip-path="url(#satori_bc-id-3)" fill="none" stroke="#171717" stroke-width="4" d="M748.837,146.837 A37,37 0 0 1 775,136 h0 a37,37 0 0 1 37,37 v30 a37,37 0 0 1 -37,37 h0 a37,37 0 0 1 -37,-37 v-30 A37,37 0 0 1 748.837,146.837"/></g><mask id="satori_om-id-3-0"><rect x="753" y="156" width="44" height="65" fill="#fff" mask="url(#satori_om-id)"/></mask><g clip-path="url(#satori_cp-id)" mask="url(#satori_om-id)"><path x="753" y="156" width="44" height="65" fill="#171717" d="M775,156 h0 a22,22 0 0 1 22,22 v21 a22,22 0 0 1 -22,22 h0 a22,22 0 0 1 -22,-22 v-21 a22,22 0 0 1 22,-22" transform="matrix(0.93,0.37,-0.37,0.93,126.96,-276.60)"/></g><defs><clipPath id="satori_bc-id-4" clip-path="url(#satori_cp-id)"><path x="664" y="386" width="54" height="70" d="M691,386 h0 a27,27 0 0 1 27,27 v16 a27,27 0 0 1 -27,27 h0 a27,27 0 0 1 -27,-27 v-16 a27,27 0 0 1 27,-27"/></clipPath></defs><mask id="satori_om-id-4"><rect x="666" y="388" width="50" height="66" fill="#fff" mask="url(#satori_om-id)"/><path width="54" height="70" transform="matrix(0.97,0.24,-0.24,0.97,122.37,-154.66)" fill="none" stroke="#000" stroke-width="4" d="M671.908,393.908 A27,27 0 0 1 691,386 h0 a27,27 0 0 1 27,27 v16 a27,27 0 0 1 -27,27 h0 a27,27 0 0 1 -27,-27 v-16 A27,27 0 0 1 671.908,393.908"/></mask><g clip-path="url(#satori_cp-id)" mask="url(#satori_om-id)"><path width="54" height="70" transform="matrix(0.97,0.24,-0.24,0.97,122.37,-154.66)" clip-path="url(#satori_bc-id-4)" fill="none" stroke="#171717" stroke-width="4" d="M671.908,393.908 A27,27 0 0 1 691,386 h0 a27,27 0 0 1 27,27 v16 a27,27 0 0 1 -27,27 h0 a27,27 0 0 1 -27,-27 v-16 A27,27 0 0 1 671.908,393.908"/></g><mask id="satori_om-id-5"><rect x="740" y="256" width="91" height="13" fill="#fff" mask="url(#satori_om-id)"/></mask><g clip-path="url(#satori_cp-id)" mask="url(#satori_om-id)"></g><text x="740" y="267" width="51.899843749999995" height="12.600000000000001" font-weight="700" font-style="normal" font-size="12" font-family="svglidelabel" letter-spacing="0.08" transform="matrix(0.00,1.00,-1.00,0.00,1048.00,-523.00)" clip-path="url(#satori_cp-id)" fill="#171717">SPECIAL</text><text x="791.89984375" y="267" width="4.29875" height="12.600000000000001" font-weight="700" font-style="normal" font-size="12" font-family="svglidelabel" letter-spacing="0.08" transform="matrix(0.00,1.00,-1.00,0.00,1048.00,-523.00)" clip-path="url(#satori_cp-id)" fill="#171717"> </text><text x="796.19859375" y="267" width="34.591484375" height="12.600000000000001" font-weight="700" font-style="normal" font-size="12" font-family="svglidelabel" letter-spacing="0.08" transform="matrix(0.00,1.00,-1.00,0.00,1048.00,-523.00)" clip-path="url(#satori_cp-id)" fill="#171717">DROP</text><mask id="satori_om-id-6"><rect x="831" y="503" width="91" height="13" fill="#fff" mask="url(#satori_om-id)"/></mask><text x="831" y="514" width="51.899843749999995" height="12.600000000000001" font-weight="700" font-style="normal" font-size="12" font-family="svglidelabel" letter-spacing="0.08" clip-path="url(#satori_cp-id)" fill="#171717">SPECIAL</text><text x="882.89984375" y="514" width="4.29875" height="12.600000000000001" font-weight="700" font-style="normal" font-size="12" font-family="svglidelabel" letter-spacing="0.08" clip-path="url(#satori_cp-id)" fill="#171717"> </text><text x="887.19859375" y="514" width="34.591484375" height="12.600000000000001" font-weight="700" font-style="normal" font-size="12" font-family="svglidelabel" letter-spacing="0.08" clip-path="url(#satori_cp-id)" fill="#171717">DROP</text></svg>