<svg width="960" height="540" viewBox="0 0 960 540" xmlns="http://www.w3.org/2000/svg"><clipPath id="satori_cp-id"><rect x="0" y="0" width="960" height="540"/></clipPath><mask id="satori_om-id"><rect x="0" y="0" width="960" height="540" fill="#fff"/></mask><rect x="0" y="0" width="960" height="540" fill="#FFFFFF"/><mask id="satori_om-id-0"><rect x="68" y="58" width="240" height="26" fill="#fff" mask="url(#satori_om-id)"/></mask><text x="68" y="69" width="17.23421875" height="12.600000000000001" font-weight="800" font-style="normal" font-size="12" font-family="svglidelabel" letter-spacing="0.08" clip-path="url(#satori_cp-id)" fill="#7B706A">Q2</text><text x="85.23421875" y="69" width="4.29875" height="12.600000000000001" font-weight="800" font-style="normal" font-size="12" font-family="svglidelabel" letter-spacing="0.08" clip-path="url(#satori_cp-id)" fill="#7B706A"> </text><text x="89.53296875000001" y="69" width="64.454453125" height="12.600000000000001" font-weight="800" font-style="normal" font-size="12" font-family="svglidelabel" letter-spacing="0.08" clip-path="url(#satori_cp-id)" fill="#7B706A">STRATEGY</text><text x="153.987421875" y="69" width="4.29875" height="12.600000000000001" font-weight="800" font-style="normal" font-size="12" font-family="svglidelabel" letter-spacing="0.08" clip-path="url(#satori_cp-id)" fill="#7B706A"> </text><text x="158.286171875" y="69" width="66.927109375" height="12.600000000000001" font-weight="800" font-style="normal" font-size="12" font-family="svglidelabel" letter-spacing="0.08" clip-path="url(#satori_cp-id)" fill="#7B706A">OVERVIEW</text><text x="225.21328125000002" y="69" width="4.29875" height="12.600000000000001" font-weight="800" font-style="normal" font-size="12" font-family="svglidelabel" letter-spacing="0.08" clip-path="url(#satori_cp-id)" fill="#7B706A"> </text><text x="229.51203125000004" y="69" width="5.52921875" height="12.600000000000001" font-weight="800" font-style="normal" font-size="12" font-family="svglidelabel" letter-spacing="0.08" clip-path="url(#satori_cp-id)" fill="#7B706A">/</text><text x="235.04125000000005" y="69" width="4.29875" height="12.600000000000001" font-weight="800" font-style="normal" font-size="12" font-family="svglidelabel" letter-spacing="0.08" clip-path="url(#satori_cp-id)" fill="#7B706A"> </text><text x="239.34" y="69" width="35.8609375" height="12.600000000000001" font-weight="800" font-style="normal" font-size="12" font-family="svglidelabel" letter-spacing="0.08" clip-path="url(#satori_cp-id)" fill="#7B706A">FIELD</text><text x="275.2009375" y="69" width="4.29875" height="12.600000000000001" font-weight="800" font-style="normal" font-size="12" font-family="svglidelabel" letter-spacing="0.08" clip-path="url(#satori_cp-id)" fill="#7B706A"> </text><text x="68" y="82" width="42.007421875" height="12.600000000000001" font-weight="800" font-style="normal" font-size="12" font-family="svglidelabel" letter-spacing="0.08" clip-path="url(#satori_cp-id)" fill="#7B706A">NOTES</text><mask id="satori_om-id-1"><rect x="66" y="86" width="372" height="79" fill="#fff" mask="url(#satori_om-id)"/></mask><g clip-path="url(#satori_cp-id)" mask="url(#satori_om-id)"></g><text x="66" y="161" width="234.78125" height="79.2" font-weight="900" font-style="normal" font-size="88" font-family="svglidedisplay" transform="matrix(1.00,-0.07,0.07,1.00,-8.14,17.88)" clip-path="url(#satori_cp-id)" fill="#1C1410">APEX</text><mask id="satori_om-id-2"><rect x="70" y="136" width="420" height="79" fill="#fff" mask="url(#satori_om-id)"/></mask><g opacity="0.16"><g clip-path="url(#satori_cp-id)" mask="url(#satori_om-id)"></g></g><text x="70" y="211" width="322.6953125" height="79.2" font-weight="900" font-style="normal" font-size="88" font-family="svglidedisplay" transform="matrix(1.00,-0.07,0.07,1.00,-11.56,19.96)" clip-path="url(#satori_cp-id)" fill="#1C1410" opacity="0.16">GROUP</text><mask id="satori_om-id-3"><rect x="67" y="133" width="420" height="79" fill="#fff" mask="url(#satori_om-id)"/></mask><g opacity="0.22"><g clip-path="url(#satori_cp-id)" mask="url(#satori_om-id)"></g></g><text x="67" y="208" width="322.6953125" height="79.2" font-weight="900" font-style="normal" font-size="88" font-family="svglidedisplay" transform="matrix(1.00,-0.07,0.07,1.00,-11.36,19.74)" clip-path="url(#satori_cp-id)" fill="#1C1410" opacity="0.22">GROUP</text><mask id="satori_om-id-4"><rect x="65" y="131" width="420" height="79" fill="#fff" mask="url(#satori_om-id)"/></mask><g clip-path="url(#satori_cp-id)" mask="url(#satori_om-id)"></g><text x="65" y="206" width="322.6953125" height="79.2" font-weight="900" font-style="normal" font-size="88" font-family="svglidedisplay" transform="matrix(1.00,-0.07,0.07,1.00,-11.22,19.60)" clip-path="url(#satori_cp-id)" fill="#D8000F">GROUP</text><mask id="satori_om-id-5"><rect x="292" y="146" width="274" height="79" fill="#fff" mask="url(#satori_om-id)"/></mask><g clip-path="url(#satori_cp-id)" mask="url(#satori_om-id)"></g><text x="292" y="221" width="166.24609375" height="79.2" font-weight="900" font-style="normal" font-size="88" font-family="svglidedisplay" transform="matrix(1.00,0.03,-0.03,1.00,6.74,-14.86)" clip-path="url(#satori_cp-id)" fill="#1C1410">LTD</text><text x="458.24609375" y="221" width="24.44921875" height="79.2" font-weight="900" font-style="normal" font-size="88" font-family="svglidedisplay" transform="matrix(1.00,0.03,-0.03,1.00,6.74,-14.86)" clip-path="url(#satori_cp-id)" fill="#1C1410">.</text><mask id="satori_om-id-6"><rect x="606" y="354" width="278" height="104" fill="#fff" mask="url(#satori_om-id)"/></mask><text x="611.607421875" y="375" width="13.33984375" height="26.400000000000002" font-weight="400" font-style="normal" font-size="20" font-family="svglidebody" clip-path="url(#satori_cp-id)" fill="#1C1410">A</text><text x="624.947265625" y="375" width="5.556640625" height="26.400000000000002" font-weight="400" font-style="normal" font-size="20" font-family="svglidebody" clip-path="url(#satori_cp-id)" fill="#1C1410"> </text><text x="630.50390625" y="375" width="37.8125" height="26.400000000000002" font-weight="400" font-style="normal" font-size="20" font-family="svglidebody" clip-path="url(#satori_cp-id)" fill="#1C1410">loud</text><text x="668.31640625" y="375" width="5.556640625" height="26.400000000000002" font-weight="400" font-style="normal" font-size="20" font-family="svglidebody" clip-path="url(#satori_cp-id)" fill="#1C1410"> </text><text x="673.873046875" y="375" width="70.0390625" height="26.400000000000002" font-weight="400" font-style="normal" font-size="20" font-family="svglidebody" clip-path="url(#satori_cp-id)" fill="#1C1410">editorial</text><text x="743.912109375" y="375" width="5.556640625" height="26.400000000000002" font-weight="400" font-style="normal" font-size="20" font-family="svglidebody" clip-path="url(#satori_cp-id)" fill="#1C1410"> </text><text x="749.46875" y="375" width="55.5859375" height="26.400000000000002" font-weight="400" font-style="normal" font-size="20" font-family="svglidebody" clip-path="url(#satori_cp-id)" fill="#1C1410">poster</text><text x="805.0546875" y="375" width="5.556640625" height="26.400000000000002" font-weight="400" font-style="normal" font-size="20" font-family="svglidebody" clip-path="url(#satori_cp-id)" fill="#1C1410"> </text><text x="810.611328125" y="375" width="44.4921875" height="26.400000000000002" font-weight="400" font-style="normal" font-size="20" font-family="svglidebody" clip-path="url(#satori_cp-id)" fill="#1C1410">page</text><text x="855.103515625" y="375" width="5.556640625" height="26.400000000000002" font-weight="400" font-style="normal" font-size="20" font-family="svglidebody" clip-path="url(#satori_cp-id)" fill="#1C1410"> </text><text x="860.66015625" y="375" width="23.33984375" height="26.400000000000002" font-weight="400" font-style="normal" font-size="20" font-family="svglidebody" clip-path="url(#satori_cp-id)" fill="#1C1410">for</text><text x="884" y="375" width="5.556640625" height="26.400000000000002" font-weight="400" font-style="normal" font-size="20" font-family="svglidebody" clip-path="url(#satori_cp-id)" fill="#1C1410"> </text><text x="621.646484375" y="401" width="22.24609375" height="26.400000000000002" font-weight="400" font-style="normal" font-size="20" font-family="svglidebody" clip-path="url(#satori_cp-id)" fill="#1C1410">an</text><text x="643.892578125" y="401" width="5.556640625" height="26.400000000000002" font-weight="400" font-style="normal" font-size="20" font-family="svglidebody" clip-path="url(#satori_cp-id)" fill="#1C1410"> </text><text x="649.44921875" y="401" width="84.4921875" height="26.400000000000002" font-weight="400" font-style="normal" font-size="20" font-family="svglidebody" clip-path="url(#satori_cp-id)" fill="#1C1410">executive</text><text x="733.94140625" y="401" width="5.556640625" height="26.400000000000002" font-weight="400" font-style="normal" font-size="20" font-family="svglidebody" clip-path="url(#satori_cp-id)" fill="#1C1410"> </text><text x="739.498046875" y="401" width="46.669921875" height="26.400000000000002" font-weight="400" font-style="normal" font-size="20" font-family="svglidebody" clip-path="url(#satori_cp-id)" fill="#1C1410">claim</text><text x="786.16796875" y="401" width="5.556640625" height="26.400000000000002" font-weight="400" font-style="normal" font-size="20" font-family="svglidebody" clip-path="url(#satori_cp-id)" fill="#1C1410">,</text><text x="791.724609375" y="401" width="5.556640625" height="26.400000000000002" font-weight="400" font-style="normal" font-size="20" font-family="svglidebody" clip-path="url(#satori_cp-id)" fill="#1C1410"> </text><text x="797.28125" y="401" width="86.71875" height="26.400000000000002" font-weight="400" font-style="normal" font-size="20" font-family="svglidebody" clip-path="url(#satori_cp-id)" fill="#1C1410">campaign</text><text x="884" y="401" width="5.556640625" height="26.400000000000002" font-weight="400" font-style="normal" font-size="20" font-family="svglidebody" clip-path="url(#satori_cp-id)" fill="#1C1410"> </text><text x="640.50390625" y="427" width="37.8125" height="26.400000000000002" font-weight="400" font-style="normal" font-size="20" font-family="svglidebody" clip-path="url(#satori_cp-id)" fill="#1C1410">lead</text><text x="678.31640625" y="427" width="5.556640625" height="26.400000000000002" font-weight="400" font-style="normal" font-size="20" font-family="svglidebody" clip-path="url(#satori_cp-id)" fill="#1C1410">,</text><text x="683.873046875" y="427" width="5.556640625" height="26.400000000000002" font-weight="400" font-style="normal" font-size="20" font-family="svglidebody" clip-path="url(#satori_cp-id)" fill="#1C1410"> </text><text x="689.4296875" y="427" width="17.783203125" height="26.400000000000002" font-weight="400" font-style="normal" font-size="20" font-family="svglidebody" clip-path="url(#satori_cp-id)" fill="#1C1410">or</text><text x="707.212890625" y="427" width="5.556640625" height="26.400000000000002" font-weight="400" font-style="normal" font-size="20" font-family="svglidebody" clip-path="url(#satori_cp-id)" fill="#1C1410"> </text><text x="712.76953125" y="427" width="33.369140625" height="26.400000000000002" font-weight="400" font-style="normal" font-size="20" font-family="svglidebody" clip-path="url(#satori_cp-id)" fill="#1C1410">one</text><text x="746.138671875" y="427" width="6.66015625" height="26.400000000000002" font-weight="400" font-style="normal" font-size="20" font-family="svglidebody" clip-path="url(#satori_cp-id)" fill="#1C1410">-</text><text x="752.798828125" y="427" width="44.4921875" height="26.400000000000002" font-weight="400" font-style="normal" font-size="20" font-family="svglidebody" clip-path="url(#satori_cp-id)" fill="#1C1410">page</text><text x="797.291015625" y="427" width="5.556640625" height="26.400000000000002" font-weight="400" font-style="normal" font-size="20" font-family="svglidebody" clip-path="url(#satori_cp-id)" fill="#1C1410"> </text><text x="802.84765625" y="427" width="81.15234375" height="26.400000000000002" font-weight="400" font-style="normal" font-size="20" font-family="svglidebody" clip-path="url(#satori_cp-id)" fill="#1C1410">company</text><text x="884" y="427" width="5.556640625" height="26.400000000000002" font-weight="400" font-style="normal" font-size="20" font-family="svglidebody" clip-path="url(#satori_cp-id)" fill="#1C1410"> </text><text x="835.103515625" y="453" width="43.33984375" height="26.400000000000002" font-weight="400" font-style="normal" font-size="20" font-family="svglidebody" clip-path="url(#satori_cp-id)" fill="#1C1410">story</text><text x="878.443359375" y="453" width="5.556640625" height="26.400000000000002" font-weight="400" font-style="normal" font-size="20" font-family="svglidebody" clip-path="url(#satori_cp-id)" fill="#1C1410">.</text><mask id="satori_om-id-7"><rect x="764" y="473" width="120" height="13" fill="#fff" mask="url(#satori_om-id)"/></mask><text x="764" y="484" width="30.835625" height="12.600000000000001" font-weight="800" font-style="normal" font-size="12" font-family="svglidelabel" letter-spacing="0.08" clip-path="url(#satori_cp-id)" fill="#7B706A">2026</text><mask id="satori_om-id-8"><rect x="66" y="474" width="86" height="2" fill="#fff" mask="url(#satori_om-id)"/></mask><rect x="66" y="474" width="86" height="2" fill="#D8000F" clip-path="url(#satori_cp-id)" mask="url(#satori_om-id)"/><mask id="satori_om-id-9"><rect x="66" y="494" width="704" height="2" fill="#fff" mask="url(#satori_om-id)"/></mask><rect x="66" y="494" width="704" height="2" fill="#D8000F" clip-path="url(#satori_cp-id)" mask="url(#satori_om-id)"/><defs><clipPath id="satori_bc-id-10" clip-path="url(#satori_cp-id)"><rect x="382" y="272" width="404" height="143"/></clipPath></defs><mask id="satori_om-id-10"><rect x="382" y="274" width="404" height="139" fill="#fff" mask="url(#satori_om-id)"/><path width="404" height="143" fill="none" stroke="#000" stroke-width="4" d="M382,272 A0,0 0 0 1 382,272 h404 A0,0 0 0 1 786,272"/><path width="404" height="143" fill="none" stroke="#000" stroke-width="4" d="M786,415 A0,0 0 0 1 786,415 h-404 A0,0 0 0 1 382,415"/></mask><path width="404" height="143" clip-path="url(#satori_bc-id-10)" fill="none" stroke="#1C1410" stroke-width="4" d="M382,272 A0,0 0 0 1 382,272 h404 A0,0 0 0 1 786,272"/><path width="404" height="143" clip-path="url(#satori_bc-id-10)" fill="none" stroke="#1C1410" stroke-width="4" d="M786,415 A0,0 0 0 1 786,415 h-404 A0,0 0 0 1 382,415"/><mask id="satori_om-id-10-0"><rect x="382" y="274" width="134" height="139" fill="#fff" mask="url(#satori_om-id)"/></mask><mask id="satori_om-id-10-0-0"><rect x="396" y="287" width="106" height="53" fill="#fff" mask="url(#satori_om-id)"/></mask><text x="396" y="334" width="58.734375" height="53.199999999999996" font-weight="900" font-style="normal" font-size="56" font-family="svglidemetric" clip-path="url(#satori_cp-id)" fill="#D8000F">01</text><mask id="satori_om-id-10-0-1"><rect x="396" y="348" width="106" height="52" fill="#fff" mask="url(#satori_om-id)"/></mask><text x="396" y="369" width="80.0390625" height="26.400000000000002" font-weight="400" font-style="normal" font-size="20" font-family="svglidebody" clip-path="url(#satori_cp-id)" fill="#1C1410">Financial</text><text x="476.0390625" y="369" width="5.556640625" height="26.400000000000002" font-weight="400" font-style="normal" font-size="20" font-family="svglidebody" clip-path="url(#satori_cp-id)" fill="#1C1410"> </text><text x="396" y="395" width="112.275390625" height="26.400000000000002" font-weight="400" font-style="normal" font-size="20" font-family="svglidebody" clip-path="url(#satori_cp-id)" fill="#1C1410">performance</text><defs><clipPath id="satori_bc-id-10-1" clip-path="url(#satori_cp-id)"><rect x="516" y="274" width="134" height="139"/></clipPath></defs><mask id="satori_om-id-10-1"><rect x="517" y="274" width="133" height="139" fill="#fff" mask="url(#satori_om-id)"/><path width="134" height="139" fill="none" stroke="#000" stroke-width="2" d="M516,413 A0,0 0 0 1 516,413 v-139 A0,0 0 0 1 516,274"/></mask><path width="134" height="139" clip-path="url(#satori_bc-id-10-1)" fill="none" stroke="#1C1410" stroke-width="2" d="M516,413 A0,0 0 0 1 516,413 v-139 A0,0 0 0 1 516,274"/><mask id="satori_om-id-10-1-0"><rect x="531" y="287" width="105" height="53" fill="#fff" mask="url(#satori_om-id)"/></mask><text x="531" y="334" width="58.734375" height="53.199999999999996" font-weight="900" font-style="normal" font-size="56" font-family="svglidemetric" clip-path="url(#satori_cp-id)" fill="#D8000F">02</text><mask id="satori_om-id-10-1-1"><rect x="531" y="348" width="105" height="52" fill="#fff" mask="url(#satori_om-id)"/></mask><text x="531" y="369" width="78.9453125" height="26.400000000000002" font-weight="400" font-style="normal" font-size="20" font-family="svglidebody" clip-path="url(#satori_cp-id)" fill="#1C1410">Regional</text><text x="609.9453125" y="369" width="5.556640625" height="26.400000000000002" font-weight="400" font-style="normal" font-size="20" font-family="svglidebody" clip-path="url(#satori_cp-id)" fill="#1C1410"> </text><text x="531" y="395" width="91.181640625" height="26.400000000000002" font-weight="400" font-style="normal" font-size="20" font-family="svglidebody" clip-path="url(#satori_cp-id)" fill="#1C1410">expansion</text><defs><clipPath id="satori_bc-id-10-2" clip-path="url(#satori_cp-id)"><rect x="650" y="274" width="134" height="139"/></clipPath></defs><mask id="satori_om-id-10-2"><rect x="651" y="274" width="133" height="139" fill="#fff" mask="url(#satori_om-id)"/><path width="134" height="139" fill="none" stroke="#000" stroke-width="2" d="M650,413 A0,0 0 0 1 650,413 v-139 A0,0 0 0 1 650,274"/></mask><path width="134" height="139" clip-path="url(#satori_bc-id-10-2)" fill="none" stroke="#1C1410" stroke-width="2" d="M650,413 A0,0 0 0 1 650,413 v-139 A0,0 0 0 1 650,274"/><mask id="satori_om-id-10-2-0"><rect x="665" y="287" width="105" height="53" fill="#fff" mask="url(#satori_om-id)"/></mask><text x="665" y="334" width="58.734375" height="53.199999999999996" font-weight="900" font-style="normal" font-size="56" font-family="svglidemetric" clip-path="url(#satori_cp-id)" fill="#D8000F">03</text><mask id="satori_om-id-10-2-1"><rect x="665" y="348" width="105" height="52" fill="#fff" mask="url(#satori_om-id)"/></mask><text x="665" y="369" width="87.83203125" height="26.400000000000002" font-weight="400" font-style="normal" font-size="20" font-family="svglidebody" clip-path="url(#satori_cp-id)" fill="#1C1410">Operating</text><text x="752.83203125" y="369" width="5.556640625" height="26.400000000000002" font-weight="400" font-style="normal" font-size="20" font-family="svglidebody" clip-path="url(#satori_cp-id)" fill="#1C1410"> </text><text x="665" y="395" width="82.265625" height="26.400000000000002" font-weight="400" font-style="normal" font-size="20" font-family="svglidebody" clip-path="url(#satori_cp-id)" fill="#1C1410">discipline</text><mask id="satori_om-id-11"><rect x="722" y="58" width="160" height="106" fill="#fff" mask="url(#satori_om-id)"/></mask><text x="739.79296875" y="105" width="202.20703125" height="53.199999999999996" font-weight="900" font-style="normal" font-size="56" font-family="svglidemetric" clip-path="url(#satori_cp-id)" fill="#D8000F">ANNUAL</text><text x="942" y="105" width="16.87109375" height="53.199999999999996" font-weight="900" font-style="normal" font-size="56" font-family="svglidemetric" clip-path="url(#satori_cp-id)" fill="#D8000F"> </text><text x="745.34375" y="158" width="196.65625" height="53.199999999999996" font-weight="900" font-style="normal" font-size="56" font-family="svglidemetric" clip-path="url(#satori_cp-id)" fill="#D8000F">REPORT</text></svg>