<svg width="960" height="540" viewBox="0 0 960 540" xmlns="http://www.w3.org/2000/svg"><clipPath id="satori_cp-id"><rect x="0" y="0" width="960" height="540"/></clipPath><mask id="satori_om-id"><rect x="0" y="0" width="960" height="540" fill="#fff"/></mask><rect x="0" y="0" width="960" height="540" fill="#FAF1E2"/><defs><clipPath id="satori_bc-id-0" clip-path="url(#satori_cp-id)"><path x="49" y="33" width="22" height="22" d="M60,33 h0 a11,11 0 0 1 11,11 v0 a11,11 0 0 1 -11,11 h0 a11,11 0 0 1 -11,-11 v0 a11,11 0 0 1 11,-11"/></clipPath></defs><mask id="satori_om-id-0"><rect x="50" y="34" width="20" height="20" fill="#fff" mask="url(#satori_om-id)"/><path width="22" height="22" fill="none" stroke="#000" stroke-width="2" d="M52.222,36.222 A11,11 0 0 1 60,33 h0 a11,11 0 0 1 11,11 v0 a11,11 0 0 1 -11,11 h0 a11,11 0 0 1 -11,-11 v0 A11,11 0 0 1 52.222,36.222"/></mask><path width="22" height="22" clip-path="url(#satori_bc-id-0)" fill="none" stroke="#B53D2A" stroke-width="2" d="M52.222,36.222 A11,11 0 0 1 60,33 h0 a11,11 0 0 1 11,11 v0 a11,11 0 0 1 -11,11 h0 a11,11 0 0 1 -11,-11 v0 A11,11 0 0 1 52.222,36.222"/><text x="50" y="86" width="29.3671875" height="53.199999999999996" font-weight="500" font-style="normal" font-size="56" font-family="svglidemetric" clip-path="url(#satori_cp-id)" fill="#B53D2A">5</text><mask id="satori_om-id-1"><rect x="79" y="38" width="154" height="26" fill="#fff" mask="url(#satori_om-id)"/></mask><text x="79" y="59" width="88.935546875" height="26.400000000000002" font-weight="800" font-style="normal" font-size="20" font-family="svglidebody" clip-path="url(#satori_cp-id)" fill="#B53D2A">december</text><text x="167.935546875" y="59" width="5.556640625" height="26.400000000000002" font-weight="800" font-style="normal" font-size="20" font-family="svglidebody" clip-path="url(#satori_cp-id)" fill="#B53D2A"> </text><text x="173.4921875" y="59" width="58.935546875" height="26.400000000000002" font-weight="800" font-style="normal" font-size="20" font-family="svglidebody" clip-path="url(#satori_cp-id)" fill="#B53D2A">edition</text><mask id="satori_om-id-2"><rect x="48" y="126" width="300" height="158" fill="#fff" mask="url(#satori_om-id)"/></mask><text x="48" y="201" width="249.390625" height="79.2" font-weight="900" font-style="normal" font-size="88" font-family="svglidedisplay" clip-path="url(#satori_cp-id)" fill="#B53D2A">LONG</text><text x="297.390625" y="201" width="44" height="79.2" font-weight="900" font-style="normal" font-size="88" font-family="svglidedisplay" clip-path="url(#satori_cp-id)" fill="#B53D2A">
</text><text x="48" y="280" width="278.78125" height="79.2" font-weight="900" font-style="normal" font-size="88" font-family="svglidedisplay" clip-path="url(#satori_cp-id)" fill="#B53D2A">TABLE</text><mask id="satori_om-id-3"><rect x="600" y="70" width="310" height="158" fill="#fff" mask="url(#satori_om-id)"/></mask><text x="644.55078125" y="145" width="132" height="79.2" font-weight="400" font-style="normal" font-size="88" font-family="svglidedisplay" clip-path="url(#satori_cp-id)" fill="#B53D2A">NO</text><text x="776.55078125" y="145" width="24.44921875" height="79.2" font-weight="400" font-style="normal" font-size="88" font-family="svglidedisplay" clip-path="url(#satori_cp-id)" fill="#B53D2A">.</text><text x="801" y="145" width="44" height="79.2" font-weight="400" font-style="normal" font-size="88" font-family="svglidedisplay" clip-path="url(#satori_cp-id)" fill="#B53D2A">
</text><text x="703.1171875" y="224" width="97.8828125" height="79.2" font-weight="400" font-style="normal" font-size="88" font-family="svglidedisplay" clip-path="url(#satori_cp-id)" fill="#B53D2A">05</text><mask id="satori_om-id-4"><rect x="48" y="337" width="222" height="26" fill="#fff" mask="url(#satori_om-id)"/></mask><defs><clipPath id="satori_bc-id-4-0" clip-path="url(#satori_cp-id)"><path x="48" y="337" width="80" height="22" d="M59,337 h58 a11,11 0 0 1 11,11 v0 a11,11 0 0 1 -11,11 h-58 a11,11 0 0 1 -11,-11 v0 a11,11 0 0 1 11,-11"/></clipPath></defs><mask id="satori_om-id-4-0"><rect x="49" y="338" width="78" height="20" fill="#fff" mask="url(#satori_om-id)"/><path width="80" height="22" fill="none" stroke="#000" stroke-width="2" d="M51.222,340.222 A11,11 0 0 1 59,337 h58 a11,11 0 0 1 11,11 v0 a11,11 0 0 1 -11,11 h-58 a11,11 0 0 1 -11,-11 v0 A11,11 0 0 1 51.222,340.222"/></mask><path width="80" height="22" clip-path="url(#satori_bc-id-4-0)" fill="none" stroke="#B53D2A" stroke-width="2" d="M51.222,340.222 A11,11 0 0 1 59,337 h58 a11,11 0 0 1 11,11 v0 a11,11 0 0 1 -11,11 h-58 a11,11 0 0 1 -11,-11 v0 A11,11 0 0 1 51.222,340.222"/><text x="64" y="353" width="47.06203125" height="12.600000000000001" font-weight="600" font-style="normal" font-size="12" font-family="svglidelabel" letter-spacing="0.08" clip-path="url(#satori_cp-id)" fill="#B53D2A">LISBON</text><mask id="satori_om-id-4-1"><rect x="144" y="337" width="6" height="26" fill="#fff" mask="url(#satori_om-id)"/></mask><text x="144" y="358" width="5.1953125" height="26.400000000000002" font-weight="400" font-style="normal" font-size="20" font-family="svglidebody" clip-path="url(#satori_cp-id)" fill="#B53D2A">|</text><defs><clipPath id="satori_bc-id-4-2" clip-path="url(#satori_cp-id)"><path x="166" y="337" width="104" height="22" d="M177,337 h82 a11,11 0 0 1 11,11 v0 a11,11 0 0 1 -11,11 h-82 a11,11 0 0 1 -11,-11 v0 a11,11 0 0 1 11,-11"/></clipPath></defs><mask id="satori_om-id-4-2"><rect x="167" y="338" width="102" height="20" fill="#fff" mask="url(#satori_om-id)"/><path width="104" height="22" fill="none" stroke="#000" stroke-width="2" d="M169.222,340.222 A11,11 0 0 1 177,337 h82 a11,11 0 0 1 11,11 v0 a11,11 0 0 1 -11,11 h-82 a11,11 0 0 1 -11,-11 v0 A11,11 0 0 1 169.222,340.222"/></mask><path width="104" height="22" clip-path="url(#satori_bc-id-4-2)" fill="none" stroke="#B53D2A" stroke-width="2" d="M169.222,340.222 A11,11 0 0 1 177,337 h82 a11,11 0 0 1 11,11 v0 a11,11 0 0 1 -11,11 h-82 a11,11 0 0 1 -11,-11 v0 A11,11 0 0 1 169.222,340.222"/><text x="182" y="353" width="37.13828125" height="12.600000000000001" font-weight="600" font-style="normal" font-size="12" font-family="svglidelabel" letter-spacing="0.08" clip-path="url(#satori_cp-id)" fill="#B53D2A">APPLY</text><text x="219.13828125" y="353" width="4.29875" height="12.600000000000001" font-weight="600" font-style="normal" font-size="12" font-family="svglidelabel" letter-spacing="0.08" clip-path="url(#satori_cp-id)" fill="#B53D2A"> </text><text x="223.43703125" y="353" width="30.527109375000002" height="12.600000000000001" font-weight="600" font-style="normal" font-size="12" font-family="svglidelabel" letter-spacing="0.08" clip-path="url(#satori_cp-id)" fill="#B53D2A">NOW</text><mask id="satori_om-id-5"><rect x="48" y="374" width="118" height="26" fill="#fff" mask="url(#satori_om-id)"/></mask><text x="48" y="395" width="22.24609375" height="26.400000000000002" font-weight="900" font-style="normal" font-size="20" font-family="svglidebody" clip-path="url(#satori_cp-id)" fill="#B53D2A">22</text><text x="70.24609375" y="395" width="5.556640625" height="26.400000000000002" font-weight="900" font-style="normal" font-size="20" font-family="svglidebody" clip-path="url(#satori_cp-id)" fill="#B53D2A"> </text><text x="75.802734375" y="395" width="47.802734375" height="26.400000000000002" font-weight="900" font-style="normal" font-size="20" font-family="svglidebody" clip-path="url(#satori_cp-id)" fill="#B53D2A">seats</text><text x="123.60546875" y="395" width="5.556640625" height="26.400000000000002" font-weight="900" font-style="normal" font-size="20" font-family="svglidebody" clip-path="url(#satori_cp-id)" fill="#B53D2A"> </text><text x="129.162109375" y="395" width="36.689453125" height="26.400000000000002" font-weight="900" font-style="normal" font-size="20" font-family="svglidebody" clip-path="url(#satori_cp-id)" fill="#B53D2A">only</text><mask id="satori_om-id-6"><rect x="48" y="394" width="300" height="52" fill="#fff" mask="url(#satori_om-id)"/></mask><text x="48" y="415" width="45.56640625" height="26.400000000000002" font-weight="600" font-style="normal" font-size="20" font-family="svglidebody" clip-path="url(#satori_cp-id)" fill="#B53D2A">More</text><text x="93.56640625" y="415" width="5.556640625" height="26.400000000000002" font-weight="600" font-style="normal" font-size="20" font-family="svglidebody" clip-path="url(#satori_cp-id)" fill="#B53D2A"> </text><text x="99.123046875" y="415" width="38.92578125" height="26.400000000000002" font-weight="600" font-style="normal" font-size="20" font-family="svglidebody" clip-path="url(#satori_cp-id)" fill="#B53D2A">than</text><text x="138.048828125" y="415" width="5.556640625" height="26.400000000000002" font-weight="600" font-style="normal" font-size="20" font-family="svglidebody" clip-path="url(#satori_cp-id)" fill="#B53D2A"> </text><text x="143.60546875" y="415" width="55.595703125" height="26.400000000000002" font-weight="600" font-style="normal" font-size="20" font-family="svglidebody" clip-path="url(#satori_cp-id)" fill="#B53D2A">dinner</text><text x="199.201171875" y="415" width="5.556640625" height="26.400000000000002" font-weight="600" font-style="normal" font-size="20" font-family="svglidebody" clip-path="url(#satori_cp-id)" fill="#B53D2A">,</text><text x="204.7578125" y="415" width="5.556640625" height="26.400000000000002" font-weight="600" font-style="normal" font-size="20" font-family="svglidebody" clip-path="url(#satori_cp-id)" fill="#B53D2A"> </text><text x="210.314453125" y="415" width="23.818359375" height="26.400000000000002" font-weight="600" font-style="normal" font-size="20" font-family="svglidebody" clip-path="url(#satori_cp-id)" fill="#B53D2A">it&#39;s</text><text x="234.1328125" y="415" width="5.556640625" height="26.400000000000002" font-weight="600" font-style="normal" font-size="20" font-family="svglidebody" clip-path="url(#satori_cp-id)" fill="#B53D2A"> </text><text x="239.689453125" y="415" width="11.123046875" height="26.400000000000002" font-weight="600" font-style="normal" font-size="20" font-family="svglidebody" clip-path="url(#satori_cp-id)" fill="#B53D2A">a</text><text x="250.8125" y="415" width="5.556640625" height="26.400000000000002" font-weight="600" font-style="normal" font-size="20" font-family="svglidebody" clip-path="url(#satori_cp-id)" fill="#B53D2A"> </text><text x="256.369140625" y="415" width="37.8125" height="26.400000000000002" font-weight="600" font-style="normal" font-size="20" font-family="svglidebody" clip-path="url(#satori_cp-id)" fill="#B53D2A">long</text><text x="294.181640625" y="415" width="5.556640625" height="26.400000000000002" font-weight="600" font-style="normal" font-size="20" font-family="svglidebody" clip-path="url(#satori_cp-id)" fill="#B53D2A"> </text><text x="48" y="441" width="70.05859375" height="26.400000000000002" font-weight="600" font-style="normal" font-size="20" font-family="svglidebody" clip-path="url(#satori_cp-id)" fill="#B53D2A">evening</text><text x="118.05859375" y="441" width="5.556640625" height="26.400000000000002" font-weight="600" font-style="normal" font-size="20" font-family="svglidebody" clip-path="url(#satori_cp-id)" fill="#B53D2A">.</text><defs><clipPath id="satori_bc-id-7" clip-path="url(#satori_cp-id)"><rect x="48" y="438" width="160" height="22"/></clipPath></defs><mask id="satori_om-id-7"><rect x="49" y="439" width="158" height="20" fill="#fff" mask="url(#satori_om-id)"/><path width="160" height="22" fill="none" stroke="#000" stroke-width="2" d="M48,438 A0,0 0 0 1 48,438 h160 a0,0 0 0 1 0,0 v22 a0,0 0 0 1 0,0 h-160 a0,0 0 0 1 0,0 v-22 A0,0 0 0 1 48,438"/></mask><path width="160" height="22" clip-path="url(#satori_bc-id-7)" fill="none" stroke="#B53D2A" stroke-width="2" d="M48,438 A0,0 0 0 1 48,438 h160 a0,0 0 0 1 0,0 v22 a0,0 0 0 1 0,0 h-160 a0,0 0 0 1 0,0 v-22 A0,0 0 0 1 48,438"/><text x="60" y="465" width="31.123046875" height="26.400000000000002" font-weight="600" font-style="normal" font-size="20" font-family="svglidebody" clip-path="url(#satori_cp-id)" fill="#B53D2A">Not</text><text x="91.123046875" y="465" width="5.556640625" height="26.400000000000002" font-weight="600" font-style="normal" font-size="20" font-family="svglidebody" clip-path="url(#satori_cp-id)" fill="#B53D2A"> </text><text x="96.6796875" y="465" width="11.123046875" height="26.400000000000002" font-weight="600" font-style="normal" font-size="20" font-family="svglidebody" clip-path="url(#satori_cp-id)" fill="#B53D2A">a</text><text x="107.802734375" y="465" width="5.556640625" height="26.400000000000002" font-weight="600" font-style="normal" font-size="20" font-family="svglidebody" clip-path="url(#satori_cp-id)" fill="#B53D2A"> </text><text x="113.359375" y="465" width="43.349609375" height="26.400000000000002" font-weight="600" font-style="normal" font-size="20" font-family="svglidebody" clip-path="url(#satori_cp-id)" fill="#B53D2A">meal</text><text x="156.708984375" y="465" width="5.556640625" height="26.400000000000002" font-weight="600" font-style="normal" font-size="20" font-family="svglidebody" clip-path="url(#satori_cp-id)" fill="#B53D2A">,</text><text x="162.265625" y="465" width="5.556640625" height="26.400000000000002" font-weight="600" font-style="normal" font-size="20" font-family="svglidebody" clip-path="url(#satori_cp-id)" fill="#B53D2A"> </text><text x="167.822265625" y="465" width="22.24609375" height="26.400000000000002" font-weight="600" font-style="normal" font-size="20" font-family="svglidebody" clip-path="url(#satori_cp-id)" fill="#B53D2A">an</text><text x="190.068359375" y="465" width="5.556640625" height="26.400000000000002" font-weight="600" font-style="normal" font-size="20" font-family="svglidebody" clip-path="url(#satori_cp-id)" fill="#B53D2A"> </text><text x="60" y="491" width="70.05859375" height="26.400000000000002" font-weight="600" font-style="normal" font-size="20" font-family="svglidebody" clip-path="url(#satori_cp-id)" fill="#B53D2A">evening</text><mask id="satori_om-id-8"><rect x="662" y="424" width="250" height="13" fill="#fff" mask="url(#satori_om-id)"/></mask><text x="662" y="435" width="67.712265625" height="12.600000000000001" font-weight="900" font-style="normal" font-size="12" font-family="svglidelabel" letter-spacing="0.08" clip-path="url(#satori_cp-id)" fill="#B53D2A">DECEMBER</text><text x="729.712265625" y="435" width="4.29875" height="12.600000000000001" font-weight="900" font-style="normal" font-size="12" font-family="svglidelabel" letter-spacing="0.08" clip-path="url(#satori_cp-id)" fill="#B53D2A"> </text><text x="734.011015625" y="435" width="4.445234375" height="12.600000000000001" font-weight="900" font-style="normal" font-size="12" font-family="svglidelabel" letter-spacing="0.08" clip-path="url(#satori_cp-id)" fill="#B53D2A">·</text><text x="738.45625" y="435" width="4.29875" height="12.600000000000001" font-weight="900" font-style="normal" font-size="12" font-family="svglidelabel" letter-spacing="0.08" clip-path="url(#satori_cp-id)" fill="#B53D2A"> </text><text x="742.755" y="435" width="47.06203125" height="12.600000000000001" font-weight="900" font-style="normal" font-size="12" font-family="svglidelabel" letter-spacing="0.08" clip-path="url(#satori_cp-id)" fill="#B53D2A">LISBON</text><text x="789.81703125" y="435" width="4.29875" height="12.600000000000001" font-weight="900" font-style="normal" font-size="12" font-family="svglidelabel" letter-spacing="0.08" clip-path="url(#satori_cp-id)" fill="#B53D2A"> </text><text x="794.11578125" y="435" width="4.445234375" height="12.600000000000001" font-weight="900" font-style="normal" font-size="12" font-family="svglidelabel" letter-spacing="0.08" clip-path="url(#satori_cp-id)" fill="#B53D2A">·</text><text x="798.561015625" y="435" width="4.29875" height="12.600000000000001" font-weight="900" font-style="normal" font-size="12" font-family="svglidelabel" letter-spacing="0.08" clip-path="url(#satori_cp-id)" fill="#B53D2A"> </text><text x="802.859765625" y="435" width="53.311953124999995" height="12.600000000000001" font-weight="900" font-style="normal" font-size="12" font-family="svglidelabel" letter-spacing="0.08" clip-path="url(#satori_cp-id)" fill="#B53D2A">EDITION</text><mask id="satori_om-id-9"><rect x="662" y="453" width="250" height="104" fill="#fff" mask="url(#satori_om-id)"/></mask><text x="702.517578125" y="474" width="52.2265625" height="26.400000000000002" font-weight="600" font-style="normal" font-size="20" font-family="svglidebody" clip-path="url(#satori_cp-id)" fill="#B53D2A">Twice</text><text x="754.744140625" y="474" width="5.556640625" height="26.400000000000002" font-weight="600" font-style="normal" font-size="20" font-family="svglidebody" clip-path="url(#satori_cp-id)" fill="#B53D2A"> </text><text x="760.30078125" y="474" width="11.123046875" height="26.400000000000002" font-weight="600" font-style="normal" font-size="20" font-family="svglidebody" clip-path="url(#satori_cp-id)" fill="#B53D2A">a</text><text x="771.423828125" y="474" width="5.556640625" height="26.400000000000002" font-weight="600" font-style="normal" font-size="20" font-family="svglidebody" clip-path="url(#satori_cp-id)" fill="#B53D2A"> </text><text x="776.98046875" y="474" width="55.5859375" height="26.400000000000002" font-weight="600" font-style="normal" font-size="20" font-family="svglidebody" clip-path="url(#satori_cp-id)" fill="#B53D2A">month</text><text x="832.56640625" y="474" width="5.556640625" height="26.400000000000002" font-weight="600" font-style="normal" font-size="20" font-family="svglidebody" clip-path="url(#satori_cp-id)" fill="#B53D2A">,</text><text x="838.123046875" y="474" width="5.556640625" height="26.400000000000002" font-weight="600" font-style="normal" font-size="20" font-family="svglidebody" clip-path="url(#satori_cp-id)" fill="#B53D2A"> </text><text x="843.6796875" y="474" width="27.802734375" height="26.400000000000002" font-weight="600" font-style="normal" font-size="20" font-family="svglidebody" clip-path="url(#satori_cp-id)" fill="#B53D2A">ten</text><text x="871.482421875" y="474" width="5.556640625" height="26.400000000000002" font-weight="600" font-style="normal" font-size="20" font-family="svglidebody" clip-path="url(#satori_cp-id)" fill="#B53D2A"> </text><text x="696.39453125" y="500" width="83.369140625" height="26.400000000000002" font-weight="600" font-style="normal" font-size="20" font-family="svglidebody" clip-path="url(#satori_cp-id)" fill="#B53D2A">strangers</text><text x="779.763671875" y="500" width="5.556640625" height="26.400000000000002" font-weight="600" font-style="normal" font-size="20" font-family="svglidebody" clip-path="url(#satori_cp-id)" fill="#B53D2A">,</text><text x="785.3203125" y="500" width="5.556640625" height="26.400000000000002" font-weight="600" font-style="normal" font-size="20" font-family="svglidebody" clip-path="url(#satori_cp-id)" fill="#B53D2A"> </text><text x="790.876953125" y="500" width="33.369140625" height="26.400000000000002" font-weight="600" font-style="normal" font-size="20" font-family="svglidebody" clip-path="url(#satori_cp-id)" fill="#B53D2A">one</text><text x="824.24609375" y="500" width="5.556640625" height="26.400000000000002" font-weight="600" font-style="normal" font-size="20" font-family="svglidebody" clip-path="url(#satori_cp-id)" fill="#B53D2A"> </text><text x="829.802734375" y="500" width="42.24609375" height="26.400000000000002" font-weight="600" font-style="normal" font-size="20" font-family="svglidebody" clip-path="url(#satori_cp-id)" fill="#B53D2A">cook</text><text x="872.048828125" y="500" width="5.556640625" height="26.400000000000002" font-weight="600" font-style="normal" font-size="20" font-family="svglidebody" clip-path="url(#satori_cp-id)" fill="#B53D2A">,</text><text x="877.60546875" y="500" width="10" height="26.400000000000002" font-weight="600" font-style="normal" font-size="20" font-family="svglidebody" clip-path="url(#satori_cp-id)" fill="#B53D2A">
</text><text x="706.94140625" y="526" width="33.369140625" height="26.400000000000002" font-weight="600" font-style="normal" font-size="20" font-family="svglidebody" clip-path="url(#satori_cp-id)" fill="#B53D2A">one</text><text x="740.310546875" y="526" width="5.556640625" height="26.400000000000002" font-weight="600" font-style="normal" font-size="20" font-family="svglidebody" clip-path="url(#satori_cp-id)" fill="#B53D2A"> </text><text x="745.8671875" y="526" width="37.8125" height="26.400000000000002" font-weight="600" font-style="normal" font-size="20" font-family="svglidebody" clip-path="url(#satori_cp-id)" fill="#B53D2A">long</text><text x="783.6796875" y="526" width="5.556640625" height="26.400000000000002" font-weight="600" font-style="normal" font-size="20" font-family="svglidebody" clip-path="url(#satori_cp-id)" fill="#B53D2A"> </text><text x="789.236328125" y="526" width="43.369140625" height="26.400000000000002" font-weight="600" font-style="normal" font-size="20" font-family="svglidebody" clip-path="url(#satori_cp-id)" fill="#B53D2A">table</text><text x="832.60546875" y="526" width="5.556640625" height="26.400000000000002" font-weight="600" font-style="normal" font-size="20" font-family="svglidebody" clip-path="url(#satori_cp-id)" fill="#B53D2A">.</text><text x="838.162109375" y="526" width="5.556640625" height="26.400000000000002" font-weight="600" font-style="normal" font-size="20" font-family="svglidebody" clip-path="url(#satori_cp-id)" fill="#B53D2A"> </text><text x="843.71875" y="526" width="23.33984375" height="26.400000000000002" font-weight="600" font-style="normal" font-size="20" font-family="svglidebody" clip-path="url(#satori_cp-id)" fill="#B53D2A">By</text><text x="867.05859375" y="526" width="5.556640625" height="26.400000000000002" font-weight="600" font-style="normal" font-size="20" font-family="svglidebody" clip-path="url(#satori_cp-id)" fill="#B53D2A"> </text><text x="736.4091796875" y="552" width="95.625" height="26.400000000000002" font-weight="600" font-style="normal" font-size="20" font-family="svglidebody" clip-path="url(#satori_cp-id)" fill="#B53D2A">application</text><text x="832.0341796875" y="552" width="5.556640625" height="26.400000000000002" font-weight="600" font-style="normal" font-size="20" font-family="svglidebody" clip-path="url(#satori_cp-id)" fill="#B53D2A">.</text><mask id="satori_om-id-10"><rect x="744" y="474" width="181" height="53" fill="#fff" mask="url(#satori_om-id)"/></mask><text x="744" y="521" width="58.734375" height="53.199999999999996" font-weight="700" font-style="normal" font-size="56" font-family="svglidemetric" clip-path="url(#satori_cp-id)" fill="#B53D2A">01</text><text x="802.734375" y="521" width="16.87109375" height="53.199999999999996" font-weight="700" font-style="normal" font-size="56" font-family="svglidemetric" clip-path="url(#satori_cp-id)" fill="#B53D2A"> </text><text x="819.60546875" y="521" width="29.3671875" height="53.199999999999996" font-weight="700" font-style="normal" font-size="56" font-family="svglidemetric" clip-path="url(#satori_cp-id)" fill="#B53D2A">/</text><text x="848.97265625" y="521" width="16.87109375" height="53.199999999999996" font-weight="700" font-style="normal" font-size="56" font-family="svglidemetric" clip-path="url(#satori_cp-id)" fill="#B53D2A"> </text><text x="865.84375" y="521" width="58.734375" height="53.199999999999996" font-weight="700" font-style="normal" font-size="56" font-family="svglidemetric" clip-path="url(#satori_cp-id)" fill="#B53D2A">08</text></svg>