<svg width="960" height="540" viewBox="0 0 960 540" xmlns="http://www.w3.org/2000/svg"><clipPath id="satori_cp-id"><rect x="0" y="0" width="960" height="540"/></clipPath><mask id="satori_om-id"><rect x="0" y="0" width="960" height="540" fill="#fff"/></mask><rect x="0" y="0" width="960" height="540" fill="#F1E6CB"/><mask id="satori_om-id-0"><rect x="34" y="20" width="205" height="154" fill="#fff" mask="url(#satori_om-id)"/></mask><mask id="satori_om-id-0-0"><rect x="34" y="64" width="96" height="94" fill="#fff" mask="url(#satori_om-id)"/></mask><path x="34" y="64" width="96" height="94" fill="#E5392A" d="M81,64 h2 a47,47 0 0 1 47,47 v0 a47,47 0 0 1 -47,47 h-2 a47,47 0 0 1 -47,-47 v0 a47,47 0 0 1 47,-47" clip-path="url(#satori_cp-id)" mask="url(#satori_om-id)"/><mask id="satori_om-id-0-1"><rect x="88" y="20" width="84" height="84" fill="#fff" mask="url(#satori_om-id)"/></mask><path x="88" y="20" width="84" height="84" fill="#3F8BC4" d="M130,20 h0 a42,42 0 0 1 42,42 v0 a42,42 0 0 1 -42,42 h0 a42,42 0 0 1 -42,-42 v0 a42,42 0 0 1 42,-42" clip-path="url(#satori_cp-id)" mask="url(#satori_om-id)"/><mask id="satori_om-id-0-2"><rect x="134" y="58" width="96" height="96" fill="#fff" mask="url(#satori_om-id)"/></mask><path x="134" y="58" width="96" height="96" fill="#3D9F47" d="M182,58 h0 a48,48 0 0 1 48,48 v0 a48,48 0 0 1 -48,48 h0 a48,48 0 0 1 -48,-48 v0 a48,48 0 0 1 48,-48" clip-path="url(#satori_cp-id)" mask="url(#satori_om-id)"/><mask id="satori_om-id-0-3"><rect x="62" y="102" width="74" height="74" fill="#fff" mask="url(#satori_om-id)"/></mask><path x="62" y="102" width="74" height="74" fill="#F09131" d="M99,102 h0 a37,37 0 0 1 37,37 v0 a37,37 0 0 1 -37,37 h0 a37,37 0 0 1 -37,-37 v0 a37,37 0 0 1 37,-37" clip-path="url(#satori_cp-id)" mask="url(#satori_om-id)"/><mask id="satori_om-id-0-4"><rect x="104" y="102" width="62" height="62" fill="#fff" mask="url(#satori_om-id)"/></mask><path x="104" y="102" width="62" height="62" fill="#F0BC2A" d="M135,102 h0 a31,31 0 0 1 31,31 v0 a31,31 0 0 1 -31,31 h0 a31,31 0 0 1 -31,-31 v0 a31,31 0 0 1 31,-31" clip-path="url(#satori_cp-id)" mask="url(#satori_om-id)"/><mask id="satori_om-id-1"><rect x="230" y="48" width="120" height="50" fill="#fff" mask="url(#satori_om-id)"/></mask><text x="230" y="72" width="78.3544921875" height="24.599999999999998" font-weight="900" font-style="normal" font-size="30" font-family="svglidedisplay" clip-path="url(#satori_cp-id)" fill="#3A2516">TAPE</text><text x="308.3544921875" y="72" width="15" height="24.599999999999998" font-weight="900" font-style="normal" font-size="30" font-family="svglidedisplay" clip-path="url(#satori_cp-id)" fill="#3A2516">
</text><text x="230" y="97" width="128.349609375" height="24.599999999999998" font-weight="900" font-style="normal" font-size="30" font-family="svglidedisplay" clip-path="url(#satori_cp-id)" fill="#3A2516">GARDEN</text><mask id="satori_om-id-2"><rect x="231" y="104" width="170" height="11" fill="#fff" mask="url(#satori_om-id)"/></mask><text x="231" y="113" width="62.37039062499999" height="10.5" font-weight="900" font-style="normal" font-size="10" font-family="svglidelabel" letter-spacing="0.08" clip-path="url(#satori_cp-id)" fill="#3A2516">CATALOGUE</text><text x="293.37039062499997" y="113" width="3.595625" height="10.5" font-weight="900" font-style="normal" font-size="10" font-family="svglidelabel" letter-spacing="0.08" clip-path="url(#satori_cp-id)" fill="#3A2516"> </text><text x="296.966015625" y="113" width="15.5115625" height="10.5" font-weight="900" font-style="normal" font-size="10" font-family="svglidelabel" letter-spacing="0.08" clip-path="url(#satori_cp-id)" fill="#3A2516">NO</text><text x="312.47757812500004" y="113" width="3.7176953125" height="10.5" font-weight="900" font-style="normal" font-size="10" font-family="svglidelabel" letter-spacing="0.08" clip-path="url(#satori_cp-id)" fill="#3A2516">.</text><text x="316.1952734375" y="113" width="3.595625" height="10.5" font-weight="900" font-style="normal" font-size="10" font-family="svglidelabel" letter-spacing="0.08" clip-path="url(#satori_cp-id)" fill="#3A2516"> </text><text x="319.7908984375" y="113" width="6.437421875" height="10.5" font-weight="900" font-style="normal" font-size="10" font-family="svglidelabel" letter-spacing="0.08" clip-path="url(#satori_cp-id)" fill="#3A2516">7</text><mask id="satori_om-id-3"><rect x="34" y="160" width="250" height="91" fill="#fff" mask="url(#satori_om-id)"/></mask><text x="34" y="248" width="64.7490234375" height="91.16" font-weight="900" font-style="normal" font-size="106" font-family="svglidedisplay" clip-path="url(#satori_cp-id)" fill="#3A2516">T</text><text x="98.7490234375" y="248" width="35.298828125" height="91.16" font-weight="900" font-style="normal" font-size="106" font-family="svglidedisplay" clip-path="url(#satori_cp-id)" fill="#3A2516">-</text><text x="134.0478515625" y="248" width="117.904296875" height="91.16" font-weight="900" font-style="normal" font-size="106" font-family="svglidedisplay" clip-path="url(#satori_cp-id)" fill="#3A2516">26</text><mask id="satori_om-id-4"><rect x="460" y="90" width="560" height="58" fill="#fff" mask="url(#satori_om-id)"/></mask><g clip-path="url(#satori_cp-id)" mask="url(#satori_om-id)"><rect x="460" y="90" width="560" height="58" fill="#E54489" transform="matrix(1.00,-0.21,0.00,1.00,0.00,157.29)"/></g><mask id="satori_om-id-5"><rect x="440" y="110" width="560" height="58" fill="#fff" mask="url(#satori_om-id)"/></mask><g clip-path="url(#satori_cp-id)" mask="url(#satori_om-id)"><rect x="440" y="110" width="560" height="58" fill="#F09131" transform="matrix(1.00,-0.21,0.00,1.00,0.00,153.04)"/></g><mask id="satori_om-id-6"><rect x="452" y="132" width="650" height="58" fill="#fff" mask="url(#satori_om-id)"/></mask><g clip-path="url(#satori_cp-id)" mask="url(#satori_om-id)"><rect x="452" y="132" width="650" height="58" fill="#F0BC2A" transform="matrix(1.00,-0.21,0.00,1.00,0.00,165.16)"/></g><mask id="satori_om-id-7"><rect x="462" y="154" width="650" height="58" fill="#fff" mask="url(#satori_om-id)"/></mask><g clip-path="url(#satori_cp-id)" mask="url(#satori_om-id)"><rect x="462" y="154" width="650" height="58" fill="#3D9F47" transform="matrix(1.00,-0.21,0.00,1.00,0.00,167.28)"/></g><mask id="satori_om-id-8"><rect x="448" y="176" width="700" height="58" fill="#fff" mask="url(#satori_om-id)"/></mask><g clip-path="url(#satori_cp-id)" mask="url(#satori_om-id)"><rect x="448" y="176" width="700" height="58" fill="#3F8BC4" transform="matrix(1.00,-0.21,0.00,1.00,0.00,169.62)"/></g><mask id="satori_om-id-9"><rect x="772" y="174" width="110" height="18" fill="#fff" mask="url(#satori_om-id)"/></mask><defs><clipPath id="satori_bc-id-9-0" clip-path="url(#satori_cp-id)"><rect x="772" y="178" width="10" height="10"/></clipPath></defs><mask id="satori_om-id-9-0"><rect x="773.5" y="179.5" width="7" height="7" fill="#fff" mask="url(#satori_om-id)"/><path width="10" height="10" fill="none" stroke="#000" stroke-width="3" d="M772,178 A0,0 0 0 1 772,178 h10 a0,0 0 0 1 0,0 v10 a0,0 0 0 1 0,0 h-10 a0,0 0 0 1 0,0 v-10 A0,0 0 0 1 772,178"/></mask><rect x="772" y="178" width="10" height="10" fill="#3A2516" clip-path="url(#satori_cp-id)" mask="url(#satori_om-id)"/><path width="10" height="10" clip-path="url(#satori_bc-id-9-0)" fill="none" stroke="#3A2516" stroke-width="3" d="M772,178 A0,0 0 0 1 772,178 h10 a0,0 0 0 1 0,0 v10 a0,0 0 0 1 0,0 h-10 a0,0 0 0 1 0,0 v-10 A0,0 0 0 1 772,178"/><mask id="satori_om-id-9-1"><rect x="790" y="178" width="39" height="11" fill="#fff" mask="url(#satori_om-id)"/></mask><text x="790" y="188" width="38.7685546875" height="11" font-weight="900" font-style="normal" font-size="11" font-family="svglidelabel" clip-path="url(#satori_cp-id)" fill="#3A2516">COLOR</text><mask id="satori_om-id-10"><rect x="772" y="218" width="110" height="18" fill="#fff" mask="url(#satori_om-id)"/></mask><defs><clipPath id="satori_bc-id-10-0" clip-path="url(#satori_cp-id)"><rect x="772" y="222" width="10" height="10"/></clipPath></defs><mask id="satori_om-id-10-0"><rect x="773.5" y="223.5" width="7" height="7" fill="#fff" mask="url(#satori_om-id)"/><path width="10" height="10" fill="none" stroke="#000" stroke-width="3" d="M772,222 A0,0 0 0 1 772,222 h10 a0,0 0 0 1 0,0 v10 a0,0 0 0 1 0,0 h-10 a0,0 0 0 1 0,0 v-10 A0,0 0 0 1 772,222"/></mask><rect x="772" y="222" width="10" height="10" fill="#3A2516" clip-path="url(#satori_cp-id)" mask="url(#satori_om-id)"/><path width="10" height="10" clip-path="url(#satori_bc-id-10-0)" fill="none" stroke="#3A2516" stroke-width="3" d="M772,222 A0,0 0 0 1 772,222 h10 a0,0 0 0 1 0,0 v10 a0,0 0 0 1 0,0 h-10 a0,0 0 0 1 0,0 v-10 A0,0 0 0 1 772,222"/><mask id="satori_om-id-10-1"><rect x="790" y="222" width="31" height="11" fill="#fff" mask="url(#satori_om-id)"/></mask><text x="790" y="232" width="14.78125" height="11" font-weight="900" font-style="normal" font-size="11" font-family="svglidelabel" clip-path="url(#satori_cp-id)" fill="#3A2516">LO</text><text x="804.78125" y="232" width="4.9951171875" height="11" font-weight="900" font-style="normal" font-size="11" font-family="svglidelabel" clip-path="url(#satori_cp-id)" fill="#3A2516">-</text><text x="809.7763671875" y="232" width="10.95166015625" height="11" font-weight="900" font-style="normal" font-size="11" font-family="svglidelabel" clip-path="url(#satori_cp-id)" fill="#3A2516">FI</text><mask id="satori_om-id-11"><rect x="772" y="262" width="110" height="18" fill="#fff" mask="url(#satori_om-id)"/></mask><defs><clipPath id="satori_bc-id-11-0" clip-path="url(#satori_cp-id)"><rect x="772" y="266" width="10" height="10"/></clipPath></defs><mask id="satori_om-id-11-0"><rect x="773.5" y="267.5" width="7" height="7" fill="#fff" mask="url(#satori_om-id)"/><path width="10" height="10" fill="none" stroke="#000" stroke-width="3" d="M772,266 A0,0 0 0 1 772,266 h10 a0,0 0 0 1 0,0 v10 a0,0 0 0 1 0,0 h-10 a0,0 0 0 1 0,0 v-10 A0,0 0 0 1 772,266"/></mask><rect x="772" y="266" width="10" height="10" fill="transparent" clip-path="url(#satori_cp-id)" mask="url(#satori_om-id)"/><path width="10" height="10" clip-path="url(#satori_bc-id-11-0)" fill="none" stroke="#3A2516" stroke-width="3" d="M772,266 A0,0 0 0 1 772,266 h10 a0,0 0 0 1 0,0 v10 a0,0 0 0 1 0,0 h-10 a0,0 0 0 1 0,0 v-10 A0,0 0 0 1 772,266"/><mask id="satori_om-id-11-1"><rect x="790" y="266" width="45" height="11" fill="#fff" mask="url(#satori_om-id)"/></mask><text x="790" y="276" width="44.515625" height="11" font-weight="900" font-style="normal" font-size="11" font-family="svglidelabel" clip-path="url(#satori_cp-id)" fill="#3A2516">STEREO</text><mask id="satori_om-id-12"><rect x="772" y="306" width="110" height="18" fill="#fff" mask="url(#satori_om-id)"/></mask><defs><clipPath id="satori_bc-id-12-0" clip-path="url(#satori_cp-id)"><rect x="772" y="310" width="10" height="10"/></clipPath></defs><mask id="satori_om-id-12-0"><rect x="773.5" y="311.5" width="7" height="7" fill="#fff" mask="url(#satori_om-id)"/><path width="10" height="10" fill="none" stroke="#000" stroke-width="3" d="M772,310 A0,0 0 0 1 772,310 h10 a0,0 0 0 1 0,0 v10 a0,0 0 0 1 0,0 h-10 a0,0 0 0 1 0,0 v-10 A0,0 0 0 1 772,310"/></mask><rect x="772" y="310" width="10" height="10" fill="transparent" clip-path="url(#satori_cp-id)" mask="url(#satori_om-id)"/><path width="10" height="10" clip-path="url(#satori_bc-id-12-0)" fill="none" stroke="#3A2516" stroke-width="3" d="M772,310 A0,0 0 0 1 772,310 h10 a0,0 0 0 1 0,0 v10 a0,0 0 0 1 0,0 h-10 a0,0 0 0 1 0,0 v-10 A0,0 0 0 1 772,310"/><mask id="satori_om-id-12-1"><rect x="790" y="310" width="13" height="11" fill="#fff" mask="url(#satori_om-id)"/></mask><text x="790" y="320" width="12.75634765625" height="11" font-weight="900" font-style="normal" font-size="11" font-family="svglidelabel" clip-path="url(#satori_cp-id)" fill="#3A2516">LP</text><mask id="satori_om-id-13"><rect x="34" y="400" width="364" height="54" fill="#fff" mask="url(#satori_om-id)"/></mask><rect x="34" y="400" width="364" height="54" fill="#E54489" clip-path="url(#satori_cp-id)" mask="url(#satori_om-id)"/><text x="50" y="442" width="328.96484375" height="40" font-weight="900" font-style="normal" font-size="40" font-family="svglidedisplay" clip-path="url(#satori_cp-id)" fill="#F1E6CB">SUPERCATALOG</text><mask id="satori_om-id-14"><rect x="34" y="461" width="892" height="1" fill="#fff" mask="url(#satori_om-id)"/></mask><rect x="34" y="461" width="892" height="1" fill="#3A2516" clip-path="url(#satori_cp-id)" mask="url(#satori_om-id)"/><mask id="satori_om-id-15"><rect x="34" y="493" width="360" height="11" fill="#fff" mask="url(#satori_om-id)"/></mask><text x="34" y="501" width="8" height="10.56" font-weight="800" font-style="normal" font-size="8" font-family="svglidebody" clip-path="url(#satori_cp-id)" fill="#3A2516">限</text><text x="42" y="501" width="8" height="10.56" font-weight="800" font-style="normal" font-size="8" font-family="svglidebody" clip-path="url(#satori_cp-id)" fill="#3A2516">定</text><text x="50" y="501" width="8" height="10.56" font-weight="800" font-style="normal" font-size="8" font-family="svglidebody" clip-path="url(#satori_cp-id)" fill="#3A2516">版</text><text x="58" y="501" width="2.22265625" height="10.56" font-weight="800" font-style="normal" font-size="8" font-family="svglidebody" clip-path="url(#satori_cp-id)" fill="#3A2516"> </text><text x="60.22265625" y="501" width="20.01171875" height="10.56" font-weight="800" font-style="normal" font-size="8" font-family="svglidebody" clip-path="url(#satori_cp-id)" fill="#3A2516">made</text><text x="80.234375" y="501" width="2.22265625" height="10.56" font-weight="800" font-style="normal" font-size="8" font-family="svglidebody" clip-path="url(#satori_cp-id)" fill="#3A2516"> </text><text x="82.45703125" y="501" width="6.2265625" height="10.56" font-weight="800" font-style="normal" font-size="8" font-family="svglidebody" clip-path="url(#satori_cp-id)" fill="#3A2516">in</text><text x="88.68359375" y="501" width="2.22265625" height="10.56" font-weight="800" font-style="normal" font-size="8" font-family="svglidebody" clip-path="url(#satori_cp-id)" fill="#3A2516"> </text><text x="90.90625" y="501" width="39.5703125" height="10.56" font-weight="800" font-style="normal" font-size="8" font-family="svglidebody" clip-path="url(#satori_cp-id)" fill="#3A2516">matsumoto</text><text x="130.4765625" y="501" width="2.22265625" height="10.56" font-weight="800" font-style="normal" font-size="8" font-family="svglidebody" clip-path="url(#satori_cp-id)" fill="#3A2516"> </text><text x="132.69921875" y="501" width="13.77734375" height="10.56" font-weight="800" font-style="normal" font-size="8" font-family="svglidebody" clip-path="url(#satori_cp-id)" fill="#3A2516">N.R</text><text x="146.4765625" y="501" width="2.22265625" height="10.56" font-weight="800" font-style="normal" font-size="8" font-family="svglidebody" clip-path="url(#satori_cp-id)" fill="#3A2516">.</text><text x="148.69921875" y="501" width="2.22265625" height="10.56" font-weight="800" font-style="normal" font-size="8" font-family="svglidebody" clip-path="url(#satori_cp-id)" fill="#3A2516"> </text><text x="150.921875" y="501" width="2.22265625" height="10.56" font-weight="800" font-style="normal" font-size="8" font-family="svglidebody" clip-path="url(#satori_cp-id)" fill="#3A2516">:</text><text x="153.14453125" y="501" width="2.22265625" height="10.56" font-weight="800" font-style="normal" font-size="8" font-family="svglidebody" clip-path="url(#satori_cp-id)" fill="#3A2516"> </text><text x="155.3671875" y="501" width="4.80078125" height="10.56" font-weight="800" font-style="normal" font-size="8" font-family="svglidebody" clip-path="url(#satori_cp-id)" fill="#3A2516">■</text><text x="160.16796875" y="501" width="2.22265625" height="10.56" font-weight="800" font-style="normal" font-size="8" font-family="svglidebody" clip-path="url(#satori_cp-id)" fill="#3A2516"> </text><text x="162.390625" y="501" width="12" height="10.56" font-weight="800" font-style="normal" font-size="8" font-family="svglidebody" clip-path="url(#satori_cp-id)" fill="#3A2516">ON</text><text x="174.390625" y="501" width="2.22265625" height="10.56" font-weight="800" font-style="normal" font-size="8" font-family="svglidebody" clip-path="url(#satori_cp-id)" fill="#3A2516"> </text><text x="176.61328125" y="501" width="4.80078125" height="10.56" font-weight="800" font-style="normal" font-size="8" font-family="svglidebody" clip-path="url(#satori_cp-id)" fill="#3A2516">□</text><text x="181.4140625" y="501" width="2.22265625" height="10.56" font-weight="800" font-style="normal" font-size="8" font-family="svglidebody" clip-path="url(#satori_cp-id)" fill="#3A2516"> </text><text x="183.63671875" y="501" width="15.99609375" height="10.56" font-weight="800" font-style="normal" font-size="8" font-family="svglidebody" clip-path="url(#satori_cp-id)" fill="#3A2516">OFF</text><mask id="satori_om-id-16"><rect x="794" y="490" width="60" height="26" fill="#fff" mask="url(#satori_om-id)"/></mask><rect x="794" y="490" width="60" height="26" fill="#E5392A" clip-path="url(#satori_cp-id)" mask="url(#satori_om-id)"/><mask id="satori_om-id-16-0"><rect x="800" y="495" width="49" height="16" fill="#fff" mask="url(#satori_om-id)"/></mask><text x="802.04384765625" y="502" width="9.7303125" height="7.700000000000001" font-weight="900" font-style="normal" font-size="7" font-family="svglidelabel" letter-spacing="0.08" clip-path="url(#satori_cp-id)" fill="#F1E6CB">AS</text><text x="811.77416015625" y="502" width="2.5409375" height="7.700000000000001" font-weight="900" font-style="normal" font-size="7" font-family="svglidelabel" letter-spacing="0.08" clip-path="url(#satori_cp-id)" fill="#F1E6CB"> </text><text x="814.31509765625" y="502" width="19.1940234375" height="7.700000000000001" font-weight="900" font-style="normal" font-size="7" font-family="svglidelabel" letter-spacing="0.08" clip-path="url(#satori_cp-id)" fill="#F1E6CB">SEEN</text><text x="833.50912109375" y="502" width="2.5409375" height="7.700000000000001" font-weight="900" font-style="normal" font-size="7" font-family="svglidelabel" letter-spacing="0.08" clip-path="url(#satori_cp-id)" fill="#F1E6CB"> </text><text x="836.05005859375" y="502" width="10.90609375" height="7.700000000000001" font-weight="900" font-style="normal" font-size="7" font-family="svglidelabel" letter-spacing="0.08" clip-path="url(#satori_cp-id)" fill="#F1E6CB">ON</text><text x="846.95615234375" y="502" width="3.58" height="7.700000000000001" font-weight="900" font-style="normal" font-size="7" font-family="svglidelabel" letter-spacing="0.08" clip-path="url(#satori_cp-id)" fill="#F1E6CB">
</text><text x="819.54939453125" y="510" width="9.9012109375" height="7.700000000000001" font-weight="900" font-style="normal" font-size="7" font-family="svglidelabel" letter-spacing="0.08" clip-path="url(#satori_cp-id)" fill="#F1E6CB">TG</text><mask id="satori_om-id-17"><rect x="870" y="521" width="70" height="7" fill="#fff" mask="url(#satori_om-id)"/></mask><text x="870" y="527" width="7.341796875" height="6.6499999999999995" font-weight="900" font-style="normal" font-size="7" font-family="svglidemetric" clip-path="url(#satori_cp-id)" fill="#3A2516">01</text><text x="877.341796875" y="527" width="2.10888671875" height="6.6499999999999995" font-weight="900" font-style="normal" font-size="7" font-family="svglidemetric" clip-path="url(#satori_cp-id)" fill="#3A2516"> </text><text x="879.45068359375" y="527" width="3.6708984375" height="6.6499999999999995" font-weight="900" font-style="normal" font-size="7" font-family="svglidemetric" clip-path="url(#satori_cp-id)" fill="#3A2516">/</text><text x="883.12158203125" y="527" width="2.10888671875" height="6.6499999999999995" font-weight="900" font-style="normal" font-size="7" font-family="svglidemetric" clip-path="url(#satori_cp-id)" fill="#3A2516"> </text><text x="885.23046875" y="527" width="7.341796875" height="6.6499999999999995" font-weight="900" font-style="normal" font-size="7" font-family="svglidemetric" clip-path="url(#satori_cp-id)" fill="#3A2516">08</text></svg>