<svg width="960" height="540" viewBox="0 0 960 540" xmlns="http://www.w3.org/2000/svg"><clipPath id="satori_cp-id"><rect x="0" y="0" width="960" height="540"/></clipPath><mask id="satori_om-id"><rect x="0" y="0" width="960" height="540" fill="#fff"/></mask><rect x="0" y="0" width="960" height="540" fill="#C9BDA2"/><mask id="satori_om-id-0"><rect x="372" y="146" width="100" height="13" fill="#fff" mask="url(#satori_om-id)"/></mask><text x="372" y="157" width="40.27890625" height="12.600000000000001" font-weight="800" font-style="normal" font-size="12" font-family="svglidelabel" letter-spacing="0.08" clip-path="url(#satori_cp-id)" fill="#00A66A">SMALL</text><text x="412.27890625" y="157" width="4.29875" height="12.600000000000001" font-weight="800" font-style="normal" font-size="12" font-family="svglidelabel" letter-spacing="0.08" clip-path="url(#satori_cp-id)" fill="#00A66A"> </text><text x="416.57765625" y="157" width="54.788515624999995" height="12.600000000000001" font-weight="800" font-style="normal" font-size="12" font-family="svglidelabel" letter-spacing="0.08" clip-path="url(#satori_cp-id)" fill="#00A66A">STORIES</text><mask id="satori_om-id-1"><rect x="354" y="170" width="250" height="158" fill="#fff" mask="url(#satori_om-id)"/></mask><text x="442.40625" y="245" width="303.1875" height="79.2" font-weight="900" font-style="normal" font-size="88" font-family="svglidedisplay" clip-path="url(#satori_cp-id)" fill="#00A66A">NEXUS</text><text x="745.59375" y="245" width="24.44921875" height="79.2" font-weight="900" font-style="normal" font-size="88" font-family="svglidedisplay" clip-path="url(#satori_cp-id)" fill="#00A66A"> </text><text x="354.40625" y="324" width="479.1875" height="79.2" font-weight="900" font-style="normal" font-size="88" font-family="svglidedisplay" clip-path="url(#satori_cp-id)" fill="#00A66A">VENTURES</text><mask id="satori_om-id-2"><rect x="438" y="296" width="52" height="52" fill="#fff" mask="url(#satori_om-id)"/></mask><path x="438" y="296" width="52" height="52" fill="#202020" d="M464,296 h0 a26,26 0 0 1 26,26 v0 a26,26 0 0 1 -26,26 h0 a26,26 0 0 1 -26,-26 v0 a26,26 0 0 1 26,-26" clip-path="url(#satori_cp-id)" mask="url(#satori_om-id)"/><mask id="satori_om-id-2-0"><rect x="452" y="310" width="24" height="24" fill="#fff" mask="url(#satori_om-id)"/></mask><path x="452" y="310" width="24" height="24" fill="#F4F0E5" d="M464,310 h0 a12,12 0 0 1 12,12 v0 a12,12 0 0 1 -12,12 h0 a12,12 0 0 1 -12,-12 v0 a12,12 0 0 1 12,-12" clip-path="url(#satori_cp-id)" mask="url(#satori_om-id)"/><mask id="satori_om-id-3"><rect x="338" y="345" width="120" height="26" fill="#fff" mask="url(#satori_om-id)"/></mask><text x="338" y="366" width="53.349609375" height="26.400000000000002" font-weight="600" font-style="normal" font-size="20" font-family="svglidebody" clip-path="url(#satori_cp-id)" fill="#202020">Never</text><text x="391.349609375" y="366" width="5.556640625" height="26.400000000000002" font-weight="600" font-style="normal" font-size="20" font-family="svglidebody" clip-path="url(#satori_cp-id)" fill="#202020"> </text><text x="396.90625" y="366" width="48.935546875" height="26.400000000000002" font-weight="600" font-style="normal" font-size="20" font-family="svglidebody" clip-path="url(#satori_cp-id)" fill="#202020">again</text><mask id="satori_om-id-4"><rect x="498" y="345" width="128" height="52" fill="#fff" mask="url(#satori_om-id)"/></mask><text x="498" y="366" width="63.349609375" height="26.400000000000002" font-weight="600" font-style="normal" font-size="20" font-family="svglidebody" clip-path="url(#satori_cp-id)" fill="#202020">Always</text><text x="561.349609375" y="366" width="5.556640625" height="26.400000000000002" font-weight="600" font-style="normal" font-size="20" font-family="svglidebody" clip-path="url(#satori_cp-id)" fill="#202020"> </text><text x="498" y="392" width="91.1328125" height="26.400000000000002" font-weight="600" font-style="normal" font-size="20" font-family="svglidebody" clip-path="url(#satori_cp-id)" fill="#202020">remember</text><mask id="satori_om-id-5"><rect x="452" y="382" width="118" height="53" fill="#fff" mask="url(#satori_om-id)"/></mask><text x="452" y="429" width="117.46875" height="53.199999999999996" font-weight="900" font-style="normal" font-size="56" font-family="svglidemetric" clip-path="url(#satori_cp-id)" fill="#00A66A">2026</text><mask id="satori_om-id-6"><rect x="394" y="356" width="170" height="26" fill="#fff" mask="url(#satori_om-id)"/></mask><text x="406.351328125" y="367" width="41.09921875" height="12.600000000000001" font-weight="700" font-style="normal" font-size="12" font-family="svglidelabel" letter-spacing="0.08" clip-path="url(#satori_cp-id)" fill="#202020">NEVER</text><text x="447.450546875" y="367" width="4.29875" height="12.600000000000001" font-weight="700" font-style="normal" font-size="12" font-family="svglidelabel" letter-spacing="0.08" clip-path="url(#satori_cp-id)" fill="#202020"> </text><text x="451.749296875" y="367" width="40.13828125" height="12.600000000000001" font-weight="700" font-style="normal" font-size="12" font-family="svglidelabel" letter-spacing="0.08" clip-path="url(#satori_cp-id)" fill="#202020">AGAIN</text><text x="491.887578125" y="367" width="4.445234375" height="12.600000000000001" font-weight="700" font-style="normal" font-size="12" font-family="svglidelabel" letter-spacing="0.08" clip-path="url(#satori_cp-id)" fill="#202020">.</text><text x="496.3328125" y="367" width="4.29875" height="12.600000000000001" font-weight="700" font-style="normal" font-size="12" font-family="svglidelabel" letter-spacing="0.08" clip-path="url(#satori_cp-id)" fill="#202020"> </text><text x="500.6315625" y="367" width="51.017109375" height="12.600000000000001" font-weight="700" font-style="normal" font-size="12" font-family="svglidelabel" letter-spacing="0.08" clip-path="url(#satori_cp-id)" fill="#202020">ALWAYS</text><text x="551.648671875" y="367" width="4.29875" height="12.600000000000001" font-weight="700" font-style="normal" font-size="12" font-family="svglidelabel" letter-spacing="0.08" clip-path="url(#satori_cp-id)" fill="#202020"> </text><text x="442.505234375" y="380" width="68.544296875" height="12.600000000000001" font-weight="700" font-style="normal" font-size="12" font-family="svglidelabel" letter-spacing="0.08" clip-path="url(#satori_cp-id)" fill="#202020">REMEMBER</text><text x="511.04953125" y="380" width="4.445234375" height="12.600000000000001" font-weight="700" font-style="normal" font-size="12" font-family="svglidelabel" letter-spacing="0.08" clip-path="url(#satori_cp-id)" fill="#202020">.</text></svg>