<svg width="960" height="540" viewBox="0 0 960 540" xmlns="http://www.w3.org/2000/svg"><clipPath id="satori_cp-id"><rect x="0" y="0" width="960" height="540"/></clipPath><mask id="satori_om-id"><rect x="0" y="0" width="960" height="540" fill="#fff"/></mask><rect x="0" y="0" width="960" height="540" fill="#8B8B87"/><defs><clipPath id="satori_bc-id-0" clip-path="url(#satori_cp-id)"><rect x="338" y="12" width="326" height="472"/></clipPath></defs><mask id="satori_om-id-0"><rect x="340" y="14" width="322" height="468" fill="#fff" mask="url(#satori_om-id)"/><path width="326" height="472" fill="none" stroke="#000" stroke-width="4" d="M338,12 A0,0 0 0 1 338,12 h326 a0,0 0 0 1 0,0 v472 a0,0 0 0 1 0,0 h-326 a0,0 0 0 1 0,0 v-472 A0,0 0 0 1 338,12"/></mask><rect x="338" y="12" width="326" height="472" fill="#D8D4C7" clip-path="url(#satori_cp-id)" mask="url(#satori_om-id)"/><path width="326" height="472" clip-path="url(#satori_bc-id-0)" fill="none" stroke="#202020" stroke-width="4" d="M338,12 A0,0 0 0 1 338,12 h326 a0,0 0 0 1 0,0 v472 a0,0 0 0 1 0,0 h-326 a0,0 0 0 1 0,0 v-472 A0,0 0 0 1 338,12"/><mask id="satori_om-id-0-0"><rect x="340" y="14" width="322" height="18" fill="#fff" mask="url(#satori_om-id)"/></mask><rect x="340" y="14" width="322" height="18" fill="#1100A8" clip-path="url(#satori_cp-id)" mask="url(#satori_om-id)"/><mask id="satori_om-id-0-0-0"><rect x="348" y="17" width="124" height="13" fill="#fff" mask="url(#satori_om-id)"/></mask><text x="348" y="28" width="123.44210937499999" height="12.600000000000001" font-weight="700" font-style="normal" font-size="12" font-family="svglidelabel" letter-spacing="0.08" clip-path="url(#satori_cp-id)" fill="#FFFFFF">PRESENTATION.EXE</text><mask id="satori_om-id-0-1"><rect x="340" y="32" width="322" height="450" fill="#fff" mask="url(#satori_om-id)"/></mask><mask id="satori_om-id-0-1-0"><rect x="484" y="60" width="35" height="40" fill="#fff" mask="url(#satori_om-id)"/></mask><text x="484" y="97" width="34.2685546875" height="39.9" font-weight="900" font-style="normal" font-size="42" font-family="svglidemetric" clip-path="url(#satori_cp-id)" fill="#202020">★</text><mask id="satori_om-id-0-1-1"><rect x="328" y="138" width="346" height="98" fill="#fff" mask="url(#satori_om-id)"/></mask><text x="328" y="184" width="330.064453125" height="48.6" font-weight="900" font-style="normal" font-size="54" font-family="svglidedisplay" clip-path="url(#satori_cp-id)" fill="#1100A8">QUARTERLY</text><text x="658.064453125" y="184" width="15.0029296875" height="48.6" font-weight="900" font-style="normal" font-size="54" font-family="svglidedisplay" clip-path="url(#satori_cp-id)" fill="#1100A8"> </text><text x="328" y="233" width="291.041015625" height="48.6" font-weight="900" font-style="normal" font-size="54" font-family="svglidedisplay" clip-path="url(#satori_cp-id)" fill="#1100A8">OVERVIEW</text><mask id="satori_om-id-0-1-2"><rect x="391" y="248" width="220" height="104" fill="#fff" mask="url(#satori_om-id)"/></mask><text x="403.1826171875" y="269" width="13.33984375" height="26.400000000000002" font-weight="400" font-style="normal" font-size="20" font-family="svglidebody" clip-path="url(#satori_cp-id)" fill="#202020">A</text><text x="416.5224609375" y="269" width="5.556640625" height="26.400000000000002" font-weight="400" font-style="normal" font-size="20" font-family="svglidebody" clip-path="url(#satori_cp-id)" fill="#202020"> </text><text x="422.0791015625" y="269" width="75.5859375" height="26.400000000000002" font-weight="400" font-style="normal" font-size="20" font-family="svglidebody" clip-path="url(#satori_cp-id)" fill="#202020">compact</text><text x="497.6650390625" y="269" width="5.556640625" height="26.400000000000002" font-weight="400" font-style="normal" font-size="20" font-family="svglidebody" clip-path="url(#satori_cp-id)" fill="#202020"> </text><text x="503.2216796875" y="269" width="66.69921875" height="26.400000000000002" font-weight="400" font-style="normal" font-size="20" font-family="svglidebody" clip-path="url(#satori_cp-id)" fill="#202020">window</text><text x="569.9208984375" y="269" width="5.556640625" height="26.400000000000002" font-weight="400" font-style="normal" font-size="20" font-family="svglidebody" clip-path="url(#satori_cp-id)" fill="#202020"> </text><text x="575.4775390625" y="269" width="23.33984375" height="26.400000000000002" font-weight="400" font-style="normal" font-size="20" font-family="svglidebody" clip-path="url(#satori_cp-id)" fill="#202020">for</text><text x="598.8173828125" y="269" width="5.556640625" height="26.400000000000002" font-weight="400" font-style="normal" font-size="20" font-family="svglidebody" clip-path="url(#satori_cp-id)" fill="#202020"> </text><text x="435.9658203125" y="295" width="53.359375" height="26.400000000000002" font-weight="400" font-style="normal" font-size="20" font-family="svglidebody" clip-path="url(#satori_cp-id)" fill="#202020">status</text><text x="489.3251953125" y="295" width="5.556640625" height="26.400000000000002" font-weight="400" font-style="normal" font-size="20" font-family="svglidebody" clip-path="url(#satori_cp-id)" fill="#202020">,</text><text x="494.8818359375" y="295" width="5.556640625" height="26.400000000000002" font-weight="400" font-style="normal" font-size="20" font-family="svglidebody" clip-path="url(#satori_cp-id)" fill="#202020"> </text><text x="500.4384765625" y="295" width="65.595703125" height="26.400000000000002" font-weight="400" font-style="normal" font-size="20" font-family="svglidebody" clip-path="url(#satori_cp-id)" fill="#202020">release</text><text x="566.0341796875" y="295" width="5.556640625" height="26.400000000000002" font-weight="400" font-style="normal" font-size="20" font-family="svglidebody" clip-path="url(#satori_cp-id)" fill="#202020"> </text><text x="405.384765625" y="321" width="86.71875" height="26.400000000000002" font-weight="400" font-style="normal" font-size="20" font-family="svglidebody" clip-path="url(#satori_cp-id)" fill="#202020">readiness</text><text x="492.103515625" y="321" width="5.556640625" height="26.400000000000002" font-weight="400" font-style="normal" font-size="20" font-family="svglidebody" clip-path="url(#satori_cp-id)" fill="#202020">,</text><text x="497.66015625" y="321" width="5.556640625" height="26.400000000000002" font-weight="400" font-style="normal" font-size="20" font-family="svglidebody" clip-path="url(#satori_cp-id)" fill="#202020"> </text><text x="503.216796875" y="321" width="33.369140625" height="26.400000000000002" font-weight="400" font-style="normal" font-size="20" font-family="svglidebody" clip-path="url(#satori_cp-id)" fill="#202020">and</text><text x="536.5859375" y="321" width="5.556640625" height="26.400000000000002" font-weight="400" font-style="normal" font-size="20" font-family="svglidebody" clip-path="url(#satori_cp-id)" fill="#202020"> </text><text x="542.142578125" y="321" width="54.47265625" height="26.400000000000002" font-weight="400" font-style="normal" font-size="20" font-family="svglidebody" clip-path="url(#satori_cp-id)" fill="#202020">owner</text><text x="596.615234375" y="321" width="5.556640625" height="26.400000000000002" font-weight="400" font-style="normal" font-size="20" font-family="svglidebody" clip-path="url(#satori_cp-id)" fill="#202020"> </text><text x="469.3251953125" y="347" width="57.79296875" height="26.400000000000002" font-weight="400" font-style="normal" font-size="20" font-family="svglidebody" clip-path="url(#satori_cp-id)" fill="#202020">review</text><text x="527.1181640625" y="347" width="5.556640625" height="26.400000000000002" font-weight="400" font-style="normal" font-size="20" font-family="svglidebody" clip-path="url(#satori_cp-id)" fill="#202020">.</text><defs><clipPath id="satori_bc-id-0-1-3" clip-path="url(#satori_cp-id)"><rect x="398" y="370" width="206" height="23"/></clipPath></defs><mask id="satori_om-id-0-1-3"><rect x="399" y="371" width="204" height="21" fill="#fff" mask="url(#satori_om-id)"/><path width="206" height="23" fill="none" stroke="#000" stroke-width="2" d="M398,370 A0,0 0 0 1 398,370 h206 a0,0 0 0 1 0,0 v23 a0,0 0 0 1 0,0 h-206 a0,0 0 0 1 0,0 v-23 A0,0 0 0 1 398,370"/></mask><rect x="398" y="370" width="206" height="23" fill="#F4F1E8" clip-path="url(#satori_cp-id)" mask="url(#satori_om-id)"/><path width="206" height="23" clip-path="url(#satori_bc-id-0-1-3)" fill="none" stroke="#202020" stroke-width="2" d="M398,370 A0,0 0 0 1 398,370 h206 a0,0 0 0 1 0,0 v23 a0,0 0 0 1 0,0 h-206 a0,0 0 0 1 0,0 v-23 A0,0 0 0 1 398,370"/><text x="405" y="386" width="38.386328125" height="12.600000000000001" font-weight="600" font-style="normal" font-size="12" font-family="svglidelabel" letter-spacing="0.08" clip-path="url(#satori_cp-id)" fill="#202020">BUILD</text><text x="443.386328125" y="386" width="4.29875" height="12.600000000000001" font-weight="600" font-style="normal" font-size="12" font-family="svglidelabel" letter-spacing="0.08" clip-path="url(#satori_cp-id)" fill="#202020"> </text><text x="447.685078125" y="386" width="48.661640625" height="12.600000000000001" font-weight="600" font-style="normal" font-size="12" font-family="svglidelabel" letter-spacing="0.08" clip-path="url(#satori_cp-id)" fill="#202020">STATUS</text><text x="496.34671875" y="386" width="5.52921875" height="12.600000000000001" font-weight="600" font-style="normal" font-size="12" font-family="svglidelabel" letter-spacing="0.08" clip-path="url(#satori_cp-id)" fill="#202020">:</text><text x="501.87593749999996" y="386" width="4.29875" height="12.600000000000001" font-weight="600" font-style="normal" font-size="12" font-family="svglidelabel" letter-spacing="0.08" clip-path="url(#satori_cp-id)" fill="#202020"> </text><text x="506.1746875" y="386" width="17.919765625" height="12.600000000000001" font-weight="600" font-style="normal" font-size="12" font-family="svglidelabel" letter-spacing="0.08" clip-path="url(#satori_cp-id)" fill="#202020">OK</text><defs><clipPath id="satori_bc-id-0-1-4" clip-path="url(#satori_cp-id)"><rect x="398" y="398" width="206" height="23"/></clipPath></defs><mask id="satori_om-id-0-1-4"><rect x="399" y="399" width="204" height="21" fill="#fff" mask="url(#satori_om-id)"/><path width="206" height="23" fill="none" stroke="#000" stroke-width="2" d="M398,398 A0,0 0 0 1 398,398 h206 a0,0 0 0 1 0,0 v23 a0,0 0 0 1 0,0 h-206 a0,0 0 0 1 0,0 v-23 A0,0 0 0 1 398,398"/></mask><rect x="398" y="398" width="206" height="23" fill="#F4F1E8" clip-path="url(#satori_cp-id)" mask="url(#satori_om-id)"/><path width="206" height="23" clip-path="url(#satori_bc-id-0-1-4)" fill="none" stroke="#202020" stroke-width="2" d="M398,398 A0,0 0 0 1 398,398 h206 a0,0 0 0 1 0,0 v23 a0,0 0 0 1 0,0 h-206 a0,0 0 0 1 0,0 v-23 A0,0 0 0 1 398,398"/><text x="405" y="414" width="33.56609375" height="12.600000000000001" font-weight="600" font-style="normal" font-size="12" font-family="svglidelabel" letter-spacing="0.08" clip-path="url(#satori_cp-id)" fill="#202020">OPEN</text><text x="438.56609375" y="414" width="4.29875" height="12.600000000000001" font-weight="600" font-style="normal" font-size="12" font-family="svglidelabel" letter-spacing="0.08" clip-path="url(#satori_cp-id)" fill="#202020"> </text><text x="442.86484375" y="414" width="46.51125" height="12.600000000000001" font-weight="600" font-style="normal" font-size="12" font-family="svglidelabel" letter-spacing="0.08" clip-path="url(#satori_cp-id)" fill="#202020">ISSUES</text><text x="489.37609375" y="414" width="5.52921875" height="12.600000000000001" font-weight="600" font-style="normal" font-size="12" font-family="svglidelabel" letter-spacing="0.08" clip-path="url(#satori_cp-id)" fill="#202020">:</text><text x="494.9053125" y="414" width="4.29875" height="12.600000000000001" font-weight="600" font-style="normal" font-size="12" font-family="svglidelabel" letter-spacing="0.08" clip-path="url(#satori_cp-id)" fill="#202020"> </text><text x="499.20406249999996" y="414" width="15.4178125" height="12.600000000000001" font-weight="600" font-style="normal" font-size="12" font-family="svglidelabel" letter-spacing="0.08" clip-path="url(#satori_cp-id)" fill="#202020">12</text><defs><clipPath id="satori_bc-id-0-1-5" clip-path="url(#satori_cp-id)"><rect x="398" y="426" width="206" height="23"/></clipPath></defs><mask id="satori_om-id-0-1-5"><rect x="399" y="427" width="204" height="21" fill="#fff" mask="url(#satori_om-id)"/><path width="206" height="23" fill="none" stroke="#000" stroke-width="2" d="M398,426 A0,0 0 0 1 398,426 h206 a0,0 0 0 1 0,0 v23 a0,0 0 0 1 0,0 h-206 a0,0 0 0 1 0,0 v-23 A0,0 0 0 1 398,426"/></mask><rect x="398" y="426" width="206" height="23" fill="#F4F1E8" clip-path="url(#satori_cp-id)" mask="url(#satori_om-id)"/><path width="206" height="23" clip-path="url(#satori_bc-id-0-1-5)" fill="none" stroke="#202020" stroke-width="2" d="M398,426 A0,0 0 0 1 398,426 h206 a0,0 0 0 1 0,0 v23 a0,0 0 0 1 0,0 h-206 a0,0 0 0 1 0,0 v-23 A0,0 0 0 1 398,426"/><text x="405" y="442" width="46.61875" height="12.600000000000001" font-weight="600" font-style="normal" font-size="12" font-family="svglidelabel" letter-spacing="0.08" clip-path="url(#satori_cp-id)" fill="#202020">OWNER</text><text x="451.61875" y="442" width="5.52921875" height="12.600000000000001" font-weight="600" font-style="normal" font-size="12" font-family="svglidelabel" letter-spacing="0.08" clip-path="url(#satori_cp-id)" fill="#202020">:</text><text x="457.14796875" y="442" width="4.29875" height="12.600000000000001" font-weight="600" font-style="normal" font-size="12" font-family="svglidelabel" letter-spacing="0.08" clip-path="url(#satori_cp-id)" fill="#202020"> </text><text x="461.44671875" y="442" width="64.9525" height="12.600000000000001" font-weight="600" font-style="normal" font-size="12" font-family="svglidelabel" letter-spacing="0.08" clip-path="url(#satori_cp-id)" fill="#202020">PLATFORM</text><mask id="satori_om-id-1"><rect x="820" y="485" width="122" height="40" fill="#fff" mask="url(#satori_om-id)"/></mask><text x="820" y="520" width="121.4267578125" height="39.9" font-weight="900" font-style="normal" font-size="42" font-family="svglidemetric" clip-path="url(#satori_cp-id)" fill="#FFFFFF">READY</text></svg>