<svg width="960" height="540" viewBox="0 0 960 540" xmlns="http://www.w3.org/2000/svg"><clipPath id="satori_cp-id"><rect x="0" y="0" width="960" height="540"/></clipPath><mask id="satori_om-id"><rect x="0" y="0" width="960" height="540" fill="#fff"/></mask><rect x="0" y="0" width="960" height="540" fill="#244A2E"/><mask id="satori_om-id-0"><rect x="66" y="39" width="176" height="13" fill="#fff" mask="url(#satori_om-id)"/></mask><text x="66" y="50" width="8.283125" height="12.600000000000001" font-weight="700" font-style="normal" font-size="12" font-family="svglidelabel" letter-spacing="0.08" clip-path="url(#satori_cp-id)" fill="#E7D8BE">A</text><text x="74.283125" y="50" width="4.29875" height="12.600000000000001" font-weight="700" font-style="normal" font-size="12" font-family="svglidelabel" letter-spacing="0.08" clip-path="url(#satori_cp-id)" fill="#E7D8BE"> </text><text x="78.581875" y="50" width="95.360390625" height="12.600000000000001" font-weight="700" font-style="normal" font-size="12" font-family="svglidelabel" letter-spacing="0.08" clip-path="url(#satori_cp-id)" fill="#E7D8BE">PRESENTATION</text><text x="173.942265625" y="50" width="4.29875" height="12.600000000000001" font-weight="700" font-style="normal" font-size="12" font-family="svglidelabel" letter-spacing="0.08" clip-path="url(#satori_cp-id)" fill="#E7D8BE"> </text><text x="178.241015625" y="50" width="62.83726562499999" height="12.600000000000001" font-weight="700" font-style="normal" font-size="12" font-family="svglidelabel" letter-spacing="0.08" clip-path="url(#satori_cp-id)" fill="#E7D8BE">TEMPLATE</text><defs><clipPath id="satori_bc-id-1" clip-path="url(#satori_cp-id)"><path x="830" y="34" width="34" height="34" d="M847,34 h0 a17,17 0 0 1 17,17 v0 a17,17 0 0 1 -17,17 h0 a17,17 0 0 1 -17,-17 v0 a17,17 0 0 1 17,-17"/></clipPath></defs><mask id="satori_om-id-1"><rect x="831" y="35" width="32" height="32" fill="#fff" mask="url(#satori_om-id)"/><path width="34" height="34" fill="none" stroke="#000" stroke-width="2" d="M834.979,38.979 A17,17 0 0 1 847,34 h0 a17,17 0 0 1 17,17 v0 a17,17 0 0 1 -17,17 h0 a17,17 0 0 1 -17,-17 v0 A17,17 0 0 1 834.979,38.979"/></mask><path width="34" height="34" clip-path="url(#satori_bc-id-1)" fill="none" stroke="#ECA0B5" stroke-width="2" d="M834.979,38.979 A17,17 0 0 1 847,34 h0 a17,17 0 0 1 17,17 v0 a17,17 0 0 1 -17,17 h0 a17,17 0 0 1 -17,-17 v0 A17,17 0 0 1 834.979,38.979"/><mask id="satori_om-id-1-0"><rect x="831" y="31" width="32" height="40" fill="#fff" mask="url(#satori_om-id)"/></mask><text x="831" y="66" width="44.05078125" height="39.9" font-weight="400" font-style="normal" font-size="42" font-family="svglidemetric" clip-path="url(#satori_cp-id)" fill="#E7D8BE">01</text><mask id="satori_om-id-2"><rect x="70" y="116" width="386" height="147" fill="#fff" mask="url(#satori_om-id)"/></mask><text x="70" y="162" width="325.564453125" height="48.6" font-weight="400" font-style="normal" font-size="54" font-family="svglidedisplay" letter-spacing="-0.5" clip-path="url(#satori_cp-id)" fill="#ECA0B5">QUARTERLY</text><text x="395.564453125" y="162" width="26.5" height="48.6" font-weight="400" font-style="normal" font-size="54" font-family="svglidedisplay" letter-spacing="-0.5" clip-path="url(#satori_cp-id)" fill="#ECA0B5">
</text><text x="70" y="211" width="210.0205078125" height="48.6" font-weight="400" font-style="normal" font-size="54" font-family="svglidedisplay" letter-spacing="-0.5" clip-path="url(#satori_cp-id)" fill="#ECA0B5">REVIEW</text><text x="280.0205078125" y="211" width="26.5" height="48.6" font-weight="400" font-style="normal" font-size="54" font-family="svglidedisplay" letter-spacing="-0.5" clip-path="url(#satori_cp-id)" fill="#ECA0B5">
</text><text x="70" y="260" width="118.12890625" height="48.6" font-weight="400" font-style="normal" font-size="54" font-family="svglidedisplay" letter-spacing="-0.5" clip-path="url(#satori_cp-id)" fill="#ECA0B5">2026</text><mask id="satori_om-id-3"><rect x="70" y="455" width="143" height="13" fill="#fff" mask="url(#satori_om-id)"/></mask><text x="70" y="466" width="48.603046875" height="12.600000000000001" font-weight="700" font-style="normal" font-size="12" font-family="svglidelabel" letter-spacing="0.08" clip-path="url(#satori_cp-id)" fill="#ECA0B5">STUDIO</text><text x="118.60304687499999" y="466" width="4.29875" height="12.600000000000001" font-weight="700" font-style="normal" font-size="12" font-family="svglidelabel" letter-spacing="0.08" clip-path="url(#satori_cp-id)" fill="#ECA0B5"> </text><text x="122.901796875" y="466" width="89.28625" height="12.600000000000001" font-weight="700" font-style="normal" font-size="12" font-family="svglidelabel" letter-spacing="0.08" clip-path="url(#satori_cp-id)" fill="#ECA0B5">PLACEHOLDER</text><mask id="satori_om-id-4"><rect x="501" y="442" width="373" height="26" fill="#fff" mask="url(#satori_om-id)"/></mask><text x="501" y="463" width="122.24609375" height="26.400000000000002" font-weight="700" font-style="normal" font-size="20" font-family="svglidebody" clip-path="url(#satori_cp-id)" fill="#ECA0B5">PRESENTED</text><text x="623.24609375" y="463" width="5.556640625" height="26.400000000000002" font-weight="700" font-style="normal" font-size="20" font-family="svglidebody" clip-path="url(#satori_cp-id)" fill="#ECA0B5"> </text><text x="628.802734375" y="463" width="26.6796875" height="26.400000000000002" font-weight="700" font-style="normal" font-size="20" font-family="svglidebody" clip-path="url(#satori_cp-id)" fill="#ECA0B5">BY</text><text x="655.482421875" y="463" width="5.556640625" height="26.400000000000002" font-weight="700" font-style="normal" font-size="20" font-family="svglidebody" clip-path="url(#satori_cp-id)" fill="#ECA0B5"> </text><text x="661.0390625" y="463" width="57.783203125" height="26.400000000000002" font-weight="700" font-style="normal" font-size="20" font-family="svglidebody" clip-path="url(#satori_cp-id)" fill="#ECA0B5">NAME</text><text x="718.822265625" y="463" width="5.556640625" height="26.400000000000002" font-weight="700" font-style="normal" font-size="20" font-family="svglidebody" clip-path="url(#satori_cp-id)" fill="#ECA0B5"> </text><text x="724.37890625" y="463" width="148.935546875" height="26.400000000000002" font-weight="700" font-style="normal" font-size="20" font-family="svglidebody" clip-path="url(#satori_cp-id)" fill="#ECA0B5">PLACEHOLDER</text><mask id="satori_om-id-5"><rect x="69" y="484" width="160" height="1" fill="#fff" mask="url(#satori_om-id)"/></mask><g opacity="0.55"><rect x="69" y="484" width="160" height="1" fill="#ECA0B5" clip-path="url(#satori_cp-id)" mask="url(#satori_om-id)"/></g><mask id="satori_om-id-6"><rect x="717" y="484" width="160" height="1" fill="#fff" mask="url(#satori_om-id)"/></mask><g opacity="0.55"><rect x="717" y="484" width="160" height="1" fill="#ECA0B5" clip-path="url(#satori_cp-id)" mask="url(#satori_om-id)"/></g></svg>