<svg width="960" height="540" viewBox="0 0 960 540" xmlns="http://www.w3.org/2000/svg"><clipPath id="satori_cp-id"><rect x="0" y="0" width="960" height="540"/></clipPath><mask id="satori_om-id"><rect x="0" y="0" width="960" height="540" fill="#fff"/></mask><rect x="0" y="0" width="960" height="540" fill="#EDE6D1"/><mask id="satori_om-id-0"><rect x="430" y="34" width="200" height="13" fill="#fff" mask="url(#satori_om-id)"/></mask><text x="430" y="45" width="50.313984375" height="12.600000000000001" font-weight="900" font-style="normal" font-size="12" font-family="svglidelabel" letter-spacing="0.08" clip-path="url(#satori_cp-id)" fill="#141414">AGENCY</text><text x="480.313984375" y="45" width="4.29875" height="12.600000000000001" font-weight="900" font-style="normal" font-size="12" font-family="svglidelabel" letter-spacing="0.08" clip-path="url(#satori_cp-id)" fill="#141414"> </text><text x="484.612734375" y="45" width="35.200859375" height="12.600000000000001" font-weight="900" font-style="normal" font-size="12" font-family="svglidelabel" letter-spacing="0.08" clip-path="url(#satori_cp-id)" fill="#141414">NAME</text><text x="519.81359375" y="45" width="4.29875" height="12.600000000000001" font-weight="900" font-style="normal" font-size="12" font-family="svglidelabel" letter-spacing="0.08" clip-path="url(#satori_cp-id)" fill="#141414"> </text><text x="524.11234375" y="45" width="4.445234375" height="12.600000000000001" font-weight="900" font-style="normal" font-size="12" font-family="svglidelabel" letter-spacing="0.08" clip-path="url(#satori_cp-id)" fill="#141414">·</text><text x="528.557578125" y="45" width="4.29875" height="12.600000000000001" font-weight="900" font-style="normal" font-size="12" font-family="svglidelabel" letter-spacing="0.08" clip-path="url(#satori_cp-id)" fill="#141414"> </text><text x="532.856328125" y="45" width="56.645937499999995" height="12.600000000000001" font-weight="900" font-style="normal" font-size="12" font-family="svglidelabel" letter-spacing="0.08" clip-path="url(#satori_cp-id)" fill="#141414">PARTNER</text><text x="589.5022656250001" y="45" width="4.29875" height="12.600000000000001" font-weight="900" font-style="normal" font-size="12" font-family="svglidelabel" letter-spacing="0.08" clip-path="url(#satori_cp-id)" fill="#141414"> </text><text x="593.801015625" y="45" width="35.200859375" height="12.600000000000001" font-weight="900" font-style="normal" font-size="12" font-family="svglidelabel" letter-spacing="0.08" clip-path="url(#satori_cp-id)" fill="#141414">NAME</text><mask id="satori_om-id-1"><rect x="458" y="292" width="420" height="98" fill="#fff" mask="url(#satori_om-id)"/></mask><text x="458" y="338" width="147.0498046875" height="48.6" font-weight="900" font-style="normal" font-size="54" font-family="svglidedisplay" clip-path="url(#satori_cp-id)" fill="#141414">BOLD</text><text x="605.0498046875" y="338" width="15.0029296875" height="48.6" font-weight="900" font-style="normal" font-size="54" font-family="svglidedisplay" clip-path="url(#satori_cp-id)" fill="#141414"> </text><text x="620.052734375" y="338" width="72.03515625" height="48.6" font-weight="900" font-style="normal" font-size="54" font-family="svglidedisplay" clip-path="url(#satori_cp-id)" fill="#141414">BY</text><text x="692.087890625" y="338" width="15.0029296875" height="48.6" font-weight="900" font-style="normal" font-size="54" font-family="svglidedisplay" clip-path="url(#satori_cp-id)" fill="#141414"> </text><text x="458" y="387" width="207.03515625" height="48.6" font-weight="900" font-style="normal" font-size="54" font-family="svglidedisplay" clip-path="url(#satori_cp-id)" fill="#141414">DESIGN</text><text x="665.03515625" y="387" width="15.0029296875" height="48.6" font-weight="900" font-style="normal" font-size="54" font-family="svglidedisplay" clip-path="url(#satori_cp-id)" fill="#141414">.</text><mask id="satori_om-id-2"><rect x="862" y="70" width="132" height="104" fill="#fff" mask="url(#satori_om-id)"/></mask><g clip-path="url(#satori_cp-id)" mask="url(#satori_om-id)"><path x="862" y="70" width="132" height="104" fill="#0E7F69" d="M914,70 h28 a52,52 0 0 1 52,52 v0 a52,52 0 0 1 -52,52 h-28 a52,52 0 0 1 -52,-52 v0 a52,52 0 0 1 52,-52" transform="matrix(0.72,0.69,-0.69,0.72,345.20,-610.40)"/></g><mask id="satori_om-id-3"><rect x="820" y="145" width="116" height="80" fill="#fff" mask="url(#satori_om-id)"/></mask><g clip-path="url(#satori_cp-id)" mask="url(#satori_om-id)"><path x="820" y="145" width="116" height="80" fill="#0E7F69" d="M860,145 h36 a40,40 0 0 1 40,40 v0 a40,40 0 0 1 -40,40 h-36 a40,40 0 0 1 -40,-40 v0 a40,40 0 0 1 40,-40" transform="matrix(0.99,0.14,-0.14,0.99,34.29,-120.39)"/></g><mask id="satori_om-id-4"><rect x="462" y="499" width="90" height="2" fill="#fff" mask="url(#satori_om-id)"/></mask><rect x="462" y="499" width="90" height="2" fill="#141414" clip-path="url(#satori_cp-id)" mask="url(#satori_om-id)"/><mask id="satori_om-id-5"><rect x="462" y="504" width="150" height="2" fill="#fff" mask="url(#satori_om-id)"/></mask><g opacity="0.45"><rect x="462" y="504" width="150" height="2" fill="#141414" clip-path="url(#satori_cp-id)" mask="url(#satori_om-id)"/></g><mask id="satori_om-id-6"><rect x="462" y="509" width="112" height="2" fill="#fff" mask="url(#satori_om-id)"/></mask><g opacity="0.35"><rect x="462" y="509" width="112" height="2" fill="#141414" clip-path="url(#satori_cp-id)" mask="url(#satori_om-id)"/></g><mask id="satori_om-id-7"><rect x="472" y="462" width="362" height="26" fill="#fff" mask="url(#satori_om-id)"/></mask><text x="472" y="483" width="71.123046875" height="26.400000000000002" font-weight="700" font-style="normal" font-size="20" font-family="svglidebody" clip-path="url(#satori_cp-id)" fill="#141414">RITUAL</text><text x="543.123046875" y="483" width="5.556640625" height="26.400000000000002" font-weight="700" font-style="normal" font-size="20" font-family="svglidebody" clip-path="url(#satori_cp-id)" fill="#141414"> </text><text x="548.6796875" y="483" width="108.90625" height="26.400000000000002" font-weight="700" font-style="normal" font-size="20" font-family="svglidebody" clip-path="url(#satori_cp-id)" fill="#141414">PARTNERS</text><text x="657.5859375" y="483" width="5.556640625" height="26.400000000000002" font-weight="700" font-style="normal" font-size="20" font-family="svglidebody" clip-path="url(#satori_cp-id)" fill="#141414"> </text><text x="663.142578125" y="483" width="5.556640625" height="26.400000000000002" font-weight="700" font-style="normal" font-size="20" font-family="svglidebody" clip-path="url(#satori_cp-id)" fill="#141414">·</text><text x="668.69921875" y="483" width="5.556640625" height="26.400000000000002" font-weight="700" font-style="normal" font-size="20" font-family="svglidebody" clip-path="url(#satori_cp-id)" fill="#141414"> </text><text x="674.255859375" y="483" width="86.66015625" height="26.400000000000002" font-weight="700" font-style="normal" font-size="20" font-family="svglidebody" clip-path="url(#satori_cp-id)" fill="#141414">METHOD</text><text x="760.916015625" y="483" width="5.556640625" height="26.400000000000002" font-weight="700" font-style="normal" font-size="20" font-family="svglidebody" clip-path="url(#satori_cp-id)" fill="#141414"> </text><text x="766.47265625" y="483" width="66.689453125" height="26.400000000000002" font-weight="700" font-style="normal" font-size="20" font-family="svglidebody" clip-path="url(#satori_cp-id)" fill="#141414">RULES</text><mask id="satori_om-id-8"><rect x="458" y="476" width="12" height="12" fill="#fff" mask="url(#satori_om-id)"/></mask><rect x="458" y="476" width="12" height="12" fill="#FF6F2C" clip-path="url(#satori_cp-id)" mask="url(#satori_om-id)"/><mask id="satori_om-id-9"><rect x="663" y="462" width="250" height="40" fill="#fff" mask="url(#satori_om-id)"/></mask><text x="663" y="497" width="44.05078125" height="39.9" font-weight="700" font-style="normal" font-size="42" font-family="svglidemetric" clip-path="url(#satori_cp-id)" fill="#141414">29</text><text x="707.05078125" y="497" width="12.6533203125" height="39.9" font-weight="700" font-style="normal" font-size="42" font-family="svglidemetric" clip-path="url(#satori_cp-id)" fill="#141414"> </text><text x="719.7041015625" y="497" width="15.421875" height="39.9" font-weight="700" font-style="normal" font-size="42" font-family="svglidemetric" clip-path="url(#satori_cp-id)" fill="#141414">·</text><text x="735.1259765625" y="497" width="12.6533203125" height="39.9" font-weight="700" font-style="normal" font-size="42" font-family="svglidemetric" clip-path="url(#satori_cp-id)" fill="#141414"> </text><text x="747.779296875" y="497" width="36.3603515625" height="39.9" font-weight="700" font-style="normal" font-size="42" font-family="svglidemetric" clip-path="url(#satori_cp-id)" fill="#141414">IV</text><text x="784.1396484375" y="497" width="12.6533203125" height="39.9" font-weight="700" font-style="normal" font-size="42" font-family="svglidemetric" clip-path="url(#satori_cp-id)" fill="#141414"> </text><text x="796.79296875" y="497" width="15.421875" height="39.9" font-weight="700" font-style="normal" font-size="42" font-family="svglidemetric" clip-path="url(#satori_cp-id)" fill="#141414">·</text><text x="812.21484375" y="497" width="12.6533203125" height="39.9" font-weight="700" font-style="normal" font-size="42" font-family="svglidemetric" clip-path="url(#satori_cp-id)" fill="#141414"> </text><text x="824.8681640625" y="497" width="88.1015625" height="39.9" font-weight="700" font-style="normal" font-size="42" font-family="svglidemetric" clip-path="url(#satori_cp-id)" fill="#141414">2026</text></svg>