<svg width="960" height="540" viewBox="0 0 960 540" xmlns="http://www.w3.org/2000/svg"><clipPath id="satori_cp-id"><rect x="0" y="0" width="960" height="540"/></clipPath><mask id="satori_om-id"><rect x="0" y="0" width="960" height="540" fill="#fff"/></mask><rect x="0" y="0" width="960" height="540" fill="#D9C9AD"/><mask id="satori_om-id-0"><rect x="322" y="176" width="156" height="66" fill="#fff" mask="url(#satori_om-id)"/></mask><g clip-path="url(#satori_cp-id)" mask="url(#satori_om-id)"><rect x="322" y="176" width="156" height="66" fill="#BDE083" transform="matrix(0.99,-0.14,0.14,0.99,-25.19,57.70)"/></g><mask id="satori_om-id-0-0"><rect x="338" y="204" width="125" height="11" fill="#fff" mask="url(#satori_om-id)"/></mask><g clip-path="url(#satori_cp-id)" mask="url(#satori_om-id)"></g><text x="338" y="213" width="20.840585937500002" height="10.5" font-weight="800" font-style="normal" font-size="10" font-family="svglidelabel" letter-spacing="0.08" transform="matrix(0.99,-0.14,0.14,0.99,-25.19,57.70)" clip-path="url(#satori_cp-id)" fill="#111111">ASK</text><text x="358.8405859375" y="213" width="3.595625" height="10.5" font-weight="800" font-style="normal" font-size="10" font-family="svglidelabel" letter-spacing="0.08" transform="matrix(0.99,-0.14,0.14,0.99,-25.19,57.70)" clip-path="url(#satori_cp-id)" fill="#111111"> </text><text x="362.4362109375" y="213" width="6.9159375" height="10.5" font-weight="800" font-style="normal" font-size="10" font-family="svglidelabel" letter-spacing="0.08" transform="matrix(0.99,-0.14,0.14,0.99,-25.19,57.70)" clip-path="url(#satori_cp-id)" fill="#111111">A</text><text x="369.3521484375" y="213" width="3.595625" height="10.5" font-weight="800" font-style="normal" font-size="10" font-family="svglidelabel" letter-spacing="0.08" transform="matrix(0.99,-0.14,0.14,0.99,-25.19,57.70)" clip-path="url(#satori_cp-id)" fill="#111111"> </text><text x="372.9477734375" y="213" width="31.521171875" height="10.5" font-weight="800" font-style="normal" font-size="10" font-family="svglidelabel" letter-spacing="0.08" transform="matrix(0.99,-0.14,0.14,0.99,-25.19,57.70)" clip-path="url(#satori_cp-id)" fill="#111111">GOOD</text><text x="404.4689453125" y="213" width="3.595625" height="10.5" font-weight="800" font-style="normal" font-size="10" font-family="svglidelabel" letter-spacing="0.08" transform="matrix(0.99,-0.14,0.14,0.99,-25.19,57.70)" clip-path="url(#satori_cp-id)" fill="#111111"> </text><text x="408.0645703125" y="213" width="54.71226562499999" height="10.5" font-weight="800" font-style="normal" font-size="10" font-family="svglidelabel" letter-spacing="0.08" transform="matrix(0.99,-0.14,0.14,0.99,-25.19,57.70)" clip-path="url(#satori_cp-id)" fill="#111111">QUESTION</text><mask id="satori_om-id-1"><rect x="407" y="164" width="156" height="66" fill="#fff" mask="url(#satori_om-id)"/></mask><g clip-path="url(#satori_cp-id)" mask="url(#satori_om-id)"><rect x="407" y="164" width="156" height="66" fill="#F8D444" transform="matrix(1.00,0.03,-0.03,1.00,7.17,-16.81)"/></g><mask id="satori_om-id-1-0"><rect x="442" y="192" width="86" height="11" fill="#fff" mask="url(#satori_om-id)"/></mask><g clip-path="url(#satori_cp-id)" mask="url(#satori_om-id)"></g><text x="442" y="201" width="60.53257812499999" height="10.5" font-weight="800" font-style="normal" font-size="10" font-family="svglidelabel" letter-spacing="0.08" transform="matrix(1.00,0.03,-0.03,1.00,7.17,-16.81)" clip-path="url(#satori_cp-id)" fill="#111111">WORKSHOP</text><text x="502.532578125" y="201" width="3.595625" height="10.5" font-weight="800" font-style="normal" font-size="10" font-family="svglidelabel" letter-spacing="0.08" transform="matrix(1.00,0.03,-0.03,1.00,7.17,-16.81)" clip-path="url(#satori_cp-id)" fill="#111111"> </text><text x="506.128203125" y="201" width="21.533945312500002" height="10.5" font-weight="800" font-style="normal" font-size="10" font-family="svglidelabel" letter-spacing="0.08" transform="matrix(1.00,0.03,-0.03,1.00,7.17,-16.81)" clip-path="url(#satori_cp-id)" fill="#111111">MAP</text><mask id="satori_om-id-2"><rect x="517" y="142" width="156" height="66" fill="#fff" mask="url(#satori_om-id)"/></mask><g clip-path="url(#satori_cp-id)" mask="url(#satori_om-id)"><rect x="517" y="142" width="156" height="66" fill="#9DC7E8" transform="matrix(0.99,0.14,-0.14,0.99,30.15,-81.10)"/></g><mask id="satori_om-id-2-0"><rect x="550" y="170" width="90" height="11" fill="#fff" mask="url(#satori_om-id)"/></mask><g clip-path="url(#satori_cp-id)" mask="url(#satori_om-id)"></g><text x="550" y="179" width="60.27566406249999" height="10.5" font-weight="800" font-style="normal" font-size="10" font-family="svglidelabel" letter-spacing="0.08" transform="matrix(0.99,0.14,-0.14,0.99,30.15,-81.10)" clip-path="url(#satori_cp-id)" fill="#111111">PROTOTYPE</text><text x="610.2756640625" y="179" width="3.595625" height="10.5" font-weight="800" font-style="normal" font-size="10" font-family="svglidelabel" letter-spacing="0.08" transform="matrix(0.99,0.14,-0.14,0.99,30.15,-81.10)" clip-path="url(#satori_cp-id)" fill="#111111"> </text><text x="613.8712890625" y="179" width="25.9010546875" height="10.5" font-weight="800" font-style="normal" font-size="10" font-family="svglidelabel" letter-spacing="0.08" transform="matrix(0.99,0.14,-0.14,0.99,30.15,-81.10)" clip-path="url(#satori_cp-id)" fill="#111111">FAST</text><mask id="satori_om-id-3"><rect x="423" y="188" width="126" height="98" fill="#fff" mask="url(#satori_om-id)"/></mask><g clip-path="url(#satori_cp-id)" mask="url(#satori_om-id)"></g><text x="430.98974609375" y="234" width="321.0205078125" height="48.6" font-weight="900" font-style="normal" font-size="54" font-family="svglidedisplay" transform="matrix(1.00,0.03,-0.03,1.00,8.57,-16.82)" clip-path="url(#satori_cp-id)" fill="#1C1C1C">WORKSHOP</text><text x="752.01025390625" y="234" width="15.0029296875" height="48.6" font-weight="900" font-style="normal" font-size="54" font-family="svglidedisplay" transform="matrix(1.00,0.03,-0.03,1.00,8.57,-16.82)" clip-path="url(#satori_cp-id)" fill="#1C1C1C"> </text><text x="532.9912109375" y="283" width="117.017578125" height="48.6" font-weight="900" font-style="normal" font-size="54" font-family="svglidedisplay" transform="matrix(1.00,0.03,-0.03,1.00,8.57,-16.82)" clip-path="url(#satori_cp-id)" fill="#1C1C1C">MAP</text><mask id="satori_om-id-4"><rect x="389" y="285" width="110" height="11" fill="#fff" mask="url(#satori_om-id)"/></mask><text x="389" y="294" width="69.383984375" height="10.5" font-weight="700" font-style="normal" font-size="10" font-family="svglidelabel" letter-spacing="0.08" clip-path="url(#satori_cp-id)" fill="#1C1C1C">BRAINSTORM</text><text x="458.383984375" y="294" width="3.595625" height="10.5" font-weight="700" font-style="normal" font-size="10" font-family="svglidelabel" letter-spacing="0.08" clip-path="url(#satori_cp-id)" fill="#1C1C1C"> </text><text x="461.979609375" y="294" width="36.620703125" height="10.5" font-weight="700" font-style="normal" font-size="10" font-family="svglidelabel" letter-spacing="0.08" clip-path="url(#satori_cp-id)" fill="#1C1C1C">BOARD</text><mask id="satori_om-id-5"><rect x="348" y="306" width="266" height="72" fill="#fff" mask="url(#satori_om-id)"/></mask><text x="357.43359375" y="325" width="55.01953125" height="23.76" font-weight="400" font-style="normal" font-size="18" font-family="svglidebody" clip-path="url(#satori_cp-id)" fill="#1C1C1C">Collect</text><text x="412.453125" y="325" width="5.0009765625" height="23.76" font-weight="400" font-style="normal" font-size="18" font-family="svglidebody" clip-path="url(#satori_cp-id)" fill="#1C1C1C"> </text><text x="417.4541015625" y="325" width="35.015625" height="23.76" font-weight="400" font-style="normal" font-size="18" font-family="svglidebody" clip-path="url(#satori_cp-id)" fill="#1C1C1C">your</text><text x="452.4697265625" y="325" width="5.0009765625" height="23.76" font-weight="400" font-style="normal" font-size="18" font-family="svglidebody" clip-path="url(#satori_cp-id)" fill="#1C1C1C"> </text><text x="457.470703125" y="325" width="69.0556640625" height="23.76" font-weight="400" font-style="normal" font-size="18" font-family="svglidebody" clip-path="url(#satori_cp-id)" fill="#1C1C1C">thoughts</text><text x="526.5263671875" y="325" width="5.0009765625" height="23.76" font-weight="400" font-style="normal" font-size="18" font-family="svglidebody" clip-path="url(#satori_cp-id)" fill="#1C1C1C">,</text><text x="531.52734375" y="325" width="5.0009765625" height="23.76" font-weight="400" font-style="normal" font-size="18" font-family="svglidebody" clip-path="url(#satori_cp-id)" fill="#1C1C1C"> </text><text x="536.5283203125" y="325" width="24.0205078125" height="23.76" font-weight="400" font-style="normal" font-size="18" font-family="svglidebody" clip-path="url(#satori_cp-id)" fill="#1C1C1C">pin</text><text x="560.548828125" y="325" width="5.0009765625" height="23.76" font-weight="400" font-style="normal" font-size="18" font-family="svglidebody" clip-path="url(#satori_cp-id)" fill="#1C1C1C"> </text><text x="565.5498046875" y="325" width="40.0166015625" height="23.76" font-weight="400" font-style="normal" font-size="18" font-family="svglidebody" clip-path="url(#satori_cp-id)" fill="#1C1C1C">them</text><text x="605.56640625" y="325" width="5.0009765625" height="23.76" font-weight="400" font-style="normal" font-size="18" font-family="svglidebody" clip-path="url(#satori_cp-id)" fill="#1C1C1C"> </text><text x="350.9208984375" y="349" width="43.03125" height="23.76" font-weight="400" font-style="normal" font-size="18" font-family="svglidebody" clip-path="url(#satori_cp-id)" fill="#1C1C1C">down</text><text x="393.9521484375" y="349" width="5.0009765625" height="23.76" font-weight="400" font-style="normal" font-size="18" font-family="svglidebody" clip-path="url(#satori_cp-id)" fill="#1C1C1C">,</text><text x="398.953125" y="349" width="5.0009765625" height="23.76" font-weight="400" font-style="normal" font-size="18" font-family="svglidebody" clip-path="url(#satori_cp-id)" fill="#1C1C1C"> </text><text x="403.9541015625" y="349" width="30.0322265625" height="23.76" font-weight="400" font-style="normal" font-size="18" font-family="svglidebody" clip-path="url(#satori_cp-id)" fill="#1C1C1C">and</text><text x="433.986328125" y="349" width="5.0009765625" height="23.76" font-weight="400" font-style="normal" font-size="18" font-family="svglidebody" clip-path="url(#satori_cp-id)" fill="#1C1C1C"> </text><text x="438.9873046875" y="349" width="44.015625" height="23.76" font-weight="400" font-style="normal" font-size="18" font-family="svglidebody" clip-path="url(#satori_cp-id)" fill="#1C1C1C">make</text><text x="483.0029296875" y="349" width="5.0009765625" height="23.76" font-weight="400" font-style="normal" font-size="18" font-family="svglidebody" clip-path="url(#satori_cp-id)" fill="#1C1C1C"> </text><text x="488.00390625" y="349" width="25.0224609375" height="23.76" font-weight="400" font-style="normal" font-size="18" font-family="svglidebody" clip-path="url(#satori_cp-id)" fill="#1C1C1C">the</text><text x="513.0263671875" y="349" width="5.0009765625" height="23.76" font-weight="400" font-style="normal" font-size="18" font-family="svglidebody" clip-path="url(#satori_cp-id)" fill="#1C1C1C"> </text><text x="518.02734375" y="349" width="24.0205078125" height="23.76" font-weight="400" font-style="normal" font-size="18" font-family="svglidebody" clip-path="url(#satori_cp-id)" fill="#1C1C1C">big</text><text x="542.0478515625" y="349" width="5.0009765625" height="23.76" font-weight="400" font-style="normal" font-size="18" font-family="svglidebody" clip-path="url(#satori_cp-id)" fill="#1C1C1C"> </text><text x="547.048828125" y="349" width="65.0302734375" height="23.76" font-weight="400" font-style="normal" font-size="18" font-family="svglidebody" clip-path="url(#satori_cp-id)" fill="#1C1C1C">problem</text><text x="612.0791015625" y="349" width="5.0009765625" height="23.76" font-weight="400" font-style="normal" font-size="18" font-family="svglidebody" clip-path="url(#satori_cp-id)" fill="#1C1C1C"> </text><text x="457.998046875" y="373" width="42.0029296875" height="23.76" font-weight="400" font-style="normal" font-size="18" font-family="svglidebody" clip-path="url(#satori_cp-id)" fill="#1C1C1C">small</text><text x="500.0009765625" y="373" width="5.0009765625" height="23.76" font-weight="400" font-style="normal" font-size="18" font-family="svglidebody" clip-path="url(#satori_cp-id)" fill="#1C1C1C">.</text><mask id="satori_om-id-6"><rect x="885" y="478" width="45" height="40" fill="#fff" mask="url(#satori_om-id)"/></mask><text x="885" y="513" width="44.05078125" height="39.9" font-weight="900" font-style="normal" font-size="42" font-family="svglidemetric" clip-path="url(#satori_cp-id)" fill="#1C1C1C">03</text></svg>