<svg width="960" height="540" viewBox="0 0 960 540" xmlns="http://www.w3.org/2000/svg"><clipPath id="satori_cp-id"><rect x="0" y="0" width="960" height="540"/></clipPath><mask id="satori_om-id"><rect x="0" y="0" width="960" height="540" fill="#fff"/></mask><rect x="0" y="0" width="960" height="540" fill="#F0EBDE"/><mask id="satori_om-id-0"><rect x="34" y="14" width="1" height="512" fill="#fff" mask="url(#satori_om-id)"/></mask><g opacity="0.08"><rect x="34" y="14" width="1" height="512" fill="#1F2BE0" clip-path="url(#satori_cp-id)" mask="url(#satori_om-id)"/></g><mask id="satori_om-id-1"><rect x="58" y="14" width="1" height="512" fill="#fff" mask="url(#satori_om-id)"/></mask><g opacity="0.08"><rect x="58" y="14" width="1" height="512" fill="#1F2BE0" clip-path="url(#satori_cp-id)" mask="url(#satori_om-id)"/></g><mask id="satori_om-id-2"><rect x="82" y="14" width="1" height="512" fill="#fff" mask="url(#satori_om-id)"/></mask><g opacity="0.08"><rect x="82" y="14" width="1" height="512" fill="#1F2BE0" clip-path="url(#satori_cp-id)" mask="url(#satori_om-id)"/></g><mask id="satori_om-id-3"><rect x="106" y="14" width="1" height="512" fill="#fff" mask="url(#satori_om-id)"/></mask><g opacity="0.08"><rect x="106" y="14" width="1" height="512" fill="#1F2BE0" clip-path="url(#satori_cp-id)" mask="url(#satori_om-id)"/></g><mask id="satori_om-id-4"><rect x="130" y="14" width="1" height="512" fill="#fff" mask="url(#satori_om-id)"/></mask><g opacity="0.08"><rect x="130" y="14" width="1" height="512" fill="#1F2BE0" clip-path="url(#satori_cp-id)" mask="url(#satori_om-id)"/></g><mask id="satori_om-id-5"><rect x="154" y="14" width="1" height="512" fill="#fff" mask="url(#satori_om-id)"/></mask><g opacity="0.08"><rect x="154" y="14" width="1" height="512" fill="#1F2BE0" clip-path="url(#satori_cp-id)" mask="url(#satori_om-id)"/></g><mask id="satori_om-id-6"><rect x="178" y="14" width="1" height="512" fill="#fff" mask="url(#satori_om-id)"/></mask><g opacity="0.08"><rect x="178" y="14" width="1" height="512" fill="#1F2BE0" clip-path="url(#satori_cp-id)" mask="url(#satori_om-id)"/></g><mask id="satori_om-id-7"><rect x="202" y="14" width="1" height="512" fill="#fff" mask="url(#satori_om-id)"/></mask><g opacity="0.08"><rect x="202" y="14" width="1" height="512" fill="#1F2BE0" clip-path="url(#satori_cp-id)" mask="url(#satori_om-id)"/></g><mask id="satori_om-id-8"><rect x="226" y="14" width="1" height="512" fill="#fff" mask="url(#satori_om-id)"/></mask><g opacity="0.08"><rect x="226" y="14" width="1" height="512" fill="#1F2BE0" clip-path="url(#satori_cp-id)" mask="url(#satori_om-id)"/></g><mask id="satori_om-id-9"><rect x="250" y="14" width="1" height="512" fill="#fff" mask="url(#satori_om-id)"/></mask><g opacity="0.08"><rect x="250" y="14" width="1" height="512" fill="#1F2BE0" clip-path="url(#satori_cp-id)" mask="url(#satori_om-id)"/></g><mask id="satori_om-id-10"><rect x="274" y="14" width="1" height="512" fill="#fff" mask="url(#satori_om-id)"/></mask><g opacity="0.08"><rect x="274" y="14" width="1" height="512" fill="#1F2BE0" clip-path="url(#satori_cp-id)" mask="url(#satori_om-id)"/></g><mask id="satori_om-id-11"><rect x="298" y="14" width="1" height="512" fill="#fff" mask="url(#satori_om-id)"/></mask><g opacity="0.08"><rect x="298" y="14" width="1" height="512" fill="#1F2BE0" clip-path="url(#satori_cp-id)" mask="url(#satori_om-id)"/></g><mask id="satori_om-id-12"><rect x="322" y="14" width="1" height="512" fill="#fff" mask="url(#satori_om-id)"/></mask><g opacity="0.08"><rect x="322" y="14" width="1" height="512" fill="#1F2BE0" clip-path="url(#satori_cp-id)" mask="url(#satori_om-id)"/></g><mask id="satori_om-id-13"><rect x="346" y="14" width="1" height="512" fill="#fff" mask="url(#satori_om-id)"/></mask><g opacity="0.08"><rect x="346" y="14" width="1" height="512" fill="#1F2BE0" clip-path="url(#satori_cp-id)" mask="url(#satori_om-id)"/></g><mask id="satori_om-id-14"><rect x="370" y="14" width="1" height="512" fill="#fff" mask="url(#satori_om-id)"/></mask><g opacity="0.08"><rect x="370" y="14" width="1" height="512" fill="#1F2BE0" clip-path="url(#satori_cp-id)" mask="url(#satori_om-id)"/></g><mask id="satori_om-id-15"><rect x="394" y="14" width="1" height="512" fill="#fff" mask="url(#satori_om-id)"/></mask><g opacity="0.08"><rect x="394" y="14" width="1" height="512" fill="#1F2BE0" clip-path="url(#satori_cp-id)" mask="url(#satori_om-id)"/></g><mask id="satori_om-id-16"><rect x="418" y="14" width="1" height="512" fill="#fff" mask="url(#satori_om-id)"/></mask><g opacity="0.08"><rect x="418" y="14" width="1" height="512" fill="#1F2BE0" clip-path="url(#satori_cp-id)" mask="url(#satori_om-id)"/></g><mask id="satori_om-id-17"><rect x="442" y="14" width="1" height="512" fill="#fff" mask="url(#satori_om-id)"/></mask><g opacity="0.08"><rect x="442" y="14" width="1" height="512" fill="#1F2BE0" clip-path="url(#satori_cp-id)" mask="url(#satori_om-id)"/></g><mask id="satori_om-id-18"><rect x="466" y="14" width="1" height="512" fill="#fff" mask="url(#satori_om-id)"/></mask><g opacity="0.08"><rect x="466" y="14" width="1" height="512" fill="#1F2BE0" clip-path="url(#satori_cp-id)" mask="url(#satori_om-id)"/></g><mask id="satori_om-id-19"><rect x="490" y="14" width="1" height="512" fill="#fff" mask="url(#satori_om-id)"/></mask><g opacity="0.08"><rect x="490" y="14" width="1" height="512" fill="#1F2BE0" clip-path="url(#satori_cp-id)" mask="url(#satori_om-id)"/></g><mask id="satori_om-id-20"><rect x="514" y="14" width="1" height="512" fill="#fff" mask="url(#satori_om-id)"/></mask><g opacity="0.08"><rect x="514" y="14" width="1" height="512" fill="#1F2BE0" clip-path="url(#satori_cp-id)" mask="url(#satori_om-id)"/></g><mask id="satori_om-id-21"><rect x="538" y="14" width="1" height="512" fill="#fff" mask="url(#satori_om-id)"/></mask><g opacity="0.08"><rect x="538" y="14" width="1" height="512" fill="#1F2BE0" clip-path="url(#satori_cp-id)" mask="url(#satori_om-id)"/></g><mask id="satori_om-id-22"><rect x="562" y="14" width="1" height="512" fill="#fff" mask="url(#satori_om-id)"/></mask><g opacity="0.08"><rect x="562" y="14" width="1" height="512" fill="#1F2BE0" clip-path="url(#satori_cp-id)" mask="url(#satori_om-id)"/></g><mask id="satori_om-id-23"><rect x="586" y="14" width="1" height="512" fill="#fff" mask="url(#satori_om-id)"/></mask><g opacity="0.08"><rect x="586" y="14" width="1" height="512" fill="#1F2BE0" clip-path="url(#satori_cp-id)" mask="url(#satori_om-id)"/></g><mask id="satori_om-id-24"><rect x="610" y="14" width="1" height="512" fill="#fff" mask="url(#satori_om-id)"/></mask><g opacity="0.08"><rect x="610" y="14" width="1" height="512" fill="#1F2BE0" clip-path="url(#satori_cp-id)" mask="url(#satori_om-id)"/></g><mask id="satori_om-id-25"><rect x="634" y="14" width="1" height="512" fill="#fff" mask="url(#satori_om-id)"/></mask><g opacity="0.08"><rect x="634" y="14" width="1" height="512" fill="#1F2BE0" clip-path="url(#satori_cp-id)" mask="url(#satori_om-id)"/></g><mask id="satori_om-id-26"><rect x="658" y="14" width="1" height="512" fill="#fff" mask="url(#satori_om-id)"/></mask><g opacity="0.08"><rect x="658" y="14" width="1" height="512" fill="#1F2BE0" clip-path="url(#satori_cp-id)" mask="url(#satori_om-id)"/></g><mask id="satori_om-id-27"><rect x="682" y="14" width="1" height="512" fill="#fff" mask="url(#satori_om-id)"/></mask><g opacity="0.08"><rect x="682" y="14" width="1" height="512" fill="#1F2BE0" clip-path="url(#satori_cp-id)" mask="url(#satori_om-id)"/></g><mask id="satori_om-id-28"><rect x="706" y="14" width="1" height="512" fill="#fff" mask="url(#satori_om-id)"/></mask><g opacity="0.08"><rect x="706" y="14" width="1" height="512" fill="#1F2BE0" clip-path="url(#satori_cp-id)" mask="url(#satori_om-id)"/></g><mask id="satori_om-id-29"><rect x="730" y="14" width="1" height="512" fill="#fff" mask="url(#satori_om-id)"/></mask><g opacity="0.08"><rect x="730" y="14" width="1" height="512" fill="#1F2BE0" clip-path="url(#satori_cp-id)" mask="url(#satori_om-id)"/></g><mask id="satori_om-id-30"><rect x="754" y="14" width="1" height="512" fill="#fff" mask="url(#satori_om-id)"/></mask><g opacity="0.08"><rect x="754" y="14" width="1" height="512" fill="#1F2BE0" clip-path="url(#satori_cp-id)" mask="url(#satori_om-id)"/></g><mask id="satori_om-id-31"><rect x="778" y="14" width="1" height="512" fill="#fff" mask="url(#satori_om-id)"/></mask><g opacity="0.08"><rect x="778" y="14" width="1" height="512" fill="#1F2BE0" clip-path="url(#satori_cp-id)" mask="url(#satori_om-id)"/></g><mask id="satori_om-id-32"><rect x="802" y="14" width="1" height="512" fill="#fff" mask="url(#satori_om-id)"/></mask><g opacity="0.08"><rect x="802" y="14" width="1" height="512" fill="#1F2BE0" clip-path="url(#satori_cp-id)" mask="url(#satori_om-id)"/></g><mask id="satori_om-id-33"><rect x="826" y="14" width="1" height="512" fill="#fff" mask="url(#satori_om-id)"/></mask><g opacity="0.08"><rect x="826" y="14" width="1" height="512" fill="#1F2BE0" clip-path="url(#satori_cp-id)" mask="url(#satori_om-id)"/></g><mask id="satori_om-id-34"><rect x="850" y="14" width="1" height="512" fill="#fff" mask="url(#satori_om-id)"/></mask><g opacity="0.08"><rect x="850" y="14" width="1" height="512" fill="#1F2BE0" clip-path="url(#satori_cp-id)" mask="url(#satori_om-id)"/></g><mask id="satori_om-id-35"><rect x="874" y="14" width="1" height="512" fill="#fff" mask="url(#satori_om-id)"/></mask><g opacity="0.08"><rect x="874" y="14" width="1" height="512" fill="#1F2BE0" clip-path="url(#satori_cp-id)" mask="url(#satori_om-id)"/></g><mask id="satori_om-id-36"><rect x="898" y="14" width="1" height="512" fill="#fff" mask="url(#satori_om-id)"/></mask><g opacity="0.08"><rect x="898" y="14" width="1" height="512" fill="#1F2BE0" clip-path="url(#satori_cp-id)" mask="url(#satori_om-id)"/></g><mask id="satori_om-id-37"><rect x="922" y="14" width="1" height="512" fill="#fff" mask="url(#satori_om-id)"/></mask><g opacity="0.08"><rect x="922" y="14" width="1" height="512" fill="#1F2BE0" clip-path="url(#satori_cp-id)" mask="url(#satori_om-id)"/></g><mask id="satori_om-id-38"><rect x="34" y="14" width="892" height="1" fill="#fff" mask="url(#satori_om-id)"/></mask><g opacity="0.08"><rect x="34" y="14" width="892" height="1" fill="#1F2BE0" clip-path="url(#satori_cp-id)" mask="url(#satori_om-id)"/></g><mask id="satori_om-id-39"><rect x="34" y="38" width="892" height="1" fill="#fff" mask="url(#satori_om-id)"/></mask><g opacity="0.08"><rect x="34" y="38" width="892" height="1" fill="#1F2BE0" clip-path="url(#satori_cp-id)" mask="url(#satori_om-id)"/></g><mask id="satori_om-id-40"><rect x="34" y="62" width="892" height="1" fill="#fff" mask="url(#satori_om-id)"/></mask><g opacity="0.08"><rect x="34" y="62" width="892" height="1" fill="#1F2BE0" clip-path="url(#satori_cp-id)" mask="url(#satori_om-id)"/></g><mask id="satori_om-id-41"><rect x="34" y="86" width="892" height="1" fill="#fff" mask="url(#satori_om-id)"/></mask><g opacity="0.08"><rect x="34" y="86" width="892" height="1" fill="#1F2BE0" clip-path="url(#satori_cp-id)" mask="url(#satori_om-id)"/></g><mask id="satori_om-id-42"><rect x="34" y="110" width="892" height="1" fill="#fff" mask="url(#satori_om-id)"/></mask><g opacity="0.08"><rect x="34" y="110" width="892" height="1" fill="#1F2BE0" clip-path="url(#satori_cp-id)" mask="url(#satori_om-id)"/></g><mask id="satori_om-id-43"><rect x="34" y="134" width="892" height="1" fill="#fff" mask="url(#satori_om-id)"/></mask><g opacity="0.08"><rect x="34" y="134" width="892" height="1" fill="#1F2BE0" clip-path="url(#satori_cp-id)" mask="url(#satori_om-id)"/></g><mask id="satori_om-id-44"><rect x="34" y="158" width="892" height="1" fill="#fff" mask="url(#satori_om-id)"/></mask><g opacity="0.08"><rect x="34" y="158" width="892" height="1" fill="#1F2BE0" clip-path="url(#satori_cp-id)" mask="url(#satori_om-id)"/></g><mask id="satori_om-id-45"><rect x="34" y="182" width="892" height="1" fill="#fff" mask="url(#satori_om-id)"/></mask><g opacity="0.08"><rect x="34" y="182" width="892" height="1" fill="#1F2BE0" clip-path="url(#satori_cp-id)" mask="url(#satori_om-id)"/></g><mask id="satori_om-id-46"><rect x="34" y="206" width="892" height="1" fill="#fff" mask="url(#satori_om-id)"/></mask><g opacity="0.08"><rect x="34" y="206" width="892" height="1" fill="#1F2BE0" clip-path="url(#satori_cp-id)" mask="url(#satori_om-id)"/></g><mask id="satori_om-id-47"><rect x="34" y="230" width="892" height="1" fill="#fff" mask="url(#satori_om-id)"/></mask><g opacity="0.08"><rect x="34" y="230" width="892" height="1" fill="#1F2BE0" clip-path="url(#satori_cp-id)" mask="url(#satori_om-id)"/></g><mask id="satori_om-id-48"><rect x="34" y="254" width="892" height="1" fill="#fff" mask="url(#satori_om-id)"/></mask><g opacity="0.08"><rect x="34" y="254" width="892" height="1" fill="#1F2BE0" clip-path="url(#satori_cp-id)" mask="url(#satori_om-id)"/></g><mask id="satori_om-id-49"><rect x="34" y="278" width="892" height="1" fill="#fff" mask="url(#satori_om-id)"/></mask><g opacity="0.08"><rect x="34" y="278" width="892" height="1" fill="#1F2BE0" clip-path="url(#satori_cp-id)" mask="url(#satori_om-id)"/></g><mask id="satori_om-id-50"><rect x="34" y="302" width="892" height="1" fill="#fff" mask="url(#satori_om-id)"/></mask><g opacity="0.08"><rect x="34" y="302" width="892" height="1" fill="#1F2BE0" clip-path="url(#satori_cp-id)" mask="url(#satori_om-id)"/></g><mask id="satori_om-id-51"><rect x="34" y="326" width="892" height="1" fill="#fff" mask="url(#satori_om-id)"/></mask><g opacity="0.08"><rect x="34" y="326" width="892" height="1" fill="#1F2BE0" clip-path="url(#satori_cp-id)" mask="url(#satori_om-id)"/></g><mask id="satori_om-id-52"><rect x="34" y="350" width="892" height="1" fill="#fff" mask="url(#satori_om-id)"/></mask><g opacity="0.08"><rect x="34" y="350" width="892" height="1" fill="#1F2BE0" clip-path="url(#satori_cp-id)" mask="url(#satori_om-id)"/></g><mask id="satori_om-id-53"><rect x="34" y="374" width="892" height="1" fill="#fff" mask="url(#satori_om-id)"/></mask><g opacity="0.08"><rect x="34" y="374" width="892" height="1" fill="#1F2BE0" clip-path="url(#satori_cp-id)" mask="url(#satori_om-id)"/></g><mask id="satori_om-id-54"><rect x="34" y="398" width="892" height="1" fill="#fff" mask="url(#satori_om-id)"/></mask><g opacity="0.08"><rect x="34" y="398" width="892" height="1" fill="#1F2BE0" clip-path="url(#satori_cp-id)" mask="url(#satori_om-id)"/></g><mask id="satori_om-id-55"><rect x="34" y="422" width="892" height="1" fill="#fff" mask="url(#satori_om-id)"/></mask><g opacity="0.08"><rect x="34" y="422" width="892" height="1" fill="#1F2BE0" clip-path="url(#satori_cp-id)" mask="url(#satori_om-id)"/></g><mask id="satori_om-id-56"><rect x="34" y="446" width="892" height="1" fill="#fff" mask="url(#satori_om-id)"/></mask><g opacity="0.08"><rect x="34" y="446" width="892" height="1" fill="#1F2BE0" clip-path="url(#satori_cp-id)" mask="url(#satori_om-id)"/></g><mask id="satori_om-id-57"><rect x="34" y="470" width="892" height="1" fill="#fff" mask="url(#satori_om-id)"/></mask><g opacity="0.08"><rect x="34" y="470" width="892" height="1" fill="#1F2BE0" clip-path="url(#satori_cp-id)" mask="url(#satori_om-id)"/></g><mask id="satori_om-id-58"><rect x="34" y="494" width="892" height="1" fill="#fff" mask="url(#satori_om-id)"/></mask><g opacity="0.08"><rect x="34" y="494" width="892" height="1" fill="#1F2BE0" clip-path="url(#satori_cp-id)" mask="url(#satori_om-id)"/></g><mask id="satori_om-id-59"><rect x="34" y="518" width="892" height="1" fill="#fff" mask="url(#satori_om-id)"/></mask><g opacity="0.08"><rect x="34" y="518" width="892" height="1" fill="#1F2BE0" clip-path="url(#satori_cp-id)" mask="url(#satori_om-id)"/></g><mask id="satori_om-id-60"><rect x="34" y="14" width="892" height="1" fill="#fff" mask="url(#satori_om-id)"/></mask><rect x="34" y="14" width="892" height="1" fill="#1F2BE0" clip-path="url(#satori_cp-id)" mask="url(#satori_om-id)"/><mask id="satori_om-id-61"><rect x="34" y="525" width="892" height="1" fill="#fff" mask="url(#satori_om-id)"/></mask><rect x="34" y="525" width="892" height="1" fill="#1F2BE0" clip-path="url(#satori_cp-id)" mask="url(#satori_om-id)"/><mask id="satori_om-id-62"><rect x="38" y="112" width="320" height="82" fill="#fff" mask="url(#satori_om-id)"/></mask><text x="38" y="186" width="200.595703125" height="82" font-weight="400" font-style="normal" font-size="82" font-family="svglidedisplay" clip-path="url(#satori_cp-id)" fill="#1F2BE0">Index</text><mask id="satori_om-id-63"><rect x="38" y="220" width="320" height="82" fill="#fff" mask="url(#satori_om-id)"/></mask><text x="38" y="294" width="182.41796875" height="82" font-weight="400" font-style="normal" font-size="82" font-family="svglidedisplay" clip-path="url(#satori_cp-id)" fill="#1F2BE0">2026</text><mask id="satori_om-id-64"><rect x="34" y="356" width="340" height="9" fill="#fff" mask="url(#satori_om-id)"/></mask><text x="34" y="364" width="26.995703125" height="9" font-weight="900" font-style="normal" font-size="9" font-family="svglidelabel" letter-spacing="0.08" clip-path="url(#satori_cp-id)" fill="#1F2BE0">FIELD</text><text x="60.995703125" y="364" width="3.2440625" height="9" font-weight="900" font-style="normal" font-size="9" font-family="svglidelabel" letter-spacing="0.08" clip-path="url(#satori_cp-id)" fill="#1F2BE0"> </text><text x="64.23976562499999" y="364" width="33.67189453125" height="9" font-weight="900" font-style="normal" font-size="9" font-family="svglidelabel" letter-spacing="0.08" clip-path="url(#satori_cp-id)" fill="#1F2BE0">OFFICE</text><text x="97.91166015625" y="364" width="3.2440625" height="9" font-weight="900" font-style="normal" font-size="9" font-family="svglidelabel" letter-spacing="0.08" clip-path="url(#satori_cp-id)" fill="#1F2BE0"> </text><text x="101.15572265624999" y="364" width="54.84304687499999" height="9" font-weight="900" font-style="normal" font-size="9" font-family="svglidelabel" letter-spacing="0.08" clip-path="url(#satori_cp-id)" fill="#1F2BE0">QUARTERLY</text><text x="155.99876953125" y="364" width="3.2440625" height="9" font-weight="900" font-style="normal" font-size="9" font-family="svglidelabel" letter-spacing="0.08" clip-path="url(#satori_cp-id)" fill="#1F2BE0"> </text><text x="159.24283203124997" y="364" width="3.35392578125" height="9" font-weight="900" font-style="normal" font-size="9" font-family="svglidelabel" letter-spacing="0.08" clip-path="url(#satori_cp-id)" fill="#1F2BE0">·</text><text x="162.5967578125" y="364" width="3.2440625" height="9" font-weight="900" font-style="normal" font-size="9" font-family="svglidelabel" letter-spacing="0.08" clip-path="url(#satori_cp-id)" fill="#1F2BE0"> </text><text x="165.84082031249997" y="364" width="38.589375" height="9" font-weight="900" font-style="normal" font-size="9" font-family="svglidelabel" letter-spacing="0.08" clip-path="url(#satori_cp-id)" fill="#1F2BE0">VOLUME</text><text x="204.43019531249996" y="364" width="3.2440625" height="9" font-weight="900" font-style="normal" font-size="9" font-family="svglidelabel" letter-spacing="0.08" clip-path="url(#satori_cp-id)" fill="#1F2BE0"> </text><text x="207.67425781249997" y="364" width="10.1004296875" height="9" font-weight="900" font-style="normal" font-size="9" font-family="svglidelabel" letter-spacing="0.08" clip-path="url(#satori_cp-id)" fill="#1F2BE0">IV</text><mask id="satori_om-id-65"><rect x="34" y="384" width="470" height="19" fill="#fff" mask="url(#satori_om-id)"/></mask><text x="34" y="401" width="12.005859375" height="19.44" font-weight="400" font-style="normal" font-size="18" font-family="svglidedisplay" clip-path="url(#satori_cp-id)" fill="#1F2BE0">A</text><text x="46.005859375" y="401" width="5.0009765625" height="19.44" font-weight="400" font-style="normal" font-size="18" font-family="svglidedisplay" clip-path="url(#satori_cp-id)" fill="#1F2BE0"> </text><text x="51.0068359375" y="401" width="33.0205078125" height="19.44" font-weight="400" font-style="normal" font-size="18" font-family="svglidedisplay" clip-path="url(#satori_cp-id)" fill="#1F2BE0">field</text><text x="84.02734375" y="401" width="5.0009765625" height="19.44" font-weight="400" font-style="normal" font-size="18" font-family="svglidedisplay" clip-path="url(#satori_cp-id)" fill="#1F2BE0"> </text><text x="89.0283203125" y="401" width="47.021484375" height="19.44" font-weight="400" font-style="normal" font-size="18" font-family="svglidedisplay" clip-path="url(#satori_cp-id)" fill="#1F2BE0">report</text><text x="136.0498046875" y="401" width="5.0009765625" height="19.44" font-weight="400" font-style="normal" font-size="18" font-family="svglidedisplay" clip-path="url(#satori_cp-id)" fill="#1F2BE0"> </text><text x="141.05078125" y="401" width="20.021484375" height="19.44" font-weight="400" font-style="normal" font-size="18" font-family="svglidedisplay" clip-path="url(#satori_cp-id)" fill="#1F2BE0">on</text><text x="161.072265625" y="401" width="5.0009765625" height="19.44" font-weight="400" font-style="normal" font-size="18" font-family="svglidedisplay" clip-path="url(#satori_cp-id)" fill="#1F2BE0"> </text><text x="166.0732421875" y="401" width="25.0224609375" height="19.44" font-weight="400" font-style="normal" font-size="18" font-family="svglidedisplay" clip-path="url(#satori_cp-id)" fill="#1F2BE0">the</text><text x="191.095703125" y="401" width="5.0009765625" height="19.44" font-weight="400" font-style="normal" font-size="18" font-family="svglidedisplay" clip-path="url(#satori_cp-id)" fill="#1F2BE0"> </text><text x="196.0966796875" y="401" width="39.0234375" height="19.44" font-weight="400" font-style="normal" font-size="18" font-family="svglidedisplay" clip-path="url(#satori_cp-id)" fill="#1F2BE0">state</text><text x="235.1201171875" y="401" width="5.0009765625" height="19.44" font-weight="400" font-style="normal" font-size="18" font-family="svglidedisplay" clip-path="url(#satori_cp-id)" fill="#1F2BE0"> </text><text x="240.12109375" y="401" width="15.01171875" height="19.44" font-weight="400" font-style="normal" font-size="18" font-family="svglidedisplay" clip-path="url(#satori_cp-id)" fill="#1F2BE0">of</text><text x="255.1328125" y="401" width="5.0009765625" height="19.44" font-weight="400" font-style="normal" font-size="18" font-family="svglidedisplay" clip-path="url(#satori_cp-id)" fill="#1F2BE0"> </text><text x="260.1337890625" y="401" width="48.0322265625" height="19.44" font-weight="400" font-style="normal" font-size="18" font-family="svglidedisplay" clip-path="url(#satori_cp-id)" fill="#1F2BE0">things</text><text x="308.166015625" y="401" width="5.0009765625" height="19.44" font-weight="400" font-style="normal" font-size="18" font-family="svglidedisplay" clip-path="url(#satori_cp-id)" fill="#1F2BE0">.</text><mask id="satori_om-id-66"><rect x="742" y="34" width="3" height="58" fill="#fff" mask="url(#satori_om-id)"/></mask><rect x="742" y="34" width="3" height="58" fill="#1F2BE0" clip-path="url(#satori_cp-id)" mask="url(#satori_om-id)"/><mask id="satori_om-id-67"><rect x="748" y="34" width="3" height="58" fill="#fff" mask="url(#satori_om-id)"/></mask><rect x="748" y="34" width="3" height="58" fill="#1F2BE0" clip-path="url(#satori_cp-id)" mask="url(#satori_om-id)"/><mask id="satori_om-id-68"><rect x="754" y="34" width="3" height="58" fill="#fff" mask="url(#satori_om-id)"/></mask><rect x="754" y="34" width="3" height="58" fill="#1F2BE0" clip-path="url(#satori_cp-id)" mask="url(#satori_om-id)"/><mask id="satori_om-id-69"><rect x="760" y="34" width="3" height="58" fill="#fff" mask="url(#satori_om-id)"/></mask><rect x="760" y="34" width="3" height="58" fill="#1F2BE0" clip-path="url(#satori_cp-id)" mask="url(#satori_om-id)"/><mask id="satori_om-id-70"><rect x="766" y="34" width="3" height="58" fill="#fff" mask="url(#satori_om-id)"/></mask><rect x="766" y="34" width="3" height="58" fill="#1F2BE0" clip-path="url(#satori_cp-id)" mask="url(#satori_om-id)"/><mask id="satori_om-id-71"><rect x="772" y="34" width="3" height="58" fill="#fff" mask="url(#satori_om-id)"/></mask><rect x="772" y="34" width="3" height="58" fill="#1F2BE0" clip-path="url(#satori_cp-id)" mask="url(#satori_om-id)"/><mask id="satori_om-id-72"><rect x="778" y="34" width="3" height="58" fill="#fff" mask="url(#satori_om-id)"/></mask><rect x="778" y="34" width="3" height="58" fill="#1F2BE0" clip-path="url(#satori_cp-id)" mask="url(#satori_om-id)"/><mask id="satori_om-id-73"><rect x="784" y="34" width="3" height="58" fill="#fff" mask="url(#satori_om-id)"/></mask><rect x="784" y="34" width="3" height="58" fill="#1F2BE0" clip-path="url(#satori_cp-id)" mask="url(#satori_om-id)"/><mask id="satori_om-id-74"><rect x="790" y="34" width="3" height="58" fill="#fff" mask="url(#satori_om-id)"/></mask><rect x="790" y="34" width="3" height="58" fill="#1F2BE0" clip-path="url(#satori_cp-id)" mask="url(#satori_om-id)"/><mask id="satori_om-id-75"><rect x="796" y="34" width="3" height="58" fill="#fff" mask="url(#satori_om-id)"/></mask><rect x="796" y="34" width="3" height="58" fill="#1F2BE0" clip-path="url(#satori_cp-id)" mask="url(#satori_om-id)"/><mask id="satori_om-id-76"><rect x="792" y="84" width="3" height="92" fill="#fff" mask="url(#satori_om-id)"/></mask><rect x="792" y="84" width="3" height="92" fill="#1F2BE0" clip-path="url(#satori_cp-id)" mask="url(#satori_om-id)"/><mask id="satori_om-id-77"><rect x="798" y="84" width="3" height="92" fill="#fff" mask="url(#satori_om-id)"/></mask><rect x="798" y="84" width="3" height="92" fill="#1F2BE0" clip-path="url(#satori_cp-id)" mask="url(#satori_om-id)"/><mask id="satori_om-id-78"><rect x="804" y="84" width="3" height="92" fill="#fff" mask="url(#satori_om-id)"/></mask><rect x="804" y="84" width="3" height="92" fill="#1F2BE0" clip-path="url(#satori_cp-id)" mask="url(#satori_om-id)"/><mask id="satori_om-id-79"><rect x="810" y="84" width="3" height="92" fill="#fff" mask="url(#satori_om-id)"/></mask><rect x="810" y="84" width="3" height="92" fill="#1F2BE0" clip-path="url(#satori_cp-id)" mask="url(#satori_om-id)"/><mask id="satori_om-id-80"><rect x="816" y="84" width="3" height="92" fill="#fff" mask="url(#satori_om-id)"/></mask><rect x="816" y="84" width="3" height="92" fill="#1F2BE0" clip-path="url(#satori_cp-id)" mask="url(#satori_om-id)"/><mask id="satori_om-id-81"><rect x="822" y="84" width="3" height="92" fill="#fff" mask="url(#satori_om-id)"/></mask><rect x="822" y="84" width="3" height="92" fill="#1F2BE0" clip-path="url(#satori_cp-id)" mask="url(#satori_om-id)"/><mask id="satori_om-id-82"><rect x="828" y="84" width="3" height="92" fill="#fff" mask="url(#satori_om-id)"/></mask><rect x="828" y="84" width="3" height="92" fill="#1F2BE0" clip-path="url(#satori_cp-id)" mask="url(#satori_om-id)"/><mask id="satori_om-id-83"><rect x="834" y="84" width="3" height="92" fill="#fff" mask="url(#satori_om-id)"/></mask><rect x="834" y="84" width="3" height="92" fill="#1F2BE0" clip-path="url(#satori_cp-id)" mask="url(#satori_om-id)"/><mask id="satori_om-id-84"><rect x="704" y="168" width="3" height="146" fill="#fff" mask="url(#satori_om-id)"/></mask><rect x="704" y="168" width="3" height="146" fill="#1F2BE0" clip-path="url(#satori_cp-id)" mask="url(#satori_om-id)"/><mask id="satori_om-id-85"><rect x="710" y="168" width="3" height="146" fill="#fff" mask="url(#satori_om-id)"/></mask><rect x="710" y="168" width="3" height="146" fill="#1F2BE0" clip-path="url(#satori_cp-id)" mask="url(#satori_om-id)"/><mask id="satori_om-id-86"><rect x="716" y="168" width="3" height="146" fill="#fff" mask="url(#satori_om-id)"/></mask><rect x="716" y="168" width="3" height="146" fill="#1F2BE0" clip-path="url(#satori_cp-id)" mask="url(#satori_om-id)"/><mask id="satori_om-id-87"><rect x="722" y="168" width="3" height="146" fill="#fff" mask="url(#satori_om-id)"/></mask><rect x="722" y="168" width="3" height="146" fill="#1F2BE0" clip-path="url(#satori_cp-id)" mask="url(#satori_om-id)"/><mask id="satori_om-id-88"><rect x="728" y="168" width="3" height="146" fill="#fff" mask="url(#satori_om-id)"/></mask><rect x="728" y="168" width="3" height="146" fill="#1F2BE0" clip-path="url(#satori_cp-id)" mask="url(#satori_om-id)"/><mask id="satori_om-id-89"><rect x="734" y="168" width="3" height="146" fill="#fff" mask="url(#satori_om-id)"/></mask><rect x="734" y="168" width="3" height="146" fill="#1F2BE0" clip-path="url(#satori_cp-id)" mask="url(#satori_om-id)"/><mask id="satori_om-id-90"><rect x="740" y="168" width="3" height="146" fill="#fff" mask="url(#satori_om-id)"/></mask><rect x="740" y="168" width="3" height="146" fill="#1F2BE0" clip-path="url(#satori_cp-id)" mask="url(#satori_om-id)"/><mask id="satori_om-id-91"><rect x="746" y="168" width="3" height="146" fill="#fff" mask="url(#satori_om-id)"/></mask><rect x="746" y="168" width="3" height="146" fill="#1F2BE0" clip-path="url(#satori_cp-id)" mask="url(#satori_om-id)"/><mask id="satori_om-id-92"><rect x="752" y="168" width="3" height="146" fill="#fff" mask="url(#satori_om-id)"/></mask><rect x="752" y="168" width="3" height="146" fill="#1F2BE0" clip-path="url(#satori_cp-id)" mask="url(#satori_om-id)"/><mask id="satori_om-id-93"><rect x="758" y="168" width="3" height="146" fill="#fff" mask="url(#satori_om-id)"/></mask><rect x="758" y="168" width="3" height="146" fill="#1F2BE0" clip-path="url(#satori_cp-id)" mask="url(#satori_om-id)"/><mask id="satori_om-id-94"><rect x="764" y="168" width="3" height="146" fill="#fff" mask="url(#satori_om-id)"/></mask><rect x="764" y="168" width="3" height="146" fill="#1F2BE0" clip-path="url(#satori_cp-id)" mask="url(#satori_om-id)"/><mask id="satori_om-id-95"><rect x="770" y="168" width="3" height="146" fill="#fff" mask="url(#satori_om-id)"/></mask><rect x="770" y="168" width="3" height="146" fill="#1F2BE0" clip-path="url(#satori_cp-id)" mask="url(#satori_om-id)"/><mask id="satori_om-id-96"><rect x="760" y="306" width="3" height="70" fill="#fff" mask="url(#satori_om-id)"/></mask><rect x="760" y="306" width="3" height="70" fill="#1F2BE0" clip-path="url(#satori_cp-id)" mask="url(#satori_om-id)"/><mask id="satori_om-id-97"><rect x="766" y="306" width="3" height="70" fill="#fff" mask="url(#satori_om-id)"/></mask><rect x="766" y="306" width="3" height="70" fill="#1F2BE0" clip-path="url(#satori_cp-id)" mask="url(#satori_om-id)"/><mask id="satori_om-id-98"><rect x="772" y="306" width="3" height="70" fill="#fff" mask="url(#satori_om-id)"/></mask><rect x="772" y="306" width="3" height="70" fill="#1F2BE0" clip-path="url(#satori_cp-id)" mask="url(#satori_om-id)"/><mask id="satori_om-id-99"><rect x="778" y="306" width="3" height="70" fill="#fff" mask="url(#satori_om-id)"/></mask><rect x="778" y="306" width="3" height="70" fill="#1F2BE0" clip-path="url(#satori_cp-id)" mask="url(#satori_om-id)"/><mask id="satori_om-id-100"><rect x="784" y="306" width="3" height="70" fill="#fff" mask="url(#satori_om-id)"/></mask><rect x="784" y="306" width="3" height="70" fill="#1F2BE0" clip-path="url(#satori_cp-id)" mask="url(#satori_om-id)"/><mask id="satori_om-id-101"><rect x="790" y="306" width="3" height="70" fill="#fff" mask="url(#satori_om-id)"/></mask><rect x="790" y="306" width="3" height="70" fill="#1F2BE0" clip-path="url(#satori_cp-id)" mask="url(#satori_om-id)"/><mask id="satori_om-id-102"><rect x="796" y="306" width="3" height="70" fill="#fff" mask="url(#satori_om-id)"/></mask><rect x="796" y="306" width="3" height="70" fill="#1F2BE0" clip-path="url(#satori_cp-id)" mask="url(#satori_om-id)"/><mask id="satori_om-id-103"><rect x="802" y="306" width="3" height="70" fill="#fff" mask="url(#satori_om-id)"/></mask><rect x="802" y="306" width="3" height="70" fill="#1F2BE0" clip-path="url(#satori_cp-id)" mask="url(#satori_om-id)"/><mask id="satori_om-id-104"><rect x="720" y="368" width="3" height="122" fill="#fff" mask="url(#satori_om-id)"/></mask><rect x="720" y="368" width="3" height="122" fill="#1F2BE0" clip-path="url(#satori_cp-id)" mask="url(#satori_om-id)"/><mask id="satori_om-id-105"><rect x="726" y="368" width="3" height="122" fill="#fff" mask="url(#satori_om-id)"/></mask><rect x="726" y="368" width="3" height="122" fill="#1F2BE0" clip-path="url(#satori_cp-id)" mask="url(#satori_om-id)"/><mask id="satori_om-id-106"><rect x="732" y="368" width="3" height="122" fill="#fff" mask="url(#satori_om-id)"/></mask><rect x="732" y="368" width="3" height="122" fill="#1F2BE0" clip-path="url(#satori_cp-id)" mask="url(#satori_om-id)"/><mask id="satori_om-id-107"><rect x="738" y="368" width="3" height="122" fill="#fff" mask="url(#satori_om-id)"/></mask><rect x="738" y="368" width="3" height="122" fill="#1F2BE0" clip-path="url(#satori_cp-id)" mask="url(#satori_om-id)"/><mask id="satori_om-id-108"><rect x="744" y="368" width="3" height="122" fill="#fff" mask="url(#satori_om-id)"/></mask><rect x="744" y="368" width="3" height="122" fill="#1F2BE0" clip-path="url(#satori_cp-id)" mask="url(#satori_om-id)"/><mask id="satori_om-id-109"><rect x="750" y="368" width="3" height="122" fill="#fff" mask="url(#satori_om-id)"/></mask><rect x="750" y="368" width="3" height="122" fill="#1F2BE0" clip-path="url(#satori_cp-id)" mask="url(#satori_om-id)"/><mask id="satori_om-id-110"><rect x="756" y="368" width="3" height="122" fill="#fff" mask="url(#satori_om-id)"/></mask><rect x="756" y="368" width="3" height="122" fill="#1F2BE0" clip-path="url(#satori_cp-id)" mask="url(#satori_om-id)"/><mask id="satori_om-id-111"><rect x="762" y="368" width="3" height="122" fill="#fff" mask="url(#satori_om-id)"/></mask><rect x="762" y="368" width="3" height="122" fill="#1F2BE0" clip-path="url(#satori_cp-id)" mask="url(#satori_om-id)"/><mask id="satori_om-id-112"><rect x="768" y="368" width="3" height="122" fill="#fff" mask="url(#satori_om-id)"/></mask><rect x="768" y="368" width="3" height="122" fill="#1F2BE0" clip-path="url(#satori_cp-id)" mask="url(#satori_om-id)"/><mask id="satori_om-id-113"><rect x="774" y="368" width="3" height="122" fill="#fff" mask="url(#satori_om-id)"/></mask><rect x="774" y="368" width="3" height="122" fill="#1F2BE0" clip-path="url(#satori_cp-id)" mask="url(#satori_om-id)"/><mask id="satori_om-id-114"><rect x="780" y="368" width="3" height="122" fill="#fff" mask="url(#satori_om-id)"/></mask><rect x="780" y="368" width="3" height="122" fill="#1F2BE0" clip-path="url(#satori_cp-id)" mask="url(#satori_om-id)"/><mask id="satori_om-id-115"><rect x="786" y="368" width="3" height="122" fill="#fff" mask="url(#satori_om-id)"/></mask><rect x="786" y="368" width="3" height="122" fill="#1F2BE0" clip-path="url(#satori_cp-id)" mask="url(#satori_om-id)"/><mask id="satori_om-id-116"><rect x="798" y="482" width="3" height="62" fill="#fff" mask="url(#satori_om-id)"/></mask><rect x="798" y="482" width="3" height="62" fill="#1F2BE0" clip-path="url(#satori_cp-id)" mask="url(#satori_om-id)"/><mask id="satori_om-id-117"><rect x="804" y="482" width="3" height="62" fill="#fff" mask="url(#satori_om-id)"/></mask><rect x="804" y="482" width="3" height="62" fill="#1F2BE0" clip-path="url(#satori_cp-id)" mask="url(#satori_om-id)"/><mask id="satori_om-id-118"><rect x="810" y="482" width="3" height="62" fill="#fff" mask="url(#satori_om-id)"/></mask><rect x="810" y="482" width="3" height="62" fill="#1F2BE0" clip-path="url(#satori_cp-id)" mask="url(#satori_om-id)"/><mask id="satori_om-id-119"><rect x="816" y="482" width="3" height="62" fill="#fff" mask="url(#satori_om-id)"/></mask><rect x="816" y="482" width="3" height="62" fill="#1F2BE0" clip-path="url(#satori_cp-id)" mask="url(#satori_om-id)"/><mask id="satori_om-id-120"><rect x="822" y="482" width="3" height="62" fill="#fff" mask="url(#satori_om-id)"/></mask><rect x="822" y="482" width="3" height="62" fill="#1F2BE0" clip-path="url(#satori_cp-id)" mask="url(#satori_om-id)"/><mask id="satori_om-id-121"><rect x="828" y="482" width="3" height="62" fill="#fff" mask="url(#satori_om-id)"/></mask><rect x="828" y="482" width="3" height="62" fill="#1F2BE0" clip-path="url(#satori_cp-id)" mask="url(#satori_om-id)"/><mask id="satori_om-id-122"><rect x="834" y="482" width="3" height="62" fill="#fff" mask="url(#satori_om-id)"/></mask><rect x="834" y="482" width="3" height="62" fill="#1F2BE0" clip-path="url(#satori_cp-id)" mask="url(#satori_om-id)"/><mask id="satori_om-id-123"><rect x="840" y="482" width="3" height="62" fill="#fff" mask="url(#satori_om-id)"/></mask><rect x="840" y="482" width="3" height="62" fill="#1F2BE0" clip-path="url(#satori_cp-id)" mask="url(#satori_om-id)"/><mask id="satori_om-id-124"><rect x="922" y="184" width="12" height="50" fill="#fff" mask="url(#satori_om-id)"/></mask><text x="922" y="192" width="17.4921875" height="9.6" font-weight="800" font-style="normal" font-size="8" font-family="svglidemetric" clip-path="url(#satori_cp-id)" fill="#1F2BE0">issue</text><text x="939.4921875" y="192" width="2.9375" height="9.6" font-weight="800" font-style="normal" font-size="8" font-family="svglidemetric" clip-path="url(#satori_cp-id)" fill="#1F2BE0">.</text><text x="942.4296875" y="192" width="8.390625" height="9.6" font-weight="800" font-style="normal" font-size="8" font-family="svglidemetric" clip-path="url(#satori_cp-id)" fill="#1F2BE0">04</text><text x="950.8203125" y="192" width="2.41015625" height="9.6" font-weight="800" font-style="normal" font-size="8" font-family="svglidemetric" clip-path="url(#satori_cp-id)" fill="#1F2BE0"> </text><text x="922" y="202" width="21.47265625" height="9.6" font-weight="800" font-style="normal" font-size="8" font-family="svglidemetric" clip-path="url(#satori_cp-id)" fill="#1F2BE0">spring</text><text x="943.47265625" y="202" width="2.41015625" height="9.6" font-weight="800" font-style="normal" font-size="8" font-family="svglidemetric" clip-path="url(#satori_cp-id)" fill="#1F2BE0"> </text><text x="922" y="212" width="16.78125" height="9.6" font-weight="800" font-style="normal" font-size="8" font-family="svglidemetric" clip-path="url(#satori_cp-id)" fill="#1F2BE0">2026</text><text x="938.78125" y="212" width="2.41015625" height="9.6" font-weight="800" font-style="normal" font-size="8" font-family="svglidemetric" clip-path="url(#satori_cp-id)" fill="#1F2BE0"> </text><text x="922" y="222" width="16.41796875" height="9.6" font-weight="800" font-style="normal" font-size="8" font-family="svglidemetric" clip-path="url(#satori_cp-id)" fill="#1F2BE0">field</text><text x="938.41796875" y="222" width="2.9375" height="9.6" font-weight="800" font-style="normal" font-size="8" font-family="svglidemetric" clip-path="url(#satori_cp-id)" fill="#1F2BE0">-</text><text x="922" y="232" width="32.00390625" height="9.6" font-weight="800" font-style="normal" font-size="8" font-family="svglidemetric" clip-path="url(#satori_cp-id)" fill="#1F2BE0">office.co</text><mask id="satori_om-id-125"><rect x="34" y="470" width="260" height="24" fill="#fff" mask="url(#satori_om-id)"/></mask><text x="34" y="479" width="25.25390625" height="12" font-weight="700" font-style="normal" font-size="8" font-family="svglidemetric" clip-path="url(#satori_cp-id)" fill="#1F2BE0">EDITED</text><text x="59.25390625" y="479" width="2.41015625" height="12" font-weight="700" font-style="normal" font-size="8" font-family="svglidemetric" clip-path="url(#satori_cp-id)" fill="#1F2BE0"> </text><text x="61.6640625" y="479" width="9.08984375" height="12" font-weight="700" font-style="normal" font-size="8" font-family="svglidemetric" clip-path="url(#satori_cp-id)" fill="#1F2BE0">BY</text><text x="70.75390625" y="479" width="4" height="12" font-weight="700" font-style="normal" font-size="8" font-family="svglidemetric" clip-path="url(#satori_cp-id)" fill="#1F2BE0">
</text><text x="34" y="491" width="17.66015625" height="12" font-weight="700" font-style="normal" font-size="8" font-family="svglidemetric" clip-path="url(#satori_cp-id)" fill="#1F2BE0">Field</text><text x="51.66015625" y="491" width="2.41015625" height="12" font-weight="700" font-style="normal" font-size="8" font-family="svglidemetric" clip-path="url(#satori_cp-id)" fill="#1F2BE0"> </text><text x="54.0703125" y="491" width="21.91015625" height="12" font-weight="700" font-style="normal" font-size="8" font-family="svglidemetric" clip-path="url(#satori_cp-id)" fill="#1F2BE0">Office</text><text x="75.98046875" y="491" width="2.41015625" height="12" font-weight="700" font-style="normal" font-size="8" font-family="svglidemetric" clip-path="url(#satori_cp-id)" fill="#1F2BE0"> </text><text x="78.390625" y="491" width="30.44140625" height="12" font-weight="700" font-style="normal" font-size="8" font-family="svglidemetric" clip-path="url(#satori_cp-id)" fill="#1F2BE0">Editorial</text><text x="108.83203125" y="491" width="2.41015625" height="12" font-weight="700" font-style="normal" font-size="8" font-family="svglidemetric" clip-path="url(#satori_cp-id)" fill="#1F2BE0"> </text><text x="111.2421875" y="491" width="2.9375" height="12" font-weight="700" font-style="normal" font-size="8" font-family="svglidemetric" clip-path="url(#satori_cp-id)" fill="#1F2BE0">·</text><text x="114.1796875" y="491" width="2.41015625" height="12" font-weight="700" font-style="normal" font-size="8" font-family="svglidemetric" clip-path="url(#satori_cp-id)" fill="#1F2BE0"> </text><text x="116.58984375" y="491" width="10.703125" height="12" font-weight="700" font-style="normal" font-size="8" font-family="svglidemetric" clip-path="url(#satori_cp-id)" fill="#1F2BE0">Lin</text><text x="127.29296875" y="491" width="2.41015625" height="12" font-weight="700" font-style="normal" font-size="8" font-family="svglidemetric" clip-path="url(#satori_cp-id)" fill="#1F2BE0"> </text><text x="129.703125" y="491" width="9.69140625" height="12" font-weight="700" font-style="normal" font-size="8" font-family="svglidemetric" clip-path="url(#satori_cp-id)" fill="#1F2BE0">Ito</text><text x="139.39453125" y="491" width="2.41015625" height="12" font-weight="700" font-style="normal" font-size="8" font-family="svglidemetric" clip-path="url(#satori_cp-id)" fill="#1F2BE0"> </text><text x="141.8046875" y="491" width="5.6484375" height="12" font-weight="700" font-style="normal" font-size="8" font-family="svglidemetric" clip-path="url(#satori_cp-id)" fill="#1F2BE0">&amp;</text><text x="147.453125" y="491" width="2.41015625" height="12" font-weight="700" font-style="normal" font-size="8" font-family="svglidemetric" clip-path="url(#satori_cp-id)" fill="#1F2BE0"> </text><text x="149.86328125" y="491" width="17.23828125" height="12" font-weight="700" font-style="normal" font-size="8" font-family="svglidemetric" clip-path="url(#satori_cp-id)" fill="#1F2BE0">Anya</text><text x="167.1015625" y="491" width="2.41015625" height="12" font-weight="700" font-style="normal" font-size="8" font-family="svglidemetric" clip-path="url(#satori_cp-id)" fill="#1F2BE0"> </text><text x="169.51171875" y="491" width="32.296875" height="12" font-weight="700" font-style="normal" font-size="8" font-family="svglidemetric" clip-path="url(#satori_cp-id)" fill="#1F2BE0">Mehrotra</text><mask id="satori_om-id-126"><rect x="216" y="470" width="300" height="24" fill="#fff" mask="url(#satori_om-id)"/></mask><text x="216" y="479" width="53.3359375" height="12" font-weight="700" font-style="normal" font-size="8" font-family="svglidebody" clip-path="url(#satori_cp-id)" fill="#1F2BE0">DISTRIBUTED</text><text x="269.3359375" y="479" width="4" height="12" font-weight="700" font-style="normal" font-size="8" font-family="svglidebody" clip-path="url(#satori_cp-id)" fill="#1F2BE0">
</text><text x="216" y="491" width="9.3359375" height="12" font-weight="700" font-style="normal" font-size="8" font-family="svglidebody" clip-path="url(#satori_cp-id)" fill="#1F2BE0">To</text><text x="225.3359375" y="491" width="2.22265625" height="12" font-weight="700" font-style="normal" font-size="8" font-family="svglidebody" clip-path="url(#satori_cp-id)" fill="#1F2BE0"> </text><text x="227.55859375" y="491" width="40.90234375" height="12" font-weight="700" font-style="normal" font-size="8" font-family="svglidebody" clip-path="url(#satori_cp-id)" fill="#1F2BE0">subscribers</text><text x="268.4609375" y="491" width="2.22265625" height="12" font-weight="700" font-style="normal" font-size="8" font-family="svglidebody" clip-path="url(#satori_cp-id)" fill="#1F2BE0"> </text><text x="270.68359375" y="491" width="5.3359375" height="12" font-weight="700" font-style="normal" font-size="8" font-family="svglidebody" clip-path="url(#satori_cp-id)" fill="#1F2BE0">&amp;</text><text x="276.01953125" y="491" width="2.22265625" height="12" font-weight="700" font-style="normal" font-size="8" font-family="svglidebody" clip-path="url(#satori_cp-id)" fill="#1F2BE0"> </text><text x="278.2421875" y="491" width="11.12109375" height="12" font-weight="700" font-style="normal" font-size="8" font-family="svglidebody" clip-path="url(#satori_cp-id)" fill="#1F2BE0">the</text><text x="289.36328125" y="491" width="2.22265625" height="12" font-weight="700" font-style="normal" font-size="8" font-family="svglidebody" clip-path="url(#satori_cp-id)" fill="#1F2BE0"> </text><text x="291.5859375" y="491" width="17.796875" height="12" font-weight="700" font-style="normal" font-size="8" font-family="svglidebody" clip-path="url(#satori_cp-id)" fill="#1F2BE0">open</text><text x="309.3828125" y="491" width="2.22265625" height="12" font-weight="700" font-style="normal" font-size="8" font-family="svglidebody" clip-path="url(#satori_cp-id)" fill="#1F2BE0"> </text><text x="311.60546875" y="491" width="14.67578125" height="12" font-weight="700" font-style="normal" font-size="8" font-family="svglidebody" clip-path="url(#satori_cp-id)" fill="#1F2BE0">web</text><text x="326.28125" y="491" width="2.22265625" height="12" font-weight="700" font-style="normal" font-size="8" font-family="svglidebody" clip-path="url(#satori_cp-id)" fill="#1F2BE0"> </text><text x="328.50390625" y="491" width="2.22265625" height="12" font-weight="700" font-style="normal" font-size="8" font-family="svglidebody" clip-path="url(#satori_cp-id)" fill="#1F2BE0">·</text><text x="330.7265625" y="491" width="2.22265625" height="12" font-weight="700" font-style="normal" font-size="8" font-family="svglidebody" clip-path="url(#satori_cp-id)" fill="#1F2BE0"> </text><text x="332.94921875" y="491" width="18.2265625" height="12" font-weight="700" font-style="normal" font-size="8" font-family="svglidebody" clip-path="url(#satori_cp-id)" fill="#1F2BE0">twice</text><text x="351.17578125" y="491" width="2.22265625" height="12" font-weight="700" font-style="normal" font-size="8" font-family="svglidebody" clip-path="url(#satori_cp-id)" fill="#1F2BE0"> </text><text x="353.3984375" y="491" width="4.44921875" height="12" font-weight="700" font-style="normal" font-size="8" font-family="svglidebody" clip-path="url(#satori_cp-id)" fill="#1F2BE0">a</text><text x="357.84765625" y="491" width="2.22265625" height="12" font-weight="700" font-style="normal" font-size="8" font-family="svglidebody" clip-path="url(#satori_cp-id)" fill="#1F2BE0"> </text><text x="360.0703125" y="491" width="15.5625" height="12" font-weight="700" font-style="normal" font-size="8" font-family="svglidebody" clip-path="url(#satori_cp-id)" fill="#1F2BE0">year</text><mask id="satori_om-id-127"><rect x="900" y="502" width="26" height="8" fill="#fff" mask="url(#satori_om-id)"/></mask><text x="900" y="509" width="8.390625" height="7.6" font-weight="800" font-style="normal" font-size="8" font-family="svglidemetric" clip-path="url(#satori_cp-id)" fill="#1F2BE0">01</text><text x="908.390625" y="509" width="2.41015625" height="7.6" font-weight="800" font-style="normal" font-size="8" font-family="svglidemetric" clip-path="url(#satori_cp-id)" fill="#1F2BE0"> </text><text x="910.80078125" y="509" width="4.1953125" height="7.6" font-weight="800" font-style="normal" font-size="8" font-family="svglidemetric" clip-path="url(#satori_cp-id)" fill="#1F2BE0">/</text><text x="914.99609375" y="509" width="2.41015625" height="7.6" font-weight="800" font-style="normal" font-size="8" font-family="svglidemetric" clip-path="url(#satori_cp-id)" fill="#1F2BE0"> </text><text x="917.40625" y="509" width="8.390625" height="7.6" font-weight="800" font-style="normal" font-size="8" font-family="svglidemetric" clip-path="url(#satori_cp-id)" fill="#1F2BE0">08</text></svg>