<svg width="960" height="540" viewBox="0 0 960 540" xmlns="http://www.w3.org/2000/svg"><clipPath id="satori_cp-id"><rect x="0" y="0" width="960" height="540"/></clipPath><mask id="satori_om-id"><rect x="0" y="0" width="960" height="540" fill="#fff"/></mask><rect x="0" y="0" width="960" height="540" fill="#F2B6C6"/><mask id="satori_om-id-0"><rect x="32" y="34" width="316" height="14" fill="#fff" mask="url(#satori_om-id)"/></mask><text x="32" y="46" width="41.35546875" height="13.65" font-weight="800" font-style="normal" font-size="13" font-family="svglidelabel" letter-spacing="5" clip-path="url(#satori_cp-id)" fill="#7A1F35">VOL</text><text x="73.35546875" y="46" width="9.72900390625" height="13.65" font-weight="800" font-style="normal" font-size="13" font-family="svglidelabel" letter-spacing="5" clip-path="url(#satori_cp-id)" fill="#7A1F35">.</text><text x="83.08447265625" y="46" width="9.5703125" height="13.65" font-weight="800" font-style="normal" font-size="13" font-family="svglidelabel" letter-spacing="5" clip-path="url(#satori_cp-id)" fill="#7A1F35"> </text><text x="92.65478515625" y="46" width="26.529296875" height="13.65" font-weight="800" font-style="normal" font-size="13" font-family="svglidelabel" letter-spacing="5" clip-path="url(#satori_cp-id)" fill="#7A1F35">04</text><text x="119.18408203125" y="46" width="9.5703125" height="13.65" font-weight="800" font-style="normal" font-size="13" font-family="svglidelabel" letter-spacing="5" clip-path="url(#satori_cp-id)" fill="#7A1F35"> </text><text x="128.75439453125" y="46" width="18" height="13.65" font-weight="800" font-style="normal" font-size="13" font-family="svglidelabel" letter-spacing="5" clip-path="url(#satori_cp-id)" fill="#7A1F35">—</text><text x="146.75439453125" y="46" width="9.5703125" height="13.65" font-weight="800" font-style="normal" font-size="13" font-family="svglidelabel" letter-spacing="5" clip-path="url(#satori_cp-id)" fill="#7A1F35"> </text><text x="156.32470703125" y="46" width="117.58544921875" height="13.65" font-weight="800" font-style="normal" font-size="13" font-family="svglidelabel" letter-spacing="5" clip-path="url(#satori_cp-id)" fill="#7A1F35">EDITORIAL</text><text x="273.91015625" y="46" width="9.5703125" height="13.65" font-weight="800" font-style="normal" font-size="13" font-family="svglidelabel" letter-spacing="5" clip-path="url(#satori_cp-id)" fill="#7A1F35"> </text><text x="283.48046875" y="46" width="64.1142578125" height="13.65" font-weight="800" font-style="normal" font-size="13" font-family="svglidelabel" letter-spacing="5" clip-path="url(#satori_cp-id)" fill="#7A1F35">BRIEF</text><mask id="satori_om-id-1"><rect x="344" y="34" width="280" height="28" fill="#fff" mask="url(#satori_om-id)"/></mask><text x="384.670654296875" y="46" width="81.04150390625" height="13.65" font-weight="800" font-style="normal" font-size="13" font-family="svglidelabel" letter-spacing="5" clip-path="url(#satori_cp-id)" fill="#7A1F35">SPRING</text><text x="465.712158203125" y="46" width="9.5703125" height="13.65" font-weight="800" font-style="normal" font-size="13" font-family="svglidelabel" letter-spacing="5" clip-path="url(#satori_cp-id)" fill="#7A1F35"> </text><text x="475.282470703125" y="46" width="10.9033203125" height="13.65" font-weight="800" font-style="normal" font-size="13" font-family="svglidelabel" letter-spacing="5" clip-path="url(#satori_cp-id)" fill="#7A1F35">/</text><text x="486.185791015625" y="46" width="9.5703125" height="13.65" font-weight="800" font-style="normal" font-size="13" font-family="svglidelabel" letter-spacing="5" clip-path="url(#satori_cp-id)" fill="#7A1F35"> </text><text x="495.756103515625" y="46" width="87.5732421875" height="13.65" font-weight="800" font-style="normal" font-size="13" font-family="svglidelabel" letter-spacing="5" clip-path="url(#satori_cp-id)" fill="#7A1F35">SUMMER</text><text x="583.329345703125" y="46" width="9.5703125" height="13.65" font-weight="800" font-style="normal" font-size="13" font-family="svglidelabel" letter-spacing="5" clip-path="url(#satori_cp-id)" fill="#7A1F35"> </text><text x="437.926025390625" y="60" width="92.14794921875" height="13.65" font-weight="800" font-style="normal" font-size="13" font-family="svglidelabel" letter-spacing="5" clip-path="url(#satori_cp-id)" fill="#7A1F35">EDITION</text><mask id="satori_om-id-2"><rect x="798" y="34" width="130" height="12" fill="#fff" mask="url(#satori_om-id)"/></mask><text x="798" y="45" width="27.900390625" height="12.35" font-weight="800" font-style="normal" font-size="13" font-family="svglidemetric" letter-spacing="5" clip-path="url(#satori_cp-id)" fill="#7A1F35">FW</text><text x="825.900390625" y="45" width="8.91650390625" height="12.35" font-weight="800" font-style="normal" font-size="13" font-family="svglidemetric" letter-spacing="5" clip-path="url(#satori_cp-id)" fill="#7A1F35"> </text><text x="834.81689453125" y="45" width="9.7734375" height="12.35" font-weight="800" font-style="normal" font-size="13" font-family="svglidemetric" letter-spacing="5" clip-path="url(#satori_cp-id)" fill="#7A1F35">·</text><text x="844.59033203125" y="45" width="8.91650390625" height="12.35" font-weight="800" font-style="normal" font-size="13" font-family="svglidemetric" letter-spacing="5" clip-path="url(#satori_cp-id)" fill="#7A1F35"> </text><text x="853.5068359375" y="45" width="47.26953125" height="12.35" font-weight="800" font-style="normal" font-size="13" font-family="svglidemetric" letter-spacing="5" clip-path="url(#satori_cp-id)" fill="#7A1F35">2026</text><mask id="satori_om-id-3"><rect x="32" y="60" width="760" height="136" fill="#fff" mask="url(#satori_om-id)"/></mask><mask id="satori_om-id-3-0"><rect x="32" y="60" width="92" height="38" fill="#fff" mask="url(#satori_om-id)"/></mask><path x="32" y="60" width="92" height="38" fill="#7A1F35" d="M51,60 h54 a19,19 0 0 1 19,19 v0 a19,19 0 0 1 -19,19 h-54 a19,19 0 0 1 -19,-19 v0 a19,19 0 0 1 19,-19" clip-path="url(#satori_cp-id)" mask="url(#satori_om-id)"/><text x="50" y="87" width="50.19287109375" height="28.35" font-weight="900" font-style="normal" font-size="21" font-family="svglidebody" clip-path="url(#satori_cp-id)" fill="#F2D86A">focus</text><mask id="satori_om-id-3-1"><rect x="135" y="60" width="221" height="38" fill="#fff" mask="url(#satori_om-id)"/></mask><path x="135" y="60" width="221" height="38" fill="#F2D86A" d="M154,60 h183 a19,19 0 0 1 19,19 v0 a19,19 0 0 1 -19,19 h-183 a19,19 0 0 1 -19,-19 v0 a19,19 0 0 1 19,-19" clip-path="url(#satori_cp-id)" mask="url(#satori_om-id)"/><text x="153" y="87" width="39.69287109375" height="28.35" font-weight="900" font-style="normal" font-size="21" font-family="svglidebody" clip-path="url(#satori_cp-id)" fill="#7A1F35">tech</text><text x="192.69287109375" y="87" width="6.9931640625" height="28.35" font-weight="900" font-style="normal" font-size="21" font-family="svglidebody" clip-path="url(#satori_cp-id)" fill="#7A1F35">-</text><text x="199.68603515625" y="87" width="86.419921875" height="28.35" font-weight="900" font-style="normal" font-size="21" font-family="svglidebody" clip-path="url(#satori_cp-id)" fill="#7A1F35">equipped</text><mask id="satori_om-id-3-2"><rect x="367" y="60" width="170" height="38" fill="#fff" mask="url(#satori_om-id)"/></mask><path x="367" y="60" width="170" height="38" fill="#7A1F35" d="M386,60 h132 a19,19 0 0 1 19,19 v0 a19,19 0 0 1 -19,19 h-132 a19,19 0 0 1 -19,-19 v0 a19,19 0 0 1 19,-19" clip-path="url(#satori_cp-id)" mask="url(#satori_om-id)"/><text x="385" y="87" width="82.8515625" height="28.35" font-weight="900" font-style="normal" font-size="21" font-family="svglidebody" clip-path="url(#satori_cp-id)" fill="#F2D86A">creativity</text><mask id="satori_om-id-3-3"><rect x="548" y="60" width="102" height="38" fill="#fff" mask="url(#satori_om-id)"/></mask><path x="548" y="60" width="102" height="38" fill="#F2D86A" d="M567,60 h64 a19,19 0 0 1 19,19 v0 a19,19 0 0 1 -19,19 h-64 a19,19 0 0 1 -19,-19 v0 a19,19 0 0 1 19,-19" clip-path="url(#satori_cp-id)" mask="url(#satori_om-id)"/><text x="566" y="87" width="57.20654296875" height="28.35" font-weight="900" font-style="normal" font-size="21" font-family="svglidebody" clip-path="url(#satori_cp-id)" fill="#7A1F35">coffee</text><mask id="satori_om-id-3-4"><rect x="32" y="109" width="153" height="38" fill="#fff" mask="url(#satori_om-id)"/></mask><path x="32" y="109" width="153" height="38" fill="#7A1F35" d="M51,109 h115 a19,19 0 0 1 19,19 v0 a19,19 0 0 1 -19,19 h-115 a19,19 0 0 1 -19,-19 v0 a19,19 0 0 1 19,-19" clip-path="url(#satori_cp-id)" mask="url(#satori_om-id)"/><text x="50" y="136" width="101.52392578125" height="28.35" font-weight="900" font-style="normal" font-size="21" font-family="svglidebody" clip-path="url(#satori_cp-id)" fill="#F2D86A">community</text><mask id="satori_om-id-3-5"><rect x="196" y="109" width="153" height="38" fill="#fff" mask="url(#satori_om-id)"/></mask><path x="196" y="109" width="153" height="38" fill="#F2D86A" d="M215,109 h115 a19,19 0 0 1 19,19 v0 a19,19 0 0 1 -19,19 h-115 a19,19 0 0 1 -19,-19 v0 a19,19 0 0 1 19,-19" clip-path="url(#satori_cp-id)" mask="url(#satori_om-id)"/><text x="214" y="136" width="94.541015625" height="28.35" font-weight="900" font-style="normal" font-size="21" font-family="svglidebody" clip-path="url(#satori_cp-id)" fill="#7A1F35">coworking</text><mask id="satori_om-id-3-6"><rect x="360" y="109" width="204" height="38" fill="#fff" mask="url(#satori_om-id)"/></mask><path x="360" y="109" width="204" height="38" fill="#7A1F35" d="M379,109 h166 a19,19 0 0 1 19,19 v0 a19,19 0 0 1 -19,19 h-166 a19,19 0 0 1 -19,-19 v0 a19,19 0 0 1 19,-19" clip-path="url(#satori_cp-id)" mask="url(#satori_om-id)"/><text x="378" y="136" width="106.2099609375" height="28.35" font-weight="900" font-style="normal" font-size="21" font-family="svglidebody" clip-path="url(#satori_cp-id)" fill="#F2D86A">productivity</text><mask id="satori_om-id-3-7"><rect x="575" y="109" width="187" height="38" fill="#fff" mask="url(#satori_om-id)"/></mask><path x="575" y="109" width="187" height="38" fill="#F2D86A" d="M594,109 h149 a19,19 0 0 1 19,19 v0 a19,19 0 0 1 -19,19 h-149 a19,19 0 0 1 -19,-19 v0 a19,19 0 0 1 19,-19" clip-path="url(#satori_cp-id)" mask="url(#satori_om-id)"/><text x="593" y="136" width="95.72021484375" height="28.35" font-weight="900" font-style="normal" font-size="21" font-family="svglidebody" clip-path="url(#satori_cp-id)" fill="#7A1F35">inspiration</text><mask id="satori_om-id-3-8"><rect x="32" y="158" width="136" height="38" fill="#fff" mask="url(#satori_om-id)"/></mask><path x="32" y="158" width="136" height="38" fill="#7A1F35" d="M51,158 h98 a19,19 0 0 1 19,19 v0 a19,19 0 0 1 -19,19 h-98 a19,19 0 0 1 -19,-19 v0 a19,19 0 0 1 19,-19" clip-path="url(#satori_cp-id)" mask="url(#satori_om-id)"/><text x="50" y="185" width="65.36865234375" height="28.35" font-weight="900" font-style="normal" font-size="21" font-family="svglidebody" clip-path="url(#satori_cp-id)" fill="#F2D86A">flexible</text><mask id="satori_om-id-3-9"><rect x="179" y="158" width="153" height="38" fill="#fff" mask="url(#satori_om-id)"/></mask><path x="179" y="158" width="153" height="38" fill="#F2D86A" d="M198,158 h115 a19,19 0 0 1 19,19 v0 a19,19 0 0 1 -19,19 h-115 a19,19 0 0 1 -19,-19 v0 a19,19 0 0 1 19,-19" clip-path="url(#satori_cp-id)" mask="url(#satori_om-id)"/><text x="197" y="185" width="100.37548828125" height="28.35" font-weight="900" font-style="normal" font-size="21" font-family="svglidebody" clip-path="url(#satori_cp-id)" fill="#7A1F35">workshops</text><mask id="satori_om-id-3-10"><rect x="343" y="158" width="221" height="38" fill="#fff" mask="url(#satori_om-id)"/></mask><path x="343" y="158" width="221" height="38" fill="#7A1F35" d="M362,158 h183 a19,19 0 0 1 19,19 v0 a19,19 0 0 1 -19,19 h-183 a19,19 0 0 1 -19,-19 v0 a19,19 0 0 1 19,-19" clip-path="url(#satori_cp-id)" mask="url(#satori_om-id)"/><text x="361" y="185" width="119.07861328125" height="28.35" font-weight="900" font-style="normal" font-size="21" font-family="svglidebody" clip-path="url(#satori_cp-id)" fill="#F2D86A">collaboration</text><mask id="satori_om-id-3-11"><rect x="575" y="158" width="102" height="38" fill="#fff" mask="url(#satori_om-id)"/></mask><path x="575" y="158" width="102" height="38" fill="#F2D86A" d="M594,158 h64 a19,19 0 0 1 19,19 v0 a19,19 0 0 1 -19,19 h-64 a19,19 0 0 1 -19,-19 v0 a19,19 0 0 1 19,-19" clip-path="url(#satori_cp-id)" mask="url(#satori_om-id)"/><text x="593" y="185" width="56.03759765625" height="28.35" font-weight="900" font-style="normal" font-size="21" font-family="svglidebody" clip-path="url(#satori_cp-id)" fill="#7A1F35">studio</text><mask id="satori_om-id-4"><rect x="32" y="407" width="420" height="88" fill="#fff" mask="url(#satori_om-id)"/></mask><text x="32" y="490" width="370.2275390625" height="88.2" font-weight="900" font-style="normal" font-size="98" font-family="svglidedisplay" clip-path="url(#satori_cp-id)" fill="#7A1F35">STUDIO</text><mask id="satori_om-id-5"><rect x="446" y="404" width="86" height="89" fill="#fff" mask="url(#satori_om-id)"/></mask><text x="446" y="491" width="70.0341796875" height="89.25" font-weight="500" font-style="normal" font-size="105" font-family="svglidedisplay" clip-path="url(#satori_cp-id)" fill="#F2D86A">&amp;</text><mask id="satori_om-id-6"><rect x="522" y="407" width="410" height="88" fill="#fff" mask="url(#satori_om-id)"/></mask><text x="522" y="490" width="332.2333984375" height="88.2" font-weight="900" font-style="normal" font-size="98" font-family="svglidedisplay" clip-path="url(#satori_cp-id)" fill="#7A1F35">SALON</text></svg>