<svg width="960" height="540" viewBox="0 0 960 540" xmlns="http://www.w3.org/2000/svg"><mask id="satori_om-id"><rect x="0" y="0" width="960" height="540" fill="#fff"/></mask><rect x="0" y="0" width="960" height="540" fill="#1C2644"/><defs><clipPath id="satori_bc-id-0"><rect x="56" y="56" width="848" height="52"/></clipPath></defs><mask id="satori_om-id-0"><rect x="56" y="56" width="848" height="51" fill="#fff"/><path width="848" height="52" fill="none" stroke="#000" stroke-width="2" d="M904,108 A0,0 0 0 1 904,108 h-848 A0,0 0 0 1 56,108"/></mask><path width="848" height="52" clip-path="url(#satori_bc-id-0)" fill="none" stroke="#C8A870" stroke-width="2" d="M904,108 A0,0 0 0 1 904,108 h-848 A0,0 0 0 1 56,108"/><mask id="satori_om-id-1"><rect x="62" y="72" width="113" height="20" fill="#fff"/></mask><text x="62" y="88" width="64.18212890625" height="20.09765625" font-weight="850" font-style="normal" font-size="15" font-family="svglidedefault" fill="#C8A870">PRIVATE</text><text x="126.18212890625" y="88" width="4.16748046875" height="20.09765625" font-weight="850" font-style="normal" font-size="15" font-family="svglidedefault" fill="#C8A870"> </text><text x="130.349609375" y="88" width="44.17236328125" height="20.09765625" font-weight="850" font-style="normal" font-size="15" font-family="svglidedefault" fill="#C8A870">BRIEF</text><mask id="satori_om-id-2"><rect x="840" y="72" width="58" height="20" fill="#fff"/></mask><text x="840" y="88" width="33.369140625" height="20.09765625" font-weight="750" font-style="normal" font-size="15" font-family="svglidedefault" fill="#8A96A8">2026</text><text x="873.369140625" y="88" width="4.16748046875" height="20.09765625" font-weight="750" font-style="normal" font-size="15" font-family="svglidedefault" fill="#8A96A8"> </text><text x="877.53662109375" y="88" width="20.009765625" height="20.09765625" font-weight="750" font-style="normal" font-size="15" font-family="svglidedefault" fill="#8A96A8">Q2</text><mask id="satori_om-id-3"><rect x="70" y="148" width="602" height="53" fill="#fff"/></mask><text x="70" y="195" width="52" height="53.04" font-weight="700" font-style="normal" font-size="52" font-family="svglidedefault" fill="#E2DCD0">组</text><text x="122" y="195" width="52" height="53.04" font-weight="700" font-style="normal" font-size="52" font-family="svglidedefault" fill="#E2DCD0">织</text><text x="174" y="195" width="52" height="53.04" font-weight="700" font-style="normal" font-size="52" font-family="svglidedefault" fill="#E2DCD0">信</text><text x="226" y="195" width="52" height="53.04" font-weight="700" font-style="normal" font-size="52" font-family="svglidedefault" fill="#E2DCD0">号</text><text x="278" y="195" width="52" height="53.04" font-weight="700" font-style="normal" font-size="52" font-family="svglidedefault" fill="#E2DCD0">简</text><text x="330" y="195" width="52" height="53.04" font-weight="700" font-style="normal" font-size="52" font-family="svglidedefault" fill="#E2DCD0">报</text><mask id="satori_om-id-4"><rect x="72" y="282" width="536" height="26" fill="#fff"/></mask><text x="72" y="303" width="20" height="26.400000000000002" font-weight="normal" font-style="normal" font-size="20" font-family="svglidedefault" fill="#8A96A8">用</text><text x="92" y="303" width="20" height="26.400000000000002" font-weight="normal" font-style="normal" font-size="20" font-family="svglidedefault" fill="#8A96A8">深</text><text x="112" y="303" width="20" height="26.400000000000002" font-weight="normal" font-style="normal" font-size="20" font-family="svglidedefault" fill="#8A96A8">色</text><text x="132" y="303" width="20" height="26.400000000000002" font-weight="normal" font-style="normal" font-size="20" font-family="svglidedefault" fill="#8A96A8">情</text><text x="152" y="303" width="20" height="26.400000000000002" font-weight="normal" font-style="normal" font-size="20" font-family="svglidedefault" fill="#8A96A8">报</text><text x="172" y="303" width="20" height="26.400000000000002" font-weight="normal" font-style="normal" font-size="20" font-family="svglidedefault" fill="#8A96A8">简</text><text x="192" y="303" width="20" height="26.400000000000002" font-weight="normal" font-style="normal" font-size="20" font-family="svglidedefault" fill="#8A96A8">报</text><text x="212" y="303" width="20" height="26.400000000000002" font-weight="normal" font-style="normal" font-size="20" font-family="svglidedefault" fill="#8A96A8">结</text><text x="232" y="303" width="20" height="26.400000000000002" font-weight="normal" font-style="normal" font-size="20" font-family="svglidedefault" fill="#8A96A8">构</text><text x="252" y="303" width="20" height="26.400000000000002" font-weight="normal" font-style="normal" font-size="20" font-family="svglidedefault" fill="#8A96A8">承</text><text x="272" y="303" width="20" height="26.400000000000002" font-weight="normal" font-style="normal" font-size="20" font-family="svglidedefault" fill="#8A96A8">载</text><text x="292" y="303" width="20" height="26.400000000000002" font-weight="normal" font-style="normal" font-size="20" font-family="svglidedefault" fill="#8A96A8">高</text><text x="312" y="303" width="20" height="26.400000000000002" font-weight="normal" font-style="normal" font-size="20" font-family="svglidedefault" fill="#8A96A8">层</text><text x="332" y="303" width="20" height="26.400000000000002" font-weight="normal" font-style="normal" font-size="20" font-family="svglidedefault" fill="#8A96A8">判</text><text x="352" y="303" width="20" height="26.400000000000002" font-weight="normal" font-style="normal" font-size="20" font-family="svglidedefault" fill="#8A96A8">断</text><text x="372" y="303" width="20" height="26.400000000000002" font-weight="normal" font-style="normal" font-size="20" font-family="svglidedefault" fill="#8A96A8">、</text><text x="392" y="303" width="20" height="26.400000000000002" font-weight="normal" font-style="normal" font-size="20" font-family="svglidedefault" fill="#8A96A8">早</text><text x="412" y="303" width="20" height="26.400000000000002" font-weight="normal" font-style="normal" font-size="20" font-family="svglidedefault" fill="#8A96A8">期</text><text x="432" y="303" width="20" height="26.400000000000002" font-weight="normal" font-style="normal" font-size="20" font-family="svglidedefault" fill="#8A96A8">信</text><text x="452" y="303" width="20" height="26.400000000000002" font-weight="normal" font-style="normal" font-size="20" font-family="svglidedefault" fill="#8A96A8">号</text><text x="472" y="303" width="20" height="26.400000000000002" font-weight="normal" font-style="normal" font-size="20" font-family="svglidedefault" fill="#8A96A8">和</text><text x="492" y="303" width="20" height="26.400000000000002" font-weight="normal" font-style="normal" font-size="20" font-family="svglidedefault" fill="#8A96A8">建</text><text x="512" y="303" width="20" height="26.400000000000002" font-weight="normal" font-style="normal" font-size="20" font-family="svglidedefault" fill="#8A96A8">议</text><text x="532" y="303" width="20" height="26.400000000000002" font-weight="normal" font-style="normal" font-size="20" font-family="svglidedefault" fill="#8A96A8">行</text><text x="552" y="303" width="20" height="26.400000000000002" font-weight="normal" font-style="normal" font-size="20" font-family="svglidedefault" fill="#8A96A8">动</text><text x="572" y="303" width="20" height="26.400000000000002" font-weight="normal" font-style="normal" font-size="20" font-family="svglidedefault" fill="#8A96A8">。</text><mask id="satori_om-id-5"><rect x="650" y="150" width="238" height="226" fill="#fff"/></mask><defs><clipPath id="satori_bc-id-5-0"><rect x="650" y="150" width="238" height="66"/></clipPath></defs><mask id="satori_om-id-5-0"><rect x="653" y="150" width="235" height="66" fill="#fff"/><path width="238" height="66" fill="none" stroke="#000" stroke-width="6" d="M650,216 A0,0 0 0 1 650,216 v-66 A0,0 0 0 1 650,150"/></mask><path width="238" height="66" clip-path="url(#satori_bc-id-5-0)" fill="none" stroke="#C8A870" stroke-width="6" d="M650,216 A0,0 0 0 1 650,216 v-66 A0,0 0 0 1 650,150"/><mask id="satori_om-id-5-0-0"><rect x="667" y="150" width="221" height="19" fill="#fff"/></mask><text x="667" y="165" width="17.1240234375" height="18.7578125" font-weight="850" font-style="normal" font-size="14" font-family="svglidedefault" fill="#C8A870">S1</text><mask id="satori_om-id-5-0-1"><rect x="667" y="177" width="221" height="21" fill="#fff"/></mask><text x="667" y="194" width="18" height="20.52" font-weight="650" font-style="normal" font-size="18" font-family="svglidedefault" fill="#E2DCD0">指</text><text x="685" y="194" width="18" height="20.52" font-weight="650" font-style="normal" font-size="18" font-family="svglidedefault" fill="#E2DCD0">标</text><text x="703" y="194" width="18" height="20.52" font-weight="650" font-style="normal" font-size="18" font-family="svglidedefault" fill="#E2DCD0">移</text><text x="721" y="194" width="18" height="20.52" font-weight="650" font-style="normal" font-size="18" font-family="svglidedefault" fill="#E2DCD0">动</text><text x="739" y="194" width="18" height="20.52" font-weight="650" font-style="normal" font-size="18" font-family="svglidedefault" fill="#E2DCD0">前</text><text x="757" y="194" width="18" height="20.52" font-weight="650" font-style="normal" font-size="18" font-family="svglidedefault" fill="#E2DCD0">的</text><text x="775" y="194" width="18" height="20.52" font-weight="650" font-style="normal" font-size="18" font-family="svglidedefault" fill="#E2DCD0">协</text><text x="793" y="194" width="18" height="20.52" font-weight="650" font-style="normal" font-size="18" font-family="svglidedefault" fill="#E2DCD0">作</text><text x="811" y="194" width="18" height="20.52" font-weight="650" font-style="normal" font-size="18" font-family="svglidedefault" fill="#E2DCD0">信</text><text x="829" y="194" width="18" height="20.52" font-weight="650" font-style="normal" font-size="18" font-family="svglidedefault" fill="#E2DCD0">号</text><defs><clipPath id="satori_bc-id-5-1"><rect x="650" y="230" width="238" height="66"/></clipPath></defs><mask id="satori_om-id-5-1"><rect x="653" y="230" width="235" height="66" fill="#fff"/><path width="238" height="66" fill="none" stroke="#000" stroke-width="6" d="M650,296 A0,0 0 0 1 650,296 v-66 A0,0 0 0 1 650,230"/></mask><path width="238" height="66" clip-path="url(#satori_bc-id-5-1)" fill="none" stroke="#232F55" stroke-width="6" d="M650,296 A0,0 0 0 1 650,296 v-66 A0,0 0 0 1 650,230"/><mask id="satori_om-id-5-1-0"><rect x="667" y="230" width="221" height="19" fill="#fff"/></mask><text x="667" y="245" width="17.1240234375" height="18.7578125" font-weight="850" font-style="normal" font-size="14" font-family="svglidedefault" fill="#C8A870">S2</text><mask id="satori_om-id-5-1-1"><rect x="667" y="257" width="221" height="21" fill="#fff"/></mask><text x="667" y="274" width="18" height="20.52" font-weight="650" font-style="normal" font-size="18" font-family="svglidedefault" fill="#E2DCD0">约</text><text x="685" y="274" width="18" height="20.52" font-weight="650" font-style="normal" font-size="18" font-family="svglidedefault" fill="#E2DCD0">束</text><text x="703" y="274" width="18" height="20.52" font-weight="650" font-style="normal" font-size="18" font-family="svglidedefault" fill="#E2DCD0">来</text><text x="721" y="274" width="18" height="20.52" font-weight="650" font-style="normal" font-size="18" font-family="svglidedefault" fill="#E2DCD0">自</text><text x="739" y="274" width="18" height="20.52" font-weight="650" font-style="normal" font-size="18" font-family="svglidedefault" fill="#E2DCD0">跨</text><text x="757" y="274" width="18" height="20.52" font-weight="650" font-style="normal" font-size="18" font-family="svglidedefault" fill="#E2DCD0">团</text><text x="775" y="274" width="18" height="20.52" font-weight="650" font-style="normal" font-size="18" font-family="svglidedefault" fill="#E2DCD0">队</text><text x="793" y="274" width="18" height="20.52" font-weight="650" font-style="normal" font-size="18" font-family="svglidedefault" fill="#E2DCD0">边</text><text x="811" y="274" width="18" height="20.52" font-weight="650" font-style="normal" font-size="18" font-family="svglidedefault" fill="#E2DCD0">界</text><defs><clipPath id="satori_bc-id-5-2"><rect x="650" y="310" width="238" height="66"/></clipPath></defs><mask id="satori_om-id-5-2"><rect x="653" y="310" width="235" height="66" fill="#fff"/><path width="238" height="66" fill="none" stroke="#000" stroke-width="6" d="M650,376 A0,0 0 0 1 650,376 v-66 A0,0 0 0 1 650,310"/></mask><path width="238" height="66" clip-path="url(#satori_bc-id-5-2)" fill="none" stroke="#232F55" stroke-width="6" d="M650,376 A0,0 0 0 1 650,376 v-66 A0,0 0 0 1 650,310"/><mask id="satori_om-id-5-2-0"><rect x="667" y="310" width="221" height="19" fill="#fff"/></mask><text x="667" y="325" width="17.1240234375" height="18.7578125" font-weight="850" font-style="normal" font-size="14" font-family="svglidedefault" fill="#C8A870">S3</text><mask id="satori_om-id-5-2-1"><rect x="667" y="337" width="221" height="21" fill="#fff"/></mask><text x="667" y="354" width="18" height="20.52" font-weight="650" font-style="normal" font-size="18" font-family="svglidedefault" fill="#E2DCD0">下</text><text x="685" y="354" width="18" height="20.52" font-weight="650" font-style="normal" font-size="18" font-family="svglidedefault" fill="#E2DCD0">轮</text><text x="703" y="354" width="18" height="20.52" font-weight="650" font-style="normal" font-size="18" font-family="svglidedefault" fill="#E2DCD0">验</text><text x="721" y="354" width="18" height="20.52" font-weight="650" font-style="normal" font-size="18" font-family="svglidedefault" fill="#E2DCD0">证</text><text x="739" y="354" width="18" height="20.52" font-weight="650" font-style="normal" font-size="18" font-family="svglidedefault" fill="#E2DCD0">需</text><text x="757" y="354" width="18" height="20.52" font-weight="650" font-style="normal" font-size="18" font-family="svglidedefault" fill="#E2DCD0">要</text><text x="775" y="354" width="18" height="20.52" font-weight="650" font-style="normal" font-size="18" font-family="svglidedefault" fill="#E2DCD0">单</text><text x="793" y="354" width="5.0009765625" height="20.52" font-weight="650" font-style="normal" font-size="18" font-family="svglidedefault" fill="#E2DCD0"> </text><text x="798.0009765625" y="354" width="49.025390625" height="20.52" font-weight="650" font-style="normal" font-size="18" font-family="svglidedefault" fill="#E2DCD0">owner</text><mask id="satori_om-id-6"><rect x="72" y="469" width="720" height="1" fill="#fff"/></mask><g opacity="0.7"><rect x="72" y="469" width="720" height="1" fill="#C8A870"/></g></svg>