<svg width="960" height="540" viewBox="0 0 960 540" xmlns="http://www.w3.org/2000/svg"><mask id="satori_om-id"><rect x="0" y="0" width="960" height="540" fill="#fff"/></mask><rect x="0" y="0" width="960" height="540" fill="#1C1C1C"/><mask id="satori_om-id-0"><rect x="52" y="48" width="856" height="1" fill="#fff"/></mask><g opacity="0.62"><rect x="52" y="48" width="856" height="1" fill="#F5D200"/></g><mask id="satori_om-id-1"><rect x="58" y="66" width="103" height="20" fill="#fff"/></mask><text x="58" y="82" width="56.66748046875" height="20.09765625" font-weight="850" font-style="normal" font-size="15" font-family="svglidedefault" fill="#F5D200">STUDIO</text><text x="114.66748046875" y="82" width="4.16748046875" height="20.09765625" font-weight="850" font-style="normal" font-size="15" font-family="svglidedefault" fill="#F5D200"> </text><text x="118.8349609375" y="82" width="41.66748046875" height="20.09765625" font-weight="850" font-style="normal" font-size="15" font-family="svglidedefault" fill="#F5D200">NOTE</text><mask id="satori_om-id-2"><rect x="864" y="66" width="38" height="20" fill="#fff"/></mask><text x="864" y="82" width="16.6845703125" height="20.09765625" font-weight="850" font-style="normal" font-size="15" font-family="svglidedefault" fill="#F5D200">06</text><text x="880.6845703125" y="82" width="4.16748046875" height="20.09765625" font-weight="850" font-style="normal" font-size="15" font-family="svglidedefault" fill="#F5D200">/</text><text x="884.85205078125" y="82" width="16.6845703125" height="20.09765625" font-weight="850" font-style="normal" font-size="15" font-family="svglidedefault" fill="#F5D200">06</text><mask id="satori_om-id-3"><rect x="58" y="118" width="800" height="72" fill="#fff"/></mask><text x="58" y="187" width="82" height="72.16" font-weight="900" font-style="normal" font-size="82" font-family="svglidedefault" fill="#F5D200">重</text><text x="140" y="187" width="82" height="72.16" font-weight="900" font-style="normal" font-size="82" font-family="svglidedefault" fill="#F5D200">点</text><text x="222" y="187" width="82" height="72.16" font-weight="900" font-style="normal" font-size="82" font-family="svglidedefault" fill="#F5D200">只</text><text x="304" y="187" width="82" height="72.16" font-weight="900" font-style="normal" font-size="82" font-family="svglidedefault" fill="#F5D200">说</text><text x="386" y="187" width="82" height="72.16" font-weight="900" font-style="normal" font-size="82" font-family="svglidedefault" fill="#F5D200">一</text><text x="468" y="187" width="82" height="72.16" font-weight="900" font-style="normal" font-size="82" font-family="svglidedefault" fill="#F5D200">遍</text><mask id="satori_om-id-4"><rect x="62" y="368" width="520" height="52" fill="#fff"/></mask><text x="62" y="390" width="21" height="26.25" font-weight="normal" font-style="normal" font-size="21" font-family="svglidedefault" fill="#9A860C">用</text><text x="83" y="390" width="21" height="26.25" font-weight="normal" font-style="normal" font-size="21" font-family="svglidedefault" fill="#9A860C">极</text><text x="104" y="390" width="21" height="26.25" font-weight="normal" font-style="normal" font-size="21" font-family="svglidedefault" fill="#9A860C">高</text><text x="125" y="390" width="21" height="26.25" font-weight="normal" font-style="normal" font-size="21" font-family="svglidedefault" fill="#9A860C">对</text><text x="146" y="390" width="21" height="26.25" font-weight="normal" font-style="normal" font-size="21" font-family="svglidedefault" fill="#9A860C">比</text><text x="167" y="390" width="21" height="26.25" font-weight="normal" font-style="normal" font-size="21" font-family="svglidedefault" fill="#9A860C">大</text><text x="188" y="390" width="21" height="26.25" font-weight="normal" font-style="normal" font-size="21" font-family="svglidedefault" fill="#9A860C">字</text><text x="209" y="390" width="21" height="26.25" font-weight="normal" font-style="normal" font-size="21" font-family="svglidedefault" fill="#9A860C">块</text><text x="230" y="390" width="21" height="26.25" font-weight="normal" font-style="normal" font-size="21" font-family="svglidedefault" fill="#9A860C">表</text><text x="251" y="390" width="21" height="26.25" font-weight="normal" font-style="normal" font-size="21" font-family="svglidedefault" fill="#9A860C">达</text><text x="272" y="390" width="21" height="26.25" font-weight="normal" font-style="normal" font-size="21" font-family="svglidedefault" fill="#9A860C">单</text><text x="293" y="390" width="21" height="26.25" font-weight="normal" font-style="normal" font-size="21" font-family="svglidedefault" fill="#9A860C">一</text><text x="314" y="390" width="21" height="26.25" font-weight="normal" font-style="normal" font-size="21" font-family="svglidedefault" fill="#9A860C">判</text><text x="335" y="390" width="21" height="26.25" font-weight="normal" font-style="normal" font-size="21" font-family="svglidedefault" fill="#9A860C">断</text><text x="356" y="390" width="21" height="26.25" font-weight="normal" font-style="normal" font-size="21" font-family="svglidedefault" fill="#9A860C">，</text><text x="377" y="390" width="21" height="26.25" font-weight="normal" font-style="normal" font-size="21" font-family="svglidedefault" fill="#9A860C">适</text><text x="398" y="390" width="21" height="26.25" font-weight="normal" font-style="normal" font-size="21" font-family="svglidedefault" fill="#9A860C">合</text><text x="419" y="390" width="5.83447265625" height="26.25" font-weight="normal" font-style="normal" font-size="21" font-family="svglidedefault" fill="#9A860C"> </text><text x="424.83447265625" y="390" width="91.0546875" height="26.25" font-weight="normal" font-style="normal" font-size="21" font-family="svglidedefault" fill="#9A860C">campaign</text><text x="515.88916015625" y="390" width="21" height="26.25" font-weight="normal" font-style="normal" font-size="21" font-family="svglidedefault" fill="#9A860C">、</text><text x="536.88916015625" y="390" width="21" height="26.25" font-weight="normal" font-style="normal" font-size="21" font-family="svglidedefault" fill="#9A860C">宣</text><text x="557.88916015625" y="390" width="21" height="26.25" font-weight="normal" font-style="normal" font-size="21" font-family="svglidedefault" fill="#9A860C">言</text><text x="62" y="416" width="21" height="26.25" font-weight="normal" font-style="normal" font-size="21" font-family="svglidedefault" fill="#9A860C">和</text><text x="83" y="416" width="21" height="26.25" font-weight="normal" font-style="normal" font-size="21" font-family="svglidedefault" fill="#9A860C">强</text><text x="104" y="416" width="21" height="26.25" font-weight="normal" font-style="normal" font-size="21" font-family="svglidedefault" fill="#9A860C">观</text><text x="125" y="416" width="21" height="26.25" font-weight="normal" font-style="normal" font-size="21" font-family="svglidedefault" fill="#9A860C">点</text><text x="146" y="416" width="21" height="26.25" font-weight="normal" font-style="normal" font-size="21" font-family="svglidedefault" fill="#9A860C">页</text><text x="167" y="416" width="21" height="26.25" font-weight="normal" font-style="normal" font-size="21" font-family="svglidedefault" fill="#9A860C">。</text><mask id="satori_om-id-5"><rect x="642" y="327" width="248" height="135" fill="#fff"/></mask><defs><clipPath id="satori_bc-id-5-0"><rect x="642" y="327" width="248" height="45"/></clipPath></defs><mask id="satori_om-id-5-0"><rect x="642" y="329" width="248" height="43" fill="#fff"/><path width="248" height="45" fill="none" stroke="#000" stroke-width="4" d="M642,327 A0,0 0 0 1 642,327 h248 A0,0 0 0 1 890,327"/></mask><path width="248" height="45" clip-path="url(#satori_bc-id-5-0)" fill="none" stroke="#F5D200" stroke-width="4" d="M642,327 A0,0 0 0 1 642,327 h248 A0,0 0 0 1 890,327"/><mask id="satori_om-id-5-0-0"><rect x="642" y="341" width="108" height="19" fill="#fff"/></mask><text x="642" y="358" width="18" height="18.900000000000002" font-weight="900" font-style="normal" font-size="18" font-family="svglidedefault" fill="#F5D200">一</text><text x="660" y="358" width="18" height="18.900000000000002" font-weight="900" font-style="normal" font-size="18" font-family="svglidedefault" fill="#F5D200">个</text><text x="678" y="358" width="18" height="18.900000000000002" font-weight="900" font-style="normal" font-size="18" font-family="svglidedefault" fill="#F5D200">核</text><text x="696" y="358" width="18" height="18.900000000000002" font-weight="900" font-style="normal" font-size="18" font-family="svglidedefault" fill="#F5D200">心</text><text x="714" y="358" width="18" height="18.900000000000002" font-weight="900" font-style="normal" font-size="18" font-family="svglidedefault" fill="#F5D200">信</text><text x="732" y="358" width="18" height="18.900000000000002" font-weight="900" font-style="normal" font-size="18" font-family="svglidedefault" fill="#F5D200">息</text><defs><clipPath id="satori_bc-id-5-1"><rect x="642" y="372" width="248" height="45"/></clipPath></defs><mask id="satori_om-id-5-1"><rect x="642" y="374" width="248" height="43" fill="#fff"/><path width="248" height="45" fill="none" stroke="#000" stroke-width="4" d="M642,372 A0,0 0 0 1 642,372 h248 A0,0 0 0 1 890,372"/></mask><path width="248" height="45" clip-path="url(#satori_bc-id-5-1)" fill="none" stroke="#F5D200" stroke-width="4" d="M642,372 A0,0 0 0 1 642,372 h248 A0,0 0 0 1 890,372"/><mask id="satori_om-id-5-1-0"><rect x="642" y="386" width="108" height="19" fill="#fff"/></mask><text x="642" y="403" width="18" height="18.900000000000002" font-weight="900" font-style="normal" font-size="18" font-family="svglidedefault" fill="#F5D200">三</text><text x="660" y="403" width="18" height="18.900000000000002" font-weight="900" font-style="normal" font-size="18" font-family="svglidedefault" fill="#F5D200">条</text><text x="678" y="403" width="18" height="18.900000000000002" font-weight="900" font-style="normal" font-size="18" font-family="svglidedefault" fill="#F5D200">支</text><text x="696" y="403" width="18" height="18.900000000000002" font-weight="900" font-style="normal" font-size="18" font-family="svglidedefault" fill="#F5D200">撑</text><text x="714" y="403" width="18" height="18.900000000000002" font-weight="900" font-style="normal" font-size="18" font-family="svglidedefault" fill="#F5D200">理</text><text x="732" y="403" width="18" height="18.900000000000002" font-weight="900" font-style="normal" font-size="18" font-family="svglidedefault" fill="#F5D200">由</text><defs><clipPath id="satori_bc-id-5-2"><rect x="642" y="417" width="248" height="45"/></clipPath></defs><mask id="satori_om-id-5-2"><rect x="642" y="419" width="248" height="43" fill="#fff"/><path width="248" height="45" fill="none" stroke="#000" stroke-width="4" d="M642,417 A0,0 0 0 1 642,417 h248 A0,0 0 0 1 890,417"/></mask><path width="248" height="45" clip-path="url(#satori_bc-id-5-2)" fill="none" stroke="#F5D200" stroke-width="4" d="M642,417 A0,0 0 0 1 642,417 h248 A0,0 0 0 1 890,417"/><mask id="satori_om-id-5-2-0"><rect x="642" y="431" width="90" height="19" fill="#fff"/></mask><text x="642" y="448" width="18" height="18.900000000000002" font-weight="900" font-style="normal" font-size="18" font-family="svglidedefault" fill="#F5D200">不</text><text x="660" y="448" width="18" height="18.900000000000002" font-weight="900" font-style="normal" font-size="18" font-family="svglidedefault" fill="#F5D200">需</text><text x="678" y="448" width="18" height="18.900000000000002" font-weight="900" font-style="normal" font-size="18" font-family="svglidedefault" fill="#F5D200">要</text><text x="696" y="448" width="18" height="18.900000000000002" font-weight="900" font-style="normal" font-size="18" font-family="svglidedefault" fill="#F5D200">装</text><text x="714" y="448" width="18" height="18.900000000000002" font-weight="900" font-style="normal" font-size="18" font-family="svglidedefault" fill="#F5D200">饰</text></svg>