<svg width="960" height="540" viewBox="0 0 960 540" xmlns="http://www.w3.org/2000/svg"><mask id="satori_om-id"><rect x="0" y="0" width="960" height="540" fill="#fff"/></mask><rect x="0" y="0" width="960" height="540" fill="#FAF1E2"/><defs><clipPath id="satori_bc-id-0"><rect x="58" y="50" width="844" height="438"/></clipPath></defs><mask id="satori_om-id-0"><rect x="60" y="52" width="840" height="434" fill="#fff"/><path width="844" height="438" fill="none" stroke="#000" stroke-width="4" d="M58,50 A0,0 0 0 1 58,50 h844 a0,0 0 0 1 0,0 v438 a0,0 0 0 1 0,0 h-844 a0,0 0 0 1 0,0 v-438 A0,0 0 0 1 58,50"/></mask><path width="844" height="438" clip-path="url(#satori_bc-id-0)" fill="none" stroke="#B53D2A" stroke-width="4" d="M58,50 A0,0 0 0 1 58,50 h844 a0,0 0 0 1 0,0 v438 a0,0 0 0 1 0,0 h-844 a0,0 0 0 1 0,0 v-438 A0,0 0 0 1 58,50"/><mask id="satori_om-id-1"><rect x="84" y="80" width="93" height="23" fill="#fff"/></mask><text x="84" y="98" width="68.9462890625" height="22.77734375" font-weight="900" font-style="normal" font-size="17" font-family="svglidedefault" fill="#B53D2A">EDITION</text><text x="152.9462890625" y="98" width="4.72314453125" height="22.77734375" font-weight="900" font-style="normal" font-size="17" font-family="svglidedefault" fill="#B53D2A"> </text><text x="157.66943359375" y="98" width="18.9091796875" height="22.77734375" font-weight="900" font-style="normal" font-size="17" font-family="svglidedefault" fill="#B53D2A">04</text><mask id="satori_om-id-2"><rect x="82" y="120" width="514" height="50" fill="#fff"/></mask><text x="82" y="166" width="54" height="49.68" font-weight="900" font-style="normal" font-size="54" font-family="svglidedefault" fill="#B53D2A">团</text><text x="136" y="166" width="54" height="49.68" font-weight="900" font-style="normal" font-size="54" font-family="svglidedefault" fill="#B53D2A">队</text><text x="190" y="166" width="54" height="49.68" font-weight="900" font-style="normal" font-size="54" font-family="svglidedefault" fill="#B53D2A">晚</text><text x="244" y="166" width="54" height="49.68" font-weight="900" font-style="normal" font-size="54" font-family="svglidedefault" fill="#B53D2A">餐</text><text x="298" y="166" width="54" height="49.68" font-weight="900" font-style="normal" font-size="54" font-family="svglidedefault" fill="#B53D2A">式</text><text x="352" y="166" width="54" height="49.68" font-weight="900" font-style="normal" font-size="54" font-family="svglidedefault" fill="#B53D2A">议</text><text x="406" y="166" width="54" height="49.68" font-weight="900" font-style="normal" font-size="54" font-family="svglidedefault" fill="#B53D2A">程</text><mask id="satori_om-id-3"><rect x="86" y="288" width="430" height="54" fill="#fff"/></mask><text x="86" y="309" width="20" height="27" font-weight="normal" font-style="normal" font-size="20" font-family="svglidedefault" fill="#3A2516">单</text><text x="106" y="309" width="20" height="27" font-weight="normal" font-style="normal" font-size="20" font-family="svglidedefault" fill="#3A2516">色</text><text x="126" y="309" width="20" height="27" font-weight="normal" font-style="normal" font-size="20" font-family="svglidedefault" fill="#3A2516">印</text><text x="146" y="309" width="20" height="27" font-weight="normal" font-style="normal" font-size="20" font-family="svglidedefault" fill="#3A2516">刷</text><text x="166" y="309" width="20" height="27" font-weight="normal" font-style="normal" font-size="20" font-family="svglidedefault" fill="#3A2516">感</text><text x="186" y="309" width="20" height="27" font-weight="normal" font-style="normal" font-size="20" font-family="svglidedefault" fill="#3A2516">适</text><text x="206" y="309" width="20" height="27" font-weight="normal" font-style="normal" font-size="20" font-family="svglidedefault" fill="#3A2516">合</text><text x="226" y="309" width="20" height="27" font-weight="normal" font-style="normal" font-size="20" font-family="svglidedefault" fill="#3A2516">活</text><text x="246" y="309" width="20" height="27" font-weight="normal" font-style="normal" font-size="20" font-family="svglidedefault" fill="#3A2516">动</text><text x="266" y="309" width="20" height="27" font-weight="normal" font-style="normal" font-size="20" font-family="svglidedefault" fill="#3A2516">日</text><text x="286" y="309" width="20" height="27" font-weight="normal" font-style="normal" font-size="20" font-family="svglidedefault" fill="#3A2516">程</text><text x="306" y="309" width="20" height="27" font-weight="normal" font-style="normal" font-size="20" font-family="svglidedefault" fill="#3A2516">、</text><text x="326" y="309" width="20" height="27" font-weight="normal" font-style="normal" font-size="20" font-family="svglidedefault" fill="#3A2516">工</text><text x="346" y="309" width="20" height="27" font-weight="normal" font-style="normal" font-size="20" font-family="svglidedefault" fill="#3A2516">作</text><text x="366" y="309" width="20" height="27" font-weight="normal" font-style="normal" font-size="20" font-family="svglidedefault" fill="#3A2516">坊</text><text x="386" y="309" width="5.556640625" height="27" font-weight="normal" font-style="normal" font-size="20" font-family="svglidedefault" fill="#3A2516"> </text><text x="391.556640625" y="309" width="66.73828125" height="27" font-weight="normal" font-style="normal" font-size="20" font-family="svglidedefault" fill="#3A2516">agenda</text><text x="458.294921875" y="309" width="5.556640625" height="27" font-weight="normal" font-style="normal" font-size="20" font-family="svglidedefault" fill="#3A2516"> </text><text x="463.8515625" y="309" width="20" height="27" font-weight="normal" font-style="normal" font-size="20" font-family="svglidedefault" fill="#3A2516">和</text><text x="483.8515625" y="309" width="20" height="27" font-weight="normal" font-style="normal" font-size="20" font-family="svglidedefault" fill="#3A2516">轻</text><text x="86" y="336" width="20" height="27" font-weight="normal" font-style="normal" font-size="20" font-family="svglidedefault" fill="#3A2516">量</text><text x="106" y="336" width="20" height="27" font-weight="normal" font-style="normal" font-size="20" font-family="svglidedefault" fill="#3A2516">社</text><text x="126" y="336" width="20" height="27" font-weight="normal" font-style="normal" font-size="20" font-family="svglidedefault" fill="#3A2516">群</text><text x="146" y="336" width="20" height="27" font-weight="normal" font-style="normal" font-size="20" font-family="svglidedefault" fill="#3A2516">报</text><text x="166" y="336" width="20" height="27" font-weight="normal" font-style="normal" font-size="20" font-family="svglidedefault" fill="#3A2516">告</text><text x="186" y="336" width="20" height="27" font-weight="normal" font-style="normal" font-size="20" font-family="svglidedefault" fill="#3A2516">。</text><mask id="satori_om-id-4"><rect x="586" y="88" width="292" height="264" fill="#fff"/></mask><defs><clipPath id="satori_bc-id-4-0"><rect x="586" y="88" width="292" height="66"/></clipPath></defs><mask id="satori_om-id-4-0"><rect x="586" y="88" width="292" height="65" fill="#fff"/><path width="292" height="66" fill="none" stroke="#000" stroke-width="2" d="M878,154 A0,0 0 0 1 878,154 h-292 A0,0 0 0 1 586,154"/></mask><path width="292" height="66" clip-path="url(#satori_bc-id-4-0)" fill="none" stroke="#B53D2A" stroke-width="2" d="M878,154 A0,0 0 0 1 878,154 h-292 A0,0 0 0 1 586,154"/><mask id="satori_om-id-4-0-0"><rect x="586" y="98" width="42" height="45" fill="#fff"/></mask><text x="586" y="124" width="26.6953125" height="32.15625" font-weight="800" font-style="normal" font-size="24" font-family="svglidedefault" fill="#B53D2A">01</text><mask id="satori_om-id-4-0-1"><rect x="628" y="98" width="250" height="45" fill="#fff"/></mask><text x="628" y="116" width="20" height="21" font-weight="850" font-style="normal" font-size="20" font-family="svglidedefault" fill="#B53D2A">开</text><text x="648" y="116" width="20" height="21" font-weight="850" font-style="normal" font-size="20" font-family="svglidedefault" fill="#B53D2A">场</text><text x="668" y="116" width="20" height="21" font-weight="850" font-style="normal" font-size="20" font-family="svglidedefault" fill="#B53D2A">观</text><text x="688" y="116" width="20" height="21" font-weight="850" font-style="normal" font-size="20" font-family="svglidedefault" fill="#B53D2A">察</text><defs><clipPath id="satori_bc-id-4-1"><rect x="586" y="154" width="292" height="66"/></clipPath></defs><mask id="satori_om-id-4-1"><rect x="586" y="154" width="292" height="65" fill="#fff"/><path width="292" height="66" fill="none" stroke="#000" stroke-width="2" d="M878,220 A0,0 0 0 1 878,220 h-292 A0,0 0 0 1 586,220"/></mask><path width="292" height="66" clip-path="url(#satori_bc-id-4-1)" fill="none" stroke="#B53D2A" stroke-width="2" d="M878,220 A0,0 0 0 1 878,220 h-292 A0,0 0 0 1 586,220"/><mask id="satori_om-id-4-1-0"><rect x="586" y="164" width="42" height="45" fill="#fff"/></mask><text x="586" y="190" width="26.6953125" height="32.15625" font-weight="800" font-style="normal" font-size="24" font-family="svglidedefault" fill="#B53D2A">02</text><mask id="satori_om-id-4-1-1"><rect x="628" y="164" width="250" height="45" fill="#fff"/></mask><text x="628" y="182" width="20" height="21" font-weight="850" font-style="normal" font-size="20" font-family="svglidedefault" fill="#B53D2A">主</text><text x="648" y="182" width="20" height="21" font-weight="850" font-style="normal" font-size="20" font-family="svglidedefault" fill="#B53D2A">议</text><text x="668" y="182" width="20" height="21" font-weight="850" font-style="normal" font-size="20" font-family="svglidedefault" fill="#B53D2A">题</text><text x="688" y="182" width="20" height="21" font-weight="850" font-style="normal" font-size="20" font-family="svglidedefault" fill="#B53D2A">讨</text><text x="708" y="182" width="20" height="21" font-weight="850" font-style="normal" font-size="20" font-family="svglidedefault" fill="#B53D2A">论</text><defs><clipPath id="satori_bc-id-4-2"><rect x="586" y="220" width="292" height="66"/></clipPath></defs><mask id="satori_om-id-4-2"><rect x="586" y="220" width="292" height="65" fill="#fff"/><path width="292" height="66" fill="none" stroke="#000" stroke-width="2" d="M878,286 A0,0 0 0 1 878,286 h-292 A0,0 0 0 1 586,286"/></mask><path width="292" height="66" clip-path="url(#satori_bc-id-4-2)" fill="none" stroke="#B53D2A" stroke-width="2" d="M878,286 A0,0 0 0 1 878,286 h-292 A0,0 0 0 1 586,286"/><mask id="satori_om-id-4-2-0"><rect x="586" y="230" width="42" height="45" fill="#fff"/></mask><text x="586" y="256" width="26.6953125" height="32.15625" font-weight="800" font-style="normal" font-size="24" font-family="svglidedefault" fill="#B53D2A">03</text><mask id="satori_om-id-4-2-1"><rect x="628" y="230" width="250" height="45" fill="#fff"/></mask><text x="628" y="248" width="20" height="21" font-weight="850" font-style="normal" font-size="20" font-family="svglidedefault" fill="#B53D2A">行</text><text x="648" y="248" width="20" height="21" font-weight="850" font-style="normal" font-size="20" font-family="svglidedefault" fill="#B53D2A">动</text><text x="668" y="248" width="20" height="21" font-weight="850" font-style="normal" font-size="20" font-family="svglidedefault" fill="#B53D2A">项</text><text x="688" y="248" width="20" height="21" font-weight="850" font-style="normal" font-size="20" font-family="svglidedefault" fill="#B53D2A">确</text><text x="708" y="248" width="20" height="21" font-weight="850" font-style="normal" font-size="20" font-family="svglidedefault" fill="#B53D2A">认</text><defs><clipPath id="satori_bc-id-4-3"><rect x="586" y="286" width="292" height="66"/></clipPath></defs><mask id="satori_om-id-4-3"><rect x="586" y="286" width="292" height="65" fill="#fff"/><path width="292" height="66" fill="none" stroke="#000" stroke-width="2" d="M878,352 A0,0 0 0 1 878,352 h-292 A0,0 0 0 1 586,352"/></mask><path width="292" height="66" clip-path="url(#satori_bc-id-4-3)" fill="none" stroke="#B53D2A" stroke-width="2" d="M878,352 A0,0 0 0 1 878,352 h-292 A0,0 0 0 1 586,352"/><mask id="satori_om-id-4-3-0"><rect x="586" y="296" width="42" height="45" fill="#fff"/></mask><text x="586" y="322" width="26.6953125" height="32.15625" font-weight="800" font-style="normal" font-size="24" font-family="svglidedefault" fill="#B53D2A">04</text><mask id="satori_om-id-4-3-1"><rect x="628" y="296" width="250" height="45" fill="#fff"/></mask><text x="628" y="314" width="20" height="21" font-weight="850" font-style="normal" font-size="20" font-family="svglidedefault" fill="#B53D2A">复</text><text x="648" y="314" width="20" height="21" font-weight="850" font-style="normal" font-size="20" font-family="svglidedefault" fill="#B53D2A">盘</text><text x="668" y="314" width="20" height="21" font-weight="850" font-style="normal" font-size="20" font-family="svglidedefault" fill="#B53D2A">收</text><text x="688" y="314" width="20" height="21" font-weight="850" font-style="normal" font-size="20" font-family="svglidedefault" fill="#B53D2A">束</text><mask id="satori_om-id-5"><rect x="86" y="443" width="130" height="21" fill="#fff"/></mask><text x="86" y="460" width="53.3671875" height="21.4375" font-weight="700" font-style="normal" font-size="16" font-family="svglidedefault" fill="#8E2D1F">Internal</text><text x="139.3671875" y="460" width="4.4453125" height="21.4375" font-weight="700" font-style="normal" font-size="16" font-family="svglidedefault" fill="#8E2D1F"> </text><text x="143.8125" y="460" width="72.0234375" height="21.4375" font-weight="700" font-style="normal" font-size="16" font-family="svglidedefault" fill="#8E2D1F">Workshop</text></svg>