<svg width="960" height="540" viewBox="0 0 960 540" xmlns="http://www.w3.org/2000/svg"><mask id="satori_om-id"><rect x="0" y="0" width="960" height="540" fill="#fff"/></mask><rect x="0" y="0" width="960" height="540" fill="#C0C0C0"/><defs><clipPath id="satori_bc-id-0"><rect x="70" y="62" width="820" height="416"/></clipPath></defs><mask id="satori_om-id-0"><rect x="73" y="65" width="814" height="410" fill="#fff"/><path width="820" height="416" fill="none" stroke="#000" stroke-width="6" d="M70,62 A0,0 0 0 1 70,62 h820 a0,0 0 0 1 0,0 v416 a0,0 0 0 1 0,0 h-820 a0,0 0 0 1 0,0 v-416 A0,0 0 0 1 70,62"/></mask><rect x="70" y="62" width="820" height="416" fill="#D4D0C8"/><path width="820" height="416" clip-path="url(#satori_bc-id-0)" fill="none" stroke="#222222" stroke-width="6" d="M70,62 A0,0 0 0 1 70,62 h820 a0,0 0 0 1 0,0 v416 a0,0 0 0 1 0,0 h-820 a0,0 0 0 1 0,0 v-416 A0,0 0 0 1 70,62"/><mask id="satori_om-id-1"><rect x="76" y="68" width="808" height="38" fill="#fff"/></mask><rect x="76" y="68" width="808" height="38" fill="#000080"/><mask id="satori_om-id-1-0"><rect x="88" y="75" width="120" height="24" fill="#fff"/></mask><text x="88" y="94" width="119.0478515625" height="24.1171875" font-weight="850" font-style="normal" font-size="18" font-family="svglidedefault" fill="#FFFFFF">SVGLIDE.EXE</text><mask id="satori_om-id-2"><rect x="96" y="132" width="500" height="41" fill="#fff"/></mask><text x="96" y="168" width="38" height="41.040000000000006" font-weight="800" font-style="normal" font-size="38" font-family="svglidedefault" fill="#222222">发</text><text x="134" y="168" width="38" height="41.040000000000006" font-weight="800" font-style="normal" font-size="38" font-family="svglidedefault" fill="#222222">布</text><text x="172" y="168" width="38" height="41.040000000000006" font-weight="800" font-style="normal" font-size="38" font-family="svglidedefault" fill="#222222">控</text><text x="210" y="168" width="38" height="41.040000000000006" font-weight="800" font-style="normal" font-size="38" font-family="svglidedefault" fill="#222222">制</text><text x="248" y="168" width="38" height="41.040000000000006" font-weight="800" font-style="normal" font-size="38" font-family="svglidedefault" fill="#222222">面</text><text x="286" y="168" width="38" height="41.040000000000006" font-weight="800" font-style="normal" font-size="38" font-family="svglidedefault" fill="#222222">板</text><mask id="satori_om-id-3"><rect x="98" y="228" width="428" height="48" fill="#fff"/></mask><text x="98" y="248" width="19" height="24.32" font-weight="normal" font-style="normal" font-size="19" font-family="svglidedefault" fill="#555555">把</text><text x="117" y="248" width="19" height="24.32" font-weight="normal" font-style="normal" font-size="19" font-family="svglidedefault" fill="#555555">产</text><text x="136" y="248" width="19" height="24.32" font-weight="normal" font-style="normal" font-size="19" font-family="svglidedefault" fill="#555555">品</text><text x="155" y="248" width="19" height="24.32" font-weight="normal" font-style="normal" font-size="19" font-family="svglidedefault" fill="#555555">发</text><text x="174" y="248" width="19" height="24.32" font-weight="normal" font-style="normal" font-size="19" font-family="svglidedefault" fill="#555555">布</text><text x="193" y="248" width="19" height="24.32" font-weight="normal" font-style="normal" font-size="19" font-family="svglidedefault" fill="#555555">状</text><text x="212" y="248" width="19" height="24.32" font-weight="normal" font-style="normal" font-size="19" font-family="svglidedefault" fill="#555555">态</text><text x="231" y="248" width="19" height="24.32" font-weight="normal" font-style="normal" font-size="19" font-family="svglidedefault" fill="#555555">做</text><text x="250" y="248" width="19" height="24.32" font-weight="normal" font-style="normal" font-size="19" font-family="svglidedefault" fill="#555555">成</text><text x="269" y="248" width="19" height="24.32" font-weight="normal" font-style="normal" font-size="19" font-family="svglidedefault" fill="#555555">复</text><text x="288" y="248" width="19" height="24.32" font-weight="normal" font-style="normal" font-size="19" font-family="svglidedefault" fill="#555555">古</text><text x="307" y="248" width="19" height="24.32" font-weight="normal" font-style="normal" font-size="19" font-family="svglidedefault" fill="#555555">桌</text><text x="326" y="248" width="19" height="24.32" font-weight="normal" font-style="normal" font-size="19" font-family="svglidedefault" fill="#555555">面</text><text x="345" y="248" width="19" height="24.32" font-weight="normal" font-style="normal" font-size="19" font-family="svglidedefault" fill="#555555">窗</text><text x="364" y="248" width="19" height="24.32" font-weight="normal" font-style="normal" font-size="19" font-family="svglidedefault" fill="#555555">口</text><text x="383" y="248" width="19" height="24.32" font-weight="normal" font-style="normal" font-size="19" font-family="svglidedefault" fill="#555555">，</text><text x="402" y="248" width="19" height="24.32" font-weight="normal" font-style="normal" font-size="19" font-family="svglidedefault" fill="#555555">适</text><text x="421" y="248" width="19" height="24.32" font-weight="normal" font-style="normal" font-size="19" font-family="svglidedefault" fill="#555555">合</text><text x="440" y="248" width="19" height="24.32" font-weight="normal" font-style="normal" font-size="19" font-family="svglidedefault" fill="#555555">技</text><text x="459" y="248" width="19" height="24.32" font-weight="normal" font-style="normal" font-size="19" font-family="svglidedefault" fill="#555555">术</text><text x="478" y="248" width="19" height="24.32" font-weight="normal" font-style="normal" font-size="19" font-family="svglidedefault" fill="#555555">团</text><text x="497" y="248" width="19" height="24.32" font-weight="normal" font-style="normal" font-size="19" font-family="svglidedefault" fill="#555555">队</text><text x="98" y="272" width="19" height="24.32" font-weight="normal" font-style="normal" font-size="19" font-family="svglidedefault" fill="#555555">同</text><text x="117" y="272" width="19" height="24.32" font-weight="normal" font-style="normal" font-size="19" font-family="svglidedefault" fill="#555555">步</text><text x="136" y="272" width="19" height="24.32" font-weight="normal" font-style="normal" font-size="19" font-family="svglidedefault" fill="#555555">和</text><text x="155" y="272" width="19" height="24.32" font-weight="normal" font-style="normal" font-size="19" font-family="svglidedefault" fill="#555555">版</text><text x="174" y="272" width="19" height="24.32" font-weight="normal" font-style="normal" font-size="19" font-family="svglidedefault" fill="#555555">本</text><text x="193" y="272" width="19" height="24.32" font-weight="normal" font-style="normal" font-size="19" font-family="svglidedefault" fill="#555555">复</text><text x="212" y="272" width="19" height="24.32" font-weight="normal" font-style="normal" font-size="19" font-family="svglidedefault" fill="#555555">盘</text><text x="231" y="272" width="19" height="24.32" font-weight="normal" font-style="normal" font-size="19" font-family="svglidedefault" fill="#555555">。</text><mask id="satori_om-id-4"><rect x="570" y="132" width="292" height="284" fill="#fff"/></mask><defs><clipPath id="satori_bc-id-4-0"><rect x="570" y="132" width="292" height="62"/></clipPath></defs><mask id="satori_om-id-4-0"><rect x="572" y="134" width="288" height="58" fill="#fff"/><path width="292" height="62" fill="none" stroke="#000" stroke-width="4" d="M570,132 A0,0 0 0 1 570,132 h292 a0,0 0 0 1 0,0 v62 a0,0 0 0 1 0,0 h-292 a0,0 0 0 1 0,0 v-62 A0,0 0 0 1 570,132"/></mask><rect x="570" y="132" width="292" height="62" fill="#C0C0C0"/><path width="292" height="62" clip-path="url(#satori_bc-id-4-0)" fill="none" stroke="#222222" stroke-width="4" d="M570,132 A0,0 0 0 1 570,132 h292 a0,0 0 0 1 0,0 v62 a0,0 0 0 1 0,0 h-292 a0,0 0 0 1 0,0 v-62 A0,0 0 0 1 570,132"/><mask id="satori_om-id-4-0-0"><rect x="586" y="148" width="130" height="30" fill="#fff"/></mask><text x="586" y="167" width="40.025390625" height="24.1171875" font-weight="750" font-style="normal" font-size="18" font-family="svglidedefault" fill="#222222">Build</text><text x="626.025390625" y="167" width="5.0009765625" height="24.1171875" font-weight="750" font-style="normal" font-size="18" font-family="svglidedefault" fill="#222222"> </text><text x="631.0263671875" y="167" width="48.0234375" height="24.1171875" font-weight="750" font-style="normal" font-size="18" font-family="svglidedefault" fill="#222222">status</text><text x="679.0498046875" y="167" width="5.0009765625" height="24.1171875" font-weight="750" font-style="normal" font-size="18" font-family="svglidedefault" fill="#222222">:</text><text x="684.05078125" y="167" width="5.0009765625" height="24.1171875" font-weight="750" font-style="normal" font-size="18" font-family="svglidedefault" fill="#222222"> </text><text x="689.0517578125" y="167" width="26.0068359375" height="24.1171875" font-weight="750" font-style="normal" font-size="18" font-family="svglidedefault" fill="#222222">OK</text><defs><clipPath id="satori_bc-id-4-1"><rect x="570" y="206" width="292" height="62"/></clipPath></defs><mask id="satori_om-id-4-1"><rect x="572" y="208" width="288" height="58" fill="#fff"/><path width="292" height="62" fill="none" stroke="#000" stroke-width="4" d="M570,206 A0,0 0 0 1 570,206 h292 a0,0 0 0 1 0,0 v62 a0,0 0 0 1 0,0 h-292 a0,0 0 0 1 0,0 v-62 A0,0 0 0 1 570,206"/></mask><rect x="570" y="206" width="292" height="62" fill="#C0C0C0"/><path width="292" height="62" clip-path="url(#satori_bc-id-4-1)" fill="none" stroke="#222222" stroke-width="4" d="M570,206 A0,0 0 0 1 570,206 h292 a0,0 0 0 1 0,0 v62 a0,0 0 0 1 0,0 h-292 a0,0 0 0 1 0,0 v-62 A0,0 0 0 1 570,206"/><mask id="satori_om-id-4-1-0"><rect x="586" y="222" width="131" height="30" fill="#fff"/></mask><text x="586" y="241" width="44.033203125" height="24.1171875" font-weight="750" font-style="normal" font-size="18" font-family="svglidedefault" fill="#222222">Open</text><text x="630.033203125" y="241" width="5.0009765625" height="24.1171875" font-weight="750" font-style="normal" font-size="18" font-family="svglidedefault" fill="#222222"> </text><text x="635.0341796875" y="241" width="51.0205078125" height="24.1171875" font-weight="750" font-style="normal" font-size="18" font-family="svglidedefault" fill="#222222">issues</text><text x="686.0546875" y="241" width="5.0009765625" height="24.1171875" font-weight="750" font-style="normal" font-size="18" font-family="svglidedefault" fill="#222222">:</text><text x="691.0556640625" y="241" width="5.0009765625" height="24.1171875" font-weight="750" font-style="normal" font-size="18" font-family="svglidedefault" fill="#222222"> </text><text x="696.056640625" y="241" width="20.021484375" height="24.1171875" font-weight="750" font-style="normal" font-size="18" font-family="svglidedefault" fill="#222222">12</text><defs><clipPath id="satori_bc-id-4-2"><rect x="570" y="280" width="292" height="62"/></clipPath></defs><mask id="satori_om-id-4-2"><rect x="572" y="282" width="288" height="58" fill="#fff"/><path width="292" height="62" fill="none" stroke="#000" stroke-width="4" d="M570,280 A0,0 0 0 1 570,280 h292 a0,0 0 0 1 0,0 v62 a0,0 0 0 1 0,0 h-292 a0,0 0 0 1 0,0 v-62 A0,0 0 0 1 570,280"/></mask><rect x="570" y="280" width="292" height="62" fill="#C0C0C0"/><path width="292" height="62" clip-path="url(#satori_bc-id-4-2)" fill="none" stroke="#222222" stroke-width="4" d="M570,280 A0,0 0 0 1 570,280 h292 a0,0 0 0 1 0,0 v62 a0,0 0 0 1 0,0 h-292 a0,0 0 0 1 0,0 v-62 A0,0 0 0 1 570,280"/><mask id="satori_om-id-4-2-0"><rect x="586" y="296" width="131" height="30" fill="#fff"/></mask><text x="586" y="315" width="53.015625" height="24.1171875" font-weight="750" font-style="normal" font-size="18" font-family="svglidedefault" fill="#222222">Owner</text><text x="639.015625" y="315" width="5.0009765625" height="24.1171875" font-weight="750" font-style="normal" font-size="18" font-family="svglidedefault" fill="#222222">:</text><text x="644.0166015625" y="315" width="5.0009765625" height="24.1171875" font-weight="750" font-style="normal" font-size="18" font-family="svglidedefault" fill="#222222"> </text><text x="649.017578125" y="315" width="67.0166015625" height="24.1171875" font-weight="750" font-style="normal" font-size="18" font-family="svglidedefault" fill="#222222">Platform</text><defs><clipPath id="satori_bc-id-4-3"><rect x="570" y="354" width="292" height="62"/></clipPath></defs><mask id="satori_om-id-4-3"><rect x="572" y="356" width="288" height="58" fill="#fff"/><path width="292" height="62" fill="none" stroke="#000" stroke-width="4" d="M570,354 A0,0 0 0 1 570,354 h292 a0,0 0 0 1 0,0 v62 a0,0 0 0 1 0,0 h-292 a0,0 0 0 1 0,0 v-62 A0,0 0 0 1 570,354"/></mask><rect x="570" y="354" width="292" height="62" fill="#C0C0C0"/><path width="292" height="62" clip-path="url(#satori_bc-id-4-3)" fill="none" stroke="#222222" stroke-width="4" d="M570,354 A0,0 0 0 1 570,354 h292 a0,0 0 0 1 0,0 v62 a0,0 0 0 1 0,0 h-292 a0,0 0 0 1 0,0 v-62 A0,0 0 0 1 570,354"/><mask id="satori_om-id-4-3-0"><rect x="586" y="370" width="96" height="30" fill="#fff"/></mask><text x="586" y="389" width="35.0068359375" height="24.1171875" font-weight="750" font-style="normal" font-size="18" font-family="svglidedefault" fill="#222222">ETA</text><text x="621.0068359375" y="389" width="5.0009765625" height="24.1171875" font-weight="750" font-style="normal" font-size="18" font-family="svglidedefault" fill="#222222">:</text><text x="626.0078125" y="389" width="5.0009765625" height="24.1171875" font-weight="750" font-style="normal" font-size="18" font-family="svglidedefault" fill="#222222"> </text><text x="631.0087890625" y="389" width="50.009765625" height="24.1171875" font-weight="750" font-style="normal" font-size="18" font-family="svglidedefault" fill="#222222">Friday</text><defs><clipPath id="satori_bc-id-5"><rect x="96" y="424" width="768" height="28"/></clipPath></defs><mask id="satori_om-id-5"><rect x="98" y="426" width="764" height="24" fill="#fff"/><path width="768" height="28" fill="none" stroke="#000" stroke-width="4" d="M96,424 A0,0 0 0 1 96,424 h768 a0,0 0 0 1 0,0 v28 a0,0 0 0 1 0,0 h-768 a0,0 0 0 1 0,0 v-28 A0,0 0 0 1 96,424"/></mask><rect x="96" y="424" width="768" height="28" fill="#C0C0C0"/><path width="768" height="28" clip-path="url(#satori_bc-id-5)" fill="none" stroke="#222222" stroke-width="4" d="M96,424 A0,0 0 0 1 96,424 h768 a0,0 0 0 1 0,0 v28 a0,0 0 0 1 0,0 h-768 a0,0 0 0 1 0,0 v-28 A0,0 0 0 1 96,424"/><mask id="satori_om-id-5-0"><rect x="98" y="426" width="72" height="24" fill="#fff"/></mask><text x="108" y="447" width="51.6796875" height="20.09765625" font-weight="900" font-style="normal" font-size="15" font-family="svglidedefault" fill="#000080">READY</text></svg>