<svg width="960" height="540" viewBox="0 0 960 540" xmlns="http://www.w3.org/2000/svg"><mask id="satori_om-id"><rect x="0" y="0" width="960" height="540" fill="#fff"/></mask><rect x="0" y="0" width="960" height="540" fill="#F1E6CB"/><mask id="satori_om-id-0"><rect x="0" y="0" width="960" height="28" fill="#fff"/></mask><mask id="satori_om-id-0-0"><rect x="0" y="0" width="240" height="28" fill="#fff"/></mask><rect x="0" y="0" width="240" height="28" fill="#E5392A"/><mask id="satori_om-id-0-1"><rect x="240" y="0" width="240" height="28" fill="#fff"/></mask><rect x="240" y="0" width="240" height="28" fill="#F09131"/><mask id="satori_om-id-0-2"><rect x="480" y="0" width="240" height="28" fill="#fff"/></mask><rect x="480" y="0" width="240" height="28" fill="#E54489"/><mask id="satori_om-id-0-3"><rect x="720" y="0" width="240" height="28" fill="#fff"/></mask><rect x="720" y="0" width="240" height="28" fill="#3F8BC4"/><mask id="satori_om-id-1"><rect x="64" y="70" width="128" height="21" fill="#fff"/></mask><text x="64" y="87" width="76.4609375" height="21.4375" font-weight="900" font-style="normal" font-size="16" font-family="svglidedefault" fill="#E5392A">CATALOG</text><text x="140.4609375" y="87" width="4.4453125" height="21.4375" font-weight="900" font-style="normal" font-size="16" font-family="svglidedefault" fill="#E5392A"> </text><text x="144.90625" y="87" width="46.2265625" height="21.4375" font-weight="900" font-style="normal" font-size="16" font-family="svglidedefault" fill="#E5392A">DROP</text><mask id="satori_om-id-2"><rect x="62" y="102" width="610" height="53" fill="#fff"/></mask><text x="62" y="152" width="58" height="53.36" font-weight="900" font-style="normal" font-size="58" font-family="svglidedefault" fill="#3A2516">功</text><text x="120" y="152" width="58" height="53.36" font-weight="900" font-style="normal" font-size="58" font-family="svglidedefault" fill="#3A2516">能</text><text x="178" y="152" width="58" height="53.36" font-weight="900" font-style="normal" font-size="58" font-family="svglidedefault" fill="#3A2516">货</text><text x="236" y="152" width="58" height="53.36" font-weight="900" font-style="normal" font-size="58" font-family="svglidedefault" fill="#3A2516">架</text><text x="294" y="152" width="58" height="53.36" font-weight="900" font-style="normal" font-size="58" font-family="svglidedefault" fill="#3A2516">更</text><text x="352" y="152" width="58" height="53.36" font-weight="900" font-style="normal" font-size="58" font-family="svglidedefault" fill="#3A2516">新</text><mask id="satori_om-id-3"><rect x="66" y="238" width="470" height="52" fill="#fff"/></mask><text x="66" y="259" width="20" height="25.6" font-weight="normal" font-style="normal" font-size="20" font-family="svglidedefault" fill="#3F8BC4">多</text><text x="86" y="259" width="20" height="25.6" font-weight="normal" font-style="normal" font-size="20" font-family="svglidedefault" fill="#3F8BC4">色</text><text x="106" y="259" width="20" height="25.6" font-weight="normal" font-style="normal" font-size="20" font-family="svglidedefault" fill="#3F8BC4">包</text><text x="126" y="259" width="20" height="25.6" font-weight="normal" font-style="normal" font-size="20" font-family="svglidedefault" fill="#3F8BC4">装</text><text x="146" y="259" width="20" height="25.6" font-weight="normal" font-style="normal" font-size="20" font-family="svglidedefault" fill="#3F8BC4">带</text><text x="166" y="259" width="20" height="25.6" font-weight="normal" font-style="normal" font-size="20" font-family="svglidedefault" fill="#3F8BC4">和</text><text x="186" y="259" width="20" height="25.6" font-weight="normal" font-style="normal" font-size="20" font-family="svglidedefault" fill="#3F8BC4">卡</text><text x="206" y="259" width="20" height="25.6" font-weight="normal" font-style="normal" font-size="20" font-family="svglidedefault" fill="#3F8BC4">片</text><text x="226" y="259" width="20" height="25.6" font-weight="normal" font-style="normal" font-size="20" font-family="svglidedefault" fill="#3F8BC4">适</text><text x="246" y="259" width="20" height="25.6" font-weight="normal" font-style="normal" font-size="20" font-family="svglidedefault" fill="#3F8BC4">合</text><text x="266" y="259" width="20" height="25.6" font-weight="normal" font-style="normal" font-size="20" font-family="svglidedefault" fill="#3F8BC4">产</text><text x="286" y="259" width="20" height="25.6" font-weight="normal" font-style="normal" font-size="20" font-family="svglidedefault" fill="#3F8BC4">品</text><text x="306" y="259" width="20" height="25.6" font-weight="normal" font-style="normal" font-size="20" font-family="svglidedefault" fill="#3F8BC4">功</text><text x="326" y="259" width="20" height="25.6" font-weight="normal" font-style="normal" font-size="20" font-family="svglidedefault" fill="#3F8BC4">能</text><text x="346" y="259" width="20" height="25.6" font-weight="normal" font-style="normal" font-size="20" font-family="svglidedefault" fill="#3F8BC4">目</text><text x="366" y="259" width="20" height="25.6" font-weight="normal" font-style="normal" font-size="20" font-family="svglidedefault" fill="#3F8BC4">录</text><text x="386" y="259" width="20" height="25.6" font-weight="normal" font-style="normal" font-size="20" font-family="svglidedefault" fill="#3F8BC4">、</text><text x="406" y="259" width="20" height="25.6" font-weight="normal" font-style="normal" font-size="20" font-family="svglidedefault" fill="#3F8BC4">活</text><text x="426" y="259" width="20" height="25.6" font-weight="normal" font-style="normal" font-size="20" font-family="svglidedefault" fill="#3F8BC4">动</text><text x="446" y="259" width="20" height="25.6" font-weight="normal" font-style="normal" font-size="20" font-family="svglidedefault" fill="#3F8BC4">物</text><text x="466" y="259" width="20" height="25.6" font-weight="normal" font-style="normal" font-size="20" font-family="svglidedefault" fill="#3F8BC4">料</text><text x="486" y="259" width="20" height="25.6" font-weight="normal" font-style="normal" font-size="20" font-family="svglidedefault" fill="#3F8BC4">和</text><text x="506" y="259" width="20" height="25.6" font-weight="normal" font-style="normal" font-size="20" font-family="svglidedefault" fill="#3F8BC4">轻</text><text x="66" y="285" width="20" height="25.6" font-weight="normal" font-style="normal" font-size="20" font-family="svglidedefault" fill="#3F8BC4">量</text><text x="86" y="285" width="20" height="25.6" font-weight="normal" font-style="normal" font-size="20" font-family="svglidedefault" fill="#3F8BC4">发</text><text x="106" y="285" width="20" height="25.6" font-weight="normal" font-style="normal" font-size="20" font-family="svglidedefault" fill="#3F8BC4">布</text><text x="126" y="285" width="20" height="25.6" font-weight="normal" font-style="normal" font-size="20" font-family="svglidedefault" fill="#3F8BC4">说</text><text x="146" y="285" width="20" height="25.6" font-weight="normal" font-style="normal" font-size="20" font-family="svglidedefault" fill="#3F8BC4">明</text><text x="166" y="285" width="20" height="25.6" font-weight="normal" font-style="normal" font-size="20" font-family="svglidedefault" fill="#3F8BC4">。</text><mask id="satori_om-id-4"><rect x="64" y="360" width="824" height="118" fill="#fff"/></mask><defs><clipPath id="satori_bc-id-4-0"><rect x="64" y="360" width="194" height="118"/></clipPath></defs><mask id="satori_om-id-4-0"><rect x="66" y="362" width="190" height="114" fill="#fff"/><path width="194" height="118" fill="none" stroke="#000" stroke-width="4" d="M64,360 A0,0 0 0 1 64,360 h194 a0,0 0 0 1 0,0 v118 a0,0 0 0 1 0,0 h-194 a0,0 0 0 1 0,0 v-118 A0,0 0 0 1 64,360"/></mask><rect x="64" y="360" width="194" height="118" fill="#F1E6CB"/><path width="194" height="118" clip-path="url(#satori_bc-id-4-0)" fill="none" stroke="#3A2516" stroke-width="4" d="M64,360 A0,0 0 0 1 64,360 h194 a0,0 0 0 1 0,0 v118 a0,0 0 0 1 0,0 h-194 a0,0 0 0 1 0,0 v-118 A0,0 0 0 1 64,360"/><mask id="satori_om-id-4-0-0"><rect x="80" y="376" width="27" height="74" fill="#fff"/></mask><text x="80" y="402" width="26.6953125" height="32.15625" font-weight="900" font-style="normal" font-size="24" font-family="svglidedefault" fill="#E5392A">01</text><mask id="satori_om-id-4-0-1"><rect x="107" y="376" width="72" height="86" fill="#fff"/></mask><text x="107" y="393" width="18" height="19.44" font-weight="850" font-style="normal" font-size="18" font-family="svglidedefault" fill="#3A2516">智</text><text x="125" y="393" width="18" height="19.44" font-weight="850" font-style="normal" font-size="18" font-family="svglidedefault" fill="#3A2516">能</text><text x="143" y="393" width="18" height="19.44" font-weight="850" font-style="normal" font-size="18" font-family="svglidedefault" fill="#3A2516">推</text><text x="161" y="393" width="18" height="19.44" font-weight="850" font-style="normal" font-size="18" font-family="svglidedefault" fill="#3A2516">荐</text><defs><clipPath id="satori_bc-id-4-1"><rect x="274" y="360" width="194" height="118"/></clipPath></defs><mask id="satori_om-id-4-1"><rect x="276" y="362" width="190" height="114" fill="#fff"/><path width="194" height="118" fill="none" stroke="#000" stroke-width="4" d="M274,360 A0,0 0 0 1 274,360 h194 a0,0 0 0 1 0,0 v118 a0,0 0 0 1 0,0 h-194 a0,0 0 0 1 0,0 v-118 A0,0 0 0 1 274,360"/></mask><rect x="274" y="360" width="194" height="118" fill="#E54489"/><path width="194" height="118" clip-path="url(#satori_bc-id-4-1)" fill="none" stroke="#3A2516" stroke-width="4" d="M274,360 A0,0 0 0 1 274,360 h194 a0,0 0 0 1 0,0 v118 a0,0 0 0 1 0,0 h-194 a0,0 0 0 1 0,0 v-118 A0,0 0 0 1 274,360"/><mask id="satori_om-id-4-1-0"><rect x="290" y="376" width="27" height="74" fill="#fff"/></mask><text x="290" y="402" width="26.6953125" height="32.15625" font-weight="900" font-style="normal" font-size="24" font-family="svglidedefault" fill="#F09131">02</text><mask id="satori_om-id-4-1-1"><rect x="317" y="376" width="72" height="86" fill="#fff"/></mask><text x="317" y="393" width="18" height="19.44" font-weight="850" font-style="normal" font-size="18" font-family="svglidedefault" fill="#3A2516">批</text><text x="335" y="393" width="18" height="19.44" font-weight="850" font-style="normal" font-size="18" font-family="svglidedefault" fill="#3A2516">量</text><text x="353" y="393" width="18" height="19.44" font-weight="850" font-style="normal" font-size="18" font-family="svglidedefault" fill="#3A2516">导</text><text x="371" y="393" width="18" height="19.44" font-weight="850" font-style="normal" font-size="18" font-family="svglidedefault" fill="#3A2516">入</text><defs><clipPath id="satori_bc-id-4-2"><rect x="484" y="360" width="194" height="118"/></clipPath></defs><mask id="satori_om-id-4-2"><rect x="486" y="362" width="190" height="114" fill="#fff"/><path width="194" height="118" fill="none" stroke="#000" stroke-width="4" d="M484,360 A0,0 0 0 1 484,360 h194 a0,0 0 0 1 0,0 v118 a0,0 0 0 1 0,0 h-194 a0,0 0 0 1 0,0 v-118 A0,0 0 0 1 484,360"/></mask><rect x="484" y="360" width="194" height="118" fill="#F1E6CB"/><path width="194" height="118" clip-path="url(#satori_bc-id-4-2)" fill="none" stroke="#3A2516" stroke-width="4" d="M484,360 A0,0 0 0 1 484,360 h194 a0,0 0 0 1 0,0 v118 a0,0 0 0 1 0,0 h-194 a0,0 0 0 1 0,0 v-118 A0,0 0 0 1 484,360"/><mask id="satori_om-id-4-2-0"><rect x="500" y="376" width="27" height="74" fill="#fff"/></mask><text x="500" y="402" width="26.6953125" height="32.15625" font-weight="900" font-style="normal" font-size="24" font-family="svglidedefault" fill="#E54489">03</text><mask id="satori_om-id-4-2-1"><rect x="527" y="376" width="72" height="86" fill="#fff"/></mask><text x="527" y="393" width="18" height="19.44" font-weight="850" font-style="normal" font-size="18" font-family="svglidedefault" fill="#3A2516">权</text><text x="545" y="393" width="18" height="19.44" font-weight="850" font-style="normal" font-size="18" font-family="svglidedefault" fill="#3A2516">限</text><text x="563" y="393" width="18" height="19.44" font-weight="850" font-style="normal" font-size="18" font-family="svglidedefault" fill="#3A2516">看</text><text x="581" y="393" width="18" height="19.44" font-weight="850" font-style="normal" font-size="18" font-family="svglidedefault" fill="#3A2516">板</text><defs><clipPath id="satori_bc-id-4-3"><rect x="694" y="360" width="194" height="118"/></clipPath></defs><mask id="satori_om-id-4-3"><rect x="696" y="362" width="190" height="114" fill="#fff"/><path width="194" height="118" fill="none" stroke="#000" stroke-width="4" d="M694,360 A0,0 0 0 1 694,360 h194 a0,0 0 0 1 0,0 v118 a0,0 0 0 1 0,0 h-194 a0,0 0 0 1 0,0 v-118 A0,0 0 0 1 694,360"/></mask><rect x="694" y="360" width="194" height="118" fill="#E54489"/><path width="194" height="118" clip-path="url(#satori_bc-id-4-3)" fill="none" stroke="#3A2516" stroke-width="4" d="M694,360 A0,0 0 0 1 694,360 h194 a0,0 0 0 1 0,0 v118 a0,0 0 0 1 0,0 h-194 a0,0 0 0 1 0,0 v-118 A0,0 0 0 1 694,360"/><mask id="satori_om-id-4-3-0"><rect x="710" y="376" width="27" height="74" fill="#fff"/></mask><text x="710" y="402" width="26.6953125" height="32.15625" font-weight="900" font-style="normal" font-size="24" font-family="svglidedefault" fill="#3F8BC4">04</text><mask id="satori_om-id-4-3-1"><rect x="737" y="376" width="72" height="86" fill="#fff"/></mask><text x="737" y="393" width="18" height="19.44" font-weight="850" font-style="normal" font-size="18" font-family="svglidedefault" fill="#3A2516">异</text><text x="755" y="393" width="18" height="19.44" font-weight="850" font-style="normal" font-size="18" font-family="svglidedefault" fill="#3A2516">常</text><text x="773" y="393" width="18" height="19.44" font-weight="850" font-style="normal" font-size="18" font-family="svglidedefault" fill="#3A2516">提</text><text x="791" y="393" width="18" height="19.44" font-weight="850" font-style="normal" font-size="18" font-family="svglidedefault" fill="#3A2516">醒</text><mask id="satori_om-id-5"><rect x="770" y="94" width="112" height="112" fill="#fff"/></mask><path x="770" y="94" width="112" height="112" fill="#F09131" d="M826,94 h0 a56,56 0 0 1 56,56 v0 a56,56 0 0 1 -56,56 h0 a56,56 0 0 1 -56,-56 v0 a56,56 0 0 1 56,-56"/><mask id="satori_om-id-5-0"><rect x="797" y="134" width="59" height="33" fill="#fff"/></mask><text x="797" y="161" width="58.3251953125" height="33.49609375" font-weight="900" font-style="normal" font-size="25" font-family="svglidedefault" fill="#F1E6CB">NEW</text></svg>