<svg width="960" height="540" viewBox="0 0 960 540" xmlns="http://www.w3.org/2000/svg"><mask id="satori_om-id"><rect x="0" y="0" width="960" height="540" fill="#fff"/></mask><rect x="0" y="0" width="960" height="540" fill="#F8E8B8"/><defs><clipPath id="satori_bc-id-0"><rect x="62" y="56" width="836" height="428"/></clipPath></defs><mask id="satori_om-id-0"><rect x="64" y="58" width="832" height="424" fill="#fff"/><path width="836" height="428" fill="none" stroke="#000" stroke-width="4" d="M62,56 A0,0 0 0 1 62,56 h836 a0,0 0 0 1 0,0 v428 a0,0 0 0 1 0,0 h-836 a0,0 0 0 1 0,0 v-428 A0,0 0 0 1 62,56"/></mask><rect x="62" y="56" width="836" height="428" fill="#FFF7D6"/><path width="836" height="428" clip-path="url(#satori_bc-id-0)" fill="none" stroke="#6B5B45" stroke-width="4" d="M62,56 A0,0 0 0 1 62,56 h836 a0,0 0 0 1 0,0 v428 a0,0 0 0 1 0,0 h-836 a0,0 0 0 1 0,0 v-428 A0,0 0 0 1 62,56"/><mask id="satori_om-id-1"><rect x="86" y="84" width="95" height="21" fill="#fff"/></mask><text x="86" y="101" width="45.34375" height="21.4375" font-weight="900" font-style="normal" font-size="16" font-family="svglidedefault" fill="#C2410C">FIELD</text><text x="131.34375" y="101" width="4.4453125" height="21.4375" font-weight="900" font-style="normal" font-size="16" font-family="svglidedefault" fill="#C2410C"> </text><text x="135.7890625" y="101" width="44.4453125" height="21.4375" font-weight="900" font-style="normal" font-size="16" font-family="svglidedefault" fill="#C2410C">NOTE</text><mask id="satori_om-id-2"><rect x="86" y="116" width="520" height="49" fill="#fff"/></mask><text x="86" y="160" width="48" height="48.96" font-weight="850" font-style="normal" font-size="48" font-family="svglidedefault" fill="#3B2F22">用</text><text x="134" y="160" width="48" height="48.96" font-weight="850" font-style="normal" font-size="48" font-family="svglidedefault" fill="#3B2F22">户</text><text x="182" y="160" width="48" height="48.96" font-weight="850" font-style="normal" font-size="48" font-family="svglidedefault" fill="#3B2F22">访</text><text x="230" y="160" width="48" height="48.96" font-weight="850" font-style="normal" font-size="48" font-family="svglidedefault" fill="#3B2F22">谈</text><text x="278" y="160" width="48" height="48.96" font-weight="850" font-style="normal" font-size="48" font-family="svglidedefault" fill="#3B2F22">证</text><text x="326" y="160" width="48" height="48.96" font-weight="850" font-style="normal" font-size="48" font-family="svglidedefault" fill="#3B2F22">据</text><text x="374" y="160" width="48" height="48.96" font-weight="850" font-style="normal" font-size="48" font-family="svglidedefault" fill="#3B2F22">墙</text><mask id="satori_om-id-3"><rect x="88" y="228" width="430" height="52" fill="#fff"/></mask><text x="88" y="249" width="20" height="25.6" font-weight="normal" font-style="normal" font-size="20" font-family="svglidedefault" fill="#6B5B45">把</text><text x="108" y="249" width="20" height="25.6" font-weight="normal" font-style="normal" font-size="20" font-family="svglidedefault" fill="#6B5B45">访</text><text x="128" y="249" width="20" height="25.6" font-weight="normal" font-style="normal" font-size="20" font-family="svglidedefault" fill="#6B5B45">谈</text><text x="148" y="249" width="20" height="25.6" font-weight="normal" font-style="normal" font-size="20" font-family="svglidedefault" fill="#6B5B45">洞</text><text x="168" y="249" width="20" height="25.6" font-weight="normal" font-style="normal" font-size="20" font-family="svglidedefault" fill="#6B5B45">察</text><text x="188" y="249" width="20" height="25.6" font-weight="normal" font-style="normal" font-size="20" font-family="svglidedefault" fill="#6B5B45">、</text><text x="208" y="249" width="20" height="25.6" font-weight="normal" font-style="normal" font-size="20" font-family="svglidedefault" fill="#6B5B45">证</text><text x="228" y="249" width="20" height="25.6" font-weight="normal" font-style="normal" font-size="20" font-family="svglidedefault" fill="#6B5B45">据</text><text x="248" y="249" width="20" height="25.6" font-weight="normal" font-style="normal" font-size="20" font-family="svglidedefault" fill="#6B5B45">和</text><text x="268" y="249" width="20" height="25.6" font-weight="normal" font-style="normal" font-size="20" font-family="svglidedefault" fill="#6B5B45">下</text><text x="288" y="249" width="20" height="25.6" font-weight="normal" font-style="normal" font-size="20" font-family="svglidedefault" fill="#6B5B45">一</text><text x="308" y="249" width="20" height="25.6" font-weight="normal" font-style="normal" font-size="20" font-family="svglidedefault" fill="#6B5B45">步</text><text x="328" y="249" width="20" height="25.6" font-weight="normal" font-style="normal" font-size="20" font-family="svglidedefault" fill="#6B5B45">贴</text><text x="348" y="249" width="20" height="25.6" font-weight="normal" font-style="normal" font-size="20" font-family="svglidedefault" fill="#6B5B45">在</text><text x="368" y="249" width="20" height="25.6" font-weight="normal" font-style="normal" font-size="20" font-family="svglidedefault" fill="#6B5B45">同</text><text x="388" y="249" width="20" height="25.6" font-weight="normal" font-style="normal" font-size="20" font-family="svglidedefault" fill="#6B5B45">一</text><text x="408" y="249" width="20" height="25.6" font-weight="normal" font-style="normal" font-size="20" font-family="svglidedefault" fill="#6B5B45">张</text><text x="428" y="249" width="20" height="25.6" font-weight="normal" font-style="normal" font-size="20" font-family="svglidedefault" fill="#6B5B45">标</text><text x="448" y="249" width="20" height="25.6" font-weight="normal" font-style="normal" font-size="20" font-family="svglidedefault" fill="#6B5B45">注</text><text x="468" y="249" width="20" height="25.6" font-weight="normal" font-style="normal" font-size="20" font-family="svglidedefault" fill="#6B5B45">板</text><text x="88" y="275" width="20" height="25.6" font-weight="normal" font-style="normal" font-size="20" font-family="svglidedefault" fill="#6B5B45">上</text><text x="108" y="275" width="20" height="25.6" font-weight="normal" font-style="normal" font-size="20" font-family="svglidedefault" fill="#6B5B45">。</text><defs><clipPath id="satori_bc-id-4"><rect x="718" y="86" width="152" height="55"/></clipPath></defs><mask id="satori_om-id-4"><rect x="721" y="89" width="146" height="49" fill="#fff"/><path width="152" height="55" fill="none" stroke="#000" stroke-width="6" d="M718,86 A0,0 0 0 1 718,86 h152 a0,0 0 0 1 0,0 v55 a0,0 0 0 1 0,0 h-152 a0,0 0 0 1 0,0 v-55 A0,0 0 0 1 718,86"/></mask><path width="152" height="55" clip-path="url(#satori_bc-id-4)" fill="none" stroke="#C2410C" stroke-width="6" d="M718,86 A0,0 0 0 1 718,86 h152 a0,0 0 0 1 0,0 v55 a0,0 0 0 1 0,0 h-152 a0,0 0 0 1 0,0 v-55 A0,0 0 0 1 718,86"/><text x="735" y="123" width="117.34765625" height="29.4765625" font-weight="900" font-style="normal" font-size="22" font-family="svglidedefault" fill="#C2410C">REVIEWED</text><mask id="satori_om-id-5"><rect x="572" y="160" width="302" height="226" fill="#fff"/></mask><defs><clipPath id="satori_bc-id-5-0"><rect x="572" y="160" width="302" height="66"/></clipPath></defs><mask id="satori_om-id-5-0"><rect x="574" y="162" width="298" height="62" fill="#fff"/><path width="302" height="66" fill="none" stroke="#000" stroke-width="4" d="M572,160 A0,0 0 0 1 572,160 h302 a0,0 0 0 1 0,0 v66 a0,0 0 0 1 0,0 h-302 a0,0 0 0 1 0,0 v-66 A0,0 0 0 1 572,160"/></mask><rect x="572" y="160" width="302" height="66" fill="#F8E8B8"/><path width="302" height="66" clip-path="url(#satori_bc-id-5-0)" fill="none" stroke="#3B2F22" stroke-width="4" d="M572,160 A0,0 0 0 1 572,160 h302 a0,0 0 0 1 0,0 v66 a0,0 0 0 1 0,0 h-302 a0,0 0 0 1 0,0 v-66 A0,0 0 0 1 572,160"/><mask id="satori_om-id-5-0-0"><rect x="588" y="176" width="47" height="26" fill="#fff"/></mask><text x="588" y="190" width="36.11181640625" height="17.41796875" font-weight="900" font-style="normal" font-size="13" font-family="svglidedefault" fill="#C2410C">NOTE</text><text x="624.11181640625" y="190" width="3.61181640625" height="17.41796875" font-weight="900" font-style="normal" font-size="13" font-family="svglidedefault" fill="#C2410C"> </text><text x="627.7236328125" y="190" width="7.22998046875" height="17.41796875" font-weight="900" font-style="normal" font-size="13" font-family="svglidedefault" fill="#C2410C">1</text><mask id="satori_om-id-5-0-1"><rect x="635" y="176" width="144" height="34" fill="#fff"/></mask><text x="635" y="193" width="18" height="20.160000000000004" font-weight="750" font-style="normal" font-size="18" font-family="svglidedefault" fill="#3B2F22">用</text><text x="653" y="193" width="18" height="20.160000000000004" font-weight="750" font-style="normal" font-size="18" font-family="svglidedefault" fill="#3B2F22">户</text><text x="671" y="193" width="18" height="20.160000000000004" font-weight="750" font-style="normal" font-size="18" font-family="svglidedefault" fill="#3B2F22">绕</text><text x="689" y="193" width="18" height="20.160000000000004" font-weight="750" font-style="normal" font-size="18" font-family="svglidedefault" fill="#3B2F22">过</text><text x="707" y="193" width="18" height="20.160000000000004" font-weight="750" font-style="normal" font-size="18" font-family="svglidedefault" fill="#3B2F22">默</text><text x="725" y="193" width="18" height="20.160000000000004" font-weight="750" font-style="normal" font-size="18" font-family="svglidedefault" fill="#3B2F22">认</text><text x="743" y="193" width="18" height="20.160000000000004" font-weight="750" font-style="normal" font-size="18" font-family="svglidedefault" fill="#3B2F22">流</text><text x="761" y="193" width="18" height="20.160000000000004" font-weight="750" font-style="normal" font-size="18" font-family="svglidedefault" fill="#3B2F22">程</text><defs><clipPath id="satori_bc-id-5-1"><rect x="572" y="240" width="302" height="66"/></clipPath></defs><mask id="satori_om-id-5-1"><rect x="574" y="242" width="298" height="62" fill="#fff"/><path width="302" height="66" fill="none" stroke="#000" stroke-width="4" d="M572,240 A0,0 0 0 1 572,240 h302 a0,0 0 0 1 0,0 v66 a0,0 0 0 1 0,0 h-302 a0,0 0 0 1 0,0 v-66 A0,0 0 0 1 572,240"/></mask><rect x="572" y="240" width="302" height="66" fill="#F8E8B8"/><path width="302" height="66" clip-path="url(#satori_bc-id-5-1)" fill="none" stroke="#3B2F22" stroke-width="4" d="M572,240 A0,0 0 0 1 572,240 h302 a0,0 0 0 1 0,0 v66 a0,0 0 0 1 0,0 h-302 a0,0 0 0 1 0,0 v-66 A0,0 0 0 1 572,240"/><mask id="satori_om-id-5-1-0"><rect x="588" y="256" width="47" height="26" fill="#fff"/></mask><text x="588" y="270" width="36.11181640625" height="17.41796875" font-weight="900" font-style="normal" font-size="13" font-family="svglidedefault" fill="#C2410C">NOTE</text><text x="624.11181640625" y="270" width="3.61181640625" height="17.41796875" font-weight="900" font-style="normal" font-size="13" font-family="svglidedefault" fill="#C2410C"> </text><text x="627.7236328125" y="270" width="7.22998046875" height="17.41796875" font-weight="900" font-style="normal" font-size="13" font-family="svglidedefault" fill="#C2410C">2</text><mask id="satori_om-id-5-1-1"><rect x="635" y="256" width="144" height="34" fill="#fff"/></mask><text x="635" y="273" width="18" height="20.160000000000004" font-weight="750" font-style="normal" font-size="18" font-family="svglidedefault" fill="#3B2F22">关</text><text x="653" y="273" width="18" height="20.160000000000004" font-weight="750" font-style="normal" font-size="18" font-family="svglidedefault" fill="#3B2F22">键</text><text x="671" y="273" width="18" height="20.160000000000004" font-weight="750" font-style="normal" font-size="18" font-family="svglidedefault" fill="#3B2F22">证</text><text x="689" y="273" width="18" height="20.160000000000004" font-weight="750" font-style="normal" font-size="18" font-family="svglidedefault" fill="#3B2F22">据</text><text x="707" y="273" width="18" height="20.160000000000004" font-weight="750" font-style="normal" font-size="18" font-family="svglidedefault" fill="#3B2F22">需</text><text x="725" y="273" width="18" height="20.160000000000004" font-weight="750" font-style="normal" font-size="18" font-family="svglidedefault" fill="#3B2F22">要</text><text x="743" y="273" width="18" height="20.160000000000004" font-weight="750" font-style="normal" font-size="18" font-family="svglidedefault" fill="#3B2F22">回</text><text x="761" y="273" width="18" height="20.160000000000004" font-weight="750" font-style="normal" font-size="18" font-family="svglidedefault" fill="#3B2F22">访</text><defs><clipPath id="satori_bc-id-5-2"><rect x="572" y="320" width="302" height="66"/></clipPath></defs><mask id="satori_om-id-5-2"><rect x="574" y="322" width="298" height="62" fill="#fff"/><path width="302" height="66" fill="none" stroke="#000" stroke-width="4" d="M572,320 A0,0 0 0 1 572,320 h302 a0,0 0 0 1 0,0 v66 a0,0 0 0 1 0,0 h-302 a0,0 0 0 1 0,0 v-66 A0,0 0 0 1 572,320"/></mask><rect x="572" y="320" width="302" height="66" fill="#F8E8B8"/><path width="302" height="66" clip-path="url(#satori_bc-id-5-2)" fill="none" stroke="#3B2F22" stroke-width="4" d="M572,320 A0,0 0 0 1 572,320 h302 a0,0 0 0 1 0,0 v66 a0,0 0 0 1 0,0 h-302 a0,0 0 0 1 0,0 v-66 A0,0 0 0 1 572,320"/><mask id="satori_om-id-5-2-0"><rect x="588" y="336" width="47" height="26" fill="#fff"/></mask><text x="588" y="350" width="36.11181640625" height="17.41796875" font-weight="900" font-style="normal" font-size="13" font-family="svglidedefault" fill="#C2410C">NOTE</text><text x="624.11181640625" y="350" width="3.61181640625" height="17.41796875" font-weight="900" font-style="normal" font-size="13" font-family="svglidedefault" fill="#C2410C"> </text><text x="627.7236328125" y="350" width="7.22998046875" height="17.41796875" font-weight="900" font-style="normal" font-size="13" font-family="svglidedefault" fill="#C2410C">3</text><mask id="satori_om-id-5-2-1"><rect x="635" y="336" width="181" height="34" fill="#fff"/></mask><text x="635" y="353" width="18" height="20.160000000000004" font-weight="750" font-style="normal" font-size="18" font-family="svglidedefault" fill="#3B2F22">下</text><text x="653" y="353" width="18" height="20.160000000000004" font-weight="750" font-style="normal" font-size="18" font-family="svglidedefault" fill="#3B2F22">一</text><text x="671" y="353" width="18" height="20.160000000000004" font-weight="750" font-style="normal" font-size="18" font-family="svglidedefault" fill="#3B2F22">步</text><text x="689" y="353" width="18" height="20.160000000000004" font-weight="750" font-style="normal" font-size="18" font-family="svglidedefault" fill="#3B2F22">由</text><text x="707" y="353" width="18" height="20.160000000000004" font-weight="750" font-style="normal" font-size="18" font-family="svglidedefault" fill="#3B2F22">体</text><text x="725" y="353" width="18" height="20.160000000000004" font-weight="750" font-style="normal" font-size="18" font-family="svglidedefault" fill="#3B2F22">验</text><text x="743" y="353" width="18" height="20.160000000000004" font-weight="750" font-style="normal" font-size="18" font-family="svglidedefault" fill="#3B2F22">组</text><text x="761" y="353" width="5.0009765625" height="20.160000000000004" font-weight="750" font-style="normal" font-size="18" font-family="svglidedefault" fill="#3B2F22"> </text><text x="766.0009765625" y="353" width="49.025390625" height="20.160000000000004" font-weight="750" font-style="normal" font-size="18" font-family="svglidedefault" fill="#3B2F22">owner</text><mask id="satori_om-id-6"><rect x="86" y="423" width="430" height="35" fill="#fff"/></mask><mask id="satori_om-id-6-0"><rect x="86" y="423" width="63" height="35" fill="#fff"/></mask><rect x="86" y="423" width="63" height="35" fill="#C2410C"/><text x="98" y="446" width="38.896484375" height="18.7578125" font-weight="900" font-style="normal" font-size="14" font-family="svglidedefault" fill="#F8E8B8">USER</text><mask id="satori_om-id-6-1"><rect x="161" y="423" width="96" height="35" fill="#fff"/></mask><rect x="161" y="423" width="96" height="35" fill="#C2410C"/><text x="173" y="446" width="71.572265625" height="18.7578125" font-weight="900" font-style="normal" font-size="14" font-family="svglidedefault" fill="#F8E8B8">EVIDENCE</text><mask id="satori_om-id-6-2"><rect x="269" y="423" width="62" height="35" fill="#fff"/></mask><rect x="269" y="423" width="62" height="35" fill="#C2410C"/><text x="281" y="446" width="37.337890625" height="18.7578125" font-weight="900" font-style="normal" font-size="14" font-family="svglidedefault" fill="#F8E8B8">NEXT</text></svg>