<svg width="960" height="540" viewBox="0 0 960 540" xmlns="http://www.w3.org/2000/svg"><mask id="satori_om-id"><rect x="0" y="0" width="960" height="540" fill="#fff"/></mask><rect x="0" y="0" width="960" height="540" fill="#F7F2E8"/><defs><clipPath id="satori_bc-id-0"><rect x="50" y="50" width="860" height="440"/></clipPath></defs><mask id="satori_om-id-0"><rect x="53" y="53" width="854" height="434" fill="#fff"/><path width="860" height="440" fill="none" stroke="#000" stroke-width="6" d="M50,50 A0,0 0 0 1 50,50 h860 a0,0 0 0 1 0,0 v440 a0,0 0 0 1 0,0 h-860 a0,0 0 0 1 0,0 v-440 A0,0 0 0 1 50,50"/></mask><path width="860" height="440" clip-path="url(#satori_bc-id-0)" fill="none" stroke="#111111" stroke-width="6" d="M50,50 A0,0 0 0 1 50,50 h860 a0,0 0 0 1 0,0 v440 a0,0 0 0 1 0,0 h-860 a0,0 0 0 1 0,0 v-440 A0,0 0 0 1 50,50"/><mask id="satori_om-id-1"><rect x="70" y="74" width="100" height="20" fill="#fff"/></mask><text x="70" y="90" width="99.1845703125" height="20.09765625" font-weight="900" font-style="normal" font-size="15" font-family="svglidedefault" fill="#111111">BATTLECARD</text><mask id="satori_om-id-2"><rect x="70" y="104" width="492" height="48" fill="#fff"/></mask><text x="70" y="148" width="50" height="48" font-weight="900" font-style="normal" font-size="50" font-family="svglidedefault" fill="#111111">方</text><text x="120" y="148" width="50" height="48" font-weight="900" font-style="normal" font-size="50" font-family="svglidedefault" fill="#111111">案</text><text x="170" y="148" width="50" height="48" font-weight="900" font-style="normal" font-size="50" font-family="svglidedefault" fill="#111111">评</text><text x="220" y="148" width="50" height="48" font-weight="900" font-style="normal" font-size="50" font-family="svglidedefault" fill="#111111">分</text><text x="270" y="148" width="50" height="48" font-weight="900" font-style="normal" font-size="50" font-family="svglidedefault" fill="#111111">矩</text><text x="320" y="148" width="50" height="48" font-weight="900" font-style="normal" font-size="50" font-family="svglidedefault" fill="#111111">阵</text><mask id="satori_om-id-3"><rect x="70" y="222" width="426" height="46" fill="#fff"/></mask><text x="70" y="241" width="19" height="23.18" font-weight="normal" font-style="normal" font-size="19" font-family="svglidedefault" fill="#44403C">硬</text><text x="89" y="241" width="19" height="23.18" font-weight="normal" font-style="normal" font-size="19" font-family="svglidedefault" fill="#44403C">边</text><text x="108" y="241" width="19" height="23.18" font-weight="normal" font-style="normal" font-size="19" font-family="svglidedefault" fill="#44403C">框</text><text x="127" y="241" width="19" height="23.18" font-weight="normal" font-style="normal" font-size="19" font-family="svglidedefault" fill="#44403C">矩</text><text x="146" y="241" width="19" height="23.18" font-weight="normal" font-style="normal" font-size="19" font-family="svglidedefault" fill="#44403C">阵</text><text x="165" y="241" width="19" height="23.18" font-weight="normal" font-style="normal" font-size="19" font-family="svglidedefault" fill="#44403C">用</text><text x="184" y="241" width="19" height="23.18" font-weight="normal" font-style="normal" font-size="19" font-family="svglidedefault" fill="#44403C">于</text><text x="203" y="241" width="19" height="23.18" font-weight="normal" font-style="normal" font-size="19" font-family="svglidedefault" fill="#44403C">竞</text><text x="222" y="241" width="19" height="23.18" font-weight="normal" font-style="normal" font-size="19" font-family="svglidedefault" fill="#44403C">品</text><text x="241" y="241" width="19" height="23.18" font-weight="normal" font-style="normal" font-size="19" font-family="svglidedefault" fill="#44403C">对</text><text x="260" y="241" width="19" height="23.18" font-weight="normal" font-style="normal" font-size="19" font-family="svglidedefault" fill="#44403C">比</text><text x="279" y="241" width="19" height="23.18" font-weight="normal" font-style="normal" font-size="19" font-family="svglidedefault" fill="#44403C">、</text><text x="298" y="241" width="19" height="23.18" font-weight="normal" font-style="normal" font-size="19" font-family="svglidedefault" fill="#44403C">方</text><text x="317" y="241" width="19" height="23.18" font-weight="normal" font-style="normal" font-size="19" font-family="svglidedefault" fill="#44403C">案</text><text x="336" y="241" width="19" height="23.18" font-weight="normal" font-style="normal" font-size="19" font-family="svglidedefault" fill="#44403C">评</text><text x="355" y="241" width="19" height="23.18" font-weight="normal" font-style="normal" font-size="19" font-family="svglidedefault" fill="#44403C">分</text><text x="374" y="241" width="19" height="23.18" font-weight="normal" font-style="normal" font-size="19" font-family="svglidedefault" fill="#44403C">和</text><text x="393" y="241" width="19" height="23.18" font-weight="normal" font-style="normal" font-size="19" font-family="svglidedefault" fill="#44403C">关</text><text x="412" y="241" width="19" height="23.18" font-weight="normal" font-style="normal" font-size="19" font-family="svglidedefault" fill="#44403C">键</text><text x="431" y="241" width="19" height="23.18" font-weight="normal" font-style="normal" font-size="19" font-family="svglidedefault" fill="#44403C">约</text><text x="450" y="241" width="19" height="23.18" font-weight="normal" font-style="normal" font-size="19" font-family="svglidedefault" fill="#44403C">束</text><text x="469" y="241" width="19" height="23.18" font-weight="normal" font-style="normal" font-size="19" font-family="svglidedefault" fill="#44403C">排</text><text x="70" y="264" width="19" height="23.18" font-weight="normal" font-style="normal" font-size="19" font-family="svglidedefault" fill="#44403C">序</text><text x="89" y="264" width="19" height="23.18" font-weight="normal" font-style="normal" font-size="19" font-family="svglidedefault" fill="#44403C">。</text><defs><clipPath id="satori_bc-id-4"><rect x="574" y="76" width="314" height="92"/></clipPath></defs><mask id="satori_om-id-4"><rect x="577" y="79" width="308" height="86" fill="#fff"/><path width="314" height="92" fill="none" stroke="#000" stroke-width="6" d="M574,76 A0,0 0 0 1 574,76 h314 a0,0 0 0 1 0,0 v92 a0,0 0 0 1 0,0 h-314 a0,0 0 0 1 0,0 v-92 A0,0 0 0 1 574,76"/></mask><rect x="574" y="76" width="314" height="92" fill="#111111"/><path width="314" height="92" clip-path="url(#satori_bc-id-4)" fill="none" stroke="#111111" stroke-width="6" d="M574,76 A0,0 0 0 1 574,76 h314 a0,0 0 0 1 0,0 v92 a0,0 0 0 1 0,0 h-314 a0,0 0 0 1 0,0 v-92 A0,0 0 0 1 574,76"/><mask id="satori_om-id-4-0"><rect x="591" y="93" width="119" height="58" fill="#fff"/></mask><text x="591" y="115" width="24" height="24" font-weight="900" font-style="normal" font-size="24" font-family="svglidedefault" fill="#F7F2E8">优</text><text x="615" y="115" width="24" height="24" font-weight="900" font-style="normal" font-size="24" font-family="svglidedefault" fill="#F7F2E8">先</text><text x="639" y="115" width="24" height="24" font-weight="900" font-style="normal" font-size="24" font-family="svglidedefault" fill="#F7F2E8">方</text><text x="663" y="115" width="24" height="24" font-weight="900" font-style="normal" font-size="24" font-family="svglidedefault" fill="#F7F2E8">案</text><text x="687" y="115" width="6.66796875" height="24" font-weight="900" font-style="normal" font-size="24" font-family="svglidedefault" fill="#F7F2E8"> </text><text x="693.66796875" y="115" width="16.0078125" height="24" font-weight="900" font-style="normal" font-size="24" font-family="svglidedefault" fill="#F7F2E8">B</text><mask id="satori_om-id-5"><rect x="70" y="316" width="820" height="148" fill="#fff"/></mask><defs><clipPath id="satori_bc-id-5-0"><rect x="70" y="316" width="273" height="74"/></clipPath></defs><mask id="satori_om-id-5-0"><rect x="72" y="318" width="269" height="70" fill="#fff"/><path width="273" height="74" fill="none" stroke="#000" stroke-width="4" d="M70,316 A0,0 0 0 1 70,316 h273 a0,0 0 0 1 0,0 v74 a0,0 0 0 1 0,0 h-273 a0,0 0 0 1 0,0 v-74 A0,0 0 0 1 70,316"/></mask><rect x="70" y="316" width="273" height="74" fill="#F7F2E8"/><path width="273" height="74" clip-path="url(#satori_bc-id-5-0)" fill="none" stroke="#111111" stroke-width="4" d="M70,316 A0,0 0 0 1 70,316 h273 a0,0 0 0 1 0,0 v74 a0,0 0 0 1 0,0 h-273 a0,0 0 0 1 0,0 v-74 A0,0 0 0 1 70,316"/><mask id="satori_om-id-5-0-0"><rect x="84" y="330" width="34" height="46" fill="#fff"/></mask><text x="84" y="360" width="15.572265625" height="37.515625" font-weight="900" font-style="normal" font-size="28" font-family="svglidedefault" fill="#111111">1</text><mask id="satori_om-id-5-0-1"><rect x="118" y="330" width="211" height="46" fill="#fff"/></mask><text x="118" y="347" width="18" height="19.44" font-weight="850" font-style="normal" font-size="18" font-family="svglidedefault" fill="#111111">成</text><text x="136" y="347" width="18" height="19.44" font-weight="850" font-style="normal" font-size="18" font-family="svglidedefault" fill="#111111">本</text><text x="154" y="347" width="18" height="19.44" font-weight="850" font-style="normal" font-size="18" font-family="svglidedefault" fill="#111111">可</text><text x="172" y="347" width="18" height="19.44" font-weight="850" font-style="normal" font-size="18" font-family="svglidedefault" fill="#111111">控</text><defs><clipPath id="satori_bc-id-5-1"><rect x="343" y="316" width="273" height="74"/></clipPath></defs><mask id="satori_om-id-5-1"><rect x="345" y="318" width="269" height="70" fill="#fff"/><path width="273" height="74" fill="none" stroke="#000" stroke-width="4" d="M343,316 A0,0 0 0 1 343,316 h273 a0,0 0 0 1 0,0 v74 a0,0 0 0 1 0,0 h-273 a0,0 0 0 1 0,0 v-74 A0,0 0 0 1 343,316"/></mask><rect x="343" y="316" width="273" height="74" fill="#FDE68A"/><path width="273" height="74" clip-path="url(#satori_bc-id-5-1)" fill="none" stroke="#111111" stroke-width="4" d="M343,316 A0,0 0 0 1 343,316 h273 a0,0 0 0 1 0,0 v74 a0,0 0 0 1 0,0 h-273 a0,0 0 0 1 0,0 v-74 A0,0 0 0 1 343,316"/><mask id="satori_om-id-5-1-0"><rect x="357" y="330" width="34" height="46" fill="#fff"/></mask><text x="357" y="360" width="15.572265625" height="37.515625" font-weight="900" font-style="normal" font-size="28" font-family="svglidedefault" fill="#111111">2</text><mask id="satori_om-id-5-1-1"><rect x="391" y="330" width="211" height="46" fill="#fff"/></mask><text x="391" y="347" width="18" height="19.44" font-weight="850" font-style="normal" font-size="18" font-family="svglidedefault" fill="#111111">接</text><text x="409" y="347" width="18" height="19.44" font-weight="850" font-style="normal" font-size="18" font-family="svglidedefault" fill="#111111">入</text><text x="427" y="347" width="18" height="19.44" font-weight="850" font-style="normal" font-size="18" font-family="svglidedefault" fill="#111111">最</text><text x="445" y="347" width="18" height="19.44" font-weight="850" font-style="normal" font-size="18" font-family="svglidedefault" fill="#111111">快</text><defs><clipPath id="satori_bc-id-5-2"><rect x="616" y="316" width="273" height="74"/></clipPath></defs><mask id="satori_om-id-5-2"><rect x="618" y="318" width="269" height="70" fill="#fff"/><path width="273" height="74" fill="none" stroke="#000" stroke-width="4" d="M616,316 A0,0 0 0 1 616,316 h273 a0,0 0 0 1 0,0 v74 a0,0 0 0 1 0,0 h-273 a0,0 0 0 1 0,0 v-74 A0,0 0 0 1 616,316"/></mask><rect x="616" y="316" width="273" height="74" fill="#F7F2E8"/><path width="273" height="74" clip-path="url(#satori_bc-id-5-2)" fill="none" stroke="#111111" stroke-width="4" d="M616,316 A0,0 0 0 1 616,316 h273 a0,0 0 0 1 0,0 v74 a0,0 0 0 1 0,0 h-273 a0,0 0 0 1 0,0 v-74 A0,0 0 0 1 616,316"/><mask id="satori_om-id-5-2-0"><rect x="630" y="330" width="34" height="46" fill="#fff"/></mask><text x="630" y="360" width="15.572265625" height="37.515625" font-weight="900" font-style="normal" font-size="28" font-family="svglidedefault" fill="#111111">3</text><mask id="satori_om-id-5-2-1"><rect x="664" y="330" width="211" height="46" fill="#fff"/></mask><text x="664" y="347" width="18" height="19.44" font-weight="850" font-style="normal" font-size="18" font-family="svglidedefault" fill="#111111">风</text><text x="682" y="347" width="18" height="19.44" font-weight="850" font-style="normal" font-size="18" font-family="svglidedefault" fill="#111111">险</text><text x="700" y="347" width="18" height="19.44" font-weight="850" font-style="normal" font-size="18" font-family="svglidedefault" fill="#111111">最</text><text x="718" y="347" width="18" height="19.44" font-weight="850" font-style="normal" font-size="18" font-family="svglidedefault" fill="#111111">低</text><defs><clipPath id="satori_bc-id-5-3"><rect x="70" y="390" width="273" height="74"/></clipPath></defs><mask id="satori_om-id-5-3"><rect x="72" y="392" width="269" height="70" fill="#fff"/><path width="273" height="74" fill="none" stroke="#000" stroke-width="4" d="M70,390 A0,0 0 0 1 70,390 h273 a0,0 0 0 1 0,0 v74 a0,0 0 0 1 0,0 h-273 a0,0 0 0 1 0,0 v-74 A0,0 0 0 1 70,390"/></mask><rect x="70" y="390" width="273" height="74" fill="#FDE68A"/><path width="273" height="74" clip-path="url(#satori_bc-id-5-3)" fill="none" stroke="#111111" stroke-width="4" d="M70,390 A0,0 0 0 1 70,390 h273 a0,0 0 0 1 0,0 v74 a0,0 0 0 1 0,0 h-273 a0,0 0 0 1 0,0 v-74 A0,0 0 0 1 70,390"/><mask id="satori_om-id-5-3-0"><rect x="84" y="404" width="34" height="46" fill="#fff"/></mask><text x="84" y="434" width="15.572265625" height="37.515625" font-weight="900" font-style="normal" font-size="28" font-family="svglidedefault" fill="#111111">4</text><mask id="satori_om-id-5-3-1"><rect x="118" y="404" width="211" height="46" fill="#fff"/></mask><text x="118" y="421" width="53.015625" height="19.44" font-weight="850" font-style="normal" font-size="18" font-family="svglidedefault" fill="#111111">Owner</text><text x="171.015625" y="421" width="5.0009765625" height="19.44" font-weight="850" font-style="normal" font-size="18" font-family="svglidedefault" fill="#111111"> </text><text x="176.0166015625" y="421" width="18" height="19.44" font-weight="850" font-style="normal" font-size="18" font-family="svglidedefault" fill="#111111">清</text><text x="194.0166015625" y="421" width="18" height="19.44" font-weight="850" font-style="normal" font-size="18" font-family="svglidedefault" fill="#111111">晰</text><defs><clipPath id="satori_bc-id-5-4"><rect x="343" y="390" width="273" height="74"/></clipPath></defs><mask id="satori_om-id-5-4"><rect x="345" y="392" width="269" height="70" fill="#fff"/><path width="273" height="74" fill="none" stroke="#000" stroke-width="4" d="M343,390 A0,0 0 0 1 343,390 h273 a0,0 0 0 1 0,0 v74 a0,0 0 0 1 0,0 h-273 a0,0 0 0 1 0,0 v-74 A0,0 0 0 1 343,390"/></mask><rect x="343" y="390" width="273" height="74" fill="#F7F2E8"/><path width="273" height="74" clip-path="url(#satori_bc-id-5-4)" fill="none" stroke="#111111" stroke-width="4" d="M343,390 A0,0 0 0 1 343,390 h273 a0,0 0 0 1 0,0 v74 a0,0 0 0 1 0,0 h-273 a0,0 0 0 1 0,0 v-74 A0,0 0 0 1 343,390"/><mask id="satori_om-id-5-4-0"><rect x="357" y="404" width="34" height="46" fill="#fff"/></mask><text x="357" y="434" width="15.572265625" height="37.515625" font-weight="900" font-style="normal" font-size="28" font-family="svglidedefault" fill="#111111">5</text><mask id="satori_om-id-5-4-1"><rect x="391" y="404" width="211" height="46" fill="#fff"/></mask><text x="391" y="421" width="18" height="19.44" font-weight="850" font-style="normal" font-size="18" font-family="svglidedefault" fill="#111111">迁</text><text x="409" y="421" width="18" height="19.44" font-weight="850" font-style="normal" font-size="18" font-family="svglidedefault" fill="#111111">移</text><text x="427" y="421" width="18" height="19.44" font-weight="850" font-style="normal" font-size="18" font-family="svglidedefault" fill="#111111">成</text><text x="445" y="421" width="18" height="19.44" font-weight="850" font-style="normal" font-size="18" font-family="svglidedefault" fill="#111111">本</text><defs><clipPath id="satori_bc-id-5-5"><rect x="616" y="390" width="273" height="74"/></clipPath></defs><mask id="satori_om-id-5-5"><rect x="618" y="392" width="269" height="70" fill="#fff"/><path width="273" height="74" fill="none" stroke="#000" stroke-width="4" d="M616,390 A0,0 0 0 1 616,390 h273 a0,0 0 0 1 0,0 v74 a0,0 0 0 1 0,0 h-273 a0,0 0 0 1 0,0 v-74 A0,0 0 0 1 616,390"/></mask><rect x="616" y="390" width="273" height="74" fill="#FDE68A"/><path width="273" height="74" clip-path="url(#satori_bc-id-5-5)" fill="none" stroke="#111111" stroke-width="4" d="M616,390 A0,0 0 0 1 616,390 h273 a0,0 0 0 1 0,0 v74 a0,0 0 0 1 0,0 h-273 a0,0 0 0 1 0,0 v-74 A0,0 0 0 1 616,390"/><mask id="satori_om-id-5-5-0"><rect x="630" y="404" width="34" height="46" fill="#fff"/></mask><text x="630" y="434" width="15.572265625" height="37.515625" font-weight="900" font-style="normal" font-size="28" font-family="svglidedefault" fill="#111111">6</text><mask id="satori_om-id-5-5-1"><rect x="664" y="404" width="211" height="46" fill="#fff"/></mask><text x="664" y="421" width="18" height="19.44" font-weight="850" font-style="normal" font-size="18" font-family="svglidedefault" fill="#111111">证</text><text x="682" y="421" width="18" height="19.44" font-weight="850" font-style="normal" font-size="18" font-family="svglidedefault" fill="#111111">据</text><text x="700" y="421" width="18" height="19.44" font-weight="850" font-style="normal" font-size="18" font-family="svglidedefault" fill="#111111">充</text><text x="718" y="421" width="18" height="19.44" font-weight="850" font-style="normal" font-size="18" font-family="svglidedefault" fill="#111111">分</text></svg>