<svg width="960" height="540" viewBox="0 0 960 540" xmlns="http://www.w3.org/2000/svg"><mask id="satori_om-id"><rect x="0" y="0" width="960" height="540" fill="#fff"/></mask><rect x="0" y="0" width="960" height="540" fill="#FAFADF"/><mask id="satori_om-id-0"><rect x="56" y="46" width="848" height="1" fill="#fff"/></mask><rect x="56" y="46" width="848" height="1" fill="#1A1A16"/><mask id="satori_om-id-1"><rect x="56" y="493" width="848" height="1" fill="#fff"/></mask><rect x="56" y="493" width="848" height="1" fill="#1A1A16"/><mask id="satori_om-id-2"><rect x="58" y="70" width="155" height="20" fill="#fff"/></mask><text x="58" y="86" width="88.3447265625" height="20.09765625" font-weight="800" font-style="normal" font-size="15" font-family="svglidedefault" fill="#5E5E54">OPERATING</text><text x="146.3447265625" y="86" width="4.16748046875" height="20.09765625" font-weight="800" font-style="normal" font-size="15" font-family="svglidedefault" fill="#5E5E54"> </text><text x="150.51220703125" y="86" width="61.6845703125" height="20.09765625" font-weight="800" font-style="normal" font-size="15" font-family="svglidedefault" fill="#5E5E54">LEDGER</text><mask id="satori_om-id-3"><rect x="56" y="104" width="520" height="55" fill="#fff"/></mask><text x="56" y="153" width="54" height="55.08" font-weight="300" font-style="normal" font-size="54" font-family="svglidedefault" fill="#1A1A16">复</text><text x="110" y="153" width="54" height="55.08" font-weight="300" font-style="normal" font-size="54" font-family="svglidedefault" fill="#1A1A16">盘</text><text x="164" y="153" width="54" height="55.08" font-weight="300" font-style="normal" font-size="54" font-family="svglidedefault" fill="#1A1A16">事</text><text x="218" y="153" width="54" height="55.08" font-weight="300" font-style="normal" font-size="54" font-family="svglidedefault" fill="#1A1A16">项</text><text x="272" y="153" width="54" height="55.08" font-weight="300" font-style="normal" font-size="54" font-family="svglidedefault" fill="#1A1A16">账</text><text x="326" y="153" width="54" height="55.08" font-weight="300" font-style="normal" font-size="54" font-family="svglidedefault" fill="#1A1A16">本</text><mask id="satori_om-id-4"><rect x="58" y="230" width="492" height="27" fill="#fff"/></mask><text x="58" y="251" width="20" height="27" font-weight="normal" font-style="normal" font-size="20" font-family="svglidedefault" fill="#5E5E54">把</text><text x="78" y="251" width="20" height="27" font-weight="normal" font-style="normal" font-size="20" font-family="svglidedefault" fill="#5E5E54">结</text><text x="98" y="251" width="20" height="27" font-weight="normal" font-style="normal" font-size="20" font-family="svglidedefault" fill="#5E5E54">论</text><text x="118" y="251" width="20" height="27" font-weight="normal" font-style="normal" font-size="20" font-family="svglidedefault" fill="#5E5E54">、</text><text x="138" y="251" width="20" height="27" font-weight="normal" font-style="normal" font-size="20" font-family="svglidedefault" fill="#5E5E54">证</text><text x="158" y="251" width="20" height="27" font-weight="normal" font-style="normal" font-size="20" font-family="svglidedefault" fill="#5E5E54">据</text><text x="178" y="251" width="20" height="27" font-weight="normal" font-style="normal" font-size="20" font-family="svglidedefault" fill="#5E5E54">和</text><text x="198" y="251" width="5.556640625" height="27" font-weight="normal" font-style="normal" font-size="20" font-family="svglidedefault" fill="#5E5E54"> </text><text x="203.556640625" y="251" width="54.47265625" height="27" font-weight="normal" font-style="normal" font-size="20" font-family="svglidedefault" fill="#5E5E54">owner</text><text x="258.029296875" y="251" width="5.556640625" height="27" font-weight="normal" font-style="normal" font-size="20" font-family="svglidedefault" fill="#5E5E54"> </text><text x="263.5859375" y="251" width="20" height="27" font-weight="normal" font-style="normal" font-size="20" font-family="svglidedefault" fill="#5E5E54">放</text><text x="283.5859375" y="251" width="20" height="27" font-weight="normal" font-style="normal" font-size="20" font-family="svglidedefault" fill="#5E5E54">进</text><text x="303.5859375" y="251" width="20" height="27" font-weight="normal" font-style="normal" font-size="20" font-family="svglidedefault" fill="#5E5E54">克</text><text x="323.5859375" y="251" width="20" height="27" font-weight="normal" font-style="normal" font-size="20" font-family="svglidedefault" fill="#5E5E54">制</text><text x="343.5859375" y="251" width="20" height="27" font-weight="normal" font-style="normal" font-size="20" font-family="svglidedefault" fill="#5E5E54">的</text><text x="363.5859375" y="251" width="20" height="27" font-weight="normal" font-style="normal" font-size="20" font-family="svglidedefault" fill="#5E5E54">黑</text><text x="383.5859375" y="251" width="20" height="27" font-weight="normal" font-style="normal" font-size="20" font-family="svglidedefault" fill="#5E5E54">白</text><text x="403.5859375" y="251" width="20" height="27" font-weight="normal" font-style="normal" font-size="20" font-family="svglidedefault" fill="#5E5E54">账</text><text x="423.5859375" y="251" width="20" height="27" font-weight="normal" font-style="normal" font-size="20" font-family="svglidedefault" fill="#5E5E54">本</text><text x="443.5859375" y="251" width="20" height="27" font-weight="normal" font-style="normal" font-size="20" font-family="svglidedefault" fill="#5E5E54">结</text><text x="463.5859375" y="251" width="20" height="27" font-weight="normal" font-style="normal" font-size="20" font-family="svglidedefault" fill="#5E5E54">构</text><text x="483.5859375" y="251" width="20" height="27" font-weight="normal" font-style="normal" font-size="20" font-family="svglidedefault" fill="#5E5E54">。</text><mask id="satori_om-id-5"><rect x="648" y="84" width="250" height="70" fill="#fff"/></mask><defs><clipPath id="satori_bc-id-5-0"><rect x="648" y="84" width="70" height="70"/></clipPath></defs><mask id="satori_om-id-5-0"><rect x="648" y="85" width="70" height="69" fill="#fff"/><path width="70" height="70" fill="none" stroke="#000" stroke-width="2" d="M648,84 A0,0 0 0 1 648,84 h70 A0,0 0 0 1 718,84"/></mask><path width="70" height="70" clip-path="url(#satori_bc-id-5-0)" fill="none" stroke="#1A1A16" stroke-width="2" d="M648,84 A0,0 0 0 1 648,84 h70 A0,0 0 0 1 718,84"/><mask id="satori_om-id-5-0-0"><rect x="648" y="97" width="70" height="34" fill="#fff"/></mask><text x="648" y="128" width="45.35546875" height="34" font-weight="300" font-style="normal" font-size="34" font-family="svglidedefault" fill="#1A1A16">Q2</text><mask id="satori_om-id-5-0-1"><rect x="648" y="139" width="70" height="15" fill="#fff"/></mask><text x="648" y="151" width="31.173828125" height="14.73828125" font-weight="800" font-style="normal" font-size="11" font-family="svglidedefault" fill="#5E5E54">FIELD</text><defs><clipPath id="satori_bc-id-5-1"><rect x="736" y="84" width="70" height="70"/></clipPath></defs><mask id="satori_om-id-5-1"><rect x="736" y="85" width="70" height="69" fill="#fff"/><path width="70" height="70" fill="none" stroke="#000" stroke-width="2" d="M736,84 A0,0 0 0 1 736,84 h70 A0,0 0 0 1 806,84"/></mask><path width="70" height="70" clip-path="url(#satori_bc-id-5-1)" fill="none" stroke="#1A1A16" stroke-width="2" d="M736,84 A0,0 0 0 1 736,84 h70 A0,0 0 0 1 806,84"/><mask id="satori_om-id-5-1-0"><rect x="736" y="97" width="70" height="34" fill="#fff"/></mask><text x="736" y="128" width="37.818359375" height="34" font-weight="300" font-style="normal" font-size="34" font-family="svglidedefault" fill="#1A1A16">18</text><text x="773.818359375" y="128" width="30.2314453125" height="34" font-weight="300" font-style="normal" font-size="34" font-family="svglidedefault" fill="#1A1A16">%</text><mask id="satori_om-id-5-1-1"><rect x="736" y="139" width="70" height="15" fill="#fff"/></mask><text x="736" y="151" width="31.173828125" height="14.73828125" font-weight="800" font-style="normal" font-size="11" font-family="svglidedefault" fill="#5E5E54">FIELD</text><defs><clipPath id="satori_bc-id-5-2"><rect x="824" y="84" width="70" height="70"/></clipPath></defs><mask id="satori_om-id-5-2"><rect x="824" y="85" width="70" height="69" fill="#fff"/><path width="70" height="70" fill="none" stroke="#000" stroke-width="2" d="M824,84 A0,0 0 0 1 824,84 h70 A0,0 0 0 1 894,84"/></mask><path width="70" height="70" clip-path="url(#satori_bc-id-5-2)" fill="none" stroke="#1A1A16" stroke-width="2" d="M824,84 A0,0 0 0 1 824,84 h70 A0,0 0 0 1 894,84"/><mask id="satori_om-id-5-2-0"><rect x="824" y="97" width="70" height="34" fill="#fff"/></mask><text x="824" y="128" width="37.818359375" height="34" font-weight="300" font-style="normal" font-size="34" font-family="svglidedefault" fill="#1A1A16">04</text><mask id="satori_om-id-5-2-1"><rect x="824" y="139" width="70" height="15" fill="#fff"/></mask><text x="824" y="151" width="31.173828125" height="14.73828125" font-weight="800" font-style="normal" font-size="11" font-family="svglidedefault" fill="#5E5E54">FIELD</text><mask id="satori_om-id-6"><rect x="570" y="222" width="326" height="192" fill="#fff"/></mask><defs><clipPath id="satori_bc-id-6-0"><rect x="570" y="222" width="326" height="48"/></clipPath></defs><mask id="satori_om-id-6-0"><rect x="570" y="223" width="326" height="47" fill="#fff"/><path width="326" height="48" fill="none" stroke="#000" stroke-width="2" d="M570,222 A0,0 0 0 1 570,222 h326 A0,0 0 0 1 896,222"/></mask><path width="326" height="48" clip-path="url(#satori_bc-id-6-0)" fill="none" stroke="#5E5E54" stroke-width="2" d="M570,222 A0,0 0 0 1 570,222 h326 A0,0 0 0 1 896,222"/><mask id="satori_om-id-6-0-0"><rect x="570" y="237" width="48" height="20" fill="#fff"/></mask><text x="570" y="253" width="16.6845703125" height="20.09765625" font-weight="800" font-style="normal" font-size="15" font-family="svglidedefault" fill="#5E5E54">01</text><mask id="satori_om-id-6-0-1"><rect x="618" y="236" width="278" height="21" fill="#fff"/></mask><text x="618" y="254" width="18" height="21.24" font-weight="450" font-style="normal" font-size="18" font-family="svglidedefault" fill="#1A1A16">增</text><text x="636" y="254" width="18" height="21.24" font-weight="450" font-style="normal" font-size="18" font-family="svglidedefault" fill="#1A1A16">长</text><text x="654" y="254" width="18" height="21.24" font-weight="450" font-style="normal" font-size="18" font-family="svglidedefault" fill="#1A1A16">口</text><text x="672" y="254" width="18" height="21.24" font-weight="450" font-style="normal" font-size="18" font-family="svglidedefault" fill="#1A1A16">径</text><text x="690" y="254" width="18" height="21.24" font-weight="450" font-style="normal" font-size="18" font-family="svglidedefault" fill="#1A1A16">已</text><text x="708" y="254" width="18" height="21.24" font-weight="450" font-style="normal" font-size="18" font-family="svglidedefault" fill="#1A1A16">统</text><text x="726" y="254" width="18" height="21.24" font-weight="450" font-style="normal" font-size="18" font-family="svglidedefault" fill="#1A1A16">一</text><defs><clipPath id="satori_bc-id-6-1"><rect x="570" y="270" width="326" height="48"/></clipPath></defs><mask id="satori_om-id-6-1"><rect x="570" y="271" width="326" height="47" fill="#fff"/><path width="326" height="48" fill="none" stroke="#000" stroke-width="2" d="M570,270 A0,0 0 0 1 570,270 h326 A0,0 0 0 1 896,270"/></mask><path width="326" height="48" clip-path="url(#satori_bc-id-6-1)" fill="none" stroke="#5E5E54" stroke-width="2" d="M570,270 A0,0 0 0 1 570,270 h326 A0,0 0 0 1 896,270"/><mask id="satori_om-id-6-1-0"><rect x="570" y="285" width="48" height="20" fill="#fff"/></mask><text x="570" y="301" width="16.6845703125" height="20.09765625" font-weight="800" font-style="normal" font-size="15" font-family="svglidedefault" fill="#5E5E54">02</text><mask id="satori_om-id-6-1-1"><rect x="618" y="284" width="278" height="21" fill="#fff"/></mask><text x="618" y="302" width="18" height="21.24" font-weight="450" font-style="normal" font-size="18" font-family="svglidedefault" fill="#1A1A16">风</text><text x="636" y="302" width="18" height="21.24" font-weight="450" font-style="normal" font-size="18" font-family="svglidedefault" fill="#1A1A16">险</text><text x="654" y="302" width="18" height="21.24" font-weight="450" font-style="normal" font-size="18" font-family="svglidedefault" fill="#1A1A16">归</text><text x="672" y="302" width="18" height="21.24" font-weight="450" font-style="normal" font-size="18" font-family="svglidedefault" fill="#1A1A16">因</text><text x="690" y="302" width="18" height="21.24" font-weight="450" font-style="normal" font-size="18" font-family="svglidedefault" fill="#1A1A16">待</text><text x="708" y="302" width="18" height="21.24" font-weight="450" font-style="normal" font-size="18" font-family="svglidedefault" fill="#1A1A16">复</text><text x="726" y="302" width="18" height="21.24" font-weight="450" font-style="normal" font-size="18" font-family="svglidedefault" fill="#1A1A16">核</text><defs><clipPath id="satori_bc-id-6-2"><rect x="570" y="318" width="326" height="48"/></clipPath></defs><mask id="satori_om-id-6-2"><rect x="570" y="319" width="326" height="47" fill="#fff"/><path width="326" height="48" fill="none" stroke="#000" stroke-width="2" d="M570,318 A0,0 0 0 1 570,318 h326 A0,0 0 0 1 896,318"/></mask><path width="326" height="48" clip-path="url(#satori_bc-id-6-2)" fill="none" stroke="#5E5E54" stroke-width="2" d="M570,318 A0,0 0 0 1 570,318 h326 A0,0 0 0 1 896,318"/><mask id="satori_om-id-6-2-0"><rect x="570" y="333" width="48" height="20" fill="#fff"/></mask><text x="570" y="349" width="16.6845703125" height="20.09765625" font-weight="800" font-style="normal" font-size="15" font-family="svglidedefault" fill="#5E5E54">03</text><mask id="satori_om-id-6-2-1"><rect x="618" y="332" width="278" height="21" fill="#fff"/></mask><text x="618" y="350" width="53.015625" height="21.24" font-weight="450" font-style="normal" font-size="18" font-family="svglidedefault" fill="#1A1A16">Owner</text><text x="671.015625" y="350" width="5.0009765625" height="21.24" font-weight="450" font-style="normal" font-size="18" font-family="svglidedefault" fill="#1A1A16"> </text><text x="676.0166015625" y="350" width="18" height="21.24" font-weight="450" font-style="normal" font-size="18" font-family="svglidedefault" fill="#1A1A16">已</text><text x="694.0166015625" y="350" width="18" height="21.24" font-weight="450" font-style="normal" font-size="18" font-family="svglidedefault" fill="#1A1A16">明</text><text x="712.0166015625" y="350" width="18" height="21.24" font-weight="450" font-style="normal" font-size="18" font-family="svglidedefault" fill="#1A1A16">确</text><defs><clipPath id="satori_bc-id-6-3"><rect x="570" y="366" width="326" height="48"/></clipPath></defs><mask id="satori_om-id-6-3"><rect x="570" y="367" width="326" height="47" fill="#fff"/><path width="326" height="48" fill="none" stroke="#000" stroke-width="2" d="M570,366 A0,0 0 0 1 570,366 h326 A0,0 0 0 1 896,366"/></mask><path width="326" height="48" clip-path="url(#satori_bc-id-6-3)" fill="none" stroke="#5E5E54" stroke-width="2" d="M570,366 A0,0 0 0 1 570,366 h326 A0,0 0 0 1 896,366"/><mask id="satori_om-id-6-3-0"><rect x="570" y="381" width="48" height="20" fill="#fff"/></mask><text x="570" y="397" width="16.6845703125" height="20.09765625" font-weight="800" font-style="normal" font-size="15" font-family="svglidedefault" fill="#5E5E54">04</text><mask id="satori_om-id-6-3-1"><rect x="618" y="380" width="278" height="21" fill="#fff"/></mask><text x="618" y="398" width="18" height="21.24" font-weight="450" font-style="normal" font-size="18" font-family="svglidedefault" fill="#1A1A16">下</text><text x="636" y="398" width="18" height="21.24" font-weight="450" font-style="normal" font-size="18" font-family="svglidedefault" fill="#1A1A16">周</text><text x="654" y="398" width="18" height="21.24" font-weight="450" font-style="normal" font-size="18" font-family="svglidedefault" fill="#1A1A16">完</text><text x="672" y="398" width="18" height="21.24" font-weight="450" font-style="normal" font-size="18" font-family="svglidedefault" fill="#1A1A16">成</text><text x="690" y="398" width="18" height="21.24" font-weight="450" font-style="normal" font-size="18" font-family="svglidedefault" fill="#1A1A16">验</text><text x="708" y="398" width="18" height="21.24" font-weight="450" font-style="normal" font-size="18" font-family="svglidedefault" fill="#1A1A16">证</text></svg>