<svg width="960" height="540" viewBox="0 0 960 540" xmlns="http://www.w3.org/2000/svg"><mask id="satori_om-id"><rect x="0" y="0" width="960" height="540" fill="#fff"/></mask><rect x="0" y="0" width="960" height="540" fill="#071827"/><mask id="satori_om-id-0"><rect x="724" y="36" width="192" height="192" fill="#fff"/></mask><g opacity="0.28"><path x="724" y="36" width="192" height="192" fill="#F97316" d="M820,36 h0 a96,96 0 0 1 96,96 v0 a96,96 0 0 1 -96,96 h0 a96,96 0 0 1 -96,-96 v0 a96,96 0 0 1 96,-96"/></g><mask id="satori_om-id-1"><rect x="72" y="72" width="704" height="356" fill="#fff"/></mask><g opacity="0.96"><rect x="72" y="72" width="704" height="356" fill="#0E2A3F"/></g><mask id="satori_om-id-1-0"><rect x="100" y="100" width="648" height="24" fill="#fff"/></mask><g opacity="0.96"></g><text x="100" y="119" width="78.0205078125" height="24.1171875" font-weight="700" font-style="normal" font-size="18" font-family="svglidedefault" fill="#5EEAD4" opacity="0.96">ICELAND</text><text x="178.0205078125" y="119" width="5.0009765625" height="24.1171875" font-weight="700" font-style="normal" font-size="18" font-family="svglidedefault" fill="#5EEAD4" opacity="0.96"> </text><text x="183.021484375" y="119" width="88.0224609375" height="24.1171875" font-weight="700" font-style="normal" font-size="18" font-family="svglidedefault" fill="#5EEAD4" opacity="0.96">VOLCANO</text><mask id="satori_om-id-1-1"><rect x="100" y="142" width="648" height="61" fill="#fff"/></mask><g opacity="0.96"></g><text x="100" y="196" width="58" height="60.900000000000006" font-weight="800" font-style="normal" font-size="58" font-family="svglidedefault" fill="#EAF6FF" opacity="0.96">冰</text><text x="158" y="196" width="58" height="60.900000000000006" font-weight="800" font-style="normal" font-size="58" font-family="svglidedefault" fill="#EAF6FF" opacity="0.96">岛</text><text x="216" y="196" width="58" height="60.900000000000006" font-weight="800" font-style="normal" font-size="58" font-family="svglidedefault" fill="#EAF6FF" opacity="0.96">火</text><text x="274" y="196" width="58" height="60.900000000000006" font-weight="800" font-style="normal" font-size="58" font-family="svglidedefault" fill="#EAF6FF" opacity="0.96">山</text><text x="332" y="196" width="58" height="60.900000000000006" font-weight="800" font-style="normal" font-size="58" font-family="svglidedefault" fill="#EAF6FF" opacity="0.96">研</text><text x="390" y="196" width="58" height="60.900000000000006" font-weight="800" font-style="normal" font-size="58" font-family="svglidedefault" fill="#EAF6FF" opacity="0.96">究</text><mask id="satori_om-id-1-2"><rect x="100" y="223" width="648" height="30" fill="#fff"/></mask><g opacity="0.96"></g><text x="100" y="248" width="24" height="30" font-weight="500" font-style="normal" font-size="24" font-family="svglidedefault" fill="#93B4C8" opacity="0.96">地</text><text x="124" y="248" width="24" height="30" font-weight="500" font-style="normal" font-size="24" font-family="svglidedefault" fill="#93B4C8" opacity="0.96">貌</text><text x="148" y="248" width="24" height="30" font-weight="500" font-style="normal" font-size="24" font-family="svglidedefault" fill="#93B4C8" opacity="0.96">证</text><text x="172" y="248" width="24" height="30" font-weight="500" font-style="normal" font-size="24" font-family="svglidedefault" fill="#93B4C8" opacity="0.96">据</text><text x="196" y="248" width="24" height="30" font-weight="500" font-style="normal" font-size="24" font-family="svglidedefault" fill="#93B4C8" opacity="0.96">、</text><text x="220" y="248" width="24" height="30" font-weight="500" font-style="normal" font-size="24" font-family="svglidedefault" fill="#93B4C8" opacity="0.96">活</text><text x="244" y="248" width="24" height="30" font-weight="500" font-style="normal" font-size="24" font-family="svglidedefault" fill="#93B4C8" opacity="0.96">动</text><text x="268" y="248" width="24" height="30" font-weight="500" font-style="normal" font-size="24" font-family="svglidedefault" fill="#93B4C8" opacity="0.96">迹</text><text x="292" y="248" width="24" height="30" font-weight="500" font-style="normal" font-size="24" font-family="svglidedefault" fill="#93B4C8" opacity="0.96">象</text><text x="316" y="248" width="24" height="30" font-weight="500" font-style="normal" font-size="24" font-family="svglidedefault" fill="#93B4C8" opacity="0.96">与</text><text x="340" y="248" width="24" height="30" font-weight="500" font-style="normal" font-size="24" font-family="svglidedefault" fill="#93B4C8" opacity="0.96">连</text><text x="364" y="248" width="24" height="30" font-weight="500" font-style="normal" font-size="24" font-family="svglidedefault" fill="#93B4C8" opacity="0.96">续</text><text x="388" y="248" width="24" height="30" font-weight="500" font-style="normal" font-size="24" font-family="svglidedefault" fill="#93B4C8" opacity="0.96">观</text><text x="412" y="248" width="24" height="30" font-weight="500" font-style="normal" font-size="24" font-family="svglidedefault" fill="#93B4C8" opacity="0.96">测</text><text x="436" y="248" width="24" height="30" font-weight="500" font-style="normal" font-size="24" font-family="svglidedefault" fill="#93B4C8" opacity="0.96">。</text><mask id="satori_om-id-2"><rect x="84" y="444" width="304" height="40" fill="#fff"/></mask><mask id="satori_om-id-2-0"><rect x="84" y="444" width="92" height="40" fill="#fff"/></mask><g opacity="0.86"><rect x="84" y="444" width="92" height="40" fill="#5EEAD4"/></g><text x="99" y="470" width="17" height="22.77734375" font-weight="600" font-style="normal" font-size="17" font-family="svglidedefault" fill="#EAF6FF" opacity="0.86">地</text><text x="116" y="470" width="17" height="22.77734375" font-weight="600" font-style="normal" font-size="17" font-family="svglidedefault" fill="#EAF6FF" opacity="0.86">貌</text><mask id="satori_om-id-2-1"><rect x="190" y="444" width="92" height="40" fill="#fff"/></mask><g opacity="0.86"><rect x="190" y="444" width="92" height="40" fill="#5EEAD4"/></g><text x="205" y="470" width="17" height="22.77734375" font-weight="600" font-style="normal" font-size="17" font-family="svglidedefault" fill="#EAF6FF" opacity="0.86">监</text><text x="222" y="470" width="17" height="22.77734375" font-weight="600" font-style="normal" font-size="17" font-family="svglidedefault" fill="#EAF6FF" opacity="0.86">测</text><mask id="satori_om-id-2-2"><rect x="296" y="444" width="92" height="40" fill="#fff"/></mask><g opacity="0.86"><rect x="296" y="444" width="92" height="40" fill="#5EEAD4"/></g><text x="311" y="470" width="17" height="22.77734375" font-weight="600" font-style="normal" font-size="17" font-family="svglidedefault" fill="#EAF6FF" opacity="0.86">风</text><text x="328" y="470" width="17" height="22.77734375" font-weight="600" font-style="normal" font-size="17" font-family="svglidedefault" fill="#EAF6FF" opacity="0.86">险</text></svg>