<svg width="960" height="540" viewBox="0 0 960 540" xmlns="http://www.w3.org/2000/svg"><mask id="satori_om-id"><rect x="0" y="0" width="960" height="540" fill="#fff"/></mask><rect x="0" y="0" width="960" height="540" fill="#27130F"/><mask id="satori_om-id-0"><rect x="704" y="54" width="164" height="164" fill="#fff"/></mask><g opacity="0.22"><path x="704" y="54" width="164" height="164" fill="#22D3EE" d="M786,54 h0 a82,82 0 0 1 82,82 v0 a82,82 0 0 1 -82,82 h0 a82,82 0 0 1 -82,-82 v0 a82,82 0 0 1 82,-82"/></g><mask id="satori_om-id-1"><rect x="712" y="286" width="78" height="66" fill="#fff"/></mask><mask id="satori_om-id-1-0"><rect x="712" y="322" width="18" height="30" fill="#fff"/></mask><g opacity="0.72"><rect x="712" y="322" width="18" height="30" fill="#F97316"/></g><mask id="satori_om-id-1-1"><rect x="742" y="304" width="18" height="48" fill="#fff"/></mask><g opacity="0.86"><rect x="742" y="304" width="18" height="48" fill="#F97316"/></g><mask id="satori_om-id-1-2"><rect x="772" y="286" width="18" height="66" fill="#fff"/></mask><g opacity="0.92"><rect x="772" y="286" width="18" height="66" fill="#22D3EE"/></g><mask id="satori_om-id-2"><rect x="72" y="64" width="816" height="24" fill="#fff"/></mask><text x="72" y="83" width="48.005859375" height="24.1171875" font-weight="800" font-style="normal" font-size="18" font-family="svglidedefault" fill="#F97316">NEXT</text><mask id="satori_om-id-3"><rect x="72" y="112" width="700" height="54" fill="#fff"/></mask><text x="72" y="159" width="50" height="54" font-weight="850" font-style="normal" font-size="50" font-family="svglidedefault" fill="#FFF7ED">下</text><text x="122" y="159" width="50" height="54" font-weight="850" font-style="normal" font-size="50" font-family="svglidedefault" fill="#FFF7ED">一</text><text x="172" y="159" width="50" height="54" font-weight="850" font-style="normal" font-size="50" font-family="svglidedefault" fill="#FFF7ED">步</text><text x="222" y="159" width="50" height="54" font-weight="850" font-style="normal" font-size="50" font-family="svglidedefault" fill="#FFF7ED">观</text><text x="272" y="159" width="50" height="54" font-weight="850" font-style="normal" font-size="50" font-family="svglidedefault" fill="#FFF7ED">测</text><mask id="satori_om-id-4"><rect x="72" y="190" width="640" height="29" fill="#fff"/></mask><text x="72" y="214" width="23" height="28.75" font-weight="500" font-style="normal" font-size="23" font-family="svglidedefault" fill="#F4C9A8">把</text><text x="95" y="214" width="23" height="28.75" font-weight="500" font-style="normal" font-size="23" font-family="svglidedefault" fill="#F4C9A8">研</text><text x="118" y="214" width="23" height="28.75" font-weight="500" font-style="normal" font-size="23" font-family="svglidedefault" fill="#F4C9A8">究</text><text x="141" y="214" width="23" height="28.75" font-weight="500" font-style="normal" font-size="23" font-family="svglidedefault" fill="#F4C9A8">结</text><text x="164" y="214" width="23" height="28.75" font-weight="500" font-style="normal" font-size="23" font-family="svglidedefault" fill="#F4C9A8">果</text><text x="187" y="214" width="23" height="28.75" font-weight="500" font-style="normal" font-size="23" font-family="svglidedefault" fill="#F4C9A8">转</text><text x="210" y="214" width="23" height="28.75" font-weight="500" font-style="normal" font-size="23" font-family="svglidedefault" fill="#F4C9A8">成</text><text x="233" y="214" width="23" height="28.75" font-weight="500" font-style="normal" font-size="23" font-family="svglidedefault" fill="#F4C9A8">可</text><text x="256" y="214" width="23" height="28.75" font-weight="500" font-style="normal" font-size="23" font-family="svglidedefault" fill="#F4C9A8">执</text><text x="279" y="214" width="23" height="28.75" font-weight="500" font-style="normal" font-size="23" font-family="svglidedefault" fill="#F4C9A8">行</text><text x="302" y="214" width="23" height="28.75" font-weight="500" font-style="normal" font-size="23" font-family="svglidedefault" fill="#F4C9A8">的</text><text x="325" y="214" width="23" height="28.75" font-weight="500" font-style="normal" font-size="23" font-family="svglidedefault" fill="#F4C9A8">观</text><text x="348" y="214" width="23" height="28.75" font-weight="500" font-style="normal" font-size="23" font-family="svglidedefault" fill="#F4C9A8">测</text><text x="371" y="214" width="23" height="28.75" font-weight="500" font-style="normal" font-size="23" font-family="svglidedefault" fill="#F4C9A8">闭</text><text x="394" y="214" width="23" height="28.75" font-weight="500" font-style="normal" font-size="23" font-family="svglidedefault" fill="#F4C9A8">环</text><text x="417" y="214" width="23" height="28.75" font-weight="500" font-style="normal" font-size="23" font-family="svglidedefault" fill="#F4C9A8">。</text><mask id="satori_om-id-5"><rect x="72" y="253" width="816" height="126" fill="#fff"/></mask><mask id="satori_om-id-5-0"><rect x="72" y="253" width="250" height="126" fill="#fff"/></mask><rect x="72" y="253" width="250" height="126" fill="#3A211B"/><mask id="satori_om-id-5-0-0"><rect x="94" y="275" width="206" height="24" fill="#fff"/></mask><text x="94" y="294" width="20.021484375" height="24.1171875" font-weight="800" font-style="normal" font-size="18" font-family="svglidedefault" fill="#F97316">01</text><mask id="satori_om-id-5-0-1"><rect x="94" y="311" width="206" height="25" fill="#fff"/></mask><text x="94" y="332" width="21" height="24.779999999999998" font-weight="700" font-style="normal" font-size="21" font-family="svglidedefault" fill="#FFF7ED">连</text><text x="115" y="332" width="21" height="24.779999999999998" font-weight="700" font-style="normal" font-size="21" font-family="svglidedefault" fill="#FFF7ED">续</text><text x="136" y="332" width="21" height="24.779999999999998" font-weight="700" font-style="normal" font-size="21" font-family="svglidedefault" fill="#FFF7ED">监</text><text x="157" y="332" width="21" height="24.779999999999998" font-weight="700" font-style="normal" font-size="21" font-family="svglidedefault" fill="#FFF7ED">测</text><mask id="satori_om-id-5-1"><rect x="340" y="253" width="250" height="126" fill="#fff"/></mask><rect x="340" y="253" width="250" height="126" fill="#3A211B"/><mask id="satori_om-id-5-1-0"><rect x="362" y="275" width="206" height="24" fill="#fff"/></mask><text x="362" y="294" width="20.021484375" height="24.1171875" font-weight="800" font-style="normal" font-size="18" font-family="svglidedefault" fill="#F97316">02</text><mask id="satori_om-id-5-1-1"><rect x="362" y="311" width="206" height="25" fill="#fff"/></mask><text x="362" y="332" width="21" height="24.779999999999998" font-weight="700" font-style="normal" font-size="21" font-family="svglidedefault" fill="#FFF7ED">现</text><text x="383" y="332" width="21" height="24.779999999999998" font-weight="700" font-style="normal" font-size="21" font-family="svglidedefault" fill="#FFF7ED">场</text><text x="404" y="332" width="21" height="24.779999999999998" font-weight="700" font-style="normal" font-size="21" font-family="svglidedefault" fill="#FFF7ED">复</text><text x="425" y="332" width="21" height="24.779999999999998" font-weight="700" font-style="normal" font-size="21" font-family="svglidedefault" fill="#FFF7ED">核</text><mask id="satori_om-id-5-2"><rect x="608" y="253" width="250" height="126" fill="#fff"/></mask><rect x="608" y="253" width="250" height="126" fill="#3A211B"/><mask id="satori_om-id-5-2-0"><rect x="630" y="275" width="206" height="24" fill="#fff"/></mask><text x="630" y="294" width="20.021484375" height="24.1171875" font-weight="800" font-style="normal" font-size="18" font-family="svglidedefault" fill="#F97316">03</text><mask id="satori_om-id-5-2-1"><rect x="630" y="311" width="206" height="25" fill="#fff"/></mask><text x="630" y="332" width="21" height="24.779999999999998" font-weight="700" font-style="normal" font-size="21" font-family="svglidedefault" fill="#FFF7ED">风</text><text x="651" y="332" width="21" height="24.779999999999998" font-weight="700" font-style="normal" font-size="21" font-family="svglidedefault" fill="#FFF7ED">险</text><text x="672" y="332" width="21" height="24.779999999999998" font-weight="700" font-style="normal" font-size="21" font-family="svglidedefault" fill="#FFF7ED">沟</text><text x="693" y="332" width="21" height="24.779999999999998" font-weight="700" font-style="normal" font-size="21" font-family="svglidedefault" fill="#FFF7ED">通</text></svg>