<svg width="960" height="540" viewBox="0 0 960 540" xmlns="http://www.w3.org/2000/svg"><mask id="satori_om-id"><rect x="0" y="0" width="960" height="540" fill="#fff"/></mask><rect x="0" y="0" width="960" height="540" fill="#F7F3E8"/><mask id="satori_om-id-0"><rect x="64" y="52" width="832" height="44" fill="#fff"/></mask><text x="64" y="90" width="40" height="44" font-weight="800" font-style="normal" font-size="40" font-family="svglidedefault" fill="#1F2937">观</text><text x="104" y="90" width="40" height="44" font-weight="800" font-style="normal" font-size="40" font-family="svglidedefault" fill="#1F2937">测</text><text x="144" y="90" width="40" height="44" font-weight="800" font-style="normal" font-size="40" font-family="svglidedefault" fill="#1F2937">证</text><text x="184" y="90" width="40" height="44" font-weight="800" font-style="normal" font-size="40" font-family="svglidedefault" fill="#1F2937">据</text><text x="224" y="90" width="40" height="44" font-weight="800" font-style="normal" font-size="40" font-family="svglidedefault" fill="#1F2937">对</text><text x="264" y="90" width="40" height="44" font-weight="800" font-style="normal" font-size="40" font-family="svglidedefault" fill="#1F2937">比</text><mask id="satori_om-id-1"><rect x="64" y="140" width="832" height="250" fill="#fff"/></mask><mask id="satori_om-id-1-0"><rect x="64" y="140" width="390" height="250" fill="#fff"/></mask><rect x="64" y="140" width="390" height="250" fill="#FFFDF6"/><mask id="satori_om-id-1-0-0"><rect x="92" y="168" width="334" height="26" fill="#fff"/></mask><text x="92" y="191" width="24" height="26.400000000000002" font-weight="800" font-style="normal" font-size="24" font-family="svglidedefault" fill="#1E3A8A">地</text><text x="116" y="191" width="24" height="26.400000000000002" font-weight="800" font-style="normal" font-size="24" font-family="svglidedefault" fill="#1E3A8A">表</text><text x="140" y="191" width="24" height="26.400000000000002" font-weight="800" font-style="normal" font-size="24" font-family="svglidedefault" fill="#1E3A8A">信</text><text x="164" y="191" width="24" height="26.400000000000002" font-weight="800" font-style="normal" font-size="24" font-family="svglidedefault" fill="#1E3A8A">号</text><mask id="satori_om-id-1-0-1"><rect x="92" y="222" width="334" height="24" fill="#fff"/></mask><mask id="satori_om-id-1-0-1-0"><rect x="92" y="229" width="10" height="10" fill="#fff"/></mask><path x="92" y="229" width="10" height="10" fill="#1E3A8A" d="M97,229 h0 a5,5 0 0 1 5,5 v0 a5,5 0 0 1 -5,5 h0 a5,5 0 0 1 -5,-5 v0 a5,5 0 0 1 5,-5"/><mask id="satori_om-id-1-0-1-1"><rect x="116" y="222" width="80" height="24" fill="#fff"/></mask><text x="116" y="242" width="20" height="24" font-weight="500" font-style="normal" font-size="20" font-family="svglidedefault" fill="#6B7280">熔</text><text x="136" y="242" width="20" height="24" font-weight="500" font-style="normal" font-size="20" font-family="svglidedefault" fill="#6B7280">岩</text><text x="156" y="242" width="20" height="24" font-weight="500" font-style="normal" font-size="20" font-family="svglidedefault" fill="#6B7280">地</text><text x="176" y="242" width="20" height="24" font-weight="500" font-style="normal" font-size="20" font-family="svglidedefault" fill="#6B7280">貌</text><mask id="satori_om-id-1-0-2"><rect x="92" y="264" width="334" height="24" fill="#fff"/></mask><mask id="satori_om-id-1-0-2-0"><rect x="92" y="271" width="10" height="10" fill="#fff"/></mask><path x="92" y="271" width="10" height="10" fill="#1E3A8A" d="M97,271 h0 a5,5 0 0 1 5,5 v0 a5,5 0 0 1 -5,5 h0 a5,5 0 0 1 -5,-5 v0 a5,5 0 0 1 5,-5"/><mask id="satori_om-id-1-0-2-1"><rect x="116" y="264" width="60" height="24" fill="#fff"/></mask><text x="116" y="284" width="20" height="24" font-weight="500" font-style="normal" font-size="20" font-family="svglidedefault" fill="#6B7280">热</text><text x="136" y="284" width="20" height="24" font-weight="500" font-style="normal" font-size="20" font-family="svglidedefault" fill="#6B7280">异</text><text x="156" y="284" width="20" height="24" font-weight="500" font-style="normal" font-size="20" font-family="svglidedefault" fill="#6B7280">常</text><mask id="satori_om-id-1-0-3"><rect x="92" y="306" width="334" height="24" fill="#fff"/></mask><mask id="satori_om-id-1-0-3-0"><rect x="92" y="313" width="10" height="10" fill="#fff"/></mask><path x="92" y="313" width="10" height="10" fill="#1E3A8A" d="M97,313 h0 a5,5 0 0 1 5,5 v0 a5,5 0 0 1 -5,5 h0 a5,5 0 0 1 -5,-5 v0 a5,5 0 0 1 5,-5"/><mask id="satori_om-id-1-0-3-1"><rect x="116" y="306" width="80" height="24" fill="#fff"/></mask><text x="116" y="326" width="20" height="24" font-weight="500" font-style="normal" font-size="20" font-family="svglidedefault" fill="#6B7280">气</text><text x="136" y="326" width="20" height="24" font-weight="500" font-style="normal" font-size="20" font-family="svglidedefault" fill="#6B7280">体</text><text x="156" y="326" width="20" height="24" font-weight="500" font-style="normal" font-size="20" font-family="svglidedefault" fill="#6B7280">羽</text><text x="176" y="326" width="20" height="24" font-weight="500" font-style="normal" font-size="20" font-family="svglidedefault" fill="#6B7280">流</text><mask id="satori_om-id-1-1"><rect x="506" y="140" width="390" height="250" fill="#fff"/></mask><rect x="506" y="140" width="390" height="250" fill="#FFFDF6"/><mask id="satori_om-id-1-1-0"><rect x="534" y="168" width="334" height="26" fill="#fff"/></mask><text x="534" y="191" width="24" height="26.400000000000002" font-weight="800" font-style="normal" font-size="24" font-family="svglidedefault" fill="#B45309">地</text><text x="558" y="191" width="24" height="26.400000000000002" font-weight="800" font-style="normal" font-size="24" font-family="svglidedefault" fill="#B45309">下</text><text x="582" y="191" width="24" height="26.400000000000002" font-weight="800" font-style="normal" font-size="24" font-family="svglidedefault" fill="#B45309">信</text><text x="606" y="191" width="24" height="26.400000000000002" font-weight="800" font-style="normal" font-size="24" font-family="svglidedefault" fill="#B45309">号</text><mask id="satori_om-id-1-1-1"><rect x="534" y="222" width="334" height="24" fill="#fff"/></mask><mask id="satori_om-id-1-1-1-0"><rect x="534" y="229" width="10" height="10" fill="#fff"/></mask><path x="534" y="229" width="10" height="10" fill="#B45309" d="M539,229 h0 a5,5 0 0 1 5,5 v0 a5,5 0 0 1 -5,5 h0 a5,5 0 0 1 -5,-5 v0 a5,5 0 0 1 5,-5"/><mask id="satori_om-id-1-1-1-1"><rect x="558" y="222" width="80" height="24" fill="#fff"/></mask><text x="558" y="242" width="20" height="24" font-weight="500" font-style="normal" font-size="20" font-family="svglidedefault" fill="#6B7280">地</text><text x="578" y="242" width="20" height="24" font-weight="500" font-style="normal" font-size="20" font-family="svglidedefault" fill="#6B7280">震</text><text x="598" y="242" width="20" height="24" font-weight="500" font-style="normal" font-size="20" font-family="svglidedefault" fill="#6B7280">活</text><text x="618" y="242" width="20" height="24" font-weight="500" font-style="normal" font-size="20" font-family="svglidedefault" fill="#6B7280">动</text><mask id="satori_om-id-1-1-2"><rect x="534" y="264" width="334" height="24" fill="#fff"/></mask><mask id="satori_om-id-1-1-2-0"><rect x="534" y="271" width="10" height="10" fill="#fff"/></mask><path x="534" y="271" width="10" height="10" fill="#B45309" d="M539,271 h0 a5,5 0 0 1 5,5 v0 a5,5 0 0 1 -5,5 h0 a5,5 0 0 1 -5,-5 v0 a5,5 0 0 1 5,-5"/><mask id="satori_om-id-1-1-2-1"><rect x="558" y="264" width="80" height="24" fill="#fff"/></mask><text x="558" y="284" width="20" height="24" font-weight="500" font-style="normal" font-size="20" font-family="svglidedefault" fill="#6B7280">形</text><text x="578" y="284" width="20" height="24" font-weight="500" font-style="normal" font-size="20" font-family="svglidedefault" fill="#6B7280">变</text><text x="598" y="284" width="20" height="24" font-weight="500" font-style="normal" font-size="20" font-family="svglidedefault" fill="#6B7280">趋</text><text x="618" y="284" width="20" height="24" font-weight="500" font-style="normal" font-size="20" font-family="svglidedefault" fill="#6B7280">势</text><mask id="satori_om-id-1-1-3"><rect x="534" y="306" width="334" height="24" fill="#fff"/></mask><mask id="satori_om-id-1-1-3-0"><rect x="534" y="313" width="10" height="10" fill="#fff"/></mask><path x="534" y="313" width="10" height="10" fill="#B45309" d="M539,313 h0 a5,5 0 0 1 5,5 v0 a5,5 0 0 1 -5,5 h0 a5,5 0 0 1 -5,-5 v0 a5,5 0 0 1 5,-5"/><mask id="satori_om-id-1-1-3-1"><rect x="558" y="306" width="80" height="24" fill="#fff"/></mask><text x="558" y="326" width="20" height="24" font-weight="500" font-style="normal" font-size="20" font-family="svglidedefault" fill="#6B7280">岩</text><text x="578" y="326" width="20" height="24" font-weight="500" font-style="normal" font-size="20" font-family="svglidedefault" fill="#6B7280">浆</text><text x="598" y="326" width="20" height="24" font-weight="500" font-style="normal" font-size="20" font-family="svglidedefault" fill="#6B7280">补</text><text x="618" y="326" width="20" height="24" font-weight="500" font-style="normal" font-size="20" font-family="svglidedefault" fill="#6B7280">给</text><mask id="satori_om-id-2"><rect x="64" y="414" width="832" height="66" fill="#fff"/></mask><g opacity="0.88"><rect x="64" y="414" width="832" height="66" fill="#1E3A8A"/></g><text x="86" y="458" width="22" height="29.4765625" font-weight="700" font-style="normal" font-size="22" font-family="svglidedefault" fill="#1F2937" opacity="0.88">多</text><text x="108" y="458" width="22" height="29.4765625" font-weight="700" font-style="normal" font-size="22" font-family="svglidedefault" fill="#1F2937" opacity="0.88">源</text><text x="130" y="458" width="22" height="29.4765625" font-weight="700" font-style="normal" font-size="22" font-family="svglidedefault" fill="#1F2937" opacity="0.88">观</text><text x="152" y="458" width="22" height="29.4765625" font-weight="700" font-style="normal" font-size="22" font-family="svglidedefault" fill="#1F2937" opacity="0.88">测</text><text x="174" y="458" width="22" height="29.4765625" font-weight="700" font-style="normal" font-size="22" font-family="svglidedefault" fill="#1F2937" opacity="0.88">共</text><text x="196" y="458" width="22" height="29.4765625" font-weight="700" font-style="normal" font-size="22" font-family="svglidedefault" fill="#1F2937" opacity="0.88">同</text><text x="218" y="458" width="22" height="29.4765625" font-weight="700" font-style="normal" font-size="22" font-family="svglidedefault" fill="#1F2937" opacity="0.88">降</text><text x="240" y="458" width="22" height="29.4765625" font-weight="700" font-style="normal" font-size="22" font-family="svglidedefault" fill="#1F2937" opacity="0.88">低</text><text x="262" y="458" width="22" height="29.4765625" font-weight="700" font-style="normal" font-size="22" font-family="svglidedefault" fill="#1F2937" opacity="0.88">单</text><text x="284" y="458" width="22" height="29.4765625" font-weight="700" font-style="normal" font-size="22" font-family="svglidedefault" fill="#1F2937" opacity="0.88">一</text><text x="306" y="458" width="22" height="29.4765625" font-weight="700" font-style="normal" font-size="22" font-family="svglidedefault" fill="#1F2937" opacity="0.88">证</text><text x="328" y="458" width="22" height="29.4765625" font-weight="700" font-style="normal" font-size="22" font-family="svglidedefault" fill="#1F2937" opacity="0.88">据</text><text x="350" y="458" width="22" height="29.4765625" font-weight="700" font-style="normal" font-size="22" font-family="svglidedefault" fill="#1F2937" opacity="0.88">偏</text><text x="372" y="458" width="22" height="29.4765625" font-weight="700" font-style="normal" font-size="22" font-family="svglidedefault" fill="#1F2937" opacity="0.88">差</text><text x="394" y="458" width="22" height="29.4765625" font-weight="700" font-style="normal" font-size="22" font-family="svglidedefault" fill="#1F2937" opacity="0.88">。</text></svg>