<svg width="960" height="540" viewBox="0 0 960 540" xmlns="http://www.w3.org/2000/svg"><mask id="satori_om-id"><rect x="0" y="0" width="960" height="540" fill="#fff"/></mask><rect x="0" y="0" width="960" height="540" fill="#F7F3E8"/><mask id="satori_om-id-0"><rect x="56" y="56" width="848" height="117" fill="#fff"/></mask><mask id="satori_om-id-0-0"><rect x="56" y="56" width="848" height="21" fill="#fff"/></mask><text x="56" y="73" width="80.9140625" height="21.4375" font-weight="800" font-style="normal" font-size="16" font-family="svglidedefault" fill="#1E3A8A">BUSINESS</text><text x="136.9140625" y="73" width="4.4453125" height="21.4375" font-weight="800" font-style="normal" font-size="16" font-family="svglidedefault" fill="#1E3A8A"> </text><text x="141.359375" y="73" width="63.1171875" height="21.4375" font-weight="800" font-style="normal" font-size="16" font-family="svglidedefault" fill="#1E3A8A">REVIEW</text><mask id="satori_om-id-0-1"><rect x="56" y="89" width="710" height="43" fill="#fff"/></mask><text x="56" y="127" width="40" height="43.2" font-weight="850" font-style="normal" font-size="40" font-family="svglidedefault" fill="#1F2937">内</text><text x="96" y="127" width="40" height="43.2" font-weight="850" font-style="normal" font-size="40" font-family="svglidedefault" fill="#1F2937">部</text><text x="136" y="127" width="40" height="43.2" font-weight="850" font-style="normal" font-size="40" font-family="svglidedefault" fill="#1F2937">业</text><text x="176" y="127" width="40" height="43.2" font-weight="850" font-style="normal" font-size="40" font-family="svglidedefault" fill="#1F2937">务</text><text x="216" y="127" width="40" height="43.2" font-weight="850" font-style="normal" font-size="40" font-family="svglidedefault" fill="#1F2937">复</text><text x="256" y="127" width="40" height="43.2" font-weight="850" font-style="normal" font-size="40" font-family="svglidedefault" fill="#1F2937">盘</text><mask id="satori_om-id-0-2"><rect x="56" y="146" width="700" height="27" fill="#fff"/></mask><text x="56" y="168" width="22" height="26.84" font-weight="500" font-style="normal" font-size="22" font-family="svglidedefault" fill="#4B5563">单</text><text x="78" y="168" width="22" height="26.84" font-weight="500" font-style="normal" font-size="22" font-family="svglidedefault" fill="#4B5563">一</text><text x="100" y="168" width="22" height="26.84" font-weight="500" font-style="normal" font-size="22" font-family="svglidedefault" fill="#4B5563">强</text><text x="122" y="168" width="22" height="26.84" font-weight="500" font-style="normal" font-size="22" font-family="svglidedefault" fill="#4B5563">调</text><text x="144" y="168" width="22" height="26.84" font-weight="500" font-style="normal" font-size="22" font-family="svglidedefault" fill="#4B5563">色</text><text x="166" y="168" width="22" height="26.84" font-weight="500" font-style="normal" font-size="22" font-family="svglidedefault" fill="#4B5563">组</text><text x="188" y="168" width="22" height="26.84" font-weight="500" font-style="normal" font-size="22" font-family="svglidedefault" fill="#4B5563">织</text><text x="210" y="168" width="22" height="26.84" font-weight="500" font-style="normal" font-size="22" font-family="svglidedefault" fill="#4B5563">关</text><text x="232" y="168" width="22" height="26.84" font-weight="500" font-style="normal" font-size="22" font-family="svglidedefault" fill="#4B5563">键</text><text x="254" y="168" width="22" height="26.84" font-weight="500" font-style="normal" font-size="22" font-family="svglidedefault" fill="#4B5563">指</text><text x="276" y="168" width="22" height="26.84" font-weight="500" font-style="normal" font-size="22" font-family="svglidedefault" fill="#4B5563">标</text><text x="298" y="168" width="22" height="26.84" font-weight="500" font-style="normal" font-size="22" font-family="svglidedefault" fill="#4B5563">、</text><text x="320" y="168" width="22" height="26.84" font-weight="500" font-style="normal" font-size="22" font-family="svglidedefault" fill="#4B5563">渠</text><text x="342" y="168" width="22" height="26.84" font-weight="500" font-style="normal" font-size="22" font-family="svglidedefault" fill="#4B5563">道</text><text x="364" y="168" width="22" height="26.84" font-weight="500" font-style="normal" font-size="22" font-family="svglidedefault" fill="#4B5563">排</text><text x="386" y="168" width="22" height="26.84" font-weight="500" font-style="normal" font-size="22" font-family="svglidedefault" fill="#4B5563">序</text><text x="408" y="168" width="22" height="26.84" font-weight="500" font-style="normal" font-size="22" font-family="svglidedefault" fill="#4B5563">和</text><text x="430" y="168" width="22" height="26.84" font-weight="500" font-style="normal" font-size="22" font-family="svglidedefault" fill="#4B5563">管</text><text x="452" y="168" width="22" height="26.84" font-weight="500" font-style="normal" font-size="22" font-family="svglidedefault" fill="#4B5563">理</text><text x="474" y="168" width="22" height="26.84" font-weight="500" font-style="normal" font-size="22" font-family="svglidedefault" fill="#4B5563">层</text><text x="496" y="168" width="22" height="26.84" font-weight="500" font-style="normal" font-size="22" font-family="svglidedefault" fill="#4B5563">行</text><text x="518" y="168" width="22" height="26.84" font-weight="500" font-style="normal" font-size="22" font-family="svglidedefault" fill="#4B5563">动</text><text x="540" y="168" width="22" height="26.84" font-weight="500" font-style="normal" font-size="22" font-family="svglidedefault" fill="#4B5563">口</text><text x="562" y="168" width="22" height="26.84" font-weight="500" font-style="normal" font-size="22" font-family="svglidedefault" fill="#4B5563">径</text><text x="584" y="168" width="22" height="26.84" font-weight="500" font-style="normal" font-size="22" font-family="svglidedefault" fill="#4B5563">。</text><mask id="satori_om-id-1"><rect x="68" y="214" width="548" height="206" fill="#fff"/></mask><defs><clipPath id="satori_bc-id-1-0"><rect x="68" y="214" width="170" height="96"/></clipPath></defs><mask id="satori_om-id-1-0"><rect x="69" y="215" width="168" height="94" fill="#fff"/><path width="170" height="96" fill="none" stroke="#000" stroke-width="2" d="M68,214 A0,0 0 0 1 68,214 h170 a0,0 0 0 1 0,0 v96 a0,0 0 0 1 0,0 h-170 a0,0 0 0 1 0,0 v-96 A0,0 0 0 1 68,214"/></mask><rect x="68" y="214" width="170" height="96" fill="#FFFDF6"/><path width="170" height="96" clip-path="url(#satori_bc-id-1-0)" fill="none" stroke="#1E3A8A" stroke-width="2" d="M68,214 A0,0 0 0 1 68,214 h170 a0,0 0 0 1 0,0 v96 a0,0 0 0 1 0,0 h-170 a0,0 0 0 1 0,0 v-96 A0,0 0 0 1 68,214"/><mask id="satori_om-id-1-0-0"><rect x="85" y="231" width="136" height="27" fill="#fff"/></mask><text x="85" y="255" width="16.3515625" height="26.599999999999998" font-weight="900" font-style="normal" font-size="28" font-family="svglidedefault" fill="#1E3A8A">+</text><text x="101.3515625" y="255" width="31.14453125" height="26.599999999999998" font-weight="900" font-style="normal" font-size="28" font-family="svglidedefault" fill="#1E3A8A">14</text><text x="132.49609375" y="255" width="24.896484375" height="26.599999999999998" font-weight="900" font-style="normal" font-size="28" font-family="svglidedefault" fill="#1E3A8A">%</text><mask id="satori_om-id-1-0-1"><rect x="85" y="270" width="136" height="18" fill="#fff"/></mask><text x="85" y="285" width="15" height="17.7" font-weight="750" font-style="normal" font-size="15" font-family="svglidedefault" fill="#1F2937">收</text><text x="100" y="285" width="15" height="17.7" font-weight="750" font-style="normal" font-size="15" font-family="svglidedefault" fill="#1F2937">入</text><text x="115" y="285" width="4.16748046875" height="17.7" font-weight="750" font-style="normal" font-size="15" font-family="svglidedefault" fill="#1F2937"> </text><text x="119.16748046875" y="285" width="8.759765625" height="17.7" font-weight="750" font-style="normal" font-size="15" font-family="svglidedefault" fill="#1F2937">+</text><text x="127.92724609375" y="285" width="16.6845703125" height="17.7" font-weight="750" font-style="normal" font-size="15" font-family="svglidedefault" fill="#1F2937">14</text><text x="144.61181640625" y="285" width="13.33740234375" height="17.7" font-weight="750" font-style="normal" font-size="15" font-family="svglidedefault" fill="#1F2937">%</text><defs><clipPath id="satori_bc-id-1-1"><rect x="252" y="214" width="170" height="96"/></clipPath></defs><mask id="satori_om-id-1-1"><rect x="253" y="215" width="168" height="94" fill="#fff"/><path width="170" height="96" fill="none" stroke="#000" stroke-width="2" d="M252,214 A0,0 0 0 1 252,214 h170 a0,0 0 0 1 0,0 v96 a0,0 0 0 1 0,0 h-170 a0,0 0 0 1 0,0 v-96 A0,0 0 0 1 252,214"/></mask><rect x="252" y="214" width="170" height="96" fill="#FFFDF6"/><path width="170" height="96" clip-path="url(#satori_bc-id-1-1)" fill="none" stroke="#1E3A8A" stroke-width="2" d="M252,214 A0,0 0 0 1 252,214 h170 a0,0 0 0 1 0,0 v96 a0,0 0 0 1 0,0 h-170 a0,0 0 0 1 0,0 v-96 A0,0 0 0 1 252,214"/><mask id="satori_om-id-1-1-0"><rect x="269" y="231" width="136" height="27" fill="#fff"/></mask><text x="269" y="255" width="46.716796875" height="26.599999999999998" font-weight="900" font-style="normal" font-size="28" font-family="svglidedefault" fill="#1E3A8A">118</text><text x="315.716796875" y="255" width="24.896484375" height="26.599999999999998" font-weight="900" font-style="normal" font-size="28" font-family="svglidedefault" fill="#1E3A8A">%</text><mask id="satori_om-id-1-1-1"><rect x="269" y="270" width="136" height="18" fill="#fff"/></mask><text x="269" y="285" width="15" height="17.7" font-weight="750" font-style="normal" font-size="15" font-family="svglidedefault" fill="#1F2937">留</text><text x="284" y="285" width="15" height="17.7" font-weight="750" font-style="normal" font-size="15" font-family="svglidedefault" fill="#1F2937">存</text><text x="299" y="285" width="4.16748046875" height="17.7" font-weight="750" font-style="normal" font-size="15" font-family="svglidedefault" fill="#1F2937"> </text><text x="303.16748046875" y="285" width="25.02685546875" height="17.7" font-weight="750" font-style="normal" font-size="15" font-family="svglidedefault" fill="#1F2937">118</text><text x="328.1943359375" y="285" width="13.33740234375" height="17.7" font-weight="750" font-style="normal" font-size="15" font-family="svglidedefault" fill="#1F2937">%</text><defs><clipPath id="satori_bc-id-1-2"><rect x="436" y="214" width="170" height="96"/></clipPath></defs><mask id="satori_om-id-1-2"><rect x="437" y="215" width="168" height="94" fill="#fff"/><path width="170" height="96" fill="none" stroke="#000" stroke-width="2" d="M436,214 A0,0 0 0 1 436,214 h170 a0,0 0 0 1 0,0 v96 a0,0 0 0 1 0,0 h-170 a0,0 0 0 1 0,0 v-96 A0,0 0 0 1 436,214"/></mask><rect x="436" y="214" width="170" height="96" fill="#FFFDF6"/><path width="170" height="96" clip-path="url(#satori_bc-id-1-2)" fill="none" stroke="#1E3A8A" stroke-width="2" d="M436,214 A0,0 0 0 1 436,214 h170 a0,0 0 0 1 0,0 v96 a0,0 0 0 1 0,0 h-170 a0,0 0 0 1 0,0 v-96 A0,0 0 0 1 436,214"/><mask id="satori_om-id-1-2-0"><rect x="453" y="231" width="136" height="27" fill="#fff"/></mask><text x="453" y="255" width="38.923828125" height="26.599999999999998" font-weight="900" font-style="normal" font-size="28" font-family="svglidedefault" fill="#1E3A8A">2.1</text><text x="491.923828125" y="255" width="24.896484375" height="26.599999999999998" font-weight="900" font-style="normal" font-size="28" font-family="svglidedefault" fill="#1E3A8A">%</text><mask id="satori_om-id-1-2-1"><rect x="453" y="270" width="136" height="18" fill="#fff"/></mask><text x="453" y="285" width="15" height="17.7" font-weight="750" font-style="normal" font-size="15" font-family="svglidedefault" fill="#1F2937">流</text><text x="468" y="285" width="15" height="17.7" font-weight="750" font-style="normal" font-size="15" font-family="svglidedefault" fill="#1F2937">失</text><text x="483" y="285" width="4.16748046875" height="17.7" font-weight="750" font-style="normal" font-size="15" font-family="svglidedefault" fill="#1F2937"> </text><text x="487.16748046875" y="285" width="20.85205078125" height="17.7" font-weight="750" font-style="normal" font-size="15" font-family="svglidedefault" fill="#1F2937">2.1</text><text x="508.01953125" y="285" width="13.33740234375" height="17.7" font-weight="750" font-style="normal" font-size="15" font-family="svglidedefault" fill="#1F2937">%</text><defs><clipPath id="satori_bc-id-1-3"><rect x="68" y="324" width="170" height="96"/></clipPath></defs><mask id="satori_om-id-1-3"><rect x="69" y="325" width="168" height="94" fill="#fff"/><path width="170" height="96" fill="none" stroke="#000" stroke-width="2" d="M68,324 A0,0 0 0 1 68,324 h170 a0,0 0 0 1 0,0 v96 a0,0 0 0 1 0,0 h-170 a0,0 0 0 1 0,0 v-96 A0,0 0 0 1 68,324"/></mask><rect x="68" y="324" width="170" height="96" fill="#FFFDF6"/><path width="170" height="96" clip-path="url(#satori_bc-id-1-3)" fill="none" stroke="#1E3A8A" stroke-width="2" d="M68,324 A0,0 0 0 1 68,324 h170 a0,0 0 0 1 0,0 v96 a0,0 0 0 1 0,0 h-170 a0,0 0 0 1 0,0 v-96 A0,0 0 0 1 68,324"/><mask id="satori_om-id-1-3-0"><rect x="85" y="341" width="136" height="27" fill="#fff"/></mask><text x="85" y="365" width="52.923828125" height="26.599999999999998" font-weight="900" font-style="normal" font-size="28" font-family="svglidedefault" fill="#1E3A8A">3.4x</text><mask id="satori_om-id-1-3-1"><rect x="85" y="380" width="136" height="18" fill="#fff"/></mask><text x="85" y="395" width="15" height="17.7" font-weight="750" font-style="normal" font-size="15" font-family="svglidedefault" fill="#1F2937">管</text><text x="100" y="395" width="15" height="17.7" font-weight="750" font-style="normal" font-size="15" font-family="svglidedefault" fill="#1F2937">线</text><text x="115" y="395" width="4.16748046875" height="17.7" font-weight="750" font-style="normal" font-size="15" font-family="svglidedefault" fill="#1F2937"> </text><text x="119.16748046875" y="395" width="28.35205078125" height="17.7" font-weight="750" font-style="normal" font-size="15" font-family="svglidedefault" fill="#1F2937">3.4x</text><defs><clipPath id="satori_bc-id-1-4"><rect x="252" y="324" width="170" height="96"/></clipPath></defs><mask id="satori_om-id-1-4"><rect x="253" y="325" width="168" height="94" fill="#fff"/><path width="170" height="96" fill="none" stroke="#000" stroke-width="2" d="M252,324 A0,0 0 0 1 252,324 h170 a0,0 0 0 1 0,0 v96 a0,0 0 0 1 0,0 h-170 a0,0 0 0 1 0,0 v-96 A0,0 0 0 1 252,324"/></mask><rect x="252" y="324" width="170" height="96" fill="#FFFDF6"/><path width="170" height="96" clip-path="url(#satori_bc-id-1-4)" fill="none" stroke="#1E3A8A" stroke-width="2" d="M252,324 A0,0 0 0 1 252,324 h170 a0,0 0 0 1 0,0 v96 a0,0 0 0 1 0,0 h-170 a0,0 0 0 1 0,0 v-96 A0,0 0 0 1 252,324"/><mask id="satori_om-id-1-4-0"><rect x="269" y="341" width="136" height="27" fill="#fff"/></mask><text x="269" y="365" width="16.3515625" height="26.599999999999998" font-weight="900" font-style="normal" font-size="28" font-family="svglidedefault" fill="#1E3A8A">+</text><text x="285.3515625" y="365" width="15.572265625" height="26.599999999999998" font-weight="900" font-style="normal" font-size="28" font-family="svglidedefault" fill="#1E3A8A">9</text><text x="300.923828125" y="365" width="24.896484375" height="26.599999999999998" font-weight="900" font-style="normal" font-size="28" font-family="svglidedefault" fill="#1E3A8A">%</text><mask id="satori_om-id-1-4-1"><rect x="269" y="380" width="136" height="18" fill="#fff"/></mask><text x="269" y="395" width="15" height="17.7" font-weight="750" font-style="normal" font-size="15" font-family="svglidedefault" fill="#1F2937">季</text><text x="284" y="395" width="15" height="17.7" font-weight="750" font-style="normal" font-size="15" font-family="svglidedefault" fill="#1F2937">度</text><text x="299" y="395" width="4.16748046875" height="17.7" font-weight="750" font-style="normal" font-size="15" font-family="svglidedefault" fill="#1F2937"> </text><text x="303.16748046875" y="395" width="8.759765625" height="17.7" font-weight="750" font-style="normal" font-size="15" font-family="svglidedefault" fill="#1F2937">+</text><text x="311.92724609375" y="395" width="8.34228515625" height="17.7" font-weight="750" font-style="normal" font-size="15" font-family="svglidedefault" fill="#1F2937">9</text><text x="320.26953125" y="395" width="13.33740234375" height="17.7" font-weight="750" font-style="normal" font-size="15" font-family="svglidedefault" fill="#1F2937">%</text><defs><clipPath id="satori_bc-id-1-5"><rect x="436" y="324" width="170" height="96"/></clipPath></defs><mask id="satori_om-id-1-5"><rect x="437" y="325" width="168" height="94" fill="#fff"/><path width="170" height="96" fill="none" stroke="#000" stroke-width="2" d="M436,324 A0,0 0 0 1 436,324 h170 a0,0 0 0 1 0,0 v96 a0,0 0 0 1 0,0 h-170 a0,0 0 0 1 0,0 v-96 A0,0 0 0 1 436,324"/></mask><rect x="436" y="324" width="170" height="96" fill="#FFFDF6"/><path width="170" height="96" clip-path="url(#satori_bc-id-1-5)" fill="none" stroke="#1E3A8A" stroke-width="2" d="M436,324 A0,0 0 0 1 436,324 h170 a0,0 0 0 1 0,0 v96 a0,0 0 0 1 0,0 h-170 a0,0 0 0 1 0,0 v-96 A0,0 0 0 1 436,324"/><mask id="satori_om-id-1-5-0"><rect x="453" y="341" width="136" height="27" fill="#fff"/></mask><text x="453" y="365" width="31.14453125" height="26.599999999999998" font-weight="900" font-style="normal" font-size="28" font-family="svglidedefault" fill="#1E3A8A">48</text><mask id="satori_om-id-1-5-1"><rect x="453" y="380" width="136" height="18" fill="#fff"/></mask><text x="453" y="395" width="30.84228515625" height="17.7" font-weight="750" font-style="normal" font-size="15" font-family="svglidedefault" fill="#1F2937">NPS</text><text x="483.84228515625" y="395" width="4.16748046875" height="17.7" font-weight="750" font-style="normal" font-size="15" font-family="svglidedefault" fill="#1F2937"> </text><text x="488.009765625" y="395" width="16.6845703125" height="17.7" font-weight="750" font-style="normal" font-size="15" font-family="svglidedefault" fill="#1F2937">48</text><mask id="satori_om-id-2"><rect x="632" y="214" width="258" height="290" fill="#fff"/></mask><rect x="632" y="214" width="258" height="290" fill="#FFFDF6"/><mask id="satori_om-id-2-0"><rect x="654" y="236" width="214" height="2" fill="#fff"/></mask><text x="654" y="260" width="22" height="29.4765625" font-weight="850" font-style="normal" font-size="22" font-family="svglidedefault" fill="#1F2937">渠</text><text x="676" y="260" width="22" height="29.4765625" font-weight="850" font-style="normal" font-size="22" font-family="svglidedefault" fill="#1F2937">道</text><text x="698" y="260" width="22" height="29.4765625" font-weight="850" font-style="normal" font-size="22" font-family="svglidedefault" fill="#1F2937">健</text><text x="720" y="260" width="22" height="29.4765625" font-weight="850" font-style="normal" font-size="22" font-family="svglidedefault" fill="#1F2937">康</text><text x="742" y="260" width="22" height="29.4765625" font-weight="850" font-style="normal" font-size="22" font-family="svglidedefault" fill="#1F2937">度</text><mask id="satori_om-id-2-1"><rect x="654" y="258" width="214" height="40" fill="#fff"/></mask><mask id="satori_om-id-2-1-0"><rect x="654" y="258" width="214" height="20" fill="#fff"/></mask><text x="654" y="274" width="15" height="20.09765625" font-weight="700" font-style="normal" font-size="15" font-family="svglidedefault" fill="#4B5563">企</text><text x="669" y="274" width="15" height="20.09765625" font-weight="700" font-style="normal" font-size="15" font-family="svglidedefault" fill="#4B5563">业</text><text x="684" y="274" width="15" height="20.09765625" font-weight="700" font-style="normal" font-size="15" font-family="svglidedefault" fill="#4B5563">客</text><text x="699" y="274" width="15" height="20.09765625" font-weight="700" font-style="normal" font-size="15" font-family="svglidedefault" fill="#4B5563">户</text><text x="714" y="274" width="4.16748046875" height="20.09765625" font-weight="700" font-style="normal" font-size="15" font-family="svglidedefault" fill="#4B5563"> </text><text x="718.16748046875" y="274" width="16.6845703125" height="20.09765625" font-weight="700" font-style="normal" font-size="15" font-family="svglidedefault" fill="#4B5563">82</text><mask id="satori_om-id-2-1-1"><rect x="654" y="286" width="214" height="12" fill="#fff"/></mask><rect x="654" y="286" width="214" height="12" fill="#F7F3E8"/><mask id="satori_om-id-2-1-1-0"><rect x="654" y="286" width="236" height="12" fill="#fff"/></mask><rect x="654" y="286" width="236" height="12" fill="#1E3A8A"/><mask id="satori_om-id-2-2"><rect x="654" y="314" width="214" height="40" fill="#fff"/></mask><mask id="satori_om-id-2-2-0"><rect x="654" y="314" width="214" height="20" fill="#fff"/></mask><text x="654" y="330" width="15" height="20.09765625" font-weight="700" font-style="normal" font-size="15" font-family="svglidedefault" fill="#4B5563">中</text><text x="669" y="330" width="15" height="20.09765625" font-weight="700" font-style="normal" font-size="15" font-family="svglidedefault" fill="#4B5563">型</text><text x="684" y="330" width="15" height="20.09765625" font-weight="700" font-style="normal" font-size="15" font-family="svglidedefault" fill="#4B5563">客</text><text x="699" y="330" width="15" height="20.09765625" font-weight="700" font-style="normal" font-size="15" font-family="svglidedefault" fill="#4B5563">户</text><text x="714" y="330" width="4.16748046875" height="20.09765625" font-weight="700" font-style="normal" font-size="15" font-family="svglidedefault" fill="#4B5563"> </text><text x="718.16748046875" y="330" width="16.6845703125" height="20.09765625" font-weight="700" font-style="normal" font-size="15" font-family="svglidedefault" fill="#4B5563">64</text><mask id="satori_om-id-2-2-1"><rect x="654" y="342" width="214" height="12" fill="#fff"/></mask><rect x="654" y="342" width="214" height="12" fill="#F7F3E8"/><mask id="satori_om-id-2-2-1-0"><rect x="654" y="342" width="194" height="12" fill="#fff"/></mask><rect x="654" y="342" width="194" height="12" fill="#1E3A8A"/><mask id="satori_om-id-2-3"><rect x="654" y="370" width="214" height="40" fill="#fff"/></mask><mask id="satori_om-id-2-3-0"><rect x="654" y="370" width="214" height="20" fill="#fff"/></mask><text x="654" y="386" width="32.5048828125" height="20.09765625" font-weight="700" font-style="normal" font-size="15" font-family="svglidedefault" fill="#4B5563">SMB</text><text x="686.5048828125" y="386" width="4.16748046875" height="20.09765625" font-weight="700" font-style="normal" font-size="15" font-family="svglidedefault" fill="#4B5563"> </text><text x="690.67236328125" y="386" width="16.6845703125" height="20.09765625" font-weight="700" font-style="normal" font-size="15" font-family="svglidedefault" fill="#4B5563">48</text><mask id="satori_om-id-2-3-1"><rect x="654" y="398" width="214" height="12" fill="#fff"/></mask><rect x="654" y="398" width="214" height="12" fill="#F7F3E8"/><mask id="satori_om-id-2-3-1-0"><rect x="654" y="398" width="154" height="12" fill="#fff"/></mask><rect x="654" y="398" width="154" height="12" fill="#1E3A8A"/><mask id="satori_om-id-2-4"><rect x="654" y="426" width="214" height="40" fill="#fff"/></mask><mask id="satori_om-id-2-4-0"><rect x="654" y="426" width="214" height="20" fill="#fff"/></mask><text x="654" y="442" width="15" height="20.09765625" font-weight="700" font-style="normal" font-size="15" font-family="svglidedefault" fill="#4B5563">伙</text><text x="669" y="442" width="15" height="20.09765625" font-weight="700" font-style="normal" font-size="15" font-family="svglidedefault" fill="#4B5563">伴</text><text x="684" y="442" width="4.16748046875" height="20.09765625" font-weight="700" font-style="normal" font-size="15" font-family="svglidedefault" fill="#4B5563"> </text><text x="688.16748046875" y="442" width="16.6845703125" height="20.09765625" font-weight="700" font-style="normal" font-size="15" font-family="svglidedefault" fill="#4B5563">36</text><mask id="satori_om-id-2-4-1"><rect x="654" y="454" width="214" height="12" fill="#fff"/></mask><rect x="654" y="454" width="214" height="12" fill="#F7F3E8"/><mask id="satori_om-id-2-4-1-0"><rect x="654" y="454" width="112" height="12" fill="#fff"/></mask><rect x="654" y="454" width="112" height="12" fill="#1E3A8A"/></svg>