<svg width="960" height="540" viewBox="0 0 960 540" xmlns="http://www.w3.org/2000/svg"><mask id="satori_om-id"><rect x="0" y="0" width="960" height="540" fill="#fff"/></mask><rect x="0" y="0" width="960" height="540" fill="#27130F"/><defs><clipPath id="satori_bc-id-0"><rect x="54" y="48" width="852" height="72"/></clipPath></defs><mask id="satori_om-id-0"><rect x="54" y="48" width="852" height="70" fill="#fff"/><path width="852" height="72" fill="none" stroke="#000" stroke-width="4" d="M906,120 A0,0 0 0 1 906,120 h-852 A0,0 0 0 1 54,120"/></mask><path width="852" height="72" clip-path="url(#satori_bc-id-0)" fill="none" stroke="#F97316" stroke-width="4" d="M906,120 A0,0 0 0 1 906,120 h-852 A0,0 0 0 1 54,120"/><mask id="satori_om-id-1"><rect x="60" y="72" width="95" height="21" fill="#fff"/></mask><text x="60" y="89" width="45.34375" height="21.4375" font-weight="850" font-style="normal" font-size="16" font-family="svglidedefault" fill="#F97316">FIELD</text><text x="105.34375" y="89" width="4.4453125" height="21.4375" font-weight="850" font-style="normal" font-size="16" font-family="svglidedefault" fill="#F97316"> </text><text x="109.7890625" y="89" width="44.4453125" height="21.4375" font-weight="850" font-style="normal" font-size="16" font-family="svglidedefault" fill="#F97316">NOTE</text><mask id="satori_om-id-2"><rect x="783" y="72" width="115" height="21" fill="#fff"/></mask><text x="783" y="89" width="114.6640625" height="21.4375" font-weight="750" font-style="normal" font-size="16" font-family="svglidedefault" fill="#F4C9A8">POSTMORTEM</text><mask id="satori_om-id-3"><rect x="58" y="142" width="36" height="86" fill="#fff"/></mask><text x="58" y="228" width="35.96484375" height="86.4" font-weight="900" font-style="normal" font-size="108" font-family="svglidedefault" fill="#F97316">“</text><mask id="satori_om-id-4"><rect x="132" y="148" width="518" height="90" fill="#fff"/></mask><text x="132" y="188" width="43" height="44.72" font-weight="900" font-style="normal" font-size="43" font-family="svglidedefault" fill="#FFF7ED">仪</text><text x="175" y="188" width="43" height="44.72" font-weight="900" font-style="normal" font-size="43" font-family="svglidedefault" fill="#FFF7ED">表</text><text x="218" y="188" width="43" height="44.72" font-weight="900" font-style="normal" font-size="43" font-family="svglidedefault" fill="#FFF7ED">盘</text><text x="261" y="188" width="43" height="44.72" font-weight="900" font-style="normal" font-size="43" font-family="svglidedefault" fill="#FFF7ED">变</text><text x="304" y="188" width="43" height="44.72" font-weight="900" font-style="normal" font-size="43" font-family="svglidedefault" fill="#FFF7ED">化</text><text x="347" y="188" width="43" height="44.72" font-weight="900" font-style="normal" font-size="43" font-family="svglidedefault" fill="#FFF7ED">之</text><text x="390" y="188" width="43" height="44.72" font-weight="900" font-style="normal" font-size="43" font-family="svglidedefault" fill="#FFF7ED">前</text><text x="433" y="188" width="43" height="44.72" font-weight="900" font-style="normal" font-size="43" font-family="svglidedefault" fill="#FFF7ED">，</text><text x="476" y="188" width="43" height="44.72" font-weight="900" font-style="normal" font-size="43" font-family="svglidedefault" fill="#FFF7ED">组</text><text x="519" y="188" width="43" height="44.72" font-weight="900" font-style="normal" font-size="43" font-family="svglidedefault" fill="#FFF7ED">织</text><text x="562" y="188" width="43" height="44.72" font-weight="900" font-style="normal" font-size="43" font-family="svglidedefault" fill="#FFF7ED">协</text><text x="605" y="188" width="43" height="44.72" font-weight="900" font-style="normal" font-size="43" font-family="svglidedefault" fill="#FFF7ED">作</text><text x="132" y="233" width="43" height="44.72" font-weight="900" font-style="normal" font-size="43" font-family="svglidedefault" fill="#FFF7ED">方</text><text x="175" y="233" width="43" height="44.72" font-weight="900" font-style="normal" font-size="43" font-family="svglidedefault" fill="#FFF7ED">式</text><text x="218" y="233" width="43" height="44.72" font-weight="900" font-style="normal" font-size="43" font-family="svglidedefault" fill="#FFF7ED">已</text><text x="261" y="233" width="43" height="44.72" font-weight="900" font-style="normal" font-size="43" font-family="svglidedefault" fill="#FFF7ED">经</text><text x="304" y="233" width="43" height="44.72" font-weight="900" font-style="normal" font-size="43" font-family="svglidedefault" fill="#FFF7ED">先</text><text x="347" y="233" width="43" height="44.72" font-weight="900" font-style="normal" font-size="43" font-family="svglidedefault" fill="#FFF7ED">变</text><text x="390" y="233" width="43" height="44.72" font-weight="900" font-style="normal" font-size="43" font-family="svglidedefault" fill="#FFF7ED">了</text><text x="433" y="233" width="43" height="44.72" font-weight="900" font-style="normal" font-size="43" font-family="svglidedefault" fill="#FFF7ED">。</text><mask id="satori_om-id-5"><rect x="138" y="352" width="420" height="24" fill="#fff"/></mask><text x="138" y="371" width="18" height="24.1171875" font-weight="750" font-style="normal" font-size="18" font-family="svglidedefault" fill="#F4C9A8">复</text><text x="156" y="371" width="18" height="24.1171875" font-weight="750" font-style="normal" font-size="18" font-family="svglidedefault" fill="#F4C9A8">盘</text><text x="174" y="371" width="18" height="24.1171875" font-weight="750" font-style="normal" font-size="18" font-family="svglidedefault" fill="#F4C9A8">访</text><text x="192" y="371" width="18" height="24.1171875" font-weight="750" font-style="normal" font-size="18" font-family="svglidedefault" fill="#F4C9A8">谈</text><text x="210" y="371" width="18" height="24.1171875" font-weight="750" font-style="normal" font-size="18" font-family="svglidedefault" fill="#F4C9A8">节</text><text x="228" y="371" width="18" height="24.1171875" font-weight="750" font-style="normal" font-size="18" font-family="svglidedefault" fill="#F4C9A8">选</text><text x="246" y="371" width="5.0009765625" height="24.1171875" font-weight="750" font-style="normal" font-size="18" font-family="svglidedefault" fill="#F4C9A8"> </text><text x="251.0009765625" y="371" width="5.0009765625" height="24.1171875" font-weight="750" font-style="normal" font-size="18" font-family="svglidedefault" fill="#F4C9A8">/</text><text x="256.001953125" y="371" width="5.0009765625" height="24.1171875" font-weight="750" font-style="normal" font-size="18" font-family="svglidedefault" fill="#F4C9A8"> </text><text x="261.0029296875" y="371" width="40.04296875" height="24.1171875" font-weight="750" font-style="normal" font-size="18" font-family="svglidedefault" fill="#F4C9A8">2026</text><text x="301.0458984375" y="371" width="5.0009765625" height="24.1171875" font-weight="750" font-style="normal" font-size="18" font-family="svglidedefault" fill="#F4C9A8"> </text><text x="306.046875" y="371" width="24.01171875" height="24.1171875" font-weight="750" font-style="normal" font-size="18" font-family="svglidedefault" fill="#F4C9A8">Q2</text><mask id="satori_om-id-6"><rect x="678" y="154" width="212" height="262" fill="#fff"/></mask><mask id="satori_om-id-6-0"><rect x="678" y="154" width="212" height="78" fill="#fff"/></mask><rect x="678" y="154" width="212" height="78" fill="#F97316"/><mask id="satori_om-id-6-0-0"><rect x="692" y="168" width="32" height="50" fill="#fff"/></mask><text x="692" y="196" width="14.4599609375" height="34.8359375" font-weight="900" font-style="normal" font-size="26" font-family="svglidedefault" fill="#27130F">1</text><mask id="satori_om-id-6-0-1"><rect x="724" y="168" width="152" height="50" fill="#fff"/></mask><text x="724" y="184" width="17" height="19.040000000000003" font-weight="760" font-style="normal" font-size="17" font-family="svglidedefault" fill="#27130F">信</text><text x="741" y="184" width="17" height="19.040000000000003" font-weight="760" font-style="normal" font-size="17" font-family="svglidedefault" fill="#27130F">号</text><text x="758" y="184" width="17" height="19.040000000000003" font-weight="760" font-style="normal" font-size="17" font-family="svglidedefault" fill="#27130F">早</text><text x="775" y="184" width="17" height="19.040000000000003" font-weight="760" font-style="normal" font-size="17" font-family="svglidedefault" fill="#27130F">于</text><text x="792" y="184" width="17" height="19.040000000000003" font-weight="760" font-style="normal" font-size="17" font-family="svglidedefault" fill="#27130F">指</text><text x="809" y="184" width="17" height="19.040000000000003" font-weight="760" font-style="normal" font-size="17" font-family="svglidedefault" fill="#27130F">标</text><text x="826" y="184" width="17" height="19.040000000000003" font-weight="760" font-style="normal" font-size="17" font-family="svglidedefault" fill="#27130F">移</text><text x="843" y="184" width="17" height="19.040000000000003" font-weight="760" font-style="normal" font-size="17" font-family="svglidedefault" fill="#27130F">动</text><mask id="satori_om-id-6-1"><rect x="678" y="246" width="212" height="78" fill="#fff"/></mask><rect x="678" y="246" width="212" height="78" fill="#3A211B"/><mask id="satori_om-id-6-1-0"><rect x="692" y="260" width="32" height="50" fill="#fff"/></mask><text x="692" y="288" width="14.4599609375" height="34.8359375" font-weight="900" font-style="normal" font-size="26" font-family="svglidedefault" fill="#F97316">2</text><mask id="satori_om-id-6-1-1"><rect x="724" y="260" width="152" height="50" fill="#fff"/></mask><text x="724" y="276" width="17" height="19.040000000000003" font-weight="760" font-style="normal" font-size="17" font-family="svglidedefault" fill="#FFF7ED">约</text><text x="741" y="276" width="17" height="19.040000000000003" font-weight="760" font-style="normal" font-size="17" font-family="svglidedefault" fill="#FFF7ED">束</text><text x="758" y="276" width="17" height="19.040000000000003" font-weight="760" font-style="normal" font-size="17" font-family="svglidedefault" fill="#FFF7ED">来</text><text x="775" y="276" width="17" height="19.040000000000003" font-weight="760" font-style="normal" font-size="17" font-family="svglidedefault" fill="#FFF7ED">自</text><text x="792" y="276" width="17" height="19.040000000000003" font-weight="760" font-style="normal" font-size="17" font-family="svglidedefault" fill="#FFF7ED">协</text><text x="809" y="276" width="17" height="19.040000000000003" font-weight="760" font-style="normal" font-size="17" font-family="svglidedefault" fill="#FFF7ED">作</text><text x="826" y="276" width="17" height="19.040000000000003" font-weight="760" font-style="normal" font-size="17" font-family="svglidedefault" fill="#FFF7ED">边</text><text x="843" y="276" width="17" height="19.040000000000003" font-weight="760" font-style="normal" font-size="17" font-family="svglidedefault" fill="#FFF7ED">界</text><mask id="satori_om-id-6-2"><rect x="678" y="338" width="212" height="78" fill="#fff"/></mask><rect x="678" y="338" width="212" height="78" fill="#3A211B"/><mask id="satori_om-id-6-2-0"><rect x="692" y="352" width="32" height="50" fill="#fff"/></mask><text x="692" y="380" width="14.4599609375" height="34.8359375" font-weight="900" font-style="normal" font-size="26" font-family="svglidedefault" fill="#F97316">3</text><mask id="satori_om-id-6-2-1"><rect x="724" y="352" width="152" height="50" fill="#fff"/></mask><text x="724" y="368" width="17" height="19.040000000000003" font-weight="760" font-style="normal" font-size="17" font-family="svglidedefault" fill="#FFF7ED">行</text><text x="741" y="368" width="17" height="19.040000000000003" font-weight="760" font-style="normal" font-size="17" font-family="svglidedefault" fill="#FFF7ED">动</text><text x="758" y="368" width="17" height="19.040000000000003" font-weight="760" font-style="normal" font-size="17" font-family="svglidedefault" fill="#FFF7ED">项</text><text x="775" y="368" width="17" height="19.040000000000003" font-weight="760" font-style="normal" font-size="17" font-family="svglidedefault" fill="#FFF7ED">需</text><text x="792" y="368" width="17" height="19.040000000000003" font-weight="760" font-style="normal" font-size="17" font-family="svglidedefault" fill="#FFF7ED">要</text><text x="809" y="368" width="4.72314453125" height="19.040000000000003" font-weight="760" font-style="normal" font-size="17" font-family="svglidedefault" fill="#FFF7ED"> </text><text x="813.72314453125" y="368" width="46.3017578125" height="19.040000000000003" font-weight="760" font-style="normal" font-size="17" font-family="svglidedefault" fill="#FFF7ED">owner</text></svg>