<svg width="960" height="540" viewBox="0 0 960 540" xmlns="http://www.w3.org/2000/svg"><mask id="satori_om-id"><rect x="0" y="0" width="960" height="540" fill="#fff"/></mask><rect x="0" y="0" width="960" height="540" fill="#081C4A"/><defs><clipPath id="satori_bc-id-0"><rect x="56" y="48" width="848" height="444"/></clipPath></defs><mask id="satori_om-id-0"><rect x="59" y="51" width="842" height="438" fill="#fff"/><path width="848" height="444" fill="none" stroke="#000" stroke-width="6" d="M56,48 A0,0 0 0 1 56,48 h848 a0,0 0 0 1 0,0 v444 a0,0 0 0 1 0,0 h-848 a0,0 0 0 1 0,0 v-444 A0,0 0 0 1 56,48"/></mask><path width="848" height="444" clip-path="url(#satori_bc-id-0)" fill="none" stroke="#EEF6FF" stroke-width="6" d="M56,48 A0,0 0 0 1 56,48 h848 a0,0 0 0 1 0,0 v444 a0,0 0 0 1 0,0 h-848 a0,0 0 0 1 0,0 v-444 A0,0 0 0 1 56,48"/><mask id="satori_om-id-1"><rect x="70" y="62" width="132" height="88" fill="#fff"/></mask><rect x="70" y="62" width="132" height="88" fill="#60A5FA"/><mask id="satori_om-id-2"><rect x="84" y="88" width="104" height="38" fill="#fff"/></mask><text x="84" y="104" width="100.1240234375" height="18.700000000000003" font-weight="900" font-style="normal" font-size="17" font-family="svglidedefault" fill="#081C4A">OPERATING</text><text x="184.1240234375" y="104" width="4.72314453125" height="18.700000000000003" font-weight="900" font-style="normal" font-size="17" font-family="svglidedefault" fill="#081C4A"> </text><text x="84" y="123" width="42.5" height="18.700000000000003" font-weight="900" font-style="normal" font-size="17" font-family="svglidedefault" fill="#081C4A">GRID</text><mask id="satori_om-id-3"><rect x="226" y="66" width="620" height="43" fill="#fff"/></mask><text x="226" y="104" width="42" height="42.84" font-weight="900" font-style="normal" font-size="42" font-family="svglidedefault" fill="#EEF6FF">渠</text><text x="268" y="104" width="42" height="42.84" font-weight="900" font-style="normal" font-size="42" font-family="svglidedefault" fill="#EEF6FF">道</text><text x="310" y="104" width="42" height="42.84" font-weight="900" font-style="normal" font-size="42" font-family="svglidedefault" fill="#EEF6FF">健</text><text x="352" y="104" width="42" height="42.84" font-weight="900" font-style="normal" font-size="42" font-family="svglidedefault" fill="#EEF6FF">康</text><text x="394" y="104" width="42" height="42.84" font-weight="900" font-style="normal" font-size="42" font-family="svglidedefault" fill="#EEF6FF">度</text><text x="436" y="104" width="42" height="42.84" font-weight="900" font-style="normal" font-size="42" font-family="svglidedefault" fill="#EEF6FF">复</text><text x="478" y="104" width="42" height="42.84" font-weight="900" font-style="normal" font-size="42" font-family="svglidedefault" fill="#EEF6FF">盘</text><mask id="satori_om-id-4"><rect x="226" y="158" width="560" height="23" fill="#fff"/></mask><text x="226" y="177" width="41.20068359375" height="23.18" font-weight="700" font-style="normal" font-size="19" font-family="svglidedefault" fill="#B7C8E8">12x8</text><text x="267.20068359375" y="177" width="5.27880859375" height="23.18" font-weight="700" font-style="normal" font-size="19" font-family="svglidedefault" fill="#B7C8E8"> </text><text x="272.4794921875" y="177" width="19" height="23.18" font-weight="700" font-style="normal" font-size="19" font-family="svglidedefault" fill="#B7C8E8">面</text><text x="291.4794921875" y="177" width="19" height="23.18" font-weight="700" font-style="normal" font-size="19" font-family="svglidedefault" fill="#B7C8E8">板</text><text x="310.4794921875" y="177" width="19" height="23.18" font-weight="700" font-style="normal" font-size="19" font-family="svglidedefault" fill="#B7C8E8">节</text><text x="329.4794921875" y="177" width="19" height="23.18" font-weight="700" font-style="normal" font-size="19" font-family="svglidedefault" fill="#B7C8E8">奏</text><text x="348.4794921875" y="177" width="19" height="23.18" font-weight="700" font-style="normal" font-size="19" font-family="svglidedefault" fill="#B7C8E8">承</text><text x="367.4794921875" y="177" width="19" height="23.18" font-weight="700" font-style="normal" font-size="19" font-family="svglidedefault" fill="#B7C8E8">载</text><text x="386.4794921875" y="177" width="19" height="23.18" font-weight="700" font-style="normal" font-size="19" font-family="svglidedefault" fill="#B7C8E8">高</text><text x="405.4794921875" y="177" width="19" height="23.18" font-weight="700" font-style="normal" font-size="19" font-family="svglidedefault" fill="#B7C8E8">密</text><text x="424.4794921875" y="177" width="19" height="23.18" font-weight="700" font-style="normal" font-size="19" font-family="svglidedefault" fill="#B7C8E8">度</text><text x="443.4794921875" y="177" width="19" height="23.18" font-weight="700" font-style="normal" font-size="19" font-family="svglidedefault" fill="#B7C8E8">指</text><text x="462.4794921875" y="177" width="19" height="23.18" font-weight="700" font-style="normal" font-size="19" font-family="svglidedefault" fill="#B7C8E8">标</text><text x="481.4794921875" y="177" width="19" height="23.18" font-weight="700" font-style="normal" font-size="19" font-family="svglidedefault" fill="#B7C8E8">，</text><text x="500.4794921875" y="177" width="19" height="23.18" font-weight="700" font-style="normal" font-size="19" font-family="svglidedefault" fill="#B7C8E8">强</text><text x="519.4794921875" y="177" width="19" height="23.18" font-weight="700" font-style="normal" font-size="19" font-family="svglidedefault" fill="#B7C8E8">调</text><text x="538.4794921875" y="177" width="19" height="23.18" font-weight="700" font-style="normal" font-size="19" font-family="svglidedefault" fill="#B7C8E8">异</text><text x="557.4794921875" y="177" width="19" height="23.18" font-weight="700" font-style="normal" font-size="19" font-family="svglidedefault" fill="#B7C8E8">常</text><text x="576.4794921875" y="177" width="19" height="23.18" font-weight="700" font-style="normal" font-size="19" font-family="svglidedefault" fill="#B7C8E8">和</text><text x="595.4794921875" y="177" width="19" height="23.18" font-weight="700" font-style="normal" font-size="19" font-family="svglidedefault" fill="#B7C8E8">下</text><text x="614.4794921875" y="177" width="19" height="23.18" font-weight="700" font-style="normal" font-size="19" font-family="svglidedefault" fill="#B7C8E8">一</text><text x="633.4794921875" y="177" width="19" height="23.18" font-weight="700" font-style="normal" font-size="19" font-family="svglidedefault" fill="#B7C8E8">步</text><text x="652.4794921875" y="177" width="19" height="23.18" font-weight="700" font-style="normal" font-size="19" font-family="svglidedefault" fill="#B7C8E8">。</text><mask id="satori_om-id-5"><rect x="70" y="228" width="548" height="176" fill="#fff"/></mask><mask id="satori_om-id-5-0"><rect x="70" y="228" width="170" height="82" fill="#fff"/></mask><rect x="70" y="228" width="170" height="82" fill="#EEF6FF"/><mask id="satori_om-id-5-0-0"><rect x="84" y="242" width="142" height="19" fill="#fff"/></mask><text x="84" y="257" width="15.572265625" height="18.7578125" font-weight="850" font-style="normal" font-size="14" font-family="svglidedefault" fill="#60A5FA">01</text><mask id="satori_om-id-5-0-1"><rect x="84" y="269" width="142" height="21" fill="#fff"/></mask><text x="84" y="287" width="19" height="20.520000000000003" font-weight="900" font-style="normal" font-size="19" font-family="svglidedefault" fill="#081C4A">转</text><text x="103" y="287" width="19" height="20.520000000000003" font-weight="900" font-style="normal" font-size="19" font-family="svglidedefault" fill="#081C4A">化</text><text x="122" y="287" width="5.27880859375" height="20.520000000000003" font-weight="900" font-style="normal" font-size="19" font-family="svglidedefault" fill="#081C4A"> </text><text x="127.27880859375" y="287" width="11.095703125" height="20.520000000000003" font-weight="900" font-style="normal" font-size="19" font-family="svglidedefault" fill="#081C4A">+</text><text x="138.37451171875" y="287" width="21.1337890625" height="20.520000000000003" font-weight="900" font-style="normal" font-size="19" font-family="svglidedefault" fill="#081C4A">12</text><text x="159.50830078125" y="287" width="16.89404296875" height="20.520000000000003" font-weight="900" font-style="normal" font-size="19" font-family="svglidedefault" fill="#081C4A">%</text><mask id="satori_om-id-5-1"><rect x="252" y="228" width="170" height="82" fill="#fff"/></mask><rect x="252" y="228" width="170" height="82" fill="#102C6B"/><mask id="satori_om-id-5-1-0"><rect x="266" y="242" width="142" height="19" fill="#fff"/></mask><text x="266" y="257" width="15.572265625" height="18.7578125" font-weight="850" font-style="normal" font-size="14" font-family="svglidedefault" fill="#B7C8E8">02</text><mask id="satori_om-id-5-1-1"><rect x="266" y="269" width="142" height="21" fill="#fff"/></mask><text x="266" y="287" width="19" height="20.520000000000003" font-weight="900" font-style="normal" font-size="19" font-family="svglidedefault" fill="#EEF6FF">履</text><text x="285" y="287" width="19" height="20.520000000000003" font-weight="900" font-style="normal" font-size="19" font-family="svglidedefault" fill="#EEF6FF">约</text><text x="304" y="287" width="5.27880859375" height="20.520000000000003" font-weight="900" font-style="normal" font-size="19" font-family="svglidedefault" fill="#EEF6FF"> </text><text x="309.27880859375" y="287" width="21.1337890625" height="20.520000000000003" font-weight="900" font-style="normal" font-size="19" font-family="svglidedefault" fill="#EEF6FF">94</text><text x="330.41259765625" y="287" width="16.89404296875" height="20.520000000000003" font-weight="900" font-style="normal" font-size="19" font-family="svglidedefault" fill="#EEF6FF">%</text><mask id="satori_om-id-5-2"><rect x="434" y="228" width="170" height="82" fill="#fff"/></mask><rect x="434" y="228" width="170" height="82" fill="#102C6B"/><mask id="satori_om-id-5-2-0"><rect x="448" y="242" width="142" height="19" fill="#fff"/></mask><text x="448" y="257" width="15.572265625" height="18.7578125" font-weight="850" font-style="normal" font-size="14" font-family="svglidedefault" fill="#B7C8E8">03</text><mask id="satori_om-id-5-2-1"><rect x="448" y="269" width="142" height="21" fill="#fff"/></mask><text x="448" y="287" width="19" height="20.520000000000003" font-weight="900" font-style="normal" font-size="19" font-family="svglidedefault" fill="#EEF6FF">成</text><text x="467" y="287" width="19" height="20.520000000000003" font-weight="900" font-style="normal" font-size="19" font-family="svglidedefault" fill="#EEF6FF">本</text><text x="486" y="287" width="5.27880859375" height="20.520000000000003" font-weight="900" font-style="normal" font-size="19" font-family="svglidedefault" fill="#EEF6FF"> </text><text x="491.27880859375" y="287" width="6.3271484375" height="20.520000000000003" font-weight="900" font-style="normal" font-size="19" font-family="svglidedefault" fill="#EEF6FF">-</text><text x="497.60595703125" y="287" width="10.56689453125" height="20.520000000000003" font-weight="900" font-style="normal" font-size="19" font-family="svglidedefault" fill="#EEF6FF">8</text><text x="508.1728515625" y="287" width="16.89404296875" height="20.520000000000003" font-weight="900" font-style="normal" font-size="19" font-family="svglidedefault" fill="#EEF6FF">%</text><mask id="satori_om-id-5-3"><rect x="70" y="322" width="170" height="82" fill="#fff"/></mask><rect x="70" y="322" width="170" height="82" fill="#EEF6FF"/><mask id="satori_om-id-5-3-0"><rect x="84" y="336" width="142" height="19" fill="#fff"/></mask><text x="84" y="351" width="15.572265625" height="18.7578125" font-weight="850" font-style="normal" font-size="14" font-family="svglidedefault" fill="#60A5FA">04</text><mask id="satori_om-id-5-3-1"><rect x="84" y="363" width="142" height="21" fill="#fff"/></mask><text x="84" y="381" width="19" height="20.520000000000003" font-weight="900" font-style="normal" font-size="19" font-family="svglidedefault" fill="#081C4A">风</text><text x="103" y="381" width="19" height="20.520000000000003" font-weight="900" font-style="normal" font-size="19" font-family="svglidedefault" fill="#081C4A">险</text><text x="122" y="381" width="5.27880859375" height="20.520000000000003" font-weight="900" font-style="normal" font-size="19" font-family="svglidedefault" fill="#081C4A"> </text><text x="127.27880859375" y="381" width="21.1337890625" height="20.520000000000003" font-weight="900" font-style="normal" font-size="19" font-family="svglidedefault" fill="#081C4A">L2</text><mask id="satori_om-id-5-4"><rect x="252" y="322" width="170" height="82" fill="#fff"/></mask><rect x="252" y="322" width="170" height="82" fill="#102C6B"/><mask id="satori_om-id-5-4-0"><rect x="266" y="336" width="142" height="19" fill="#fff"/></mask><text x="266" y="351" width="15.572265625" height="18.7578125" font-weight="850" font-style="normal" font-size="14" font-family="svglidedefault" fill="#B7C8E8">05</text><mask id="satori_om-id-5-4-1"><rect x="266" y="363" width="142" height="21" fill="#fff"/></mask><text x="266" y="381" width="19" height="20.520000000000003" font-weight="900" font-style="normal" font-size="19" font-family="svglidedefault" fill="#EEF6FF">样</text><text x="285" y="381" width="19" height="20.520000000000003" font-weight="900" font-style="normal" font-size="19" font-family="svglidedefault" fill="#EEF6FF">本</text><text x="304" y="381" width="5.27880859375" height="20.520000000000003" font-weight="900" font-style="normal" font-size="19" font-family="svglidedefault" fill="#EEF6FF"> </text><text x="309.27880859375" y="381" width="30.6337890625" height="20.520000000000003" font-weight="900" font-style="normal" font-size="19" font-family="svglidedefault" fill="#EEF6FF">42k</text><mask id="satori_om-id-5-5"><rect x="434" y="322" width="170" height="82" fill="#fff"/></mask><rect x="434" y="322" width="170" height="82" fill="#102C6B"/><mask id="satori_om-id-5-5-0"><rect x="448" y="336" width="142" height="19" fill="#fff"/></mask><text x="448" y="351" width="15.572265625" height="18.7578125" font-weight="850" font-style="normal" font-size="14" font-family="svglidedefault" fill="#B7C8E8">06</text><mask id="satori_om-id-5-5-1"><rect x="448" y="363" width="142" height="21" fill="#fff"/></mask><text x="448" y="381" width="39.06689453125" height="20.520000000000003" font-weight="900" font-style="normal" font-size="19" font-family="svglidedefault" fill="#EEF6FF">NPS</text><text x="487.06689453125" y="381" width="5.27880859375" height="20.520000000000003" font-weight="900" font-style="normal" font-size="19" font-family="svglidedefault" fill="#EEF6FF"> </text><text x="492.345703125" y="381" width="21.1337890625" height="20.520000000000003" font-weight="900" font-style="normal" font-size="19" font-family="svglidedefault" fill="#EEF6FF">48</text><mask id="satori_om-id-6"><rect x="638" y="230" width="252" height="252" fill="#fff"/></mask><mask id="satori_om-id-6-0"><rect x="638" y="230" width="252" height="76" fill="#fff"/></mask><rect x="638" y="230" width="252" height="76" fill="#60A5FA"/><mask id="satori_om-id-6-0-0"><rect x="652" y="244" width="108" height="48" fill="#fff"/></mask><text x="652" y="261" width="18" height="20.160000000000004" font-weight="900" font-style="normal" font-size="18" font-family="svglidedefault" fill="#081C4A">北</text><text x="670" y="261" width="18" height="20.160000000000004" font-weight="900" font-style="normal" font-size="18" font-family="svglidedefault" fill="#081C4A">区</text><text x="688" y="261" width="18" height="20.160000000000004" font-weight="900" font-style="normal" font-size="18" font-family="svglidedefault" fill="#081C4A">增</text><text x="706" y="261" width="18" height="20.160000000000004" font-weight="900" font-style="normal" font-size="18" font-family="svglidedefault" fill="#081C4A">长</text><text x="724" y="261" width="18" height="20.160000000000004" font-weight="900" font-style="normal" font-size="18" font-family="svglidedefault" fill="#081C4A">稳</text><text x="742" y="261" width="18" height="20.160000000000004" font-weight="900" font-style="normal" font-size="18" font-family="svglidedefault" fill="#081C4A">定</text><mask id="satori_om-id-6-1"><rect x="638" y="318" width="252" height="76" fill="#fff"/></mask><rect x="638" y="318" width="252" height="76" fill="#60A5FA"/><mask id="satori_om-id-6-1-0"><rect x="652" y="332" width="108" height="48" fill="#fff"/></mask><text x="652" y="349" width="18" height="20.160000000000004" font-weight="900" font-style="normal" font-size="18" font-family="svglidedefault" fill="#081C4A">瓶</text><text x="670" y="349" width="18" height="20.160000000000004" font-weight="900" font-style="normal" font-size="18" font-family="svglidedefault" fill="#081C4A">颈</text><text x="688" y="349" width="18" height="20.160000000000004" font-weight="900" font-style="normal" font-size="18" font-family="svglidedefault" fill="#081C4A">转</text><text x="706" y="349" width="18" height="20.160000000000004" font-weight="900" font-style="normal" font-size="18" font-family="svglidedefault" fill="#081C4A">向</text><text x="724" y="349" width="18" height="20.160000000000004" font-weight="900" font-style="normal" font-size="18" font-family="svglidedefault" fill="#081C4A">交</text><text x="742" y="349" width="18" height="20.160000000000004" font-weight="900" font-style="normal" font-size="18" font-family="svglidedefault" fill="#081C4A">付</text><mask id="satori_om-id-6-2"><rect x="638" y="406" width="252" height="76" fill="#fff"/></mask><rect x="638" y="406" width="252" height="76" fill="#60A5FA"/><mask id="satori_om-id-6-2-0"><rect x="652" y="420" width="131" height="48" fill="#fff"/></mask><text x="652" y="437" width="53.015625" height="20.160000000000004" font-weight="900" font-style="normal" font-size="18" font-family="svglidedefault" fill="#081C4A">Owner</text><text x="705.015625" y="437" width="5.0009765625" height="20.160000000000004" font-weight="900" font-style="normal" font-size="18" font-family="svglidedefault" fill="#081C4A"> </text><text x="710.0166015625" y="437" width="18" height="20.160000000000004" font-weight="900" font-style="normal" font-size="18" font-family="svglidedefault" fill="#081C4A">需</text><text x="728.0166015625" y="437" width="18" height="20.160000000000004" font-weight="900" font-style="normal" font-size="18" font-family="svglidedefault" fill="#081C4A">要</text><text x="746.0166015625" y="437" width="18" height="20.160000000000004" font-weight="900" font-style="normal" font-size="18" font-family="svglidedefault" fill="#081C4A">清</text><text x="764.0166015625" y="437" width="18" height="20.160000000000004" font-weight="900" font-style="normal" font-size="18" font-family="svglidedefault" fill="#081C4A">晰</text></svg>